<?xml version="1.0" encoding="UTF-8"?>
<svg width="205px" height="200px" viewBox="0 0 205 200" version="1.1" xmlns="http://www.w3.org/2000/svg" xmlns:xlink="http://www.w3.org/1999/xlink">
    <title>待审核</title>
    <defs>
        <linearGradient x1="50%" y1="68.5255198%" x2="40.5944508%" y2="26.961013%" id="linearGradient-1">
            <stop stop-color="#A1B7FE" stop-opacity="0" offset="0%"></stop>
            <stop stop-color="#A1B7FE" stop-opacity="0.4" offset="100%"></stop>
        </linearGradient>
        <polygon id="path-2" points="0 0.0693846124 14.7369391 0.0693846124 14.7369391 9.7441087 0 9.7441087"></polygon>
        <polygon id="path-4" points="0.0155160368 0.0198724857 14.8913941 0.0198724857 14.8913941 7.92639811 0.0155160368 7.92639811"></polygon>
        <polygon id="path-6" points="0.0163473515 0.027838267 14.8862609 0.027838267 14.8862609 6.65155716 0.0163473515 6.65155716"></polygon>
    </defs>
    <g id="打开项目" stroke="none" stroke-width="1" fill="none" fill-rule="evenodd" opacity="0.8">
        <g id="个人工作台-空" transform="translate(-796.000000, -480.000000)">
            <g id="编组-4" transform="translate(688.000000, 319.000000)">
                <g id="编组-8" transform="translate(108.000000, 66.000000)">
                    <g id="待审核" transform="translate(0.000000, 95.000000)">
                        <ellipse id="椭圆形" fill-opacity="0.1" fill="#0E1D80" cx="131.149254" cy="183.920398" rx="70.1492537" ry="15.920398"></ellipse>
                        <g id="云" transform="translate(0.000000, 0.000000)" fill="url(#linearGradient-1)">
                            <path d="M79.718484,29.2623022 C79.718484,29.2326129 79.7195597,29.2031935 79.7195597,29.1735042 C79.7195597,13.0613975 66.7059598,-2.82803079e-14 50.6528147,-2.82803079e-14 C38.7503713,-2.82803079e-14 28.5205788,7.18156889 24.0256659,17.4618898 C22.8854666,17.2648608 21.7138043,17.1609483 20.5176707,17.1609483 C9.18613373,17.1609483 1.48471616e-13,26.3808218 1.48471616e-13,37.7539784 C1.48471616e-13,49.1271349 9.18613373,58.3470084 20.5176707,58.3470084 L81.3225615,58.3470084 C89.3491341,58.3470084 95.8557995,51.8161747 95.8557995,43.7601214 C95.8557995,35.704068 89.3491341,29.1735042 81.3225615,29.1735042 C80.780429,29.1735042 80.2452883,29.2042731 79.718484,29.2623022 Z" id="Fill-5"></path>
                        </g>
                        <g id="management" transform="translate(56.000000, 29.000000)">
                            <path d="M8.76322768,0 L140.211643,0 C146.053795,0 148.974871,2.91301225 148.974871,8.73903676 L148.974871,101.372825 C148.974871,107.198849 146.053795,110.111861 140.211643,110.111861 L8.76322768,110.111861 C2.92107589,110.111861 0,107.198849 0,101.372825 L0,8.73903676 C0,2.91301238 2.92107589,0 8.76322768,0 Z" id="路径" fill="#A1B7FE"></path>
                            <path d="M58.1659939,6.79702846 L126.344167,6.79702846 C128.675045,6.79702846 129.840484,7.92986657 129.840484,10.1955428 L129.840484,10.1955428 C129.840484,12.4612189 128.675045,13.5940569 126.344167,13.5940569 L58.1659939,13.5940569 C55.8351162,13.5940569 54.6696774,12.4612189 54.6696774,10.1955428 L54.6696774,10.1955428 C54.6696774,7.92986669 55.8351162,6.79702846 58.1659939,6.79702846 Z" id="路径" fill-opacity="0.6" fill="#FFFFFF"></path>
                            <path d="M12.3006773,6.79702846 L12.3006773,6.79702846 C14.5785805,6.79702846 15.7175322,7.92986657 15.7175322,10.1955428 L15.7175322,10.1955428 C15.7175322,12.4612189 14.5785806,13.5940569 12.3006773,13.5940569 L12.3006773,13.5940569 C10.0227742,13.5940569 8.88382257,12.4612189 8.88382257,10.1955428 L8.88382257,10.1955428 C8.88382257,7.92986669 10.0227742,6.79702846 12.3006773,6.79702846 Z" id="路径" fill="#F9FAFF"></path>
                            <path d="M24.6013549,6.79702846 L24.6013549,6.79702846 C26.8792581,6.79702846 28.0182097,7.92986657 28.0182097,10.1955428 L28.0182097,10.1955428 C28.0182097,12.4612189 26.8792581,13.5940569 24.6013549,13.5940569 L24.6013549,13.5940569 C22.3234518,13.5940569 21.1845,12.4612189 21.1845,10.1955428 L21.1845,10.1955428 C21.1845,7.92986669 22.3234516,6.79702846 24.6013549,6.79702846 Z" id="路径" fill="#F9FAFF"></path>
                            <path d="M36.9020321,6.79702846 L36.9020321,6.79702846 C39.1799353,6.79702846 40.3188871,7.92986657 40.3188871,10.1955428 L40.3188871,10.1955428 C40.3188871,12.4612189 39.1799354,13.5940569 36.9020321,13.5940569 L36.9020321,13.5940569 C34.624129,13.5940569 33.4851774,12.4612189 33.4851774,10.1955428 L33.4851774,10.1955428 C33.4851774,7.92986669 34.624129,6.79702846 36.9020321,6.79702846 Z" id="路径" fill="#F9FAFF"></path>
                            <path d="M0,21.0707882 L148.974871,21.0707882 L148.974871,101.382344 C148.974871,106.203656 145.051574,110.111861 140.211643,110.111861 L8.76322768,110.111861 C3.92329695,110.111861 0,106.203656 0,101.382344 L0,21.0707882 Z" id="路径" fill="#F2F4FD"></path>
                            <g id="分组备份" transform="translate(17.910448, 30.845771)">
                                <path d="M7.46268657,0 C3.34115139,0 0,3.34115139 0,7.46268657 C0,11.5842051 3.34115139,14.9253731 7.46268657,14.9253731 C11.5842217,14.9253731 14.9253731,11.5842051 14.9253731,7.46268657 C14.9253731,3.34115139 11.5842217,0 7.46268657,0" id="Fill-1" fill="#5266D4"></path>
                                <path d="M6.40131196,10.4960732 L5.97014925,10.0232127 L10.1482537,5.42432484 C10.291121,5.26762417 10.5227695,5.26762417 10.665652,5.42432484 L10.8381232,5.61345901 C10.9809904,5.77015967 10.9809904,6.02421102 10.8381232,6.18091169 L6.91871026,10.4960732 C6.77584303,10.6527738 6.54419444,10.6527738 6.40131196,10.4960732" id="Fill-3" fill="#FFFFFF"></path>
                                <path d="M7.960199,9.9596373 L7.49599457,10.4834175 C7.34216243,10.6569924 7.09276169,10.6569924 6.93894597,10.4834175 L5.09049848,8.39774116 C4.93666634,8.2241848 4.93666634,7.94277608 5.09049848,7.7692012 L5.27617041,7.55970023 C5.43000254,7.38612535 5.67940329,7.38612535 5.83323542,7.55970023 L7.960199,9.9596373 Z" id="Fill-5" fill="#FFFFFF"></path>
                            </g>
                            <g id="分组备份" transform="translate(17.910448, 56.716418)">
                                <path d="M7.46268657,0 C3.34115139,0 0,3.34115139 0,7.46268657 C0,11.5842051 3.34115139,14.9253731 7.46268657,14.9253731 C11.5842217,14.9253731 14.9253731,11.5842051 14.9253731,7.46268657 C14.9253731,3.34115139 11.5842217,0 7.46268657,0" id="Fill-1" fill="#5266D4"></path>
                                <path d="M6.40131196,9.8400686 L5.97014925,9.39676187 L10.1482537,5.08530453 C10.291121,4.93839766 10.5227695,4.93839766 10.665652,5.08530453 L10.8381232,5.26261782 C10.9809904,5.4095247 10.9809904,5.64769784 10.8381232,5.79460471 L6.91871026,9.8400686 C6.77584303,9.98697547 6.54419444,9.98697547 6.40131196,9.8400686" id="Fill-3" fill="#FFFFFF"></path>
                                <path d="M7.960199,9.33715997 L7.49599457,9.82820392 C7.34216243,9.99093037 7.09276169,9.99093037 6.93894597,9.82820392 L5.09049848,7.87288234 C4.93666634,7.71017325 4.93666634,7.44635258 5.09049848,7.28362613 L5.27617041,7.08721897 C5.43000254,6.92449252 5.67940329,6.92449252 5.83323542,7.08721897 L7.960199,9.33715997 Z" id="Fill-5" fill="#FFFFFF"></path>
                            </g>
                            <g id="分组备份" transform="translate(17.910448, 83.582090)">
                                <path d="M7.46268657,0 C3.34115139,0 0,3.34115139 0,7.46268657 C0,11.5842051 3.34115139,14.9253731 7.46268657,14.9253731 C11.5842217,14.9253731 14.9253731,11.5842051 14.9253731,7.46268657 C14.9253731,3.34115139 11.5842217,0 7.46268657,0" id="Fill-1" fill="#5266D4"></path>
                                <path d="M6.40131196,9.8400686 L5.97014925,9.39676187 L10.1482537,5.08530453 C10.291121,4.93839766 10.5227695,4.93839766 10.665652,5.08530453 L10.8381232,5.26261782 C10.9809904,5.4095247 10.9809904,5.64769784 10.8381232,5.79460471 L6.91871026,9.8400686 C6.77584303,9.98697547 6.54419444,9.98697547 6.40131196,9.8400686" id="Fill-3" fill="#FFFFFF"></path>
                                <path d="M7.960199,9.33715997 L7.49599457,9.82820392 C7.34216243,9.99093037 7.09276169,9.99093037 6.93894597,9.82820392 L5.09049848,7.87288234 C4.93666634,7.71017325 4.93666634,7.44635258 5.09049848,7.28362613 L5.27617041,7.08721897 C5.43000254,6.92449252 5.67940329,6.92449252 5.83323542,7.08721897 L7.960199,9.33715997 Z" id="Fill-5" fill="#FFFFFF"></path>
                            </g>
                            <path d="M49.3674327,33.9851423 L127.33713,33.9851423 C129.013897,33.9851423 129.852281,34.5515613 129.852281,35.6843994 L129.852281,35.6843994 C129.852281,36.8172375 129.013897,37.3836565 127.33713,37.3836565 L49.3674327,37.3836565 C47.6906651,37.3836565 46.852281,36.8172375 46.852281,35.6843994 L46.852281,35.6843994 C46.852281,34.5515613 47.6906649,33.9851423 49.3674327,33.9851423 Z" id="路径" fill="#E5E7F3"></path>
                            <path d="M49.3674327,60.4935533 L127.33713,60.4935533 C129.013897,60.4935533 129.852281,61.0599723 129.852281,62.1928103 L129.852281,62.1928103 C129.852281,63.3256483 129.013897,63.8920675 127.33713,63.8920675 L49.3674327,63.8920675 C47.6906651,63.8920675 46.852281,63.3256485 46.852281,62.1928103 L46.852281,62.1928103 C46.852281,61.0599723 47.6906649,60.4935533 49.3674327,60.4935533 Z" id="路径" fill="#E5E7F3"></path>
                            <path d="M49.3674327,86.3222615 L127.33713,86.3222615 C129.013897,86.3222615 129.852281,86.8886805 129.852281,88.0215187 L129.852281,88.0215187 C129.852281,89.1543567 129.013897,89.7207757 127.33713,89.7207757 L49.3674327,89.7207757 C47.6906651,89.7207757 46.852281,89.1543567 46.852281,88.0215187 L46.852281,88.0215187 C46.852281,86.8886807 47.6906649,86.3222615 49.3674327,86.3222615 Z" id="路径" fill="#E5E7F3"></path>
                            <path d="M49.3387677,40.7821708 L90.3657943,40.7821708 C92.0234519,40.7821708 92.852281,41.3485898 92.852281,42.4814279 L92.852281,42.4814279 C92.852281,43.614266 92.0234521,44.180685 90.3657943,44.180685 L49.3387677,44.180685 C47.6811101,44.180685 46.852281,43.614266 46.852281,42.4814279 L46.852281,42.4814279 C46.852281,41.3485898 47.6811099,40.7821708 49.3387677,40.7821708 Z" id="路径" fill="#E5E7F3"></path>
                            <path d="M49.3387677,67.2905818 L90.3657943,67.2905818 C92.0234519,67.2905818 92.852281,67.8570008 92.852281,68.9898389 L92.852281,68.9898389 C92.852281,70.122677 92.0234521,70.689096 90.3657943,70.689096 L49.3387677,70.689096 C47.6811101,70.689096 46.852281,70.122677 46.852281,68.9898389 L46.852281,68.9898389 C46.852281,67.8570008 47.6811099,67.2905818 49.3387677,67.2905818 Z" id="路径" fill="#E5E7F3"></path>
                            <path d="M49.3387677,93.1192899 L90.3657943,93.1192899 C92.0234519,93.1192899 92.852281,93.685709 92.852281,94.8185471 L92.852281,94.8185471 C92.852281,95.9513851 92.0234521,96.5178042 90.3657943,96.5178042 L49.3387677,96.5178042 C47.6811101,96.5178042 46.852281,95.9513851 46.852281,94.8185471 L46.852281,94.8185471 C46.852281,93.6857091 47.6811099,93.1192899 49.3387677,93.1192899 Z" id="路径" fill="#E5E7F3"></path>
                        </g>
                        <g id="编组" transform="translate(89.000000, 131.000000)">
                            <g transform="translate(0.000000, 25.870647)">
                                <mask id="mask-3" fill="white">
                                    <use xlink:href="#path-2"></use>
                                </mask>
                                <g id="Clip-2"></g>
                                <path d="M0.0156237959,9.7441087 C0.0156237959,9.7441087 -0.624433391,4.13598858 6.28818423,1.61233453 C13.2008018,-0.911319518 14.7369391,0.420609009 14.7369391,0.420609009 L14.0968819,2.66385705 C14.0968819,2.66385705 13.0087847,8.27197717 8.01633863,9.04309368 C3.02389257,9.8142102 1.10372101,8.69258618 0.0156237959,9.7441087" id="Fill-1" fill="#A1B7FE" mask="url(#mask-3)"></path>
                            </g>
                            <path d="M14.70848,25.8706468 L14.9253731,26.0389033 L14.9074175,26.0613804 C14.8995825,26.0710201 14.8898951,26.0827826 14.878348,26.0965946 L14.8440525,26.1371086 C14.8199536,26.1652463 14.7933823,26.1956227 14.7643275,26.2281281 L14.7420706,26.2529047 C14.5913916,26.4198267 14.4095587,26.6054417 14.1960999,26.8050519 C13.5877034,27.3739776 12.847215,27.9423862 11.9708934,28.4725961 C10.2110602,29.5373665 8.13308878,30.3113346 5.72578048,30.6717531 L5.63647031,30.6849126 C4.01612253,30.919834 2.72490527,31.4574333 1.72470741,32.2054805 C1.2448938,32.5643327 0.864107238,32.9482076 0.572240293,33.3312992 C0.470647226,33.4646457 0.387528566,33.5880808 0.321639731,33.6983499 L0.300127253,33.7349653 C0.290004963,33.7525063 0.280829274,33.7688856 0.272580733,33.7840523 L0.249572184,33.8279996 L0.248195613,33.8308458 L0,33.7134245 L0.00757453842,33.6979317 C0.023289245,33.6665904 0.0491059173,33.6192119 0.0858111986,33.5577834 C0.156875755,33.4388524 0.245734296,33.3068933 0.353686613,33.1651999 C0.660520768,32.7624631 1.05924056,32.3605095 1.56009359,31.9859219 C2.58209214,31.2215699 3.89306308,30.6709057 5.52582568,30.4240073 L5.59701822,30.4134642 C8.00486588,30.0643765 10.0777165,29.2973469 11.8285978,28.2379928 C12.688073,27.7179755 13.4134838,27.1611406 14.008398,26.6048228 C14.2022512,26.4235461 14.3688558,26.2545833 14.5085706,26.1017389 L14.5380981,26.0692347 C14.5815302,26.0211206 14.6194216,25.9777503 14.6518069,25.9394924 L14.6880602,25.8960245 L14.70848,25.8706468 Z" id="Stroke-3" fill="#5266D4" fill-rule="nonzero"></path>
                            <path d="M13.9303483,38.8059701 L14.9253731,38.8059701 L14.9253731,25.8706468 L13.9303483,25.8706468 L14.1984692,29.8451805 C14.2747799,30.9760875 14.2831228,32.1099689 14.2235744,33.2417059 L13.9303483,38.8059701 Z" id="Fill-5" fill="#A1B7FE"></path>
                            <g id="编组-2" transform="translate(0.995025, 13.930348)">
                                <path d="M1.49649963e-13,2.42316737 C1.49649963e-13,2.42316737 2.60436425,-1.77860959 8.80903879,0.883763022 C15.0136479,3.54606622 15.3246275,5.67197974 15.3246275,5.67197974 L13.6944872,6.53324371 C13.6944872,6.53324371 9.88232082,9.64231847 5.9733209,7.00757406 C2.0643864,4.37282965 1.33270432,2.39921831 1.49649963e-13,2.42316737" id="Fill-7" fill="#A1B7FE"></path>
                                <path d="M14.4740757,28.7880214 L15.1283564,28.7880214 L15.3847036,5.87299918 C15.3878441,5.59040019 15.212366,5.34042747 14.9562151,5.26274919 L14.4740757,5.11662518 C14.4740757,5.11662518 14.6383656,7.24580132 14.6049319,9.90636908 C14.5729375,12.4515648 14.3432196,15.4801152 14.3432196,17.7232056 C14.3432196,24.0676257 14.4740757,28.7880214 14.4740757,28.7880214" id="Fill-9" fill="#A1B7FE"></path>
                                <path d="M8.84724878,2.2705181 C11.6707316,4.59545184 14.5394907,6.08848524 14.5394907,6.08848524 L13.6944872,6.53324371 C13.6944872,6.53324371 9.88232082,9.64231847 5.9733209,7.00757406 C2.0643864,4.37282965 1.33270432,2.39921831 1.49649963e-13,2.42316737 C1.49649963e-13,2.42316737 4.46356823,-1.33919628 8.84724878,2.2705181 Z" id="Fill-11" fill="#5266D4"></path>
                            </g>
                            <g id="编组-2备份" transform="translate(26.368159, 33.830846) scale(-1, 1) translate(-26.368159, -33.830846) translate(20.895522, 23.880597)" fill="#A1B7FE">
                                <path d="M0,1.6424351 C0,1.6424351 1.81174446,-1.20555058 6.12807032,0.599019048 C10.4443507,2.40354162 10.6606858,3.84449656 10.6606858,3.84449656 L9.52666716,4.42826564 C9.52666716,4.42826564 6.87470657,6.53561225 4.15538305,4.74976915 C1.43610504,2.96392606 0.927105211,1.62620231 0,1.6424351" id="Fill-7"></path>
                                <path d="M10.079208,19.6284204 L10.5454539,19.6284204 L10.728129,4.0202656 C10.7303669,3.82777839 10.6053198,3.65751397 10.4227846,3.60460481 L10.079208,3.50507507 C10.079208,3.50507507 10.1962824,4.95532506 10.1724572,6.76752288 C10.1496578,8.50113713 9.98595888,10.5639797 9.98595888,12.0918203 C9.98595888,16.4132078 10.079208,19.6284204 10.079208,19.6284204" id="Fill-9"></path>
                            </g>
                            <g transform="translate(17.910448, 8.955224)">
                                <mask id="mask-5" fill="white">
                                    <use xlink:href="#path-4"></use>
                                </mask>
                                <g id="Clip-14"></g>
                                <path d="M14.8914131,2.39480886 C14.8914131,2.39480886 12.363309,-1.72333546 6.34031756,0.886044989 C0.317389648,3.4953574 0.0155160368,5.5789565 0.0155160368,5.5789565 L1.59792315,6.42307777 C1.59792315,6.42307777 5.298463,9.47026917 9.09300095,6.887967 C12.8874754,4.30566484 13.5977326,2.37133648 14.8914131,2.39480886" id="Fill-13" fill="#A1B7FE" mask="url(#mask-5)"></path>
                            </g>
                            <path d="M17.7854339,37.8109453 L17.1603647,37.8109453 L16.9154625,14.6653849 C16.9124622,14.3907581 17.0801058,14.1478371 17.3248204,14.0723501 L17.7854339,13.9303483 C17.7854339,13.9303483 17.628479,15.9994603 17.6604201,18.5849734 C17.6909859,21.0583692 17.9104478,24.0014841 17.9104478,26.1812969 C17.9104478,32.3467409 17.7854339,37.8109453 17.7854339,37.8109453" id="Fill-15" fill="#A1B7FE"></path>
                            <g transform="translate(17.910448, 9.950249)">
                                <mask id="mask-7" fill="white">
                                    <use xlink:href="#path-6"></use>
                                </mask>
                                <g id="Clip-18"></g>
                                <path d="M14.886281,1.57379247 C14.886281,1.57379247 10.3212681,-1.81115539 5.8379584,1.43645598 C2.95030549,3.52816753 0.0163473515,4.87142955 0.0163473515,4.87142955 L0.880555475,5.27157275 C0.880555475,5.27157275 4.779362,8.06876541 8.77720283,5.69832137 C12.7749767,3.32787734 13.523288,1.55224582 14.886281,1.57379247" id="Fill-17" fill="#5266D4" mask="url(#mask-7)"></path>
                            </g>
                            <path d="M19.1288729,37.8109453 L20.3948079,37.8109453 L20.8955224,23.3476955 L19.941901,9.69676148 C19.9454754,9.41970572 19.7457556,9.17463625 19.4542182,9.09848165 L18.9054726,8.95522388 C18.9054726,8.95522388 20.0969408,19.7959917 20.0969408,21.9950835 C20.0969408,28.2150568 19.1288729,37.8109453 19.1288729,37.8109453" id="Fill-19" fill="#A1B7FE"></path>
                            <path d="M5.97014925,1.66439486 C5.97014925,1.66439486 8.46147039,-2.09113362 14.3626359,1.68038891 C20.3070996,5.47956927 19.8943611,10.4634966 19.8943611,10.4634966 L17.9947347,10.6647143 C17.9947347,10.6647143 13.1727277,12.1666184 10.2471905,8.22048834 C7.3216534,4.27435829 7.28727568,2.14086387 5.97014925,1.66439486" id="Fill-21" fill="#A1B7FE"></path>
                            <path d="M5.97014925,0.68519906 C5.97014925,0.68519906 8.63689423,-1.32361589 10.9037366,1.53785249 C12.0636656,3.00205415 14.1157847,4.10599248 14.9976036,4.95432303 C17.2883269,7.15829514 18.9054726,9.56760411 18.9054726,9.56760411 L17.926902,9.67016795 C17.926902,9.67016795 13.1320967,11.1695104 10.223063,7.23011075 C7.31402933,3.29071105 7.27984554,1.16085543 5.97014925,0.68519906" id="Fill-23" fill="#5266D4"></path>
                            <path d="M25.2452026,56.7164179 L9.58066809,56.7164179 C8.68569652,56.7164179 7.960199,55.9909204 7.960199,55.0959488 L7.960199,39.4314144 C7.960199,38.5364428 8.68569652,37.8109453 9.58066809,37.8109453 L25.2452026,37.8109453 C26.1401741,37.8109453 26.8656716,38.5364428 26.8656716,39.4314144 L26.8656716,55.0959488 C26.8656716,55.9909204 26.1401741,56.7164179 25.2452026,56.7164179" id="Fill-25" fill="#5266D4"></path>
                        </g>
                        <g id="分组" transform="translate(128.000000, 67.000000)">
                            <path d="M28.5363375,66.5826227 C28.5363375,66.5826227 22.6485723,86.3654058 23.0165577,89.1349955 C23.384543,91.9045851 25.5924549,115.643925 25.5924549,115.643925 L23.0165577,118.413515 C24.3670638,119.367045 26.8988028,119.003041 29.6402935,118.413515 L28.5363375,114.456958 C28.5363375,114.456958 31.8482055,84.7827832 31.4802201,88.3436841 C31.1122348,91.9045851 37,65 37,65 L28.5363375,66.5826227 Z" id="右腿-2" fill="#FFE4A8"></path>
                            <path d="M20.0655309,91.2329876 C21.7445036,93.6936458 34.5601485,110.249727 37.8064191,114.434054 C38.2678351,115.03068 38.3923959,115.838336 38.1337418,116.556422 L37.6100255,118.014292 C37.4770867,118.385499 37.249323,118.711454 36.9515293,118.956672 C36.6242067,119.226498 36.2391212,119.592979 36.2391212,119.826561 C36.2391212,120.060142 37.5561135,120.015842 38.5496341,119.935297 C39.2596073,119.879179 39.8915514,119.44366 40.2209051,118.783499 C40.9025064,117.422284 42,115.158962 42,114.591118 C42,114.168255 41.1489611,113.411129 40.3441324,112.786903 C39.3835151,112.045961 38.638329,111.040787 38.1915046,109.883246 L30.1047094,88.9414745 C30.0729323,88.8600382 30.0459264,88.7766537 30.0238415,88.6917841 L23.5852122,63.622067 C23.3282197,62.5873409 22.3879876,61.903303 21.3709707,62.0111614 L17.8551402,62.4138878 C16.7212983,62.5366356 15.8962633,63.5958091 16.0105808,64.7819189 C16.6344192,71.0282051 18.4789787,88.9132837 20.0655309,91.2329876 Z" id="左腿-2" fill="#FFE4A8"></path>
                            <path d="M42.5910259,114.023466 C43.2743783,113.764944 44,115.71869 44,116.142496 C44,116.566302 42.0063017,120.528888 41.5342953,120.804361 C41.062289,121.079835 37.9202768,121.050169 37.3073731,120.804361 C36.5606168,120.507697 37.2298795,118.685332 38.7163472,118.685332 L40.8298083,118.685332 C40.8298083,118.685332 41.9534651,116.015354 42.5910259,114.023466 Z" id="路径" fill="#5266D4"></path>
                            <path d="M23.9640047,117.156261 C21.8803596,117.337409 20.7026472,118.697943 21.0650202,119.468784 C21.4273933,120.239625 24.5293067,119.981394 26.1382431,119.854205 C27.9501084,119.468784 29.0372276,119.468784 29.7619737,118.697943 C30.1243468,117.541682 30.1243468,116.493338 29.3996007,116 C29.3996007,116 27.2253623,117.927102 26.1382431,117.927102 C25.3639152,117.869607 24.6159016,117.604411 23.9640047,117.156261 L23.9640047,117.156261 Z" id="路径" fill="#5266D4"></path>
                            <path d="M15,66.4789304 C15,66.4789304 17.9333333,89.56012 19.0333333,89.9650532 C20.1333333,90.3699863 24.9,87.1305211 27.4666667,86.7255879 C30.0333333,86.3206548 31.1333333,88.3453205 32.6,87.9403874 C34.0666667,87.5354542 37,64.0493315 37,64.0493315 L25.6333333,60 L15,66.4789304 Z" id="裙子" fill="#0E1D80"></path>
                            <path d="M34.2540459,23 L29.7023413,23 L23.6334019,28.9985645 L26.6678716,23 C26.6678716,23 21.7368583,25.7993301 19.461006,28.9985645 C17.1851538,32.1977989 16.805845,31.7978946 16.0472276,36.5967462 C15.2886102,41.3955978 18.7023886,48.5938751 17.1851538,54.1925353 C15.6679189,59.7911955 13.3920666,62.9904299 14.150684,66.5895686 C16.4265363,68.5890901 24.771328,62.5905256 30.8402675,63.3903342 C36.9092069,64.1901428 36.1505895,65.78976 37.6678243,64.5900471 C39.1850592,63.3903342 35.0126633,40.5957892 35.0126633,45.3946407 C35.0126633,50.1934923 36.9092069,25.3994258 36.9092069,25.3994258 L34.2540459,23 Z" id="衣服" fill="#5266D4"></path>
                            <path d="M17.7222222,32 L27.6116667,42.0013633 L29,35.6383294 L36,37.2553647 C36,37.2553647 31.7222222,50.595906 30.1666667,51.4044236 C28.6111111,52.2129413 28.2222222,52.6172001 25.1111111,49.7873883 C22,46.9575765 15,32 15,32 L17.7222222,32 Z" id="右胳膊-2" fill="#FFE4A8"></path>
                            <path d="M32.8102953,22.155671 C29.5091195,23.7896881 28.5889167,26.4286258 27.0332376,29.5087481 C25.9603554,32.3682781 25.7952966,36.8618252 26.2079436,38.087338 C26.6205906,39.3128508 32.8102953,41.3553723 34.0482362,40.946868 C35.2861772,40.5383637 39,32.7767823 39,28.2832352 C39,23.7896881 35.2861772,21.3386624 32.8102953,22.155671 Z" id="右袖子-2" fill="#7589F2"></path>
                            <path d="M13.9077337,25.2103897 L20.7135237,40.1718785 C21.1708826,41.1773121 20.7265802,42.3631396 19.7211467,42.8204985 C19.4610951,42.9387926 19.1787179,43 18.8930252,43 L10.6571557,43 C9.90351813,43 9.21386766,42.5763531 8.87317927,41.9041173 L1.42406759,27.2057596 C0.924737382,26.2204966 1.31866373,25.0169961 2.3039267,24.5176659 C2.56630359,24.3846936 2.85478155,24.3112331 3.14880086,24.3025199 L12.027992,24.0393888 C12.8332257,24.0155261 13.5741716,24.4771046 13.9077337,25.2103897 Z" id="本子" stroke="#F49130" fill="#F9B56A"></path>
                            <path d="M15,28 C15.2564491,28.4067573 15.7536708,28.6763944 16.313891,28.7125065 C17.1898183,28.7125065 18.6964133,29.09726 18.941673,29.7812662 C19.3008032,30.7752128 17.8949398,33.1941724 17.627782,32.9875455 L15,28 Z" id="右手-2" fill="#FFE4A8"></path>
                            <path d="M7.1875278,38.027604 C7.79559277,37.8011775 11.2286263,39.0127582 10.9879339,40.013802 C10.5667222,41.7775458 9.05606078,42 8.77103033,42 C8.32448262,42 6.39894354,38.3215613 7.1875278,38.027604 Z" id="左手-2" fill="#FFE4A8"></path>
                            <polygon id="脖子-2" fill="#FFE4A8" points="26.6 17.8125 26.6 23.5 23 30 30.6 23.5 33 23.5 32.2 17"></polygon>
                            <path d="M26.3263302,3.63230241 C26.3263302,3.63230241 22.9633465,10.5695876 23.0003024,12.20189 C23.0409538,14.025988 23.7394197,19.9553265 25.2176542,20.7714777 C26.6958888,21.5876289 31.5001512,19.9553265 31.5001512,19.9553265 L40,10.9776632 L32.2392685,2 L26.3263302,3.63230241 Z" id="脸-2" fill="#FFE4A8"></path>
                            <path d="M25.754717,5.15435095 C26.5471698,5.15435095 26.1509434,8.47245694 26.9433962,9.71674669 C27.7358491,10.9610364 28.5283019,11.3757997 29.7169811,12.2053262 C30.3960781,12.6318571 30.7201813,13.4800219 30.509434,14.2791424 L33.2830189,13.0348527 C34.5271698,15.3119029 32.0943396,17.1824852 32.0943396,17.1824852 C32.0943396,17.1824852 30.1132075,19.6710647 32.0943396,20.9153544 C33.2830189,21.3301177 34.0754717,20.0858279 34.0754717,20.0858279 C34.0754717,20.0858279 36.0566038,21.3301177 37.245283,20.0858279 C38.4339623,18.8415382 38.8301887,17.7299727 38.0377358,15.5234322 C40.1813208,15.5773514 41.639434,14.3247664 42,10.9610364 C41.6830189,8.22774663 40.9381132,5.84700557 37.6415094,5.5691142 C37.6415094,3.49529795 37.1184906,1.57079647 34.4716981,0.177191947 C32.1696226,-0.237571302 30.0220755,0.0361724425 28.1320755,1.4214817 C26.9711321,0.766155762 24.9622642,0.591955197 23.7735849,1.4214817 C22.5849057,2.2510082 21.7924528,5.15435095 22.1886792,6.81340394 C22.1886792,6.81340394 21,7.22816719 21,9.30198344 C21,11.3757997 22.1886792,11.3757997 22.1886792,11.3757997 C22.4026415,11.5085239 23.3773585,9.71674669 23.3773585,9.71674669 C23.3773585,9.71674669 25.3584906,5.15435095 25.754717,5.15435095 Z" id="头发-2" fill="#0E1D80"></path>
                            <path d="M30.2912456,13.4772583 C29.9226024,15.0875091 29.8468066,16.3711738 30.401494,16.8655888 C30.9561814,17.3600038 32.1000089,16.411997 32.6857037,15.3006972 C33.1424377,14.3967161 33.0977136,13.2061915 32.5754553,12.3659585 C32.0931184,11.5812448 30.8907214,12.1074112 30.2912456,13.4772583 Z" id="耳朵-2" fill="#FFE4A8"></path>
                        </g>
                    </g>
                </g>
            </g>
        </g>
    </g>
</svg>