<?xml version="1.0" encoding="UTF-8"?>
<svg width="304px" height="100px" viewBox="0 0 304 100" version="1.1" xmlns="http://www.w3.org/2000/svg" xmlns:xlink="http://www.w3.org/1999/xlink">
    <title>编组 16</title>
    <defs>
        <path d="M4.08190111,35.7080972 C16.6790381,38.5874428 24.9571567,37.8676064 28.9162569,33.548588 C33.7751526,24.9105512 34.3150299,14.6528825 31.0757661,4.93509111 C26.2168704,0.616072706 12.7199379,-1.0035592 6.78128761,0.616072706 C2.82218741,1.69582731 0.662678205,9.43406862 0.302760005,23.8307966 C3.54202381,24.9105512 5.16165571,25.9903058 5.16165571,27.0700604 C5.16165571,28.149815 4.80173751,31.0291606 4.08190111,35.7080972 Z" id="path-1"></path>
        <linearGradient x1="0%" y1="50.0832986%" x2="100%" y2="49.9167014%" id="linearGradient-3">
            <stop stop-color="#FFFFFF" offset="0%"></stop>
            <stop stop-color="#0F1358" stop-opacity="0.3" offset="100%"></stop>
        </linearGradient>
        <linearGradient x1="0%" y1="50.125%" x2="100%" y2="49.875%" id="linearGradient-4">
            <stop stop-color="#FFFFFF" offset="0%"></stop>
            <stop stop-color="#0F1358" stop-opacity="0.3" offset="100%"></stop>
        </linearGradient>
    </defs>
    <g id="页面-1" stroke="none" stroke-width="1" fill="none" fill-rule="evenodd">
        <g id="个人工作台-资源管理-normal" transform="translate(-1137.000000, -59.000000)">
            <g id="编组-16" transform="translate(1137.000000, 59.000000)">
                <line x1="0.5" y1="98.5" x2="303" y2="99" id="直线-7" stroke="#0F1358" stroke-linecap="square"></line>
                <path d="M270,53 L269.99942,82.4993732 L279,82.5 L279,98 L269.99942,97.9993732 L270,99 L249,99 L249,53 L270,53 Z M207,41 L207,98 L186.99942,97.9993732 L187,98.5 L168,98.5 L168,53 L181.99942,52.9993732 L182,41 L207,41 Z M108,35 L108,98 L44,98 L44,66 L77,66 L77,35 L108,35 Z M25.8328285,72.0230091 C21.4839174,71.2561788 17.3320114,74.1633747 16.565181,78.5122857 C16.3804193,79.5601212 16.4074436,80.6046832 16.6244643,81.5852657 L21.500636,78.1640277 L23.714335,80.8126713 L26.7541233,78.6841886 L25.5093263,78.4646973 L25.7871634,76.8890049 L29.7263944,77.5835976 L29.0318017,81.5228286 L27.4561093,81.2449915 L27.6756006,80.0001945 L23.4231396,82.970894 L21.2187083,80.3157611 L17.1409435,83.1710428 C18.1909325,85.5088886 20.3442667,87.3020534 23.0544576,87.7799332 L29.3572272,88.8912815 C30.2238581,89.0440919 31.0579463,88.460057 31.2107567,87.5934262 L32.3221051,81.2906566 C33.0889354,76.9417456 30.1817395,72.7898395 25.8328285,72.0230091 Z M29.1716819,87.640053 C28.7383665,87.5636478 28.4463491,87.1466036 28.5227543,86.7132882 C28.5991595,86.2799728 29.0162036,85.9879554 29.449519,86.0643605 C29.8828344,86.1407657 30.1748519,86.5578099 30.0984467,86.9911253 C30.0220415,87.4244407 29.6049974,87.7164582 29.1716819,87.640053 Z M289.463983,10.2953154 L287.888291,10.5731525 L289.138558,17.6637683 L278.896557,19.4697094 L279.174394,21.0454018 C279.250799,21.4787172 279.667843,21.7707346 280.101159,21.6943294 L288.767467,20.1662255 L292.474526,22.7619361 L290.390748,10.9442431 C290.314343,10.5109277 289.897298,10.2189102 289.463983,10.2953154 Z M287.146109,15.5780668 L285.895843,8.48745098 C285.819437,8.05413556 285.402393,7.76211812 284.969078,7.83852332 L274.727077,9.64446436 C274.293762,9.72086956 274.001744,10.1379137 274.07815,10.5712291 L276.023009,21.6010759 L278.61872,17.894017 L286.497182,16.5048315 C286.930497,16.4284263 287.222515,16.0113822 287.146109,15.5780668 Z" id="形状结合" fill-opacity="0.32" fill="#D9E6F2"></path>
                <g transform="translate(85.514475, 4.000000)">
                    <rect id="矩形" fill="#E7EFFF" x="2.74418605" y="60.2906977" width="43.2209302" height="27.7848837"></rect>
                    <g id="编组-9" transform="translate(0.000000, 50.000000)">
                        <rect id="矩形" stroke="#0F1358" stroke-width="0.8" fill="#FFFFFF" x="0" y="0" width="48.7093023" height="10.6337209" rx="2"></rect>
                        <rect id="矩形" fill="#D9E6F2" x="4.80232558" y="4.45930233" width="24.0116279" height="1.71511628" rx="0.85755814"></rect>
                        <circle id="椭圆形" fill="#5365EA" cx="41.505814" cy="5.31686047" r="1.71511628"></circle>
                        <circle id="椭圆形" fill="#5365EA" cx="35.3313953" cy="5.31686047" r="1.71511628"></circle>
                    </g>
                    <g id="编组-9" transform="translate(0.000000, 66.808140)">
                        <rect id="矩形" stroke="#0F1358" stroke-width="0.8" fill="#FFFFFF" x="0" y="0" width="48.7093023" height="10.6337209" rx="2"></rect>
                        <rect id="矩形" fill="#D9E6F2" x="4.80232558" y="4.45930233" width="24.0116279" height="1.71511628" rx="0.85755814"></rect>
                        <circle id="椭圆形" fill="#5365EA" cx="41.505814" cy="5.31686047" r="1.71511628"></circle>
                        <circle id="椭圆形" fill="#5365EA" cx="35.3313953" cy="5.31686047" r="1.71511628"></circle>
                    </g>
                    <g id="编组-9" transform="translate(0.000000, 83.616279)">
                        <rect id="矩形" stroke="#0F1358" stroke-width="0.8" fill="#FFFFFF" x="0" y="0" width="48.7093023" height="10.6337209" rx="2"></rect>
                        <rect id="矩形" fill="#D9E6F2" x="4.80232558" y="4.45930233" width="24.0116279" height="1.71511628" rx="0.85755814"></rect>
                        <circle id="椭圆形" fill="#5365EA" cx="41.505814" cy="5.31686047" r="1.71511628"></circle>
                        <circle id="椭圆形" fill="#5365EA" cx="35.3313953" cy="5.31686047" r="1.71511628"></circle>
                    </g>
                    <circle id="椭圆形" stroke="#0F1358" stroke-width="0.8" cx="13.077503" cy="25.621733" r="2.5"></circle>
                    <line x1="13.077503" y1="30" x2="13.077503" y2="50" id="路径" stroke="#0F1358" stroke-width="0.8" stroke-dasharray="3"></line>
                    <circle id="椭圆形" stroke="#0F1358" stroke-width="0.8" cx="24.5" cy="40" r="2.5"></circle>
                    <line x1="24.5" y1="15.621733" x2="24.5" y2="35.621733" id="路径" stroke="#0F1358" stroke-width="0.8" stroke-dasharray="3"></line>
                    <g id="编组-21" transform="translate(0.000000, 0.500000)" fill-rule="nonzero">
                        <path d="M4.01052291,13.3331011 L29.3546268,13.3331011 C30.3993945,13.3425912 31.3536598,12.7415861 31.7963258,11.7951831 C32.2389918,10.8487801 32.0886178,9.73109629 31.4115606,8.93534169 C30.7345034,8.13958709 29.6553266,7.8121628 28.6502477,8.09755417 C28.3628204,5.75755254 26.3751883,3.99948609 24.0176001,3.99996388 C23.4964799,3.99840814 22.9788859,4.08543723 22.48693,4.25733319 C21.4832331,3.23735979 20.1115695,2.66379941 18.6805734,2.66570721 C18.2677649,2.66462127 17.8562766,2.712363 17.4546828,2.80793761 C15.8883826,0.60318247 13.1459691,-0.437802607 10.5111934,0.172277864 C7.87641761,0.782358334 5.87065658,2.92277988 5.43282698,5.59158986 C3.93223869,5.01764359 2.23388891,5.39651799 1.1195142,6.55382027 C0.00513949217,7.71112255 -0.309300368,9.42257379 0.320928723,10.9004069 C0.951157814,12.3782401 2.40392087,13.3360591 4.01052291,13.3331011 L4.01052291,13.3331011 Z" id="路径" stroke="#0F1358" stroke-width="0.8" fill="#FFFFFF"></path>
                        <path d="M4.01052291,15.5748172 L29.3546268,15.5748172 C30.3935676,15.5750632 31.3382052,14.9722974 31.7756821,14.0299535 C32.213159,13.0876097 32.0639332,11.977025 31.3932243,11.1835847 C30.7225154,10.3901443 29.6522718,10.0581119 28.6502477,10.3326034 C28.3599624,7.99410696 26.3740434,6.23755579 24.0176001,6.23501313 C23.4960905,6.23563329 22.9784855,6.3249545 22.48693,6.49915531 C21.4856809,5.47475086 20.1130184,4.8983303 18.6805734,4.90075646 C18.2674959,4.90188851 17.8560039,4.95190412 17.4546828,5.04975974 C15.8883826,2.8450046 13.1459691,1.80401952 10.5111934,2.41409999 C7.87641761,3.02418046 5.87065658,5.16460201 5.43282698,7.83341199 C3.93223869,7.25946572 2.23388891,7.63834012 1.1195142,8.7956424 C0.00513949217,9.95294467 -0.309300368,11.6643959 0.320928723,13.1422291 C0.951157814,14.6200622 2.40392087,15.5778812 4.01052291,15.5748172 L4.01052291,15.5748172 Z" id="路径" fill="#5365EA"></path>
                    </g>
                </g>
                <g id="编组-19" transform="translate(237.000000, 63.000000)">
                    <path d="M33,19 L33,29.5 C33,32.8137085 30.3137085,35.5 27,35.5 L6,35.5 C2.6862915,35.5 0,32.8137085 0,29.5 L0,6 C0,2.6862915 2.6862915,0 6,0 L27,0 C30.3137085,0 33,2.6862915 33,6 L33,13 L33,13" id="路径" stroke="#0F1358" fill="#FFFFFF"></path>
                    <rect id="矩形" fill="#E7EFFF" x="6.04929577" y="14.278169" width="21.1267606" height="1.5" rx="0.75"></rect>
                    <rect id="矩形" fill="#E7EFFF" x="1.82394366" y="24.5035211" width="25.3521127" height="1.5" rx="0.75"></rect>
                    <rect id="矩形" fill="#E7EFFF" x="6.04929577" y="19.3908451" width="21.1267606" height="1.5" rx="0.75"></rect>
                    <rect id="矩形" fill="#E7EFFF" x="1.82394366" y="29.6161972" width="25.3521127" height="1.5" rx="0.75"></rect>
                    <path d="M27.3081363,-7.10542736e-15 C30.3785605,-6.05892407e-15 32.8811509,2.43118522 32.9958899,5.47353793 L33,5.69186367 L0,5.69186367 C-3.84971334e-16,2.54833417 2.54833417,-7.41614878e-15 5.69186367,-7.10542736e-15 L27.3081363,-7.10542736e-15 Z M21,1.84593184 C20.4477153,1.84593184 20,2.29364709 20,2.84593184 C20,3.39821659 20.4477153,3.84593184 21,3.84593184 C21.5522847,3.84593184 22,3.39821659 22,2.84593184 C22,2.29364709 21.5522847,1.84593184 21,1.84593184 Z M24.6,1.84593184 C24.0477153,1.84593184 23.6,2.29364709 23.6,2.84593184 C23.6,3.39821659 24.0477153,3.84593184 24.6,3.84593184 C25.1522847,3.84593184 25.6,3.39821659 25.6,2.84593184 C25.6,2.29364709 25.1522847,1.84593184 24.6,1.84593184 Z M28.2,1.84593184 C27.6477153,1.84593184 27.2,2.29364709 27.2,2.84593184 C27.2,3.39821659 27.6477153,3.84593184 28.2,3.84593184 C28.7522847,3.84593184 29.2,3.39821659 29.2,2.84593184 C29.2,2.29364709 28.7522847,1.84593184 28.2,1.84593184 Z" id="形状结合" fill="#0F1358"></path>
                </g>
                <g id="编组-20" transform="translate(204.000000, 35.000000)">
                    <rect id="矩形" stroke="#0F1358" stroke-width="0.8" fill="#F3F7FB" x="0" y="0" width="40" height="63"></rect>
                    <rect id="矩形" fill="#E9F1F6" x="30" y="0.808469865" width="9.15644284" height="61.3535588"></rect>
                    <rect id="矩形" fill="#D9E6F2" x="3" y="6.7476558" width="33.1818182" height="2"></rect>
                    <rect id="矩形" fill="#D9E6F2" x="3" y="16.7476558" width="33.1818182" height="2"></rect>
                    <rect id="矩形" fill="#D9E6F2" x="3" y="26.7476558" width="33.1818182" height="2"></rect>
                    <rect id="矩形" fill="#D9E6F2" x="3" y="36.7476558" width="33.1818182" height="2"></rect>
                    <rect id="矩形" fill="#D9E6F2" x="3" y="46.7476558" width="33.1818182" height="2"></rect>
                    <line x1="30" y1="63" x2="30" y2="0" id="路径" stroke="#0F1358" stroke-width="0.8" fill-opacity="0.45" fill="#D9E6F2"></line>
                </g>
                <g id="编组-17" transform="translate(130.500000, 23.000000)">
                    <path d="M0,14 L0,8 C0,3.581722 3.581722,0 8,0 L37.4225352,0 C41.8408132,0 45.4225352,3.581722 45.4225352,8 L45.4225352,67 C45.4225352,71.418278 41.8408132,75 37.4225352,75 L8,75 C3.581722,75 0,71.418278 0,67 L0,22 L0,22" id="路径" stroke="#0F1358" stroke-width="0.8" fill="#FFFFFF"></path>
                    <g id="编组-11" transform="translate(10.784871, 13.204225)" fill-rule="nonzero">
                        <path d="M11.9047127,0 L1.24775508e-13,5.29098344 L1.24775508e-13,13.2274586 C1.24775508e-13,20.5686981 5.0793441,27.4337491 11.9047127,29.1004089 C18.7300814,27.4337491 23.8094255,20.5686981 23.8094255,13.2274586 L23.8094255,5.29098344 L11.9047127,0 Z" id="路径" stroke="#0F1358" stroke-width="0.8"></path>
                        <path d="M11.9047127,4.0138495 L3.28405869,7.8452513 L3.28405869,13.592354 C3.28405869,18.908424 6.96220441,23.8796678 11.9047127,25.0865594 C16.8472211,23.8796678 20.5253668,18.908424 20.5253668,13.592354 L20.5253668,7.8452513 L11.9047127,4.0138495 Z" id="路径" fill="#5365EA"></path>
                    </g>
                    <rect id="矩形" fill="#E7EFFF" x="12.1478873" y="56.778169" width="21.1267606" height="2.11267606" rx="1.05633803"></rect>
                    <rect id="矩形" fill="#E7EFFF" x="10.0352113" y="63.3802817" width="25.3521127" height="2.11267606" rx="1.05633803"></rect>
                    <path d="M34.8591549,0 C34.8591549,2.91699692 32.4944617,5.28169014 29.5774648,5.28169014 L15.8450704,5.28169014 C12.9280735,5.28169014 10.5633803,2.91699692 10.5633803,0 L34.8591549,0 Z M27.4647887,1.58450704 L17.9577465,1.58450704 L17.9577465,3.6971831 L27.4647887,3.6971831 L27.4647887,1.58450704 Z" id="形状结合" fill="#0F1358"></path>
                </g>
                <g id="编组-18" transform="translate(60.500000, 60.000000)">
                    <rect id="矩形" stroke="#0F1358" stroke-width="0.8" fill="#FFFFFF" x="0" y="15" width="34" height="23"></rect>
                    <rect id="矩形" stroke="#0F1358" stroke-width="0.8" fill="#E7EFFF" x="23.5" y="15" width="10.5" height="23"></rect>
                    <g id="settings_black_24dp-(1)" transform="translate(4.000000, 19.500000)">
                        <polygon id="路径" points="0 0 14.625 0 14.625 14.625 0 14.625"></polygon>
                        <path d="M11.6634375,7.8853125 C11.6878125,7.7025 11.7,7.51359375 11.7,7.3125 C11.7,7.1175 11.6878125,6.9225 11.6573437,6.7396875 L12.894375,5.776875 C13.0040625,5.6915625 13.0345312,5.52703125 12.9675,5.40515625 L11.7975,3.38203125 C11.724375,3.24796875 11.5720312,3.2053125 11.4379687,3.24796875 L9.9815625,3.83296875 C9.676875,3.60140625 9.35390625,3.40640625 8.994375,3.26015625 L8.775,1.71234375 C8.750625,1.56609375 8.62875,1.4625 8.4825,1.4625 L6.1425,1.4625 C5.99625,1.4625 5.88046875,1.56609375 5.85609375,1.71234375 L5.63671875,3.26015625 C5.2771875,3.40640625 4.948125,3.6075 4.64953125,3.83296875 L3.193125,3.24796875 C3.0590625,3.19921875 2.90671875,3.24796875 2.83359375,3.38203125 L1.6696875,5.40515625 C1.5965625,5.533125 1.6209375,5.6915625 1.7428125,5.776875 L2.97984375,6.7396875 C2.949375,6.9225 2.925,7.12359375 2.925,7.3125 C2.925,7.50140625 2.9371875,7.7025 2.96765625,7.8853125 L1.730625,8.848125 C1.6209375,8.9334375 1.59046875,9.09796875 1.6575,9.21984375 L2.8275,11.2429687 C2.900625,11.3770312 3.05296875,11.4196875 3.18703125,11.3770312 L4.6434375,10.7920312 C4.948125,11.0235937 5.27109375,11.2185937 5.630625,11.3648437 L5.85,12.9126562 C5.88046875,13.0589062 5.99625,13.1625 6.1425,13.1625 L8.4825,13.1625 C8.62875,13.1625 8.750625,13.0589062 8.76890625,12.9126562 L8.98828125,11.3648437 C9.3478125,11.2185937 9.676875,11.0235937 9.97546875,10.7920312 L11.431875,11.3770312 C11.5659375,11.4257812 11.7182812,11.3770312 11.7914062,11.2429687 L12.9614062,9.21984375 C13.0345312,9.08578125 13.0040625,8.9334375 12.8882812,8.848125 L11.6634375,7.8853125 Z M7.3125,9.50625 C6.1059375,9.50625 5.11875,8.5190625 5.11875,7.3125 C5.11875,6.1059375 6.1059375,5.11875 7.3125,5.11875 C8.5190625,5.11875 9.50625,6.1059375 9.50625,7.3125 C9.50625,8.5190625 8.5190625,9.50625 7.3125,9.50625 Z" id="形状" fill="#FFA25E"></path>
                    </g>
                    <circle id="椭圆形" stroke="#0F1358" stroke-width="0.8" fill="#FFFFFF" cx="11.5" cy="7.5" r="7.5"></circle>
                    <path d="M16.4100288,2.30911374 C17.7739543,3.55563311 18.6295038,5.3491502 18.6295038,7.34249158 C18.6295038,11.107423 15.5774239,14.1595029 11.8124925,14.1595029 C9.33925297,14.1595029 7.17363537,12.842417 5.97877165,10.871377 C7.1918843,11.9800395 8.80570603,12.6558887 10.5773808,12.6558887 C14.3423122,12.6558887 17.3943921,9.60380873 17.3943921,5.83887733 C17.3943921,4.58390019 17.0552721,3.40812878 16.4636702,2.39820117 Z" id="形状结合" fill="#E7EFFF"></path>
                </g>
                <g id="编组-22" transform="translate(166.500000, 11.000000)">
                    <path d="M31.9773716,10.2576687 L30.3577397,16.196319 L32.5172489,16.196319 C32.5819179,19.6319018 32.761877,21.791411 33.0571262,22.6748466 C33.3523754,23.5582822 35.1519664,24.0981595 38.4558992,24.2944785 L38.4558992,28.6134969 L46.0141814,28.6134969 L46.0141814,24.8343558 C49.4191124,23.4264752 51.7585807,21.8068433 53.0325863,19.9754601 C54.9435948,17.2283854 46.0141814,0.539877301 37.9160219,2.1595092 C29.8178624,3.7791411 28.1982305,9.71779141 28.7381078,10.797546 C29.098026,11.5173824 30.1777806,11.3374233 31.9773716,10.2576687 Z" id="直线-5" stroke="#0F1358" stroke-width="0.6" fill="#FFFFFF" stroke-linecap="square"></path>
                    <ellipse id="椭圆形" fill="#0F1358" cx="34.6973767" cy="14.1717791" rx="1" ry="1.62904837"></ellipse>
                    <path d="M34.1368808,18.8957055 L37.6460833,17.006135 C37.6044967,19.0134094 37.3345581,20.1831436 36.8362673,20.5153374 C36.3379765,20.8475313 35.438181,20.307654 34.1368808,18.8957055 Z" id="直线-6" fill="#0F1358"></path>
                    <line x1="38.4558992" y1="24.2944785" x2="40.3454698" y2="24.0245399" id="直线-16" stroke="#0F1358" stroke-width="0.8" stroke-linecap="square"></line>
                    <path d="M33.5970035,9.71779141 C33.5970035,10.797546 33.9569217,11.3374233 34.6767581,11.3374233 C35.3965945,11.3374233 36.4763491,10.0777096 37.9160219,7.55828221 C37.1961855,9.35787321 37.0162264,10.4376278 37.3761446,10.797546 C37.7360628,11.1574642 38.6358583,10.797546 40.0755311,9.71779141 C38.9957765,13.3169734 38.9957765,15.4764826 40.0755311,16.196319 C41.695163,17.2760736 40.7392207,13.0279311 42.2350403,11.8773006 C43.73086,10.7266701 45.4743041,9.17791411 47.6338133,10.797546 C49.7933225,12.4171779 50.8730771,13.4969325 48.7135679,18.3558282 C47.2738951,21.595092 44.7544677,21.7750511 41.1552857,18.8957055 C41.8751221,23.5746421 44.3945495,25.194274 48.7135679,23.7546012 C53.0325863,22.3149284 55.0121364,18.5357873 54.6522182,12.4171779 C58.9712366,14.5766871 62.0305413,14.2167689 63.8301323,11.3374233 C66.5295188,7.01840491 66.5295188,0 59.5111139,0 C54.8321773,0 51.9528317,1.9795501 50.8730771,5.93865031 C47.6338133,2.3394683 43.3147949,1.0797546 37.9160219,2.1595092 C29.8178624,3.7791411 28.1982305,9.71779141 28.7381078,10.797546 C29.098026,11.5173824 30.7176579,11.1574642 33.5970035,9.71779141 Z" id="直线-5" fill="#C0C4FD"></path>
                    <path d="M28.7381078,10.797546 C29.098026,11.5173824 30.7176579,11.1574642 33.5970035,9.71779141 C33.5970035,10.797546 33.9569217,11.3374233 34.6767581,11.3374233 C35.3965945,11.3374233 36.4763491,10.0777096 37.9160219,7.55828221 C37.1961855,9.35787321 37.0162264,10.4376278 37.3761446,10.797546 C37.7360628,11.1574642 38.6358583,10.797546 40.0755311,9.71779141 C40.5,12 42.5,10 42.5,9" id="路径" stroke="#0F1358" stroke-width="0.6"></path>
                    <path d="M40.0755311,16.196319 C41.695163,17.2760736 40.7392207,13.0279311 42.2350403,11.8773006 C43.73086,10.7266701 45.4743041,9.17791411 47.6338133,10.797546 C49.7933225,12.4171779 50.8730771,13.4969325 48.7135679,18.3558282 C47.2738951,21.595092 44.5745086,21.595092 40.6154084,18.3558282" id="路径" stroke="#0F1358" stroke-width="0.8" stroke-linecap="square"></path>
                    <path d="M42.504979,16.4662577 C43.2029881,15.1586839 43.8328449,14.3488679 44.3945495,14.0368098 C44.9562541,13.7247517 45.9460292,13.6347722 47.3638747,13.7668712" id="直线-11" stroke="#0F1358" stroke-width="0.8" stroke-linecap="square"></path>
                    <path d="M44.9344268,14.0368098 C45.5895277,14.9585984 45.9494459,15.6784348 46.0141814,16.196319 C46.0789169,16.7142032 45.6290192,17.5240191 44.6644882,18.6257669" id="直线-12" stroke="#0F1358" stroke-width="0.8" stroke-linecap="square"></path>
                    <path d="M51.6828931,67.7546012 C56.901707,63.2556237 59.5111139,56.6871166 59.5111139,48.0490798 C59.5111139,41.7116702 57.0596066,35.325531 53.5724636,31.3128834 C52.7285209,30.3417604 51.4688072,29.4419649 49.7933225,28.6134969 L51.6828931,67.7546012 Z" id="直线-8" stroke="#0F1358" stroke-width="0.8" fill="#FFFFFF" stroke-linecap="square"></path>
                    <path d="M24.5,88 L53.8424023,87.7300613 C56.033417,80.8860364 57.0231921,75.7572021 56.8117274,72.3435583 C56.6002628,68.9299145 54.9806309,63.8910597 51.9528317,57.2269939 L26.0387213,59.3865031 C24.3462404,63.1288344 23.1666667,67 22.5,71 C21.8333333,75 22.5,80.6666667 24.5,88 Z" id="直线-10" fill="#FFA25E"></path>
                    <path d="M31.4374943,73.4233129 C36.9969903,74.0607257 40.9560905,74.2406848 43.3147949,73.9631902 C45.6734993,73.6856955 47.8330085,72.7859 49.7933225,71.2638037" id="直线-13" stroke="#0F1358" stroke-width="0.8" stroke-linecap="square"></path>
                    <path d="M43.3147949,73.9631902 C43.6747131,76.2236777 43.8546722,78.2032278 43.8546722,79.9018405 C43.8546722,81.6004532 43.4047745,84.2098601 42.504979,87.7300613" id="直线-14" stroke="#0F1358" stroke-width="0.8" stroke-linecap="square"></path>
                    <g id="形状结合" transform="translate(21.956820, 25.837915)">
                        <mask id="mask-2" fill="white">
                            <use xlink:href="#path-1"></use>
                        </mask>
                        <use id="蒙版" fill="#6273F3" xlink:href="#path-1"></use>
                        <path d="M39.7002949,35.0024356 C40.1138358,35.0024356 40.449077,35.3376768 40.449077,35.7512178 C40.449077,36.1647588 40.1138358,36.5 39.7002949,36.5 C39.2867539,36.5 38.9515127,36.1647588 38.9515127,35.7512178 C38.9515127,35.3376768 39.2867539,35.0024356 39.7002949,35.0024356 Z M33.7100373,35.0024356 C34.1235783,35.0024356 34.4588195,35.3376768 34.4588195,35.7512178 C34.4588195,36.1647588 34.1235783,36.5 33.7100373,36.5 C33.2964963,36.5 32.9612551,36.1647588 32.9612551,35.7512178 C32.9612551,35.3376768 33.2964963,35.0024356 33.7100373,35.0024356 Z M27.7197798,35.0024356 C28.1333208,35.0024356 28.468562,35.3376768 28.468562,35.7512178 C28.468562,36.1647588 28.1333208,36.5 27.7197798,36.5 C27.3062388,36.5 26.9709976,36.1647588 26.9709976,35.7512178 C26.9709976,35.3376768 27.3062388,35.0024356 27.7197798,35.0024356 Z M9.74900717,35.0024356 C10.1625482,35.0024356 10.4977894,35.3376768 10.4977894,35.7512178 C10.4977894,36.1647588 10.1625482,36.5 9.74900717,36.5 C9.33546618,36.5 9.00022497,36.1647588 9.00022497,35.7512178 C9.00022497,35.3376768 9.33546618,35.0024356 9.74900717,35.0024356 Z M21.7295222,35.0024356 C22.1430632,35.0024356 22.4783044,35.3376768 22.4783044,35.7512178 C22.4783044,36.1647588 22.1430632,36.5 21.7295222,36.5 C21.3159813,36.5 20.98074,36.1647588 20.98074,35.7512178 C20.98074,35.3376768 21.3159813,35.0024356 21.7295222,35.0024356 Z M3.75874963,35.0024356 C4.17229061,35.0024356 4.50753182,35.3376768 4.50753182,35.7512178 C4.50753182,36.1647588 4.17229061,36.5 3.75874963,36.5 C3.34520864,36.5 3.00996744,36.1647588 3.00996744,35.7512178 C3.00996744,35.3376768 3.34520864,35.0024356 3.75874963,35.0024356 Z M15.7392647,35.0024356 C16.1528057,35.0024356 16.4880469,35.3376768 16.4880469,35.7512178 C16.4880469,36.1647588 16.1528057,36.5 15.7392647,36.5 C15.3257237,36.5 14.9904825,36.1647588 14.9904825,35.7512178 C14.9904825,35.3376768 15.3257237,35.0024356 15.7392647,35.0024356 Z M-2.23150791,35.0024356 C-1.81796692,35.0024356 -1.48272572,35.3376768 -1.48272572,35.7512178 C-1.48272572,36.1647588 -1.81796692,36.5 -2.23150791,36.5 C-2.64504889,36.5 -2.9802901,36.1647588 -2.9802901,35.7512178 C-2.9802901,35.3376768 -2.64504889,35.0024356 -2.23150791,35.0024356 Z M36.680585,29.4817329 C37.0941259,29.4817329 37.4293671,29.8169741 37.4293671,30.2305151 C37.4293671,30.6440561 37.0941259,30.9792973 36.680585,30.9792973 C36.267044,30.9792973 35.9318028,30.6440561 35.9318028,30.2305151 C35.9318028,29.8169741 36.267044,29.4817329 36.680585,29.4817329 Z M30.6903274,29.4817329 C31.1038684,29.4817329 31.4391096,29.8169741 31.4391096,30.2305151 C31.4391096,30.6440561 31.1038684,30.9792973 30.6903274,30.9792973 C30.2767864,30.9792973 29.9415452,30.6440561 29.9415452,30.2305151 C29.9415452,29.8169741 30.2767864,29.4817329 30.6903274,29.4817329 Z M24.7000699,29.4817329 C25.1136109,29.4817329 25.4488521,29.8169741 25.4488521,30.2305151 C25.4488521,30.6440561 25.1136109,30.9792973 24.7000699,30.9792973 C24.2865289,30.9792973 23.9512877,30.6440561 23.9512877,30.2305151 C23.9512877,29.8169741 24.2865289,29.4817329 24.7000699,29.4817329 Z M6.72929727,29.4817329 C7.14283825,29.4817329 7.47807946,29.8169741 7.47807946,30.2305151 C7.47807946,30.6440561 7.14283825,30.9792973 6.72929727,30.9792973 C6.31575628,30.9792973 5.98051508,30.6440561 5.98051508,30.2305151 C5.98051508,29.8169741 6.31575628,29.4817329 6.72929727,29.4817329 Z M18.7098123,29.4817329 C19.1233533,29.4817329 19.4585945,29.8169741 19.4585945,30.2305151 C19.4585945,30.6440561 19.1233533,30.9792973 18.7098123,30.9792973 C18.2962714,30.9792973 17.9610302,30.6440561 17.9610302,30.2305151 C17.9610302,29.8169741 18.2962714,29.4817329 18.7098123,29.4817329 Z M0.73903973,29.4817329 C1.15258072,29.4817329 1.48782192,29.8169741 1.48782192,30.2305151 C1.48782192,30.6440561 1.15258072,30.9792973 0.73903973,30.9792973 C0.325498744,30.9792973 -0.00974246245,30.6440561 -0.00974246245,30.2305151 C-0.00974246245,29.8169741 0.325498744,29.4817329 0.73903973,29.4817329 Z M12.7195548,29.4817329 C13.1330958,29.4817329 13.468337,29.8169741 13.468337,30.2305151 C13.468337,30.6440561 13.1330958,30.9792973 12.7195548,30.9792973 C12.3060138,30.9792973 11.9707726,30.6440561 11.9707726,30.2305151 C11.9707726,29.8169741 12.3060138,29.4817329 12.7195548,29.4817329 Z M-5.25121781,29.4817329 C-4.83767682,29.4817329 -4.50243562,29.8169741 -4.50243562,30.2305151 C-4.50243562,30.6440561 -4.83767682,30.9792973 -5.25121781,30.9792973 C-5.66475879,30.9792973 -6,30.6440561 -6,30.2305151 C-6,29.8169741 -5.66475879,29.4817329 -5.25121781,29.4817329 Z M33.7100373,23.4914753 C34.1235783,23.4914753 34.4588195,23.8267166 34.4588195,24.2402575 C34.4588195,24.6537985 34.1235783,24.9890397 33.7100373,24.9890397 C33.2964963,24.9890397 32.9612551,24.6537985 32.9612551,24.2402575 C32.9612551,23.8267166 33.2964963,23.4914753 33.7100373,23.4914753 Z M27.7197798,23.4914753 C28.1333208,23.4914753 28.468562,23.8267166 28.468562,24.2402575 C28.468562,24.6537985 28.1333208,24.9890397 27.7197798,24.9890397 C27.3062388,24.9890397 26.9709976,24.6537985 26.9709976,24.2402575 C26.9709976,23.8267166 27.3062388,23.4914753 27.7197798,23.4914753 Z M9.74900717,23.4914753 C10.1625482,23.4914753 10.4977894,23.8267166 10.4977894,24.2402575 C10.4977894,24.6537985 10.1625482,24.9890397 9.74900717,24.9890397 C9.33546618,24.9890397 9.00022497,24.6537985 9.00022497,24.2402575 C9.00022497,23.8267166 9.33546618,23.4914753 9.74900717,23.4914753 Z M21.7295222,23.4914753 C22.1430632,23.4914753 22.4783044,23.8267166 22.4783044,24.2402575 C22.4783044,24.6537985 22.1430632,24.9890397 21.7295222,24.9890397 C21.3159813,24.9890397 20.98074,24.6537985 20.98074,24.2402575 C20.98074,23.8267166 21.3159813,23.4914753 21.7295222,23.4914753 Z M3.75874963,23.4914753 C4.17229061,23.4914753 4.50753182,23.8267166 4.50753182,24.2402575 C4.50753182,24.6537985 4.17229061,24.9890397 3.75874963,24.9890397 C3.34520864,24.9890397 3.00996744,24.6537985 3.00996744,24.2402575 C3.00996744,23.8267166 3.34520864,23.4914753 3.75874963,23.4914753 Z M15.7392647,23.4914753 C16.1528057,23.4914753 16.4880469,23.8267166 16.4880469,24.2402575 C16.4880469,24.6537985 16.1528057,24.9890397 15.7392647,24.9890397 C15.3257237,24.9890397 14.9904825,24.6537985 14.9904825,24.2402575 C14.9904825,23.8267166 15.3257237,23.4914753 15.7392647,23.4914753 Z M-2.23150791,23.4914753 C-1.81796692,23.4914753 -1.48272572,23.8267166 -1.48272572,24.2402575 C-1.48272572,24.6537985 -1.81796692,24.9890397 -2.23150791,24.9890397 C-2.64504889,24.9890397 -2.9802901,24.6537985 -2.9802901,24.2402575 C-2.9802901,23.8267166 -2.64504889,23.4914753 -2.23150791,23.4914753 Z M39.7002949,23.4914753 C40.1138358,23.4914753 40.449077,23.8267166 40.449077,24.2402575 C40.449077,24.6537985 40.1138358,24.9890397 39.7002949,24.9890397 C39.2867539,24.9890397 38.9515127,24.6537985 38.9515127,24.2402575 C38.9515127,23.8267166 39.2867539,23.4914753 39.7002949,23.4914753 Z M12.7195548,17.5012178 C13.1330958,17.5012178 13.468337,17.836459 13.468337,18.25 C13.468337,18.663541 13.1330958,18.9987822 12.7195548,18.9987822 C12.3060138,18.9987822 11.9707726,18.663541 11.9707726,18.25 C11.9707726,17.836459 12.3060138,17.5012178 12.7195548,17.5012178 Z M0.73903973,17.5012178 C1.15258072,17.5012178 1.48782192,17.836459 1.48782192,18.25 C1.48782192,18.663541 1.15258072,18.9987822 0.73903973,18.9987822 C0.325498744,18.9987822 -0.00974246245,18.663541 -0.00974246245,18.25 C-0.00974246245,17.836459 0.325498744,17.5012178 0.73903973,17.5012178 Z M18.7098123,17.5012178 C19.1233533,17.5012178 19.4585945,17.836459 19.4585945,18.25 C19.4585945,18.663541 19.1233533,18.9987822 18.7098123,18.9987822 C18.2962714,18.9987822 17.9610302,18.663541 17.9610302,18.25 C17.9610302,17.836459 18.2962714,17.5012178 18.7098123,17.5012178 Z M6.72929727,17.5012178 C7.14283825,17.5012178 7.47807946,17.836459 7.47807946,18.25 C7.47807946,18.663541 7.14283825,18.9987822 6.72929727,18.9987822 C6.31575628,18.9987822 5.98051508,18.663541 5.98051508,18.25 C5.98051508,17.836459 6.31575628,17.5012178 6.72929727,17.5012178 Z M24.7000699,17.5012178 C25.1136109,17.5012178 25.4488521,17.836459 25.4488521,18.25 C25.4488521,18.663541 25.1136109,18.9987822 24.7000699,18.9987822 C24.2865289,18.9987822 23.9512877,18.663541 23.9512877,18.25 C23.9512877,17.836459 24.2865289,17.5012178 24.7000699,17.5012178 Z M30.6903274,17.5012178 C31.1038684,17.5012178 31.4391096,17.836459 31.4391096,18.25 C31.4391096,18.663541 31.1038684,18.9987822 30.6903274,18.9987822 C30.2767864,18.9987822 29.9415452,18.663541 29.9415452,18.25 C29.9415452,17.836459 30.2767864,17.5012178 30.6903274,17.5012178 Z M36.680585,17.5012178 C37.0941259,17.5012178 37.4293671,17.836459 37.4293671,18.25 C37.4293671,18.663541 37.0941259,18.9987822 36.680585,18.9987822 C36.267044,18.9987822 35.9318028,18.663541 35.9318028,18.25 C35.9318028,17.836459 36.267044,17.5012178 36.680585,17.5012178 Z M-5.25121781,17.5012178 C-4.83767682,17.5012178 -4.50243562,17.836459 -4.50243562,18.25 C-4.50243562,18.663541 -4.83767682,18.9987822 -5.25121781,18.9987822 C-5.66475879,18.9987822 -6,18.663541 -6,18.25 C-6,17.836459 -5.66475879,17.5012178 -5.25121781,17.5012178 Z M9.74900717,11.5109603 C10.1625482,11.5109603 10.4977894,11.8462015 10.4977894,12.2597425 C10.4977894,12.6732834 10.1625482,13.0085247 9.74900717,13.0085247 C9.33546618,13.0085247 9.00022497,12.6732834 9.00022497,12.2597425 C9.00022497,11.8462015 9.33546618,11.5109603 9.74900717,11.5109603 Z M39.7002949,11.5109603 C40.1138358,11.5109603 40.449077,11.8462015 40.449077,12.2597425 C40.449077,12.6732834 40.1138358,13.0085247 39.7002949,13.0085247 C39.2867539,13.0085247 38.9515127,12.6732834 38.9515127,12.2597425 C38.9515127,11.8462015 39.2867539,11.5109603 39.7002949,11.5109603 Z M33.7100373,11.5109603 C34.1235783,11.5109603 34.4588195,11.8462015 34.4588195,12.2597425 C34.4588195,12.6732834 34.1235783,13.0085247 33.7100373,13.0085247 C33.2964963,13.0085247 32.9612551,12.6732834 32.9612551,12.2597425 C32.9612551,11.8462015 33.2964963,11.5109603 33.7100373,11.5109603 Z M27.7197798,11.5109603 C28.1333208,11.5109603 28.468562,11.8462015 28.468562,12.2597425 C28.468562,12.6732834 28.1333208,13.0085247 27.7197798,13.0085247 C27.3062388,13.0085247 26.9709976,12.6732834 26.9709976,12.2597425 C26.9709976,11.8462015 27.3062388,11.5109603 27.7197798,11.5109603 Z M21.7295222,11.5109603 C22.1430632,11.5109603 22.4783044,11.8462015 22.4783044,12.2597425 C22.4783044,12.6732834 22.1430632,13.0085247 21.7295222,13.0085247 C21.3159813,13.0085247 20.98074,12.6732834 20.98074,12.2597425 C20.98074,11.8462015 21.3159813,11.5109603 21.7295222,11.5109603 Z M3.75874963,11.5109603 C4.17229061,11.5109603 4.50753182,11.8462015 4.50753182,12.2597425 C4.50753182,12.6732834 4.17229061,13.0085247 3.75874963,13.0085247 C3.34520864,13.0085247 3.00996744,12.6732834 3.00996744,12.2597425 C3.00996744,11.8462015 3.34520864,11.5109603 3.75874963,11.5109603 Z M15.7392647,11.5109603 C16.1528057,11.5109603 16.4880469,11.8462015 16.4880469,12.2597425 C16.4880469,12.6732834 16.1528057,13.0085247 15.7392647,13.0085247 C15.3257237,13.0085247 14.9904825,12.6732834 14.9904825,12.2597425 C14.9904825,11.8462015 15.3257237,11.5109603 15.7392647,11.5109603 Z M-2.23150791,11.5109603 C-1.81796692,11.5109603 -1.48272572,11.8462015 -1.48272572,12.2597425 C-1.48272572,12.6732834 -1.81796692,13.0085247 -2.23150791,13.0085247 C-2.64504889,13.0085247 -2.9802901,12.6732834 -2.9802901,12.2597425 C-2.9802901,11.8462015 -2.64504889,11.5109603 -2.23150791,11.5109603 Z M12.7195548,5.99025754 C13.1330958,5.99025754 13.468337,6.32549874 13.468337,6.73903973 C13.468337,7.15258072 13.1330958,7.48782192 12.7195548,7.48782192 C12.3060138,7.48782192 11.9707726,7.15258072 11.9707726,6.73903973 C11.9707726,6.32549874 12.3060138,5.99025754 12.7195548,5.99025754 Z M0.73903973,5.99025754 C1.15258072,5.99025754 1.48782192,6.32549874 1.48782192,6.73903973 C1.48782192,7.15258072 1.15258072,7.48782192 0.73903973,7.48782192 C0.325498744,7.48782192 -0.00974246245,7.15258072 -0.00974246245,6.73903973 C-0.00974246245,6.32549874 0.325498744,5.99025754 0.73903973,5.99025754 Z M18.7098123,5.99025754 C19.1233533,5.99025754 19.4585945,6.32549874 19.4585945,6.73903973 C19.4585945,7.15258072 19.1233533,7.48782192 18.7098123,7.48782192 C18.2962714,7.48782192 17.9610302,7.15258072 17.9610302,6.73903973 C17.9610302,6.32549874 18.2962714,5.99025754 18.7098123,5.99025754 Z M30.6903274,5.99025754 C31.1038684,5.99025754 31.4391096,6.32549874 31.4391096,6.73903973 C31.4391096,7.15258072 31.1038684,7.48782192 30.6903274,7.48782192 C30.2767864,7.48782192 29.9415452,7.15258072 29.9415452,6.73903973 C29.9415452,6.32549874 30.2767864,5.99025754 30.6903274,5.99025754 Z M36.680585,5.99025754 C37.0941259,5.99025754 37.4293671,6.32549874 37.4293671,6.73903973 C37.4293671,7.15258072 37.0941259,7.48782192 36.680585,7.48782192 C36.267044,7.48782192 35.9318028,7.15258072 35.9318028,6.73903973 C35.9318028,6.32549874 36.267044,5.99025754 36.680585,5.99025754 Z M-5.25121781,5.99025754 C-4.83767682,5.99025754 -4.50243562,6.32549874 -4.50243562,6.73903973 C-4.50243562,7.15258072 -4.83767682,7.48782192 -5.25121781,7.48782192 C-5.66475879,7.48782192 -6,7.15258072 -6,6.73903973 C-6,6.32549874 -5.66475879,5.99025754 -5.25121781,5.99025754 Z M24.7000699,5.99025754 C25.1136109,5.99025754 25.4488521,6.32549874 25.4488521,6.73903973 C25.4488521,7.15258072 25.1136109,7.48782192 24.7000699,7.48782192 C24.2865289,7.48782192 23.9512877,7.15258072 23.9512877,6.73903973 C23.9512877,6.32549874 24.2865289,5.99025754 24.7000699,5.99025754 Z M6.72929727,5.99025754 C7.14283825,5.99025754 7.47807946,6.32549874 7.47807946,6.73903973 C7.47807946,7.15258072 7.14283825,7.48782192 6.72929727,7.48782192 C6.31575628,7.48782192 5.98051508,7.15258072 5.98051508,6.73903973 C5.98051508,6.32549874 6.31575628,5.99025754 6.72929727,5.99025754 Z M21.7295222,0 C22.1430632,0 22.4783044,0.335241207 22.4783044,0.748782192 C22.4783044,1.16232318 22.1430632,1.49756438 21.7295222,1.49756438 C21.3159813,1.49756438 20.98074,1.16232318 20.98074,0.748782192 C20.98074,0.335241207 21.3159813,0 21.7295222,0 Z M9.74900717,0 C10.1625482,0 10.4977894,0.335241207 10.4977894,0.748782192 C10.4977894,1.16232318 10.1625482,1.49756438 9.74900717,1.49756438 C9.33546618,1.49756438 9.00022497,1.16232318 9.00022497,0.748782192 C9.00022497,0.335241207 9.33546618,0 9.74900717,0 Z M27.7197798,0 C28.1333208,0 28.468562,0.335241207 28.468562,0.748782192 C28.468562,1.16232318 28.1333208,1.49756438 27.7197798,1.49756438 C27.3062388,1.49756438 26.9709976,1.16232318 26.9709976,0.748782192 C26.9709976,0.335241207 27.3062388,0 27.7197798,0 Z M33.7100373,0 C34.1235783,0 34.4588195,0.335241207 34.4588195,0.748782192 C34.4588195,1.16232318 34.1235783,1.49756438 33.7100373,1.49756438 C33.2964963,1.49756438 32.9612551,1.16232318 32.9612551,0.748782192 C32.9612551,0.335241207 33.2964963,0 33.7100373,0 Z M39.7002949,0 C40.1138358,0 40.449077,0.335241207 40.449077,0.748782192 C40.449077,1.16232318 40.1138358,1.49756438 39.7002949,1.49756438 C39.2867539,1.49756438 38.9515127,1.16232318 38.9515127,0.748782192 C38.9515127,0.335241207 39.2867539,0 39.7002949,0 Z M-2.23150791,0 C-1.81796692,0 -1.48272572,0.335241207 -1.48272572,0.748782192 C-1.48272572,1.16232318 -1.81796692,1.49756438 -2.23150791,1.49756438 C-2.64504889,1.49756438 -2.9802901,1.16232318 -2.9802901,0.748782192 C-2.9802901,0.335241207 -2.64504889,0 -2.23150791,0 Z M15.7392647,0 C16.1528057,0 16.4880469,0.335241207 16.4880469,0.748782192 C16.4880469,1.16232318 16.1528057,1.49756438 15.7392647,1.49756438 C15.3257237,1.49756438 14.9904825,1.16232318 14.9904825,0.748782192 C14.9904825,0.335241207 15.3257237,0 15.7392647,0 Z M3.75874963,0 C4.17229061,0 4.50753182,0.335241207 4.50753182,0.748782192 C4.50753182,1.16232318 4.17229061,1.49756438 3.75874963,1.49756438 C3.34520864,1.49756438 3.00996744,1.16232318 3.00996744,0.748782192 C3.00996744,0.335241207 3.34520864,0 3.75874963,0 Z" fill="#B9BBFF" mask="url(#mask-2)"></path>
                    </g>
                    <path d="M32.2118721,62.7206178 C41.3812375,64.066716 47.6016392,62.9553444 50.8730771,59.3865031 C55.7319728,50.7484663 56.2718501,40.4907975 53.0325863,30.7730061 C48.1736906,26.4539877 34.6767581,24.8343558 28.7381078,26.4539877" id="路径" stroke="#0F1358" stroke-width="0.8" stroke-linecap="square"></path>
                    <line x1="31.1770484" y1="37.305773" x2="32.7966803" y2="35.1462638" id="直线-15" stroke="#0F1358" stroke-width="0.8" stroke-linecap="square"></line>
                    <path d="M30.897617,38.3312883 C28.7381078,41.5705521 21.7197029,56.6871166 16.5908685,55.3374233 C13.1716456,54.4376278 9.12256588,46.7893661 4.44362927,32.392638 C2.28412007,30.2331288 1.02440637,28.793456 0.664488169,28.0736196 C0.304569969,27.3537832 0.664488169,26.4539877 1.74424277,25.3742331 C0.525684944,20.2659767 0.345725844,17.9265084 1.20436547,18.3558282 C2.49232491,18.9998079 4.17369062,26.2576687 4.98350657,26.993865 C5.79332253,27.7300613 6.28525676,22.5537386 7.14301578,23.7546012 C7.71485512,24.5551763 7.89481422,26.8946446 7.68289308,30.7730061 L17.4006845,41.5705521 L25.498844,29.1533742 C30.5376988,33.1124744 32.3372898,36.1717791 30.897617,38.3312883 Z" id="直线-9" stroke="#0F1358" stroke-width="0.8" fill="#FFFFFF" stroke-linecap="square"></path>
                </g>
                <rect id="矩形" fill="url(#linearGradient-3)" x="168.5" y="6.32180352" width="24.5" height="1"></rect>
                <circle id="椭圆形" fill="#5365EA" cx="196.5" cy="6.82180352" r="1.5"></circle>
                <rect id="矩形" fill="url(#linearGradient-4)" transform="translate(275.750000, 41.000000) scale(-1, 1) translate(-275.750000, -41.000000) " x="265.75" y="40.5" width="20" height="1"></rect>
                <circle id="椭圆形" fill="#5365EA" transform="translate(262.250000, 41.000000) scale(-1, 1) translate(-262.250000, -41.000000) " cx="262.25" cy="41" r="1.5"></circle>
                <rect id="矩形" fill="url(#linearGradient-4)" transform="translate(46.500000, 53.000000) scale(-1, 1) translate(-46.500000, -53.000000) " x="36.5" y="52.5" width="20" height="1"></rect>
                <circle id="椭圆形" fill="#5365EA" transform="translate(33.000000, 53.000000) scale(-1, 1) translate(-33.000000, -53.000000) " cx="33" cy="53" r="1.5"></circle>
                <path d="M232.137324,16.3218035 L232.137324,16.3218035 L251.640556,16.3218035 C254.400195,16.3218035 256.637324,18.0345964 256.637324,20.1474335 L256.637324,45.3218035" id="路径" stroke-opacity="0.2" stroke="#0F1358"></path>
                <g id="room_black_24dp" transform="translate(145.500000, 0.321804)">
                    <polygon id="路径" points="0 0 15.675 0 15.675 15.675 0 15.675"></polygon>
                    <path d="M7.8375,1.30625 C5.30990625,1.30625 3.265625,3.35053125 3.265625,5.878125 C3.265625,9.30703125 7.8375,14.36875 7.8375,14.36875 C7.8375,14.36875 12.409375,9.30703125 12.409375,5.878125 C12.409375,3.35053125 10.3650938,1.30625 7.8375,1.30625 Z M7.8375,7.5109375 C6.9361875,7.5109375 6.2046875,6.7794375 6.2046875,5.878125 C6.2046875,4.9768125 6.9361875,4.2453125 7.8375,4.2453125 C8.7388125,4.2453125 9.4703125,4.9768125 9.4703125,5.878125 C9.4703125,6.7794375 8.7388125,7.5109375 7.8375,7.5109375 Z" id="形状" fill="#FFA25E" fill-rule="nonzero"></path>
                </g>
            </g>
        </g>
    </g>
</svg>