<?xml version="1.0" encoding="UTF-8"?>
<svg width="30px" height="30px" viewBox="0 0 30 30" version="1.1" xmlns="http://www.w3.org/2000/svg" xmlns:xlink="http://www.w3.org/1999/xlink">
    <title>编组 11</title>
    <g id="页面-1" stroke="none" stroke-width="1" fill="none" fill-rule="evenodd" fill-opacity="0.86">
        <g id="新主题-管理+平台层菜单" transform="translate(-12.000000, -65.000000)" fill="#FFFFFF">
            <g id="左侧模块菜单" transform="translate(-1.000000, 50.000000)">
                <g id="编组" transform="translate(13.000000, 15.000000)">
                    <g id="编组-11" transform="translate(6.000000, 6.391304)">
                        <polygon id="路径" opacity="0.8" points="7.33695652 5.35434783 7.33695652 8.9673913 4.20652174 10.773913 5.73097826 11.7766304 8.9673913 9.91793478 8.9673913 6.1736413"></polygon>
                        <polygon id="路径" opacity="0.6" points="12.2038043 11.7766304 13.7282609 10.773913 10.5978261 8.9673913 10.5978261 5.35434783 8.9673913 6.17282609 8.9673913 9.91875 5.73097826 11.7774457 5.83695652 13.5978261 8.9673913 11.7913043 12.0978261 13.5978261"></polygon>
                        <polygon id="路径" points="8.15217391 0 5.70652174 1.18777174 5.70652174 4.53505435 8.9673913 6.1736413 8.9673913 3.38315217 8.15217391 3.00163043"></polygon>
                        <polygon id="路径" opacity="0.8" points="9.7826087 0.0350543478 9.7826087 2.99184783 8.9673913 3.38315217 8.9673913 6.17282609 12.2282609 4.53423913 12.2282609 1.18858696"></polygon>
                        <polygon id="路径" points="17.9347826 11.3266304 15.251087 9.77119565 12.2021739 11.7766304 14.6184783 13.1706522 15.6603261 12.4842391 17.9347826 13.7967391"></polygon>
                        <path d="M16.9597826,15.8119565 L14.5442935,14.4179348 L14.6258152,13.1706522 L12.2127717,11.7766304 L12.0008152,15.4190217 L14.9029891,17.0934783 L16.9597826,15.8119565 Z M0.975,15.8119565 L3.04565217,17.0934783 L5.94456522,15.4190217 L5.7326087,11.7766304 L3.31630435,13.1706522 L3.38967391,14.4179348 L0.975,15.8119565 Z" id="形状" opacity="0.8"></path>
                        <polygon id="路径" points="0 13.7975543 2.27445652 12.4850543 3.31630435 13.1714674 5.73179348 11.7774457 2.69103261 9.77201087 0.000815217391 11.3616848"></polygon>
                    </g>
                </g>
            </g>
        </g>
    </g>
</svg>