<?xml version="1.0" encoding="UTF-8"?>
<svg width="30px" height="30px" viewBox="0 0 30 30" version="1.1" xmlns="http://www.w3.org/2000/svg" xmlns:xlink="http://www.w3.org/1999/xlink">
    <title>编组 8</title>
    <defs>
        <path d="M4.04944907,16.6330668 C3.61987787,17.1448115 2.98596665,17.4404081 2.31782442,17.4404081 C1.06908622,17.4404081 0.0567142503,16.4282613 0.0566283379,15.1795231 L0.0557923576,3.02863989 C0.0557923576,2.71690525 0.105047763,2.40712836 0.201797066,2.11078724 C0.708600739,0.558458072 2.37785772,-0.289107808 3.93018688,0.217695864 L10.9224209,2.50051702 C11.2609668,2.61104531 11.5751503,2.78552902 11.8479194,3.01449813 C13.0250711,4.00262852 13.1783032,5.75793651 12.1901728,6.93508828 L4.04944907,16.6330668 Z" id="path-1"></path>
    </defs>
    <g id="页面-1" stroke="none" stroke-width="1" fill="none" fill-rule="evenodd">
        <g id="新主题-管理+平台层菜单" transform="translate(-12.000000, -308.000000)">
            <g id="左侧模块菜单" transform="translate(-1.000000, 50.000000)">
                <g id="编组" transform="translate(10.000000, 258.000000)">
                    <g id="编组-8" transform="translate(3.000000, 0.000000)">
                        <g id="编组-10备份-3" transform="translate(7.736842, 6.000000)">
                            <path d="M8.8955964,4.96090592 L12.051547,0.513199699 C12.4406552,-0.0351735436 13.200634,-0.164283386 13.7490073,0.224824797 C14.0707683,0.453136172 14.261948,0.823209442 14.261948,1.21774239 L14.261948,15.8293055 C14.261948,16.501703 13.7168621,17.0467888 13.0444646,17.0467888 C12.574586,17.0467888 12.1466493,16.7763953 11.9449078,16.3520296 L8.52997617,9.16867794 C7.88091088,7.80336098 8.02076751,6.19380922 8.8955964,4.96090592 Z" id="Fill-9" fill-opacity="0.86" fill="#FFFFFF" fill-rule="nonzero"></path>
                            <g id="形状-Clipped" transform="translate(0.118414, 0.010706)">
                                <mask id="mask-2" fill="white">
                                    <use xlink:href="#path-1"></use>
                                </mask>
                                <g id="path-1"></g>
                                <path d="M-0.521778584,-0.549761258 L-0.304075394,-1.21052631 L13.2180324,3.24462148 L13.0003292,3.90538655 L-0.521778584,-0.549761258 Z M-0.521778584,1.01821172 L-0.304075394,0.357446662 L13.2180324,4.81259447 L13.0003292,5.47335954 L-0.521778584,1.01821172 Z M-0.521778584,2.5861847 L-0.304075394,1.92541964 L13.2180324,6.38056746 L13.0003292,7.04133249 L-0.521778584,2.5861847 Z M-0.521778584,4.15415766 L-0.304075394,3.49339263 L13.2180324,7.94854042 L13.0003292,8.60930548 L-0.521778584,4.15415766 Z M-0.521778584,5.72213065 L-0.304075394,5.06136559 L13.2180324,9.51651341 L13.0003292,10.1772785 L-0.521778584,5.72213065 Z M-0.521778584,7.29010364 L-0.304075394,6.62933858 L13.2180324,11.0844864 L13.0003292,11.7452514 L-0.521778584,7.29010364 Z M-0.521778584,8.8580766 L-0.304075394,8.19731154 L13.2180324,12.6524594 L13.0003292,13.3132244 L-0.521778584,8.8580766 Z M-0.521778584,10.4260496 L-0.304075394,9.76528453 L13.2180324,14.2204323 L13.0003292,14.8811974 L-0.521778584,10.4260496 Z M-0.521778584,11.9940225 L-0.304075394,11.3332575 L13.2180324,15.7884053 L13.0003292,16.4491704 L-0.521778584,11.9940225 Z M-0.521778584,13.5619955 L-0.304075394,12.9012305 L13.2180324,17.3563783 L13.0003292,18.0171434 L-0.521778584,13.5619955 Z M-0.521778584,15.1299685 L-0.304075394,14.4692035 L13.2180324,18.9243513 L13.0003292,19.5851163 L-0.521778584,15.1299685 Z M-0.521778584,16.6979415 L-0.304075394,16.0371764 L13.2180324,20.4923242 L13.0003292,21.1530893 L-0.521778584,16.6979415 Z" id="形状" fill-opacity="0.86" fill="#FFFFFF" fill-rule="nonzero" opacity="0.8" mask="url(#mask-2)"></path>
                            </g>
                        </g>
                    </g>
                </g>
            </g>
        </g>
    </g>
</svg>