<?xml version="1.0" encoding="UTF-8"?>
<svg width="30px" height="30px" viewBox="0 0 30 30" version="1.1" xmlns="http://www.w3.org/2000/svg" xmlns:xlink="http://www.w3.org/1999/xlink">
    <title>编组 9</title>
    <g id="组织层" stroke="none" stroke-width="1" fill="none" fill-rule="evenodd">
        <g id="SaaS租户管理-标准版" transform="translate(-12.000000, -144.000000)" fill="#FFFFFF" fill-rule="nonzero">
            <g id="左侧模块菜单" transform="translate(-1.000000, 50.000000)">
                <g id="编组" transform="translate(13.000000, 94.000000)">
                    <g id="5" transform="translate(6.000000, 6.000000)">
                        <path d="M9.39503954,5.72664158 L12.4457889,7.48799256 C12.7174582,7.64484087 12.8848133,7.9347085 12.8848133,8.24840511 L12.8848133,11.7711071 C12.8848133,12.0848037 12.7174582,12.3746713 12.4457889,12.5315196 L9.39503954,14.2928706 C9.1233703,14.4497189 8.78866,14.4497189 8.51699076,14.2928706 L5.46624136,12.5315196 C5.19457213,12.3746713 5.02721697,12.0848037 5.02721697,11.7711071 L5.02721697,8.24840511 C5.02721697,7.9347085 5.19457213,7.64484087 5.46624136,7.48799256 L8.51699076,5.72664158 C8.78866,5.56979327 9.1233703,5.56979327 9.39503954,5.72664158 Z M8.95595122,7.50087805 L6.78321951,8.75531707 L6.78321951,11.2640488 L8.95595122,12.5184878 L11.1286829,11.2640488 L11.1286829,8.75531707 L8.95595122,7.50087805 Z" id="多边形"></path>
                        <g id="编组-6" transform="translate(0.000000, 10.412664)" fill-opacity="0.86">
                            <path d="M2.34146341,1.00197026 C1.04830888,1.00197026 0,2.05027914 0,3.34343367 C0,4.63658821 1.04830888,5.68489709 2.34146341,5.68489709 C3.63461795,5.68489709 4.68292683,4.63658821 4.68292683,3.34343367 C4.68292683,2.05027914 3.63461795,1.00197026 2.34146341,1.00197026 Z M2.34146341,2.31904343 C2.90721852,2.31904343 3.36585366,2.77767856 3.36585366,3.34343367 C3.36585366,3.90918878 2.90721852,4.36782392 2.34146341,4.36782392 C1.77570831,4.36782392 1.31707317,3.90918878 1.31707317,3.34343367 C1.31707317,2.77767856 1.77570831,2.31904343 2.34146341,2.31904343 Z" id="椭圆形" opacity="0.6"></path>
                            <path d="M6.78298402,1.08801856e-14 L6.78321951,0.851384893 L7.50998402,1.271 L6.63776698,1.73597421 L4.62195065,2.81025199 C4.62202959,2.81059098 4.62210846,2.81092999 4.62218726,2.81126903 L3.35580476,3.48748402 C3.3624284,3.4404185 3.36585366,3.39232609 3.36585366,3.34343367 C3.36585366,2.80622116 2.95232788,2.36559277 2.42622814,2.32250031 L3.85832641,1.55967489 L5.18598402,0.851 L6.78298402,1.08801856e-14 Z" id="形状结合" opacity="0.3"></path>
                        </g>
                        <g id="编组-6" transform="translate(13.989329, 13.787664) scale(-1, 1) translate(-13.989329, -13.787664) translate(10.051829, 10.412664)" fill-opacity="0.86">
                            <path d="M2.34146341,1.00197026 C1.04830888,1.00197026 0,2.05027914 0,3.34343367 C0,4.63658821 1.04830888,5.68489709 2.34146341,5.68489709 C3.63461795,5.68489709 4.68292683,4.63658821 4.68292683,3.34343367 C4.68292683,2.05027914 3.63461795,1.00197026 2.34146341,1.00197026 Z M2.34146341,2.31904343 C2.90721852,2.31904343 3.36585366,2.77767856 3.36585366,3.34343367 C3.36585366,3.90918878 2.90721852,4.36782392 2.34146341,4.36782392 C1.77570831,4.36782392 1.31707317,3.90918878 1.31707317,3.34343367 C1.31707317,2.77767856 1.77570831,2.31904343 2.34146341,2.31904343 Z" id="椭圆形" opacity="0.8"></path>
                            <path d="M6.78298402,1.08801856e-14 L6.78321951,0.851384893 L7.50998402,1.271 L6.63776698,1.73597421 L4.62195065,2.81025199 C4.62202959,2.81059098 4.62210846,2.81092999 4.62218726,2.81126903 L3.35580476,3.48748402 C3.3624284,3.4404185 3.36585366,3.39232609 3.36585366,3.34343367 C3.36585366,2.80622116 2.95232788,2.36559277 2.42622814,2.32250031 L3.85832641,1.55967489 L5.18598402,0.851 L6.78298402,1.08801856e-14 Z" id="形状结合" opacity="0.3"></path>
                        </g>
                        <path d="M8.89846392,0 C7.60530938,0 6.5570005,1.04830888 6.5570005,2.34146341 C6.5570005,3.63461795 7.60530938,4.68292683 8.89846392,4.68292683 C10.1916185,4.68292683 11.2399273,3.63461795 11.2399273,2.34146341 C11.2399273,1.04830888 10.1916185,0 8.89846392,0 Z M8.89846392,1.31707317 C9.46421903,1.31707317 9.92285416,1.77570831 9.92285416,2.34146341 C9.92285416,2.90721852 9.46421903,3.36585366 8.89846392,3.36585366 C8.33270881,3.36585366 7.87407367,2.90721852 7.87407367,2.34146341 C7.87407367,1.77570831 8.33270881,1.31707317 8.89846392,1.31707317 Z" id="椭圆形" fill-opacity="0.86"></path>
                        <path d="M9.64321867,7.89721874 L8.95595122,7.50087805 L8.18021867,7.94821874 L8.17971873,3.07138199 C8.32821358,3.21761779 8.52112177,3.31888235 8.73636859,3.35310092 L9.06101431,3.35302848 C9.28952893,3.31659502 9.49284124,3.20459084 9.64452608,3.0434411 L9.64388526,4.56177334 L9.64321867,7.89721874 Z" id="形状结合" fill-opacity="0.86" opacity="0.3"></path>
                    </g>
                </g>
            </g>
        </g>
    </g>
</svg>