<?xml version="1.0" encoding="UTF-8"?>
<svg width="30px" height="31px" viewBox="0 0 30 31" version="1.1" xmlns="http://www.w3.org/2000/svg" xmlns:xlink="http://www.w3.org/1999/xlink">
    <title>编组 3</title>
    <g id="页面-1" stroke="none" stroke-width="1" fill="none" fill-rule="evenodd" fill-opacity="0.86">
        <g id="新主题-菜单" transform="translate(-12.000000, -148.000000)" fill="#FFFFFF">
            <g id="左侧模块菜单" transform="translate(-1.000000, 50.000000)">
                <g id="编组" transform="translate(13.000000, 98.000000)">
                    <g id="1备份" transform="translate(7.000000, 7.552460)">
                        <path d="M15.889145,8.70291803 L13.727499,9.78410213 L13.727499,10.8652862 L15.889145,8.70291803 Z M13.727499,3.99106432 L13.727499,5.07224841 L15.889145,6.1534325 L13.727499,3.99106432 Z" id="形状"></path>
                        <path d="M11.2957376,13.2927142 L15.8840893,8.70291803 L15.8840893,11.760134 L12.8232622,14.8224055 L11.2957376,13.2927142 Z M11.2957376,1.55858067 L15.889145,6.1534325 L15.889145,3.09116093 L12.8254289,0.0274448867 L11.2957376,1.55858067 Z" id="形状"></path>
                        <polygon id="路径" opacity="0.3" points="15.889145 6.1534325 13.727499 5.07224841 13.727499 9.78410213 15.889145 8.70291803"></polygon>
                        <path d="M0,6.14621016 L2.16164595,5.06502607 L2.16164595,3.98384198 L0,6.14621016 Z M2.16164595,10.8580639 L2.16164595,9.77687979 L0,8.6956957 L2.16164595,10.8580639 Z" id="形状"></path>
                        <path d="M4.59340736,1.55641397 L0.00577787089,6.14621016 L0.00577787089,3.08899423 L3.06588274,0.0267226529 L4.59340736,1.55641397 Z M4.59340736,13.2905475 L0,8.6956957 L0,11.7579673 L3.06371604,14.8216833 L4.59340736,13.2905475 Z" id="形状"></path>
                        <path d="M4.69524234,6.3368799 C5.29515597,6.3368799 5.78148206,6.82320599 5.78148206,7.42311963 C5.78148206,8.02303327 5.29515597,8.50935936 4.69524234,8.50935936 C4.0953287,8.50935936 3.60900261,8.02303327 3.60900261,7.42311963 C3.60900261,6.82320599 4.0953287,6.3368799 4.69524234,6.3368799 Z M7.94385025,6.3368799 C8.54376388,6.3368799 9.03008997,6.82320599 9.03008997,7.42311963 C9.03008997,8.02303327 8.54376388,8.50935936 7.94385025,8.50935936 C7.34393661,8.50935936 6.85761052,8.02303327 6.85761052,7.42311963 C6.85761052,6.82320599 7.34393661,6.3368799 7.94385025,6.3368799 Z M11.1924582,6.3368799 C11.7923718,6.3368799 12.2786979,6.82320599 12.2786979,7.42311963 C12.2786979,8.02303327 11.7923718,8.50935936 11.1924582,8.50935936 C10.5925445,8.50935936 10.1062184,8.02303327 10.1062184,7.42311963 C10.1062184,6.82320599 10.5925445,6.3368799 11.1924582,6.3368799 Z" id="形状结合" opacity="0.6"></path>
                        <polygon id="路径" opacity="0.3" points="0 8.6956957 2.16164595 9.77687979 2.16164595 5.06502607 0 6.14621016"></polygon>
                    </g>
                </g>
            </g>
        </g>
    </g>
</svg>