<?xml version="1.0" encoding="UTF-8"?>
<svg width="30px" height="30px" viewBox="0 0 30 30" version="1.1" xmlns="http://www.w3.org/2000/svg" xmlns:xlink="http://www.w3.org/1999/xlink">
    <title>编组 9</title>
    <g id="页面-1" stroke="none" stroke-width="1" fill="none" fill-rule="evenodd" fill-opacity="0.86">
        <g id="新主题-菜单" transform="translate(-13.000000, -388.000000)" fill="#FFFFFF">
            <g id="左侧模块菜单" transform="translate(0.000000, 50.000000)">
                <g id="编组" transform="translate(13.000000, 338.000000)">
                    <g id="6" transform="translate(7.500000, 7.000000)">
                        <polygon id="路径" fill-rule="nonzero" points="5.29581953 11.9829528 0.717112287 11.9829528 0.717112287 13.7406836 5.29581953 13.7406836 9.37369914 13.7406836 13.9524064 13.7406836 13.9524064 11.9829528 9.37369914 11.9829528"></polygon>
                        <polygon id="路径" fill-rule="nonzero" opacity="0.6" points="6.68490111 10.2596234 6.68490111 11.3438921 6.68490111 14.3797442 6.68490111 15.7554197 8.44960699 15.7554197 8.44960699 14.3797442 8.44960699 11.3438921 8.44960699 10.2597489"></polygon>
                        <polygon id="路径" opacity="0.6" points="6.4210112 11.3438482 4.92019523 11.3438482 4.92019523 11.9829089 4.92019523 13.7406396 4.92019523 14.3797003 6.4210112 14.3797003 8.71333318 14.3797003 10.2143129 14.3797003 10.2143129 13.7406396 10.2143129 11.9829089 10.2143129 11.3438482 8.71333318 11.3438482"></polygon>
                        <path d="M7.33475935,1.75785631 C8.93153219,1.75785631 10.4814741,1.99916763 11.5870867,2.41989305 C12.5781958,2.79730296 12.9116624,3.20735642 12.9116624,3.33642409 C12.9116624,3.3602106 12.9003363,3.39353215 12.875655,3.43442794 L12.9117879,6.94617533 C12.9117879,7.07536853 12.5781958,7.48529646 11.5870867,7.86270634 C10.4814741,8.2835573 8.93153219,8.52486864 7.33463378,8.52486864 C5.73811204,8.52486864 4.18817016,8.28355733 3.08255754,7.86270634 C2.0914485,7.48542199 1.75785631,7.0753685 1.75785629,6.94617533 L1.72019062,3.31470354 L1.758,3.332 L1.76184462,3.30888354 C1.80212325,3.15611692 2.15338494,2.77371484 3.08243198,2.41989305 C4.18817019,1.99916766 5.7379865,1.75785631 7.33475935,1.75785631 Z M2.23820962e-13,3.33654965 L2.23820962e-13,6.94630087 C2.23820962e-13,8.96028367 3.11997211,10.0907556 6.45589397,10.2596234 L8.21362472,10.2597489 C11.5495466,10.0907556 14.6695187,8.96028367 14.6695187,6.94642643 L14.6695187,3.33642409 C14.6695187,1.14604046 10.9795396,0 7.33475935,0 C3.68997905,0.000251101942 2.23820962e-13,1.14629156 2.23820962e-13,3.33654965 Z" id="形状" fill-rule="nonzero" opacity="0.8"></path>
                        <path d="M7.33475935,0 C10.9795396,0 14.6695187,1.14604046 14.6695187,3.33642409 L14.6695187,3.33253197 C14.6695187,3.47870308 14.6530861,3.6202234 14.6213309,3.75706272 C14.4952853,4.30021776 14.1278283,4.76962233 13.5883783,5.16338638 C12.2271754,6.15697751 9.77087141,6.66895606 7.33475935,6.66895606 C4.93449111,6.6687907 2.51462073,6.17171088 1.14193238,5.20672596 C0.562984286,4.79973177 0.170312462,4.30950506 0.0439518344,3.73822221 C0.0149724159,3.60720478 9.59232693e-14,3.4719241 9.59232693e-14,3.3324064 L0.00594000679,3.18543647 C0.171602488,1.09360703 3.77474138,0.000245262362 7.33475935,0 Z M1.75785629,3.33629855 C1.75785629,3.46549176 2.0914485,3.87529412 3.08243198,4.25270403 C4.18817016,4.67355501 5.73811204,4.91486633 7.33463378,4.91486633 C8.93153219,4.91486633 10.4814741,4.67342942 11.5870867,4.25257847 C12.5781958,3.87529412 12.9116624,3.46549176 12.9116624,3.33642409 L12.9116624,3.33642409 L12.9116624,3.33253197 C12.9116624,3.2034643 12.5781958,2.79366194 11.5870867,2.41637759 C10.4814741,1.99552664 8.93153219,1.75408973 7.33463378,1.75408973 C5.73811204,1.75408973 4.18817016,1.99540104 3.08243198,2.41625203 C2.0914485,2.79366194 1.75785629,3.2034643 1.75785629,3.33265751 Z" id="形状结合" fill-rule="nonzero"></path>
                    </g>
                </g>
            </g>
        </g>
    </g>
</svg>