<svg xmlns="http://www.w3.org/2000/svg" width="13" height="14" viewBox="0 0 13 14">
  <path fill="#6887E8" d="M4,12 L1.33333333,12 L1.33333333,1.33333333 L6,1.33333333 L6,4.66666667 L9.33333333,4.66666667 L9.33333333,6.73333333 L10.6666667,5.4 L10.6666667,4 L6.66666667,0 L1.33333333,0 C0.6,0 0,0.6 0,1.33333333 L0,12 C0,12.7333333 0.6,13.3333333 1.33333333,13.3333333 L4,13.3333333 L4,12 M10.8,7.33333333 C10.8666667,7.33333333 11,7.4 11.0666667,7.46666667 L11.9333333,8.33333333 C12.0666667,8.46666667 12.0666667,8.73333333 11.9333333,8.86666667 L11.2666667,9.53333333 L9.86666667,8.13333333 L10.5333333,7.46666667 C10.6,7.4 10.6666667,7.33333333 10.8,7.33333333 M10.8,9.93333333 L6.73333333,14 L5.33333333,14 L5.33333333,12.6 L9.4,8.53333333 L10.8,9.93333333 Z"/>
</svg>
