<?xml version="1.0" encoding="UTF-8"?>
<svg width="40px" height="40px" viewBox="0 0 40 40" version="1.1" xmlns="http://www.w3.org/2000/svg" xmlns:xlink="http://www.w3.org/1999/xlink">
    <title>编组 12</title>
    <g id="页面-1" stroke="none" stroke-width="1" fill="none" fill-rule="evenodd">
        <g id="创建项目" transform="translate(-1111.000000, -421.000000)" fill-rule="nonzero">
            <g id="编组-14" transform="translate(1061.000000, 0.000000)">
                <g id="编组-11" transform="translate(25.000000, 386.000000)">
                    <g id="编组-10" transform="translate(0.000000, 25.000000)">
                        <g id="编组-12" transform="translate(25.000000, 10.000000)">
                            <g id="敏捷" transform="translate(0.000000, 3.664122)">
                                <path d="M15.144569,29.1551204 C15.1469014,29.153721 15.1476011,29.1521661 15.1498558,29.1507666 C8.10652293,29.1026412 2.41015662,23.3817846 2.41015662,16.3268675 C2.41015662,12.4478868 4.13248737,8.97303216 6.85393433,6.62247337 C8.24427481,7.93838707 9.46564885,8.8544176 10.4803324,9.72716452 C8.42070335,11.2011124 7.0749759,13.6031369 7.0749759,16.3268675 C7.0749759,20.8277183 10.7375587,24.4903012 15.2384096,24.4903012 L27.9921566,24.4894734 L27.9936582,24.4893682 L32.7314819,24.4892127 L32.7314819,20.9917645 L39.8064578,26.8227886 L32.7314819,32.6526464 L32.7314819,29.1551982 L15.144569,29.1551204 Z" id="形状结合" fill="#3FD1F5"></path>
                                <path d="M15.3269634,29.1507666 C22.3702963,29.1026412 28.0666626,23.3817846 28.0666626,16.3268675 C28.0666626,9.63588393 22.9420477,4.14733532 16.4046144,3.55739118 L16.4046144,-2.38655575e-14 L9.40738553,5.83102409 L16.4046144,11.660882 L16.4046144,8.28129816 C20.3502741,8.85328275 23.4018433,12.2253251 23.4018433,16.3268675 C23.4018433,20.8277183 19.7392605,24.4903012 15.2384096,24.4903012 L8.67838456e-15,24.4903012 L8.67838456e-15,29.1551204 L15.3322502,29.1551204 C15.3299178,29.153721 15.3292181,29.1521661 15.3269634,29.1507666 Z" id="路径" fill="#686FFF"></path>
                                <path d="M25.132884,24.4899057 C22.7972823,27.315746 19.2735789,29.1238003 15.3269634,29.1507666 C15.3292181,29.1521661 15.3299178,29.153721 15.3322502,29.1551204 L15.3322502,29.1551204 L15.144569,29.1551204 L15.1498558,29.1507666 C11.2037028,29.1238035 7.68036267,27.3161697 5.34475622,24.4908989 L15.2384096,24.4903012 L15.2384096,24.4903012 Z" id="形状结合" fill="#4C36B5"></path>
                            </g>
                        </g>
                    </g>
                </g>
            </g>
        </g>
    </g>
</svg>