<?xml version="1.0" encoding="UTF-8"?>
<svg width="40px" height="40px" viewBox="0 0 40 40" version="1.1" xmlns="http://www.w3.org/2000/svg" xmlns:xlink="http://www.w3.org/1999/xlink">
    <title>编组 17</title>
    <g id="页面-1" stroke="none" stroke-width="1" fill="none" fill-rule="evenodd">
        <g id="创建项目" transform="translate(-1221.000000, -529.000000)" fill-rule="nonzero">
            <g id="编组-14" transform="translate(1061.000000, 0.000000)">
                <g id="编组-11" transform="translate(25.000000, 386.000000)">
                    <g id="编组-10" transform="translate(110.000000, 133.000000)">
                        <g id="编组-17" transform="translate(25.000000, 10.000000)">
                            <g id="需求管理" transform="translate(4.432432, 4.000000)">
                                <path d="M9.18743768,20.2357819 L4.03171171,22.8707748 L15.5675676,28.7665586 L27.1031351,22.8707748 L21.8317749,20.1766046 L24.6747051,18.3921089 L29.9218006,21.0739576 C30.9142083,21.5811883 31.3075221,22.7968854 30.8002915,23.7892932 C30.6200067,24.1420242 30.3402059,24.4333214 29.9964325,24.6276414 L29.9218006,24.6677841 L16.4859899,31.5349762 C15.9342728,31.8169649 15.2851525,31.8292253 14.7249656,31.5717574 L14.6491452,31.5349762 L1.21333458,24.6677841 C0.220926806,24.1605535 -0.172386974,22.9448563 0.334843667,21.9524486 C0.515128408,21.5997175 0.794929214,21.3084203 1.13870263,21.1141003 L1.21333458,21.0739576 L6.50357434,18.3700573 L9.18743768,20.2357819 Z" id="路径" fill="#686FFF"></path>
                                <path d="M9.1172129,13.3144308 L4.032,15.9135135 L15.5675676,21.8092973 L27.1028468,15.9135135 L22.0468299,13.3292737 L24.9834102,11.5925341 L29.9218006,14.1166003 C30.9142083,14.6238309 31.3075221,15.8395281 30.8002915,16.8319358 C30.6200067,17.1846668 30.3402059,17.4759641 29.9964325,17.670284 L29.9218006,17.7104267 L16.4859899,24.5776189 C15.9342728,24.8596076 15.2851525,24.871868 14.7249656,24.6144 L14.6491452,24.5776189 L1.21333458,17.7104267 C0.220926806,17.2031961 -0.172386974,15.987499 0.334843667,14.9950912 C0.515128408,14.6423602 0.794929214,14.351063 1.13870263,14.156743 L1.21333458,14.1166003 L6.5973779,11.3647559 L9.1172129,13.3144308 Z" id="路径" fill="#3FD1F5"></path>
                                <path d="M7.67065333,17.7734046 L10.8376533,19.3914046 L7.66965333,21.0114046 L4.50265333,19.3924046 L7.67065333,17.7734046 Z M23.4636533,17.7734046 L26.6316533,19.3924046 L23.4646533,21.0114046 L20.2966533,19.3924046 L23.4636533,17.7734046 Z" id="形状结合" fill="#4C36B5"></path>
                                <path d="M14.6491452,0.292050804 L1.21333458,7.15924292 C0.835408493,7.35240515 0.52800589,7.65980775 0.334843667,8.03773384 C-0.172386974,9.03014161 0.220926806,10.2458387 1.21333458,10.7530694 L14.6491452,17.6202615 C15.2259403,17.9150679 15.9091948,17.9150679 16.4859899,17.6202615 L29.9218006,10.7530694 C30.2997266,10.5599072 30.6071292,10.2525046 30.8002915,9.87457848 C31.3075221,8.8821707 30.9142083,7.66647356 29.9218006,7.15924292 L16.4859899,0.292050804 C15.9091948,-0.00275557619 15.2259403,-0.00275557619 14.6491452,0.292050804 Z M15.5675676,3.06018018 L27.1031351,8.95596396 L15.5672793,14.8517477 L4.03171171,8.95596396 L15.5675676,3.06018018 Z" id="多边形" fill="#686FFF"></path>
                                <path d="M7.67065333,10.8157388 L10.8376533,12.4347388 L7.67065333,14.0537388 L4.50265333,12.4347388 L7.67065333,10.8157388 Z M23.4636533,10.8157388 L26.6316533,12.4347388 L23.4646533,14.0537388 L20.2966533,12.4347388 L23.4636533,10.8157388 Z" id="形状结合" fill="#4C36B5"></path>
                            </g>
                        </g>
                    </g>
                </g>
            </g>
        </g>
    </g>
</svg>