<svg xmlns="http://www.w3.org/2000/svg" xmlns:xlink="http://www.w3.org/1999/xlink" width="153" height="132" viewBox="0 0 153 132">
  <defs>
    <rect id="编组-13-a" width="78" height="100" x="0" y=".335"/>
    <linearGradient id="编组-13-b" x1="84.905%" x2="19.464%" y1="16.098%" y2="86.206%">
      <stop offset="0%" stop-color="#BED2FE"/>
      <stop offset="100%" stop-color="#EAF0FE"/>
    </linearGradient>
    <path id="编组-13-d" d="M66.34,16.8661017 L60.7179661,6.44305701e-15 C60.7179661,6.44305701e-15 55.6581356,3.37322034 52.2849153,3.93542373 C48.9116949,4.49762712 41.0408475,3.93542373 41.0408475,3.93542373 L34.2944068,10.119661 L27.5479661,4.49762712 C27.5479661,4.49762712 18.5527119,3.93542373 14.6172881,5.05983051 C10.6818644,6.18423729 -5.79875131e-14,18.5527119 -5.79875131e-14,18.5527119 L6.18423729,33.7322034 L11.2440678,29.7967797 C11.2440678,29.7967797 7.87084746,46.100678 8.43305085,50.5983051 C8.43305085,51.7227119 45.5384746,51.7227119 49.4738983,50.5983051 C52.8471186,47.7872881 53.409322,24.7369492 53.409322,23.050339 C55.0959322,22.4881356 66.34,17.2596441 66.34,16.8661017 Z"/>
  </defs>
  <g fill="none" fill-rule="evenodd" transform="translate(.74 .08)">
    <g transform="translate(58.26 6.585)">
      <mask id="编组-13-c" fill="#fff">
        <use xlink:href="#编组-13-a"/>
      </mask>
      <path fill="url(#编组-13-b)" d="M67.165,-28 C104.425,-28 134.665,2.24 134.665,39.5 C134.665,76.76 104.425,107 67.165,107 C29.905,107 -0.335,76.76 -0.335,39.5 C-0.335,2.24 29.905,-28 67.165,-28 Z M67.165,-19.5 C45.085,-19.5 27.165,-1.58 27.165,20.5 C27.165,42.58 45.085,60.5 67.165,60.5 C89.245,60.5 107.165,42.58 107.165,20.5 C107.165,-1.58 89.245,-19.5 67.165,-19.5 Z" mask="url(#编组-13-c)"/>
    </g>
    <path fill="#C0C4FD" fill-rule="nonzero" d="M25.2366102,25.6437288 C25.2366102,25.6437288 27.4854237,-2.46644068 55.5955932,3.71779661 C62.3420339,9.33983051 58.4066102,13.2752542 58.4066102,13.2752542 C58.4066102,13.2752542 62.9042373,12.1508475 62.9042373,16.6484746 C62.9042373,21.1461017 57.2822034,24.519322 57.2822034,24.519322 L39.2916949,49.2562712 C39.2916949,49.2562712 49.9735593,49.2562712 38.7294915,52.0672881 C27.4854237,54.8783051 22.9877966,34.0767797 22.9877966,34.0767797 C22.9877966,34.0767797 18.2090678,35.4822881 17.6468644,32.6712712 C17.084661,29.8602542 19.6145763,28.4547458 19.6145763,28.4547458 C19.6145763,28.4547458 16.8035593,26.2059322 19.0523729,24.519322 C21.3011864,22.8327119 25.2366102,25.6437288 25.2366102,25.6437288 Z"/>
    <path fill="#FFF" fill-rule="nonzero" d="M51.6601695,20.5838983 L64.5908475,30.7035593 L60.0932203,34.6389831 C60.0932203,34.6389831 63.4664407,40.8232203 62.3420339,44.1964407 C61.2176271,47.569661 49.9735593,49.8184746 49.9735593,49.8184746 L49.9735593,59.9381356 L44.9137288,64.9979661 L39.2916949,59.3759322 L39.2916949,49.2562712 C38.5789398,47.2320421 36.9869579,45.6400602 34.9627288,44.9273051 C34.9627288,44.9273051 29.1720339,53.1916949 22.4255932,42.5098305 C19.6145763,37.45 24.5057458,32.7837119 27.4854237,32.9523729 C31.3646271,33.1772542 34.7940678,36.3255932 34.7940678,36.3255932 C34.7940678,36.3255932 32.2079322,24.2944407 38.2797288,23.2824746 C44.3515254,22.2705085 51.6601695,20.5838983 51.6601695,20.5838983 Z"/>
    <g transform="translate(10.62 54.878)">
      <mask id="编组-13-e" fill="#fff">
        <use xlink:href="#编组-13-d"/>
      </mask>
      <use fill="#5365EA" fill-rule="nonzero" xlink:href="#编组-13-d"/>
      <path fill="#B9BBFF" d="M91.0842722,75.5643377 C91.8856219,75.5643377 92.5352442,76.21396 92.5352442,77.0153097 C92.5352442,77.8166593 91.8856219,78.4662816 91.0842722,78.4662816 C90.2829226,78.4662816 89.6333003,77.8166593 89.6333003,77.0153097 C89.6333003,76.21396 90.2829226,75.5643377 91.0842722,75.5643377 Z M79.4764967,75.5643377 C80.2778463,75.5643377 80.9274686,76.21396 80.9274686,77.0153097 C80.9274686,77.8166593 80.2778463,78.4662816 79.4764967,78.4662816 C78.675147,78.4662816 78.0255247,77.8166593 78.0255247,77.0153097 C78.0255247,76.21396 78.675147,75.5643377 79.4764967,75.5643377 Z M67.8687211,75.5643377 C68.6700708,75.5643377 69.319693,76.21396 69.319693,77.0153097 C69.319693,77.8166593 68.6700708,78.4662816 67.8687211,78.4662816 C67.0673714,78.4662816 66.4177491,77.8166593 66.4177491,77.0153097 C66.4177491,76.21396 67.0673714,75.5643377 67.8687211,75.5643377 Z M33.0453944,75.5643377 C33.846744,75.5643377 34.4963663,76.21396 34.4963663,77.0153097 C34.4963663,77.8166593 33.846744,78.4662816 33.0453944,78.4662816 C32.2440447,78.4662816 31.5944224,77.8166593 31.5944224,77.0153097 C31.5944224,76.21396 32.2440447,75.5643377 33.0453944,75.5643377 Z M56.2609455,75.5643377 C57.0622952,75.5643377 57.7119175,76.21396 57.7119175,77.0153097 C57.7119175,77.8166593 57.0622952,78.4662816 56.2609455,78.4662816 C55.4595958,78.4662816 54.8099736,77.8166593 54.8099736,77.0153097 C54.8099736,76.21396 55.4595958,75.5643377 56.2609455,75.5643377 Z M21.4376188,75.5643377 C22.2389685,75.5643377 22.8885907,76.21396 22.8885907,77.0153097 C22.8885907,77.8166593 22.2389685,78.4662816 21.4376188,78.4662816 C20.6362691,78.4662816 19.9866468,77.8166593 19.9866468,77.0153097 C19.9866468,76.21396 20.6362691,75.5643377 21.4376188,75.5643377 Z M44.6531699,75.5643377 C45.4545196,75.5643377 46.1041419,76.21396 46.1041419,77.0153097 C46.1041419,77.8166593 45.4545196,78.4662816 44.6531699,78.4662816 C43.8518203,78.4662816 43.202198,77.8166593 43.202198,77.0153097 C43.202198,76.21396 43.8518203,75.5643377 44.6531699,75.5643377 Z M9.8298432,75.5643377 C10.6311929,75.5643377 11.2808151,76.21396 11.2808151,77.0153097 C11.2808151,77.8166593 10.6311929,78.4662816 9.8298432,78.4662816 C9.02849352,78.4662816 8.37887126,77.8166593 8.37887126,77.0153097 C8.37887126,76.21396 9.02849352,75.5643377 9.8298432,75.5643377 Z M85.2327517,64.866454 C86.0341014,64.866454 86.6837237,65.5160763 86.6837237,66.317426 C86.6837237,67.1187757 86.0341014,67.7683979 85.2327517,67.7683979 C84.4314021,67.7683979 83.7817798,67.1187757 83.7817798,66.317426 C83.7817798,65.5160763 84.4314021,64.866454 85.2327517,64.866454 Z M73.6249762,64.866454 C74.4263258,64.866454 75.0759481,65.5160763 75.0759481,66.317426 C75.0759481,67.1187757 74.4263258,67.7683979 73.6249762,67.7683979 C72.8236265,67.7683979 72.1740042,67.1187757 72.1740042,66.317426 C72.1740042,65.5160763 72.8236265,64.866454 73.6249762,64.866454 Z M62.0172006,64.866454 C62.8185503,64.866454 63.4681725,65.5160763 63.4681725,66.317426 C63.4681725,67.1187757 62.8185503,67.7683979 62.0172006,67.7683979 C61.2158509,67.7683979 60.5662286,67.1187757 60.5662286,66.317426 C60.5662286,65.5160763 61.2158509,64.866454 62.0172006,64.866454 Z M27.1938738,64.866454 C27.9952235,64.866454 28.6448458,65.5160763 28.6448458,66.317426 C28.6448458,67.1187757 27.9952235,67.7683979 27.1938738,67.7683979 C26.3925242,67.7683979 25.7429019,67.1187757 25.7429019,66.317426 C25.7429019,65.5160763 26.3925242,64.866454 27.1938738,64.866454 Z M50.409425,64.866454 C51.2107747,64.866454 51.860397,65.5160763 51.860397,66.317426 C51.860397,67.1187757 51.2107747,67.7683979 50.409425,67.7683979 C49.6080753,67.7683979 48.9584531,67.1187757 48.9584531,66.317426 C48.9584531,65.5160763 49.6080753,64.866454 50.409425,64.866454 Z M15.5860983,64.866454 C16.387448,64.866454 17.0370702,65.5160763 17.0370702,66.317426 C17.0370702,67.1187757 16.387448,67.7683979 15.5860983,67.7683979 C14.7847486,67.7683979 14.1351263,67.1187757 14.1351263,66.317426 C14.1351263,65.5160763 14.7847486,64.866454 15.5860983,64.866454 Z M38.8016494,64.866454 C39.6029991,64.866454 40.2526214,65.5160763 40.2526214,66.317426 C40.2526214,67.1187757 39.6029991,67.7683979 38.8016494,67.7683979 C38.0002997,67.7683979 37.3506775,67.1187757 37.3506775,66.317426 C37.3506775,65.5160763 38.0002997,64.866454 38.8016494,64.866454 Z M3.9783227,64.866454 C4.77967238,64.866454 5.42929464,65.5160763 5.42929464,66.317426 C5.42929464,67.1187757 4.77967238,67.7683979 3.9783227,67.7683979 C3.17697302,67.7683979 2.52735075,67.1187757 2.52735075,66.317426 C2.52735075,65.5160763 3.17697302,64.866454 3.9783227,64.866454 Z M79.4764967,53.2586785 C80.2778463,53.2586785 80.9274686,53.9083007 80.9274686,54.7096504 C80.9274686,55.5110001 80.2778463,56.1606224 79.4764967,56.1606224 C78.675147,56.1606224 78.0255247,55.5110001 78.0255247,54.7096504 C78.0255247,53.9083007 78.675147,53.2586785 79.4764967,53.2586785 Z M67.8687211,53.2586785 C68.6700708,53.2586785 69.319693,53.9083007 69.319693,54.7096504 C69.319693,55.5110001 68.6700708,56.1606224 67.8687211,56.1606224 C67.0673714,56.1606224 66.4177491,55.5110001 66.4177491,54.7096504 C66.4177491,53.9083007 67.0673714,53.2586785 67.8687211,53.2586785 Z M33.0453944,53.2586785 C33.846744,53.2586785 34.4963663,53.9083007 34.4963663,54.7096504 C34.4963663,55.5110001 33.846744,56.1606224 33.0453944,56.1606224 C32.2440447,56.1606224 31.5944224,55.5110001 31.5944224,54.7096504 C31.5944224,53.9083007 32.2440447,53.2586785 33.0453944,53.2586785 Z M56.2609455,53.2586785 C57.0622952,53.2586785 57.7119175,53.9083007 57.7119175,54.7096504 C57.7119175,55.5110001 57.0622952,56.1606224 56.2609455,56.1606224 C55.4595958,56.1606224 54.8099736,55.5110001 54.8099736,54.7096504 C54.8099736,53.9083007 55.4595958,53.2586785 56.2609455,53.2586785 Z M21.4376188,53.2586785 C22.2389685,53.2586785 22.8885907,53.9083007 22.8885907,54.7096504 C22.8885907,55.5110001 22.2389685,56.1606224 21.4376188,56.1606224 C20.6362691,56.1606224 19.9866468,55.5110001 19.9866468,54.7096504 C19.9866468,53.9083007 20.6362691,53.2586785 21.4376188,53.2586785 Z M44.6531699,53.2586785 C45.4545196,53.2586785 46.1041419,53.9083007 46.1041419,54.7096504 C46.1041419,55.5110001 45.4545196,56.1606224 44.6531699,56.1606224 C43.8518203,56.1606224 43.202198,55.5110001 43.202198,54.7096504 C43.202198,53.9083007 43.8518203,53.2586785 44.6531699,53.2586785 Z M9.8298432,53.2586785 C10.6311929,53.2586785 11.2808151,53.9083007 11.2808151,54.7096504 C11.2808151,55.5110001 10.6311929,56.1606224 9.8298432,56.1606224 C9.02849352,56.1606224 8.37887126,55.5110001 8.37887126,54.7096504 C8.37887126,53.9083007 9.02849352,53.2586785 9.8298432,53.2586785 Z M91.0842722,53.2586785 C91.8856219,53.2586785 92.5352442,53.9083007 92.5352442,54.7096504 C92.5352442,55.5110001 91.8856219,56.1606224 91.0842722,56.1606224 C90.2829226,56.1606224 89.6333003,55.5110001 89.6333003,54.7096504 C89.6333003,53.9083007 90.2829226,53.2586785 91.0842722,53.2586785 Z M38.8016494,41.6509029 C39.6029991,41.6509029 40.2526214,42.3005252 40.2526214,43.1018748 C40.2526214,43.9032245 39.6029991,44.5528468 38.8016494,44.5528468 C38.0002997,44.5528468 37.3506775,43.9032245 37.3506775,43.1018748 C37.3506775,42.3005252 38.0002997,41.6509029 38.8016494,41.6509029 Z M15.5860983,41.6509029 C16.387448,41.6509029 17.0370702,42.3005252 17.0370702,43.1018748 C17.0370702,43.9032245 16.387448,44.5528468 15.5860983,44.5528468 C14.7847486,44.5528468 14.1351263,43.9032245 14.1351263,43.1018748 C14.1351263,42.3005252 14.7847486,41.6509029 15.5860983,41.6509029 Z M50.409425,41.6509029 C51.2107747,41.6509029 51.860397,42.3005252 51.860397,43.1018748 C51.860397,43.9032245 51.2107747,44.5528468 50.409425,44.5528468 C49.6080753,44.5528468 48.9584531,43.9032245 48.9584531,43.1018748 C48.9584531,42.3005252 49.6080753,41.6509029 50.409425,41.6509029 Z M27.1938738,41.6509029 C27.9952235,41.6509029 28.6448458,42.3005252 28.6448458,43.1018748 C28.6448458,43.9032245 27.9952235,44.5528468 27.1938738,44.5528468 C26.3925242,44.5528468 25.7429019,43.9032245 25.7429019,43.1018748 C25.7429019,42.3005252 26.3925242,41.6509029 27.1938738,41.6509029 Z M62.0172006,41.6509029 C62.8185503,41.6509029 63.4681725,42.3005252 63.4681725,43.1018748 C63.4681725,43.9032245 62.8185503,44.5528468 62.0172006,44.5528468 C61.2158509,44.5528468 60.5662286,43.9032245 60.5662286,43.1018748 C60.5662286,42.3005252 61.2158509,41.6509029 62.0172006,41.6509029 Z M73.6249762,41.6509029 C74.4263258,41.6509029 75.0759481,42.3005252 75.0759481,43.1018748 C75.0759481,43.9032245 74.4263258,44.5528468 73.6249762,44.5528468 C72.8236265,44.5528468 72.1740042,43.9032245 72.1740042,43.1018748 C72.1740042,42.3005252 72.8236265,41.6509029 73.6249762,41.6509029 Z M85.2327517,41.6509029 C86.0341014,41.6509029 86.6837237,42.3005252 86.6837237,43.1018748 C86.6837237,43.9032245 86.0341014,44.5528468 85.2327517,44.5528468 C84.4314021,44.5528468 83.7817798,43.9032245 83.7817798,43.1018748 C83.7817798,42.3005252 84.4314021,41.6509029 85.2327517,41.6509029 Z M3.9783227,41.6509029 C4.77967238,41.6509029 5.42929464,42.3005252 5.42929464,43.1018748 C5.42929464,43.9032245 4.77967238,44.5528468 3.9783227,44.5528468 C3.17697302,44.5528468 2.52735075,43.9032245 2.52735075,43.1018748 C2.52735075,42.3005252 3.17697302,41.6509029 3.9783227,41.6509029 Z M33.0453944,30.0431273 C33.846744,30.0431273 34.4963663,30.6927496 34.4963663,31.4940993 C34.4963663,32.2954489 33.846744,32.9450712 33.0453944,32.9450712 C32.2440447,32.9450712 31.5944224,32.2954489 31.5944224,31.4940993 C31.5944224,30.6927496 32.2440447,30.0431273 33.0453944,30.0431273 Z M91.0842722,30.0431273 C91.8856219,30.0431273 92.5352442,30.6927496 92.5352442,31.4940993 C92.5352442,32.2954489 91.8856219,32.9450712 91.0842722,32.9450712 C90.2829226,32.9450712 89.6333003,32.2954489 89.6333003,31.4940993 C89.6333003,30.6927496 90.2829226,30.0431273 91.0842722,30.0431273 Z M79.4764967,30.0431273 C80.2778463,30.0431273 80.9274686,30.6927496 80.9274686,31.4940993 C80.9274686,32.2954489 80.2778463,32.9450712 79.4764967,32.9450712 C78.675147,32.9450712 78.0255247,32.2954489 78.0255247,31.4940993 C78.0255247,30.6927496 78.675147,30.0431273 79.4764967,30.0431273 Z M67.8687211,30.0431273 C68.6700708,30.0431273 69.319693,30.6927496 69.319693,31.4940993 C69.319693,32.2954489 68.6700708,32.9450712 67.8687211,32.9450712 C67.0673714,32.9450712 66.4177491,32.2954489 66.4177491,31.4940993 C66.4177491,30.6927496 67.0673714,30.0431273 67.8687211,30.0431273 Z M56.2609455,30.0431273 C57.0622952,30.0431273 57.7119175,30.6927496 57.7119175,31.4940993 C57.7119175,32.2954489 57.0622952,32.9450712 56.2609455,32.9450712 C55.4595958,32.9450712 54.8099736,32.2954489 54.8099736,31.4940993 C54.8099736,30.6927496 55.4595958,30.0431273 56.2609455,30.0431273 Z M21.4376188,30.0431273 C22.2389685,30.0431273 22.8885907,30.6927496 22.8885907,31.4940993 C22.8885907,32.2954489 22.2389685,32.9450712 21.4376188,32.9450712 C20.6362691,32.9450712 19.9866468,32.2954489 19.9866468,31.4940993 C19.9866468,30.6927496 20.6362691,30.0431273 21.4376188,30.0431273 Z M44.6531699,30.0431273 C45.4545196,30.0431273 46.1041419,30.6927496 46.1041419,31.4940993 C46.1041419,32.2954489 45.4545196,32.9450712 44.6531699,32.9450712 C43.8518203,32.9450712 43.202198,32.2954489 43.202198,31.4940993 C43.202198,30.6927496 43.8518203,30.0431273 44.6531699,30.0431273 Z M9.8298432,30.0431273 C10.6311929,30.0431273 11.2808151,30.6927496 11.2808151,31.4940993 C11.2808151,32.2954489 10.6311929,32.9450712 9.8298432,32.9450712 C9.02849352,32.9450712 8.37887126,32.2954489 8.37887126,31.4940993 C8.37887126,30.6927496 9.02849352,30.0431273 9.8298432,30.0431273 Z M38.8016494,19.3452436 C39.6029991,19.3452436 40.2526214,19.9948659 40.2526214,20.7962156 C40.2526214,21.5975653 39.6029991,22.2471875 38.8016494,22.2471875 C38.0002997,22.2471875 37.3506775,21.5975653 37.3506775,20.7962156 C37.3506775,19.9948659 38.0002997,19.3452436 38.8016494,19.3452436 Z M15.5860983,19.3452436 C16.387448,19.3452436 17.0370702,19.9948659 17.0370702,20.7962156 C17.0370702,21.5975653 16.387448,22.2471875 15.5860983,22.2471875 C14.7847486,22.2471875 14.1351263,21.5975653 14.1351263,20.7962156 C14.1351263,19.9948659 14.7847486,19.3452436 15.5860983,19.3452436 Z M50.409425,19.3452436 C51.2107747,19.3452436 51.860397,19.9948659 51.860397,20.7962156 C51.860397,21.5975653 51.2107747,22.2471875 50.409425,22.2471875 C49.6080753,22.2471875 48.9584531,21.5975653 48.9584531,20.7962156 C48.9584531,19.9948659 49.6080753,19.3452436 50.409425,19.3452436 Z M73.6249762,19.3452436 C74.4263258,19.3452436 75.0759481,19.9948659 75.0759481,20.7962156 C75.0759481,21.5975653 74.4263258,22.2471875 73.6249762,22.2471875 C72.8236265,22.2471875 72.1740042,21.5975653 72.1740042,20.7962156 C72.1740042,19.9948659 72.8236265,19.3452436 73.6249762,19.3452436 Z M85.2327517,19.3452436 C86.0341014,19.3452436 86.6837237,19.9948659 86.6837237,20.7962156 C86.6837237,21.5975653 86.0341014,22.2471875 85.2327517,22.2471875 C84.4314021,22.2471875 83.7817798,21.5975653 83.7817798,20.7962156 C83.7817798,19.9948659 84.4314021,19.3452436 85.2327517,19.3452436 Z M3.9783227,19.3452436 C4.77967238,19.3452436 5.42929464,19.9948659 5.42929464,20.7962156 C5.42929464,21.5975653 4.77967238,22.2471875 3.9783227,22.2471875 C3.17697302,22.2471875 2.52735075,21.5975653 2.52735075,20.7962156 C2.52735075,19.9948659 3.17697302,19.3452436 3.9783227,19.3452436 Z M62.0172006,19.3452436 C62.8185503,19.3452436 63.4681725,19.9948659 63.4681725,20.7962156 C63.4681725,21.5975653 62.8185503,22.2471875 62.0172006,22.2471875 C61.2158509,22.2471875 60.5662286,21.5975653 60.5662286,20.7962156 C60.5662286,19.9948659 61.2158509,19.3452436 62.0172006,19.3452436 Z M27.1938738,19.3452436 C27.9952235,19.3452436 28.6448458,19.9948659 28.6448458,20.7962156 C28.6448458,21.5975653 27.9952235,22.2471875 27.1938738,22.2471875 C26.3925242,22.2471875 25.7429019,21.5975653 25.7429019,20.7962156 C25.7429019,19.9948659 26.3925242,19.3452436 27.1938738,19.3452436 Z M56.2609455,7.73746805 C57.0622952,7.73746805 57.7119175,8.38709032 57.7119175,9.18844 C57.7119175,9.98978968 57.0622952,10.6394119 56.2609455,10.6394119 C55.4595958,10.6394119 54.8099736,9.98978968 54.8099736,9.18844 C54.8099736,8.38709032 55.4595958,7.73746805 56.2609455,7.73746805 Z M33.0453944,7.73746805 C33.846744,7.73746805 34.4963663,8.38709032 34.4963663,9.18844 C34.4963663,9.98978968 33.846744,10.6394119 33.0453944,10.6394119 C32.2440447,10.6394119 31.5944224,9.98978968 31.5944224,9.18844 C31.5944224,8.38709032 32.2440447,7.73746805 33.0453944,7.73746805 Z M67.8687211,7.73746805 C68.6700708,7.73746805 69.319693,8.38709032 69.319693,9.18844 C69.319693,9.98978968 68.6700708,10.6394119 67.8687211,10.6394119 C67.0673714,10.6394119 66.4177491,9.98978968 66.4177491,9.18844 C66.4177491,8.38709032 67.0673714,7.73746805 67.8687211,7.73746805 Z M79.4764967,7.73746805 C80.2778463,7.73746805 80.9274686,8.38709032 80.9274686,9.18844 C80.9274686,9.98978968 80.2778463,10.6394119 79.4764967,10.6394119 C78.675147,10.6394119 78.0255247,9.98978968 78.0255247,9.18844 C78.0255247,8.38709032 78.675147,7.73746805 79.4764967,7.73746805 Z M91.0842722,7.73746805 C91.8856219,7.73746805 92.5352442,8.38709032 92.5352442,9.18844 C92.5352442,9.98978968 91.8856219,10.6394119 91.0842722,10.6394119 C90.2829226,10.6394119 89.6333003,9.98978968 89.6333003,9.18844 C89.6333003,8.38709032 90.2829226,7.73746805 91.0842722,7.73746805 Z M9.8298432,7.73746805 C10.6311929,7.73746805 11.2808151,8.38709032 11.2808151,9.18844 C11.2808151,9.98978968 10.6311929,10.6394119 9.8298432,10.6394119 C9.02849352,10.6394119 8.37887126,9.98978968 8.37887126,9.18844 C8.37887126,8.38709032 9.02849352,7.73746805 9.8298432,7.73746805 Z M44.6531699,7.73746805 C45.4545196,7.73746805 46.1041419,8.38709032 46.1041419,9.18844 C46.1041419,9.98978968 45.4545196,10.6394119 44.6531699,10.6394119 C43.8518203,10.6394119 43.202198,9.98978968 43.202198,9.18844 C43.202198,8.38709032 43.8518203,7.73746805 44.6531699,7.73746805 Z M21.4376188,7.73746805 C22.2389685,7.73746805 22.8885907,8.38709032 22.8885907,9.18844 C22.8885907,9.98978968 22.2389685,10.6394119 21.4376188,10.6394119 C20.6362691,10.6394119 19.9866468,9.98978968 19.9866468,9.18844 C19.9866468,8.38709032 20.6362691,7.73746805 21.4376188,7.73746805 Z" mask="url(#编组-13-e)"/>
    </g>
    <g transform="translate(90.838 .545)">
      <path fill="#FFF" fill-rule="nonzero" d="M9.53389831,7.64714599 L50.5819661,7.64714599 C53.3433899,7.64714599 55.5819661,9.88572224 55.5819661,12.647146 L55.5819661,39.7357036 C55.5819661,42.4971274 53.3433899,44.7357036 50.5819661,44.7357036 L9.53389831,44.7357036 C6.77247456,44.7357036 4.53389831,42.4971274 4.53389831,39.7357036 L4.53389831,12.647146 C4.53389831,9.88572224 6.77247456,7.64714599 9.53389831,7.64714599 Z" transform="rotate(18.2 30.058 26.191)"/>
      <path fill="#FD7F23" fill-rule="nonzero" d="M14.9289611,13.6494455 L19.9967577,13.6494455 C21.1013272,13.6494455 21.9967577,14.544876 21.9967577,15.6494455 L21.9967577,19.8104625 C21.9967577,20.915032 21.1013272,21.8104625 19.9967577,21.8104625 L14.9289611,21.8104625 C13.8243916,21.8104625 12.9289611,20.915032 12.9289611,19.8104625 L12.9289611,15.6494455 C12.9289611,14.544876 13.8243916,13.6494455 14.9289611,13.6494455 Z" opacity=".24" transform="rotate(18.2 17.463 17.73)"/>
      <path fill="#FD7F23" fill-rule="nonzero" d="M10.2650558,25.8909709 L15.3328524,25.8909709 C16.4374219,25.8909709 17.3328524,26.7864014 17.3328524,27.8909709 L17.3328524,32.0519879 C17.3328524,33.1565574 16.4374219,34.0519879 15.3328524,34.0519879 L10.2650558,34.0519879 C9.16048633,34.0519879 8.26505583,33.1565574 8.26505583,32.0519879 L8.26505583,27.8909709 C8.26505583,26.7864014 9.16048633,25.8909709 10.2650558,25.8909709 Z" opacity=".24" transform="rotate(18.2 12.799 29.971)"/>
      <line x1="20.062" x2="40.062" y1="33.651" y2="33.651" stroke="#272683" stroke-linecap="square" stroke-width=".5" transform="rotate(18 30.062 33.651)"/>
      <line x1="18.365" x2="28.365" y1="36.821" y2="36.821" stroke="#272683" stroke-linecap="square" stroke-width=".5" transform="rotate(18 23.365 36.82)"/>
      <line x1="25.31" x2="50.31" y1="21.613" y2="21.613" stroke="#272683" stroke-linecap="square" stroke-width=".5" transform="rotate(18 37.388 21.738)"/>
      <line x1="23.239" x2="33.239" y1="24.719" y2="24.719" stroke="#272683" stroke-linecap="square" stroke-width=".5" transform="rotate(18 28.24 24.719)"/>
      <path fill="#FD7F23" fill-rule="nonzero" d="M16.4943089,2.18718792 L55.4888261,15.0079328 C58.1121015,15.8704219 59.5395008,18.6961923 58.6770117,21.3194677 L58.5393726,21.7380994 L10.0451349,5.79400534 L10.1827741,5.37537358 C11.0452631,2.7520982 13.8710335,1.32469886 16.4943089,2.18718792 Z M22.1453944,6.43594187 C21.6445938,6.43594187 21.2386148,6.84192095 21.2386148,7.34272153 C21.2386148,7.8435221 21.6445938,8.24950119 22.1453944,8.24950119 C22.646195,8.24950119 23.0521741,7.8435221 23.0521741,7.34272153 C23.0521741,6.84192095 22.646195,6.43594187 22.1453944,6.43594187 Z M18.3696391,5.05662539 C17.8688385,5.05662539 17.4628594,5.46260448 17.4628594,5.96340506 C17.4628594,6.46420563 17.8688385,6.87018472 18.3696391,6.87018472 C18.8704396,6.87018472 19.2764187,6.46420563 19.2764187,5.96340506 C19.2764187,5.46260448 18.8704396,5.05662539 18.3696391,5.05662539 Z M14.5938837,3.67730892 C14.0930831,3.67730892 13.687104,4.08328801 13.687104,4.58408858 C13.687104,5.08488916 14.0930831,5.49086825 14.5938837,5.49086825 C15.0946843,5.49086825 15.5006634,5.08488916 15.5006634,4.58408858 C15.5006634,4.08328801 15.0946843,3.67730892 14.5938837,3.67730892 Z"/>
      <path stroke="#272683" stroke-width=".8" d="M4.53389831,23.298821 L4.53389831,12.647146 C4.53389831,9.88572224 6.77247456,7.64714599 9.53389831,7.64714599 L50.5819661,7.64714599 C53.3433899,7.64714599 55.5819661,9.88572224 55.5819661,12.647146 L55.5819661,39.7357036 C55.5819661,42.4971274 53.3433899,44.7357036 50.5819661,44.7357036 L14.5718495,44.7357036 L9.53389831,44.7357036 C8.2224011,44.7357036 7.02883916,44.2307627 6.13701503,43.4046836" transform="rotate(18.2 30.058 26.191)"/>
    </g>
    <g transform="translate(.763 3.718)">
      <path stroke="#0F1358" stroke-width=".8" d="M23.9116949,69.7132203 C23.9116949,69.7132203 21.0444576,81.2946102 20.9320169,81.8568136 C20.3135932,84.8364915 18.4021017,94.8437119 18.2334407,99.9035424"/>
      <path fill="#FFF" stroke="#0F1358" stroke-linecap="square" stroke-width=".8" d="M16.4972881,105.202203 C14.4972881,111.202203 12.9841433,119.091643 15.4972881,120.202203 C18.0104329,121.312764 18.4839692,112.987125 18.4972881,113.202203 C18.5106071,113.417281 17.631867,124.360249 20.4972881,124.202203 C23.3627092,124.044158 22.6793522,114.052253 22.4972881,114.202203 C22.3152241,114.352154 23.4486842,126.999325 26.4972881,126.202203 C29.5458921,125.405081 26.5138119,112.413176 26.4972881,113.202203 C26.4807644,113.99123 29.4972881,124.202203 31.4972881,123.202203 C34.4972881,122.202203 29.4972881,107.202203 29.4972881,107.202203 C29.4972881,107.202203 35.4972881,108.202203 35.4972881,104.202203 C35.1727685,101.595022 26.9398629,102.84467 24.596582,101.353491 C22.2533011,99.8623123 14.3713563,86.228678 13.9453052,85.5896014 C13.6612712,85.1635503 14.2293393,84.5954822 15.6495095,83.8853971 L9.04571793,71.529916 C2.51293484,77.9206821 -0.256397126,82.6072439 0.73772204,85.5896014 C2.22890079,90.0631376 16.4972881,104.776152 16.4972881,105.202203 Z"/>
      <path fill="#C0C3FF" fill-rule="nonzero" stroke="#0F1358" stroke-width=".8" d="M37.9667797,53.9715254 C37.9667797,53.9715254 35.1557627,61.2801695 37.4045763,62.9667797 C39.6533898,64.6533898 44.1510169,60.1557627 44.1510169,60.1557627 C44.1510169,60.1557627 50.3352542,53.9715254 50.8974576,53.9715254 C51.459661,53.9715254 53.7084746,61.2801695 52.0218644,62.9667797 C50.3352542,64.6533898 41.8459831,59.368678 37.9667797,53.9715254 Z"/>
      <path stroke="#0F1358" stroke-width=".8" d="M39.1818644,101.396102 C40.8122542,101.620983 46.0407458,59.1746271 44.4103559,58.9497458"/>
      <path fill="#FFF" fill-rule="nonzero" stroke="#0F1358" stroke-width=".8" d="M94.7178552,34.0065998 C93.9220371,34.3281492 92.8483349,35.0265039 91.9383051,36.5432203 C90.2516949,39.3542373 80.6942373,62.4045763 79.5698305,64.6533898 C78.4454237,66.9022034 73.9477966,69.8818814 73.9477966,69.8818814 L69.4501695,52.8471186 C70.5745763,52.903339 85.0232034,26.4797797 88.0028814,20.8015254 C90.9825593,15.1232712 99.2469492,15.7416949 99.2469492,17.9905085 C99.2469492,20.239322 93.6249153,21.9259322 93.6249153,21.9259322 C95.8737288,26.9857627 93.2313729,30.9211864 87.440678,30.3589831"/>
      <path stroke="#0F1358" stroke-width=".8" d="M54.8328814 0C61.579322 5.6220339 57.6438983 9.55745763 57.6438983 9.55745763 55.7886271 12.930678 50.3352542 13.4928814 50.3352542 11.8062712 50.3352542 10.119661 52.5840678 10.119661 53.1462712 12.3684746 53.3711525 13.2117797 52.6965085 16.0227966 49.8854915 17.3158644 47.0744746 18.6089322 42.7455085 18.3278305 39.9907119 18.7775932 37.2359153 19.2273559 36.8423729 20.239322 36.8423729 20.239322M25.0361017 27.5479661C25.0361017 27.5479661 23.2932712 29.9654407 21.9439831 30.4152034 20.5946949 30.8649661 17.3339153 31.3147288 16.8841525 28.9534746 16.4343898 26.5922203 18.5707627 24.9056102 18.8518644 24.7369492 19.1329661 24.5682881 21.100678 23.6125424 21.100678 25.2991525 21.100678 26.9857627 18.8518644 24.7369492 18.7956441 24.7369492 18.7394237 24.7369492 16.2095085 22.3756949 18.289661 20.8015254 20.3698136 19.2273559 24.4738983 21.9259322 24.4738983 21.9259322M38.5289831 45.5384746C37.8162279 43.5142455 36.224246 41.9222636 34.2000169 41.2095085"/>
      <path stroke="#0F1358" stroke-width=".8" d="M37.5170169 19.564678C43.5888136 18.5527119 50.8974576 16.8661017 50.8974576 16.8661017L63.8281356 26.9857627 59.3305085 30.9211864C59.3305085 30.9211864 62.7037288 37.1054237 61.579322 40.4786441 60.4549153 43.8518644 49.2108475 46.100678 49.2108475 46.100678L49.2108475 56.220339 44.1510169 61.2801695 38.5289831 55.6581356 38.5289831 44.6951695M35.1557627 37.6676271C35.1557627 37.6676271 35.1557627 40.141322 34.0313559 41.4343898 32.9069492 42.7274576 27.734678 48.4057119 21.6628814 38.7920339 18.8518644 33.7322034 23.7430339 29.0659153 26.7227119 29.2345763 28.5209264 29.4185889 30.2524415 30.0149997 31.7825424 30.9774068M28.9715254 33.7322034C26.2167288 32.4953559 23.2932712 39.1293559 26.0480678 40.3662034M30.0959322 38.2298305C27.8471186 38.7920339 25.5983051 35.9247966 26.7227119 34.2944068M52.5840678 35.9810169C52.0218644 39.9164407 56.5194915 41.0408475 57.6438983 37.1054237"/>
      <ellipse cx="50.058" cy="24.907" fill="#000" fill-rule="nonzero" stroke="#272683" rx="1.406" ry="3.654" transform="rotate(-33.6 50.058 24.907)"/>
    </g>
    <path fill="#C0C4FD" d="M72.2748574,54.0062988 L72.8087557,54.0062988 C73.9133252,54.0062988 74.8087557,54.9017293 74.8087557,56.0062988 L74.8087557,72.952909 C74.8087557,74.0574785 73.9133252,74.952909 72.8087557,74.952909 L72.2748574,74.952909 C71.1702879,74.952909 70.2748574,74.0574785 70.2748574,72.952909 L70.2748574,56.0062988 C70.2748574,54.9017293 71.1702879,54.0062988 72.2748574,54.0062988 Z" transform="rotate(-23 72.542 64.48)"/>
    <path fill="#C0C4FD" d="M12.8797236,71.8041764 L13.4136219,71.8041764 C14.5181914,71.8041764 15.4136219,72.6996069 15.4136219,73.8041764 L15.4136219,87.6807419 C15.4136219,88.7853114 14.5181914,89.6807419 13.4136219,89.6807419 L12.8797236,89.6807419 C11.7751541,89.6807419 10.8797236,88.7853114 10.8797236,87.6807419 L10.8797236,73.8041764 C10.8797236,72.6996069 11.7751541,71.8041764 12.8797236,71.8041764 Z" transform="rotate(-25 13.147 80.742)"/>
  </g>
</svg>
