<?xml version="1.0" encoding="UTF-8"?>
<svg width="221px" height="177px" viewBox="0 0 221 177" version="1.1" xmlns="http://www.w3.org/2000/svg" xmlns:xlink="http://www.w3.org/1999/xlink">
    <title>default-空</title>
    <defs>
        <linearGradient x1="50%" y1="0%" x2="50%" y2="100%" id="linearGradient-1">
            <stop stop-color="#838698" offset="0%"></stop>
            <stop stop-color="#FFFFFF" stop-opacity="0.2" offset="100%"></stop>
        </linearGradient>
    </defs>
    <g id="打开项目" stroke="none" stroke-width="1" fill="none" fill-rule="evenodd">
        <g id="个人工作台-空" transform="translate(-551.000000, -899.000000)">
            <g id="编组-4" transform="translate(482.000000, 787.000000)">
                <g id="编组-2" transform="translate(69.000000, 112.000000)">
                    <g id="default-空">
                        <g id="management" transform="translate(0.000000, 20.204082)">
                            <path d="M10.6302521,0 L170.084034,0 C177.170868,0 180.714286,3.53363575 180.714286,10.6009072 L180.714286,122.970522 C180.714286,130.037793 177.170868,133.571429 170.084034,133.571429 L10.6302521,133.571429 C3.54341736,133.571429 0,130.037793 0,122.970522 L0,10.6009072 C0,3.5336359 3.54341736,0 10.6302521,0 Z" id="路径" fill="#DEE0ED"></path>
                            <path d="M70.5583833,8.24514991 L153.262062,8.24514991 C156.089538,8.24514991 157.503277,9.6193416 157.503277,12.367725 L157.503277,12.367725 C157.503277,15.1161082 156.089538,16.4902998 153.262062,16.4902998 L70.5583833,16.4902998 C67.7309071,16.4902998 66.3171691,15.1161082 66.3171691,12.367725 L66.3171691,12.367725 C66.3171691,9.61934175 67.7309071,8.24514991 70.5583833,8.24514991 Z" id="路径" fill="#CFD5F1"></path>
                            <path d="M14.9213629,8.24514991 L14.9213629,8.24514991 C17.6845782,8.24514991 19.0661861,9.6193416 19.0661861,12.367725 L19.0661861,12.367725 C19.0661861,15.1161082 17.6845784,16.4902998 14.9213629,16.4902998 L14.9213629,16.4902998 C12.1581476,16.4902998 10.77654,15.1161082 10.77654,12.367725 L10.77654,12.367725 C10.77654,9.61934175 12.1581476,8.24514991 14.9213629,8.24514991 Z" id="路径" fill="#F9FAFF"></path>
                            <path d="M29.8427262,8.24514991 L29.8427262,8.24514991 C32.6059415,8.24514991 33.9875491,9.6193416 33.9875491,12.367725 L33.9875491,12.367725 C33.9875491,15.1161082 32.6059415,16.4902998 29.8427262,16.4902998 L29.8427262,16.4902998 C27.0795109,16.4902998 25.697903,15.1161082 25.697903,12.367725 L25.697903,12.367725 C25.697903,9.61934175 27.0795107,8.24514991 29.8427262,8.24514991 Z" id="路径" fill="#F9FAFF"></path>
                            <path d="M44.764089,8.24514991 L44.764089,8.24514991 C47.5273043,8.24514991 48.9089122,9.6193416 48.9089122,12.367725 L48.9089122,12.367725 C48.9089122,15.1161082 47.5273045,16.4902998 44.764089,16.4902998 L44.764089,16.4902998 C42.0008737,16.4902998 40.6192661,15.1161082 40.6192661,12.367725 L40.6192661,12.367725 C40.6192661,9.61934175 42.0008737,8.24514991 44.764089,8.24514991 Z" id="路径" fill="#F9FAFF"></path>
                            <path d="M0,25.5599647 L180.714286,25.5599647 L180.714286,122.982069 C180.714286,128.830573 175.955122,133.571429 170.084034,133.571429 L10.6302521,133.571429 C4.75916376,133.571429 0,128.830573 0,122.982069 L0,25.5599647 Z" id="路径" fill="#F2F4FD"></path>
                            <path d="M14.921363,47.4096119 C14.921363,50.7971765 16.7383602,53.9274153 19.6879095,55.6211976 C22.6374588,57.31498 26.2714534,57.31498 29.2210027,55.6211976 C32.170552,53.9274153 33.9875491,50.7971765 33.9875491,47.4096119 C33.9875491,42.1728908 29.719438,37.9276896 24.4544561,37.9276896 C19.1894742,37.9276896 14.921363,42.1728908 14.921363,47.4096119 L14.921363,47.4096119 Z" id="路径" fill="#DEE0ED"></path>
                            <path d="M14.921363,79.5656965 C14.921363,82.9532612 16.7383602,86.0835 19.6879095,87.7772823 C22.6374588,89.4710646 26.2714534,89.4710646 29.2210027,87.7772823 C32.170552,86.0835 33.9875491,82.9532612 33.9875491,79.5656965 C33.9875491,74.3289755 29.719438,70.0837743 24.4544561,70.0837743 C19.1894742,70.0837743 14.921363,74.3289755 14.921363,79.5656965 L14.921363,79.5656965 Z" id="路径" fill="#DEE0ED"></path>
                            <path d="M14.921363,110.897266 C14.921363,114.284831 16.7383602,117.41507 19.6879095,119.108852 C22.6374588,120.802634 26.2714534,120.802634 29.2210027,119.108852 C32.170552,117.41507 33.9875491,114.284831 33.9875491,110.897266 C33.9875491,105.660545 29.719438,101.415344 24.4544561,101.415344 C19.1894742,101.415344 14.921363,105.660545 14.921363,110.897266 L14.921363,110.897266 Z" id="路径" fill="#DEE0ED"></path>
                            <path d="M46.8993012,41.2257496 L113.090869,41.2257496 C114.514344,41.2257496 115.226081,41.9128454 115.226081,43.287037 L115.226081,43.287037 C115.226081,44.6612287 114.514344,45.3483245 113.090869,45.3483245 L46.8993012,45.3483245 C45.4758266,45.3483245 44.7640891,44.6612287 44.7640891,43.287037 L44.7640891,43.287037 C44.7640891,41.9128454 45.4758265,41.2257496 46.8993012,41.2257496 Z" id="路径" fill="#E8EAF4"></path>
                            <path d="M46.8993012,73.3818342 L113.090869,73.3818342 C114.514344,73.3818342 115.226081,74.06893 115.226081,75.4431216 L115.226081,75.4431216 C115.226081,76.8173132 114.514344,77.5044092 113.090869,77.5044092 L46.8993012,77.5044092 C45.4758266,77.5044092 44.7640891,76.8173133 44.7640891,75.4431216 L44.7640891,75.4431216 C44.7640891,74.06893 45.4758265,73.3818342 46.8993012,73.3818342 Z" id="路径" fill="#E8EAF4"></path>
                            <path d="M46.8993012,104.713404 L113.090869,104.713404 C114.514344,104.713404 115.226081,105.4005 115.226081,106.774691 L115.226081,106.774691 C115.226081,108.148883 114.514344,108.835979 113.090869,108.835979 L46.8993012,108.835979 C45.4758266,108.835979 44.7640891,108.148883 44.7640891,106.774691 L44.7640891,106.774691 C44.7640891,105.4005 45.4758265,104.713404 46.8993012,104.713404 Z" id="路径" fill="#E8EAF4"></path>
                            <path d="M46.8701075,49.4708995 L81.6194076,49.4708995 C83.0234197,49.4708995 83.725426,50.1579953 83.725426,51.5321869 L83.725426,51.5321869 C83.725426,52.9063786 83.0234198,53.5934744 81.6194076,53.5934744 L46.8701075,53.5934744 C45.4660954,53.5934744 44.7640891,52.9063786 44.7640891,51.5321869 L44.7640891,51.5321869 C44.7640891,50.1579953 45.4660952,49.4708995 46.8701075,49.4708995 Z" id="路径" fill="#E8EAF4"></path>
                            <path d="M46.8701075,81.6269841 L81.6194076,81.6269841 C83.0234197,81.6269841 83.725426,82.31408 83.725426,83.6882716 L83.725426,83.6882716 C83.725426,85.0624633 83.0234198,85.7495591 81.6194076,85.7495591 L46.8701075,85.7495591 C45.4660954,85.7495591 44.7640891,85.0624633 44.7640891,83.6882716 L44.7640891,83.6882716 C44.7640891,82.31408 45.4660952,81.6269841 46.8701075,81.6269841 Z" id="路径" fill="#E8EAF4"></path>
                            <path d="M46.8701075,112.958554 L81.6194076,112.958554 C83.0234197,112.958554 83.725426,113.64565 83.725426,115.019841 L83.725426,115.019841 C83.725426,116.394033 83.0234198,117.081129 81.6194076,117.081129 L46.8701075,117.081129 C45.4660954,117.081129 44.7640891,116.394033 44.7640891,115.019841 L44.7640891,115.019841 C44.7640891,113.64565 45.4660952,112.958554 46.8701075,112.958554 Z" id="路径" fill="#E8EAF4"></path>
                            <path d="M94.9483317,47.8218695 L118.095574,47.8218695 C119.498437,47.8218695 120.199869,48.5285967 120.199869,49.9420511 L120.199869,60.542958 C120.199869,61.9564122 119.498437,62.6631393 118.095574,62.6631393 L94.9483317,62.6631393 C93.5454685,62.6631393 92.8440367,61.9564122 92.8440367,60.542958 L92.8440367,49.9420511 C92.8440367,48.5285968 93.5454684,47.8218695 94.9483317,47.8218695 L94.9483317,47.8218695 Z" id="路径" fill="#F2F4FD"></path>
                            <path d="M130.561927,48.6463845 L142.996396,48.6463845 C144.378004,48.6463845 145.068807,49.3334803 145.068807,50.707672 L145.068807,50.707672 C145.068807,52.0818636 144.378004,52.7689594 142.996396,52.7689594 L130.561927,52.7689594 C129.180319,52.7689594 128.489515,52.0818636 128.489515,50.707672 L128.489515,50.707672 C128.489515,49.3334803 129.180319,48.6463845 130.561927,48.6463845 Z" id="路径" fill="#F2F4FD"></path>
                            <path d="M154.6019,48.6463845 L167.03637,48.6463845 C168.417977,48.6463845 169.108781,49.3334803 169.108781,50.707672 L169.108781,50.707672 C169.108781,52.0818636 168.417977,52.7689594 167.03637,52.7689594 L154.6019,52.7689594 C153.220293,52.7689594 152.529489,52.0818636 152.529489,50.707672 L152.529489,50.707672 C152.529489,49.3334803 153.220293,48.6463845 154.6019,48.6463845 Z" id="路径" fill="#F2F4FD"></path>
                            <path d="M130.561927,56.8915344 L142.996396,56.8915344 C144.378004,56.8915344 145.068807,57.5786303 145.068807,58.952822 L145.068807,58.952822 C145.068807,60.3270136 144.378004,61.0141093 142.996396,61.0141093 L130.561927,61.0141093 C129.180319,61.0141093 128.489515,60.3270136 128.489515,58.952822 L128.489515,58.952822 C128.489515,57.5786304 129.180319,56.8915344 130.561927,56.8915344 Z" id="路径" fill="#F2F4FD"></path>
                            <path d="M154.6019,56.8915344 L167.03637,56.8915344 C168.417977,56.8915344 169.108781,57.5786303 169.108781,58.952822 L169.108781,58.952822 C169.108781,60.3270136 168.417977,61.0141093 167.03637,61.0141093 L154.6019,61.0141093 C153.220293,61.0141093 152.529489,60.3270136 152.529489,58.952822 L152.529489,58.952822 C152.529489,57.5786304 153.220293,56.8915344 154.6019,56.8915344 Z" id="路径" fill="#F2F4FD"></path>
                        </g>
                        <g id="Group-9" transform="translate(79.693878, 0.000000)">
                            <g id="Group-3" transform="translate(0.000000, 80.117443)">
                                <path d="M21.8361694,14.4003483 L70.3831547,2.12097063 L70.3831547,94.4832459 L22.9975317,72.5964525 C22.2895134,72.2694282 21.8361694,71.5606685 21.8361694,70.7807744 L21.8361694,14.4003483 L21.8361694,14.4003483 Z" id="Rectangle-3" fill="#6776C4"></path>
                                <path d="M71.3958886,14.0185209 L118.433305,2.12097063 L118.433305,2.12097063 L118.433305,94.4832459 L71.0476818,72.5964525 C70.3396635,72.2694282 69.8863195,71.5606685 69.8863195,70.7807744 L69.8863195,15.9574581 C69.8863195,15.0417827 70.5081701,14.2430586 71.3958886,14.0185209 Z" id="Combined-Shape" fill="#8694DF" transform="translate(94.159812, 48.302108) scale(-1, 1) translate(-94.159812, -48.302108) "></path>
                                <path d="M22.884744,14.7808876 L67.2464505,30.8802411 C68.2847593,31.2570549 68.821007,32.4042383 68.4441933,33.4425472 C68.3319867,33.7517321 68.1452572,34.0284711 67.9005465,34.248249 L50.4649039,49.9074299 C49.9181164,50.398507 49.1460445,50.5501332 48.4541472,50.3023199 L2.28898066,33.7675802 C1.24909831,33.3951309 0.708036921,32.2502099 1.08048622,31.2103275 C1.20661614,30.8581715 1.42897765,30.5484454 1.7223128,30.3163309 L20.9614154,15.0925362 C21.505157,14.6622766 22.2329566,14.5443467 22.884744,14.7808876 Z" id="Rectangle-7" fill="#94A2EB"></path>
                                <path d="M93.8746784,14.7808876 L138.236385,30.8802411 C139.274694,31.2570549 139.810941,32.4042383 139.434128,33.4425472 C139.321921,33.7517321 139.135192,34.0284711 138.890481,34.248249 L121.454838,49.9074299 C120.908051,50.398507 120.135979,50.5501332 119.444082,50.3023199 L73.2789151,33.7675802 C72.2390327,33.3951309 71.6979713,32.2502099 72.0704206,31.2103275 C72.1965506,30.8581715 72.4189121,30.5484454 72.7122472,30.3163309 L91.9513498,15.0925362 C92.4950914,14.6622766 93.2228911,14.5443467 93.8746784,14.7808876 Z" id="Rectangle-7" fill="#94A2EB" transform="translate(105.532956, 32.542899) scale(-1, 1) translate(-105.532956, -32.542899) "></path>
                                <path d="M118.259751,0.0243673998 L137.638706,2.12097063 L137.638706,2.12097063 L89.9759451,14.3106467 C89.7440022,14.3699657 89.503293,14.3871588 89.2652738,14.3614076 L79.7557616,13.3325763 C78.7690947,13.2258291 78.0557788,12.3394418 78.162526,11.3527749 C78.2431387,10.60767 78.7777257,9.99084118 79.5038092,9.80514647 L117.54908,0.0751282623 C117.781023,0.0158092158 118.021732,-0.00138383017 118.259751,0.0243673998 Z" id="Rectangle-4" fill="#94A2EB" transform="translate(100.173874, 7.192887) scale(-1, 1) translate(-100.173874, -7.192887) "></path>
                                <path d="M51.0042005,0.0243673998 L70.3831547,2.12097063 L70.3831547,2.12097063 L22.7203942,14.3106467 C22.4884513,14.3699657 22.2477421,14.3871588 22.0097228,14.3614076 L12.5002107,13.3325763 C11.5135438,13.2258291 10.8002279,12.3394418 10.9069751,11.3527749 C10.9875878,10.60767 11.5221748,9.99084118 12.2482583,9.80514647 L50.2935291,0.0751282623 C50.5254721,0.0158092158 50.7661813,-0.00138383017 51.0042005,0.0243673998 Z" id="Rectangle-4" fill="#94A2EB"></path>
                                <path d="M75.3856584,13.3779186 L118.18731,2.66942992 L118.18731,2.66942992 L118.18731,33.100931 L75.1773136,17.1939362 C74.1413275,16.8107828 73.612102,15.6603429 73.9952554,14.6243568 C74.2244172,14.0047394 74.7447751,13.5382603 75.3856584,13.3779186 Z" id="Rectangle-3" fill="#5665B2" transform="translate(93.647075, 17.885180) scale(-1, 1) translate(-93.647075, -17.885180) "></path>
                                <path d="M27.0846682,13.3779186 L69.8863195,2.66942992 L69.8863195,2.66942992 L69.8863195,33.100931 L26.8763234,17.1939362 C25.8403372,16.8107828 25.3111117,15.6603429 25.6942651,14.6243568 C25.923427,14.0047394 26.4437849,13.5382603 27.0846682,13.3779186 Z" id="Rectangle-3" fill="#7181D7"></path>
                                <path d="M69.1747163,34.4025022 C69.116156,34.5742754 69.0344884,34.7372788 68.9319624,34.8870244 L51.6071633,60.1909493 C51.0685866,60.9775733 50.0496631,61.2747147 49.1726763,60.9009014 L23.0885929,49.7826292 C22.3512935,49.4683573 21.8728176,48.7442789 21.8728176,47.9427945 L21.8728176,40.9293195 L48.4907953,50.4637909 C49.1294698,50.6925416 49.8364587,50.5809415 50.3715102,50.1761732 L50.5015521,50.0689008 L67.9371947,34.4097199 C68.1819053,34.189942 68.3686348,33.913203 68.4808414,33.6040181 C68.6628593,33.1024685 68.6318306,32.5755149 68.434079,32.1222569 C69.1416483,32.6200874 69.4680395,33.5421059 69.1747163,34.4025022 Z" id="Combined-Shape" fill="#5665B2"></path>
                                <path d="M117.931576,34.4025022 C117.873016,34.5742754 117.791348,34.7372788 117.688822,34.8870244 L100.364023,60.1909493 C99.8254463,60.9775733 98.8065227,61.2747147 97.929536,60.9009014 L71.8454525,49.7826292 C71.1081531,49.4683573 70.6296772,48.7442789 70.6296772,47.9427945 L70.6296772,40.9291917 L97.247655,50.4637909 C97.8863294,50.6925416 98.5933183,50.5809415 99.1283699,50.1761732 L99.2584117,50.0689008 L116.694054,34.4097199 C116.938765,34.189942 117.125494,33.913203 117.237701,33.6040181 C117.419719,33.1024685 117.38869,32.5755149 117.190939,32.1222569 C117.898508,32.6200874 118.224899,33.5421059 117.931576,34.4025022 Z" id="Combined-Shape" fill="#5665B2" transform="translate(94.264749, 46.511185) scale(-1, 1) translate(-94.264749, -46.511185) "></path>
                            </g>
                            <g id="Group-6" transform="translate(37.965186, 0.000000)">
                                <path d="M35.8721422,112.742588 C27.0686208,106.685599 21.163661,98.8390451 18.1572629,89.2029265 C13.6476657,74.7487486 28.6950813,52.4480169 23.300717,37.993839 C17.9063526,23.5396611 7.48264514,23.7796907 4.50959722,25.1915672 C1.53654929,26.6034437 -3.94631004,33.7514084 4.50959722,45.8403928 C12.9655045,57.9293771 24.0230004,59.5291661 27.6188409,58.2296881 C35.0468121,55.5453408 35.8674664,52.9468773 39.5861278,49.1442049 C45.3069511,43.2941382 46.601434,32.5490838 46.601434,27.6694263 C46.601434,17.2073546 44.2629986,11.012707 39.5861278,9.08548325" id="Line" stroke="url(#linearGradient-1)" stroke-linecap="square"></path>
                                <g id="Group-4" transform="translate(30.537215, 0.000000)">
                                    <ellipse id="Oval" fill="#D7DDFF" cx="2.4759904" cy="9.08548325" rx="2.4759904" ry="2.47785907"></ellipse>
                                    <ellipse id="Oval" fill="#838698" transform="translate(6.602641, 6.194648) rotate(45.000000) translate(-6.602641, -6.194648) " cx="6.60264106" cy="6.19464767" rx="4.12820803" ry="2.88974595"></ellipse>
                                    <circle id="Oval" fill="#838698" transform="translate(3.301321, 3.303812) rotate(45.000000) translate(-3.301321, -3.303812) " cx="3.30132053" cy="3.30381209" r="1.65128327"></circle>
                                    <ellipse id="Oval" fill="#D7DDFF" cx="9.07863145" cy="2.47785907" rx="2.4759904" ry="2.47785907"></ellipse>
                                </g>
                            </g>
                        </g>
                        <path d="M116.734694,140.306122 C117.552981,142.517537 118.128596,143.726328 118.461538,143.932496 C118.794481,144.138664 119.370096,143.836466 120.188383,143.025903 C120.48094,144.630277 120.768748,145.432264 121.051805,145.431862 C121.510418,145.431212 122.165157,143.009018 122.346939,143.025903 C122.487946,143.039 122.960945,145.25583 123.642072,145.431862 C123.982768,145.519912 124.488636,143.933559 125.368917,143.932496 C125.718465,143.932074 125.452102,145.232702 126.232339,145.431862 C126.564639,145.516684 127.140254,145.249355 127.959184,144.629876 L127.959184,163.877551 L116.734694,159.344584 L116.734694,140.306122 Z" id="Rectangle-5" fill="#FFBA1C"></path>
                        <path d="M182.959184,140.306122 L182.959184,158.437991 L171.734694,163.877551 L171.734694,144.629876 C172.553623,145.249355 173.129238,145.516684 173.461538,145.431862 C174.241775,145.232702 173.975413,143.932074 174.324961,143.932496 C175.205242,143.933559 175.711109,145.519912 176.051805,145.431862 C176.732933,145.25583 177.205932,143.039 177.346939,143.025903 C177.528721,143.009018 178.183459,145.431212 178.642072,145.431862 C178.92513,145.432264 179.212937,144.630277 179.505495,143.025903 C180.323782,143.836466 180.899397,144.138664 181.232339,143.932496 C181.565281,143.726328 182.140896,142.517537 182.959184,140.306122 Z" id="Rectangle-5" fill="#FFBA1C"></path>
                    </g>
                </g>
            </g>
        </g>
    </g>
</svg>