<?xml version="1.0" encoding="UTF-8"?>
<svg xmlns="http://www.w3.org/2000/svg" xmlns:xlink="http://www.w3.org/1999/xlink" width="323px" height="335px" viewBox="0 0 323 335" version="1.1">
  <title>插画</title>
  <defs>
    <path d="M76.5669874,2.01083594e-12 C61.7358503,7.83540488 26.1128068,20.3804747 -5.47117907e-13,24.4950505 C3.33107604,26.5002905 5.2547778,38.395042 4.58434597,43.7648262 C32.7201294,39.8177032 71.503002,24.6445386 72.7659406,24.1481637" id="path-1"></path>
    <path d="M-3.05533376e-13,20.8184288 C4.22800161,24.9879518 11.0878896,29.6881243 11.0878896,37.6072001 C16.4865146,39.5374321 42.116161,39.7940359 45.8008802,37.6072001 C53.6841472,21.2534317 49.1061081,8.59250096 43.4156353,-2.0250468e-13" id="path-3"></path>
    <path d="M0.403834419,35.917022 C20.5782133,32.7816864 43.2859296,27.9463634 40.3487579,14.6551914 C38.9020118,8.01721123 18.5318266,6.04586939 -9.73443548e-13,2.91322522e-13" id="path-5"></path>
  </defs>
  <g id="页面-1" stroke="none" stroke-width="1" fill="none" fill-rule="evenodd">
    <g id="登录失效" transform="translate(-522.000000, -90.000000)">
      <g id="插画" transform="translate(522.000000, 90.000000)">
        <g id="圆" transform="translate(0.000000, 116.000000)">
          <ellipse id="椭圆形备份" stroke="#CEDBFF" stroke-width="0.8" fill="#FFFFFF" cx="86.5" cy="65" rx="65.5" ry="65"></ellipse>
          <ellipse id="椭圆形" fill="#CEDBFF" cx="19.5" cy="65" rx="19.5" ry="19"></ellipse>
          <path d="M23.4264234,46.5439861 C27.723665,47.3164116 31.4951492,49.5994975 34.2030326,52.8311829 C36.9480014,56.1071275 38.6,60.3579323 38.6,64.9999293 C38.6,69.6351671 36.9527934,73.8803012 34.2191652,77.1655029 C31.5140063,80.4164907 27.7450026,82.7276636 23.4564917,83.5448806 C21.4753799,77.733528 20.4,71.4941273 20.4,64.9999293 C20.4,58.538521 21.4645473,52.3293435 23.4264234,46.5439861 Z" id="形状结合" stroke="#CEDBFF" stroke-width="0.8" fill="#FFFFFF"></path>
        </g>
        <g id="喇叭" transform="translate(73.000000, 75.000000)">
          <circle id="椭圆形" stroke="#5365EA" fill="#FFFFFF" cx="195.020155" cy="39.7923875" r="3.95903043"></circle>
          <line x1="129.528145" y1="157.678004" x2="223.060353" y2="175.740156" id="直线-10" stroke="#CEDBFF" stroke-linecap="round" stroke-linejoin="round"></line>
          <ellipse id="椭圆形" fill="#CEDBFF" transform="translate(180.497509, 93.958294) rotate(-30.000000) translate(-180.497509, -93.958294) " cx="180.497509" cy="93.9582942" rx="25.0820462" ry="93.9183284"></ellipse>
          <line x1="129.528145" y1="22.2349552" x2="100.544448" y2="106.399155" id="直线-11" stroke="#CEDBFF" stroke-linecap="square"></line>
          <path d="M121.997006,177.414197 L121.997006,241.914197 C121.997006,245.642119 120.485967,249.017119 118.042948,251.460138 C115.599928,253.903158 112.224928,255.414197 108.497006,255.414197 L108.497006,255.414197 L100.824763,255.414197 C97.0968409,255.414197 93.7218409,253.903158 91.2788214,251.460138 C88.8358019,249.017119 87.3247629,245.642119 87.3247629,241.914197 L87.3247629,241.914197 L87.3247629,177.414197 L121.997006,177.414197 Z" id="矩形" stroke="#CEDBFF" fill="#FFFFFF" transform="translate(104.660885, 216.414197) rotate(-30.000000) translate(-104.660885, -216.414197) "></path>
          <path d="M35.7716801,103.093453 L94.2964545,103.093453 L94.2964545,188.651099 C94.2964545,204.81227 81.1952375,217.913487 65.0340673,217.913487 C48.8728971,217.913487 35.7716801,204.81227 35.7716801,188.651099 L35.7716801,103.093453 L35.7716801,103.093453 Z" id="矩形" stroke="#CEDBFF" fill="#FFFFFF" transform="translate(65.034067, 160.503470) rotate(-300.000000) translate(-65.034067, -160.503470) "></path>
          <path d="M45.1844121,108.527896 L103.709186,108.527896 L103.709186,194.597569 C93.8237026,199.272627 83.7699386,201.610157 73.5478945,201.610157 C63.3258503,201.610157 53.8713562,199.272627 45.1844121,194.597569 L45.1844121,108.527896 Z" id="矩形" fill="#CEDBFF" transform="translate(74.446799, 155.069027) rotate(-300.000000) translate(-74.446799, -155.069027) "></path>
          <path d="M232.848938,122.96614 C230.607522,85.8299579 212.31487,55.3660603 190.280587,55.3660603 C168.40096,55.3660603 150.822322,86.8036693 148.37574,123.564042 C157.101472,124.626027 174.1582,125.891223 187.400691,125.865154 C202.294549,125.834965 222.722194,124.659912 232.848938,122.96614 Z" id="路径" stroke="#CEDBFF" fill="#FFFFFF" transform="translate(190.612339, 90.615607) rotate(-300.000000) translate(-190.612339, -90.615607) "></path>
        </g>
        <g id="人" transform="translate(132.500000, 161.000000) rotate(-5.000000) translate(-132.500000, -161.000000) translate(39.000000, 8.000000)">
          <g id="头" transform="translate(56.887966, 46.796120)" fill="#BEC4FE">
            <ellipse id="椭圆形" cx="53.9740194" cy="21.1353903" rx="15" ry="15.375"></ellipse>
            <path d="M53.0947064,25.4937463 C46.4419152,22.3962379 42.5574487,25.8323416 32.8527018,15.7550798 C20.6275306,3.06064744 13.0684422,11.6368046 10.9627906,16.9219346 C10.1361404,18.9968049 7.0385835,32.4137856 33.9877103,50.6660387 C60.9368371,68.9182917 56.3955027,36.5863369 53.0947064,25.4937463 Z" id="椭圆形" transform="translate(33.018245, 32.644105) rotate(-47.000000) translate(-33.018245, -32.644105) "></path>
            <ellipse id="椭圆形" cx="31.4615799" cy="43.1522563" rx="10" ry="6.5"></ellipse>
            <ellipse id="椭圆形备份-5" transform="translate(13.366729, 28.150514) rotate(-193.000000) translate(-13.366729, -28.150514) " cx="13.3667288" cy="28.1505136" rx="11" ry="6.5"></ellipse>
            <ellipse id="椭圆形备份-7" transform="translate(18.884504, 40.005901) rotate(-43.000000) translate(-18.884504, -40.005901) " cx="18.8845039" cy="40.0059008" rx="9" ry="12.5"></ellipse>
            <circle id="椭圆形备份-9" transform="translate(10.636053, 36.287635) rotate(-43.000000) translate(-10.636053, -36.287635) " cx="10.6360532" cy="36.2876355" r="6.5"></circle>
            <ellipse id="椭圆形备份-8" transform="translate(39.202392, 20.836975) rotate(-43.000000) translate(-39.202392, -20.836975) " cx="39.2023919" cy="20.8369747" rx="8" ry="6.5"></ellipse>
          </g>
          <path d="M109.734824,94.97857 C94.9036872,102.813975 59.2806436,115.359045 33.1678368,119.47362 C36.4989129,121.47886 38.4226146,133.373612 37.7521828,138.743396 C65.8879662,134.796273 104.670839,119.623109 105.933777,119.126734" id="左胳膊" stroke="#0F1358" stroke-width="0.5" fill="#6776FF" stroke-linecap="round" stroke-linejoin="round"></path>
          <g id="椭圆形备份-14" transform="translate(33.167837, 94.978570)">
            <mask id="mask-2" fill="white">
              <use xlink:href="#path-1"></use>
            </mask>
            <use id="蒙版" fill="#6776FF" xlink:href="#path-1"></use>
            <circle fill="#F1F3FF" mask="url(#mask-2)" cx="30.502772" cy="17.6619627" r="2"></circle>
            <circle id="椭圆形备份-15" fill="#F1F3FF" mask="url(#mask-2)" cx="45.2217068" cy="33.0031803" r="2"></circle>
            <circle id="椭圆形备份-21" fill="#F1F3FF" mask="url(#mask-2)" cx="56.8663526" cy="9.38271455" r="2.5"></circle>
          </g>
          <circle id="椭圆形" fill="#F1F3FF" cx="56" cy="120" r="2"></circle>
          <circle id="椭圆形备份-18" fill="#F1F3FF" cx="93.6436055" cy="114.25901" r="2"></circle>
          <circle id="椭圆形备份-24" fill="#F1F3FF" cx="104.597942" cy="114.304879" r="1"></circle>
          <circle id="椭圆形备份-23" fill="#F1F3FF" cx="102.746188" cy="102.005725" r="1"></circle>
          <circle id="椭圆形备份-6" fill="#F9FAFF" cx="47.0304424" cy="118.302754" r="1"></circle>
          <circle id="椭圆形备份-13" fill="#F9FAFF" cx="66.4314019" cy="126.023037" r="1"></circle>
          <circle id="椭圆形备份-20" fill="#F9FAFF" cx="39.6213008" cy="122.673637" r="1"></circle>
          <circle id="椭圆形备份-19" fill="#F9FAFF" cx="84.1511135" cy="118.538932" r="1"></circle>
          <circle id="椭圆形备份-22" fill="#F9FAFF" cx="93.8515932" cy="122.399074" r="1"></circle>
          <circle id="椭圆形备份-17" fill="#F9FAFF" cx="72.1096214" cy="118.489258" r="1"></circle>
          <circle id="椭圆形备份-10" fill="#F9FAFF" cx="50.0832478" cy="124.045195" r="1.5"></circle>
          <circle id="椭圆形备份-11" fill="#F9FAFF" cx="45.4883788" cy="130.669935" r="1.5"></circle>
          <circle id="椭圆形备份-12" fill="#F9FAFF" cx="55.711793" cy="128.552908" r="1.5"></circle>
          <circle id="椭圆形备份-16" fill="#F9FAFF" cx="78.2878408" cy="111.455479" r="1.5"></circle>
          <path d="M121.432657,82.2719595 C123.153765,82.6822216 124.775494,82.6826562 126.297845,82.2732631 C132.01668,78.774837 129.92881,68.8892093 125.489605,61.1205648 C123.330554,57.6753627 117.353221,55.8786228 113.674899,59.2523822 C110.011312,63.1034709 112.770602,70.7573693 107.887966,71.027874 C112.250713,76.3794197 114.432087,79.9223171 114.432087,81.6565662 C116.684368,86 112.07314,93.8986516 109.734824,94.97857" id="脸" stroke="#0F1358" stroke-width="0.5" fill="#FFFFFF" stroke-linecap="round" stroke-linejoin="round"></path>
          <path d="M35.043607,139.372756 C36.7004613,139.372756 38.0424702,134.631944 38.0424702,129.109097 C38.0424702,123.586249 36.6993245,119.085338 35.0424702,119.085338 C33.385616,119.085338 32.0424702,123.586249 32.0424702,129.109097 C32.0424702,134.631944 33.3867528,139.372756 35.043607,139.372756 Z" id="椭圆形" fill="#0F1358" transform="translate(35.042470, 129.229047) rotate(-13.000000) translate(-35.042470, -129.229047) "></path>
          <polygon id="路径-5" fill="#6376FF" points="106.003201 119.12831 126.488986 109.561126 110.516097 95.3972821 105.93644 96.9430003"></polygon>
          <g id="左手" transform="translate(8.000000, 117.400000)" stroke="#0F1358" stroke-width="0.5">
            <path d="M26.8858841,4.73913445 C25.0831807,4.73913445 20.4694467,7.32228437 18.2278072,4.03257565 C17.6473609,3.22936462 14.5372148,0.131065532 13.6770484,0.411120381 C13.4525867,0.541546934 11.4195439,0.670532126 15.7685379,7.32228437 C16.7707964,10.1257272 5.29006363,8.50013627 3.29221355,9.31853832 C0.292788226,11.0985841 9.09802412,12.0451419 12.986874,12.0451419 C1.77627951,12.7449045 -1.16334315,15.1587397 2.08814573,15.5607851 C8.14734233,15.7064397 13.62384,14.9872337 13.9013849,14.9872337 C14.1789298,14.9872337 4.01007333,17.3477877 2.95578945,17.9517415 C1.90150557,18.5556953 2.28366562,19.2668377 3.9456658,19.2668377 C5.60766597,19.2668377 11.2691665,19.0489695 12.986874,18.4315687 C12.986874,18.4315687 15.4046239,17.4252376 15.4046239,17.4252376 C15.4046239,17.4252376 12.8936003,18.8653098 10.7591004,19.5304775 C7.66646182,20.494227 4.50149181,21.6168484 6.85763969,22.3336714 C9.02642534,22.8791295 29.2919583,19.5304775 29.7755803,18.4315687 C30.1946488,13.3437707 28.5839776,5.6136641 26.8858841,4.73913445 Z" id="路径-23" fill="#FFFFFF"></path>
            <path d="M15.7782781,9.87073589 C17.8814854,12.7160982 21.2148187,14.3827649 25.7782781,14.8707359" id="路径-24" stroke-linecap="round" stroke-linejoin="round"></path>
            <path d="M12.53774,10.3799634 C13.0436227,14.0096211 14.7102894,17.0096211 17.53774,19.3799634" id="路径-25" stroke-linecap="round" stroke-linejoin="round"></path>
          </g>
          <path d="M109.371748,71.5212141 C108.587034,70.7134078 106.880427,70.0980499 106.009863,72.1036557 C105.288214,75.2763623 109.836041,78.1867983 113.886452,78.1867983 C112.031254,74.1246846 109.918692,72.4233361 109.371748,71.5212141 Z" id="耳朵" fill="#FFFFFF"></path>
          <path d="M107.936309,74.2662225 C109.040964,72.5738899 110.38499,72.7887588 111.849994,74.825499 L111.936309,74.947408 L111.793939,75.1324037 C110.479282,73.2466497 109.163027,73.0473645 108.241292,74.3822503 L108.181373,74.4715301 L107.936309,74.2662225 Z" id="路径-46" fill="#0F1358" fill-rule="nonzero" transform="translate(109.936309, 74.132404) rotate(-349.000000) translate(-109.936309, -74.132404) "></path>
          <circle id="椭圆形" stroke="#5365EA" fill="#FFFFFF" cx="151" cy="20" r="19.5"></circle>
          <g id="编组" transform="translate(136.643034, 9.995760)">
            <path d="M13.8259834,12.9673617 C12.6784154,12.9754434 11.6393429,12.2903854 11.1945764,11.2324817 C10.7498099,10.1745779 10.9872288,8.95285439 11.7958296,8.13851885 C12.6044304,7.32418332 13.8244455,7.07813639 14.8854661,7.51541548 C15.9464866,7.95269458 16.638899,8.98689984 16.638899,10.1344963 C16.638899,11.6912868 15.3827353,12.9563984 13.8259834,12.9673617 L13.8259834,12.9673617 Z M13.8259834,8.30909355 C13.0809745,8.30100593 12.4049976,8.7440994 12.1152059,9.4304844 C11.8254141,10.1168694 11.979315,10.9103372 12.5047015,11.4386105 C13.030088,11.9668837 13.8227006,12.1251299 14.5106632,11.8391036 C15.1986258,11.5530772 15.6454165,10.8795383 15.6414379,10.1344963 C15.6359595,9.13413002 14.8263496,8.32452012 13.8259834,8.31906842 L13.8259834,8.30909355 Z" id="形状" fill="#5365EA" fill-rule="nonzero"></path>
            <path d="M20.0802321,17.1867352 C17.0877686,14.1942717 9.84600695,7.05225889 6.28497541,3.46130271 C6.07550297,3.78049883 5.87600541,4.1096698 5.6964576,4.45879053 C9.267464,7.97992256 15.33219,13.9648495 18.2448545,16.957313 C19.3620408,18.0744994 18.9730206,17.9548008 18.2448545,18.3438211 C16.6788832,19.0587736 14.978855,19.4327798 13.2574153,19.4410577 L13.6165109,19.4410577 C15.8312879,19.6790235 18.0630514,19.1850225 19.9705084,18.0345999 C20.1092599,17.9455354 20.2015768,17.7997228 20.2227374,17.6362092 C20.243898,17.4726956 20.1917404,17.3081862 20.0802321,17.1867352 Z" id="路径" fill="#FFFFFF" fill-rule="nonzero"></path>
            <path d="M18.2448545,16.957313 C15.33219,13.9648495 9.267464,7.97992256 5.6964576,4.44881566 C4.13007862,7.39123046 4.0916836,10.9114126 5.59351108,13.8872927 C7.09533855,16.8631728 9.94995436,18.9233488 13.2474404,19.4111331 C14.9688801,19.4028552 16.6689083,19.028849 18.2348796,18.3138964 C18.9730206,17.9548008 19.3620408,18.024625 18.2448545,16.957313 Z" id="路径" fill="#CCCCFF" fill-rule="nonzero"></path>
            <path d="M14.7137475,19.9996509 C14.3274558,20.0026737 13.9412606,19.9860273 13.5566617,19.9497765 C10.0741911,19.5569746 7.00103013,17.4932431 5.31966931,14.4183577 C3.63830849,11.3434724 3.55931376,7.64251762 5.10793977,4.49869006 C5.32600103,4.04750915 5.7504259,3.73105201 6.2450759,3.65082539 C6.74929784,3.57173697 7.26093347,3.73857468 7.6216091,4.09969492 C11.1826406,7.67070135 16.9780449,13.3962815 19.9106591,16.3288957 C20.2761416,16.6868785 20.4437281,17.2008107 20.3595287,17.7054289 C20.2886382,18.1976567 19.9838443,18.6251116 19.5415886,18.8525399 C18.0450394,19.6096063 16.390888,20.0026381 14.7137475,19.9996509 L14.7137475,19.9996509 Z M6.50442273,4.62836346 L6.40467395,4.62836346 C6.21725686,4.66854488 6.06531185,4.80529539 6.00567881,4.98745908 C4.6238204,7.83425189 4.70706646,11.1741553 6.22903176,13.9485712 C7.75099706,16.7229871 10.5229792,18.5879267 13.6663853,18.9522887 C15.5303894,19.1526622 17.4124119,18.8060651 19.0827442,17.9548008 C19.2421487,17.8741691 19.3533741,17.7221611 19.3819906,17.5458308 C19.4156813,17.3554604 19.3520561,17.1608423 19.2124176,17.0271371 C16.2199542,14.0945229 10.4744243,8.35896793 6.91339273,4.78796152 C6.80393361,4.68215553 6.65661515,4.6246654 6.50442273,4.62836346 L6.50442273,4.62836346 Z M23.1002473,9.92464068 C23.0069359,9.83323358 22.9570056,9.70638941 22.9629719,9.57590309 C22.8758266,4.80471066 18.9770026,0.985817035 14.2050287,0.997507773 C13.9295801,0.997507773 13.7062848,0.774212521 13.7062848,0.498763867 C13.7062848,0.366488756 13.7588309,0.239631287 13.8523635,0.146098656 C13.9458962,0.0525660262 14.0727536,-2.97602392e-05 14.2050287,-2.97602392e-05 C19.5163923,-0.0118703012 23.8570753,4.23560788 23.9604597,9.54597846 C23.9412598,9.81858763 23.7243501,10.0354973 23.4517409,10.0546972 C23.3214053,10.0633524 23.1935587,10.0160478 23.1002473,9.92464068 Z" id="形状" fill="#5365EA" fill-rule="nonzero"></path>
            <path d="M19.4019403,10.0646721 C19.2731575,10.0677492 19.1490127,10.016549 19.0598405,9.9235823 C18.9706683,9.83061556 18.924683,9.70444604 18.9331211,9.57590309 C18.9282516,9.52614756 18.9282516,9.47603545 18.9331211,9.42627992 C18.9544888,8.25988317 18.5074281,7.13359294 17.6919492,6.29936744 C16.8764703,5.46514194 15.7606301,4.99260247 14.594049,4.98745908 L14.2449283,4.98745908 C14.0667442,5.00171381 13.8944906,4.91982567 13.7930536,4.77264112 C13.6916166,4.62545657 13.676407,4.43533646 13.7531541,4.2738972 C13.8299012,4.11245793 13.9869452,4.00422597 14.1651292,3.98997125 L14.2848278,3.98997125 C14.3876674,3.9801475 14.4912093,3.9801475 14.594049,3.98997125 C16.0189464,3.98199343 17.388079,4.54313485 18.3975205,5.54883068 C19.4069619,6.55452651 19.9731892,7.92156371 19.9705084,9.34648088 C19.9757062,9.41953765 19.9757062,9.49287143 19.9705084,9.5659282 C19.9441671,9.85712317 19.6940852,10.0764933 19.4019403,10.0646721 L19.4019403,10.0646721 Z" id="路径" fill="#5365EA" fill-rule="nonzero"></path>
            <path d="M10.2445737,97.835797 L12.0681601,80.2301411 L0.0681600558,79.3433717 C2.68913311,86.9906654 3.61489479,91.4256693 2.84544509,92.6483836 C2.07599539,93.8710978 4.5423716,95.6002356 10.2445737,97.835797 Z" id="路径-6" fill="#6376FF"></path>
          </g>
          <ellipse id="椭圆形备份" fill="#BEC4FE" cx="109.109813" cy="62.2791434" rx="5.86046512" ry="3.76744186"></ellipse>
          <path d="M105.824985,71.2312078 C110.140056,71.843849 111.824985,69.4403468 111.824985,67.2312078 C111.824985,65.0220688 109.138694,63.2312078 105.824985,63.2312078 C102.511277,63.2312078 99.8249855,65.0220688 99.8249855,67.2312078 C99.8249855,69.4403468 101.509915,70.6185666 105.824985,71.2312078 Z" id="椭圆形备份-4" fill="#BEC4FE"></path>
          <ellipse id="椭圆形" fill="#BEC4FE" transform="translate(115.630483, 56.954080) rotate(-9.000000) translate(-115.630483, -56.954080) " cx="115.630483" cy="56.9540796" rx="9.5" ry="5.5"></ellipse>
          <path d="M99.1042395,121.954625 C103.332241,126.124148 110.192129,130.82432 110.192129,138.743396 C115.590754,140.673628 141.2204,140.930232 144.90512,138.743396 C152.788387,122.389628 148.210348,109.728697 142.519875,101.136196" id="路径" stroke="#0F1358" stroke-width="0.5" fill="#6776FF" stroke-linecap="round" stroke-linejoin="round"></path>
          <g id="椭圆形备份-36" transform="translate(99.104239, 101.136196)">
            <mask id="mask-4" fill="white">
              <use xlink:href="#path-3"></use>
            </mask>
            <use id="蒙版" fill="#6776FF" xlink:href="#path-3"></use>
            <circle fill="#F8F9FF" mask="url(#mask-4)" cx="50.0882635" cy="18.4066443" r="3"></circle>
            <circle id="椭圆形备份-33" fill="#F8F9FF" mask="url(#mask-4)" cx="45.3312757" cy="3.9369841" r="2"></circle>
            <circle id="椭圆形备份-29" fill="#F8F9FF" mask="url(#mask-4)" cx="9.75502263" cy="31.9428802" r="1.5"></circle>
            <circle id="椭圆形备份-30" fill="#F8F9FF" mask="url(#mask-4)" cx="19.2811909" cy="37.7954111" r="1.5"></circle>
          </g>
          <circle id="椭圆形" fill="#F8F9FF" cx="114.5" cy="114.5" r="1.5"></circle>
          <circle id="椭圆形备份-25" fill="#F8F9FF" cx="110.727014" cy="123.204285" r="1.5"></circle>
          <circle id="椭圆形备份-26" fill="#F8F9FF" cx="122.893144" cy="133.303062" r="1.5"></circle>
          <circle id="椭圆形备份-35" fill="#F8F9FF" cx="133.851285" cy="134.261775" r="1.5"></circle>
          <circle id="椭圆形备份-13" fill="#F9FAFF" cx="142.789771" cy="136.718808" r="1"></circle>
          <circle id="椭圆形备份-37" fill="#F9FAFF" cx="144.483211" cy="128.836406" r="1"></circle>
          <circle id="椭圆形备份-31" fill="#F8F9FF" cx="139.492023" cy="115.682699" r="1.5"></circle>
          <circle id="椭圆形备份-28" fill="#F1F3FF" cx="127.90033" cy="124.282824" r="1"></circle>
          <circle id="椭圆形备份-34" fill="#F1F3FF" cx="136.953238" cy="124.071031" r="2"></circle>
          <circle id="椭圆形备份-32" fill="#F1F3FF" cx="123.529446" cy="116.873682" r="1"></circle>
          <circle id="椭圆形备份-27" fill="#F8F9FF" cx="117.43891" cy="126.802959" r="1.5"></circle>
          <polygon id="路径-31" fill="#FFFFFF" points="128.104058 107.847015 135.104058 104.08244 135.104058 109.08244"></polygon>
          <path d="M126.297845,82.2732631 C127.205227,86.2356978 128.403324,88.50164 129.892136,89.0710897 C132.268057,90.2083431 136.318306,89.5765357 137.394458,89.5765357" id="路径-3" stroke="#0F1358" stroke-width="0.5"></path>
          <path d="M110.192129,95.0586364 C110.192129,95.0586364 124.887966,110.931393 132.465617,107.701766 C138.19299,105.260736 133.808459,91.1536427 132.465617,89.7515516" id="路径" stroke="#0F1358" stroke-width="0.5" stroke-linecap="round" stroke-linejoin="round"></path>
          <path d="M105.93644,96.9430003 C109.912778,102.830518 125.345604,115.263369 133.808459,112.329093 C142.480006,109.897451 139.019015,92.4391468 137.166831,89.5017529 C137.200539,89.7318026 132.744435,89.7515516 132.744435,89.7515516 C136.279638,99.2571174 136.579699,107.899581 131,108.135336 C124.757901,108.755446 117.159863,101.170666 112.012643,96.7434581 C111.938127,96.6793663 110.572728,95.4658468 110.516097,95.3972821 C109.912778,94.6668186 106.750167,96.5567776 105.93644,96.9430003 Z" id="路径-14" stroke="#0F1358" stroke-width="0.5" fill="#FFFFFF" stroke-linecap="round" stroke-linejoin="round"></path>
          <path d="M146.30337,108.057951 C166.477749,104.922615 189.185465,100.087292 186.248294,86.7961202 C184.801548,80.1581401 164.431362,78.1867983 145.899536,72.1409289" id="路径-21" stroke="#0F1358" stroke-width="0.5" fill="#6776FF" stroke-linecap="round" stroke-linejoin="round"></path>
          <g id="椭圆形备份-48-+-椭圆形备份-43-蒙版" transform="translate(145.899536, 72.140929)">
            <mask id="mask-6" fill="white">
              <use xlink:href="#path-5"></use>
            </mask>
            <use id="蒙版" fill="#6776FF" xlink:href="#path-5"></use>
            <circle id="椭圆形备份-48" fill="#E1E4FF" mask="url(#mask-6)" cx="26.0320575" cy="7.81077942" r="3"></circle>
            <circle id="椭圆形备份-43" fill="#F1F3FF" mask="url(#mask-6)" cx="26.1070205" cy="29.9013743" r="2"></circle>
          </g>
          <circle id="椭圆形备份-38" fill="#F1F3FF" cx="158.234142" cy="98.8297333" r="1"></circle>
          <circle id="椭圆形备份-41" fill="#F1F3FF" cx="156.802169" cy="103.723551" r="1"></circle>
          <circle id="椭圆形备份-51" fill="#F1F3FF" cx="168.893335" cy="91.7317332" r="1"></circle>
          <circle id="椭圆形备份-50" fill="#F1F3FF" cx="155.992478" cy="78.5572164" r="1"></circle>
          <circle id="椭圆形备份-42" fill="#E1E4FF" cx="165.294661" cy="98.4436288" r="2"></circle>
          <circle id="椭圆形备份-47" fill="#E1E4FF" cx="163.439101" cy="85.2316305" r="2"></circle>
          <circle id="椭圆形备份-46" cx="165.170023" cy="88.3945261" r="2"></circle>
          <circle id="椭圆形备份-49" fill="#F1F3FF" cx="155.208076" cy="87.5229687" r="1"></circle>
          <circle id="椭圆形备份-44" fill="#F1F3FF" cx="176.601425" cy="95.4175632" r="1"></circle>
          <circle id="椭圆形备份-45" fill="#DEE1FF" cx="182.018178" cy="90.8723684" r="2"></circle>
          <circle id="椭圆形备份-52" fill="#DEE1FF" cx="176.302477" cy="87.3608499" r="1"></circle>
          <circle id="椭圆形备份-40" fill="#F1F3FF" cx="149.006923" cy="101.033916" r="1"></circle>
          <circle id="椭圆形备份-39" fill="#F1F3FF" cx="142.556494" cy="94.4466574" r="2"></circle>
          <line x1="143.5" y1="94.5" x2="171" y2="94.8362892" id="路径-22" stroke="#0F1358" stroke-width="0.5" stroke-linecap="round"></line>
          <path d="M144.347854,94.8362892 C149.399191,94.8362892 150.90742,86.1206149 151,83.7665787 C151.301169,76.1087032 149.970105,71.5153083 144.347854,71.769485 C138.725604,72.0236616 138.746947,78.1867983 138.347854,83.7665787 C138.394458,91 140.5,94.8362892 144.347854,94.8362892 Z" id="椭圆形" fill="#0F1358"></path>
          <g id="右手" transform="translate(131.000000, 58.000000)">
            <path d="M14.2237649,18.6437016 C16.2704507,18.8281331 17.4358821,19.0111686 17.7200592,19.192808 C19,21.0756356 18.208347,30.3325321 16.5855914,32.5353913 C16.2508992,33 3.82134089,33.4656246 1.69907425,26.3292163 C-0.566358085,19.192808 -0.566358085,10.0735074 1.69907425,12.0033346 C2.16200311,12.5217958 2.65068647,13.4251792 3.16512434,14.7134847" id="路径-15" stroke="#0F1358" stroke-width="0.5" fill="#FFFFFF" stroke-linecap="round" stroke-linejoin="round"></path>
            <path d="M3.09978375,17.5545487 C3.49459338,7.44281519 4.77518173,1.75661331 6.94154881,0.49594307 C7.60434027,0.226685023 7.67956218,1.78784724 7.16721456,5.17942973 L5.64865348,12.6323314 L4.52640741,12.6323314" id="路径-16" stroke="#0F1358" stroke-width="0.5" fill="#FFFFFF" stroke-linecap="round" stroke-linejoin="round"></path>
            <path d="M5.59221844,12.7833178 C6.32089468,7.87894319 7.72905237,-0.227852572 10.0291115,0.00410982856 C10.7085464,0.00410982856 10.7085464,3.91071992 10.3688289,4.8403406 C10.0291115,5.76996128 8.11000454,13.1526042 8.02314109,13.5053466 C7.88884358,13.6149943 6.18008807,12.7833178 5.59221844,12.7833178 Z" id="路径-17" stroke="#0F1358" stroke-width="0.5" fill="#FFFFFF" stroke-linecap="round" stroke-linejoin="round"></path>
            <path d="M7.90435369,13.6911443 C8.60912687,8.93387326 10.4710247,1.41659774 12.9834657,2.23488386 C13.8321387,2.5210088 12.5829235,9.3725421 11.89769,11.6419109 C11.4408677,13.1548234 11.1118722,14.6829137 10.9107035,16.2261817 C9.63690116,14.8972256 8.63478456,14.0522131 7.90435369,13.6911443 Z" id="路径-18" stroke="#0F1358" stroke-width="0.5" fill="#FFFFFF" stroke-linecap="round" stroke-linejoin="round"></path>
            <path d="M10.9107035,16.2261817 C11.4267541,11.9922763 12.5686155,9.21608855 14.3362879,7.89761852 C15.9629096,6.70539618 13.5490074,23.4465787 13.5490074,24.6154814" id="路径-19" stroke="#0F1358" stroke-width="0.5" fill="#FFFFFF" stroke-linecap="round" stroke-linejoin="round"></path>
            <path d="M4.52640741,12.6323314 C7.17460309,12.8837561 9.50575888,14.3229194 11.5198748,16.9498211" id="路径-20" stroke="#0F1358" stroke-width="0.5" stroke-linecap="round" stroke-linejoin="round"></path>
            <path d="M4.0856881,13.038326 C4.27461509,12.8740567 4.84493959,12.9107452 5.79666159,13.1483915 C6.73570899,13.3767606 7.47786882,13.6800407 8.02314109,14.058232 C8.27477192,14.221668 8.69498094,14.4829022 9.0592473,14.7910762 C9.55315201,15.2089261 10.0429808,15.7415995 10.791979,16.5 C11.2738736,16.9879439 12.1709085,17.8480062 13.4830838,19.0801869 L12.9051197,26.3755885 L3.75137568,23.6055837 C3.41631493,19.4133737 3.5277524,15.8909544 4.0856881,13.038326 Z" id="路径-2" fill="#FFFFFF"></path>
          </g>
          <path d="M144.75578,139.129384 C150.429794,175.726517 153.266801,194.330894 153.266801,194.942514 C148.157489,195.749781 143.274102,197.698725 138.179625,197.698725 C131.529713,197.508115 123.952132,195.676884 115.446882,192.205031" id="路径-27" stroke="#0F1358" stroke-width="0.5" fill="#FFFFFF"></path>
          <path d="M110.192129,138.743396 C101.784886,143.793151 91.7170891,156.212019 79.9887373,176 C82.4887373,178.67245 109.61377,194.942514 113.886452,194.942514 C113.886452,194.942514 119.873019,184.210399 131.846151,162.746169" id="路径-26" stroke="#0F1358" stroke-width="0.5" fill="#FFFFFF"></path>
          <path d="M122.105797,194.673413 L127.660228,214.869523 C120.873224,240.082595 115.94522,255.756687 112.876216,261.891799 C111.72343,263.361034 110.764691,264.851894 110,266.364381 C112.253544,275.194663 113.942722,281.247668 115.067536,284.523396 C119.631194,297.813867 124.217278,303.223007 125.333843,305.327781 C127.660228,300.648436 127.660228,298.400536 128.386976,295.480374 C130.023778,283.274843 127.660228,270.331019 128.83745,266.364381 C130.928386,260.948673 141.776078,238.54602 149.996017,216.910205 C150.92448,211.861814 150.337454,199.899093 148.773517,195.924309 C141.243735,198.497948 132.354495,198.080982 122.105797,194.673413 Z" id="路径-30" stroke="#0F1358" stroke-width="0.5" fill="#FFFFFF"></path>
          <path d="M102.576929,292.081755 C126.152852,282.936091 138.45253,277.964353 139.475961,277.166539 C137.993976,276.220385 136.784435,275.460371 136.784435,275.460371 C136.784435,275.460371 111.789682,280.651976 98.168495,290.479634 C100.1375,291.325625 101.606978,291.859665 102.576929,292.081755 Z" id="路径-28" fill="#6459FF" transform="translate(118.822228, 283.771063) rotate(-90.000000) translate(-118.822228, -283.771063) "></path>
          <path d="M110.40449,139.055801 C115.010565,144.369011 122.157786,152.2658 131.846151,162.746169 C139.14207,151.773619 143.44528,143.901358 144.75578,139.129384 C141.934938,140.314227 136.472662,140.507715 130.648646,140.551274 C122.548734,140.611855 113.751142,140.100702 110.40449,139.055801 Z" id="路径-7" fill="#FFFFFF"></path>
          <path d="M105.319145,148.645387 C110.302835,147.586071 112.294644,146.902384 115.930019,141.902723" id="路径" stroke="#0F1358" stroke-width="0.5" transform="translate(110.624582, 145.274055) rotate(12.000000) translate(-110.624582, -145.274055) "></path>
          <path d="M110,193.732153 C110,193.732153 106.046352,205.29254 99.7950131,214.805404 C97.0750776,218.944419 90.7097166,220.270999 86.3195327,219.150537 C68.9851117,210.804174 53.5787944,203.512418 40.1005807,197.275269 C32.1651465,194.417074 13.3615053,199.727186 -5.00222086e-12,194.417074 C10.0436796,185.182684 37.6011426,178.496895 38.8508617,179.029738 C47.0501632,186.145917 69.2896627,189.48893 82.5646082,192.393471 C83.010954,189.258545 83.688689,184.85089 84.5978132,179.170506 C89.1732101,182.325285 92.13871,184.220977 93.494313,184.857581 C103.410888,190.276195 110,193.732153 110,193.732153 Z" id="路径" stroke="#0F1358" stroke-width="0.5" fill="#FFFFFF"></path>
          <path d="M4.91461836,196.124212 C28.4461292,187.040787 40.7236003,182.100167 41.7470317,181.302354 C40.2650465,180.356199 38.9782076,179.407854 38.9782076,179.407854 C38.9782076,179.407854 14.1128075,184.543131 0.491620338,194.370789 C3.44028569,195.539738 4.91461836,196.124212 4.91461836,196.124212 Z" id="路径-28" fill="#6459FF"></path>
          <path d="M84.5978132,179.170506 C82.8027602,189.569685 81.9052337,197.569685 81.9052337,203.170506" id="路径-29" stroke="#0F1358" stroke-width="0.5"></path>
          <polygon id="路径-4" fill="#0F1358" points="99.3776852 121.823285 104.341836 119.412516 102.824272 125.073995 100.098348 122.635728"></polygon>
          <path d="M122.255584,67.5059868 C123.681967,69.7713657 124.345387,71.4380324 124.245844,72.5059868" id="路径-8" stroke="#0F1358" stroke-width="0.5" stroke-linecap="round" stroke-linejoin="round"></path>
          <path d="M124.429595,73.4383409 C125.10675,74.5237682 125.382056,75.7896872 125.255511,77.2360978" id="路径-8" stroke="#0F1358" stroke-width="0.5" stroke-linecap="round" stroke-linejoin="round" transform="translate(124.857497, 75.337219) rotate(-270.000000) translate(-124.857497, -75.337219) "></path>
          <circle id="椭圆形" fill="#0F1358" cx="116.314273" cy="67.7538566" r="1"></circle>
          <circle id="椭圆形备份-3" fill="#0F1358" cx="125.541492" cy="65.5496742" r="1"></circle>
        </g>
        <circle id="椭圆形" stroke="#5365EA" fill="#FFFFFF" cx="254" cy="282" r="14.5"></circle>
        <g id="编组" transform="translate(247.000000, 276.000000)" fill-rule="nonzero">
          <path d="M11.7256908,11.043114 L6.05773757,11.043114 C5.04171418,11.043114 4.21808845,10.2194883 4.21808845,9.20346491 L4.21808845,5.32603801 C4.21808845,4.31001462 5.04171418,3.48638889 6.05773757,3.48638889 L11.7256908,3.48638889 C12.7417142,3.48638889 13.5653399,4.31001462 13.5653399,5.32603801 L13.5653399,9.20346491 C13.5653399,10.2194883 12.7417142,11.043114 11.7256908,11.043114 L11.7256908,11.043114 Z" id="路径" fill="#CCCCFF"></path>
          <path d="M11.7780885,11.760307 L2.20405336,11.760307 C0.99317617,11.760307 0.00744517544,10.774576 0.00744517544,9.56369883 L0.00744517544,2.20100877 C0.00744517544,0.990131579 0.99317617,0.0044005848 2.20405336,0.0044005848 L11.7780885,0.0044005848 C12.9889656,0.0044005848 13.9746966,0.990131579 13.9746966,2.20100877 L13.9746966,4.07176901 C13.9746966,4.29773392 13.7913048,4.48112573 13.5653399,4.48112573 C13.339375,4.48112573 13.1559832,4.29773392 13.1559832,4.07176901 L13.1559832,2.20100877 C13.1559832,1.44124269 12.5378545,0.823114035 11.7780885,0.823114035 L2.20405336,0.823114035 C1.44428728,0.823114035 0.826158626,1.44124269 0.826158626,2.20100877 L0.826158626,9.56451754 C0.826158626,10.3242836 1.44428728,10.9424123 2.20405336,10.9424123 L11.7780885,10.9424123 C12.5378545,10.9424123 13.1559832,10.3242836 13.1559832,9.56451754 L13.1559832,3.78112573 C13.1559832,3.55516082 13.339375,3.37176901 13.5653399,3.37176901 C13.7913048,3.37176901 13.9746966,3.55516082 13.9746966,3.78112573 L13.9746966,9.56451754 C13.9746966,10.7753947 12.9889656,11.760307 11.7780885,11.760307 Z" id="路径" fill="#5365EA"></path>
          <path d="M5.6270943,6.1897807 C6.27387792,5.88931287 6.72417032,5.23352339 6.72417032,4.47375731 C6.72417032,3.43071637 5.87598319,2.58252924 4.83294225,2.58252924 C3.78990132,2.58252924 2.94171418,3.43071637 2.94171418,4.47375731 C2.94171418,5.23270468 3.39200658,5.88849415 4.0387902,6.1897807 C2.89341009,6.53200292 2.05586623,7.5955117 2.05586623,8.85059942 C2.05586623,9.03153509 2.20241594,9.1780848 2.38335161,9.1780848 C2.56428728,9.1780848 2.71083699,9.03153509 2.71083699,8.85059942 C2.71083699,7.68065789 3.66300073,6.72849415 4.83294225,6.72849415 C6.00288377,6.72849415 6.95504751,7.68065789 6.95504751,8.85059942 C6.95504751,9.03153509 7.10159722,9.1780848 7.28253289,9.1780848 C7.46346857,9.1780848 7.61001827,9.03153509 7.61001827,8.85059942 C7.61001827,7.59469298 6.77247442,6.53200292 5.6270943,6.1897807 Z M3.59586623,4.47375731 C3.59586623,3.79176901 4.15013523,3.2375 4.83212354,3.2375 C5.51411184,3.2375 6.06838085,3.79176901 6.06838085,4.47375731 C6.06838085,5.15574561 5.51411184,5.71001462 4.83212354,5.71001462 C4.15095395,5.71001462 3.59586623,5.1549269 3.59586623,4.47375731 Z M11.5545797,4.91504386 L8.65387792,4.91504386 C8.47294225,4.91504386 8.32639254,4.76849415 8.32639254,4.58755848 C8.32639254,4.40662281 8.47294225,4.2600731 8.65387792,4.2600731 L11.5545797,4.2600731 C11.7355154,4.2600731 11.8820651,4.40662281 11.8820651,4.58755848 C11.8820651,4.76849415 11.7355154,4.91504386 11.5545797,4.91504386 Z M9.83528143,7.31305556 L8.65387792,7.31305556 C8.47294225,7.31305556 8.32639254,7.16650585 8.32639254,6.98557018 C8.32639254,6.8046345 8.47294225,6.6580848 8.65387792,6.6580848 L9.83528143,6.6580848 C10.0162171,6.6580848 10.1627668,6.8046345 10.1627668,6.98557018 C10.1627668,7.16650585 10.0162171,7.31305556 9.83528143,7.31305556 Z" id="形状" fill="#5365EA"></path>
        </g>
        <g id="wifi" transform="translate(60.036517, 262.990215) rotate(-30.000000) translate(-60.036517, -262.990215) translate(51.036517, 255.990215)" fill="#5365EA" fill-rule="nonzero">
          <path d="M12.1585323,9.84770014 L11.4830583,10.5705758 C11.445532,10.5290994 11.4080056,10.489598 11.3685042,10.4500966 C10.7266064,9.80819874 9.87337605,9.45466117 8.96681882,9.45466117 C8.06026159,9.45466117 7.20703125,9.80819874 6.56513343,10.4500966 C6.52563202,10.489598 6.48810569,10.5290994 6.45057935,10.5705758 L5.77510534,9.84770014 C6.57500878,8.99841994 7.70869909,8.46910112 8.96681882,8.46910112 C10.2249386,8.46910112 11.3606039,8.99841994 12.1585323,9.84770014 Z M2.88755267,6.75474017 L3.56105162,7.47761587 C3.56500176,7.47366573 3.57092697,7.46774052 3.57487711,7.46181531 C4.27602704,6.76066538 5.09173104,6.21159586 5.99828827,5.82843223 C6.9384217,5.43144312 7.93583216,5.22998596 8.96484375,5.22998596 C9.99385534,5.22998596 10.9932409,5.43144312 11.9313992,5.82843223 C12.8399315,6.21159586 13.6536605,6.76264045 14.3548104,7.46181531 C14.3587605,7.46576545 14.3646857,7.47169066 14.3686359,7.47761587 L15.0421348,6.75474017 C13.4897296,5.2003599 11.3408532,4.24047577 8.96681882,4.24047577 C6.59278441,4.24047577 4.44390801,5.2003599 2.88755267,6.75474017 Z M8.96681882,0.0138254916 C5.4788448,0.0138254916 2.31675737,1.40427493 0.00197507022,3.6617802 L0.675474017,4.3846559 C1.18899228,3.88298806 1.74793715,3.42477177 2.34045822,3.02580758 C2.97445576,2.59721735 3.65190485,2.22985428 4.35305478,1.93359375 C5.81263167,1.31539677 7.36503687,1.00333567 8.96484375,1.00333567 C10.5646506,1.00333567 12.1170558,1.31737184 13.5766327,1.93359375 C14.2777827,2.22985428 14.9552317,2.59721735 15.5892293,3.02580758 C16.1817504,3.42674684 16.7426703,3.88298806 17.2542135,4.3846559 L17.9277124,3.6617802 C15.6168803,1.40625 12.4547928,0.0138254916 8.96681882,0.0138254916 Z M8.96681882,12.2316099 C8.5303283,12.2316099 8.17679073,12.5851475 8.17679073,13.021638 C8.17679073,13.4581285 8.5303283,13.8116661 8.96681882,13.8116661 C9.40330934,13.8116661 9.75684691,13.4581285 9.75684691,13.021638 C9.75684691,12.5851475 9.40330934,12.2316099 8.96681882,12.2316099 Z" id="形状"></path>
        </g>
        <g id="关闭" transform="translate(63.164015, 84.664015)" stroke="#5365EA" stroke-width="0.8">
          <path d="M1.29133021,0.110061901 L8.91249863,9.69620051 C8.96202499,9.75849628 8.95576982,9.84830282 8.89808558,9.90313121 C8.84656391,9.95210212 8.76509857,9.95003432 8.71612765,9.89851265 C8.71351667,9.89576566 8.71102829,9.89290469 8.70866979,9.8899381 L1.08750137,0.303799489 C1.03797501,0.241503719 1.04423018,0.151697177 1.10191442,0.0968687939 C1.15343609,0.0478978795 1.23490143,0.0499656782 1.28387235,0.101487352 C1.28648333,0.104234338 1.28897171,0.107095309 1.29133021,0.110061901 Z" id="矩形"></path>
          <path d="M9.8899381,1.29133021 L0.303799489,8.91249863 C0.241503719,8.96202499 0.151697177,8.95576982 0.0968687939,8.89808558 C0.0478978795,8.84656391 0.0499656782,8.76509857 0.101487352,8.71612765 C0.104234338,8.71351667 0.107095309,8.71102829 0.110061901,8.70866979 L9.69620051,1.08750137 C9.75849628,1.03797501 9.84830282,1.04423018 9.90313121,1.10191442 C9.95210212,1.15343609 9.95003432,1.23490143 9.89851265,1.28387235 C9.89576566,1.28648333 9.89290469,1.28897171 9.8899381,1.29133021 Z" id="矩形"></path>
        </g>
      </g>
    </g>
  </g>
</svg>
