<?xml version="1.0" encoding="UTF-8"?>
<svg width="14px" height="24px" viewBox="0 0 14 24" version="1.1" xmlns="http://www.w3.org/2000/svg" xmlns:xlink="http://www.w3.org/1999/xlink">
    <!-- Generator: Sketch 61.2 (89653) - https://sketch.com -->
    <title>0</title>
    <desc>Created with Sketch.</desc>
    <g id="页面-1" stroke="none" stroke-width="1" fill="none" fill-rule="evenodd">
        <path d="M6.671875,23.1875 C8.44270833,23.1666667 9.94791667,22.59375 11.1875,21.46875 C12.4479167,20.3333333 13.0989583,18.71875 13.140625,16.625 L13.140625,16.625 L13.140625,6.578125 C13.0989583,4.47395833 12.4479167,2.85416667 11.1875,1.71875 C9.94791667,0.59375 8.44270833,0.03125 6.671875,0.03125 C4.953125,0.03125 3.47395833,0.59375 2.234375,1.71875 C0.911458333,2.85416667 0.239583333,4.47395833 0.21875,6.578125 L0.21875,6.578125 L0.21875,16.625 C0.239583333,18.71875 0.911458333,20.3333333 2.234375,21.46875 C3.47395833,22.59375 4.953125,23.1666667 6.671875,23.1875 Z M6.671875,19.921875 C4.58854167,19.9010417 3.52604167,18.7395833 3.484375,16.4375 L3.484375,16.4375 L3.484375,6.78125 C3.52604167,4.5 4.58854167,3.33854167 6.671875,3.296875 C8.74479167,3.33854167 9.8125,4.5 9.875,6.78125 L9.875,6.78125 L9.875,16.4375 C9.8125,18.7395833 8.74479167,19.9010417 6.671875,19.921875 Z" id="0" fill="#3A345F" fill-rule="nonzero"></path>
    </g>
</svg>