<?xml version="1.0" encoding="UTF-8"?>
<svg width="14px" height="23px" viewBox="0 0 14 23" version="1.1" xmlns="http://www.w3.org/2000/svg" xmlns:xlink="http://www.w3.org/1999/xlink">
    <!-- Generator: Sketch 61.2 (89653) - https://sketch.com -->
    <title>2</title>
    <desc>Created with Sketch.</desc>
    <g id="页面-1" stroke="none" stroke-width="1" fill="none" fill-rule="evenodd">
        <path d="M13.015625,23 L13.015625,19.734375 L4.3125,19.734375 L11.640625,10.546875 C12.5572917,9.38020833 13.015625,8.046875 13.015625,6.546875 C12.9947917,4.671875 12.3645833,3.125 11.125,1.90625 C9.90625,0.677083333 8.31770833,0.0520833333 6.359375,0.03125 C4.609375,0.0520833333 3.13541667,0.666666667 1.9375,1.875 C0.75,3.11458333 0.114583333,4.68229167 0.03125,6.578125 L0.03125,6.578125 L3.28125,6.578125 C3.39583333,5.53645833 3.76041667,4.72916667 4.375,4.15625 C4.96875,3.58333333 5.71354167,3.296875 6.609375,3.296875 C7.61979167,3.31770833 8.40104167,3.64583333 8.953125,4.28125 C9.484375,4.91666667 9.75,5.66145833 9.75,6.515625 C9.75,6.83854167 9.70833333,7.18229167 9.625,7.546875 C9.5,7.93229167 9.265625,8.34895833 8.921875,8.796875 L8.921875,8.796875 L0.03125,19.921875 L0.03125,23 L13.015625,23 Z" id="2" fill="#3A345F" fill-rule="nonzero"></path>
    </g>
</svg>