<?xml version="1.0" encoding="UTF-8"?>
<svg width="14px" height="24px" viewBox="0 0 14 24" version="1.1" xmlns="http://www.w3.org/2000/svg" xmlns:xlink="http://www.w3.org/1999/xlink">
    <!-- Generator: Sketch 61.2 (89653) - https://sketch.com -->
    <title>3</title>
    <desc>Created with Sketch.</desc>
    <g id="页面-1" stroke="none" stroke-width="1" fill="none" fill-rule="evenodd">
        <path d="M6.875,23.1875 C8.88541667,23.1666667 10.53125,22.5260417 11.8125,21.265625 C13.1145833,20.0364583 13.7760417,18.3541667 13.796875,16.21875 C13.796875,15.2604167 13.59375,14.34375 13.1875,13.46875 C12.7604167,12.59375 12.0677083,11.84375 11.109375,11.21875 C12.046875,10.5833333 12.6979167,9.859375 13.0625,9.046875 C13.375,8.234375 13.53125,7.390625 13.53125,6.515625 C13.5104167,4.78645833 12.9166667,3.28645833 11.75,2.015625 C10.53125,0.713541667 8.88541667,0.0520833333 6.8125,0.03125 C5.17708333,0.0520833333 3.77083333,0.635416667 2.59375,1.78125 C1.39583333,2.9375 0.713541667,4.359375 0.546875,6.046875 L0.546875,6.046875 L3.8125,6.046875 C4.02083333,5.109375 4.42708333,4.41666667 5.03125,3.96875 C5.60416667,3.52083333 6.23958333,3.296875 6.9375,3.296875 C7.90625,3.31770833 8.69791667,3.625 9.3125,4.21875 C9.92708333,4.83333333 10.2447917,5.61979167 10.265625,6.578125 C10.265625,7.52604167 9.95833333,8.296875 9.34375,8.890625 C8.72916667,9.50520833 7.86458333,9.8125 6.75,9.8125 L6.75,9.8125 L5.625,9.8125 L5.625,12.703125 L7,12.703125 C8.01041667,12.703125 8.84375,13.0104167 9.5,13.625 C10.1666667,14.2604167 10.5104167,15.15625 10.53125,16.3125 C10.5104167,17.4479167 10.1666667,18.3229167 9.5,18.9375 C8.84375,19.59375 8.03645833,19.921875 7.078125,19.921875 C6.18229167,19.921875 5.46354167,19.6770833 4.921875,19.1875 C4.390625,18.71875 3.97916667,18.1041667 3.6875,17.34375 L3.6875,17.34375 L0.421875,17.34375 C0.776041667,19.2395833 1.55208333,20.6875 2.75,21.6875 C3.94791667,22.6875 5.32291667,23.1875 6.875,23.1875 Z" id="3" fill="#3A345F" fill-rule="nonzero"></path>
    </g>
</svg>