<?xml version="1.0" encoding="UTF-8"?>
<svg width="14px" height="24px" viewBox="0 0 14 24" version="1.1" xmlns="http://www.w3.org/2000/svg" xmlns:xlink="http://www.w3.org/1999/xlink">
    <!-- Generator: Sketch 61.2 (89653) - https://sketch.com -->
    <title>5</title>
    <desc>Created with Sketch.</desc>
    <g id="页面-1" stroke="none" stroke-width="1" fill="none" fill-rule="evenodd">
        <path d="M6.84375,23.1875 C7.98958333,23.1666667 8.97916667,22.9010417 9.8125,22.390625 C10.6666667,21.9010417 11.3177083,21.359375 11.765625,20.765625 C12.2760417,20.1614583 12.640625,19.46875 12.859375,18.6875 C13.0677083,17.8958333 13.171875,16.7604167 13.171875,15.28125 C13.171875,14.3229167 13.140625,13.515625 13.078125,12.859375 C13.015625,12.2135417 12.9114583,11.6666667 12.765625,11.21875 C12.484375,10.3958333 12.0260417,9.671875 11.390625,9.046875 C10.9635417,8.578125 10.40625,8.18229167 9.71875,7.859375 C8.98958333,7.56770833 8.1875,7.41145833 7.3125,7.390625 C5.94791667,7.390625 4.734375,7.80729167 3.671875,8.640625 L3.671875,8.640625 L3.671875,3.484375 L12.734375,3.484375 L12.734375,0.21875 L0.59375,0.21875 L0.59375,12.53125 L3.671875,12.53125 C4.05729167,11.8333333 4.49479167,11.34375 4.984375,11.0625 C5.47395833,10.7916667 6.015625,10.65625 6.609375,10.65625 C7.27604167,10.65625 7.83333333,10.75 8.28125,10.9375 C8.72916667,11.1666667 9.06770833,11.4739583 9.296875,11.859375 C9.72395833,12.671875 9.92708333,13.7291667 9.90625,15.03125 C9.90625,15.5625 9.89583333,16.109375 9.875,16.671875 C9.83333333,17.2447917 9.71875,17.7760417 9.53125,18.265625 C9.35416667,18.7552083 9.04166667,19.1510417 8.59375,19.453125 C8.125,19.765625 7.5,19.921875 6.71875,19.921875 C4.89583333,19.9010417 3.80729167,19.015625 3.453125,17.265625 L3.453125,17.265625 L0.1875,17.265625 C0.5,19.359375 1.30729167,20.875 2.609375,21.8125 C3.890625,22.7291667 5.30208333,23.1875 6.84375,23.1875 Z" id="5" fill="#3A345F" fill-rule="nonzero"></path>
    </g>
</svg>