<?xml version="1.0" encoding="UTF-8"?>
<svg width="14px" height="25px" viewBox="0 0 14 25" version="1.1" xmlns="http://www.w3.org/2000/svg" xmlns:xlink="http://www.w3.org/1999/xlink">
    <!-- Generator: Sketch 61.2 (89653) - https://sketch.com -->
    <title>6</title>
    <desc>Created with Sketch.</desc>
    <g id="页面-1" stroke="none" stroke-width="1" fill="none" fill-rule="evenodd">
        <path d="M4.71875,23.984375 C5.44791667,24.1927083 6.28645833,24.2552083 7.234375,24.171875 C8.140625,24.0989583 8.921875,23.90625 9.578125,23.59375 C10.234375,23.28125 10.7916667,22.9088542 11.25,22.4765625 C11.7083333,22.0442708 12.078125,21.5859375 12.359375,21.1015625 C12.640625,20.6171875 12.8567708,20.1640625 13.0078125,19.7421875 C13.1588542,19.3203125 13.2630208,18.9557292 13.3203125,18.6484375 C13.3776042,18.3411458 13.4114583,18.1510417 13.421875,18.078125 C13.4322917,17.9322917 13.4401042,17.7552083 13.4453125,17.546875 C13.4505208,17.3385417 13.453125,17.1328125 13.453125,16.9296875 L13.453125,16.9296875 L13.453125,16.03125 C13.453125,15.8333333 13.4244792,15.5598958 13.3671875,15.2109375 C13.3098958,14.8619792 13.2083333,14.4869792 13.0625,14.0859375 C12.9166667,13.6848958 12.7161458,13.2734375 12.4609375,12.8515625 C12.2057292,12.4296875 11.8854167,12.046875 11.5,11.703125 C11.1145833,11.359375 10.6536458,11.0729167 10.1171875,10.84375 C9.58072917,10.6145833 8.953125,10.4895833 8.234375,10.46875 C7.734375,10.4479167 7.29427083,10.4557292 6.9140625,10.4921875 C6.53385417,10.5286458 6.19270833,10.6354167 5.890625,10.8125 C6.03645833,10.5625 6.21875,10.2291667 6.4375,9.8125 C6.65625,9.39583333 6.8984375,8.93229167 7.1640625,8.421875 C7.4296875,7.91145833 7.70572917,7.375 7.9921875,6.8125 C8.27864583,6.25 8.55989583,5.69270833 8.8359375,5.140625 C9.11197917,4.58854167 9.375,4.0625 9.625,3.5625 C9.875,3.0625 10.09375,2.61979167 10.28125,2.234375 C10.46875,1.84895833 10.6171875,1.54427083 10.7265625,1.3203125 C10.8359375,1.09635417 10.8854167,0.984375 10.875,0.984375 L10.875,0.984375 L7.1875,0.984375 C6.17708333,3.015625 5.265625,4.85416667 4.453125,6.5 C4.109375,7.20833333 3.765625,7.90625 3.421875,8.59375 C3.078125,9.28125 2.76822917,9.91145833 2.4921875,10.484375 C2.21614583,11.0572917 1.984375,11.5390625 1.796875,11.9296875 C1.609375,12.3203125 1.49479167,12.5677083 1.453125,12.671875 C1.28645833,13.0885417 1.140625,13.4739583 1.015625,13.828125 C0.890625,14.1822917 0.778645833,14.5416667 0.6796875,14.90625 C0.580729167,15.2708333 0.494791667,15.6536458 0.421875,16.0546875 C0.348958333,16.4557292 0.28125,16.9114583 0.21875,17.421875 C0.177083333,17.765625 0.190104167,18.1822917 0.2578125,18.671875 C0.325520833,19.1614583 0.4609375,19.671875 0.6640625,20.203125 C0.8671875,20.734375 1.14583333,21.2526042 1.5,21.7578125 C1.85416667,22.2630208 2.296875,22.7083333 2.828125,23.09375 C3.359375,23.4791667 3.98958333,23.7760417 4.71875,23.984375 Z M6.90625,20.828125 C6.32291667,20.828125 5.8359375,20.7552083 5.4453125,20.609375 C5.0546875,20.4635417 4.734375,20.2760417 4.484375,20.046875 C4.234375,19.8177083 4.04166667,19.5546875 3.90625,19.2578125 C3.77083333,18.9609375 3.67447917,18.6536458 3.6171875,18.3359375 C3.55989583,18.0182292 3.52604167,17.7005208 3.515625,17.3828125 C3.50520833,17.0651042 3.5,16.7760417 3.5,16.515625 C3.5,16.4010417 3.52604167,16.2369792 3.578125,16.0234375 C3.63020833,15.8098958 3.71614583,15.578125 3.8359375,15.328125 C3.95572917,15.078125 4.10677083,14.8255208 4.2890625,14.5703125 C4.47135417,14.3151042 4.6875,14.0885417 4.9375,13.890625 C5.1875,13.6927083 5.47395833,13.5364583 5.796875,13.421875 C6.11979167,13.3072917 6.47916667,13.265625 6.875,13.296875 C7.71875,13.359375 8.36979167,13.546875 8.828125,13.859375 C9.28645833,14.171875 9.6171875,14.5442708 9.8203125,14.9765625 C10.0234375,15.4088542 10.140625,15.8645833 10.171875,16.34375 C10.203125,16.8229167 10.21875,17.2604167 10.21875,17.65625 C10.21875,17.75 10.203125,17.8932292 10.171875,18.0859375 C10.140625,18.2786458 10.0807292,18.4947917 9.9921875,18.734375 C9.90364583,18.9739583 9.78125,19.21875 9.625,19.46875 C9.46875,19.71875 9.26822917,19.9453125 9.0234375,20.1484375 C8.77864583,20.3515625 8.48177083,20.5182292 8.1328125,20.6484375 C7.78385417,20.7786458 7.375,20.8385417 6.90625,20.828125 Z" id="6" fill="#3A345F" fill-rule="nonzero"></path>
    </g>
</svg>