<?xml version="1.0" encoding="UTF-8"?>
<svg width="15px" height="24px" viewBox="0 0 15 24" version="1.1" xmlns="http://www.w3.org/2000/svg" xmlns:xlink="http://www.w3.org/1999/xlink">
    <!-- Generator: Sketch 61.2 (89653) - https://sketch.com -->
    <title>8</title>
    <desc>Created with Sketch.</desc>
    <g id="页面-1" stroke="none" stroke-width="1" fill="none" fill-rule="evenodd">
        <path d="M7.671875,23.1875 C9.61979167,23.1666667 11.265625,22.5260417 12.609375,21.265625 C13.9322917,20.0364583 14.6041667,18.3958333 14.625,16.34375 C14.6041667,14.1458333 13.7083333,12.4375 11.9375,11.21875 C12.6145833,10.625 13.1666667,9.94270833 13.59375,9.171875 C14,8.453125 14.203125,7.59895833 14.203125,6.609375 C14.1822917,4.71354167 13.5625,3.14583333 12.34375,1.90625 C11.1354167,0.677083333 9.578125,0.0520833333 7.671875,0.03125 C5.796875,0.0520833333 4.265625,0.677083333 3.078125,1.90625 C1.81770833,3.14583333 1.17708333,4.71354167 1.15625,6.609375 C1.15625,7.59895833 1.38020833,8.453125 1.828125,9.171875 C2.21354167,9.94270833 2.74479167,10.625 3.421875,11.21875 C1.65104167,12.4375 0.755208333,14.1458333 0.734375,16.34375 C0.755208333,18.3958333 1.44791667,20.0364583 2.8125,21.265625 C4.11458333,22.5260417 5.734375,23.1666667 7.671875,23.1875 Z M7.671875,9.8125 C6.828125,9.8125 6.08333333,9.52604167 5.4375,8.953125 C4.78125,8.40104167 4.44270833,7.59895833 4.421875,6.546875 C4.44270833,5.46354167 4.78125,4.64583333 5.4375,4.09375 C6.08333333,3.5625 6.828125,3.296875 7.671875,3.296875 C8.546875,3.296875 9.30729167,3.5625 9.953125,4.09375 C10.5885417,4.64583333 10.9166667,5.46354167 10.9375,6.546875 C10.9166667,7.59895833 10.5885417,8.40104167 9.953125,8.953125 C9.30729167,9.52604167 8.546875,9.8125 7.671875,9.8125 Z M7.671875,19.921875 C6.671875,19.921875 5.82291667,19.5729167 5.125,18.875 C4.39583333,18.2083333 4.02083333,17.3541667 4,16.3125 C4.02083333,15.25 4.39583333,14.3854167 5.125,13.71875 C5.82291667,13.0625 6.671875,12.7239583 7.671875,12.703125 C8.703125,12.7239583 9.56770833,13.0625 10.265625,13.71875 C10.9739583,14.3854167 11.3385417,15.25 11.359375,16.3125 C11.3385417,17.3541667 10.9739583,18.2083333 10.265625,18.875 C9.56770833,19.5729167 8.703125,19.921875 7.671875,19.921875 Z" id="8" fill="#3A345F" fill-rule="nonzero"></path>
    </g>
</svg>