<?xml version="1.0" encoding="UTF-8"?>
<svg width="14px" height="23px" viewBox="0 0 14 23" version="1.1" xmlns="http://www.w3.org/2000/svg" xmlns:xlink="http://www.w3.org/1999/xlink">
    <!-- Generator: Sketch 61.2 (89653) - https://sketch.com -->
    <title>9</title>
    <desc>Created with Sketch.</desc>
    <g id="页面-1" stroke="none" stroke-width="1" fill="none" fill-rule="evenodd">
        <path d="M7.109375,23 C8.09895833,21 8.99479167,19.1875 9.796875,17.5625 C10.140625,16.875 10.4765625,16.1901042 10.8046875,15.5078125 C11.1328125,14.8255208 11.4348958,14.2057292 11.7109375,13.6484375 C11.9869792,13.0911458 12.2161458,12.6197917 12.3984375,12.234375 C12.5807292,11.8489583 12.6927083,11.5989583 12.734375,11.484375 C12.9010417,11.0677083 13.046875,10.6822917 13.171875,10.328125 C13.296875,9.97395833 13.4088542,9.61458333 13.5078125,9.25 C13.6067708,8.88541667 13.6927083,8.50260417 13.765625,8.1015625 C13.8385417,7.70052083 13.90625,7.24479167 13.96875,6.734375 C14.0104167,6.390625 14,5.9765625 13.9375,5.4921875 C13.875,5.0078125 13.7473958,4.5078125 13.5546875,3.9921875 C13.3619792,3.4765625 13.09375,2.96875 12.75,2.46875 C12.40625,1.96875 11.9739583,1.53125 11.453125,1.15625 C10.9322917,0.78125 10.3098958,0.494791667 9.5859375,0.296875 C8.86197917,0.0989583333 8.02604167,0.0416666667 7.078125,0.125 C6.171875,0.208333333 5.38802083,0.401041667 4.7265625,0.703125 C4.06510417,1.00520833 3.5078125,1.36458333 3.0546875,1.78125 C2.6015625,2.19791667 2.234375,2.64322917 1.953125,3.1171875 C1.671875,3.59114583 1.453125,4.03645833 1.296875,4.453125 C1.140625,4.86979167 1.03385417,5.2265625 0.9765625,5.5234375 C0.919270833,5.8203125 0.885416667,6.00520833 0.875,6.078125 C0.854166667,6.22395833 0.841145833,6.40104167 0.8359375,6.609375 C0.830729167,6.81770833 0.828125,7.0234375 0.828125,7.2265625 C0.828125,7.4296875 0.830729167,7.61458333 0.8359375,7.78125 C0.841145833,7.94791667 0.84375,8.0625 0.84375,8.125 C0.84375,8.32291667 0.877604167,8.59635417 0.9453125,8.9453125 C1.01302083,9.29427083 1.12239583,9.66927083 1.2734375,10.0703125 C1.42447917,10.4713542 1.625,10.8828125 1.875,11.3046875 C2.125,11.7265625 2.4375,12.109375 2.8125,12.453125 C3.1875,12.796875 3.6328125,13.0833333 4.1484375,13.3125 C4.6640625,13.5416667 5.265625,13.6666667 5.953125,13.6875 C6.453125,13.7083333 6.89322917,13.7005208 7.2734375,13.6640625 C7.65364583,13.6276042 7.99479167,13.5208333 8.296875,13.34375 C8.09895833,13.6875 7.84114583,14.1614583 7.5234375,14.765625 C7.20572917,15.3697917 6.86458333,16.03125 6.5,16.75 C6.13541667,17.46875 5.765625,18.1979167 5.390625,18.9375 C5.015625,19.6770833 4.67708333,20.3489583 4.375,20.953125 C4.07291667,21.5572917 3.828125,22.0494792 3.640625,22.4296875 C3.453125,22.8098958 3.36458333,23 3.375,23 L3.375,23 L7.109375,23 Z M7.545625,10.8634375 L7.3125,10.859375 C6.52083333,10.8177083 5.90625,10.6432292 5.46875,10.3359375 C5.03125,10.0286458 4.7109375,9.65885417 4.5078125,9.2265625 C4.3046875,8.79427083 4.18229167,8.33333333 4.140625,7.84375 C4.09895833,7.35416667 4.078125,6.90625 4.078125,6.5 C4.078125,6.375 4.125,6.14583333 4.21875,5.8125 C4.3125,5.47916667 4.47916667,5.13541667 4.71875,4.78125 C4.95833333,4.42708333 5.28385417,4.10416667 5.6953125,3.8125 C6.10677083,3.52083333 6.63541667,3.359375 7.28125,3.328125 C7.86458333,3.296875 8.3515625,3.34635417 8.7421875,3.4765625 C9.1328125,3.60677083 9.453125,3.78645833 9.703125,4.015625 C9.953125,4.24479167 10.1458333,4.51302083 10.28125,4.8203125 C10.4166667,5.12760417 10.5130208,5.44791667 10.5703125,5.78125 C10.6276042,6.11458333 10.6588542,6.44270833 10.6640625,6.765625 C10.6692708,7.08854167 10.6770833,7.38020833 10.6875,7.640625 C10.6875,7.765625 10.6614583,7.93229167 10.609375,8.140625 C10.5572917,8.34895833 10.4713542,8.57552083 10.3515625,8.8203125 C10.2317708,9.06510417 10.0807292,9.3125 9.8984375,9.5625 C9.71614583,9.8125 9.5,10.0364583 9.25,10.234375 C9,10.4322917 8.71354167,10.5911458 8.390625,10.7109375 C8.06770833,10.8307292 7.70833333,10.8802083 7.3125,10.859375 L7.545625,10.8634375 Z" id="9" fill="#3A345F" fill-rule="nonzero"></path>
    </g>
</svg>