<?xml version="1.0" encoding="UTF-8"?>
<svg width="30px" height="32px" viewBox="0 0 30 32" version="1.1" xmlns="http://www.w3.org/2000/svg" xmlns:xlink="http://www.w3.org/1999/xlink">
    <title>编组 8</title>
    <g id="页面-1" stroke="none" stroke-width="1" fill="none" fill-rule="evenodd" fill-opacity="0.86">
        <g id="新主题-菜单" transform="translate(-12.000000, -305.000000)" fill="#FFFFFF">
            <g id="左侧模块菜单" transform="translate(-1.000000, 50.000000)">
                <g id="编组" transform="translate(13.000000, 255.671053)">
                    <g id="1" transform="translate(7.000000, 6.127193)">
                        <path d="M14.2222222,11.9807789 L11.9662222,10.7107789 L11.9662222,11.2259088 L11.6462222,11.4148491 L13.7173333,12.5796842 L14.2222222,12.3078596 L14.2222222,11.9807789 Z M4.03377778,11.2259088 L4.03377778,10.6947368 L1.77777778,11.9629544 L1.77777778,12.3069684 L2.26844444,12.5654246 L4.34222222,11.3979158 L4.03377778,11.2259088 Z M7.98488889,4.37860351 L8.37777778,4.5942807 L8.37777778,2.48028772 L8.00711111,2.28154386 L7.592,2.50435088 L7.592,4.59606316 L7.98488889,4.37860351 Z" id="形状" opacity="0.5"></path>
                        <path d="M8.00711111,0 L0,4.45614035 L0,13.3684211 L8.00711111,17.8245614 L16,13.3684211 L16,4.45614035 L8.00711111,0 Z M8.00711111,15.6499649 L2.26844444,12.5716632 L1.77777778,12.3078596 L1.77777778,5.62364912 L7.59111111,2.50435088 L8.00711111,2.28154386 L8.37777778,2.48028772 L14.2222222,5.62364912 L14.2222222,12.3078596 L13.7155556,12.5796842 L8.00711111,15.6499649 L8.00711111,15.6499649 Z" id="形状"></path>
                        <polygon id="路径" points="8.37777778 4.5942807 7.98488889 4.37860351 7.592 4.59606316 4.57866667 6.27157193 8.02755556 8.16721404 11.4408889 6.27246316"></polygon>
                        <polygon id="路径" opacity="0.8" points="4.03377778 7.1342807 4.03377778 11.2250175 4.34222222 11.4032632 7.34844444 13.1393754 7.34844444 9.0486386"></polygon>
                        <polygon id="路径" opacity="0.6" points="8.71466667 9.04596491 8.71466667 13.1393754 11.6462222 11.4148491 11.9662222 11.2259088 11.9662222 7.13517193"></polygon>
                    </g>
                </g>
            </g>
        </g>
    </g>
</svg>