<?xml version="1.0" encoding="UTF-8"?>
<svg width="30px" height="26px" viewBox="0 0 30 26" version="1.1" xmlns="http://www.w3.org/2000/svg" xmlns:xlink="http://www.w3.org/1999/xlink">
    <title>编组 7</title>
    <g id="页面-1" stroke="none" stroke-width="1" fill="none" fill-rule="evenodd" fill-opacity="0.86">
        <g id="新主题-菜单" transform="translate(-12.000000, -229.000000)" fill="#FFFFFF" fill-rule="nonzero">
            <g id="左侧模块菜单" transform="translate(-1.000000, 50.000000)">
                <g id="编组" transform="translate(13.000000, 179.000000)">
                    <g id="4" transform="translate(7.714286, 5.200000)">
                        <path d="M4.97096679,1.61904762 L1.61953822,1.61904762 C0.753102444,1.61904762 -6.75015599e-14,2.33535353 -6.75015599e-14,3.2012987 L-6.75015599e-14,16.0805772 C-6.75015599e-14,16.947013 0.753102444,17.6623377 1.61904762,17.6623377 L12.8419913,17.6623377 C13.7079365,17.6623377 14.461039,16.947013 14.461039,16.0805772 L14.461039,3.2012987 C14.461039,2.33486292 13.7079365,1.61953825 12.8419913,1.61953825 L9.49007214,1.61953825 L4.97096679,1.61904762 Z M11.2597403,3.2012987 L12.8415007,3.2012987 L12.8415007,16.0805772 L1.61904762,16.0805772 L1.61904762,3.2012987 L3.20080807,3.2012987 L11.2597403,3.2012987 Z M8.02164502,2.41041846 C8.02164502,2.8617893 7.68262625,3.2012987 7.23076478,3.2012987 C6.77890331,3.2012987 6.43988454,2.86227993 6.43988454,2.41041846 C6.43988454,1.95806636 6.77841268,1.61953772 7.23076478,1.61953772 C7.68213562,1.61904762 8.02164502,1.95806639 8.02164502,2.41041846 Z" id="形状"></path>
                        <path d="M7.23076478,0 C6.17593074,0 5.30998556,0.678037508 4.97096679,1.61904762 L9.49007214,1.61953825 C9.151544,0.677056277 8.28510823,0 7.23076478,0 Z M3.2012987,5.61122656 L11.2597403,5.61122656 L11.2597403,1.61953825 L3.20080807,1.61904762 L3.2012987,5.61122656 Z M8.02164502,2.41041846 C8.02164502,2.8617893 7.68262625,3.2012987 7.23076478,3.2012987 C6.77890331,3.2012987 6.43988454,2.86227993 6.43988454,2.41041846 C6.43988454,1.95806636 6.77841268,1.61953772 7.23076478,1.61953772 C7.68213562,1.61904762 8.02164502,1.95806639 8.02164502,2.41041846 Z" id="形状" opacity="0.8"></path>
                        <path d="M9.20207792,13.3316306 L8.48577199,12.6153247 L9.15056277,11.9505339 L8.48577199,11.2862338 L9.20207792,10.5699279 L9.86686868,11.2347186 L10.5316594,10.5694372 L11.2474747,11.2857431 L10.582684,11.9505339 L11.2479654,12.6153247 L10.5316594,13.3316306 L9.86686868,12.6663492 L9.20207792,13.3316306 Z" id="形状结合"></path>
                        <polygon id="路径" opacity="0.6" points="3.20080807 11.2980087 3.20080807 12.9047908 7.61639249 12.9047908 7.61639249 11.2980087"></polygon>
                        <polygon id="路径" points="3.20080807 7.53396824 3.20080807 9.14075034 7.61639249 9.14075034 7.61639249 7.53396824"></polygon>
                        <path d="M9.83841268,6.92707043 C10.6129637,6.9414628 11.2333348,7.57346825 11.2333348,8.34815297 C11.2333348,9.12283769 10.6129637,9.75484314 9.83841268,9.76923522 C9.05343514,9.76923522 8.41708511,9.13288519 8.41708511,8.34790765 C8.41708511,7.56293011 9.05343514,6.92658009 9.83841268,6.92707043 Z M9.83841268,7.72727273 C9.5023052,7.73672191 9.2347423,8.01191268 9.2347423,8.34815295 C9.2347423,8.68439323 9.5023052,8.959584 9.83841268,8.96903318 C10.0643934,8.97538631 10.275981,8.85845635 10.3908452,8.66374156 C10.5057094,8.46902676 10.5057094,8.22727915 10.3908452,8.03256435 C10.275981,7.83784955 10.0643934,7.7209196 9.83841268,7.72727273 Z" id="形状结合" opacity="0.6"></path>
                    </g>
                </g>
            </g>
        </g>
    </g>
</svg>