<?xml version="1.0" encoding="UTF-8"?>
<svg width="30px" height="30px" viewBox="0 0 30 30" version="1.1" xmlns="http://www.w3.org/2000/svg" xmlns:xlink="http://www.w3.org/1999/xlink">
    <title>编组 7</title>
    <g id="页面-1" stroke="none" stroke-width="1" fill="none" fill-rule="evenodd">
        <g id="旧主题-菜单" transform="translate(-12.000000, -697.000000)" fill="#415BC9" fill-rule="nonzero">
            <g id="编组-5" transform="translate(-1.000000, 48.000000)">
                <g id="编组" transform="translate(13.000000, 649.000000)">
                    <g id="4" transform="translate(6.500000, 4.500000)">
                        <path d="M5.79946126,1.88888889 L1.88946126,1.88888889 C0.878619517,1.88888889 -3.90798505e-14,2.72457911 -3.90798505e-14,3.73484848 L-3.90798505e-14,18.7606734 C-3.90798505e-14,19.7715152 0.878619517,20.6060606 1.88888889,20.6060606 L14.9823232,20.6060606 C15.9925926,20.6060606 16.8712121,19.7715152 16.8712121,18.7606734 L16.8712121,3.73484848 C16.8712121,2.72400675 15.9925926,1.88946129 14.9823232,1.88946129 L11.0717508,1.88946129 L5.79946126,1.88888889 Z M13.1363636,3.73484848 L14.9817508,3.73484848 L14.9817508,18.7606734 L1.88888889,18.7606734 L1.88888889,3.73484848 L3.73427608,3.73484848 L13.1363636,3.73484848 Z M9.35858586,2.81215487 C9.35858586,3.33875419 8.96306396,3.73484848 8.43589224,3.73484848 C7.90872053,3.73484848 7.51319863,3.33932659 7.51319863,2.81215487 C7.51319863,2.28441075 7.90814813,1.88946067 8.43589224,1.88946067 C8.96249156,1.88888889 9.35858586,2.28441079 9.35858586,2.81215487 Z" id="形状"></path>
                        <path d="M8.43589224,0 C7.20525253,0 6.19498315,0.79104376 5.79946126,1.88888889 L11.0717508,1.88946129 C10.6768013,0.78989899 9.6659596,0 8.43589224,0 Z M3.73484848,6.54643099 L13.1363636,6.54643099 L13.1363636,1.88946129 L3.73427608,1.88888889 L3.73484848,6.54643099 Z M9.35858586,2.81215487 C9.35858586,3.33875419 8.96306396,3.73484848 8.43589224,3.73484848 C7.90872053,3.73484848 7.51319863,3.33932659 7.51319863,2.81215487 C7.51319863,2.28441075 7.90814813,1.88946067 8.43589224,1.88946067 C8.96249156,1.88888889 9.35858586,2.28441079 9.35858586,2.81215487 Z" id="形状" opacity="0.8"></path>
                        <path d="M10.7357576,15.553569 L9.90006732,14.7178788 L10.6756566,13.9422896 L9.90006732,13.1672727 L10.7357576,12.3315825 L11.5113468,13.1071717 L12.286936,12.3310101 L13.1220539,13.1667003 L12.3464646,13.9422896 L13.1226263,14.7178788 L12.286936,15.553569 L11.5113468,14.7774074 L10.7357576,15.553569 Z" id="形状结合"></path>
                        <polygon id="路径" opacity="0.6" points="3.73427608 13.1810101 3.73427608 15.0555892 8.88579123 15.0555892 8.88579123 13.1810101"></polygon>
                        <polygon id="路径" points="3.73427608 8.78962962 3.73427608 10.6642087 8.88579123 10.6642087 8.88579123 8.78962962"></polygon>
                        <path d="M11.4781481,8.08158217 C12.381791,8.09837326 13.1055573,8.83571296 13.1055573,9.7395118 C13.1055573,10.6433106 12.381791,11.3806503 11.4781481,11.3974411 C10.562341,11.3974411 9.81993263,10.6550327 9.81993263,9.73922559 C9.81993263,8.82341847 10.562341,8.0810101 11.4781481,8.08158217 Z M11.4781481,9.01515152 C11.0860227,9.02617556 10.773866,9.34723146 10.773866,9.73951178 C10.773866,10.1317921 11.0860227,10.452848 11.4781481,10.463872 C11.7417923,10.471284 11.9886444,10.3348657 12.1226527,10.1076985 C12.256661,9.88053122 12.256661,9.59849234 12.1226527,9.37132508 C11.9886444,9.14415781 11.7417923,9.00773954 11.4781481,9.01515152 Z" id="形状结合" opacity="0.6"></path>
                    </g>
                </g>
            </g>
        </g>
    </g>
</svg>