<?xml version="1.0" encoding="UTF-8"?>
<svg width="30px" height="30px" viewBox="0 0 30 30" version="1.1" xmlns="http://www.w3.org/2000/svg" xmlns:xlink="http://www.w3.org/1999/xlink">
    <title>编组 2</title>
    <g id="页面-1" stroke="none" stroke-width="1" fill="none" fill-rule="evenodd" fill-opacity="0.65">
        <g id="旧主题-管理+平台层菜单" transform="translate(-12.000000, -61.000000)" fill="#0F1358">
            <g id="编组-5" transform="translate(-1.000000, 48.000000)">
                <g id="编组" transform="translate(13.000000, 13.000000)">
                    <g id="编组-11" transform="translate(5.000000, 5.434783)">
                        <polygon id="路径" opacity="0.8" points="8.15217391 5.94927536 8.15217391 9.96376812 4.67391304 11.9710145 6.36775362 13.0851449 9.96376812 11.0199275 9.96376812 6.85960145"></polygon>
                        <polygon id="路径" opacity="0.6" points="13.5597826 13.0851449 15.2536232 11.9710145 11.7753623 9.96376812 11.7753623 5.94927536 9.96376812 6.85869565 9.96376812 11.0208333 6.36775362 13.0860507 6.48550725 15.1086957 9.96376812 13.1014493 13.442029 15.1086957"></polygon>
                        <polygon id="路径" points="9.05797101 0 6.34057971 1.31974638 6.34057971 5.03894928 9.96376812 6.85960145 9.96376812 3.75905797 9.05797101 3.33514493"></polygon>
                        <polygon id="路径" opacity="0.8" points="10.8695652 0.0389492754 10.8695652 3.32427536 9.96376812 3.75905797 9.96376812 6.85869565 13.5869565 5.03804348 13.5869565 1.32065217"></polygon>
                        <polygon id="路径" points="19.9275362 12.5851449 16.9456522 10.8568841 13.557971 13.0851449 16.2427536 14.634058 17.4003623 13.8713768 19.9275362 15.3297101"></polygon>
                        <path d="M18.8442029,17.5688406 L16.1603261,16.0199275 L16.2509058,14.634058 L13.5697464,13.0851449 L13.3342391,17.1322464 L16.5588768,18.9927536 L18.8442029,17.5688406 Z M1.08333333,17.5688406 L3.38405797,18.9927536 L6.60507246,17.1322464 L6.36956522,13.0851449 L3.68478261,14.634058 L3.76630435,16.0199275 L1.08333333,17.5688406 Z" id="形状" opacity="0.8"></path>
                        <polygon id="路径" points="0 15.3306159 2.52717391 13.8722826 3.68478261 14.6349638 6.36865942 13.0860507 2.99003623 10.8577899 0.000905797101 12.6240942"></polygon>
                    </g>
                </g>
            </g>
        </g>
    </g>
</svg>