<?xml version="1.0" encoding="UTF-8"?>
<svg width="30px" height="30px" viewBox="0 0 30 30" version="1.1" xmlns="http://www.w3.org/2000/svg" xmlns:xlink="http://www.w3.org/1999/xlink">
    <title>编组 7</title>
    <defs>
        <path d="M4.49938786,18.4811853 C4.02208653,19.0497906 3.31774072,19.3782312 2.57536047,19.3782312 C1.18787358,19.3782312 0.0630158337,18.2536236 0.0629203754,16.8661368 L0.0619915084,3.36515543 C0.0619915084,3.01878361 0.116719737,2.67458706 0.224218962,2.34531916 C0.787334154,0.620508968 2.64206414,-0.321230898 4.36687432,0.241884293 L12.1360232,2.77835224 C12.5121853,2.90116146 12.8612781,3.09503225 13.1643548,3.34944237 C14.4723013,4.44736502 14.6425591,6.39770723 13.5446365,7.70565365 L4.49938786,18.4811853 Z" id="path-1"></path>
    </defs>
    <g id="页面-1" stroke="none" stroke-width="1" fill="none" fill-rule="evenodd">
        <g id="旧主题-管理+平台层菜单" transform="translate(-12.000000, -299.000000)">
            <g id="编组-5" transform="translate(-1.000000, 48.000000)">
                <g id="编组" transform="translate(12.000000, 251.000000)">
                    <g id="编组-7" transform="translate(1.000000, 0.000000)">
                        <g id="编组-10备份-3" transform="translate(6.666667, 5.000000)">
                            <path d="M9.883996,5.51211768 L13.3906078,0.570221888 C13.8229502,-0.0390817151 14.6673712,-0.182537095 15.2766748,0.249805329 C15.634187,0.503484635 15.8466088,0.914677158 15.8466088,1.3530471 L15.8466088,17.5881172 C15.8466088,18.3352255 15.2409579,18.9408765 14.4938496,18.9408765 C13.9717622,18.9408765 13.4962769,18.6404393 13.2721198,18.1689218 L9.4777513,10.1874199 C8.75656765,8.67040109 8.91196389,6.88201025 9.883996,5.51211768 Z" id="Fill-9" fill-opacity="0.65" fill="#0F1358" fill-rule="nonzero"></path>
                            <g id="形状-Clipped" transform="translate(0.131571, 0.011895)">
                                <mask id="mask-2" fill="white">
                                    <use xlink:href="#path-1"></use>
                                </mask>
                                <g id="path-1"></g>
                                <path d="M-0.579753982,-0.610845842 L-0.337861549,-1.34502924 L14.6867026,3.60513498 L14.4448102,4.33931839 L-0.579753982,-0.610845842 Z M-0.579753982,1.13134635 L-0.337861549,0.397162958 L14.6867026,5.34732719 L14.4448102,6.0815106 L-0.579753982,1.13134635 Z M-0.579753982,2.87353855 L-0.337861549,2.13935515 L14.6867026,7.0895194 L14.4448102,7.82370277 L-0.579753982,2.87353855 Z M-0.579753982,4.61573074 L-0.337861549,3.88154737 L14.6867026,8.83171158 L14.4448102,9.56589498 L-0.579753982,4.61573074 Z M-0.579753982,6.35792295 L-0.337861549,5.62373954 L14.6867026,10.5739038 L14.4448102,11.3080872 L-0.579753982,6.35792295 Z M-0.579753982,8.10011516 L-0.337861549,7.36593175 L14.6867026,12.316096 L14.4448102,13.0502794 L-0.579753982,8.10011516 Z M-0.579753982,9.84230733 L-0.337861549,9.10812393 L14.6867026,14.0582882 L14.4448102,14.7924716 L-0.579753982,9.84230733 Z M-0.579753982,11.5844995 L-0.337861549,10.8503161 L14.6867026,15.8004804 L14.4448102,16.5346638 L-0.579753982,11.5844995 Z M-0.579753982,13.3266917 L-0.337861549,12.5925084 L14.6867026,17.5426726 L14.4448102,18.276856 L-0.579753982,13.3266917 Z M-0.579753982,15.0688839 L-0.337861549,14.3347005 L14.6867026,19.2848648 L14.4448102,20.0190482 L-0.579753982,15.0688839 Z M-0.579753982,16.8110761 L-0.337861549,16.0768927 L14.6867026,21.027057 L14.4448102,21.7612404 L-0.579753982,16.8110761 Z M-0.579753982,18.5532683 L-0.337861549,17.8190849 L14.6867026,22.7692492 L14.4448102,23.5034326 L-0.579753982,18.5532683 Z" id="形状" fill-opacity="0.65" fill="#0F1358" fill-rule="nonzero" opacity="0.8" mask="url(#mask-2)"></path>
                            </g>
                        </g>
                    </g>
                </g>
            </g>
        </g>
    </g>
</svg>