<?xml version="1.0" encoding="UTF-8"?>
<svg width="30px" height="30px" viewBox="0 0 30 30" version="1.1" xmlns="http://www.w3.org/2000/svg" xmlns:xlink="http://www.w3.org/1999/xlink">
    <title>编组 2</title>
    <g id="页面-1" stroke="none" stroke-width="1" fill="none" fill-rule="evenodd">
        <g id="旧主题-菜单" transform="translate(-12.000000, -139.000000)" fill="#5266D4">
            <g id="编组-5" transform="translate(-1.000000, 48.000000)">
                <g id="编组" transform="translate(13.000000, 91.000000)">
                    <g id="1备份" transform="translate(6.027778, 6.500000)">
                        <path d="M17.8752881,9.79078279 L15.4434364,11.0071149 L15.4434364,12.223447 L17.8752881,9.79078279 Z M15.4434364,4.48994736 L15.4434364,5.70627946 L17.8752881,6.92261157 L15.4434364,4.48994736 Z" id="形状"></path>
                        <path d="M12.7077048,14.9543035 L17.8696005,9.79078279 L17.8696005,13.2301507 L14.42617,16.6752062 L12.7077048,14.9543035 Z M12.7077048,1.75340326 L17.8752881,6.92261157 L17.8752881,3.47755604 L14.4286075,0.0308754976 L12.7077048,1.75340326 Z" id="形状"></path>
                        <polygon id="路径" points="17.8752881 6.92261157 15.4434364 5.70627946 15.4434364 11.0071149 17.8752881 9.79078279"></polygon>
                        <path d="M0,6.91448643 L2.43185169,5.69815433 L2.43185169,4.48182223 L0,6.91448643 Z M2.43185169,12.2153219 L2.43185169,10.9989898 L0,9.78265766 L2.43185169,12.2153219 Z" id="形状"></path>
                        <path d="M5.16758328,1.75096572 L0.00650010476,6.91448643 L0.00650010476,3.47511851 L3.44911809,0.0300629845 L5.16758328,1.75096572 Z M5.16758328,14.951866 L0,9.78265766 L0,13.2277132 L3.44668055,16.6743937 L5.16758328,14.951866 Z" id="形状"></path>
                        <path d="M5.28214763,7.12898989 C5.95705047,7.12898989 6.50416732,7.67610674 6.50416732,8.35100959 C6.50416732,9.02591243 5.95705047,9.57302928 5.28214763,9.57302928 C4.60724479,9.57302928 4.06012793,9.02591243 4.06012793,8.35100959 C4.06012793,7.67610674 4.60724479,7.12898989 5.28214763,7.12898989 Z M8.93683153,7.12898989 C9.61173437,7.12898989 10.1588512,7.67610674 10.1588512,8.35100959 C10.1588512,9.02591243 9.61173437,9.57302928 8.93683153,9.57302928 C8.26192869,9.57302928 7.71481183,9.02591243 7.71481183,8.35100959 C7.71481183,7.67610674 8.26192869,7.12898989 8.93683153,7.12898989 Z M12.5915154,7.12898989 C13.2664183,7.12898989 13.8135351,7.67610674 13.8135351,8.35100959 C13.8135351,9.02591243 13.2664183,9.57302928 12.5915154,9.57302928 C11.9166126,9.57302928 11.3694957,9.02591243 11.3694957,8.35100959 C11.3694957,7.67610674 11.9166126,7.12898989 12.5915154,7.12898989 Z" id="形状结合"></path>
                        <polygon id="路径" points="0 9.78265766 2.43185169 10.9989898 2.43185169 5.69815433 0 6.91448643"></polygon>
                    </g>
                </g>
            </g>
        </g>
    </g>
</svg>