<?xml version="1.0" encoding="UTF-8"?>
<svg width="30px" height="30px" viewBox="0 0 30 30" version="1.1" xmlns="http://www.w3.org/2000/svg" xmlns:xlink="http://www.w3.org/1999/xlink">
    <title>编组 9</title>
    <g id="页面-1" stroke="none" stroke-width="1" fill="none" fill-rule="evenodd" fill-opacity="0.65">
        <g id="旧主题-菜单" transform="translate(-12.000000, -379.000000)" fill="#0F1358">
            <g id="编组-5" transform="translate(-1.000000, 48.000000)">
                <g id="编组" transform="translate(13.000000, 331.000000)">
                    <g id="6" transform="translate(6.500000, 6.000000)">
                        <polygon id="路径" fill-rule="nonzero" points="6.0019288 13.5806799 0.812727259 13.5806799 0.812727259 15.5727747 6.0019288 15.5727747 10.6235257 15.5727747 15.8127273 15.5727747 15.8127273 13.5806799 10.6235257 13.5806799"></polygon>
                        <polygon id="路径" fill-rule="nonzero" opacity="0.6" points="7.57622126 11.6275731 7.57622126 12.8564111 7.57622126 16.2970435 7.57622126 17.8561423 9.57622126 17.8561423 9.57622126 16.2970435 9.57622126 12.8564111 9.57622126 11.6277154"></polygon>
                        <polygon id="路径" opacity="0.6" points="7.27714602 12.8563613 5.57622126 12.8563613 5.57622126 13.5806301 5.57622126 15.5727249 5.57622126 16.2969937 7.27714602 16.2969937 9.87511094 16.2969937 11.5762213 16.2969937 11.5762213 15.5727249 11.5762213 13.5806301 11.5762213 12.8563613 9.87511094 12.8563613"></polygon>
                        <path d="M8.31272726,1.99223716 C10.1224031,1.99223716 11.8790039,2.26572331 13.1320316,2.74254545 C14.2552885,3.17027669 14.6332174,3.63500395 14.6332174,3.78128064 C14.6332174,3.80802944 14.6205797,3.84541753 14.5930576,3.891274 L14.6333597,7.87233204 C14.6333597,8.018751 14.2552885,8.48333599 13.1320316,8.91106719 C11.8790039,9.38803161 10.1224031,9.66151779 8.31258495,9.66151779 C6.50319365,9.66151779 4.74659285,9.38803164 3.49356522,8.91106719 C2.37030829,8.48347826 1.99223716,8.01875097 1.99223713,7.87233204 L1.94954937,3.75666401 L1.993,3.777 L1.99623643,3.75209288 C2.03929409,3.58033214 2.43637383,3.14511603 3.49342291,2.74254545 C4.74659288,2.26572334 6.50305137,1.99223716 8.31272726,1.99223716 Z M2.53571077e-13,3.78142294 L2.53571077e-13,7.87247431 C2.53571077e-13,10.1549882 3.53596839,11.4361897 7.31667983,11.6275731 L9.30877468,11.6277154 C13.0894862,11.4361897 16.6254545,10.1549882 16.6254545,7.87261662 L16.6254545,3.78128064 C16.6254545,1.29884585 12.4434782,-6.67292308e-15 8.31272726,-6.67292308e-15 C4.18197626,0.000284582201 2.53571077e-13,1.29913043 2.53571077e-13,3.78142294 Z" id="形状" fill-rule="nonzero" opacity="0.8"></path>
                        <path d="M8.31272726,-6.67292308e-15 C12.4434782,-6.67292308e-15 16.6254545,1.29884585 16.6254545,3.78128064 L16.6254545,3.77686957 C16.6254545,3.94253015 16.6068309,4.10291985 16.5708417,4.25800442 C16.42799,4.87358013 16.0115388,5.40557198 15.4001621,5.85183789 C13.8574655,6.97790784 11.0736543,7.5581502 8.31272726,7.5581502 C5.59242325,7.55796279 2.8499035,6.99460566 1.29419003,5.90095608 C0.638048857,5.43969601 0.19302079,4.88410573 0.049812079,4.23665184 C0.016968738,4.08816542 2.1804394e-13,3.93484731 2.1804394e-13,3.77672726 L0.00588558726,3.62121334 C0.181800846,1.24327256 4.27177519,0.000278395631 8.31272726,-6.67292308e-15 Z M1.99223713,3.78113836 C1.99223713,3.92755732 2.37030829,4.392 3.49342291,4.81973124 C4.74659285,5.29669568 6.50319365,5.57018184 8.31258495,5.57018184 C10.1224031,5.57018184 11.8790039,5.29655335 13.1320316,4.81958893 C14.2552885,4.392 14.6332174,3.92755732 14.6332174,3.78128064 L14.6332174,3.78128064 L14.6332174,3.77686957 C14.6332174,3.63059288 14.2552885,3.1661502 13.1320316,2.73856127 C11.8790039,2.26159685 10.1224031,1.98796836 8.31258495,1.98796836 C6.50319365,1.98796836 4.74659285,2.26145452 3.49342291,2.73841896 C2.37030829,3.1661502 1.99223713,3.63059288 1.99223713,3.77701184 Z" id="形状结合" fill-rule="nonzero"></path>
                    </g>
                </g>
            </g>
        </g>
    </g>
</svg>