<?xml version="1.0" encoding="UTF-8"?>
<svg width="30px" height="30px" viewBox="0 0 30 30" version="1.1" xmlns="http://www.w3.org/2000/svg" xmlns:xlink="http://www.w3.org/1999/xlink">
    <title>编组 8</title>
    <g id="页面-1" stroke="none" stroke-width="1" fill="none" fill-rule="evenodd">
        <g id="旧主题-管理+平台层菜单" transform="translate(-12.000000, -537.000000)" fill="#415BC9">
            <g id="编组-5" transform="translate(-1.000000, 48.000000)">
                <g id="编组" transform="translate(13.000000, 489.000000)">
                    <g id="编组-11" transform="translate(5.700000, 5.000000)">
                        <path d="M5.65583333,13.7375 L5.68333333,13.6275 L6.50833333,12.1333333 L13.3375,12.1333333 C14.025,12.1333333 14.6291667,11.7583333 14.9416667,11.1891667 L18.48,4.76416667 L16.885,3.88333333 L16.8766667,3.88333333 L15.8683333,5.71666667 L13.3375,10.3 L6.9025,10.3 L6.78333333,10.0525 L4.73,5.71666667 L3.85833333,3.88333333 L2.9975,2.05 L0,2.05 L0,3.88333333 L1.83333333,3.88333333 L5.13333333,10.8416667 L3.89583333,13.0866667 C3.74916667,13.3433333 3.66666667,13.645 3.66666667,13.9666667 C3.66666667,14.975 4.49166667,15.8 5.5,15.8 L16.5,15.8 L16.5,13.9666667 L5.885,13.9666667 C5.75936753,13.9644426 5.65805744,13.8631325 5.65583333,13.7375 L5.65583333,13.7375 Z" id="路径"></path>
                        <path d="M6.71,16.5625 C5.76353933,16.5661746 4.99861452,17.3351999 4.99999812,18.2816667 C4.99907428,19.2278084 5.76386498,19.9963261 6.71,20 C7.65814052,19.9967991 8.42596578,19.2289738 8.42916667,18.2808333 C8.42550898,17.3330183 7.65781673,16.5656981 6.71,16.5625 L6.71,16.5625 Z M14.21,16.5625 C13.2635393,16.5661746 12.4986145,17.3351999 12.4999981,18.2816667 C12.4990743,19.2278084 13.263865,19.9963261 14.21,20 C15.1581405,19.9967991 15.9259658,19.2289738 15.9291667,18.2808333 C15.925509,17.3330183 15.1578167,16.5656981 14.21,16.5625 L14.21,16.5625 Z" id="形状"></path>
                        <polygon id="路径" opacity="0.8" points="10.3791667 0 14.9433333 4.56416667 10.3791667 4.56416667"></polygon>
                        <polygon id="路径" opacity="0.6" points="14.9433333 4.56416667 10.3791667 9.12916667 10.3791667 4.56416667"></polygon>
                        <polygon id="路径" points="10.3791667 0 10.3791667 4.56416667 5.81416667 4.56416667"></polygon>
                        <polygon id="路径" opacity="0.8" points="10.3791667 4.56416667 10.3791667 9.12916667 5.81416667 4.56416667"></polygon>
                    </g>
                </g>
            </g>
        </g>
    </g>
</svg>