<?xml version="1.0" encoding="UTF-8"?>
<svg width="30px" height="30px" viewBox="0 0 30 30" version="1.1" xmlns="http://www.w3.org/2000/svg" xmlns:xlink="http://www.w3.org/1999/xlink">
    <title>编组 7</title>
    <g id="页面-1" stroke="none" stroke-width="1" fill="none" fill-rule="evenodd" fill-opacity="0.86">
        <g id="新主题-管理+平台层菜单" transform="translate(-12.000000, -228.000000)" fill="#FFFFFF">
            <g id="左侧模块菜单" transform="translate(-1.000000, 50.000000)">
                <g id="编组" transform="translate(13.000000, 178.000000)">
                    <g id="编组-11" transform="translate(6.630000, 6.000000)">
                        <path d="M5.09025,12.36375 L5.115,12.26475 L5.8575,10.92 L12.00375,10.92 C12.6225,10.92 13.16625,10.5825 13.4475,10.07025 L16.632,4.28775 L15.1965,3.495 L15.189,3.495 L14.2815,5.145 L12.00375,9.27 L6.21225,9.27 L6.105,9.04725 L4.257,5.145 L3.4725,3.495 L2.69775,1.845 L0,1.845 L0,3.495 L1.65,3.495 L4.62,9.7575 L3.50625,11.778 C3.37425,12.009 3.3,12.2805 3.3,12.57 C3.3,13.4775 4.0425,14.22 4.95,14.22 L14.85,14.22 L14.85,12.57 L5.2965,12.57 C5.18343078,12.5679983 5.09225169,12.4768192 5.09025,12.36375 L5.09025,12.36375 Z" id="路径"></path>
                        <path d="M6.039,14.90625 C5.18718539,14.9095571 4.49875306,15.6016799 4.49999831,16.4535 C4.49916685,17.3050275 5.18747848,17.9966935 6.039,18 C6.89232646,17.9971192 7.5833692,17.3060765 7.58625,16.45275 C7.58295808,15.5997164 6.89203505,14.9091283 6.039,14.90625 L6.039,14.90625 Z M12.789,14.90625 C11.9371854,14.9095571 11.2487531,15.6016799 11.2499983,16.4535 C11.2491669,17.3050275 11.9374785,17.9966935 12.789,18 C13.6423265,17.9971192 14.3333692,17.3060765 14.33625,16.45275 C14.3329581,15.5997164 13.6420351,14.9091283 12.789,14.90625 L12.789,14.90625 Z" id="形状"></path>
                        <polygon id="路径" opacity="0.8" points="9.34125 0 13.449 4.10775 9.34125 4.10775"></polygon>
                        <polygon id="路径" opacity="0.6" points="13.449 4.10775 9.34125 8.21625 9.34125 4.10775"></polygon>
                        <polygon id="路径" points="9.34125 0 9.34125 4.10775 5.23275 4.10775"></polygon>
                        <polygon id="路径" opacity="0.8" points="9.34125 4.10775 9.34125 8.21625 5.23275 4.10775"></polygon>
                    </g>
                </g>
            </g>
        </g>
    </g>
</svg>