<?xml version="1.0" encoding="UTF-8"?>
<svg width="30px" height="30px" viewBox="0 0 30 30" version="1.1" xmlns="http://www.w3.org/2000/svg" xmlns:xlink="http://www.w3.org/1999/xlink">
    <title>编组 2</title>
    <g id="页面-1" stroke="none" stroke-width="1" fill="none" fill-rule="evenodd" fill-opacity="0.65">
        <g id="旧主题-菜单" transform="translate(-12.000000, -61.000000)" fill="#0F1358" fill-rule="nonzero">
            <g id="编组-5" transform="translate(-1.000000, 48.000000)">
                <g id="编组" transform="translate(13.000000, 13.000000)">
                    <g id="1" transform="translate(4.000000, 6.000000)">
                        <path d="M17.6750002,13.2241749 L17.6750002,11.3355528 L21.4954872,14.4843058 L17.6750002,17.6324291 L17.6750002,15.743807 L8.17806726,15.743765 C8.17932676,15.7430093 8.17970461,15.7421697 8.18092213,15.741414 C4.37752238,15.7154263 1.30148458,12.6261637 1.30148458,8.81650842 C1.30148458,6.72185885 2.23154318,4.84543736 3.70112454,3.57613562 C4.4519084,4.28672902 5.11145038,4.78138551 5.65937951,5.25266884 C4.54717981,6.04860069 3.82048698,7.34569394 3.82048698,8.81650842 C3.82048698,11.2469679 5.79828172,13.2247626 8.22874119,13.2247626 L17.6750002,13.2241749 Z" id="形状结合" opacity="0.6"></path>
                        <path d="M8.27656026,15.741414 C12.07996,15.7154263 15.1559978,12.6261637 15.1559978,8.81650842 C15.1559978,5.20337732 12.3887057,2.23956107 8.8584918,1.92099124 L8.8584918,0 L5.07998819,3.14875301 L8.8584918,6.29687627 L8.8584918,4.47190101 C10.989148,4.78077268 12.6369954,6.60167556 12.6369954,8.81650842 C12.6369954,11.2469679 10.6592007,13.2247626 8.22874119,13.2247626 L3.83693077e-15,13.2247626 L3.83693077e-15,15.743765 L8.27941513,15.743765 C8.27815563,15.7430093 8.27777778,15.7421697 8.27656026,15.741414 Z" id="路径"></path>
                    </g>
                </g>
            </g>
        </g>
    </g>
</svg>