<?xml version="1.0" encoding="UTF-8"?>
<svg width="30px" height="32px" viewBox="0 0 30 32" version="1.1" xmlns="http://www.w3.org/2000/svg" xmlns:xlink="http://www.w3.org/1999/xlink">
    <title>编组 11</title>
    <g id="页面-1" stroke="none" stroke-width="1" fill="none" fill-rule="evenodd" fill-opacity="0.86">
        <g id="新主题-菜单" transform="translate(-12.000000, -65.000000)" fill="#FFFFFF" fill-rule="nonzero">
            <g id="左侧模块菜单" transform="translate(-1.000000, 50.000000)">
                <g id="编组" transform="translate(13.000000, 15.039474)">
                    <g id="1" transform="translate(5.000000, 6.836124)">
                        <path d="M16.068182,12.0536139 L16.068182,10.3321666 L19.541352,13.2022022 L16.068182,16.0716638 L16.068182,14.3502165 L7.4346066,14.3501782 C7.4357516,14.3494894 7.4360951,14.348724 7.43720194,14.3480352 C3.9795658,14.3243479 1.1831678,11.5085368 1.1831678,8.03609978 C1.1831678,6.12686177 2.02867562,4.41653501 3.36465867,3.25958773 C4.04718945,3.90728171 4.64677307,4.35815282 5.14489046,4.78771969 C4.13379983,5.51319824 3.47316998,6.69547701 3.47316998,8.03609978 C3.47316998,10.2514229 5.2711652,12.0541497 7.48067381,12.0541497 L16.068182,12.0536139 Z" id="形状结合" opacity="0.6"></path>
                        <path d="M7.52414569,14.3480352 C10.9817818,14.3243479 13.7781798,11.5085368 13.7781798,8.03609978 C13.7781798,4.74279129 11.2624598,2.04132241 8.05317436,1.75095134 L8.05317436,0 L4.61817108,2.87003564 L8.05317436,5.73949727 L8.05317436,4.07606288 C9.99013454,4.35759424 11.4881776,6.01731672 11.4881776,8.03609978 C11.4881776,10.2514229 9.69018242,12.0541497 7.48067381,12.0541497 L3.48811888e-15,12.0541497 L3.48811888e-15,14.3501782 L7.52674102,14.3501782 C7.52559602,14.3494894 7.52525252,14.348724 7.52414569,14.3480352 Z" id="路径"></path>
                    </g>
                </g>
            </g>
        </g>
    </g>
</svg>