<?xml version="1.0" encoding="UTF-8"?>
<svg width="30px" height="30px" viewBox="0 0 30 30" version="1.1" xmlns="http://www.w3.org/2000/svg" xmlns:xlink="http://www.w3.org/1999/xlink">
    <title>编组 3</title>
    <g id="UI优化" stroke="none" stroke-width="1" fill="none" fill-rule="evenodd" fill-opacity="0.86">
        <g id="导航栏，左侧菜单-normal" transform="translate(-12.000000, -184.000000)" fill="#FFFFFF" fill-rule="nonzero">
            <g id="focus" transform="translate(-2.000000, 90.000000)">
                <g id="编组-4" transform="translate(0.920000, 0.000000)">
                    <g transform="translate(2.580000, 12.000000)">
                        <g id="编组" transform="translate(10.500000, 82.000000)">
                            <g id="2" transform="translate(7.000000, 6.777778)">
                                <path d="M4.72132214,10.3989435 L2.07185185,11.753037 L8,14.7828148 L13.928,11.753037 L11.2191065,10.3685329 L12.6800568,9.45150039 L15.3764808,10.8296727 C15.8864682,11.0903329 16.0885878,11.7150661 15.8279276,12.2250534 C15.7352812,12.406318 15.5914947,12.5560124 15.4148334,12.6558713 L15.3764808,12.6765002 L8.47196702,16.2054739 C8.18844577,16.3503848 7.85487005,16.3566852 7.56699623,16.2243753 L7.52803298,16.2054739 L0.62351916,12.6765002 C0.113531831,12.41584 -0.0885877503,11.7911067 0.17207244,11.2811194 C0.264718765,11.0998548 0.408505291,10.9501604 0.585166629,10.8503016 L0.62351916,10.8296727 L3.34211459,9.44016834 L4.72132214,10.3989435 Z" id="路径"></path>
                                <path d="M4.68523441,6.84213804 L2.072,8.17777778 L8,11.2075556 L13.9278519,8.17777778 L11.3296209,6.84976564 L12.8386969,5.95727446 L15.3764808,7.25436403 C15.8864682,7.51502422 16.0885878,8.13975747 15.8279276,8.6497448 C15.7352812,8.83100935 15.5914947,8.98070376 15.4148334,9.08056264 L15.3764808,9.10119152 L8.47196702,12.6301653 C8.18844577,12.7750761 7.85487005,12.7813766 7.56699623,12.6490667 L7.52803298,12.6301653 L0.62351916,9.10119152 C0.113531831,8.84053133 -0.0885877503,8.21579808 0.17207244,7.70581075 C0.264718765,7.5245462 0.408505291,7.3748518 0.585166629,7.27499292 L0.62351916,7.25436403 L3.3903192,5.84022179 L4.68523441,6.84213804 Z" id="路径" opacity="0.8"></path>
                                <path d="M7.52803298,0.150081663 L0.62351916,3.67905539 C0.429307142,3.77831931 0.27133636,3.93629009 0.17207244,4.13050211 C-0.0885877503,4.64048944 0.113531831,5.26522269 0.62351916,5.52588288 L7.52803298,9.05485661 C7.82444156,9.20635433 8.17555844,9.20635433 8.47196702,9.05485661 L15.3764808,5.52588288 C15.5706929,5.42661896 15.7286636,5.26864818 15.8279276,5.07443616 C16.0885878,4.56444883 15.8864682,3.93971558 15.3764808,3.67905539 L8.47196702,0.150081663 C8.17555844,-0.00141605999 7.82444156,-0.00141605999 7.52803298,0.150081663 Z M8,1.57259259 L13.928,4.60237037 L7.99985185,7.63214815 L2.07185185,4.60237037 L8,1.57259259 Z" id="多边形" opacity="0.6"></path>
                            </g>
                        </g>
                    </g>
                </g>
            </g>
        </g>
    </g>
</svg>