<?xml version="1.0" encoding="UTF-8"?>
<svg width="521px" height="396px" viewBox="0 0 521 396" version="1.1" xmlns="http://www.w3.org/2000/svg" xmlns:xlink="http://www.w3.org/1999/xlink">
    <title>bg</title>
    <g id="缺省" stroke="none" stroke-width="1" fill="none" fill-rule="evenodd">
        <g id="当前用户不存在猪齿鱼系统。" transform="translate(-471.000000, -168.000000)" fill-rule="nonzero">
            <g id="bg" transform="translate(472.732825, 169.020000)">
                <g>
                    <ellipse id="_Path_" fill="#F3F7FB" cx="260.083457" cy="376.46" rx="224.185312" ry="18.5"></ellipse>
                    <rect id="矩形" stroke="#D9E6F2" stroke-width="1.5" fill="#FFFFFF" x="267.129965" y="0" width="251.129965" height="341" rx="8.60999966"></rect>
                    <rect id="矩形" stroke="#D9E6F2" stroke-width="1.5" fill="#FFFFFF" x="0" y="0" width="251.129965" height="341" rx="8.60999966"></rect>
                    <path d="M207.874181,304.719031 L204.96509,307.628122 L202.055999,304.719031 L204.96509,301.80994 L207.874181,304.719031 Z M204.96509,295.991759 L208.048727,299.075395 L211.68509,295.439031 L204.96509,288.719031 L198.24509,295.439031 L201.881454,299.075395 L204.96509,295.991759 Z M196.237817,304.719031 L199.321454,301.635395 L195.68509,297.999031 L188.96509,304.719031 L195.68509,311.439031 L199.321454,307.802668 L196.237817,304.719031 Z M213.692363,304.719031 L210.608727,307.802668 L214.24509,311.439031 L220.96509,304.719031 L214.24509,297.999031 L210.608727,301.635395 L213.692363,304.719031 Z M204.96509,313.446304 L201.881454,310.362668 L198.24509,313.999031 L204.96509,320.719031 L211.68509,313.999031 L208.048727,310.362668 L204.96509,313.446304 Z" id="形状" fill-opacity="0.32" fill="#D9E6F2"></path>
                    <g id="工作列表" opacity="0.32" transform="translate(19.693117, 219.723914)" fill="#D9E6F2">
                        <path d="M0,0 L4.33776176,0 L4.33776176,4.33776176 L0,4.33776176 L0,0 Z M8.91276513,0 L32.410055,0 L32.410055,4.33776176 L8.91276513,4.33776176 L8.91276513,0 Z M0,8.66968972 L4.33776176,8.66968972 L4.33776176,13.0074515 L0,13.0074515 L0,8.66968972 Z M8.91276513,8.66968972 L32.410055,8.66968972 L32.410055,13.0074515 L8.91276513,13.0074515 L8.91276513,8.66968972 Z M0,17.3390553 L4.33776176,17.3390553 L4.33776176,21.6771412 L0,21.6771412 L0,17.3390553 Z M8.91276513,17.3390553 L32.410055,17.3390553 L32.410055,21.6771412 L8.91276513,21.6771412 L8.91276513,17.3390553 Z" id="形状"></path>
                    </g>
                    <path d="M498.853294,288.489818 L495.612288,288.489818 L495.612288,303.074342 L474.545753,303.074342 L474.545753,306.315348 C474.545753,307.206624 475.274979,307.935851 476.166255,307.935851 L493.991786,307.935851 L500.473797,314.417862 L500.473797,290.11032 C500.473797,289.219044 499.74457,288.489818 498.853294,288.489818 Z M492.371283,298.212834 L492.371283,283.628309 C492.371283,282.737033 491.642057,282.007807 490.75078,282.007807 L469.684244,282.007807 C468.792968,282.007807 468.063742,282.737033 468.063742,283.628309 L468.063742,306.315348 L474.545753,299.833337 L490.75078,299.833337 C491.642057,299.833337 492.371283,299.104111 492.371283,298.212834 Z" id="形状" fill-opacity="0.32" fill="#D9E6F2" transform="translate(484.268769, 298.212834) rotate(-10.000000) translate(-484.268769, -298.212834) "></path>
                    <g id="编组" opacity="0.6" transform="translate(18.064982, 23.001186)">
                        <rect id="矩形" fill="#D9E6F2" transform="translate(115.588295, 65.103195) rotate(180.000000) translate(-115.588295, -65.103195) " x="16.176589" y="0" width="198.823411" height="130.20639"></rect>
                        <rect id="矩形" fill="#E8F4FF" transform="translate(111.143701, 65.103195) rotate(180.000000) translate(-111.143701, -65.103195) " x="10.1157796" y="0" width="202.055843" height="130.20639"></rect>
                        <rect id="矩形" fill="#E6E6E6" transform="translate(115.588295, 142.970166) rotate(180.000000) translate(-115.588295, -142.970166) " x="16.176589" y="130.191959" width="198.823411" height="25.5564132"></rect>
                        <rect id="矩形" fill="#E8F4FF" transform="translate(101.027921, 142.970166) rotate(180.000000) translate(-101.027921, -142.970166) " x="0" y="130.191959" width="202.055843" height="25.5564132"></rect>
                        <polygon id="矩形" fill="#F1F8FF" transform="translate(111.136486, 65.110410) rotate(90.000000) translate(-111.136486, -65.110410) " points="54.5256393 -27.4251628 167.747332 -27.4251628 167.747332 157.645983 54.5256393 157.645983"></polygon>
                        <polygon id="路径" fill="#FFFFFF" points="161.939056 121.706826 138.301899 8.49956373 101.417545 8.49956373 125.054702 121.706826"></polygon>
                        <path d="M199.732532,113.250554 C200.064434,113.250554 200.338613,112.976374 200.338613,112.644473 L200.338613,14.0120142 C200.338613,13.6801128 200.064434,13.4059333 199.732532,13.4059333 C199.400631,13.4059333 199.126451,13.6801128 199.126451,14.0120142 L199.126451,112.644473 C199.126451,112.976374 199.400631,113.250554 199.732532,113.250554 Z" id="路径" fill="#D9E6F2"></path>
                        <polygon id="路径" fill="#FFFFFF" points="117.132358 121.706826 93.495201 8.49956373 79.1079938 8.49956373 102.745151 121.706826"></polygon>
                        <polygon id="矩形" fill="#D9E6F2" transform="translate(19.142057, 65.110410) rotate(90.000000) translate(-19.142057, -65.110410) " points="-37.4687899 65.1104099 75.7529029 65.1104099 75.7529029 65.1104103 -37.4687899 65.1104103"></polygon>
                        <polygon id="路径" fill="#D9E6F2" points="8.09550977 21.2994161 206.918921 21.2994161 207.698168 11.7897174 8.8747567 11.7897174"></polygon>
                        <polygon id="路径" fill="#D9E6F2" points="8.09550977 26.6531311 206.918921 26.6531311 207.698168 17.1578629 8.8747567 17.1578629"></polygon>
                        <polygon id="路径" fill="#D9E6F2" points="8.09550977 32.0212766 206.918921 32.0212766 207.698168 22.511578 8.8747567 22.511578"></polygon>
                        <polygon id="路径" fill="#D9E6F2" points="8.09550977 37.3749916 206.918921 37.3749916 207.698168 27.8797235 8.8747567 27.8797235"></polygon>
                        <polygon id="路径" fill="#D9E6F2" points="8.09550977 42.7431371 206.918921 42.7431371 207.698168 33.2334385 8.8747567 33.2334385"></polygon>
                        <polygon id="路径" fill="#D9E6F2" points="8.09550977 48.1112826 206.918921 48.1112826 207.698168 38.601584 8.8747567 38.601584"></polygon>
                    </g>
                    <g id="编组" opacity="0.6" transform="translate(286.408836, 23.001186)">
                        <rect id="矩形" fill="#D9E6F2" transform="translate(114.276475, 64.372371) rotate(180.000000) translate(-114.276475, -64.372371) " x="15.9807282" y="0" width="196.591494" height="128.744742"></rect>
                        <rect id="矩形" fill="#F1F8FF" transform="translate(109.867507, 64.372371) rotate(180.000000) translate(-109.867507, -64.372371) " x="9.97368665" y="0" width="199.78764" height="128.744742"></rect>
                        <rect id="矩形" fill="#D9E6F2" transform="translate(114.276475, 141.365237) rotate(180.000000) translate(-114.276475, -141.365237) " x="15.9807282" y="128.730473" width="196.591494" height="25.2695265"></rect>
                        <rect id="矩形" fill="#F1F8FF" transform="translate(99.893820, 141.365237) rotate(180.000000) translate(-99.893820, -141.365237) " x="0" y="128.730473" width="199.78764" height="25.2695265"></rect>
                        <polygon id="矩形" fill="#F7FBFF" transform="translate(109.874641, 64.379505) rotate(90.000000) translate(-109.874641, -64.379505) " points="53.8992866 -27.1172982 165.849995 -27.1172982 165.849995 155.876309 53.8992866 155.876309"></polygon>
                        <polygon id="路径" fill="#FFFFFF" points="160.106921 120.340591 136.735106 8.40415084 100.264801 8.40415084 123.636616 120.340591"></polygon>
                        <path d="M197.49041,111.979246 C197.818586,111.979246 198.089688,111.708144 198.089688,111.379968 L198.089688,13.8547207 C198.089688,13.526545 197.818586,13.2554433 197.49041,13.2554433 C197.162235,13.2554433 196.891133,13.526545 196.891133,13.8547207 L196.891133,111.379968 C196.891133,111.708144 197.162235,111.979246 197.49041,111.979246 Z" id="路径" fill="#D9E6F2"></path>
                        <polygon id="路径" fill="#FFFFFF" points="115.803206 120.340591 92.4313907 8.40415084 78.2056889 8.40415084 101.591772 120.340591"></polygon>
                        <polygon id="矩形" fill="#D9E6F2" transform="translate(18.912907, 64.379505) rotate(90.000000) translate(-18.912907, -64.379505) " points="-37.0624479 64.3795052 74.8882609 64.3795052 74.8882609 64.3795053 -37.0624479 64.3795053"></polygon>
                        <polygon id="路径" fill="#D9E6F2" points="7.99036412 21.0603169 204.596127 21.0603169 205.366627 11.6573705 8.77513203 11.6573705"></polygon>
                        <polygon id="路径" fill="#D9E6F2" points="7.99036412 36.4703048 204.596127 36.4703048 205.366627 27.0673585 8.77513203 27.0673585"></polygon>
                        <polygon id="路径" fill="#D9E6F2" points="7.99036412 51.8802928 204.596127 51.8802928 205.366627 42.4916149 8.77513203 42.4916149"></polygon>
                        <polygon id="路径" fill="#D9E6F2" points="7.99036412 67.2902807 204.596127 67.2902807 205.366627 57.9016029 8.77513203 57.9016029"></polygon>
                        <polygon id="路径" fill="#D9E6F2" points="7.99036412 82.7145372 204.596127 82.7145372 205.366627 73.3115908 8.77513203 73.3115908"></polygon>
                        <polygon id="路径" fill="#D9E6F2" points="7.99036412 98.1245252 204.596127 98.1245252 205.366627 88.7215788 8.77513203 88.7215788"></polygon>
                    </g>
                </g>
                <g id="编组" transform="translate(117.494624, 102.774000)">
                    <g>
                        <polygon id="矩形" fill="#5365EA" transform="translate(1.239042, 64.149132) rotate(-4.120000) translate(-1.239042, -64.149132) " points="0.706313481 54.2989799 1.77177066 54.2989799 1.77177066 73.9992831 0.706313481 73.9992831"></polygon>
                        <polygon id="矩形" fill="#5365EA" transform="translate(2.935160, 87.815746) rotate(-4.120000) translate(-2.935160, -87.815746) " points="2.40243129 84.1079554 3.46788847 84.1079554 3.46788847 91.5235374 2.40243129 91.5235374"></polygon>
                        <path d="M249.942096,174.468613 L21.7637867,174.468613 C16.6069739,174.468613 12.0787809,170.249403 11.7058709,165.081936 L0.497261366,9.38667776 C0.124351352,4.22986501 4.04523378,0 9.20204653,0 L237.380356,0 C242.537169,0 247.065362,4.21921043 247.438272,9.38667776 L258.646882,165.081936 C259.019792,170.238748 255.098909,174.468613 249.942096,174.468613 Z" id="路径" fill="#5365EA"></path>
                        <g transform="translate(1.346390, 0.000000)" id="路径">
                            <g>
                                <path d="M249.469382,174.468613 L21.2910717,174.468613 C16.134259,174.468613 11.606066,170.249403 11.233156,165.081936 L0.0245464281,9.38667776 C-0.348363585,4.22986501 3.57251884,0 8.72933159,0 L236.907641,0 C242.064454,0 246.592647,4.21921043 246.965557,9.38667776 L258.174167,165.081936 C258.547077,170.238748 254.626194,174.468613 249.469382,174.468613 Z" fill="#5365EA"></path>
                                <path d="M249.469382,174.468613 L21.2910717,174.468613 C16.134259,174.468613 11.606066,170.249403 11.233156,165.081936 L0.0245464281,9.38667776 C-0.348363585,4.22986501 3.57251884,0 8.72933159,0 L236.907641,0 C242.064454,0 246.592647,4.21921043 246.965557,9.38667776 L258.174167,165.081936 C258.547077,170.238748 254.626194,174.468613 249.469382,174.468613 Z" fill="#FFFFFF" opacity="0.5"></path>
                            </g>
                            <path d="M237.248588,4.69866617 L9.07027789,4.69866617 C8.81456817,4.69866617 8.55885844,4.69866617 8.30314872,4.73062988 C2.47509794,5.21008561 3.65775541,14.0853439 9.54973362,14.0853439 L238.111608,14.0853439 C244.003586,14.0853439 243.907695,5.21008561 238.005062,4.73062988 C237.749353,4.70932074 237.493643,4.69866617 237.237933,4.69866617 L237.248588,4.69866617 Z" fill="#5365EA"></path>
                            <path d="M15.015529,9.38667776 C15.1007655,10.5799898 14.2057815,11.5389013 13.023124,11.5389013 C11.8404666,11.5389013 10.8069731,10.5799898 10.7217365,9.38667776 C10.6364999,8.20402029 11.531484,7.23445426 12.7141414,7.23445426 C13.8967989,7.23445426 14.9302924,8.19336572 15.015529,9.38667776 Z" fill="#FAFAFA"></path>
                            <path d="M22.3352198,9.38667776 C22.4204564,10.5799898 21.5254723,11.5389013 20.3428149,11.5389013 C19.1601574,11.5389013 18.1266639,10.5799898 18.0414273,9.38667776 C17.9561908,8.20402029 18.8511748,7.23445426 20.0338323,7.23445426 C21.2164897,7.23445426 22.2499832,8.19336572 22.3352198,9.38667776 Z" fill="#FAFAFA"></path>
                            <path d="M29.644256,9.38667776 C29.7294926,10.5799898 28.8345086,11.5389013 27.6518511,11.5389013 C26.4691936,11.5389013 25.4357002,10.5799898 25.3504636,9.38667776 C25.265227,8.20402029 26.1602111,7.23445426 27.3428685,7.23445426 C28.525526,7.23445426 29.5590195,8.19336572 29.644256,9.38667776 Z" fill="#FAFAFA"></path>
                        </g>
                        <path d="M244.763975,158.923593 L26.4517983,158.923593 C24.5765936,158.923593 22.9357896,157.399989 22.8079347,155.524785 L13.5917301,27.4887953 C13.4532207,25.6135906 14.8702787,24.0899868 16.7454834,24.0899868 L235.05766,24.0899868 C236.932864,24.0899868 238.573668,25.6135906 238.701523,27.4887953 L247.917728,155.524785 C248.056237,157.399989 246.639179,158.923593 244.763975,158.923593 Z" id="路径" fill="#FFFFFF"></path>
                    </g>
                    <g transform="translate(88.495327, 53.805588)">
                        <g transform="translate(19.847511, 0.000000)">
                            <g>
                                <g>
                                    <polygon id="路径" fill="#FFFFFF" points="44.4508736 56.3520303 40.8922466 7.00005368 30.1311291 0.511419447 0.500764875 0.511419447 4.52819302 56.3520303"></polygon>
                                    <path d="M44.4508736,56.8634497 L4.52819302,56.8634497 C4.26182872,56.8634497 4.02742814,56.6503583 4.01677357,56.383994 L0,0.554037734 C0,0.4155283 0.0426182872,0.266364295 0.138509433,0.159818577 C0.23440058,0.053272859 0.372910013,0 0.511419447,0 L30.1311291,0 C30.2270202,0 30.3122568,0.0213091436 30.3974934,0.0745820026 L41.1692655,6.55256166 C41.3184295,6.63779823 41.403666,6.78696224 41.4143206,6.95743539 L44.9729476,56.309412 C44.9729476,56.4479214 44.9303293,56.5970854 44.8344382,56.7036311 C44.738547,56.8101769 44.6000376,56.8634497 44.4615281,56.8634497 L44.4508736,56.8634497 Z M5.00764875,55.8299563 L43.8968358,55.8299563 L40.4021363,7.29838169 L29.9819651,1.03349347 L1.05480261,1.03349347 L4.99699418,55.8299563 L5.00764875,55.8299563 Z" id="形状" stroke="#FFA25E" fill="#FFA25E"></path>
                                </g>
                                <g transform="translate(29.614974, 0.010032)" fill="#FFA25E" id="形状" stroke="#FFA25E">
                                    <path d="M4.46900095,9.61104608 C4.27721866,9.61104608 4.08543637,9.49384579 4.00019979,9.31271807 L0.0473536525,0.7251332 C-0.0485374938,0.522696335 0.00473536525,0.277641184 0.175208514,0.128477178 C0.345681663,-0.0206868268 0.590736814,-0.0419959704 0.782519107,0.0752043195 L11.5542912,6.55318398 C11.7247643,6.65972969 11.8206555,6.85151199 11.7993464,7.05394885 C11.7780372,7.25638572 11.6288732,7.42685886 11.4370909,7.48013172 L4.61816496,9.58973694 C4.61816496,9.58973694 4.51161924,9.61104608 4.46900095,9.61104608 L4.46900095,9.61104608 Z M1.68815771,1.81189952 L4.75667439,8.46035233 L10.041342,6.83020284 L1.69881228,1.81189952 L1.68815771,1.81189952 Z"></path>
                                </g>
                            </g>
                            <g transform="translate(10.078503, 23.408094)" fill="#FFA25E" id="路径" stroke="#FFA25E">
                                <path d="M7.13928513,2.25876922 C7.2245217,3.50535412 6.28691938,4.51753845 5.05098905,4.51753845 C3.81505872,4.51753845 2.71763783,3.50535412 2.63240125,2.25876922 C2.54716468,1.01218432 3.484767,0 4.72069733,0 C5.95662766,0 7.05404855,1.01218432 7.13928513,2.25876922 Z"></path>
                                <path d="M21.7680122,2.25876922 C21.8532488,3.50535412 20.9156465,4.51753845 19.6797161,4.51753845 C18.4437858,4.51753845 17.3463649,3.50535412 17.2611283,2.25876922 C17.1758918,1.01218432 18.1134941,0 19.3494244,0 C20.5853547,0 21.6827756,1.01218432 21.7680122,2.25876922 Z"></path>
                                <path d="M25.9019861,16.8874963 C25.6356218,16.8874963 25.4118758,16.6850594 25.3905666,16.4080406 C25.1242023,12.7854862 19.4453156,9.83416978 12.7116262,9.83416978 C8.25801517,9.83416978 4.25189617,11.1553367 2.25949124,13.2969056 C1.37516178,14.2451625 0.970288051,15.2680014 1.04487005,16.3441131 C1.0661792,16.6317866 0.853087761,16.8768417 0.565414322,16.8981509 C0.277740884,16.91946 0.0326857322,16.7063686 0.0113765886,16.4186952 C-0.0845145576,15.0655645 0.426904889,13.7443976 1.50301664,12.5937039 C3.67654929,10.2603526 7.97034173,8.80067631 12.7116262,8.80067631 C20.0952444,8.80067631 26.1150775,12.1142481 26.4240601,16.3334586 C26.4453692,16.621132 26.2322778,16.8661872 25.9446044,16.8874963 L25.9019861,16.8874963 L25.9019861,16.8874963 Z"></path>
                            </g>
                            <path d="M8.90722203,21.0960522 C8.77936717,21.0960522 8.65151231,21.0534339 8.55562116,20.9575427 C8.34252972,20.7657604 8.33187515,20.4354687 8.52365744,20.2330319 L10.7824267,17.7931349 C10.974209,17.5800435 11.3045007,17.5693889 11.5069375,17.7611712 C11.720029,17.9529535 11.7306836,18.2832452 11.5389013,18.4856821 L9.28013204,20.925579 C9.17358632,21.0321247 9.03507689,21.0960522 8.89656746,21.0960522 L8.90722203,21.0960522 Z" id="路径" stroke="#FFA25E" fill="#FFA25E"></path>
                            <path d="M34.9150318,21.0960522 C34.7871769,21.0960522 34.6593221,21.0534339 34.5634309,20.9575427 L31.9530608,18.5176458 C31.7399694,18.3258635 31.7293148,17.9955718 31.9317517,17.7931349 C32.123534,17.5800435 32.4538257,17.5693889 32.6562626,17.7718258 L35.2666327,20.2117227 C35.4797241,20.403505 35.4903787,20.7337967 35.2879418,20.9362336 C35.1813961,21.0427793 35.0535412,21.0960522 34.9150318,21.0960522 Z" id="路径" stroke="#FFA25E" fill="#FFA25E"></path>
                        </g>
                        <g id="non-existent" transform="translate(0.000000, 70.164085)" fill="#FFA25E">
                            <path d="M1.265625,2.39648438 L1.35351562,3.27539062 C1.58398437,2.95898438 1.86230469,2.71386719 2.18847656,2.54003906 C2.51464844,2.36621094 2.87695312,2.27929688 3.27539062,2.27929688 C3.59960938,2.27929688 3.89550781,2.32617188 4.16308594,2.41992188 C4.43066406,2.51367188 4.66113281,2.66015625 4.85449219,2.859375 C5.04785156,3.05859375 5.19824219,3.31640625 5.30566406,3.6328125 C5.41308594,3.94921875 5.46679688,4.33007812 5.46679688,4.77539062 L5.46679688,8.73632812 L4.06640625,8.73632812 L4.06640625,4.79882812 C4.06640625,4.53710938 4.03613281,4.31835938 3.97558594,4.14257812 C3.91503906,3.96679688 3.82910156,3.82617188 3.71777344,3.72070312 C3.60644531,3.61523438 3.47070313,3.54003906 3.31054688,3.49511719 C3.15039062,3.45019531 2.96875,3.42773438 2.765625,3.42773438 C2.45703125,3.42773438 2.18847656,3.49609375 1.95996094,3.6328125 C1.73144531,3.76953125 1.546875,3.95507812 1.40625,4.18945312 L1.40625,8.73632812 L0,8.73632812 L0,2.39648438 L1.265625,2.39648438 Z M6.94335938,5.5078125 C6.94335938,5.05078125 7.01074219,4.625 7.14550781,4.23046875 C7.28027344,3.8359375 7.47363281,3.49414062 7.72558594,3.20507812 C7.97753906,2.91601562 8.28515625,2.68945312 8.6484375,2.52539062 C9.01171875,2.36132812 9.42382812,2.27929688 9.88476562,2.27929688 C10.3496094,2.27929688 10.7646484,2.36132812 11.1298828,2.52539062 C11.4951172,2.68945312 11.8037109,2.91601562 12.0556641,3.20507812 C12.3076172,3.49414062 12.5,3.8359375 12.6328125,4.23046875 C12.765625,4.625 12.8320312,5.05078125 12.8320312,5.5078125 L12.8320312,5.63085938 C12.8320312,6.09179688 12.765625,6.51953125 12.6328125,6.9140625 C12.5,7.30859375 12.3076172,7.64941406 12.0556641,7.93652344 C11.8037109,8.22363281 11.4960938,8.44921875 11.1328125,8.61328125 C10.7695312,8.77734375 10.3574219,8.859375 9.89648438,8.859375 C9.43164062,8.859375 9.01660156,8.77734375 8.65136719,8.61328125 C8.28613281,8.44921875 7.97753906,8.22363281 7.72558594,7.93652344 C7.47363281,7.64941406 7.28027344,7.30859375 7.14550781,6.9140625 C7.01074219,6.51953125 6.94335938,6.09179688 6.94335938,5.63085938 L6.94335938,5.5078125 Z M8.34375,5.63085938 C8.34375,5.91992188 8.37402344,6.19140625 8.43457031,6.4453125 C8.49511719,6.69921875 8.58886719,6.92285156 8.71582031,7.11621094 C8.84277344,7.30957031 9.00390625,7.46191406 9.19921875,7.57324219 C9.39453125,7.68457031 9.62695312,7.74023438 9.89648438,7.74023438 C10.1582031,7.74023438 10.3857422,7.68457031 10.5791016,7.57324219 C10.7724609,7.46191406 10.9326172,7.30957031 11.0595703,7.11621094 C11.1865234,6.92285156 11.2802734,6.69921875 11.3408203,6.4453125 C11.4013672,6.19140625 11.4316406,5.91992188 11.4316406,5.63085938 L11.4316406,5.5078125 C11.4316406,5.2265625 11.4013672,4.95898438 11.3408203,4.70507812 C11.2802734,4.45117188 11.1865234,4.22851562 11.0595703,4.03710938 C10.9326172,3.84570312 10.7724609,3.69335938 10.5791016,3.58007812 C10.3857422,3.46679688 10.1542969,3.41015625 9.88476562,3.41015625 C9.61914062,3.41015625 9.38867188,3.46679688 9.19335938,3.58007812 C8.99804688,3.69335938 8.83789062,3.84570312 8.71289062,4.03710938 C8.58789062,4.22851562 8.49511719,4.45117188 8.43457031,4.70507812 C8.37402344,4.95898438 8.34375,5.2265625 8.34375,5.5078125 L8.34375,5.63085938 Z M15.6679688,2.39648438 L15.7558594,3.27539062 C15.9863281,2.95898438 16.2646484,2.71386719 16.5908203,2.54003906 C16.9169922,2.36621094 17.2792969,2.27929688 17.6777344,2.27929688 C18.0019531,2.27929688 18.2978516,2.32617188 18.5654297,2.41992188 C18.8330078,2.51367188 19.0634766,2.66015625 19.2568359,2.859375 C19.4501953,3.05859375 19.6005859,3.31640625 19.7080078,3.6328125 C19.8154297,3.94921875 19.8691406,4.33007812 19.8691406,4.77539062 L19.8691406,8.73632812 L18.46875,8.73632812 L18.46875,4.79882812 C18.46875,4.53710938 18.4384766,4.31835938 18.3779297,4.14257812 C18.3173828,3.96679688 18.2314453,3.82617188 18.1201172,3.72070312 C18.0087891,3.61523438 17.8730469,3.54003906 17.7128906,3.49511719 C17.5527344,3.45019531 17.3710938,3.42773438 17.1679688,3.42773438 C16.859375,3.42773438 16.5908203,3.49609375 16.3623047,3.6328125 C16.1337891,3.76953125 15.9492188,3.95507812 15.8085938,4.18945312 L15.8085938,8.73632812 L14.4023438,8.73632812 L14.4023438,2.39648438 L15.6679688,2.39648438 Z M26.8476562,5.56054688 L22.1542969,5.56054688 L22.1542969,4.4296875 L26.8476562,4.4296875 L26.8476562,5.56054688 Z M31.7578125,8.85351562 C31.2890625,8.85351562 30.8613281,8.77539062 30.4746094,8.61914062 C30.0878906,8.46289062 29.7568359,8.24804688 29.4814453,7.97460938 C29.2060547,7.70117188 28.9921875,7.37792969 28.8398438,7.00488281 C28.6875,6.63183594 28.6113281,6.22851562 28.6113281,5.79492188 L28.6113281,5.5546875 C28.6113281,5.05078125 28.6923828,4.59765625 28.8544922,4.1953125 C29.0166016,3.79296875 29.2333984,3.44921875 29.5048828,3.1640625 C29.7763672,2.87890625 30.0927734,2.66015625 30.4541016,2.5078125 C30.8154297,2.35546875 31.1953125,2.27929688 31.59375,2.27929688 C32.0546875,2.27929688 32.4609375,2.35644531 32.8125,2.51074219 C33.1640625,2.66503906 33.4580078,2.88183594 33.6943359,3.16113281 C33.9306641,3.44042969 34.109375,3.77148438 34.2304688,4.15429688 C34.3515625,4.53710938 34.4121094,4.95703125 34.4121094,5.4140625 L34.4121094,6.00585938 L30.0175781,6.00585938 C30.0410156,6.25195312 30.1015625,6.48046875 30.1992188,6.69140625 C30.296875,6.90234375 30.4248047,7.08496094 30.5830078,7.23925781 C30.7412109,7.39355469 30.9267578,7.51464844 31.1396484,7.60253906 C31.3525391,7.69042969 31.5859375,7.734375 31.8398438,7.734375 C32.1953125,7.734375 32.5224609,7.6640625 32.8212891,7.5234375 C33.1201172,7.3828125 33.3632812,7.18945312 33.5507812,6.94335938 L34.3125,7.65820312 C34.2109375,7.81054688 34.0800781,7.95800781 33.9199219,8.10058594 C33.7597656,8.24316406 33.5722656,8.37011719 33.3574219,8.48144531 C33.1425781,8.59277344 32.9013672,8.68261719 32.6337891,8.75097656 C32.3662109,8.81933594 32.0742188,8.85351562 31.7578125,8.85351562 Z M31.5878906,3.41015625 C31.3925781,3.41015625 31.2109375,3.4453125 31.0429688,3.515625 C30.875,3.5859375 30.7246094,3.68847656 30.5917969,3.82324219 C30.4589844,3.95800781 30.3466797,4.12207031 30.2548828,4.31542969 C30.1630859,4.50878906 30.0976562,4.72851562 30.0585938,4.97460938 L33.0292969,4.97460938 L33.0292969,4.86914062 C33.0175781,4.68164062 32.9814453,4.50097656 32.9208984,4.32714844 C32.8603516,4.15332031 32.7714844,3.99804688 32.6542969,3.86132812 C32.5371094,3.72460938 32.3896484,3.61523438 32.2119141,3.53320312 C32.0341797,3.45117188 31.8261719,3.41015625 31.5878906,3.41015625 Z M38.7773438,4.54101562 L40.2890625,2.39648438 L41.8476562,2.39648438 L39.609375,5.51953125 L41.9179688,8.73632812 L40.3652344,8.73632812 L38.7949219,6.515625 L37.2304688,8.73632812 L35.6660156,8.73632812 L37.9746094,5.51953125 L35.7363281,2.39648438 L37.2890625,2.39648438 L38.7773438,4.54101562 Z M43.5117188,2.39648438 L46.8925781,2.39648438 L46.8925781,7.57617188 L48.7734375,7.57617188 L48.7734375,8.73632812 L43.5117188,8.73632812 L43.5117188,7.57617188 L45.4804688,7.57617188 L45.4804688,3.5625 L43.5117188,3.5625 L43.5117188,2.39648438 Z M45.3632812,0.755859375 C45.3632812,0.537109375 45.4335938,0.356445312 45.5742188,0.213867188 C45.7148438,0.0712890625 45.9121094,0 46.1660156,0 C46.4238281,0 46.6240234,0.0712890625 46.7666016,0.213867188 C46.9091797,0.356445312 46.9804688,0.537109375 46.9804688,0.755859375 C46.9804688,0.974609375 46.9091797,1.15527344 46.7666016,1.29785156 C46.6240234,1.44042969 46.4238281,1.51171875 46.1660156,1.51171875 C45.9121094,1.51171875 45.7148438,1.44042969 45.5742188,1.29785156 C45.4335938,1.15527344 45.3632812,0.974609375 45.3632812,0.755859375 Z M54.5390625,7.01953125 C54.5390625,6.9140625 54.5175781,6.81738281 54.4746094,6.72949219 C54.4316406,6.64160156 54.3544922,6.56152344 54.2431641,6.48925781 C54.1318359,6.41699219 53.9794922,6.34960938 53.7861328,6.28710938 C53.5927734,6.22460938 53.3457031,6.1640625 53.0449219,6.10546875 C52.6699219,6.02734375 52.3310547,5.93359375 52.0283203,5.82421875 C51.7255859,5.71484375 51.4658203,5.58398438 51.2490234,5.43164062 C51.0322266,5.27929688 50.8652344,5.10253906 50.7480469,4.90136719 C50.6308594,4.70019531 50.5722656,4.46679688 50.5722656,4.20117188 C50.5722656,3.94335938 50.6328125,3.69824219 50.7539062,3.46582031 C50.875,3.23339844 51.0478516,3.02929688 51.2724609,2.85351562 C51.4970703,2.67773438 51.7705078,2.53808594 52.0927734,2.43457031 C52.4150391,2.33105469 52.7753906,2.27929688 53.1738281,2.27929688 C53.5957031,2.27929688 53.9736328,2.33203125 54.3076172,2.4375 C54.6416016,2.54296875 54.9238281,2.68652344 55.1542969,2.86816406 C55.3847656,3.04980469 55.5615234,3.26367188 55.6845703,3.50976562 C55.8076172,3.75585938 55.8691406,4.01953125 55.8691406,4.30078125 L54.46875,4.30078125 C54.46875,4.17578125 54.4414062,4.05566406 54.3867188,3.94042969 C54.3320312,3.82519531 54.25,3.72265625 54.140625,3.6328125 C54.03125,3.54296875 53.8955078,3.47167969 53.7333984,3.41894531 C53.5712891,3.36621094 53.3847656,3.33984375 53.1738281,3.33984375 C52.9628906,3.33984375 52.7802734,3.36230469 52.6259766,3.40722656 C52.4716797,3.45214844 52.34375,3.51074219 52.2421875,3.58300781 C52.140625,3.65527344 52.0654297,3.74023438 52.0166016,3.83789062 C51.9677734,3.93554688 51.9433594,4.03710938 51.9433594,4.14257812 C51.9433594,4.24804688 51.9619141,4.34375 51.9990234,4.4296875 C52.0361328,4.515625 52.1054688,4.59375 52.2070312,4.6640625 C52.3085938,4.734375 52.4492188,4.79785156 52.6289062,4.85449219 C52.8085938,4.91113281 53.0410156,4.96484375 53.3261719,5.015625 C53.7246094,5.0859375 54.0830078,5.17382812 54.4013672,5.27929688 C54.7197266,5.38476562 54.9912109,5.51367188 55.2158203,5.66601562 C55.4404297,5.81835938 55.6132812,5.99902344 55.734375,6.20800781 C55.8554688,6.41699219 55.9160156,6.66210938 55.9160156,6.94335938 C55.9160156,7.22460938 55.8515625,7.48242188 55.7226562,7.71679688 C55.59375,7.95117188 55.4101562,8.15332031 55.171875,8.32324219 C54.9335938,8.49316406 54.6474609,8.625 54.3134766,8.71875 C53.9794922,8.8125 53.6054688,8.859375 53.1914062,8.859375 C52.7304688,8.859375 52.3242188,8.79785156 51.9726562,8.67480469 C51.6210938,8.55175781 51.3261719,8.390625 51.0878906,8.19140625 C50.8496094,7.9921875 50.6689453,7.765625 50.5458984,7.51171875 C50.4228516,7.2578125 50.3613281,7 50.3613281,6.73828125 L51.7207031,6.73828125 C51.7324219,6.93359375 51.7832031,7.09960938 51.8730469,7.23632812 C51.9628906,7.37304688 52.078125,7.48339844 52.21875,7.56738281 C52.359375,7.65136719 52.515625,7.71191406 52.6875,7.74902344 C52.859375,7.78613281 53.0332031,7.8046875 53.2089844,7.8046875 C53.6425781,7.8046875 53.9726562,7.73144531 54.1992188,7.58496094 C54.4257812,7.43847656 54.5390625,7.25 54.5390625,7.01953125 Z M60.4160156,0.861328125 L60.4160156,2.39648438 L62.8125,2.39648438 L62.8125,3.43945312 L60.4160156,3.43945312 L60.4160156,6.48046875 C60.4160156,6.71875 60.4443359,6.91601562 60.5009766,7.07226562 C60.5576172,7.22851562 60.6367188,7.35351562 60.7382812,7.44726562 C60.8398438,7.54101562 60.9589844,7.60644531 61.0957031,7.64355469 C61.2324219,7.68066406 61.3828125,7.69921875 61.546875,7.69921875 C61.6679688,7.69921875 61.7939453,7.69238281 61.9248047,7.67871094 C62.0556641,7.66503906 62.1826172,7.64941406 62.3056641,7.63183594 C62.4287109,7.61425781 62.5419922,7.59472656 62.6455078,7.57324219 C62.7490234,7.55175781 62.8359375,7.53125 62.90625,7.51171875 L63.0644531,8.47851562 C62.9628906,8.53710938 62.8408203,8.59082031 62.6982422,8.63964844 C62.5556641,8.68847656 62.4003906,8.72851562 62.2324219,8.75976562 C62.0644531,8.79101562 61.8896484,8.81542969 61.7080078,8.83300781 C61.5263672,8.85058594 61.3476562,8.859375 61.171875,8.859375 C60.8554688,8.859375 60.5654297,8.81542969 60.3017578,8.72753906 C60.0380859,8.63964844 59.8115234,8.50292969 59.6220703,8.31738281 C59.4326172,8.13183594 59.2841797,7.89355469 59.1767578,7.60253906 C59.0693359,7.31152344 59.015625,6.96289062 59.015625,6.55664062 L59.015625,3.43945312 L57.46875,3.43945312 L57.46875,2.39648438 L59.015625,2.39648438 L59.015625,0.861328125 L60.4160156,0.861328125 Z M67.7636719,8.85351562 C67.2949219,8.85351562 66.8671875,8.77539062 66.4804688,8.61914062 C66.09375,8.46289062 65.7626953,8.24804688 65.4873047,7.97460938 C65.2119141,7.70117188 64.9980469,7.37792969 64.8457031,7.00488281 C64.6933594,6.63183594 64.6171875,6.22851562 64.6171875,5.79492188 L64.6171875,5.5546875 C64.6171875,5.05078125 64.6982422,4.59765625 64.8603516,4.1953125 C65.0224609,3.79296875 65.2392578,3.44921875 65.5107422,3.1640625 C65.7822266,2.87890625 66.0986328,2.66015625 66.4599609,2.5078125 C66.8212891,2.35546875 67.2011719,2.27929688 67.5996094,2.27929688 C68.0605469,2.27929688 68.4667969,2.35644531 68.8183594,2.51074219 C69.1699219,2.66503906 69.4638672,2.88183594 69.7001953,3.16113281 C69.9365234,3.44042969 70.1152344,3.77148438 70.2363281,4.15429688 C70.3574219,4.53710938 70.4179688,4.95703125 70.4179688,5.4140625 L70.4179688,6.00585938 L66.0234375,6.00585938 C66.046875,6.25195312 66.1074219,6.48046875 66.2050781,6.69140625 C66.3027344,6.90234375 66.4306641,7.08496094 66.5888672,7.23925781 C66.7470703,7.39355469 66.9326172,7.51464844 67.1455078,7.60253906 C67.3583984,7.69042969 67.5917969,7.734375 67.8457031,7.734375 C68.2011719,7.734375 68.5283203,7.6640625 68.8271484,7.5234375 C69.1259766,7.3828125 69.3691406,7.18945312 69.5566406,6.94335938 L70.3183594,7.65820312 C70.2167969,7.81054688 70.0859375,7.95800781 69.9257812,8.10058594 C69.765625,8.24316406 69.578125,8.37011719 69.3632812,8.48144531 C69.1484375,8.59277344 68.9072266,8.68261719 68.6396484,8.75097656 C68.3720703,8.81933594 68.0800781,8.85351562 67.7636719,8.85351562 Z M67.59375,3.41015625 C67.3984375,3.41015625 67.2167969,3.4453125 67.0488281,3.515625 C66.8808594,3.5859375 66.7304688,3.68847656 66.5976562,3.82324219 C66.4648438,3.95800781 66.3525391,4.12207031 66.2607422,4.31542969 C66.1689453,4.50878906 66.1035156,4.72851562 66.0644531,4.97460938 L69.0351562,4.97460938 L69.0351562,4.86914062 C69.0234375,4.68164062 68.9873047,4.50097656 68.9267578,4.32714844 C68.8662109,4.15332031 68.7773438,3.99804688 68.6601562,3.86132812 C68.5429688,3.72460938 68.3955078,3.61523438 68.2177734,3.53320312 C68.0400391,3.45117188 67.8320312,3.41015625 67.59375,3.41015625 Z M73.2773438,2.39648438 L73.3652344,3.27539062 C73.5957031,2.95898438 73.8740234,2.71386719 74.2001953,2.54003906 C74.5263672,2.36621094 74.8886719,2.27929688 75.2871094,2.27929688 C75.6113281,2.27929688 75.9072266,2.32617188 76.1748047,2.41992188 C76.4423828,2.51367188 76.6728516,2.66015625 76.8662109,2.859375 C77.0595703,3.05859375 77.2099609,3.31640625 77.3173828,3.6328125 C77.4248047,3.94921875 77.4785156,4.33007812 77.4785156,4.77539062 L77.4785156,8.73632812 L76.078125,8.73632812 L76.078125,4.79882812 C76.078125,4.53710938 76.0478516,4.31835938 75.9873047,4.14257812 C75.9267578,3.96679688 75.8408203,3.82617188 75.7294922,3.72070312 C75.6181641,3.61523438 75.4824219,3.54003906 75.3222656,3.49511719 C75.1621094,3.45019531 74.9804688,3.42773438 74.7773438,3.42773438 C74.46875,3.42773438 74.2001953,3.49609375 73.9716797,3.6328125 C73.7431641,3.76953125 73.5585938,3.95507812 73.4179688,4.18945312 L73.4179688,8.73632812 L72.0117188,8.73632812 L72.0117188,2.39648438 L73.2773438,2.39648438 Z M82.0195312,0.861328125 L82.0195312,2.39648438 L84.4160156,2.39648438 L84.4160156,3.43945312 L82.0195312,3.43945312 L82.0195312,6.48046875 C82.0195312,6.71875 82.0478516,6.91601562 82.1044922,7.07226562 C82.1611328,7.22851562 82.2402344,7.35351562 82.3417969,7.44726562 C82.4433594,7.54101562 82.5625,7.60644531 82.6992188,7.64355469 C82.8359375,7.68066406 82.9863281,7.69921875 83.1503906,7.69921875 C83.2714844,7.69921875 83.3974609,7.69238281 83.5283203,7.67871094 C83.6591797,7.66503906 83.7861328,7.64941406 83.9091797,7.63183594 C84.0322266,7.61425781 84.1455078,7.59472656 84.2490234,7.57324219 C84.3525391,7.55175781 84.4394531,7.53125 84.5097656,7.51171875 L84.6679688,8.47851562 C84.5664062,8.53710938 84.4443359,8.59082031 84.3017578,8.63964844 C84.1591797,8.68847656 84.0039062,8.72851562 83.8359375,8.75976562 C83.6679688,8.79101562 83.4931641,8.81542969 83.3115234,8.83300781 C83.1298828,8.85058594 82.9511719,8.859375 82.7753906,8.859375 C82.4589844,8.859375 82.1689453,8.81542969 81.9052734,8.72753906 C81.6416016,8.63964844 81.4150391,8.50292969 81.2255859,8.31738281 C81.0361328,8.13183594 80.8876953,7.89355469 80.7802734,7.60253906 C80.6728516,7.31152344 80.6191406,6.96289062 80.6191406,6.55664062 L80.6191406,3.43945312 L79.0722656,3.43945312 L79.0722656,2.39648438 L80.6191406,2.39648438 L80.6191406,0.861328125 L82.0195312,0.861328125 Z" id="形状结合"></path>
                        </g>
                    </g>
                </g>
                <g id="编组" transform="translate(70.224624, 261.197723)">
                    <path d="M23.8,89.5422774 C23.8,89.5422774 24.26,63.7422774 12.12,52.1622774 C-0.02,40.5822774 20.72,50.3422774 25.24,62.5022774 C25.24,62.5022774 24.04,39.4222774 11.73,25.4022774 C-0.58,11.3822774 19.25,21.0122774 23.87,37.0222774 C23.87,37.0222774 22.84,16.4222774 16.41,5.98227743 C9.98,-4.45772257 18.78,1.35227743 22.99,7.86227743 C27.2,14.3722774 26.84,32.5822774 26.84,32.5822774 C26.84,32.5822774 28.03,-1.18772257 35.56,0.0322774252 C43.09,1.25227743 29.63,25.8222774 29.32,37.3122774 C29.32,37.3122774 34.75,20.8822774 41.64,22.7522774 C48.53,24.6222774 32.79,29.2522774 29.71,52.7822774 L29.13,63.6522774 C29.13,63.6522774 33.94,47.5422774 39.82,51.2022774 C45.7,54.8622774 27.45,66.6422774 27.13,89.7122774 L23.8,89.5322774 L23.8,89.5422774 Z" id="路径" fill="#415BC9"></path>
                    <path d="M23.8,89.5422774 C23.8,89.5422774 24.26,63.7422774 12.12,52.1622774 C-0.02,40.5822774 20.72,50.3422774 25.24,62.5022774 C25.24,62.5022774 24.04,39.4222774 11.73,25.4022774 C-0.58,11.3822774 19.25,21.0122774 23.87,37.0222774 C23.87,37.0222774 22.84,16.4222774 16.41,5.98227743 C9.98,-4.45772257 18.78,1.35227743 22.99,7.86227743 C27.2,14.3722774 26.84,32.5822774 26.84,32.5822774 C26.84,32.5822774 28.03,-1.18772257 35.56,0.0322774252 C43.09,1.25227743 29.63,25.8222774 29.32,37.3122774 C29.32,37.3122774 34.75,20.8822774 41.64,22.7522774 C48.53,24.6222774 32.79,29.2522774 29.71,52.7822774 L29.13,63.6522774 C29.13,63.6522774 33.94,47.5422774 39.82,51.2022774 C45.7,54.8622774 27.45,66.6422774 27.13,89.7122774 L23.8,89.5322774 L23.8,89.5422774 Z" id="路径" fill="#5365EA" opacity="0.2"></path>
                    <polygon id="路径" fill="#0F1358" points="38.9 115.212277 7.99 115.212277 3.88 85.1522774 43.01 85.1522774"></polygon>
                    <polygon id="路径" fill="#FFFFFF" opacity="0.2" points="38.9 115.212277 7.99 115.212277 3.88 85.1522774 43.01 85.1522774"></polygon>
                    <path d="M24.71,88.4122774 C24.71,88.4122774 21.48,67.7622774 29.94,57.1122774 C38.4,46.4722774 22.83,56.6022774 20.56,66.8722774 C20.56,66.8722774 18.96,48.2222774 27.29,35.6022774 C35.62,22.9822774 20.76,32.9122774 18.84,46.2722774 C18.84,46.2722774 17.38,29.6322774 21.39,20.5322774 C25.39,11.4322774 18.97,17.0822774 16.32,22.7722774 C13.66,28.4622774 15.97,43.0422774 15.97,43.0422774 C15.97,43.0422774 11.27,16.0722774 5.36,17.8822774 C-0.55,19.6922774 12.98,37.9222774 14.5,47.1122774 C14.5,47.1122774 8.32,34.5222774 3,36.7922774 C-2.32,39.0622774 10.83,41.0322774 15.9,59.5722774 L17.57,68.2322774 C17.57,68.2322774 11.93,55.8322774 7.61,59.4222774 C3.3,63.0122774 19.25,70.4422774 22.06,88.9222774 L24.71,88.4122774 L24.71,88.4122774 Z" id="路径" fill="#686FFF"></path>
                    <path d="M0,82.7122774 L0,85.5722774 C0,87.4822774 1.55,89.0322774 3.46,89.0322774 L43.81,89.0322774 C45.72,89.0322774 47.27,87.4822774 47.27,85.5722774 L47.27,82.7122774 L0,82.7122774 L0,82.7122774 Z" id="路径" fill="#0F1358"></path>
                </g>
                <g id="编组" transform="translate(423.319086, 236.322278) scale(-1, 1) translate(-423.319086, -236.322278) translate(387.926714, 96.234556)">
                    <g transform="translate(51.993622, 38.815444)" id="路径">
                        <path d="M0.00637755102,19.09 C-0.053622449,19.6 0.316377551,20.01 0.836377551,20.01 L9.97637755,20.01 C10.4863776,20.01 10.9563776,19.6 11.0063776,19.09 L13.0463776,1.05 C13.1063776,0.54 12.7363776,0.01 12.2163776,0.01 L3.07637755,0.01 C2.56637755,0.01 2.09637755,0.55 2.04637755,1.05 L0.00637755102,19.09 Z" fill="#0F1358"></path>
                        <path d="M3.05637755,0.93 L0.986377551,19.14 C0.926377551,19.65 1.19637755,20 1.70637755,20 L9.45637755,20 C9.97637755,20 10.9263776,19.71 10.9863776,19.2 L13.0563776,0.92 C13.1163776,0.41 12.2263776,0 11.7063776,0 L3.95637755,0 C3.44637755,0 3.11637755,0.41 3.05637755,0.92 L3.05637755,0.93 Z" fill="#FFFFFF" opacity="0.5"></path>
                    </g>
                    <path d="M47.96,55.955444 C49.97,59.835444 52.25,63.965444 54.58,67.705444 C56.67,70.955444 58.87,74.465444 61.78,76.795444 C62.09,77.045444 62.3,77.065444 61.92,77.075444 C61.06,77.025444 59.77,77.525444 59.44,78.195444 C60.54,76.895444 61.02,74.105444 61.5,72.235444 C62.44,67.925444 63.04,63.225444 63.72,58.645444 C64.15,55.215444 69.05,55.095444 69.66,58.465444 C71.04,66.995444 73.71,90.785444 59.05,87.525444 C49.42,84.565444 41.43,69.745444 37.17,61.155444 C34.13,53.945444 44.25,49.075444 47.98,55.955444 L47.98,55.955444 L47.96,55.955444 Z" id="路径" fill="#686FFF"></path>
                    <path d="M62.64,45.675444 L65.17,46.315444 C66.12,46.555444 66.9,47.245444 67.25,48.165444 L68.91,52.445444 C69.57,54.155444 69.37,56.085444 68.36,57.615444 L67.73,58.565444 C63.46,57.785444 59.42,53.795444 59.42,53.795444 L58.14,52.785444 C57,51.885444 56.78,50.335444 57.64,49.225444 L59.61,46.665444 C60.29,45.785444 61.49,45.395444 62.63,45.685444 L62.64,45.675444 Z" id="路径" stroke="#0F1358" fill="#FFFFFF"></path>
                    <g transform="translate(62.790000, 55.385444)" id="路径">
                        <path d="M0.45,5.5 C0.45,5.5 5.12,5.13 7.23,3.89 L6.64,0 L0,1.46 L0.45,5.5 Z" fill="#407BFF"></path>
                        <path d="M0.45,5.5 C0.45,5.5 5.12,5.13 7.23,3.89 L6.64,0 L0,1.46 L0.45,5.5 Z" fill="#407BFF"></path>
                        <path d="M0.45,5.5 C0.45,5.5 5.12,5.13 7.23,3.89 L6.64,0 L0,1.46 L0.45,5.5 Z" fill="#FFFFFF" opacity="0.6"></path>
                    </g>
                    <path d="M53.81,84.795444 C53.24,84.355444 52.72,83.905444 52.22,83.455444 C51.14,82.455444 50.19,81.455444 49.29,80.435444 C47.51,78.415444 46.01,76.325444 44.57,74.235444 C44.46,74.075444 44.35,73.905444 44.25,73.745444 C45.95,70.975444 47.69,69.135444 47.69,69.135444 C47.69,69.135444 52.82,75.585444 53.81,84.795444 L53.81,84.795444 Z" id="路径" fill="#000000" opacity="0.2"></path>
                    <path d="M48.66,105.385444 L14.82,105.385444 C14.91,101.515444 14.89,97.745444 14.76,94.135444 C14.62,89.725444 14.33,85.535444 13.96,81.645444 C13.6,77.765444 13.15,74.175444 12.69,70.955444 C12.57,70.135444 12.45,69.325444 12.33,68.555444 C10.88,59.395444 9.37,53.785444 9.37,53.785444 C27.83,44.875444 45.18,53.045444 45.18,53.045444 C54,65.805444 48.66,105.385444 48.66,105.385444 L48.66,105.385444 Z" id="路径" fill="#686FFF"></path>
                    <path d="M41.14,69.275444 C41.14,69.275444 31.71,106.045444 14.76,94.135444 C14.62,89.725444 14.33,85.535444 13.96,81.645444 C13.6,77.765444 13.15,74.175444 12.69,70.955444 C12.57,70.135444 12.45,69.325444 12.33,68.555444 C14.84,65.385444 17.32,63.395444 17.32,63.395444 C17.32,63.395444 21.98,72.015444 24.31,79.095444 C24.31,79.095444 35.18,64.785444 37.16,64.455444 C39.14,64.125444 41.14,69.275444 41.14,69.275444 L41.14,69.275444 Z" id="路径" fill="#000000" opacity="0.2"></path>
                    <path d="M63.9,188.845444 C63.46,189.385444 63.02,189.905444 62.58,190.425444 C60.13,193.935444 57.22,198.005444 54.03,202.405444 C50.29,207.585444 46.17,213.205444 42.01,218.905444 C40.57,220.875444 39.12,222.865444 37.68,224.835444 C33.4,230.705444 29.19,236.505444 25.41,241.825444 L25.41,241.825444 C24.44,243.195444 23.5,244.535444 22.6,245.825444 C15.9,255.355444 11.09,262.755444 10.54,265.175444 C9.57,266.185444 5.6,263.355444 5.12,261.875444 C5.12,261.875444 9.53,246.325444 18.71,226.905444 C19.35,225.545444 20.01,224.165444 20.7,222.775444 C25.11,213.855444 30.49,204.315444 36.86,195.215444 C37.67,194.045444 38.5,192.895444 39.35,191.745444 C42.31,187.735444 45.46,183.855444 48.82,180.175444 C47.43,178.045444 46.1,175.975444 44.84,173.925444 C44.21,172.905444 43.59,171.895444 42.99,170.895444 L42.98,170.895444 C40.98,167.575444 39.13,164.355444 37.42,161.255444 C37.02,160.535444 36.64,159.825444 36.26,159.125444 C31.26,149.865444 27.55,141.665444 24.8,134.775444 C24.63,134.355444 24.47,133.935444 24.31,133.525444 C18.77,119.355444 17.45,111.075444 17.45,111.075444 L38.14,106.925444 L40.1,106.535444 L46.23,105.315444 C46.23,105.315444 49.8,115.905444 54.05,130.065444 C54.42,131.295444 54.79,132.555444 55.17,133.835444 C56.74,139.155444 58.37,144.875444 59.91,150.645444 C61.23,155.585444 62.5,160.555444 63.61,165.375444 C63.68,165.685444 63.75,165.985444 63.82,166.295444 C64.75,170.285444 65.56,174.155444 66.21,177.775444 L66.23,177.835444 C67.29,181.665444 66.44,185.785444 63.9,188.845444 L63.9,188.845444 Z" id="路径" stroke="#0F1358" fill="#FFFFFF"></path>
                    <path d="M42.01,218.905444 C40.57,220.875444 39.12,222.865444 37.68,224.835444 C33.4,230.705444 29.19,236.505444 25.41,241.825444 L25.41,241.825444 C24.44,243.195444 23.5,244.535444 22.6,245.825444 C21.43,240.925444 19.96,234.235444 18.71,226.905444 C19.35,225.545444 20.01,224.165444 20.7,222.775444 C25.11,213.855444 30.49,204.315444 36.86,195.215444 C37.67,194.045444 38.5,192.895444 39.35,191.745444 C39.75,198.115444 40.55,208.605444 42.01,218.905444 Z" id="路径" fill="#000000" opacity="0.2"></path>
                    <g transform="translate(0.000000, 261.245444)" fill="#0F1358" id="路径">
                        <path d="M0,9.07 L1.23,9.8 L2.48,8.49 L5.45,12.76 L15.75,18.93 C15.75,18.93 18.37,18.26 14.25,14.01 C14.06,13.82 13.88,13.59 13.71,13.33 C11.83,10.54 10.59,4.16 10.59,4.16 L4.94,0.77 C4.94,0.77 4.57,0.93 3.99,1.31 C2.63,2.18 0,4.16 0,9.06 L0,9.07 Z"></path>
                        <path d="M3.99,1.31 L3.99,1.33 C5.22,0.94 6.43,6.63 8.18,9.37 C9.74,11.81 11.94,13.79 13.72,13.33 C11.84,10.54 10.93,2.72 10.93,2.72 L6.38,0 C6.38,0 4.57,0.95 3.99,1.32 L3.99,1.31 Z"></path>
                    </g>
                    <path d="M35.78,272.135444 C35.78,272.135444 30.31,258.915444 25.41,241.835444 C23.68,235.815444 22.02,229.335444 20.7,222.775444 C18.03,209.555444 16.71,196.055444 18.88,185.615444 C17.66,181.325444 16.59,177.255444 15.67,173.395444 C15.44,172.445444 15.22,171.505444 15.01,170.575444 L15,170.575444 C11.89,157.005444 10.51,146.025444 10.12,137.265444 C10.12,137.225444 10.12,137.175444 10.11,137.135444 C9.16,114.355444 15.01,106.525444 15.01,106.525444 L40.38,101.545444 C40.38,101.545444 40.32,102.665444 40.21,104.645444 C40.18,105.205444 40.14,105.835444 40.1,106.535444 C39.81,111.415444 39.36,119.455444 38.88,128.745444 C38.82,129.985444 38.75,131.255444 38.69,132.535444 C38.31,140.315444 37.91,148.745444 37.59,156.805444 C37.53,158.305444 37.47,159.785444 37.42,161.255444 C37.28,164.905444 37.16,168.435444 37.08,171.745444 C37.07,172.095444 37.06,172.435444 37.05,172.775444 C36.97,175.685444 36.9,178.405444 36.87,180.875444 C36.82,185.245444 36.81,190.095444 36.86,195.215444 C36.94,204.555444 37.2,214.825444 37.68,224.835444 C38.57,243.525444 40.22,261.345444 42.92,270.685444 C41.62,271.835444 38.92,272.475444 35.78,272.135444 Z" id="路径" stroke="#0F1358" fill="#FFFFFF"></path>
                    <path d="M12.68,70.955444 C13.14,74.175444 13.59,77.765444 13.95,81.645444 C15.5,78.565444 17.33,71.205444 14.91,63.395444 L12.68,70.955444 L12.68,70.955444 Z" id="路径" fill="#000000" opacity="0.2"></path>
                    <path d="M47.29,55.3953336 L44.68,55.415444 C43.7,55.415444 42.78,55.905444 42.21,56.705444 L39.57,60.465444 C38.51,61.965444 38.25,63.885444 38.87,65.615444 L39.25,66.685444 C43.58,66.955444 48.46,64.045444 48.46,64.045444 L49.94,63.375444 C51.26,62.775444 51.84,61.325444 51.28,60.035444 L49.98,57.075444 C49.53,56.055444 48.46,55.385444 47.28,55.3953336 L47.29,55.3953336 Z" id="路径" stroke="#0F1358" fill="#FFFFFF"></path>
                    <path d="M26.86,47.295444 C16.25,47.295444 14.91,56.025444 14.91,56.025444 L19.87,53.885444 L34.45,63.635444 L38.03,53.785444 L42.53,54.625444 C42.53,54.625444 36.07,47.295444 26.85,47.285444 L26.86,47.295444 Z" id="路径" fill="#407BFF"></path>
                    <path d="M26.86,47.295444 C16.25,47.295444 14.91,56.025444 14.91,56.025444 L19.87,53.885444 L34.45,63.635444 L38.03,53.785444 L42.53,54.625444 C42.53,54.625444 36.07,47.295444 26.85,47.285444 L26.86,47.295444 Z" id="路径" fill="#FFFFFF" opacity="0.6"></path>
                    <g transform="translate(34.342182, 268.745444)" fill="#0F1358" id="路径">
                        <path d="M1.50781798,11.06 L2.93781798,11.06 L3.33781798,9.29 L8.07781798,11.43 L20.087818,11.43 C20.087818,11.43 21.997818,9.51 16.277818,7.98 C16.017818,7.91 15.747818,7.81 15.467818,7.67 C12.417818,6.24 8.07781798,1.41 8.07781798,1.41 L1.48781798,1.41 C1.48781798,1.41 1.25781798,1.74 0.947817983,2.36 C0.227817983,3.81 -1.01218202,6.85 1.50781798,11.06 L1.50781798,11.06 Z"></path>
                        <path d="M0.947817983,2.36 L0.947817983,2.38 C1.81781798,1.41 5.77781798,5.67 8.67781798,7.12 C11.267818,8.41 14.177818,8.98 15.467818,7.67 C12.417818,6.24 7.61781798,0 7.61781798,0 L2.31781798,0 C2.31781798,0 1.25781798,1.74 0.947817983,2.36 L0.947817983,2.36 Z"></path>
                    </g>
                    <g transform="translate(13.580000, 102.925444)">
                        <polygon id="路径" fill="#407BFF" points="11.45 3.52 0 3.52 0.69 0.25 11.45 0.25"></polygon>
                        <polygon id="路径" fill="#407BFF" points="32.24 0.25 35.67 0.25 35.97 3.52 32.24 3.52"></polygon>
                        <rect id="矩形" fill="#407BFF" x="12.56" y="0.25" width="18.54" height="3.26"></rect>
                        <polygon id="路径" fill="#FFFFFF" opacity="0.6" points="11.45 3.52 0 3.52 0.69 0.25 11.45 0.25"></polygon>
                        <polygon id="路径" fill="#FFFFFF" opacity="0.6" points="32.24 0.25 35.67 0.25 35.97 3.52 32.24 3.52"></polygon>
                        <rect id="矩形" fill="#FFFFFF" opacity="0.6" x="12.56" y="0.25" width="18.54" height="3.26"></rect>
                        <rect id="矩形" fill="#FFFFFF" transform="translate(23.380000, 1.880000) rotate(180.000000) translate(-23.380000, -1.880000) " x="20.25" y="0" width="6.26" height="3.76" rx="0.56"></rect>
                    </g>
                    <path d="M63.61,165.375444 C57.76,167.935444 50.41,169.695444 42.99,170.895444 L42.98,170.895444 C40.98,167.575444 39.13,164.355444 37.42,161.255444 C37.28,164.905444 37.16,168.435444 37.08,171.745444 C28.88,172.775444 21.08,173.215444 15.67,173.395444 C15.44,172.445444 15.22,171.505444 15.01,170.575444 L15,170.575444 C11.89,157.005444 10.51,146.025444 10.12,137.265444 C10.12,137.225444 10.12,137.175444 10.11,137.135444 L24.8,134.775444 L38.69,132.535444 L54.05,130.065444 C54.42,131.295444 54.79,132.555444 55.17,133.835444 C56.74,139.155444 58.37,144.875444 59.91,150.645444 C61.23,155.585444 62.5,160.555444 63.61,165.375444 L63.61,165.375444 Z" id="路径" fill="#000000" opacity="0.2"></path>
                    <path d="M14.86,102.665444 L13.94,107.055444 C13.94,107.055444 1.01,125.435444 10.76,169.665444 C10.76,169.665444 39.21,168.825444 65.06,163.285444 C65.06,163.285444 55.26,120.845444 49.19,106.345444 L48.98,102.665444 L14.86,102.665444 Z" id="路径" fill="#0F1358"></path>
                    <g transform="translate(20.300000, 33.265444)" id="路径">
                        <path d="M15.9,17.89 C15.9,17.89 13.69,29.71 13.69,29.79 L0,17.89 C2.53,15.3 2.16,9.27 1.22,4.27 C1.22,4.27 1.23,4.27 1.22,4.27 C0.93,2.7 0.58,1.23 0.25,0 L10.62,8.34 C10.3,10.16 10.17,12.03 10.67,13.65 C11.26,15.58 12.75,17.16 15.9,17.9 L15.9,17.89 Z" stroke="#0F1358" fill="#FFFFFF"></path>
                        <path d="M10.67,13.64 C3.65,13.31 1.22,4.27 1.22,4.27 C1.22,4.27 1.23,4.27 1.22,4.27 C0.93,2.7 0.58,1.23 0.25,0 L10.62,8.34 C10.3,10.16 10.17,12.03 10.67,13.65 L10.67,13.64 Z" fill="#000000" opacity="0.2"></path>
                    </g>
                    <g transform="translate(8.034254, 0.000000)" id="路径">
                        <path d="M34.8057456,22.695444 C34.8057456,22.695444 38.7957456,21.595444 37.9057456,18.825444 C37.0157456,16.055444 35.6357456,15.955444 35.6357456,15.955444 C35.6357456,15.955444 38.0057456,12.595444 36.4257456,8.83544404 C34.8457456,5.07544404 30.8457456,2.10544404 27.0157456,1.02544404 C23.1757456,-0.064555962 18.8557456,-0.264555962 14.8857456,0.325444038 C10.9157456,0.915444038 6.16574559,4.64544404 3.98574559,8.36544404 C1.80574559,12.085444 1.61574559,13.875444 0.425745592,17.785444 C-0.764254408,21.685444 0.825745592,25.675444 1.71574559,28.725444 C2.60574559,31.775444 4.78574559,32.765444 7.25574559,35.435444 C9.72574559,38.105444 18.7057456,35.435444 18.7057456,35.435444 L34.8157456,22.695444 L34.8057456,22.695444 Z" fill="#0F1358"></path>
                        <path d="M24.7757456,15.395444 C33.0157456,16.585444 35.0357456,21.385444 34.4057456,29.965444 C33.6257456,40.685444 30.1857456,47.885444 20.2057456,44.135444 C6.65574559,39.035444 11.0857456,13.425444 24.7657456,15.395444 L24.7757456,15.395444 Z" stroke="#0F1358" fill="#FFFFFF"></path>
                        <path d="M29.1457456,28.725444 L29.1557456,28.725444 C29.1557456,28.725444 29.9857456,31.045444 31.0557456,32.485444 C31.0557456,32.485444 30.1857456,33.505444 28.7457456,33.105444" stroke="#0F1358" fill="#FFFFFF"></path>
                        <g transform="translate(22.552832, 25.432426)" fill="#263238">
                            <path d="M1.65291354,1.89301801 C1.57291354,2.57301801 1.13291354,3.08301801 0.682913541,3.02301801 C0.232913541,2.97301801 -0.067086459,2.37301801 0.012913541,1.69301801 C0.092913541,1.01301801 0.532913541,0.503018006 0.982913541,0.563018006 C1.43291354,0.613018006 1.73291354,1.21301801 1.65291354,1.89301801 Z"></path>
                            <path d="M0.782913541,0.573018006 L2.33291354,0.173018006 C2.33291354,0.173018006 1.44291354,1.32301801 0.782913541,0.573018006 Z"></path>
                        </g>
                        <g transform="translate(31.012832, 26.312426)" fill="#263238">
                            <path d="M1.65291354,1.89301801 C1.57291354,2.57301801 1.13291354,3.08301801 0.682913541,3.02301801 C0.232913541,2.97301801 -0.067086459,2.37301801 0.012913541,1.69301801 C0.092913541,1.01301801 0.532913541,0.503018006 0.982913541,0.563018006 C1.43291354,0.613018006 1.73291354,1.21301801 1.65291354,1.89301801 Z"></path>
                            <path d="M0.792913541,0.573018006 L2.34291354,0.173018006 C2.34291354,0.173018006 1.45291354,1.32301801 0.792913541,0.573018006 Z"></path>
                        </g>
                        <path d="M21.1857456,22.705444 C21.0857456,22.705444 20.9957456,22.665444 20.9257456,22.595444 C20.7957456,22.455444 20.8057456,22.225444 20.9457456,22.095444 C22.5557456,20.615444 24.9357456,21.255444 25.0357456,21.285444 C25.2257456,21.335444 25.3357456,21.535444 25.2857456,21.725444 C25.2357456,21.915444 25.0357456,22.025444 24.8457456,21.975444 C24.8257456,21.975444 22.7457456,21.415444 21.4257456,22.625444 C21.3557456,22.685444 21.2757456,22.715444 21.1857456,22.715444 L21.1857456,22.705444 Z" fill="#0F1358"></path>
                        <path d="M34.1757456,23.645444 C34.0957456,23.645444 34.0057456,23.615444 33.9357456,23.555444 C32.4557456,22.225444 31.1157456,22.475444 31.0557456,22.485444 C30.8657456,22.525444 30.6757456,22.395444 30.6357456,22.215444 C30.5957456,22.025444 30.7157456,21.835444 30.9057456,21.795444 C30.9757456,21.785444 32.6357456,21.445444 34.4057456,23.025444 C34.5557456,23.155444 34.5657456,23.375444 34.4357456,23.525444 C34.3657456,23.605444 34.2657456,23.645444 34.1757456,23.645444 L34.1757456,23.645444 Z" fill="#0F1358"></path>
                        <path d="M13.7657456,27.985444 C13.7657456,27.985444 18.5957456,21.765444 18.7657456,16.455444 C18.7657456,16.455444 36.0657456,12.145444 34.4757456,28.835444 C34.4757456,28.835444 38.1957456,14.345444 24.0757456,11.975444 C9.97574559,9.60544404 7.02574559,30.335444 13.4457456,37.575444 C13.4457456,37.575444 10.7657456,31.885444 13.7657456,27.995444 L13.7657456,27.985444 Z" fill="#263238"></path>
                        <path d="M14.8557456,29.915444 C14.9957456,28.575444 13.9457456,26.135444 11.4357456,26.045444 C8.84574559,25.955444 6.86574559,31.025444 13.0357456,33.205444 C13.9257456,33.515444 14.5657456,32.705444 14.8457456,29.915444 L14.8557456,29.915444 Z" fill="#FFFFFF"></path>
                        <path d="M27.5644239,39.0510789 C26.7444239,39.0510789 23.7644239,38.8410789 22.8544239,35.7910789 C22.7944239,35.6010789 22.9044239,35.4110789 23.0944239,35.3510789 C23.2844239,35.3010789 23.4844239,35.4010789 23.5344239,35.5910789 C24.4244239,38.5610789 27.5944239,38.3510789 27.7244239,38.3410789 C27.9244239,38.3310789 28.0944239,38.4710789 28.1044239,38.6710789 C28.1244239,38.8610789 27.9744239,39.0310789 27.7844239,39.0510789 C27.7844239,39.0510789 27.7044239,39.0510789 27.5744239,39.0510789 L27.5644239,39.0510789 Z" fill="#0F1358" transform="translate(25.472112, 37.194683) scale(1, -1) rotate(-40.000000) translate(-25.472112, -37.194683) "></path>
                        <path d="M10.9957456,24.675444 C13.9057456,14.575444 29.8957456,7.34544404 34.5157456,19.815444 C34.5157456,19.815444 33.7457456,15.285444 29.8957456,11.785444 C29.8957456,11.785444 14.8657456,5.97544404 10.5557456,23.295444 L10.9857456,24.675444 L10.9957456,24.675444 Z" fill="#686FFF"></path>
                    </g>
                    <path d="M16.9,60.055444 C19.34,67.945444 21.25,76.495444 24.89,83.845444 C24.67,83.685444 24.05,83.265444 23.41,83.115444 C23.23,83.065444 22.97,83.025444 22.79,83.025444 C22.45,83.025444 22.21,83.065444 22.05,83.115444 C21.76,83.225444 21.83,83.265444 22.02,83.175444 C24.25,81.855444 26.15,79.245444 27.95,76.945444 C30.69,73.315444 33.3,69.275444 35.88,65.355444 C37.79,62.505444 42.21,64.595444 41.25,67.865444 C38.69,75.835444 31.5,96.205444 20.47,93.545444 C16.13,92.185444 14.32,87.905444 12.51,84.345444 C9.34,77.425444 7.15,70.415444 5.28,63.095444 C3.62,55.405444 14.56,52.535444 16.89,60.055444 L16.89,60.055444 L16.9,60.055444 Z" id="路径" fill="#686FFF"></path>
                    <g transform="translate(35.780000, 61.885444)" id="路径">
                        <path d="M2.45,0 C2.45,0 6.27,2.7 7.45,4.85 L4.95,7.89 L0,3.24 L2.45,0 L2.45,0 Z" fill="#407BFF"></path>
                        <path d="M2.45,0 C2.45,0 6.27,2.7 7.45,4.85 L4.95,7.89 L0,3.24 L2.45,0 L2.45,0 Z" fill="#407BFF"></path>
                        <path d="M2.45,0 C2.45,0 6.27,2.7 7.45,4.85 L4.95,7.89 L0,3.24 L2.45,0 L2.45,0 Z" fill="#E7EFFF" opacity="0.6"></path>
                    </g>
                    <path d="M9.36,53.785444 C5.97,55.815444 3.44,57.765444 5.45,63.395444 C7.83,70.085444 18.25,65.835444 18.25,65.835444 C18.25,65.835444 18.19,60.565444 16.09,57.895444 C13.99,55.225444 9.36,53.785444 9.36,53.785444 L9.36,53.785444 Z" id="路径" fill="#686FFF"></path>
                </g>
            </g>
        </g>
    </g>
</svg>