<?xml version="1.0" encoding="UTF-8"?>
<svg width="120px" height="66px" viewBox="0 0 120 66" version="1.1" xmlns="http://www.w3.org/2000/svg" xmlns:xlink="http://www.w3.org/1999/xlink">
    <title>项目动态</title>
    <g id="页面-1" stroke="none" stroke-width="1" fill="none" fill-rule="evenodd">
        <g id="项目概览-添加卡片" transform="translate(-878.000000, -1645.000000)">
            <g id="编组-37" transform="translate(700.000000, 0.000000)">
                <g id="编组-33" transform="translate(168.000000, 100.000000)">
                    <g id="编组-35备份-3" transform="translate(0.000000, 1545.000000)">
                        <g id="项目动态" transform="translate(10.000000, 0.000000)">
                            <rect id="矩形" fill="#FFFFFF" x="0" y="0" width="120" height="66" rx="4"></rect>
                            <g id="编组-38" transform="translate(18.000000, 10.000000)">
                                <g id="编组-21">
                                    <g id="编组-20" transform="translate(17.000000, 1.000000)" fill="#5365EA">
                                        <rect id="矩形" fill-opacity="0.16" x="0" y="0" width="48" height="4" rx="2"></rect>
                                        <rect id="矩形" fill-opacity="0.1" x="0" y="6" width="16" height="4" rx="2"></rect>
                                    </g>
                                    <rect id="矩形" fill-opacity="0.1" fill="#0E1D80" x="0" y="0" width="12" height="12" rx="6"></rect>
                                </g>
                                <g id="编组-21备份" transform="translate(0.000000, 17.000000)">
                                    <g id="编组-20" transform="translate(17.000000, 1.000000)" fill="#5365EA">
                                        <rect id="矩形" fill-opacity="0.16" x="0" y="0" width="60" height="4" rx="2"></rect>
                                        <rect id="矩形" fill-opacity="0.1" x="0" y="6" width="16" height="4" rx="2"></rect>
                                    </g>
                                    <rect id="矩形" fill-opacity="0.1" fill="#0E1D80" x="0" y="0" width="12" height="12" rx="6"></rect>
                                </g>
                                <g id="编组-21备份-2" transform="translate(0.000000, 34.000000)">
                                    <g id="编组-20" transform="translate(17.000000, 1.000000)" fill="#5365EA">
                                        <rect id="矩形" fill-opacity="0.16" x="0" y="0" width="67" height="4" rx="2"></rect>
                                        <rect id="矩形" fill-opacity="0.1" x="0" y="6" width="16" height="4" rx="2"></rect>
                                    </g>
                                    <rect id="矩形" fill-opacity="0.1" fill="#0E1D80" x="0" y="0" width="12" height="12" rx="6"></rect>
                                </g>
                            </g>
                        </g>
                    </g>
                </g>
            </g>
        </g>
    </g>
</svg>