<svg xmlns="http://www.w3.org/2000/svg" xmlns:xlink="http://www.w3.org/1999/xlink" viewBox="0 0 128 79" class="design-iconfont">
  <defs>
    <filter x="-5.4%" y="-7.8%" width="110.8%" height="118.5%" filterUnits="objectBoundingBox" id="h7wy394hla">
      <feOffset dy="1" in="SourceAlpha" result="shadowOffsetOuter1"/>
      <feGaussianBlur stdDeviation="2" in="shadowOffsetOuter1" result="shadowBlurOuter1"/>
      <feColorMatrix values="0 0 0 0 0.0549019608 0 0 0 0 0.11372549 0 0 0 0 0.501960784 0 0 0 0.16 0" in="shadowBlurOuter1"/>
    </filter>
    <rect id="ff6pzk0k8b" x="0" y="0" width="120" height="70.4134969" rx="4"/>
  </defs>
  <g fill="none" fill-rule="evenodd">
    <g transform="translate(4 3)">
      <use fill="#000" filter="url(#h7wy394hla)" xlink:href="#ff6pzk0k8b"/>
      <use fill="#FFF" xlink:href="#ff6pzk0k8b"/>
    </g>
    <g transform="translate(19 54.105769)" fill="#0E1D80" fill-opacity=".08" fill-rule="nonzero">
      <rect width="39.1304347" height="3.89423076" rx="1.94711538"/>
      <rect x="44.0217389" width="19.5652174" height="3.89423076" rx="1.94711538"/>
      <rect x="68.4782609" width="21.5217391" height="3.89423076" rx="1.94711538"/>
    </g>
    <g transform="translate(19 61.804427)" fill="#0E1D80" fill-opacity=".08" fill-rule="nonzero">
      <rect width="39.1304347" height="3.89423076" rx="1.94711538"/>
      <rect x="44.0217389" width="19.5652174" height="3.89423076" rx="1.94711538"/>
      <rect x="68.4782609" width="21.5217391" height="3.89423076" rx="1.94711538"/>
    </g>
    <g stroke="#000" stroke-opacity=".04">
      <path d="M0.42651073 33.9663461L88.7152475 33.9663461" transform="translate(19.426555 13)"/>
      <path d="M0.42651073 25.3125L88.7152475 25.3125" transform="translate(19.426555 13)"/>
      <path d="M0.42651073 17.0913461L88.7152475 17.0913461" transform="translate(19.426555 13)"/>
      <path d="M0.42651073 8.43749998L88.7152475 8.43749998" transform="translate(19.426555 13)"/>
      <path d="M0.42651073 0.21634615L88.7152475 0.21634615" transform="translate(19.426555 13)"/>
      <path d="M59.5033957 0L59.5033957 34.6153845" transform="translate(19.426555 13)"/>
      <path d="M0.2163387 0L0.2163387 34.6153845" transform="translate(19.426555 13)"/>
      <path d="M15.1447344 0L15.1447344 34.6153845" transform="translate(19.426555 13)"/>
      <path d="M74.0052659 0L74.0052659 34.6153845" transform="translate(19.426555 13)"/>
      <path d="M44.5749999 0L44.5749999 34.6153845" transform="translate(19.426555 13)"/>
      <path d="M88.9336613 0L88.9336613 34.6153845" transform="translate(19.426555 13)"/>
      <path d="M29.6466044 0L29.6466044 34.6153845" transform="translate(19.426555 13)"/>
    </g>
    <g fill-rule="nonzero" stroke-width=".5">
      <g fill="#57AAF8" fill-opacity=".5" stroke="#57AAF8">
        <path d="M2 13.68471036A2 2.00130804 0 1 0 2 17.68732644A2 2.00130804 0 1 0 2 13.68471036Z" transform="translate(22.028846 16.454179)"/>
        <path d="M81.6990752 16.13301386A2 2.00130804 0 1 0 81.6990752 20.13562994A2 2.00130804 0 1 0 81.6990752 16.13301386Z" transform="translate(22.028846 16.454179)"/>
        <path d="M3.10089571 7.308414730000001A2 2.00130804 0 1 0 3.10089571 11.31103081A2 2.00130804 0 1 0 3.10089571 7.308414730000001Z" transform="translate(22.028846 16.454179)"/>
        <path d="M34.3522787 23.35244666A2 2.00130804 0 1 0 34.3522787 27.35506274A2 2.00130804 0 1 0 34.3522787 23.35244666Z" transform="translate(22.028846 16.454179)"/>
        <path d="M9.58318033 15.52041786A2 2.00130804 0 1 0 9.58318033 19.52303394A2 2.00130804 0 1 0 9.58318033 15.52041786Z" transform="translate(22.028846 16.454179)"/>
        <path d="M76.7139627 6.4381027500000005A2 2.00130804 0 1 0 76.7139627 10.44071883A2 2.00130804 0 1 0 76.7139627 6.4381027500000005Z" transform="translate(22.028846 16.454179)"/>
        <path d="M7.39016563 6.28774932A2 2.00130804 0 1 0 7.39016563 10.290365399999999A2 2.00130804 0 1 0 7.39016563 6.28774932Z" transform="translate(22.028846 16.454179)"/>
        <path d="M52.8609098 16.011835259999998A2 2.00130804 0 1 0 52.8609098 20.01445134A2 2.00130804 0 1 0 52.8609098 16.011835259999998Z" transform="translate(22.028846 16.454179)"/>
        <path d="M58.8609098 10.01183526A2 2.00130804 0 1 0 58.8609098 14.014451339999999A2 2.00130804 0 1 0 58.8609098 10.01183526Z" transform="translate(22.028846 16.454179)"/>
        <path d="M21.6488973 10.06837606A2 2.00130804 0 1 0 21.6488973 14.07099214A2 2.00130804 0 1 0 21.6488973 10.06837606Z" transform="translate(22.028846 16.454179)"/>
        <path d="M46.4418271 22.792402459999998A2 2.00130804 0 1 0 46.4418271 26.79501854A2 2.00130804 0 1 0 46.4418271 22.792402459999998Z" transform="translate(22.028846 16.454179)"/>
        <path d="M6.48667298 23.04083566A2 2.00130804 0 1 0 6.48667298 27.043451740000002A2 2.00130804 0 1 0 6.48667298 23.04083566Z" transform="translate(22.028846 16.454179)"/>
        <path d="M66.2711406 16.095916459999998A2 2.00130804 0 1 0 66.2711406 20.09853254A2 2.00130804 0 1 0 66.2711406 16.095916459999998Z" transform="translate(22.028846 16.454179)"/>
        <path d="M52.618107 6.3285849800000005A2 2.00130804 0 1 0 52.618107 10.33120106A2 2.00130804 0 1 0 52.618107 6.3285849800000005Z" transform="translate(22.028846 16.454179)"/>
        <path d="M46.7684013 15.473625360000002A2 2.00130804 0 1 0 46.7684013 19.476241440000003A2 2.00130804 0 1 0 46.7684013 15.473625360000002Z" transform="translate(22.028846 16.454179)"/>
        <path d="M18.618107 15.20512826A2 2.00130804 0 1 0 18.618107 19.20774434A2 2.00130804 0 1 0 18.618107 15.20512826Z" transform="translate(22.028846 16.454179)"/>
        <path d="M17.618107 7.095916470000001A2 2.00130804 0 1 0 17.618107 11.09853255A2 2.00130804 0 1 0 17.618107 7.095916470000001Z" transform="translate(22.028846 16.454179)"/>
        <path d="M22.618107 1.0959164700000001A2 2.00130804 0 1 0 22.618107 5.09853255A2 2.00130804 0 1 0 22.618107 1.0959164700000001Z" transform="translate(22.028846 16.454179)"/>
        <path d="M24.1845789 15.41120616A2 2.00130804 0 1 0 24.1845789 19.413822240000002A2 2.00130804 0 1 0 24.1845789 15.41120616Z" transform="translate(22.028846 16.454179)"/>
        <path d="M41.1845789 11.41120616A2 2.00130804 0 1 0 41.1845789 15.41382224A2 2.00130804 0 1 0 41.1845789 11.41120616Z" transform="translate(22.028846 16.454179)"/>
        <path d="M67.4908093 24.219373259999998A2 2.00130804 0 1 0 67.4908093 28.22198934A2 2.00130804 0 1 0 67.4908093 24.219373259999998Z" transform="translate(22.028846 16.454179)"/>
        <path d="M67.950828 0A2 2.00130804 0 1 0 67.950828 4.00261608A2 2.00130804 0 1 0 67.950828 0Z" transform="translate(22.028846 16.454179)"/>
        <path d="M32.3635116 16.013295359999997A2 2.00130804 0 1 0 32.3635116 20.01591144A2 2.00130804 0 1 0 32.3635116 16.013295359999997Z" transform="translate(22.028846 16.454179)"/>
      </g>
      <g fill="#32C6DE" fill-opacity=".4" stroke="#32C6DE">
        <path d="M9.98899046 15.041140300000002A1.99994854 2.0048216 0 1 0 9.98899046 19.0507835A1.99994854 2.0048216 0 1 0 9.98899046 15.041140300000002Z" transform="translate(28.836698 17.76097)"/>
        <path d="M20.9889905 10.0411403A1.99994854 2.0048216 0 1 0 20.9889905 14.0507835A1.99994854 2.0048216 0 1 0 20.9889905 10.0411403Z" transform="translate(28.836698 17.76097)"/>
        <path d="M28.2314651 6.641509430000001A1.99994854 2.0048216 0 1 0 28.2314651 10.65115263A1.99994854 2.0048216 0 1 0 28.2314651 6.641509430000001Z" transform="translate(28.836698 17.76097)"/>
        <path d="M1.99994854 6.80255872A1.99994854 2.0048216 0 1 0 1.99994854 10.81220192A1.99994854 2.0048216 0 1 0 1.99994854 6.80255872Z" transform="translate(28.836698 17.76097)"/>
        <path d="M55.8391932 13.8867925A1.99994854 2.0048216 0 1 0 55.8391932 17.8964357A1.99994854 2.0048216 0 1 0 55.8391932 13.8867925Z" transform="translate(28.836698 17.76097)"/>
        <path d="M43.537459 19.7200452A1.99994854 2.0048216 0 1 0 43.537459 23.7296884A1.99994854 2.0048216 0 1 0 43.537459 19.7200452Z" transform="translate(28.836698 17.76097)"/>
        <path d="M56.582353 0A1.99994854 2.0048216 0 1 0 56.582353 4.0096432A1.99994854 2.0048216 0 1 0 56.582353 0Z" transform="translate(28.836698 17.76097)"/>
        <path d="M63.582353 10A1.99994854 2.0048216 0 1 0 63.582353 14.0096432A1.99994854 2.0048216 0 1 0 63.582353 10Z" transform="translate(28.836698 17.76097)"/>
        <path d="M29.3802343 14.7358491A1.99994854 2.0048216 0 1 0 29.3802343 18.7454923A1.99994854 2.0048216 0 1 0 29.3802343 14.7358491Z" transform="translate(28.836698 17.76097)"/>
        <path d="M42.5141374 5.830188679999999A1.99994854 2.0048216 0 1 0 42.5141374 9.83983188A1.99994854 2.0048216 0 1 0 42.5141374 5.830188679999999Z" transform="translate(28.836698 17.76097)"/>
        <path d="M69.9339268 22.3773585A1.99994854 2.0048216 0 1 0 69.9339268 26.3870017A1.99994854 2.0048216 0 1 0 69.9339268 22.3773585Z" transform="translate(28.836698 17.76097)"/>
        <path d="M74.9339268 19.3773585A1.99994854 2.0048216 0 1 0 74.9339268 23.3870017A1.99994854 2.0048216 0 1 0 74.9339268 19.3773585Z" transform="translate(28.836698 17.76097)"/>
        <path d="M74.9339268 4.3773585100000005A1.99994854 2.0048216 0 1 0 74.9339268 8.38700171A1.99994854 2.0048216 0 1 0 74.9339268 4.3773585100000005Z" transform="translate(28.836698 17.76097)"/>
        <path d="M14.8391932 22.0943397A1.99994854 2.0048216 0 1 0 14.8391932 26.1039829A1.99994854 2.0048216 0 1 0 14.8391932 22.0943397Z" transform="translate(28.836698 17.76097)"/>
        <path d="M68.4190934 14.5294046A1.99994854 2.0048216 0 1 0 68.4190934 18.5390478A1.99994854 2.0048216 0 1 0 68.4190934 14.5294046Z" transform="translate(28.836698 17.76097)"/>
      </g>
    </g>
  </g>
</svg>
