<?xml version="1.0" encoding="UTF-8"?>
<svg width="208px" height="122px" viewBox="0 0 208 122" version="1.1" xmlns="http://www.w3.org/2000/svg" xmlns:xlink="http://www.w3.org/1999/xlink">
    <title>柱状图</title>
    <g id="自定义敏捷报表" stroke="none" stroke-width="1" fill="none" fill-rule="evenodd">
        <g id="协作图表" transform="translate(-599.000000, -1126.000000)">
            <g id="自定义报表" transform="translate(-2.000000, 0.000000)">
                <g id="所有报表－阶梯折线图" transform="translate(565.000000, 1084.000000)">
                    <g id="柱状图" transform="translate(36.000000, 42.000000)">
                        <g id="line">
                            <line x1="0.248803828" y1="0.554545455" x2="0.746411483" y2="0.554545455" id="路径" stroke="#C9CACA" stroke-width="0.25"></line>
                            <line x1="1.99043062" y1="0.554545455" x2="207.004785" y2="0.554545455" id="路径" stroke-opacity="0.06" stroke="#0F1358"></line>
                            <line x1="207.253589" y1="0.554545455" x2="207.751196" y2="0.554545455" id="路径" stroke="#C9CACA" stroke-width="0.25"></line>
                            <line x1="0.248803828" y1="24.9545455" x2="0.746411483" y2="24.9545455" id="路径" stroke="#C9CACA" stroke-width="0.25"></line>
                            <line x1="1.99043062" y1="24.9545455" x2="207.004785" y2="24.9545455" id="路径" stroke-opacity="0.06" stroke="#0F1358"></line>
                            <line x1="207.253589" y1="24.9545455" x2="207.751196" y2="24.9545455" id="路径" stroke="#C9CACA" stroke-width="0.25"></line>
                            <line x1="0.248803828" y1="49.3545455" x2="0.746411483" y2="49.3545455" id="路径" stroke="#C9CACA" stroke-width="0.25"></line>
                            <line x1="1.99043062" y1="49.3545455" x2="207.004785" y2="49.3545455" id="路径" stroke-opacity="0.06" stroke="#0F1358"></line>
                            <line x1="207.253589" y1="49.3545455" x2="207.751196" y2="49.3545455" id="路径" stroke="#C9CACA" stroke-width="0.25"></line>
                            <line x1="0.248803828" y1="72.6454545" x2="0.746411483" y2="72.6454545" id="路径" stroke="#C9CACA" stroke-width="0.25"></line>
                            <line x1="1.99043062" y1="72.6454545" x2="207.004785" y2="72.6454545" id="路径" stroke-opacity="0.06" stroke="#0F1358"></line>
                            <line x1="207.253589" y1="72.6454545" x2="207.751196" y2="72.6454545" id="路径" stroke="#C9CACA" stroke-width="0.25"></line>
                            <line x1="0.248803828" y1="97.0454545" x2="0.746411483" y2="97.0454545" id="路径" stroke="#C9CACA" stroke-width="0.25"></line>
                            <line x1="1.99043062" y1="97.0454545" x2="207.004785" y2="97.0454545" id="路径" stroke-opacity="0.06" stroke="#0F1358"></line>
                            <line x1="207.253589" y1="97.0454545" x2="207.751196" y2="97.0454545" id="路径" stroke="#C9CACA" stroke-width="0.25"></line>
                            <line x1="0.248803828" y1="121.445455" x2="0.746411483" y2="121.445455" id="路径" stroke="#C9CACA" stroke-width="0.25"></line>
                            <line x1="1.99043062" y1="121.445455" x2="207.004785" y2="121.445455" id="路径" stroke-opacity="0.06" stroke="#0F1358"></line>
                            <line x1="207.253589" y1="121.445455" x2="207.751196" y2="121.445455" id="路径" stroke="#C9CACA" stroke-width="0.25"></line>
                        </g>
                        <g id="编组" transform="translate(12.000000, 0.000000)" fill="#648DFF" fill-rule="nonzero">
                            <rect id="矩形" x="0" y="85" width="18" height="37" rx="1.2"></rect>
                            <rect id="矩形" x="33" y="73" width="18" height="49" rx="1.2"></rect>
                            <rect id="矩形" x="67" y="41" width="18" height="81" rx="1.2"></rect>
                            <rect id="矩形" x="100" y="0" width="18" height="122" rx="1.2"></rect>
                            <rect id="矩形" x="134" y="14" width="18" height="108" rx="1.2"></rect>
                            <rect id="矩形" x="167" y="48" width="18" height="74" rx="1.2"></rect>
                        </g>
                    </g>
                </g>
            </g>
        </g>
    </g>
</svg>