<svg xmlns="http://www.w3.org/2000/svg" xmlns:xlink="http://www.w3.org/1999/xlink" viewBox="0 0 128 79" class="design-iconfont">
  <defs>
    <filter x="-5.4%" y="-7.8%" width="110.8%" height="118.5%" filterUnits="objectBoundingBox" id="mvlxr40eaa">
      <feOffset dy="1" in="SourceAlpha" result="shadowOffsetOuter1"/>
      <feGaussianBlur stdDeviation="2" in="shadowOffsetOuter1" result="shadowBlurOuter1"/>
      <feColorMatrix values="0 0 0 0 0.0549019608 0 0 0 0 0.11372549 0 0 0 0 0.501960784 0 0 0 0.16 0" in="shadowBlurOuter1"/>
    </filter>
    <rect id="dunlkwr4yb" x="0" y="0" width="120" height="70.41" rx="4"/>
  </defs>
  <g transform="translate(4 3)" fill="none" fill-rule="evenodd">
    <use fill="#000" filter="url(#mvlxr40eaa)" xlink:href="#dunlkwr4yb"/>
    <use fill="#FFF" xlink:href="#dunlkwr4yb"/>
    <rect fill-opacity=".06" fill="#0E1D80" x="31" y="47" width="16" height="2" rx="1"/>
    <rect fill-opacity=".06" fill="#0E1D80" x="52" y="47" width="16" height="2" rx="1"/>
    <rect fill-opacity=".06" fill="#0E1D80" x="72" y="47" width="16" height="2" rx="1"/>
    <rect fill-opacity=".06" fill="#0E1D80" x="34" y="43" width="10" height="2" rx="1"/>
    <rect fill-opacity=".06" fill="#0E1D80" x="55" y="43" width="10" height="2" rx="1"/>
    <rect fill-opacity=".06" fill="#0E1D80" x="75" y="43" width="10" height="2" rx="1"/>
    <path stroke="#E2E3E8" stroke-linecap="square" d="M19 35.5L100.5 35.5"/>
    <path d="M41.485159,31.9854472 C41.8993274,31.9855107 42.2742861,32.1534134 42.5457177,32.424845 C42.8171493,32.6962766 42.9850521,33.0712353 42.9851156,33.4854638 L42.9851156,33.4854638 L42.9852482,37.4852048 C42.9853068,37.8677545 42.8421039,38.2168334 42.6064525,38.4818377 C42.361462,38.7573445 42.0163695,38.9416379 41.6284387,38.9785416 L41.6284387,38.9785416 L37.4854037,38.9851156 C37.0712353,38.9850521 36.6962766,38.8171493 36.424845,38.5457177 C36.1534134,38.2742861 35.9855107,37.8993274 35.9854472,37.485099 L35.9854472,37.485099 L35.9853145,33.485358 C35.9852511,33.0711299 36.1531101,32.6961103 36.4245421,32.4246422 C36.6959713,32.1531771 37.0709737,31.985262 37.4852399,31.9852482 L37.4852399,31.9852482 Z" stroke="#FFF" fill="#1FC2BB" transform="rotate(45 39.485281 35.485281)"/>
    <rect width="14" height="6" rx="1" transform="translate(32.6 22)" fill="#F0F5FF" stroke="#ADC6FF"/>
    <rect width="14" height="6" rx="1" transform="translate(53.6 22)" fill="#F0F5FF" stroke="#ADC6FF"/>
    <rect width="14" height="6" rx="1" transform="translate(73.6 22)" fill="#F0F5FF" stroke="#ADC6FF"/>
    <path d="M61.485159,31.9854472 C61.8993274,31.9855107 62.2742861,32.1534134 62.5457177,32.424845 C62.8171493,32.6962766 62.9850521,33.0712353 62.9851156,33.4854638 L62.9851156,33.4854638 L62.9852482,37.4852048 C62.9853068,37.8677545 62.8421039,38.2168334 62.6064525,38.4818377 C62.361462,38.7573445 62.0163695,38.9416379 61.6284387,38.9785416 L61.6284387,38.9785416 L57.4854037,38.9851156 C57.0712353,38.9850521 56.6962766,38.8171493 56.424845,38.5457177 C56.1534134,38.2742861 55.9855107,37.8993274 55.9854472,37.485099 L55.9854472,37.485099 L55.9853145,33.485358 C55.9852511,33.0711299 56.1531101,32.6961103 56.4245421,32.4246422 C56.6959713,32.1531771 57.0709737,31.985262 57.4852399,31.9852482 L57.4852399,31.9852482 Z" stroke="#FFF" fill="#FAAD14" transform="rotate(45 59.485281 35.485281)"/>
    <path d="M81.485159,31.9854472 C81.8993274,31.9855107 82.2742861,32.1534134 82.5457177,32.424845 C82.8171493,32.6962766 82.9850521,33.0712353 82.9851156,33.4854638 L82.9851156,33.4854638 L82.9852482,37.4852048 C82.9853068,37.8677545 82.8421039,38.2168334 82.6064525,38.4818377 C82.361462,38.7573445 82.0163695,38.9416379 81.6284387,38.9785416 L81.6284387,38.9785416 L77.4854037,38.9851156 C77.0712353,38.9850521 76.6962766,38.8171493 76.424845,38.5457177 C76.1534134,38.2742861 75.9855107,37.8993274 75.9854472,37.485099 L75.9854472,37.485099 L75.9853145,33.485358 C75.9852511,33.0711299 76.1531101,32.6961103 76.4245421,32.4246422 C76.6959713,32.1531771 77.0709737,31.985262 77.4852399,31.9852482 L77.4852399,31.9852482 Z" stroke="#FFF" fill="#4D90FE" transform="rotate(45 79.485281 35.485281)"/>
    <path stroke-opacity=".6" stroke="#5365EA" fill="#FFF" d="M21 32.5A2.5 2.5 0 1 0 21 37.5A2.5 2.5 0 1 0 21 32.5Z"/>
    <path fill="#AAB4FF" d="M99 32A3 3 0 1 0 99 38A3 3 0 1 0 99 32Z"/>
  </g>
</svg>
