<?xml version="1.0" encoding="UTF-8"?>
<svg width="208px" height="122px" viewBox="0 0 208 122" version="1.1" xmlns="http://www.w3.org/2000/svg" xmlns:xlink="http://www.w3.org/1999/xlink">
    <title>堆叠柱状图</title>
    <g id="自定义敏捷报表" stroke="none" stroke-width="1" fill="none" fill-rule="evenodd">
        <g id="协作图表" transform="translate(-1179.000000, -1126.000000)">
            <g id="自定义报表" transform="translate(-2.000000, 0.000000)">
                <g id="所有报表－分组柱状图" transform="translate(1145.000000, 1084.000000)">
                    <g id="堆叠柱状图" transform="translate(36.000000, 42.000000)">
                        <g id="line">
                            <line x1="0.248803828" y1="0.554545455" x2="0.746411483" y2="0.554545455" id="路径" stroke="#C9CACA" stroke-width="0.25"></line>
                            <line x1="1.99043062" y1="0.554545455" x2="207.004785" y2="0.554545455" id="路径" stroke-opacity="0.06" stroke="#0F1358"></line>
                            <line x1="207.253589" y1="0.554545455" x2="207.751196" y2="0.554545455" id="路径" stroke="#C9CACA" stroke-width="0.25"></line>
                            <line x1="0.248803828" y1="24.9545455" x2="0.746411483" y2="24.9545455" id="路径" stroke="#C9CACA" stroke-width="0.25"></line>
                            <line x1="1.99043062" y1="24.9545455" x2="207.004785" y2="24.9545455" id="路径" stroke-opacity="0.06" stroke="#0F1358"></line>
                            <line x1="207.253589" y1="24.9545455" x2="207.751196" y2="24.9545455" id="路径" stroke="#C9CACA" stroke-width="0.25"></line>
                            <line x1="0.248803828" y1="49.3545455" x2="0.746411483" y2="49.3545455" id="路径" stroke="#C9CACA" stroke-width="0.25"></line>
                            <line x1="1.99043062" y1="49.3545455" x2="207.004785" y2="49.3545455" id="路径" stroke-opacity="0.06" stroke="#0F1358"></line>
                            <line x1="207.253589" y1="49.3545455" x2="207.751196" y2="49.3545455" id="路径" stroke="#C9CACA" stroke-width="0.25"></line>
                            <line x1="0.248803828" y1="72.6454545" x2="0.746411483" y2="72.6454545" id="路径" stroke="#C9CACA" stroke-width="0.25"></line>
                            <line x1="1.99043062" y1="72.6454545" x2="207.004785" y2="72.6454545" id="路径" stroke-opacity="0.06" stroke="#0F1358"></line>
                            <line x1="207.253589" y1="72.6454545" x2="207.751196" y2="72.6454545" id="路径" stroke="#C9CACA" stroke-width="0.25"></line>
                            <line x1="0.248803828" y1="97.0454545" x2="0.746411483" y2="97.0454545" id="路径" stroke="#C9CACA" stroke-width="0.25"></line>
                            <line x1="1.99043062" y1="97.0454545" x2="207.004785" y2="97.0454545" id="路径" stroke-opacity="0.06" stroke="#0F1358"></line>
                            <line x1="207.253589" y1="97.0454545" x2="207.751196" y2="97.0454545" id="路径" stroke="#C9CACA" stroke-width="0.25"></line>
                            <line x1="0.248803828" y1="121.445455" x2="0.746411483" y2="121.445455" id="路径" stroke="#C9CACA" stroke-width="0.25"></line>
                            <line x1="1.99043062" y1="121.445455" x2="207.004785" y2="121.445455" id="路径" stroke-opacity="0.06" stroke="#0F1358"></line>
                            <line x1="207.253589" y1="121.445455" x2="207.751196" y2="121.445455" id="路径" stroke="#C9CACA" stroke-width="0.25"></line>
                        </g>
                        <g id="编组" transform="translate(8.000000, 0.000000)" fill-rule="nonzero">
                            <g id="编组-7" transform="translate(0.000000, 83.000000)">
                                <path d="M16.64875,38.3021053 L1.425,38.3021053 C0.637994231,38.3021053 6.89781565e-13,37.7507086 6.89781565e-13,37.0705263 L6.89781565e-13,19.3665789 L18.07375,19.3665789 L18.07375,37.0705263 C18.07375,37.3971614 17.9236165,37.7104183 17.6563772,37.9413841 C17.3891378,38.17235 17.0266835,38.3021053 16.64875,38.3021053 Z" id="路径" fill="#648DFF"></path>
                                <rect id="矩形" fill="#00C5D2" x="6.90836277e-13" y="11.4228947" width="18.07375" height="7.94368421"></rect>
                                <path d="M16.64875,5.83392983e-14 L1.425,5.83392983e-14 C0.637994231,5.83392983e-14 6.89781565e-13,0.551396677 6.89781565e-13,1.23157895 L6.89781565e-13,11.4228947 L18.07375,11.4228947 L18.07375,1.23157895 C18.07375,0.551396677 17.4357558,5.83392983e-14 16.64875,5.83392983e-14 Z" id="路径" fill="#FFCE2B"></path>
                            </g>
                            <g id="编组-8" transform="translate(33.000000, 39.000000)">
                                <path d="M16.6962502,82.303894 L1.47250022,82.303894 C0.685494452,82.303894 0.0475002204,81.7533701 0.0475002204,81.0742644 L0.0475002204,43.1606842 L18.1212502,43.1606842 L18.1212502,81.0742644 C18.1212502,81.7533701 17.483256,82.303894 16.6962502,82.303894 Z" id="路径" fill="#648DFF"></path>
                                <rect id="矩形" fill="#00C5D2" x="0.0475002204" y="27.5751286" width="18.07375" height="15.5958025"></rect>
                                <path d="M16.6962502,0.000684161743 L1.47250022,0.000684161743 C1.08640563,-0.0104274062 0.711627137,0.114200383 0.434024466,0.346015982 C0.156421795,0.577831581 -0.000214457521,0.896968349 -1.56097357e-13,1.23031379 L-1.56097357e-13,27.5751286 L18.1212502,27.5751286 L18.1212502,1.23031379 C18.1212502,0.551208099 17.483256,0.000684161743 16.6962502,0.000684161743 L16.6962502,0.000684161743 Z" id="路径" fill="#FFCE2B"></path>
                            </g>
                            <g id="编组-9" transform="translate(68.000000, 35.000000)">
                                <path d="M16.6369254,86.1198081 L1.42505039,86.1198081 C1.04614566,86.1225208 0.68183045,85.9940031 0.413894801,85.7630641 C0.145959152,85.5321252 -0.00314728848,85.2181148 2.27817765e-13,84.8915294 L2.27817765e-13,45.0352941 L18.0619758,45.0352941 L18.0619758,84.8915294 C18.0651231,85.2181148 17.9160166,85.5321252 17.648081,85.7630641 C17.3801453,85.9940031 17.0158301,86.1225208 16.6369254,86.1198081 L16.6369254,86.1198081 Z" id="路径" fill="#648DFF"></path>
                                <rect id="矩形" fill="#00C5D2" x="5.0391114e-05" y="17.4204706" width="18.07375" height="27.6148235"></rect>
                                <path d="M16.6369254,-7.27261388e-15 L1.42505039,-7.27261388e-15 C0.638044623,-7.27261388e-15 5.03911149e-05,0.549899672 5.03911149e-05,1.22823529 L5.03911149e-05,17.4204706 L18.0619254,17.4204706 L18.0619254,1.22823529 C18.0619254,0.549899672 17.4239312,-7.27261388e-15 16.6369254,-7.27261388e-15 L16.6369254,-7.27261388e-15 Z" id="路径" fill="#FFCE2B"></path>
                            </g>
                            <g id="编组-10" transform="translate(103.000000, 5.000000)">
                                <path d="M16.64875,115.938407 L1.425,115.938407 C0.637994231,115.938407 6.91890989e-13,115.386885 6.91890989e-13,114.706549 L6.91890989e-13,48.8226549 L18.07375,48.8226549 L18.07375,114.706549 C18.07375,115.386885 17.4357558,115.938407 16.64875,115.938407 Z" id="路径" fill="#648DFF"></path>
                                <rect id="矩形" fill="#00C5D2" x="6.90836277e-13" y="15.6240708" width="18.07375" height="33.1985841"></rect>
                                <path d="M16.64875,-4.01173686e-14 L1.425,-4.01173686e-14 C0.637994231,-4.01173686e-14 6.75015599e-13,0.551521807 6.75015599e-13,1.23185842 L6.75015599e-13,15.6240708 L18.07375,15.6240708 L18.07375,1.25238939 C18.0801181,0.922137573 17.9328006,0.603509192 17.6648679,0.368031279 C17.3969352,0.132553366 17.0308347,-4.01173686e-14 16.64875,-4.01173686e-14 Z" id="路径" fill="#FFCE2B"></path>
                            </g>
                            <g id="编组-12" transform="translate(137.000000, 0.000000)">
                                <path d="M16.64875,121.118319 L1.425,121.118319 C0.637994231,121.118319 6.91890989e-13,120.567517 6.91890989e-13,119.888067 L6.91890989e-13,57.7090756 L18.07375,57.7090756 L18.07375,119.888067 C18.07375,120.567517 17.4357558,121.118319 16.64875,121.118319 Z" id="路径" fill="#648DFF"></path>
                                <rect id="矩形" fill="#00C5D2" x="6.90836277e-13" y="34.8571429" width="18.07375" height="22.8519328"></rect>
                                <path d="M16.64875,0 L1.425,0 C0.637994231,0 6.91890989e-13,0.550802627 6.91890989e-13,1.2302521 L6.91890989e-13,34.8571429 L18.07375,34.8571429 L18.07375,1.2302521 C18.07375,0.550802627 17.4357558,0 16.64875,0 Z" id="路径" fill="#FFCE2B"></path>
                            </g>
                            <g id="编组-13" transform="translate(172.000000, 25.000000)">
                                <path d="M16.64875,95.5097872 L1.425,95.5097872 C0.637994231,95.5097872 6.91890989e-13,94.9610979 6.91890989e-13,94.2842553 L6.91890989e-13,60.2348936 L18.07375,60.2348936 L18.07375,94.2842553 C18.07375,94.9610979 17.4357558,95.5097872 16.64875,95.5097872 Z" id="路径" fill="#648DFF"></path>
                                <rect id="矩形" fill="#00C5D2" x="6.90836277e-13" y="26.9617021" width="18.07375" height="33.2731915"></rect>
                                <path d="M16.64875,-1.088491e-14 L1.425,-1.088491e-14 C0.637994231,-1.088491e-14 6.91890989e-13,0.548689328 6.91890989e-13,1.22553191 L6.91890989e-13,26.9617021 L18.07375,26.9617021 L18.07375,1.22553191 C18.07375,0.548689328 17.4357558,-1.088491e-14 16.64875,-1.088491e-14 L16.64875,-1.088491e-14 Z" id="路径" fill="#FFCE2B"></path>
                            </g>
                        </g>
                    </g>
                </g>
            </g>
        </g>
    </g>
</svg>