<?xml version="1.0" encoding="UTF-8"?>
<svg width="252px" height="63px" viewBox="0 0 252 63" version="1.1" xmlns="http://www.w3.org/2000/svg" xmlns:xlink="http://www.w3.org/1999/xlink" preserveAspectRatio="none meet">
    <title>bg</title>
    <defs>
        <rect id="path-1" x="0" y="0" width="252" height="63" rx="4"></rect>
    </defs>
    <g id="页面-1" stroke="none" stroke-width="1" fill="none" fill-rule="evenodd">
        <g id="个人工作台-资源管理-normal" transform="translate(-304.000000, -220.000000)">
            <g id="编组-11" transform="translate(20.000000, 174.000000)">
                <g id="bg" transform="translate(284.000000, 46.000000)">
                    <mask id="mask-2" fill="white">
                        <use xlink:href="#path-1"></use>
                    </mask>
                    <use id="矩形" fill-opacity="0.08" fill="#37B1EC" xlink:href="#path-1"></use>
                    <path d="M4,0 L4,0 L4,0 L4,63 C1.790861,63 2.705415e-16,61.209139 0,59 L0,4 C-2.705415e-16,1.790861 1.790861,4.05812251e-16 4,0 Z" id="矩形" fill="#37B1EC" mask="url(#mask-2)"></path>
                    <g id="dns-outline" opacity="0.06" mask="url(#mask-2)" fill="#37B1EC" fill-rule="nonzero">
                        <g transform="translate(24.000000, 8.000000)" id="形状">
                            <path d="M53.3333333,40 L53.3333333,53.3333333 L6.66666667,53.3333333 L6.66666667,40 L53.3333333,40 M56.6666667,33.3333333 L3.33333333,33.3333333 C1.49238417,33.3333333 0,34.8257175 0,36.6666667 L0,56.6666667 C0,58.5076158 1.49238417,60 3.33333333,60 L56.6666667,60 C58.5076158,60 60,58.5076158 60,56.6666667 L60,36.6666667 C60,34.8257175 58.5076158,33.3333333 56.6666667,33.3333333 M13.3333333,51.6666667 C10.5719096,51.6666667 8.33333333,49.4280904 8.33333333,46.6666667 C8.33333333,43.9052429 10.5719096,41.6666667 13.3333333,41.6666667 C16.0947571,41.6666667 18.3333333,43.9052429 18.3333333,46.6666667 C18.3333333,49.4280904 16.0947571,51.6666667 13.3333333,51.6666667 M53.3333333,6.66666667 L53.3333333,20 L6.66666667,20 L6.66666667,6.66666667 L53.3333333,6.66666667 M56.6666667,0 L3.33333333,0 C1.49238417,0 0,1.49238417 0,3.33333333 L0,23.3333333 C0,25.1742825 1.49238417,26.6666667 3.33333333,26.6666667 L56.6666667,26.6666667 C58.5076158,26.6666667 60,25.1742825 60,23.3333333 L60,3.33333333 C60,1.49238417 58.5076158,0 56.6666667,0 M13.3333333,18.3333333 C10.5719096,18.3333333 8.33333333,16.0947571 8.33333333,13.3333333 C8.33333333,10.5719096 10.5719096,8.33333333 13.3333333,8.33333333 C16.0947571,8.33333333 18.3333333,10.5719096 18.3333333,13.3333333 C18.3333333,16.0947571 16.0947571,18.3333333 13.3333333,18.3333333 L13.3333333,18.3333333 Z"></path>
                        </g>
                    </g>
                </g>
            </g>
        </g>
    </g>
</svg>