<?xml version="1.0" encoding="UTF-8"?>
<svg width="252px" height="63px" viewBox="0 0 252 63" version="1.1" xmlns="http://www.w3.org/2000/svg" xmlns:xlink="http://www.w3.org/1999/xlink" preserveAspectRatio="none meet">
    <title>bg</title>
    <defs>
        <rect id="path-1" x="0" y="0" width="252" height="63" rx="4"></rect>
    </defs>
    <g id="页面-1" stroke="none" stroke-width="1" fill="none" fill-rule="evenodd">
        <g id="个人工作台-资源管理-normal" transform="translate(-304.000000, -295.000000)">
            <g id="编组-11" transform="translate(20.000000, 174.000000)">
                <g id="bg" transform="translate(284.000000, 121.000000)">
                    <mask id="mask-2" fill="white">
                        <use xlink:href="#path-1"></use>
                    </mask>
                    <use id="矩形" fill-opacity="0.08" fill="#FD729C" xlink:href="#path-1"></use>
                    <path d="M4,0 L4,0 L4,0 L4,63 C1.790861,63 2.705415e-16,61.209139 0,59 L0,4 C-2.705415e-16,1.790861 1.790861,4.05812251e-16 4,0 Z" id="矩形" fill="#FD729C" mask="url(#mask-2)"></path>
                    <g id="widgets-outline" opacity="0.06" mask="url(#mask-2)" fill="#FD729C" fill-rule="nonzero">
                        <g transform="translate(25.000000, 10.000000)" id="形状">
                            <path d="M41.1,8.5 L49.5,16.9 L41.1,25.3 L32.7,16.9 L41.1,8.5 M18,10 L18,22 L6,22 L6,10 L18,10 M48,40 L48,52 L36,52 L36,40 L48,40 M41.1,0.1 L24,16.9 L41.1,34 L30,34 L30,58 L54,58 L54,34 L41.1,34 L57.9,16.9 L41.1,0.1 M24,4 L0,4 L0,28 L24,28 L24,4 M18,40 L18,52 L6,52 L6,40 L18,40 M24,34 L0,34 L0,58 L24,58 L24,34 Z"></path>
                        </g>
                    </g>
                </g>
            </g>
        </g>
    </g>
</svg>