<?xml version="1.0" encoding="UTF-8"?>
<svg width="252px" height="63px" viewBox="0 0 252 63" version="1.1" xmlns="http://www.w3.org/2000/svg" xmlns:xlink="http://www.w3.org/1999/xlink" preserveAspectRatio="none meet">
    <title>bg</title>
    <defs>
        <rect id="path-1" x="0" y="0" width="252" height="63" rx="4"></rect>
    </defs>
    <g id="页面-1" stroke="none" stroke-width="1" fill="none" fill-rule="evenodd">
        <g id="个人工作台-资源管理-normal" transform="translate(-36.000000, -295.000000)">
            <g id="编组-11" transform="translate(20.000000, 174.000000)">
                <g id="bg" transform="translate(16.000000, 121.000000)">
                    <mask id="mask-2" fill="white">
                        <use xlink:href="#path-1"></use>
                    </mask>
                    <use id="矩形" fill-opacity="0.08" fill="#6887E8" xlink:href="#path-1"></use>
                    <path d="M4,0 L4,0 L4,0 L4,63 C1.790861,63 2.705415e-16,61.209139 0,59 L0,4 C-2.705415e-16,1.790861 1.790861,4.05812251e-16 4,0 Z" id="矩形" fill="#6887E8" mask="url(#mask-2)"></path>
                    <g id="package-variant" opacity="0.06" mask="url(#mask-2)" fill="#6887E8" fill-rule="nonzero">
                        <g transform="translate(19.000000, 8.000000)" id="形状">
                            <path d="M1.9785124,27.9907438 C0.416528926,27.1160331 -0.0520661157,25.2104132 0.822644628,23.7109091 L5.50859504,15.6198347 C5.8522314,14.9950413 6.38330579,14.557686 6.9768595,14.3077686 L31.4375207,0.56231405 C31.9373554,0.187438017 32.5621488,0 33.2181818,0 C33.8742149,0 34.4990083,0.187438017 34.998843,0.56231405 L59.6781818,14.4327273 C60.2717355,14.745124 60.7715702,15.2449587 61.0527273,15.8697521 L65.5824793,23.7421488 C66.4571901,25.2416529 65.9261157,27.1472727 64.4578512,27.9907438 L61.3338843,29.8026446 L61.3338843,45.2975207 C61.3338843,46.4846281 60.6778512,47.5155372 59.6781818,48.0466116 L34.998843,61.9170248 C34.4990083,62.2919008 33.8742149,62.4793388 33.2181818,62.4793388 C32.5621488,62.4793388 31.9373554,62.2919008 31.4375207,61.9170248 L6.75818182,48.0466116 C5.7585124,47.5155372 5.10247934,46.4846281 5.10247934,45.2975207 L5.10247934,27.9907438 C4.16528926,28.5218182 2.97818182,28.5530579 1.9785124,27.9907438 M33.2181818,6.71652893 L33.2181818,6.71652893 L33.2181818,27.6471074 L33.2181818,27.6471074 L51.8370248,17.1818182 L33.2181818,6.71652893 M11.3504132,43.4543802 L30.0942149,54.0133884 L30.0942149,33.0515702 L11.3504132,22.5238017 L11.3504132,43.4543802 M55.0859504,43.4543802 L55.0859504,33.3952066 L39.4661157,42.4547107 C38.4352066,43.0170248 37.2793388,42.9857851 36.3421488,42.4859504 L36.3421488,54.0133884 L55.0859504,43.4543802 M38.9975207,35.4882645 L58.6160331,24.1482645 L56.8041322,20.9930579 L37.1856198,32.3330579 L38.9975207,35.4882645 Z"></path>
                        </g>
                    </g>
                </g>
            </g>
        </g>
    </g>
</svg>