<?xml version="1.0" encoding="UTF-8"?>
<svg width="252px" height="63px" viewBox="0 0 252 63" version="1.1" xmlns="http://www.w3.org/2000/svg" xmlns:xlink="http://www.w3.org/1999/xlink" preserveAspectRatio="none meet">
    <title>bg</title>
    <defs>
        <rect id="path-1" x="0" y="0" width="252" height="63" rx="4"></rect>
        <linearGradient x1="50%" y1="0%" x2="50%" y2="146.141567%" id="linearGradient-3">
            <stop stop-color="#91BBFF" offset="0%"></stop>
            <stop stop-color="#4D90FE" offset="100%"></stop>
        </linearGradient>
    </defs>
    <g id="页面-1" stroke="none" stroke-width="1" fill="none" fill-rule="evenodd">
        <g id="个人工作台-资源管理-normal" transform="translate(-572.000000, -220.000000)">
            <g id="编组-11" transform="translate(20.000000, 174.000000)">
                <g id="bg" transform="translate(552.000000, 46.000000)">
                    <mask id="mask-2" fill="white">
                        <use xlink:href="#path-1"></use>
                    </mask>
                    <use id="矩形" fill-opacity="0.08" fill="#6887E8" xlink:href="#path-1"></use>
                    <path d="M4,0 L4,0 L4,0 L4,63 C1.790861,63 2.705415e-16,61.209139 0,59 L0,4 C-2.705415e-16,1.790861 1.790861,4.05812251e-16 4,0 Z" id="矩形" fill="url(#linearGradient-3)" mask="url(#mask-2)"></path>
                    <g id="database-outline" opacity="0.06" mask="url(#mask-2)" fill="#4D90FE" fill-rule="nonzero">
                        <g transform="translate(24.000000, 8.000000)" id="形状">
                            <path d="M26.6666667,0 C11.9333333,0 0,5.96666667 0,13.3333333 L0,46.6666667 C0,54.0333333 11.9666667,60 26.6666667,60 C41.3666667,60 53.3333333,54.0333333 53.3333333,46.6666667 L53.3333333,13.3333333 C53.3333333,5.96666667 41.4,0 26.6666667,0 M46.6666667,46.6666667 C46.6666667,48.3333333 39.5666667,53.3333333 26.6666667,53.3333333 C13.7666667,53.3333333 6.66666667,48.3333333 6.66666667,46.6666667 L6.66666667,39.2333333 C12.0333333,41.8333333 19.0666667,43.3333333 26.6666667,43.3333333 C34.2666667,43.3333333 41.3,41.8333333 46.6666667,39.2333333 L46.6666667,46.6666667 M46.6666667,31.5 C42.3333333,34.6666667 34.7333333,36.6666667 26.6666667,36.6666667 C18.6,36.6666667 11,34.6666667 6.66666667,31.5 L6.66666667,22.1333333 C11.5666667,24.9 18.7,26.6666667 26.6666667,26.6666667 C34.6333333,26.6666667 41.7666667,24.9 46.6666667,22.1333333 L46.6666667,31.5 M26.6666667,20 C13.7666667,20 6.66666667,15 6.66666667,13.3333333 C6.66666667,11.6666667 13.7666667,6.66666667 26.6666667,6.66666667 C39.5666667,6.66666667 46.6666667,11.6666667 46.6666667,13.3333333 C46.6666667,15 39.5666667,20 26.6666667,20 Z"></path>
                        </g>
                    </g>
                </g>
            </g>
        </g>
    </g>
</svg>