<svg xmlns="http://www.w3.org/2000/svg" xmlns:xlink="http://www.w3.org/1999/xlink" width="18" height="33" viewBox="0 0 18 33">
  <defs>
    <polygon id="折叠-a" points="8.989 4.322 8.167 3.5 4.667 7 8.167 10.5 8.989 9.678 6.317 7"/>
  </defs>
  <g fill="none" fill-rule="evenodd">
    <path fill="#FFF" d="M18,0.568 L18,32.568 L10,32.568 L10,31.3726835 L9.84972572,31.055797 C8.88190632,29.0448224 7.61440204,26.9788788 6.38230987,26.0856529 C4.88444956,25.0660113 2.40452482,22.3157988 1.50192618,19.7033424 L1.50192618,19.7033424 L1.40897971,19.4137313 L1.34492228,19.3591009 L1.36085166,19.2455776 L1.26690729,18.878743 C1.12161178,18.2625108 1.03312317,17.6225107 1.00766295,16.9653214 L1.00766295,16.9653214 L1,16.5670022 L1.00766295,16.1706786 C1.03821521,15.3820515 1.15952836,14.6181768 1.36085166,13.8904224 L1.36085166,13.8904224 L1.34492228,13.7768991 L1.40897971,13.7222687 L1.49835362,13.4430237 C2.36425161,10.9242239 4.85941881,8.27503411 6.38230987,7.1706674 L6.38230987,7.1706674 L6.38230987,7.05034711 L6.62291818,6.87635367 C8.03922528,5.79057763 8.97397017,3.9591832 10,1.76331649 L10,1.76331649 L10,0.568 L18,0.568 Z"/>
    <path stroke="#D9E6F2" d="M-199.5,-12.5 L9.5,-12.5 L9.5,1.65217471 C8.53367134,3.71641118 7.65930315,5.45181418 6.31221496,6.48460948 C4.4883822,7.93114201 1.92023243,10.6778379 1.02551381,13.2804737 C0.664307415,14.5309592 0.539917867,15.3284202 0.508037747,16.1513226 C0.534203157,17.6884793 0.629267107,18.3531267 0.780251525,18.9934869 C1.97144975,22.598594 4.54857003,25.441956 6.10011469,26.4986761 C7.25871959,27.345631 8.43210468,29.2809877 9.34974873,31.170369 L9.34974873,31.170369 L9.49989953,778.5 L-199.5,778.5 L-199.5,-12.5 Z"/>
    <g transform="translate(3 9.568)">
      <circle cx="7" cy="7" r="7" fill="#5365EA"/>
      <mask id="折叠-b" fill="#fff">
        <use xlink:href="#折叠-a"/>
      </mask>
      <g fill="#FFF" mask="url(#折叠-b)">
        <rect width="14" height="14"/>
      </g>
    </g>
  </g>
</svg>
