<?xml version="1.0" encoding="UTF-8"?>
<svg width="477px" height="281px" viewBox="0 0 477 281" version="1.1" xmlns="http://www.w3.org/2000/svg" xmlns:xlink="http://www.w3.org/1999/xlink">
    <title>null</title>
    <g id="缺省页" stroke="none" stroke-width="1" fill="none" fill-rule="evenodd">
        <g id="个人工作台-资源管理-无卡片" transform="translate(-482.000000, -208.000000)">
            <g id="null" transform="translate(482.296128, 208.500000)">
                <path d="M223.582992,270.329701 L188.271033,270.329701 C185.679613,269.313447 183.180589,268.075768 180.801695,266.630398 C177.366459,264.49428 174.200007,261.653197 174.94977,258.715445 C175.558068,256.341195 177.896952,256.414286 180.214616,257.159333 C182.777486,257.98926 185.312063,259.644397 185.437023,259.724561 C185.347429,259.632609 183.531964,257.755843 181.044543,254.801587 C174.381553,246.888993 162.8899,231.22413 166.815547,221.345175 C169.331262,215.002839 178.722163,217.879288 189.464053,226.131399 C193.981494,229.599643 198.734709,234.018058 203.318167,239.099001 C211.334503,247.987702 218.820346,258.908781 223.582992,270.329701 Z" id="路径" fill="#686FFF" fill-rule="nonzero"></path>
                <path d="M203.318167,239.101358 C203.278085,243.788557 201.604086,248.577139 196.134116,251.496028 C188.004608,255.831922 188.589329,264.935179 189.810641,270.329701 L188.271033,270.329701 C185.679613,269.313447 183.180589,268.075768 180.801695,266.630398 C179.936402,263.933137 179.372901,260.540341 180.214616,257.159333 C182.777486,257.98926 185.312063,259.644397 185.437023,259.724561 C185.347429,259.632609 183.531964,257.755843 181.044543,254.801587 C181.952275,252.854089 183.423508,250.970251 185.677513,249.284462 C193.832956,243.187332 191.571878,232.197879 189.464053,226.131399 C193.981494,229.597285 198.739425,234.018058 203.318167,239.101358 Z" id="路径" fill="#C0C4FD" fill-rule="nonzero"></path>
                <path d="M200.625621,255.202404 C192.826198,260.785546 194.943454,273.498512 202.683933,265.66608 C210.424413,257.833649 207.934633,249.961135 200.625621,255.202404 Z" id="路径" fill="#C0C4FD" fill-rule="nonzero"></path>
                <path d="M214.750876,270.329701 L212.987283,270.329701 C211.388731,268.559034 208.729194,265.61421 205.558026,262.077591 C203.801505,260.115946 201.889373,257.975113 199.913582,255.758832 C198.67105,254.363047 197.402583,252.929537 196.141189,251.51489 C194.002713,249.0982 191.86188,246.669722 189.831861,244.3497 C180.577709,233.763422 173.657725,225.438221 179.868027,231.023721 C183.098139,233.928464 186.868175,237.804598 190.73252,242.022605 C193.182218,244.693931 195.683786,247.502007 198.083971,250.274716 C199.321788,251.689363 200.536027,253.118157 201.717258,254.518658 C203.412477,256.515669 205.036964,258.453736 206.543563,260.266842 C210.162703,264.616883 213.109885,268.264316 214.750876,270.329701 Z" id="路径" fill="#FFFFFF" fill-rule="nonzero"></path>
                <path d="M250.157145,262.659954 C247.892855,265.133643 245.498726,267.485273 242.984882,269.704899 C242.513333,270.108073 242.263412,270.329701 242.263412,270.329701 L223.582992,270.329701 C225.452685,264.199562 228.694585,258.670648 232.48584,254.146134 C234.10785,252.199441 235.883427,250.386018 237.795484,248.723319 C245.729298,241.859921 254.337428,239.374857 257.706647,244.102137 C261.075866,248.829417 255.523374,256.763232 250.157145,262.659954 Z" id="路径" fill="#686FFF" fill-rule="nonzero"></path>
                <path d="M250.157145,262.659954 C247.892855,265.133643 245.498726,267.485273 242.984882,269.704899 C243.444643,266.736497 242.487398,263.499312 237.894509,261.092053 C234.423907,259.271873 232.917308,256.753801 232.48584,254.146134 C234.10785,252.199441 235.883427,250.386018 237.795484,248.723319 C237.142388,251.602126 237.675239,254.454999 241.780074,255.325007 C246.945895,256.421359 249.195185,259.873099 250.157145,262.659954 Z" id="路径" fill="#C0C4FD" fill-rule="nonzero"></path>
                <path d="M233.509102,270.329701 L230.830703,270.329701 C234.553583,265.293556 245.597265,250.651955 250.515522,247.424201 C253.507502,245.460199 238.264675,264.447125 233.509102,270.329701 Z" id="路径" fill="#FFFFFF" fill-rule="nonzero"></path>
                <polygon id="矩形" stroke="#0F1358" points="281.332157 230.490871 289.045835 230.490871 288.110866 253.622229 282.510866 253.622229"></polygon>
                <polygon id="矩形" stroke="#0F1358" points="328.710866 231.890871 336.424544 231.890871 338.510866 250.822229 332.910866 250.822229"></polygon>
                <path d="M301.254212,150.961747 C300.768516,154.58796 292.594211,232.987723 292.594211,232.987723 L277.938464,233.086749 L275.196405,194.466873 L274.437211,183.783927 L270.688395,130.984567 C269.240739,113.162367 298.533373,113.065699 301.091527,129.400162 C302.164302,136.249414 301.739907,147.333177 301.254212,150.961747 Z" id="路径" fill="#FFA25E" fill-rule="nonzero"></path>
                <path d="M285.872278,188.489987 C285.947726,193.056941 283.196237,196.805757 279.723277,196.8647 C277.964399,196.892993 276.361132,195.971115 275.194047,194.459799 L274.434853,183.776853 C275.547709,181.713826 277.367889,180.355764 279.447421,180.322756 C282.910949,180.268528 285.79683,183.923034 285.872278,188.489987 Z" id="路径" fill="#FFFFFF" fill-rule="nonzero"></path>
                <path d="M260.531226,267.450894 L260.531226,270.327343 L290.144514,270.327343 C290.144514,270.327343 290.241181,268.825459 290.333133,266.300314 C290.517037,261.332543 290.693868,252.389614 290.144514,243.16847 L279.341322,242.225371 C279.341322,242.225371 273.810051,251.524321 266.590633,259.41098 C265.84087,260.229118 263.860363,261.575391 263.028079,262.332228 C261.434243,263.784599 260.531226,265.581201 260.531226,267.450894 Z" id="路径" fill="#6580FE" fill-rule="nonzero"></path>
                <ellipse id="椭圆形" fill="#FFFFFF" fill-rule="nonzero" cx="286.772937" cy="255.33208" rx="1.94514028" ry="4.3971959"></ellipse>
                <path d="M260.531226,267.450894 L260.531226,270.327343 L290.144514,270.327343 C290.144514,270.327343 290.241181,268.825459 290.333133,266.300314 L276.766664,266.300314 C276.766664,266.300314 277.530574,258.623493 266.590633,259.408623 C265.84087,260.226761 263.860363,261.573033 263.028079,262.32987 C261.434243,263.784599 260.531226,265.581201 260.531226,267.450894 Z" id="路径" fill="#FFFFFF" fill-rule="nonzero"></path>
                <polygon id="路径" fill="#FFFFFF" fill-rule="nonzero" points="335.809334 231.259496 337.919516 244.604337 331.961493 246.294841 328.290483 232.127146"></polygon>
                <path d="M300.75437,156.507166 C301.933242,159.968336 325.215982,235.277095 325.215982,235.277095 L339.61002,232.52089 L334.781357,194.106138 L333.446873,183.479777 L326.845185,130.96099 C324.796303,113.197733 296.045951,118.813884 296.715551,135.325177 C296.996123,142.259308 299.570781,153.045995 300.75437,156.507166 Z" id="路径" fill="#FFA25E" fill-rule="nonzero"></path>
                <path d="M323.145881,190.329029 C323.961661,194.82525 327.389824,197.965767 330.806197,197.348038 C332.536783,197.034458 333.930211,195.817861 334.778999,194.108495 L333.444515,183.482135 C331.952062,181.676102 329.907896,180.697637 327.856657,181.070161 C324.442642,181.687891 322.332459,185.832808 323.145881,190.329029 Z" id="路径" fill="#FFFFFF" fill-rule="nonzero"></path>
                <path d="M359.337279,267.450894 L359.337279,270.327343 L329.723992,270.327343 C329.723992,270.327343 329.627325,268.825459 329.535372,266.300314 C329.351468,261.332543 329.174637,252.389614 329.723992,243.16847 L340.527183,242.225371 C340.527183,242.225371 346.058455,251.524321 353.277873,259.41098 C354.027636,260.229118 356.008142,261.575391 356.840426,262.332228 C358.431905,263.784599 359.337279,265.581201 359.337279,267.450894 Z" id="路径" fill="#6580FE" fill-rule="nonzero"></path>
                <ellipse id="椭圆形" fill="#FFFFFF" fill-rule="nonzero" cx="333.095569" cy="255.33208" rx="1.94514028" ry="4.3971959"></ellipse>
                <path d="M359.337279,267.450894 L359.337279,270.327343 L329.723992,270.327343 C329.723992,270.327343 329.627325,268.825459 329.535372,266.300314 L343.099484,266.300314 C343.099484,266.300314 342.335574,258.623493 353.275515,259.408623 C354.025278,260.226761 356.005784,261.573033 356.838069,262.32987 C358.431905,263.784599 359.337279,265.581201 359.337279,267.450894 Z" id="路径" fill="#FFFFFF" fill-rule="nonzero"></path>
                <path d="M278.124726,59.0002306 C270.273432,62.3435142 261.436601,87.2554562 261.85628,96.6770084 C262.285389,106.395636 275.493481,105.292211 279.838807,98.3533656 C287.305788,85.4965778 286.273095,55.5296288 278.124726,59.0002306 Z" id="路径" fill="#686FFF" fill-rule="nonzero"></path>
                <path d="M327.764705,65.8094005 L328.618209,134.815904 C328.618209,134.815904 326.6825,135.08233 323.341574,135.391194 L323.341574,127.445591 C323.3422,127.099785 323.188201,126.771806 322.921724,126.551415 C322.655247,126.331024 322.304198,126.2413 321.964651,126.3068 C321.410011,126.425594 321.015699,126.918484 321.021552,127.485673 L321.021552,135.586887 C310.048603,136.480473 288.920843,137.336334 269.297325,133.229141 C269.297325,133.229141 271.801251,75.2285949 278.122368,58.9884419 C278.122368,58.9884419 289.222635,52.653179 301.961535,52.9101733 C310.588527,53.0846464 319.345195,57.1211072 324.096053,59.7075544 C326.334516,60.9262077 327.738186,63.2608459 327.764705,65.8094005 Z" id="路径" fill="#686FFF" fill-rule="nonzero"></path>
                <path d="M309.518111,58.8964898 C307.773379,62.9541703 304.496112,65.776392 302.444873,66.4200566 C301.916738,63.5271026 300.464367,59.8867431 300.464367,59.8867431 C298.849311,62.1077396 297.998165,65.0478486 297.785968,66.3870482 C292.558845,64.951181 291.964693,58.7479518 291.964693,58.7479518 C292.478952,54.3726691 296.244383,51.1112718 300.648271,51.2267428 C308.862657,51.4978835 309.518111,58.8964898 309.518111,58.8964898 Z" id="路径" fill="#FFFFFF" fill-rule="nonzero"></path>
                <path d="M295.527247,102.42755 L285.860489,99.8198835 C285.447242,99.7086736 285.008853,99.7368499 284.613242,99.9000468 L277.672038,102.750562 C276.694341,103.154599 276.218804,104.265931 276.601622,105.25213 L278.252044,109.496072 C278.62771,110.46568 279.699533,110.968357 280.685237,110.637221 L283.783315,109.595098 L287.812703,110.616001 C289.374107,111.012033 291.025465,110.839877 292.471609,110.130306 L295.536678,108.628422 L295.536678,102.42755 L295.527247,102.42755 Z" id="路径" fill="#FFFFFF" fill-rule="nonzero"></path>
                <path d="M331.900191,105.344082 C330.85571,107.968253 329.542446,109.988841 327.972187,111.071046 C325.904444,112.485694 323.233118,113.292043 320.304798,113.681071 C309.254043,115.140516 294.522847,110.663156 294.522847,110.663156 L294.159755,101.024692 L314.976292,97.2381518 C314.976292,97.2381518 317.034604,59.9857684 323.935726,60.4054471 C334.102326,61.018461 335.849416,95.4415496 331.900191,105.344082 Z" id="路径" fill="#686FFF" fill-rule="nonzero"></path>
                <path d="M331.900191,105.344082 C330.862783,107.972968 329.542446,109.988841 327.972187,111.071046 C325.904444,112.485694 323.233118,113.292043 320.304798,113.681071 C319.642966,110.649923 320.845212,107.515292 323.364251,105.704125 C325.883289,103.892958 329.237583,103.751475 331.900191,105.344082 L331.900191,105.344082 Z" id="路径" fill="#C0C4FD" fill-rule="nonzero"></path>
                <circle id="椭圆形" fill="#FFFFFF" fill-rule="nonzero" transform="translate(296.912353, 108.155262) rotate(-37.980000) translate(-296.912353, -108.155262) " cx="296.912353" cy="108.155262" r="1.07277433"></circle>
                <path d="M302.998944,42.9086156 C302.265685,40.6569684 303.437484,38.1742621 305.684416,37.4268567 C306.160554,37.2655896 306.663116,37.1967674 307.16508,37.2240905 C310.180637,37.396206 310.82666,44.2006603 303.732203,45.1602629 L302.998944,42.9086156 Z" id="路径" fill="#FFFFFF" fill-rule="nonzero"></path>
                <path d="M295.961072,68.5325969 C295.961072,68.5325969 283.441442,102.20828 271.506533,104.085046 C271.334418,104.113339 271.162302,104.134558 270.992544,104.148705 C265.04631,104.620254 262.601327,101.739089 262.007175,98.1010868 C261.467252,94.8002427 262.445716,90.8816692 263.711825,88.2881488 C268.460326,78.557732 288.3597,61.5348074 288.3597,61.5348074 L295.961072,68.5325969 Z" id="路径" fill="#686FFF" fill-rule="nonzero"></path>
                <circle id="椭圆形" fill="#FFFFFF" fill-rule="nonzero" transform="translate(292.506348, 68.746545) rotate(-87.800000) translate(-292.506348, -68.746545) " cx="292.506348" cy="68.7465447" r="1.07513208"></circle>
                <path d="M272.192637,103.245688 C271.981602,103.539461 271.752456,103.819791 271.506533,104.085046 C271.334418,104.113339 271.162302,104.134558 270.992544,104.148705 C265.04631,104.620254 262.601327,101.739089 262.007175,98.1010868 C262.241628,97.5635498 262.530797,97.0515778 262.87011,96.5732675 C265.133546,93.4162459 269.05212,92.3529026 271.619705,94.194302 C274.18729,96.0357015 274.453715,100.091024 272.192637,103.245688 Z" id="路径" fill="#C0C4FD" fill-rule="nonzero"></path>
                <path d="M167.430918,4.79565494 C168.502133,4.32867186 169.357047,3.47375748 169.82403,2.40254296 L170.439402,0.987895486 L171.054774,2.40254296 C171.521757,3.47375748 172.376671,4.32867186 173.447886,4.79565494 L174.862533,5.41102659 L173.447886,6.02639824 C172.376671,6.49338131 171.521757,7.34829569 171.054774,8.41951021 L170.439402,9.83415769 L169.82403,8.41951021 C169.357047,7.34829569 168.502133,6.49338131 167.430918,6.02639824 L166.016271,5.41102659 L167.430918,4.79565494 Z" id="路径" fill="#5365EA" fill-rule="nonzero"></path>
                <path d="M347.911643,192.47222 C348.73204,192.11527 349.386662,191.460648 349.743612,190.640251 L350.215161,189.560404 L350.68671,190.640251 C351.043659,191.460648 351.698281,192.11527 352.518678,192.47222 L353.598526,192.943769 L352.518678,193.415318 C351.698281,193.772268 351.043659,194.426889 350.68671,195.247287 L350.215161,196.327134 L349.743612,195.247287 C349.386662,194.426889 348.73204,193.772268 347.911643,193.415318 L346.831796,192.943769 L347.911643,192.47222 Z" id="路径" fill="#5365EA" fill-rule="nonzero"></path>
                <path d="M362.520236,212.076876 C363.817554,211.511804 364.852834,210.476524 365.417906,209.179206 L366.162953,207.469841 L366.908001,209.179206 C367.473073,210.476524 368.508353,211.511804 369.805671,212.076876 L371.515036,212.821924 L369.805671,213.566971 C368.508353,214.132043 367.473073,215.167323 366.908001,216.464641 L366.162953,218.174007 L365.417906,216.464641 C364.852834,215.167323 363.817554,214.132043 362.520236,213.566971 L360.81087,212.821924 L362.520236,212.076876 Z" id="路径" fill="#5365EA" fill-rule="nonzero"></path>
                <path d="M254.290273,6.48615867 C256.11751,5.69029578 257.575668,4.23213716 258.371531,2.40490071 L259.420728,0 L260.469925,2.40490071 C261.265788,4.23213716 262.723947,5.69029578 264.551183,6.48615867 L266.956084,7.53535554 L264.551183,8.58455242 C262.723947,9.38041531 261.265788,10.8385739 260.469925,12.6658104 L259.420728,15.0707111 L258.371531,12.6658104 C257.575668,10.8385739 256.11751,9.38041531 254.290273,8.58455242 L251.885373,7.53535554 L254.290273,6.48615867 Z" id="路径" fill="#5365EA" fill-rule="nonzero"></path>
                <path d="M332.678248,45.5398599 C334.050004,44.9413973 335.144854,43.8465465 335.743317,42.4747904 L336.530804,40.6663994 L337.318291,42.4747904 C337.916754,43.8465465 339.011605,44.9413973 340.383361,45.5398599 L342.191752,46.327347 L340.392792,47.1077609 C339.021036,47.7062235 337.926185,48.8010743 337.327722,50.1728304 L336.540235,51.9812214 L335.752748,50.1728304 C335.154285,48.8010743 334.059435,47.7062235 332.687679,47.1077609 L330.879288,46.3202738 L332.678248,45.5398599 Z" id="路径" fill="#5365EA" fill-rule="nonzero"></path>
                <circle id="椭圆形" fill="#5365EA" fill-rule="nonzero" cx="243.267812" cy="62.5085564" r="2.69254569"></circle>
                <circle id="椭圆形" fill="#5365EA" fill-rule="nonzero" cx="181.051616" cy="201.172302" r="2.69254569"></circle>
                <path d="M242.099992,196.069238 L227.404163,180.616572 C226.863211,180.049902 226.024929,179.883448 225.30851,180.200447 C224.592091,180.517447 224.1515,181.249773 224.20706,182.031219 L225.829189,203.288655 C225.886098,204.032193 226.382056,204.669657 227.088778,204.90763 C227.7955,205.145602 228.576027,204.937965 229.071089,204.380292 L232.371933,200.659769 L236.526281,210.003515 C236.943057,210.940968 238.040788,211.363172 238.978337,210.946614 L238.978337,210.946614 C239.91579,210.529838 240.337994,209.432107 239.921435,208.494558 L235.767087,199.150812 L240.741931,199.190893 C241.480074,199.189375 242.147306,198.75103 242.441773,198.074165 C242.73624,197.397299 242.602082,196.610314 242.099992,196.069238 L242.099992,196.069238 Z" id="路径" fill="#FFFFFF" fill-rule="nonzero"></path>
                <path d="M238.226216,211.77654 C237.232427,211.77654 236.331636,211.191954 235.927414,210.284087 L232.185671,201.869292 L229.559143,204.828263 C228.890171,205.583103 227.834468,205.864406 226.878592,205.542524 C225.922716,205.220643 225.252207,204.358054 225.176093,203.352315 L223.553964,182.094878 C223.472677,181.035492 224.06696,180.039614 225.037907,179.608141 C226.008854,179.176668 227.14627,179.403006 227.87807,180.173316 L242.573899,195.616551 L242.573899,195.616551 C243.267421,196.343771 243.460587,197.414433 243.064923,198.338161 C242.66926,199.261888 241.760976,199.860763 240.756077,199.860493 L240.734858,199.860493 L236.77856,199.827485 L240.515587,208.244637 C240.860918,209.020633 240.790551,209.918607 240.328559,210.63134 C239.866568,211.344072 239.075581,211.774943 238.226216,211.77654 Z M232.371933,200.02082 C232.404896,200.018376 232.437995,200.018376 232.470959,200.02082 C232.690893,200.055386 232.878245,200.19923 232.968443,200.402775 L237.122791,209.746521 C237.392987,210.353322 238.103932,210.626194 238.710733,210.355998 C239.317533,210.085803 239.590406,209.374857 239.32021,208.768057 L235.165862,199.42431 C235.076714,199.221785 235.095769,198.987952 235.216529,198.802532 C235.33729,198.617113 235.543453,198.50514 235.764729,198.504789 L235.764729,198.504789 L240.739573,198.544871 L240.739573,198.544871 C241.22073,198.544826 241.655535,198.257957 241.844886,197.815625 C242.034238,197.373292 241.941674,196.86067 241.609581,196.512494 L226.930256,181.088121 C226.579811,180.719862 226.035645,180.611772 225.571059,180.818137 C225.106473,181.024502 224.821857,181.50073 224.860155,182.007642 L226.482284,203.265078 C226.518747,203.746543 226.839665,204.159502 227.297214,204.313732 C227.754763,204.467962 228.26019,204.333546 228.580678,203.972402 L231.881522,200.251879 C232.00399,200.107698 232.182779,200.023461 232.371933,200.02082 L232.371933,200.02082 Z" id="形状" fill="#0F1358" fill-rule="nonzero"></path>
                <path d="M344.898444,158.940359 L344.898444,158.940359 C343.953181,158.934643 343.008837,158.880343 342.069149,158.777675 C341.858564,158.754931 341.676108,158.62157 341.590512,158.427826 C341.504915,158.234082 341.529182,158.00939 341.654171,157.83839 C341.77916,157.667389 341.985882,157.576059 342.196467,157.598802 C343.093092,157.696743 343.994146,157.748681 344.896086,157.754413 C345.223576,157.753762 345.489587,158.018717 345.490239,158.346207 C345.490889,158.673697 345.225934,158.939708 344.898444,158.940359 Z M347.649933,158.784748 C347.439348,158.797383 347.238018,158.696712 347.121783,158.520658 C347.005548,158.344603 346.992067,158.119911 347.086417,157.931221 C347.180767,157.742531 347.368616,157.61851 347.579201,157.605875 C348.463091,157.499589 349.337864,157.327787 350.196299,157.091886 C350.510116,157.004643 350.835241,157.188317 350.922485,157.502134 C351.009728,157.815952 350.826054,158.141076 350.512237,158.22832 C349.597414,158.480376 348.665102,158.664001 347.723023,158.777675 L347.649933,158.784748 Z M339.397823,158.369785 C339.364089,158.37265 339.330174,158.37265 339.29644,158.369785 C338.38635,158.209458 337.478618,158.079782 336.596821,157.983114 C336.271284,157.947305 336.036414,157.654377 336.072223,157.32884 C336.108032,157.003303 336.40096,156.768432 336.726497,156.804241 C337.631871,156.903267 338.565539,157.040016 339.499206,157.200343 C339.792197,157.25865 339.99524,157.526926 339.971776,157.82474 C339.948312,158.122554 339.705761,158.355723 339.407254,158.367427 L339.397823,158.369785 Z M331.145713,157.782706 C330.820176,157.789868 330.550471,157.531774 330.543309,157.206237 C330.536147,156.8807 330.794241,156.610995 331.119778,156.603833 C332.036941,156.561394 332.98947,156.559036 333.932568,156.603833 C334.088931,156.609361 334.236681,156.676829 334.343264,156.791372 C334.449846,156.905915 334.506515,157.058134 334.500785,157.214489 C334.485505,157.538387 334.214287,157.790756 333.890129,157.782706 C332.980039,157.749698 332.05816,157.752055 331.174006,157.782706 L331.145713,157.782706 L331.145713,157.782706 Z M352.935999,157.297021 C352.660168,157.297139 352.421132,157.105963 352.360638,156.836847 C352.300143,156.567731 352.434369,156.29265 352.683721,156.174723 C353.483908,155.796853 354.248533,155.347863 354.968376,154.833166 C355.139793,154.710605 355.363573,154.688804 355.555422,154.775975 C355.747271,154.863146 355.878042,155.046045 355.898474,155.255776 C355.918907,155.465508 355.825897,155.670208 355.65448,155.792769 C354.876735,156.349094 354.050558,156.834385 353.18592,157.242782 C353.10761,157.279004 353.022279,157.297519 352.935999,157.297021 L352.935999,157.297021 Z M357.415716,154.102266 C357.178185,154.102706 356.963598,153.96053 356.871399,153.741621 C356.7792,153.522713 356.827407,153.269854 356.99368,153.100223 C357.615995,152.462015 358.187521,151.776184 358.703046,151.048984 C358.82222,150.869987 359.029416,150.770094 359.243682,150.788334 C359.457948,150.806575 359.645277,150.940053 359.732481,151.136618 C359.819684,151.333184 359.792921,151.561641 359.662648,151.73273 C359.11176,152.510228 358.500806,153.243372 357.835395,153.925434 C357.724994,154.038446 357.573704,154.102192 357.415716,154.102266 L357.415716,154.102266 Z M360.624608,149.622548 C360.418537,149.62217 360.227624,149.5142 360.121106,149.337793 C360.014587,149.161386 360.007929,148.942159 360.103547,148.759613 C360.521373,147.962063 360.894475,147.14187 361.221118,146.302842 C361.297771,146.106576 361.473308,145.966113 361.681605,145.934364 C361.889903,145.902615 362.099316,145.984403 362.23096,146.148919 C362.362605,146.313435 362.396481,146.535686 362.319828,146.731951 C361.975011,147.612174 361.581444,148.472511 361.140955,149.308968 C361.038614,149.50436 360.835745,149.626263 360.615177,149.624917 L360.624608,149.622548 Z M362.649912,144.482662 C362.594842,144.482534 362.540068,144.474596 362.487228,144.459085 C362.336817,144.416286 362.209578,144.315471 362.13352,144.178832 C362.057462,144.042193 362.038819,143.88093 362.081695,143.730541 C362.31747,142.88411 362.539098,141.99524 362.723002,141.08515 C362.765119,140.878777 362.914136,140.710549 363.113919,140.643836 C363.313703,140.577124 363.533901,140.622062 363.691567,140.761724 C363.849233,140.901385 363.920415,141.114551 363.878298,141.320925 C363.689678,142.264023 363.465692,143.181186 363.215771,144.05591 C363.142344,144.311727 362.906598,144.486604 362.640481,144.482662 L362.649912,144.482662 Z M363.753337,139.059847 L363.675531,139.059847 C363.520439,139.03987 363.37964,138.959084 363.284126,138.83527 C363.188612,138.711455 363.146212,138.554762 363.166258,138.399678 C363.281788,137.50845 363.371382,136.593645 363.430326,135.678839 C363.444224,135.468254 363.569413,135.28108 363.758735,135.187824 C363.948057,135.094567 364.172748,135.109397 364.348171,135.226726 C364.523594,135.344056 364.623098,135.546059 364.609199,135.756645 C364.547897,136.699743 364.455945,137.642841 364.338058,138.552931 C364.296429,138.847695 364.041548,139.065153 363.743906,139.059847 L363.753337,139.059847 Z M364.109357,133.530933 C363.784738,133.530935 363.521219,133.26847 363.51992,132.943854 C363.51992,132.23653 363.493985,131.819209 363.493985,131.816852 C363.474453,131.491315 363.722519,131.211581 364.048055,131.192049 C364.373592,131.172517 364.653326,131.420583 364.672858,131.746119 C364.672858,131.764981 364.698793,132.194091 364.701156,132.941496 C364.701777,133.097825 364.640276,133.248 364.530178,133.358983 C364.420079,133.469966 364.270401,133.532666 364.114072,133.533291 L364.114072,133.533291 L364.109357,133.530933 Z" id="形状" fill="#0F1358" fill-rule="nonzero"></path>
                <path d="M276.559182,239.372499 C275.851859,239.372499 275.144535,239.351279 274.437211,239.30884 C274.226626,239.296205 274.038778,239.172183 273.944427,238.983494 C273.850077,238.794804 273.863558,238.570112 273.979793,238.394057 C274.096028,238.218002 274.297358,238.117332 274.507943,238.129967 C275.186974,238.170049 275.880152,238.191268 276.566256,238.191268 C276.759591,238.191268 276.967072,238.191268 277.167481,238.191268 L277.233498,238.191268 C277.559034,238.187362 277.826101,238.448095 277.830007,238.773632 C277.833914,239.099168 277.573181,239.366235 277.247644,239.370141 L277.183985,239.370141 C276.971788,239.370141 276.759591,239.372499 276.559182,239.372499 Z M279.982629,239.198026 C279.772044,239.208976 279.571613,239.106749 279.456837,238.929852 C279.342061,238.752955 279.330377,238.528263 279.426186,238.340415 C279.521996,238.152568 279.710742,238.030103 279.921328,238.019153 C280.826702,237.922485 281.727361,237.783378 282.595012,237.608905 C282.914038,237.543798 283.225439,237.74964 283.290547,238.068666 C283.355654,238.387692 283.149812,238.699093 282.830786,238.764201 C281.927769,238.948105 280.991744,239.091927 280.048646,239.190953 L279.984987,239.190953 L279.982629,239.198026 Z M271.730519,239.030626 L271.64564,239.030626 C270.719046,238.898592 269.790094,238.724119 268.882362,238.511922 C268.674339,238.467094 268.506629,238.313622 268.443571,238.110382 C268.380512,237.907142 268.431895,237.685692 268.578009,237.530987 C268.724123,237.376281 268.94228,237.312343 269.148787,237.3637 C270.023511,237.566466 270.919454,237.733866 271.81304,237.863542 C272.101781,237.926083 272.29962,238.192719 272.275776,238.487192 C272.251932,238.781665 272.013772,239.012997 271.71873,239.028268 L271.730519,239.030626 Z M285.405445,238.08753 C285.113376,238.0883 284.864786,237.87507 284.821085,237.586288 C284.777383,237.297506 284.951752,237.02027 285.230971,236.93459 C286.089623,236.665332 286.93332,236.35052 287.758475,235.991492 C287.951792,235.907257 288.175363,235.932555 288.344971,236.057856 C288.514578,236.183157 288.604455,236.389424 288.580745,236.598959 C288.557036,236.808494 288.423341,236.989463 288.230024,237.073697 C287.366297,237.448131 286.483251,237.776322 285.584633,238.056877 C285.519201,238.078016 285.450586,238.08759 285.381867,238.08517 L285.405445,238.08753 Z M266.366647,237.776305 C266.305025,237.776422 266.243765,237.766875 266.185101,237.748012 C265.298588,237.458009 264.412076,237.127925 263.551499,236.764832 C263.357339,236.682704 263.221743,236.503231 263.195788,236.29402 C263.169834,236.084808 263.257464,235.877643 263.425669,235.750559 C263.593874,235.623476 263.8171,235.595783 264.011259,235.677911 C264.841186,236.029215 265.69469,236.347511 266.550551,236.62101 C266.863062,236.685892 267.067156,236.987731 267.010959,237.30192 C266.954763,237.616109 266.658695,237.828488 266.34307,237.781021 L266.366647,237.776305 Z M290.462809,235.890108 C290.195655,235.889958 289.962006,235.710148 289.893446,235.45194 C289.824885,235.193733 289.938558,234.921701 290.170449,234.789041 C290.951468,234.342902 291.707833,233.854924 292.436242,233.327239 C292.60656,233.198099 292.833441,233.171279 293.029175,233.257148 C293.224908,233.343016 293.35882,233.528116 293.37914,233.740889 C293.39946,233.953661 293.303004,234.160762 293.127062,234.282126 C292.3637,234.834454 291.571135,235.345254 290.752812,235.812303 C290.658105,235.868703 290.549433,235.897301 290.439232,235.894824 L290.462809,235.890108 Z M261.28099,235.626041 C261.185623,235.625802 261.091751,235.602334 261.007491,235.557666 C260.186996,235.126199 259.368858,234.652292 258.574297,234.143019 C258.306567,233.965693 258.230048,233.606683 258.402205,233.3356 C258.574362,233.064517 258.931838,232.981125 259.206173,233.14805 C259.974798,233.636104 260.764643,234.091148 261.563919,234.510827 C261.822023,234.632965 261.955464,234.922541 261.880627,235.198103 C261.80579,235.473666 261.5442,235.655959 261.25977,235.630756 L261.28099,235.626041 Z M256.591433,232.662359 C256.463869,232.662525 256.33972,232.621142 256.237771,232.544467 C255.497439,231.990397 254.761822,231.396245 254.052141,230.778516 C253.884978,230.642751 253.805159,230.426629 253.843949,230.214801 C253.882738,230.002973 254.033961,229.829159 254.238386,229.761438 C254.442811,229.693718 254.667897,229.742871 254.825482,229.889645 C255.513943,230.488513 256.225983,231.068518 256.947453,231.601369 C257.150773,231.753855 257.233463,232.019491 257.152612,232.260436 C257.071762,232.501381 256.845579,232.663374 256.591433,232.662359 L256.591433,232.662359 Z M294.90716,232.662355 C294.663008,232.662311 294.444156,232.511751 294.356826,232.283752 C294.269496,232.055753 294.331768,231.797514 294.513416,231.634377 C295.173585,231.040225 295.819608,230.401276 296.432622,229.729319 C296.572449,229.565727 296.790318,229.491343 297.000995,229.535267 C297.211671,229.579192 297.381664,229.734442 297.444467,229.940281 C297.507271,230.14612 297.452901,230.369826 297.30263,230.523879 C296.663681,231.231203 295.989365,231.891372 295.300904,232.511459 C295.193475,232.608239 295.05411,232.66197 294.909518,232.662355 L294.90716,232.662355 Z M252.415865,229.04793 C252.259379,229.04847 252.109153,228.986513 251.998544,228.875815 C251.345449,228.222719 250.699426,227.534257 250.079339,226.829291 C249.940353,226.670931 249.896408,226.450452 249.964059,226.250906 C250.03171,226.05136 250.200678,225.903064 250.407315,225.861878 C250.613953,225.820693 250.826865,225.892875 250.965852,226.051235 C251.569435,226.737339 252.196595,227.406939 252.830829,228.041173 C253.000938,228.208935 253.052953,228.462789 252.962532,228.683934 C252.87211,228.905079 252.657139,229.049768 252.418223,229.050288 L252.415865,229.04793 Z M298.627683,228.592885 C298.404421,228.592885 298.200321,228.466744 298.100475,228.267053 C298.000629,228.067361 298.022177,227.828397 298.156134,227.649787 C298.691342,226.942463 299.210046,226.190342 299.695742,225.417002 C299.874133,225.154484 300.22836,225.080356 300.497045,225.249316 C300.765729,225.418276 300.852384,225.769649 300.693068,226.044162 C300.190868,226.843438 299.653302,227.623852 299.096874,228.359468 C298.986571,228.50503 298.815024,228.591239 298.632398,228.592885 L298.627683,228.592885 Z M248.761359,224.893582 C248.57583,224.893582 248.401128,224.806231 248.28981,224.657808 C247.719236,223.919833 247.165166,223.155923 246.639388,222.384941 C246.468307,222.115721 246.542432,221.759252 246.806655,221.580551 C247.070878,221.401849 247.429319,221.465761 247.615495,221.724772 C248.12241,222.474535 248.662334,223.217225 249.218762,223.936337 C249.359232,224.112204 249.387285,224.352715 249.29106,224.556189 C249.194836,224.759664 248.991135,224.890577 248.766075,224.893582 L248.761359,224.893582 Z M301.574865,223.922191 C301.368793,223.921813 301.177881,223.813843 301.071362,223.637436 C300.964843,223.461029 300.958186,223.241802 301.053803,223.059256 C301.466409,222.269411 301.860152,221.4442 302.232676,220.602485 C302.31691,220.409167 302.497879,220.275473 302.707414,220.251763 C302.916949,220.228054 303.123216,220.31793 303.248517,220.487538 C303.373818,220.657146 303.399116,220.880717 303.314882,221.074034 C302.937642,221.941684 302.53211,222.792831 302.105358,223.608611 C302.001986,223.803848 301.798121,223.924893 301.577223,223.922191 L301.574865,223.922191 Z M245.658566,220.310126 C245.449374,220.310677 245.255562,220.200311 245.149293,220.020122 C244.66196,219.206009 244.215785,218.367955 243.812451,217.509122 C243.715899,217.220036 243.855657,216.905016 244.134775,216.782596 C244.413893,216.660176 244.740308,216.770733 244.887583,217.037573 C244.887583,217.037573 245.311977,217.980671 246.163124,219.433043 C246.264358,219.614043 246.263024,219.834927 246.159611,220.014691 C246.056198,220.194455 245.865924,220.306647 245.658566,220.310126 L245.658566,220.310126 Z M303.774642,218.857754 C303.582773,218.858163 303.402712,218.765161 303.29199,218.608462 C303.181269,218.451763 303.153746,218.25098 303.218214,218.070266 C303.520005,217.223835 303.798219,216.351469 304.050498,215.476745 C304.140346,215.163579 304.467054,214.982544 304.780221,215.072392 C305.093387,215.16224 305.274422,215.488948 305.184574,215.802114 C304.92758,216.702773 304.639935,217.601074 304.33107,218.468725 C304.246988,218.7013 304.026663,218.856658 303.779357,218.857754 L303.774642,218.857754 Z M305.297746,213.545752 C305.254136,213.545752 305.210657,213.540991 305.16807,213.531605 C305.014511,213.497842 304.880805,213.404128 304.79668,213.271299 C304.712555,213.138471 304.684985,212.977538 304.720098,212.824281 C304.915791,211.9472 305.090264,211.044183 305.238802,210.141167 C305.302406,209.831145 305.599483,209.62668 305.911775,209.67799 C306.224068,209.7293 306.440106,210.018069 306.401171,210.332144 C306.250275,211.25638 306.071086,212.180617 305.870678,213.078918 C305.814074,213.34556 305.582024,213.538609 305.309534,213.545752 L305.297746,213.545752 Z M306.196047,208.089928 L306.132388,208.089928 C305.808866,208.055308 305.574584,207.765095 305.608968,207.441548 C305.707993,206.538531 305.781084,205.621368 305.830596,204.715994 C305.848175,204.390457 306.126326,204.140808 306.451862,204.158387 C306.777399,204.175966 307.027048,204.454116 307.009469,204.779653 C306.959957,205.706247 306.882151,206.64463 306.773695,207.568866 C306.739615,207.861247 306.495056,208.083665 306.200762,208.089928 L306.196047,208.089928 Z M306.497838,202.568087 C306.172302,202.568087 305.908402,202.304188 305.908402,201.978651 L305.908402,201.914992 C305.908402,201.023764 305.884824,200.12782 305.83767,199.246023 C305.820742,198.920487 306.070919,198.642864 306.396455,198.625936 C306.721992,198.609008 306.999615,198.859185 307.016542,199.184722 C307.063697,200.085381 307.087275,201.004902 307.087275,201.914992 L307.087275,201.978651 C307.087275,202.302355 306.826248,202.565498 306.502554,202.568087 L306.497838,202.568087 Z M306.207836,197.048604 C305.903255,197.048678 305.648778,196.816685 305.620757,196.513396 C305.53352,195.584444 305.465146,194.648419 305.417991,193.731256 C305.401063,193.405719 305.65124,193.128097 305.976777,193.111169 C306.302313,193.094241 306.579936,193.344418 306.596864,193.669955 C306.641661,194.570614 306.710035,195.490134 306.794914,196.402582 C306.824989,196.726004 306.587747,197.012802 306.264422,197.043889 L306.207836,197.043889 L306.207836,197.048604 Z M305.927264,191.526764 C305.60356,191.526774 305.340417,191.265737 305.337827,190.942043 C305.337827,190.808437 305.337827,190.675617 305.337827,190.543584 C305.337827,189.74195 305.354332,188.937959 305.38734,188.150472 C305.400002,187.834178 305.660229,187.584359 305.976777,187.584613 L306.000354,187.584613 C306.156726,187.590742 306.304241,187.658803 306.410386,187.773794 C306.516532,187.888784 306.572593,188.041265 306.566213,188.197627 C306.535562,188.96861 306.519058,189.758454 306.519058,190.555372 C306.519058,190.685048 306.519058,190.817082 306.519058,190.946758 C306.520314,191.103088 306.459414,191.253513 306.349756,191.364939 C306.240099,191.476366 306.090667,191.539665 305.934337,191.54091 L305.934337,191.54091 L305.927264,191.526764 Z M306.163038,186.002572 L306.10881,186.002572 C305.953092,185.988219 305.809457,185.912584 305.709521,185.792306 C305.609585,185.672029 305.561539,185.516969 305.57596,185.361258 C305.660839,184.41816 305.77401,183.489208 305.906044,182.583834 C305.953573,182.261553 306.253363,182.038821 306.575644,182.08635 C306.897925,182.133878 307.120657,182.433668 307.073128,182.755949 C306.943452,183.640104 306.837354,184.552552 306.750117,185.469715 C306.720873,185.772972 306.465342,186.003972 306.160681,186.002572 L306.163038,186.002572 Z" id="形状" fill="#0F1358" fill-rule="nonzero"></path>
                <path d="M140.814845,208.216835 C142.313321,213.162515 139.88726,218.432118 135.194766,220.524877 L134.93175,220.637851 C133.696179,221.149848 132.371849,221.413555 131.034397,221.413555 C125.770995,221.418837 121.362521,217.429506 120.843685,212.191736 C120.392804,207.639989 123.007272,203.436447 127.087736,201.73911 C127.095387,201.735286 127.103232,201.731988 127.111108,201.72873 L127.124856,201.723755 C127.728798,201.475326 128.36461,201.281703 129.02714,201.149838 C134.189291,200.122404 139.28862,203.179568 140.814845,208.216835 Z M127.305136,213.428637 L123.0484,215.18784 C123.469086,216.025713 124.026168,216.805344 124.712699,217.491876 C126.67832,219.457501 129.407107,220.361972 132.081006,220.042262 C131.646206,219.741591 131.200682,219.351048 130.751467,218.874257 C129.484836,217.531974 128.273688,215.615036 127.305136,213.428637 Z M134.026085,210.65 L128.514212,212.928995 C129.41812,214.969011 130.541474,216.745506 131.703996,217.985387 C132.735024,219.078498 133.703498,219.623214 134.319201,219.472467 L134.429551,219.428327 L134.534859,219.383867 C135.683761,218.70341 135.687468,214.988248 134.026085,210.65 Z M139.500789,208.387805 L135.239986,210.148983 C136.325392,212.99742 136.907557,216.082932 136.535952,218.200309 C139.127858,216.166963 140.446853,212.800481 139.776743,209.437461 C139.705225,209.078539 139.612765,208.728265 139.500789,208.387805 Z M125.508378,204.168976 L125.490605,204.182627 C124.317558,205.109098 123.371995,206.333877 122.776268,207.775021 C121.942949,209.790931 121.893294,211.990387 122.548528,213.978097 L126.806374,212.218242 C125.721098,209.37124 125.138457,206.286952 125.508378,204.168976 Z M127.938676,202.874594 L127.941034,202.876952 C127.83367,202.875471 127.727038,202.894207 127.62669,202.932127 C127.611806,202.938454 127.596701,202.944721 127.581615,202.951028 L127.61095,202.938253 C126.361277,203.454815 126.307204,207.258197 128.014471,211.71792 L133.526427,209.439651 C132.6229,207.401736 131.500433,205.627133 130.338862,204.388267 C129.421699,203.414518 128.556406,202.874594 127.938676,202.874594 Z M131.008461,202.259203 L131.008461,202.26158 C130.657935,202.262085 130.310788,202.283096 129.96841,202.323684 C130.402112,202.625505 130.8457,203.014951 131.293749,203.489966 C132.560767,204.83266 133.772268,206.750359 134.740968,208.937592 L139.001123,207.177135 C137.514792,204.215935 134.454088,202.252043 131.008461,202.259203 Z" id="形状结合" fill="#0F1358" fill-rule="nonzero"></path>
                <path d="M355.133418,270.982797 L122.440413,270.982797 C122.19729,270.997398 121.96612,270.875986 121.840146,270.667533 C121.714173,270.45908 121.714173,270.197965 121.840146,269.989512 C121.96612,269.781059 122.19729,269.659647 122.440413,269.674248 L355.133418,269.674248 C355.376541,269.659647 355.607712,269.781059 355.733686,269.989512 C355.859659,270.197965 355.859659,270.45908 355.733686,270.667533 C355.607712,270.875986 355.376541,270.997398 355.133418,270.982797 Z" id="路径" fill="#0F1358" fill-rule="nonzero"></path>
                <path d="M289.10239,279.998817 L188.471442,279.998817 C188.228319,280.013418 187.997148,279.892006 187.871175,279.683553 C187.745201,279.4751 187.745201,279.213985 187.871175,279.005532 C187.997148,278.797079 188.228319,278.675667 188.471442,278.690268 L289.10239,278.690268 C289.448502,278.711054 289.718549,278.997806 289.718549,279.344542 C289.718549,279.691278 289.448502,279.97803 289.10239,279.998817 Z" id="路径" fill="#0F1358" fill-rule="nonzero"></path>
                <path d="M176.991578,279.998817 L154.385511,279.998817 C154.142388,280.013418 153.911217,279.892006 153.785244,279.683553 C153.659271,279.4751 153.659271,279.213985 153.785244,279.005532 C153.911217,278.797079 154.142388,278.675667 154.385511,278.690268 L176.991578,278.690268 C177.2347,278.675667 177.465871,278.797079 177.591845,279.005532 C177.717818,279.213985 177.717818,279.4751 177.591845,279.683553 C177.465871,279.892006 177.2347,280.013418 176.991578,279.998817 Z" id="路径" fill="#0F1358" fill-rule="nonzero"></path>
                <path d="M325.418748,279.998817 L310.385761,279.998817 C310.039649,279.97803 309.769602,279.691278 309.769602,279.344542 C309.769602,278.997806 310.039649,278.711054 310.385761,278.690268 L325.418748,278.690268 C325.764861,278.711054 326.034908,278.997806 326.034908,279.344542 C326.034908,279.691278 325.764861,279.97803 325.418748,279.998817 Z" id="路径" fill="#0F1358" fill-rule="nonzero"></path>
                <g id="people" transform="translate(260.007162, 5.728896)">
                    <path d="M34.637037,95.76 C33.4755873,95.9496342 32.2311429,95.9496342 30.9037037,95.76 C28.9125449,95.4755487 28.1037037,93.8933333 24.837037,94.36 C21.5703704,94.8266667 18.2103311,95.8279609 16.9037037,98.56 C15.5970763,101.292039 18.7703704,104.16 22.5037037,103.226667 C26.237037,102.293333 27.1703704,105.093333 29.9703704,105.093333 C31.837037,105.093333 33.3925926,104.471111 34.637037,103.226667" id="直线-6" stroke="#0F1358" stroke-linecap="square"></path>
                    <path d="M60.7703704,56.56 C57.037037,67.1377778 55.1703704,73.9822222 55.1703704,77.0933333 C55.1703704,80.2044444 55.1703704,85.1822222 55.1703704,92.0266667" id="直线" stroke="#0F1358" stroke-linecap="square"></path>
                    <path d="M60.7703704,98.56 C58.5925926,94.5155556 56.7259259,92.3377778 55.1703704,92.0266667 C53.6148148,91.7155556 46.7703704,92.96 34.637037,95.76 L34.637037,104.16 C39.0844018,106.109728 42.8177351,107.354172 45.837037,107.893333 C48.8563389,108.432494 53.5230056,108.432494 59.837037,107.893333" id="直线-3" stroke="#0F1358" stroke-linecap="square"></path>
                    <path d="M17.3703704,56.0933333 C16.437037,58.2711111 15.6592593,60.2933333 15.037037,62.16 C14.4148148,64.0266667 14.4148148,66.2044444 15.037037,68.6933333" id="直线-4" stroke="#0F1358" stroke-linecap="square"></path>
                    <path d="M3.83703704,81.76 C14.4148148,67.4488889 22.5037037,59.0488889 28.1037037,56.56 C28.9069792,56.2029887 35.5703704,61.2266667 35.5703704,63.0933333 C34.6575034,66.2877351 30.5812442,74.9382524 26.237037,83.6266667 C23.7481481,88.6044444 19.3925926,93.5822222 13.1703704,98.56" id="直线-2" stroke="#0F1358" stroke-linecap="square"></path>
                    <path d="M39.7703704,94.36 C39.4592593,96.0192593 39.3037037,97.4192593 39.3037037,98.56 C39.3037037,99.7007407 39.4592593,101.100741 39.7703704,102.76" id="直线-5" stroke="#0F1358" stroke-linecap="square"></path>
                    <circle id="椭圆形" stroke="#0F1358" fill="#D8D8D8" cx="36.9062368" cy="102.076314" r="1.15570714"></circle>
                    <circle id="椭圆形" stroke="#0F1358" fill="#D8D8D8" cx="32.3761262" cy="63.0324542" r="1.40867699"></circle>
                    <path d="M23.9037037,59.8266667 C25.2461221,61.7913073 26.335011,63.1913073 27.1703704,64.0266667 C28.0057297,64.862026 29.4057297,65.9509149 31.3703704,67.2933333" id="直线-7" stroke="#0F1358" stroke-linecap="square"></path>
                    <line x1="37.9037037" y1="129.826667" x2="29.037037" y2="227.36" id="直线-8" stroke="#0F1358" stroke-linecap="square"></line>
                    <line x1="41.637037" y1="140.093333" x2="68.7037037" y2="228.76" id="直线-9" stroke="#0F1358" stroke-linecap="square"></line>
                    <path d="M34.1703704,129.826667 C34.1314922,133.326703 34.2870478,135.660036 34.637037,136.826667 C34.9870263,137.993297 35.7648041,138.771075 36.9703704,139.16" id="直线-10" stroke="#0F1358" stroke-linecap="square"></path>
                    <path d="M24.837037,237.16 C23.1675682,241.610776 21.7675682,244.877443 20.637037,246.96 C19.5065059,249.042557 17.9509503,251.220335 15.9703704,253.493333" id="直线-11" stroke="#0F1358" stroke-linecap="square"></path>
                    <ellipse id="椭圆形" stroke="#0F1358" fill="#FFFFFF" cx="26.3943813" cy="249.263031" rx="2.10081805" ry="4.79030197"></ellipse>
                    <ellipse id="椭圆形" stroke="#0F1358" fill="#FFFFFF" cx="73.683446" cy="249.263031" rx="2.10081805" ry="4.79030197"></ellipse>
                    <path d="M6.63703704,254.426667 C11.6148148,253.182222 15.037037,255.048889 16.9037037,260.026667 L30.5066511,260.026667 L30.5066511,264.600805 L0.103703704,264.693333 C-0.518518519,259.093333 1.65925926,255.671111 6.63703704,254.426667 Z" id="矩形" stroke="#0F1358"></path>
                    <path d="M75.3407407,254.426667 C80.3185185,253.182222 83.7407407,255.048889 85.6074074,260.026667 L99.2103548,260.026667 L99.2103548,264.600805 L68.8074074,264.693333 C68.1851852,259.093333 70.362963,255.671111 75.3407407,254.426667 Z" id="矩形" stroke="#0F1358" transform="translate(83.957029, 259.373333) scale(-1, 1) translate(-83.957029, -259.373333) "></path>
                    <path d="M75.237037,237.16 C77.0875563,241.17215 78.4875563,244.127705 79.437037,246.026667 C80.3865178,247.925628 81.9420734,250.414517 84.1037037,253.493333" id="直线-12" stroke="#0F1358" stroke-linecap="square"></path>
                    <path d="M39.3037037,53.76 C39.5351469,51.6770111 40.7795914,48.2547889 43.037037,43.4933333 C47.3925926,47.2266667 49.5703704,50.0266667 49.5703704,51.8933333 C49.5703704,53.76 47.3925926,56.56 43.037037,60.2933333 C40.3167049,58.0207667 39.0722605,55.8429889 39.3037037,53.76 Z" id="矩形" stroke="#0F1358" fill="#C0C4FD"></path>
                    <path d="M48.3911933,25.952656 L48.1995176,33.5415941 L47.8445626,46.543596 C43.4715169,49.5997586 39.2156064,49.9227677 35.1123265,46.8417582 L35.7122005,40.8075231 L36.6208853,31.6603325 L48.3911933,25.952656 Z" id="路径" fill="#FFFFFF" fill-rule="nonzero"></path>
                    <path d="M24.8194329,28.8353322 C26.9536822,35.5691879 30.6756534,43.3761521 38.6581446,40.3682569 C48.1485728,36.777931 53.0194483,28.5241707 51.172425,19.1693771 C49.3254018,9.81458346 43.8960312,5.45034286 32.941548,8.86514172 C32.0084416,9.15327367 31.1010524,9.51889813 30.2288573,9.95819649 C24.1612065,13.0418875 22.0429142,19.0496995 23.7543029,25.2210708 C24.0694537,26.3340719 24.4125293,27.5667504 24.8194329,28.8353322 Z" id="路径" fill="#FFFFFF" fill-rule="nonzero"></path>
                    <path d="M53.2735435,19.6106364 C52.6155814,21.1764368 51.8227241,22.6820649 50.9039284,24.1105115 L46.0210852,25.4548891 L44.2299115,22.1717355 C44.2299115,22.1717355 41.0624462,22.6903381 39.9654022,20.7076804 C39.9385706,20.6626864 39.914588,20.6160536 39.8935956,20.5680566 C39.5824341,19.9098302 38.2978952,16.9458167 37.7513679,12.039038 C37.7513679,12.039038 30.9018239,16.9537952 26.8846481,18.2463125 C25.4405393,18.7130549 23.5935161,18.5056138 21.8222886,18.0508392 C18.2718552,17.1373007 14.3663785,12.4658878 14.1828729,8.82370164 L14.1828729,8.75189513 C13.9794211,3.37438478 17.3343812,2.0619212 19.8914911,1.22018923 C22.448601,0.378457273 24.9259259,3.8850089 24.9259259,3.8850089 C29.7078251,1.66047928 34.8647936,0.353307526 40.1289615,0.0313924357 C50.5768098,-0.543059709 49.5196583,6.95673218 49.5196583,6.95673218 C49.5196583,6.95673218 55.7649485,7.60387995 54.252504,16.0181686 C54.0606055,17.0857711 53.7438194,18.2784127 53.2735435,19.6106364 Z" id="路径" fill="#C0C4FD" fill-rule="nonzero"></path>
                    <path d="M42.9853153,21.2590886 C40.8874151,22.3080387 38.4859871,18.0537007 37.437037,11.76 C34.2901867,15.9558004 28.0015116,17.8869642 26.8846481,18.2463125 C25.4405393,18.7130549 23.0552632,19.1611884 19.9084129,17.0632882 C19.1482998,16.5565462 16.350172,10.132028 18.8594628,7.62273721 C20.957363,5.52483699 22.0063131,7.62273721 20.957363,9.72063743 C19.9084129,11.8185376 17.8105127,14.965388 15.9370471,13.3942788 C14.3995235,12.1048944 14.2564786,10.2846133 14.1828729,8.82370164 L14.1828729,8.75189513 C14.0906391,6.31402917 14.7297353,4.71161748 15.6942794,3.60977031 C16.8573527,2.28113333 18.4936335,1.68032645 19.8914911,1.22018923" id="路径" stroke="#0F1358" stroke-linecap="round" stroke-linejoin="round" fill-rule="nonzero"></path>
                    <path d="M49.6845139,28.9727831 C48.986196,31.8087055 48.0148148,34.4711111 46.7703704,36.96 C45.5259259,39.4488889 45.5259259,42.8711111 46.7703704,47.2266667 M37.437037,52.8266667 L44.9037037,37.8933333 C41.3147839,41.9128165 37.9411456,43.9225581 34.7827891,43.9225581 C30.0452543,43.9225581 22.5037037,34.2308682 22.5037037,29.4933333 C22.5037037,26.3349768 21.5703704,23.8933333 22.0488941,18.7081243" id="形状" stroke="#0F1358" stroke-linecap="square"></path>
                    <path d="M31.8300433,24.6044373 C31.8300433,24.6044373 29.5810238,32.8392746 29.8698362,33.3726443 C30.1586487,33.9060139 32.8921104,32.8397358 32.8921104,32.8397358" id="路径" stroke="#0F1358" stroke-width="0.8" fill-rule="nonzero"></path>
                    <path d="M38.369329,33.5220357 C37.6643082,36.2618262 36.0083044,37.3990033 33.3640789,36.9228888" id="路径" stroke="#0F1358" stroke-width="0.8" fill-rule="nonzero"></path>
                    <path d="M28.7927557,25.3811147 C28.9481604,23.5665165 28.4047083,22.0610099 27.5789216,22.0184715 C26.7531349,21.9759331 25.9577222,23.4124713 25.8023176,25.2270695 C25.646913,27.0416677 26.190365,28.5471744 27.0161517,28.5897128 C27.8419384,28.6322512 28.6373511,27.1957129 28.7927557,25.3811147 Z" id="椭圆形" fill="#0F1358" fill-rule="nonzero"></path>
                    <path d="M39.8645481,25.5319117 C40.0199527,23.7173135 39.4765007,22.2118068 38.650714,22.1692684 C37.8249273,22.12673 37.0295146,23.5632683 36.87411,25.3778665 C36.7187053,27.1924647 37.2621574,28.6979713 38.0879441,28.7405097 C38.9137308,28.7830481 39.7091435,27.3465098 39.8645481,25.5319117 Z" id="椭圆形" fill="#0F1358" fill-rule="nonzero"></path>
                    <path d="M28.9107754,55.2602432 C31.3975033,53.484009 32.6408673,51.8853982 32.6408673,50.4644108 C32.6408673,48.3329297 29.8565292,40.0469789 30.5093862,38.741265 C31.1622432,37.435551 33.7066078,44.0699676 35.8380889,44.0699676 C37.96957,44.0699676 45.5843169,33.2407934 45.5843169,37.2982674 C45.5843169,38.2909153 42.475484,42.834639 42.5259401,42.8590319 C47.0510269,45.0466817 47.8518746,46.9739073 46.6603906,50.6330404 C45.866068,53.0724624 41.9033872,56.568721 34.7723484,61.1218161 L28.9107754,55.2602432 Z" id="直线-17" stroke="#0F1358" fill="#FFFFFF" stroke-linecap="square" transform="translate(38.033245, 48.755149) rotate(-4.000000) translate(-38.033245, -48.755149) "></path>
                    <path d="M48.3062741,27.4243789 C50.1273948,28.3092146 52.8934079,27.5547986 54.9933174,25.4548891 C57.4511604,22.9970461 58.0657345,19.6266693 56.366007,17.9269419 C54.6662796,16.2272144 51.2959028,16.8417885 48.8380598,19.2996315 C47.1149651,21.0227262 46.2978089,23.1943174 46.5488903,24.924343" id="路径" stroke="#0F1358" fill="#FFFFFF"></path>
                </g>
                <path d="M475.407744,86.5555627 L475.407744,119.752533 C475.407744,121.814396 473.736274,123.485866 471.674411,123.485866 L349.407744,123.485866 C347.345881,123.485866 345.674411,121.814396 345.674411,119.752533 L345.674411,56.285866 C345.674411,54.2240029 347.345881,52.5525327 349.407744,52.5525327 L471.674411,52.5525327 C473.736274,52.5525327 475.407744,54.2240029 475.407744,56.285866 L475.407744,68.8222294 L475.407744,68.8222294" id="路径" stroke="#0F1358" fill="#FFFFFF"></path>
                <g id="编组-8" transform="translate(356.752696, 60.673742)" fill-rule="nonzero">
                    <path d="M20.1712,52.2549147 L8.11253333,52.2549147 C7.71493333,52.2549147 7.39386667,52.5769147 7.39386667,52.9735813 L7.39386667,53.972248 C7.39386667,54.369848 7.71493333,54.6909147 8.11253333,54.6909147 L20.1712,54.6909147 C20.5678667,54.6909147 20.8898667,54.369848 20.8898667,53.972248 L20.8898667,52.9735813 C20.8898667,52.5769147 20.5678667,52.2549147 20.1712,52.2549147 Z" id="路径" fill="#FFA25E"></path>
                    <path d="M36.848,52.2549147 L25.7954667,52.2549147 C25.1197333,52.2549147 24.5728,52.8009147 24.5728,53.4729147 C24.5728,54.145848 25.1197333,54.6909147 25.7954667,54.6909147 L36.848,54.6909147 C37.52,54.6909147 38.0706667,54.145848 38.0706667,53.4729147 C38.0706667,52.8009147 37.52,52.2549147 36.848,52.2549147 Z" id="路径" fill="#5365EA"></path>
                    <path d="M81.8813333,52.2549147 L69.8226667,52.2549147 C69.4213333,52.2549147 69.104,52.5769147 69.104,52.9735813 L69.104,53.972248 C69.104,54.369848 69.4213333,54.6909147 69.8226667,54.6909147 L81.8813333,54.6909147 C82.2733333,54.6909147 82.6,54.369848 82.6,53.972248 L82.6,52.9735813 C82.6,52.5769147 82.2733333,52.2549147 81.8813333,52.2549147 Z" id="路径" fill="#FFA25E"></path>
                    <path d="M98.56,52.2549147 L87.5,52.2549147 C86.828,52.2549147 86.2773333,52.8009147 86.2773333,53.4729147 C86.2773333,54.145848 86.828,54.6909147 87.5,54.6909147 L98.56,54.6909147 C99.232,54.6909147 99.7733333,54.145848 99.7733333,53.4729147 C99.7733333,52.8009147 99.232,52.2549147 98.56,52.2549147 Z" id="路径" fill="#5365EA"></path>
                    <path d="M107.576764,47.6 L0.172611635,47.6 L0.348278343,27.5052561 C1.44810469,24.6716758 3.06729347,21.654791 5.34332299,21.654791 C8.03942508,21.654791 9.33783118,29.2390102 15.3181369,29.2160971 C24.6513855,29.2160971 27.5384297,14.8267024 31.894964,14.4448183 C38.471009,13.8643544 41.3504155,26.20685 47.6362286,26.3137776 C53.3186647,26.4054298 55.4113898,20.8222836 58.2831586,17.4998915 C59.3600719,16.2633506 60.7959563,15.3949461 62.392232,15.0176445 C64.4849572,14.5211951 64.9203051,15.2085866 67.8379,14.2080501 C76.8045398,11.1529769 74.7118147,-0.563228707 82.7619325,0.460220809 C88.9560934,1.26217752 88.940818,16.5910072 95.3335586,17.6831959 C98.6941391,18.2560221 104.498778,14.8725285 107.217793,14.8037894 L107.576764,47.6 Z" id="路径" fill="#E7EFFF"></path>
                    <path d="M15.3059166,29.918764 C11.4870752,29.918764 9.54710369,27.0851836 7.95846564,24.8091541 C7.01903063,23.4496465 6.20943624,22.281081 5.34637807,22.281081 C3.72718928,22.281081 2.18437732,24.1752264 0.763768295,27.917691 L0,27.6198214 C1.58863805,23.4572842 3.35294282,21.4332982 5.34637807,21.4332982 C6.64478417,21.4332982 7.57658149,22.7775304 8.65349479,24.32798 C10.1275676,26.4436182 11.9529738,29.0786188 15.3059166,29.0786188 C20.6522947,29.0786188 23.9135853,23.8926321 26.5103975,19.7453703 C28.3281661,16.8430507 29.8938911,14.3302531 31.8567756,14.162224 C35.484675,13.8338037 37.966922,17.1485581 40.4262559,20.3411095 C42.6793723,23.2968928 44.8026482,26.0922848 47.6438663,26.1381109 C51.7682151,26.2374008 53.8914909,23.0830377 55.961303,20.0967037 C56.6334191,19.1267179 57.2673468,18.210196 57.9623759,17.3929639 C59.092753,16.08081 60.6050142,15.1558866 62.2929422,14.7503256 C62.9879713,14.5838241 63.7059135,14.5066835 64.4238557,14.5211951 C65.5465951,14.5463995 66.6540591,14.3493473 67.7004217,13.9407312 C71.8553212,12.5124845 73.5737999,9.06025181 75.0936988,6.020454 C76.7663514,2.6598735 78.3549894,-0.517402609 82.8153963,0.0706989783 C86.1530637,0.506046907 87.7798902,4.76023631 89.3532529,8.87694742 C90.8807895,12.8409049 92.4083261,16.9423406 95.4022978,17.4540654 C97.2582547,17.7748481 100.046009,16.7590362 102.505343,15.8577896 C104.002329,15.2101141 105.583329,14.7678923 107.202518,14.5441082 L107.202518,15.3842533 C105.674981,15.6156751 104.185633,16.0418578 102.772662,16.6521087 C100.214038,17.583906 97.3193562,18.6379062 95.2342688,18.2865728 C91.7896737,17.6908336 90.1399342,13.3602673 88.5360208,9.17481706 C87.0084842,5.11156973 85.4809476,1.27745288 82.6855557,0.90320642 C78.8132504,0.391481662 77.4919312,3.04175765 75.811641,6.39470046 C74.2230029,9.58725194 72.4205098,13.199876 67.9371899,14.7426879 C66.8068128,15.1780359 65.6000589,15.3911272 64.3856673,15.3689779 C63.7364642,15.352175 63.0872612,15.4186229 62.4533335,15.5675577 C60.9410723,15.9318752 59.5815647,16.7628551 58.5657529,17.9428771 C57.8707237,18.7883686 57.2215207,19.6674659 56.6181437,20.5778777 C54.5254186,23.6329509 52.1119108,27.0622705 47.5904025,26.9858937 C44.3443872,26.9324299 41.9919809,23.8391683 39.7159514,20.8757473 C37.3177189,17.7213843 35.0493271,14.765601 31.894964,15.0252822 C30.3674274,15.1627605 28.9009923,17.5075292 27.197789,20.2189066 C24.4940492,24.5418352 21.0876426,29.9264016 15.2906413,29.941677 L15.3059166,29.918764 Z" id="路径" fill="#5365EA"></path>
                    <path d="M53.7463749,25.52786 C54.7545491,25.52786 55.5641435,24.713683 55.5641435,23.7100915 C55.5641435,22.7064999 54.7545491,21.8923229 53.7463749,21.8923229 C52.7458385,21.8923229 51.9286064,22.7064999 51.9286064,23.7100915 C51.9286064,24.713683 52.7458385,25.52786 53.7463749,25.52786 Z" id="路径" stroke="#61656D" fill="#FFFFFF"></path>
                    <path d="M64.3016528,4.91298997 L42.7099231,4.91298997 C42.350952,4.91298997 42.0072562,5.05657841 41.747575,5.31167702 C41.4955315,5.56677563 41.3504155,5.9119989 41.3504155,6.27249754 L41.3504155,16.7666739 C41.3504155,17.1271726 41.4955315,17.4731596 41.747575,17.7282582 C42.0072562,17.9833568 42.350952,18.1261815 42.7099231,18.1261815 L52.4021427,18.1261815 L53.165911,19.3940369 C53.2040995,19.4650673 53.2575632,19.5246412 53.3263024,19.5658847 C53.3950415,19.6071282 53.4714184,19.6292775 53.5477952,19.6292775 C53.624172,19.6292775 53.7081865,19.6071282 53.769288,19.5658847 C53.8380271,19.5246412 53.8914909,19.4650673 53.9296793,19.3940369 L54.6934476,18.1261815 L64.3856673,18.1261815 C64.7446384,18.1246539 65.0883341,17.9803017 65.3403777,17.7252031 C65.5924212,17.4708683 65.7375372,17.1264088 65.7375372,16.7666739 L65.7375372,6.27249754 C65.7375372,6.08766561 65.6993488,5.90436122 65.6306096,5.73404089 C65.5542328,5.56448433 65.4473052,5.4109669 65.3098269,5.28341759 C65.1799863,5.15586829 65.019595,5.05734218 64.8439283,4.99394941 C64.6682616,4.93055664 64.4849572,4.90306098 64.3016528,4.91298997 L64.3016528,4.91298997 Z" id="路径" fill-opacity="0.6" fill="#0F1358"></path>
                    <path d="M60.5591881,7.45710216 L46.4523877,7.45710216 C46.2079819,7.45710216 46.0170398,7.65186308 46.0170398,7.89245009 L46.0170398,10.1532042 C46.0170398,10.3930275 46.2079819,10.5885522 46.4523877,10.5885522 L60.5591881,10.5885522 C60.7959563,10.5885522 60.9945361,10.3930275 60.9945361,10.1532042 L60.9945361,7.89245009 C60.9945361,7.65186308 60.7959563,7.45710216 60.5591881,7.45710216 Z" id="路径" fill="#4D61FC"></path>
                    <path d="M56.8396365,13.1548136 L50.1643016,13.1548136 C49.9198958,13.1548136 49.7289537,13.3495746 49.7289537,13.5901616 L49.7289537,14.5448719 C49.7289537,14.7846952 49.9198958,14.9794561 50.1643016,14.9794561 L56.8396365,14.9794561 C57.0764047,14.9794561 57.2749845,14.7846952 57.2749845,14.5448719 L57.2749845,13.5901616 C57.2749845,13.3495746 57.0764047,13.1548136 56.8396365,13.1548136 Z" id="路径" fill="#4D61FC"></path>
                    <path d="M60.5591881,7.45710216 L46.4523877,7.45710216 C46.2079819,7.45710216 46.0170398,7.65186308 46.0170398,7.89245009 L46.0170398,10.1532042 C46.0170398,10.3930275 46.2079819,10.5885522 46.4523877,10.5885522 L60.5591881,10.5885522 C60.7959563,10.5885522 60.9945361,10.3930275 60.9945361,10.1532042 L60.9945361,7.89245009 C60.9945361,7.65186308 60.7959563,7.45710216 60.5591881,7.45710216 Z" id="路径" fill="#E7EFFF" opacity="0.5"></path>
                    <path d="M56.8396365,13.1548136 L50.1643016,13.1548136 C49.9198958,13.1548136 49.7289537,13.3495746 49.7289537,13.5901616 L49.7289537,14.5448719 C49.7289537,14.7846952 49.9198958,14.9794561 50.1643016,14.9794561 L56.8396365,14.9794561 C57.0764047,14.9794561 57.2749845,14.7846952 57.2749845,14.5448719 L57.2749845,13.5901616 C57.2749845,13.3495746 57.0764047,13.1548136 56.8396365,13.1548136 Z" id="路径" fill="#E7EFFF" opacity="0.5"></path>
                </g>
                <g id="编组-2" transform="translate(0.000000, 26.536306)" fill-rule="nonzero">
                    <path d="M209.714263,0 L5.03661341,0 C2.25504251,0 0,2.25504251 0,5.03661341 L0,157.360455 C0,160.142026 2.25504251,162.397068 5.03661341,162.397068 L209.714263,162.397068 C212.49642,162.397068 214.750876,160.142026 214.750876,157.360455 C214.750876,100.823626 214.750876,58.4210044 214.750876,30.15259 C214.750876,24.5712619 214.750876,16.1992697 214.750876,5.03661341 C214.750876,2.25504251 212.49642,0 209.714263,0 Z" id="路径" fill="#FFFFFF"></path>
                    <path d="M5.03661341,0 L16.7222601,0 L16.7222601,162.4 L5.03661341,162.4 C3.70094341,162.4 2.41980251,161.869367 1.47521762,160.924782 C0.530632729,159.980197 0,158.699057 0,157.363387 L0,5.03661341 C0,3.70094341 0.530632729,2.41980251 1.47521762,1.47521762 C2.41980251,0.530632729 3.70094341,0 5.03661341,0 Z" id="路径" fill="#4D61FC"></path>
                    <path d="M11.8251943,6.61385324 L4.89472046,6.61385324 C4.35089521,6.61385324 3.90967849,7.05419045 3.90967849,7.59742937 C3.90967849,8.14037512 4.35089521,8.58100551 4.89472046,8.58100551 L11.8251943,8.58100551 C12.3693128,8.58100551 12.8102363,8.14037512 12.8102363,7.59742937 C12.8102363,7.05419045 12.3693128,6.61385324 11.8251943,6.61385324 Z" id="路径" fill="#FFFFFF"></path>
                    <path d="M10.1796465,20.6243163 L6.54144092,20.6243163 C6.06709631,20.6243163 5.68246087,21.0086585 5.68246087,21.4832963 L5.68246087,25.1215019 C5.68246087,25.5958466 6.06709631,25.980482 6.54144092,25.980482 L10.1796465,25.980482 C10.6539912,25.980482 11.0386266,25.5958466 11.0386266,25.1215019 L11.0386266,21.4832963 C11.0386266,21.0086585 10.6539912,20.6243163 10.1796465,20.6243163 Z" id="路径" fill="#4D61FC"></path>
                    <path d="M10.1796465,20.6243163 L6.54144092,20.6243163 C6.06709631,20.6243163 5.68246087,21.0086585 5.68246087,21.4832963 L5.68246087,25.1215019 C5.68246087,25.5958466 6.06709631,25.980482 6.54144092,25.980482 L10.1796465,25.980482 C10.6539912,25.980482 11.0386266,25.5958466 11.0386266,25.1215019 L11.0386266,21.4832963 C11.0386266,21.0086585 10.6539912,20.6243163 10.1796465,20.6243163 Z" id="路径" fill="#FFFFFF" opacity="0.4"></path>
                    <path d="M10.1796465,38.0149977 L6.54144092,38.0149977 C6.06709631,38.0149977 5.68246087,38.3996332 5.68246087,38.8739778 L5.68246087,42.5121834 C5.68246087,42.986528 6.06709631,43.3711635 6.54144092,43.3711635 L10.1796465,43.3711635 C10.6539912,43.3711635 11.0386266,42.986528 11.0386266,42.5121834 L11.0386266,38.8739778 C11.0386266,38.3996332 10.6539912,38.0149977 10.1796465,38.0149977 Z" id="路径" fill="#4D61FC"></path>
                    <path d="M10.1796465,38.0149977 L6.54144092,38.0149977 C6.06709631,38.0149977 5.68246087,38.3996332 5.68246087,38.8739778 L5.68246087,42.5121834 C5.68246087,42.986528 6.06709631,43.3711635 6.54144092,43.3711635 L10.1796465,43.3711635 C10.6539912,43.3711635 11.0386266,42.986528 11.0386266,42.5121834 L11.0386266,38.8739778 C11.0386266,38.3996332 10.6539912,38.0149977 10.1796465,38.0149977 Z" id="路径" fill="#FFFFFF" opacity="0.4"></path>
                    <path d="M10.1796465,55.4086109 L6.54144092,55.4086109 C6.06709631,55.4086109 5.68246087,55.7932463 5.68246087,56.2675909 L5.68246087,59.9057966 C5.68246087,60.3801412 6.06709631,60.7647766 6.54144092,60.7647766 L10.1796465,60.7647766 C10.6539912,60.7647766 11.0386266,60.3801412 11.0386266,59.9057966 L11.0386266,56.2675909 C11.0386266,55.7932463 10.6539912,55.4086109 10.1796465,55.4086109 Z" id="路径" fill="#4D61FC"></path>
                    <path d="M10.1796465,55.4086109 L6.54144092,55.4086109 C6.06709631,55.4086109 5.68246087,55.7932463 5.68246087,56.2675909 L5.68246087,59.9057966 C5.68246087,60.3801412 6.06709631,60.7647766 6.54144092,60.7647766 L10.1796465,60.7647766 C10.6539912,60.7647766 11.0386266,60.3801412 11.0386266,59.9057966 L11.0386266,56.2675909 C11.0386266,55.7932463 10.6539912,55.4086109 10.1796465,55.4086109 Z" id="路径" fill="#FFFFFF" opacity="0.4"></path>
                    <path d="M10.1796465,72.7989992 L6.54144092,72.7989992 C6.06709631,72.7989992 5.68246087,73.1836346 5.68246087,73.6579792 L5.68246087,77.2961849 C5.68246087,77.7705295 6.06709631,78.1551649 6.54144092,78.1551649 L10.1796465,78.1551649 C10.6539912,78.1551649 11.0386266,77.7705295 11.0386266,77.2961849 L11.0386266,73.6579792 C11.0386266,73.1836346 10.6539912,72.7989992 10.1796465,72.7989992 Z" id="路径" fill="#4D61FC"></path>
                    <path d="M10.1796465,72.7989992 L6.54144092,72.7989992 C6.06709631,72.7989992 5.68246087,73.1836346 5.68246087,73.6579792 L5.68246087,77.2961849 C5.68246087,77.7705295 6.06709631,78.1551649 6.54144092,78.1551649 L10.1796465,78.1551649 C10.6539912,78.1551649 11.0386266,77.7705295 11.0386266,77.2961849 L11.0386266,73.6579792 C11.0386266,73.1836346 10.6539912,72.7989992 10.1796465,72.7989992 Z" id="路径" fill="#FFFFFF" opacity="0.4"></path>
                    <path d="M8.28285441,151.541085 L6.53850925,151.541085 C6.23361531,151.540205 5.94132756,151.418541 5.72584963,151.202477 C5.51037169,150.986412 5.38929362,150.693832 5.38929362,150.388938 L5.38929362,146.750732 C5.38929362,146.445545 5.51037169,146.152964 5.72584963,145.9369 C5.94132756,145.721129 6.23361531,145.599171 6.53850925,145.598585 L8.28285441,145.598585 C8.36054373,145.598585 8.43530138,145.629367 8.49012366,145.684483 C8.5452391,145.739305 8.57602166,145.813769 8.57602166,145.891752 C8.57602166,145.969441 8.5452391,146.043906 8.49012366,146.099021 C8.43530138,146.153843 8.36054373,146.184919 8.28285441,146.184919 L6.53850925,146.184919 C6.38899395,146.185506 6.24592833,146.245605 6.14038812,146.351438 C6.03484791,146.457565 5.97562813,146.601217 5.97562813,146.750732 L5.97562813,150.388938 C5.97562813,150.538453 6.03484791,150.681812 6.14038812,150.787938 C6.24592833,150.893772 6.38899395,150.953871 6.53850925,150.95475 L8.28285441,150.95475 C8.36054373,150.95475 8.43530138,150.985533 8.49012366,151.040648 C8.5452391,151.095471 8.57602166,151.169935 8.57602166,151.247918 C8.57602166,151.325607 8.5452391,151.400071 8.49012366,151.455187 C8.43530138,151.510009 8.36054373,151.541085 8.28285441,151.541085 Z" id="路径" fill="#FFFFFF"></path>
                    <path d="M9.94716491,148.606188 C9.94716491,148.606188 9.94716491,148.588598 9.94716491,148.576871 C9.94716491,148.576871 9.94716491,148.559281 9.94716491,148.550486 C9.95009658,148.534948 9.95009658,148.519117 9.94716491,148.503579 C9.94716491,148.503579 9.94716491,148.483057 9.94716491,148.471331 L9.92957487,148.439082 C9.92957487,148.439082 9.92957487,148.421492 9.92957487,148.415629 L9.34324036,147.518537 C9.30073111,147.453747 9.23418215,147.408599 9.158545,147.392768 C9.08261468,147.376644 9.00375269,147.391596 8.93866956,147.433519 C8.90612799,147.454627 8.8782771,147.481891 8.85628956,147.513846 C8.83459518,147.545802 8.81905732,147.581861 8.8111418,147.61968 C8.80322628,147.657498 8.80293312,147.69649 8.8102623,147.734601 C8.81759148,147.772713 8.83224984,147.808773 8.85365105,147.841021 L9.1468183,148.283704 L7.01549237,148.283704 C6.93780305,148.283704 6.8630454,148.314779 6.80822312,148.369602 C6.75310768,148.424717 6.72232512,148.499182 6.72232512,148.576871 C6.72232512,148.65456 6.75310768,148.729318 6.80822312,148.78414 C6.8630454,148.839256 6.93780305,148.870038 7.01549237,148.870038 L9.21717845,148.870038 L8.92401119,149.456373 C8.90700749,149.490966 8.89703981,149.528785 8.89469447,149.56719 C8.89205596,149.605888 8.89733297,149.644293 8.90993916,149.680939 C8.92225219,149.717291 8.94189439,149.751006 8.96769311,149.780029 C8.99319866,149.80876 9.02427439,149.832506 9.05886813,149.849217 C9.09932521,149.867686 9.1433003,149.877654 9.18786172,149.878538 C9.242684,149.878827 9.29662677,149.863289 9.34324036,149.834265 C9.38985396,149.805242 9.42767253,149.763905 9.45171225,149.71436 L9.94716491,148.705864 C9.94716491,148.705864 9.94716491,148.682411 9.94716491,148.670684 C9.95009658,148.649283 9.95009658,148.627589 9.94716491,148.606188 L9.94716491,148.606188 Z" id="路径" fill="#FFFFFF"></path>
                    <path d="M205.061699,20.5656828 L162.460979,20.5656828 C161.708125,20.5656828 161.097751,21.176057 161.097751,21.9289106 L161.097751,37.3348497 C161.097751,38.0879964 161.708125,38.6980774 162.460979,38.6980774 L205.061699,38.6980774 C205.815139,38.6980774 206.424926,38.0879964 206.424926,37.3348497 L206.424926,21.9289106 C206.424926,21.176057 205.815139,20.5656828 205.061699,20.5656828 Z" id="路径" fill="#4D61FC"></path>
                    <g id="编组-4" transform="translate(24.074309, 9.390147)">
                        <g id="编组-5">
                            <path d="M153.728699,0 L131.316062,0 C129.436274,0 127.912391,1.52388338 127.912391,3.40367181 L127.912391,3.40660348 C127.912391,5.28639191 129.436274,6.8102753 131.316062,6.8102753 L153.728699,6.8102753 C155.607901,6.8102753 157.132371,5.28639191 157.132371,3.40660348 L157.132371,3.40367181 C157.132371,1.52388338 155.607901,0 153.728699,0 Z" id="路径" fill="#E7EFFF"></path>
                            <path d="M169.023235,0 L163.772609,0 C163.341653,0 162.992784,0.349162199 162.992784,0.779824894 L162.992784,6.0304504 C162.992784,6.4611131 163.341653,6.8102753 163.772609,6.8102753 L169.023235,6.8102753 C169.45419,6.8102753 169.803059,6.4611131 169.803059,6.0304504 L169.803059,0.779824894 C169.803059,0.349162199 169.45419,0 169.023235,0 Z" id="路径" fill="#E7EFFF"></path>
                            <path d="M181.699787,0 L176.449161,0 C176.018205,0 175.669336,0.349162199 175.669336,0.779824894 L175.669336,6.0304504 C175.669336,6.4611131 176.018205,6.8102753 176.449161,6.8102753 L181.699787,6.8102753 C182.130742,6.8102753 182.479612,6.4611131 182.479612,6.0304504 L182.479612,0.779824894 C182.479612,0.349162199 182.130742,0 181.699787,0 Z" id="路径" fill="#E7EFFF"></path>
                            <path d="M21.8582572,1.70037007 L1.70623341,1.70037007 C0.763700695,1.70037007 0,2.46436393 0,3.40660348 C0,4.34884304 0.763700695,5.1128369 1.70623341,5.1128369 L21.8582572,5.1128369 C22.80079,5.1128369 23.5647838,4.34884304 23.5647838,3.40660348 C23.5647838,2.46436393 22.80079,1.70037007 21.8582572,1.70037007 Z" id="路径" fill="#5365EA"></path>
                            <path d="M153.640749,4.42389385 L153.074936,3.86101273 C153.22152,3.65550248 153.294811,3.40660348 153.283085,3.15447965 C153.268426,2.90235581 153.174613,2.66166549 153.007508,2.47081361 C152.843334,2.27996173 152.617595,2.15008864 152.371335,2.10200921 C152.122142,2.05392978 151.867087,2.09057568 151.641348,2.20608358 C151.418541,2.32159148 151.239709,2.50921852 151.134169,2.73847531 C151.028629,2.96802527 151.002244,3.22630562 151.063809,3.47168661 C151.122442,3.71677444 151.263162,3.93518404 151.459584,4.09144219 C151.658938,4.24770033 151.902267,4.33271884 152.157323,4.333012 C152.391856,4.33242567 152.623458,4.25854752 152.816949,4.12193158 L153.37983,4.68481271 C153.394488,4.70152324 153.41501,4.71500894 153.438463,4.72409712 C153.458985,4.73318531 153.482438,4.73758281 153.508824,4.73758281 C153.55573,4.73728965 153.602637,4.71852694 153.640749,4.68481271 C153.672997,4.64992581 153.693519,4.60301905 153.693519,4.55435328 C153.693519,4.50568752 153.672997,4.45878076 153.640749,4.42389385 L153.640749,4.42389385 Z M151.620826,3.74081415 C151.515286,3.63410127 151.441994,3.49895117 151.412678,3.35148804 C151.383361,3.20431808 151.398019,3.05187111 151.456653,2.913203 C151.512355,2.77453489 151.612031,2.65580215 151.735162,2.57195631 C151.858292,2.48840365 152.004876,2.44296272 152.157323,2.44208322 C152.280453,2.44120372 152.406515,2.47139995 152.517918,2.53032656 C152.629322,2.58896001 152.723135,2.67427169 152.793495,2.77834606 C152.863856,2.8827136 152.907831,3.00261901 152.919557,3.12780143 C152.931284,3.25298384 152.913694,3.37904576 152.866787,3.49543316 C152.816949,3.61152739 152.740725,3.71384277 152.64398,3.79358426 C152.547235,3.87332575 152.4329,3.92785486 152.306838,3.95218774 C152.183708,3.97652062 152.057646,3.96977778 151.937447,3.9328387 C151.817248,3.8961928 151.708777,3.829937 151.620826,3.74081415 L151.620826,3.74081415 Z" id="形状" fill="#5365EA"></path>
                        </g>
                        <path d="M54.2476686,38.0003394 L1.38374944,38.0003394 C0.630895929,38.0003394 0.0205217077,38.6107136 0.0205217077,39.3635671 L0.0205217077,66.6398484 C0.0205217077,67.392995 0.630895929,68.0030761 1.38374944,68.0030761 L54.2476686,68.0030761 C55.0005221,68.0030761 55.6108963,67.392995 55.6108963,66.6398484 L55.6108963,39.3635671 C55.6108963,38.6107136 55.0005221,38.0003394 54.2476686,38.0003394 Z" id="路径" fill="#E7EFFF"></path>
                        <path d="M181.230719,38.0853579 L138.38667,38.0853579 C137.633817,38.0853579 137.023443,38.6957321 137.023443,39.4485856 L137.023443,79.8147847 C137.023443,80.5679314 137.633817,81.1780125 138.38667,81.1780125 L181.230719,81.1780125 C181.984159,81.1780125 182.593947,80.5679314 182.593947,79.8147847 L182.593947,39.4485856 C182.593947,38.6957321 181.984159,38.0853579 181.230719,38.0853579 Z" id="路径" fill="#E7EFFF" opacity="0.85"></path>
                        <path d="M181.51216,87.923791 L138.416573,87.923791 C137.66372,87.923791 137.053346,88.5341652 137.053346,89.2870187 L137.053346,140.227761 C137.053346,140.980907 137.66372,141.590988 138.416573,141.590988 L181.51216,141.590988 C182.265599,141.590988 182.875387,140.980907 182.875387,140.227761 L182.875387,89.2870187 C182.875387,88.5341652 182.265599,87.923791 181.51216,87.923791 Z" id="路径" fill="#E7EFFF" opacity="0.85"></path>
                        <path d="M128.715669,11.2077841 L2.40162614,11.2077841 C1.12576225,11.2077841 0.091468183,12.2420782 0.091468183,13.5179421 L0.091468183,26.9977724 C0.091468183,28.2736362 1.12576225,29.3079303 2.40162614,29.3079303 L128.715669,29.3079303 C129.991533,29.3079303 131.025827,28.2736362 131.025827,26.9977724 L131.025827,13.5179421 C131.025827,12.2420782 129.991533,11.2077841 128.715669,11.2077841 Z" id="路径" fill="#E7EFFF" opacity="0.85"></path>
                        <path d="M129.564388,37.9768843 L61.8518408,38.0950324 C61.0986941,38.0964982 60.4894926,38.707752 60.4909558,39.4606055 L60.6668587,140.318936 C60.6683246,141.071789 61.2795783,141.680991 62.0324318,141.67982 L129.745272,141.561672 C130.498126,141.560206 131.107327,140.948952 131.106156,140.196099 L130.929961,39.3377684 C130.928789,38.5849149 130.317242,37.9757133 129.564388,37.9768843 Z" id="路径" fill="#E7EFFF" opacity="0.85"></path>
                        <path d="M54.2476686,75.0977236 L1.38374944,75.0977236 C0.630895929,75.0977236 0.0205217077,75.7080978 0.0205217077,76.4609513 L0.0205217077,103.737233 C0.0205217077,104.490379 0.630895929,105.10046 1.38374944,105.10046 L54.2476686,105.10046 C55.0005221,105.10046 55.6108963,104.490379 55.6108963,103.737233 L55.6108963,76.4609513 C55.6108963,75.7080978 55.0005221,75.0977236 54.2476686,75.0977236 Z" id="路径" fill="#F5F6FA"></path>
                        <path d="M54.2476686,111.855034 L1.38374944,111.855034 C0.630895929,111.855034 0.0205217077,112.465408 0.0205217077,113.218262 L0.0205217077,140.494543 C0.0205217077,141.247396 0.630895929,141.857771 1.38374944,141.857771 L54.2476686,141.857771 C55.0005221,141.857771 55.6108963,141.247396 55.6108963,140.494543 L55.6108963,113.218262 C55.6108963,112.465408 55.0005221,111.855034 54.2476686,111.855034 Z" id="路径" fill="#F5F6FA"></path>
                        <g id="编组-7" transform="translate(141.533234, 14.796151)">
                            <path d="M27.7802358,11.3045293 C30.902467,11.3045293 33.4325004,8.77390956 33.4325004,5.65226464 C33.4325004,2.53061973 30.902467,0 27.7802358,0 C24.6580045,0 22.1279711,2.53061973 22.1279711,5.65226464 C22.1279711,8.77390956 24.6580045,11.3045293 27.7802358,11.3045293 Z" id="路径" fill="#FFFFFF"></path>
                            <path d="M27.7890308,5.65226464 C27.3698016,5.65197148 26.9652308,5.49571333 26.6574052,5.21368643 C26.3466479,4.9319527 26.1531575,4.54467876 26.1150458,4.12779493 L26.0036422,2.91994584 C25.9801888,2.68717104 26.0095056,2.45234407 26.0827974,2.23070963 C26.1560892,2.00907519 26.2762878,1.80532395 26.4345981,1.63264843 C26.5929084,1.45967975 26.7834671,1.32189115 26.9974792,1.22749129 C27.2114913,1.13309143 27.4430934,1.08471752 27.6776272,1.08471752 L27.903366,1.08471752 C28.1349681,1.08442567 28.3665703,1.13309143 28.5805824,1.22749129 C28.7945945,1.32189115 28.9880848,1.45997292 29.1434635,1.63264843 C29.3017738,1.80561711 29.4219724,2.00936835 29.4952642,2.2310028 C29.568556,2.45263724 29.5949411,2.68746421 29.5744194,2.91994584 L29.4630158,4.12779493 C29.4219724,4.54467876 29.228482,4.9319527 28.9206564,5.21368643 C28.6098991,5.49571333 28.20826,5.65197148 27.7890308,5.65226464 L27.7890308,5.65226464 Z" id="路径" fill="#6580FE"></path>
                            <path d="M32.711309,8.58100551 C32.4797068,8.95186208 32.2041296,9.29428143 31.8933723,9.60122755 C31.2747894,10.2203968 30.5242813,10.6918097 29.7004813,10.9811658 C28.8737496,11.2702287 27.9942479,11.3696124 27.1235411,11.2714014 C26.255766,11.1734835 25.4173077,10.8806094 24.6785262,10.4147667 C23.9368131,9.94892391 23.3123668,9.32213232 22.8462309,8.58100551 C22.9898828,7.93838289 23.3475469,7.36377507 23.8605896,6.95187508 C24.3736323,6.53997509 25.0127369,6.3151158 25.6694315,6.31482006 L29.8851766,6.31482006 C30.544803,6.31394314 31.1839076,6.53821608 31.6969503,6.95040924 C32.209993,7.36230923 32.5705887,7.93779655 32.711309,8.58100551 L32.711309,8.58100551 Z" id="路径" fill="#6580FE"></path>
                            <path d="M10.6064981,6.93101977 L0.378185757,6.93101977 C0.169157505,6.93101977 0,7.16557049 0,7.45449803 L0,8.27420817 C0,8.56354151 0.169157505,8.79768643 0.378185757,8.79768643 L10.6064981,8.79768643 C10.8146468,8.79768643 10.9846838,8.56354151 10.9846838,8.27420817 L10.9846838,7.45449803 C10.9846838,7.16557049 10.8146468,6.93101977 10.6064981,6.93101977 Z" id="路径" fill="#C0C4FD"></path>
                            <path d="M13.0896247,1.87363192 L1.12869393,1.87363192 C0.505420345,1.87363192 0,2.37875909 0,3.00232584 C0,3.62559942 0.505420345,4.13101977 1.12869393,4.13101977 L13.0896247,4.13101977 C13.7140709,4.13101977 14.2183186,3.62559942 14.2183186,3.00232584 C14.2183186,2.37875909 13.7140709,1.87363192 13.0896247,1.87363192 Z" id="路径" fill="#C0C4FD"></path>
                        </g>
                    </g>
                </g>
            </g>
        </g>
    </g>
</svg>