<svg xmlns="http://www.w3.org/2000/svg" width="120" height="66" viewBox="0 0 120 66">
  <defs>
    <linearGradient id="个人欣喜-a" x1="6.077%" x2="100%" y1="52.805%" y2="50%">
      <stop offset="0%" stop-color="#FFF" stop-opacity=".6"/>
      <stop offset="100%" stop-color="#FFF" stop-opacity=".8"/>
    </linearGradient>
    <linearGradient id="个人欣喜-b" x1="40.362%" x2="78.074%" y1="34.648%" y2="66.018%">
      <stop offset="0%" stop-color="#FFD6DC"/>
      <stop offset="100%" stop-color="#F48590"/>
    </linearGradient>
    <radialGradient id="个人欣喜-c" cx="50%" cy="50%" r="82.692%" fx="50%" fy="50%" gradientTransform="matrix(0 .60465 -.70414 0 .852 .198)">
      <stop offset="0%" stop-color="#FFF" stop-opacity=".2"/>
      <stop offset="100%" stop-color="#FFF" stop-opacity="0"/>
    </radialGradient>
    <linearGradient id="个人欣喜-d" x1="6.077%" x2="100%" y1="54.16%" y2="50%">
      <stop offset="0%" stop-color="#FFF" stop-opacity=".6"/>
      <stop offset="100%" stop-color="#FFF" stop-opacity=".8"/>
    </linearGradient>
    <linearGradient id="个人欣喜-e" x1="0%" x2="100%" y1="50.707%" y2="50.154%">
      <stop offset="0%" stop-color="#F5F5F5"/>
      <stop offset="100%" stop-color="#D4D9F6"/>
    </linearGradient>
    <linearGradient id="个人欣喜-f" x1="89.19%" x2="0%" y1="51.693%" y2="48.683%">
      <stop offset="0%" stop-color="#7589F2" stop-opacity=".1"/>
      <stop offset="100%" stop-color="#7589F2"/>
    </linearGradient>
  </defs>
  <g fill="none" fill-rule="evenodd">
    <rect width="120" height="66" fill="#FFF" rx="4"/>
    <g opacity=".9" transform="translate(18 9.905)">
      <path fill="url(#个人欣喜-a)" d="M15.8243017,24.5319695 C16.4177449,24.2089627 16.6700182,24.5184431 18.9218909,23.9791449 C19.5829067,23.8208391 19.7944513,22.6113518 20.6670116,22.4403777 C21.5394104,22.2694352 21.539572,23.1242742 22.2376202,22.9533001 C22.4403649,22.9036415 23.2414767,22.7759607 23.6337168,22.9533001 C23.9391766,23.0914044 24.2090739,23.6371966 24.8553013,23.6371966 C25.4370082,23.6371966 25.7860323,24.0361363 25.9023737,24.8340156 L17.3512823,24.8340156 C15.9376665,24.8479893 15.428673,24.7473073 15.8243017,24.5319695 Z" transform="matrix(-1 0 0 1 41.597 0)"/>
      <g transform="translate(26.594 20.105)">
        <path fill="url(#个人欣喜-b)" d="M14.5058787,20.0423388 C22.4430749,20.0423388 28.74313,22.4726736 28.74313,14.5354774 C28.74313,6.59828126 22.3087612,0.163912433 14.371565,0.163912433 C6.43436882,0.163912433 0,6.59828126 0,14.5354774 C0,22.4726736 6.56868252,20.0423388 14.5058787,20.0423388 Z"/>
        <ellipse cx="10.626" cy="5.775" fill="url(#个人欣喜-c)" rx="3.492" ry="5.775" transform="rotate(67 10.626 5.775)"/>
      </g>
      <path fill="url(#个人欣喜-d)" d="M49.4274385,28.0588215 C48.0119831,28.8027882 48.4596954,28.8923307 50.7705755,28.3274489 C51.7880806,28.0787254 52.1137124,26.1784298 53.4568493,25.9098024 C54.7997375,25.6412248 54.7999862,26.984312 55.8744957,26.7156846 C56.1865817,26.6376631 57.4197374,26.4370565 58.0235148,26.7156846 C58.4937108,26.9326682 58.9091652,27.7901941 59.9039065,27.7901941 C60.7993311,27.7901941 61.3365859,28.4169913 61.5156708,29.6705858 L48.352929,29.6705858 L49.4274385,28.0588215 Z"/>
      <g transform="translate(0 30.367)">
        <path fill="url(#个人欣喜-e)" d="M29.5490122,4.40793115 C39.4882254,4.40793115 53.9941041,7.63145975 66.6195911,7.63145975 C75.0365824,7.63145975 80.7672999,6.55695022 83.8117436,4.40793115 L83.8117436,15.4216539 L0,15.4216539 C9.13333103,8.07917206 18.9830018,4.40793115 29.5490122,4.40793115 Z"/>
        <path fill="url(#个人欣喜-f)" d="M2.44315182e-13,1.18440255 C10.7450953,5.48244069 21.4006482,7.63145975 31.9666586,7.63145975 C41.9058718,7.63145975 52.2768556,1.45452447 66.6195911,0.10989302 C72.3503086,-0.427361746 78.0810261,1.00531763 83.8117436,4.40793115 L83.8117436,15.4216539 L2.44315182e-13,15.4216539 L2.44315182e-13,1.18440255 Z"/>
      </g>
      <g transform="translate(69.037 29.133)">
        <g transform="translate(0 3.76)">
          <rect width="1" height="2.418" x="2.418" y="10.476" fill="#000" fill-opacity=".54"/>
          <path fill="#00BFA5" fill-opacity=".4" d="M2.89695098,11.2823501 C5.91814796,11.2823501 5.82659654,8.9840936 5.46039084,5.74564126 C5.09418515,2.50718891 3.62936237,0 2.80539956,0 C1.98143674,0 0.516613965,2.50718891 0.15040827,5.74564126 C-0.215797424,8.9840936 -0.124246001,11.2823501 2.89695098,11.2823501 Z"/>
          <path fill="#3BBAA9" d="M3.20646352,0 C3.20646582,0.000333417584 3.20646812,0.000666835168 3.20647042,0.00100025276 C2.65069481,0 1.65036897,2.50730023 1.40028752,5.74589636 C1.15237199,8.95644336 1.21166691,11.2429688 3.22274083,11.2823347 C-0.214870114,11.282851 -0.232156526,8.9844925 0.184645904,5.74589636 C0.601448334,2.50730023 2.26865805,0 3.20646352,0 Z"/>
        </g>
        <g transform="translate(4.281)">
          <rect width="1" height="2.955" x="3.224" y="13.7" fill="#000" fill-opacity=".54"/>
          <path fill="#00BFA5" fill-opacity=".3" d="M3.72465126,14.5058787 C7.60904738,14.5058787 7.4913384,11.5509775 7.02050251,7.38725304 C6.54966662,3.2235286 4.66632305,0 3.60694229,0 C2.54756153,0 0.664217955,3.2235286 0.193382062,7.38725304 C-0.277453831,11.5509775 -0.159744858,14.5058787 3.72465126,14.5058787 Z"/>
          <path fill="#3BBAA9" d="M4.02460363,1.41267668e-14 C4.02460588,0.000334113661 4.02460813,0.000668227322 4.02461038,0.00100234099 C3.32702863,1.41267668e-14 2.07146625,3.2235286 1.75757565,7.38725304 C1.44636788,11.5153901 1.52084496,14.4552793 4.04590418,14.5052322 C-0.269694957,14.5058787 -0.291392056,11.5509775 0.231758936,7.38725304 C0.754909928,3.2235286 2.8475139,1.41267668e-14 4.02460363,1.41267668e-14 Z"/>
        </g>
      </g>
      <rect width="38" height="14" y=".095" fill="#0E1D80" fill-opacity=".06" rx="2"/>
      <rect width="38" height="14" x="46" y=".095" fill="#0E1D80" fill-opacity=".06" rx="2"/>
    </g>
  </g>
</svg>
