<?xml version="1.0" encoding="UTF-8"?>
<svg width="280px" height="142px" viewBox="0 0 280 142" version="1.1" xmlns="http://www.w3.org/2000/svg" xmlns:xlink="http://www.w3.org/1999/xlink">
    <title>æ¤­åœ†å½¢ 2</title>
    <defs>
        <polygon id="path-1" points="6.81453453 12.8989404 1.70363363 7.78803946 0 9.49167309 6.81453453 16.3062076 21.4171085 1.70363363 19.7134749 0"></polygon>
    </defs>
    <g id="é¡µé¢-1" stroke="none" stroke-width="1" fill="none" fill-rule="evenodd">
        <g id="åœºæ™¯1ï¼šå¡«å†™åŸºæœ¬ä¿¡æ¯-æäº¤æˆåŠŸ" transform="translate(-935.000000, -464.000000)">
            <g id="ç¼–ç»„-3" transform="translate(830.000000, 110.000000)">
                <g id="æ¤­åœ†å½¢-2" transform="translate(105.000000, 354.000000)">
                    <line x1="27.4256342" y1="141.211705" x2="196.287183" y2="141.211705" id="ç›´çº¿" stroke="#0F1358" stroke-width="1.5" stroke-linecap="square"></line>
                    <line x1="209.316623" y1="141.211705" x2="273.503762" y2="141.211705" id="ç›´çº¿" stroke="#0F1358" stroke-width="1.5" stroke-linecap="square"></line>
                    <g id="ç¼–ç»„-15" transform="translate(0.000000, 4.551223)" fill="#D9E6F2" fill-opacity="0.32">
                        <path d="M183.060963,11.4659076 L180.976252,13.5506181 L178.891542,11.4659076 L180.976252,9.38119715 L183.060963,11.4659076 Z M180.976252,5.2117762 L183.186045,7.4215693 L185.791933,4.81568121 L180.976252,0 L176.160571,4.81568121 L178.766459,7.4215693 L180.976252,5.2117762 Z M174.722121,11.4659076 L176.931914,9.25611453 L174.326026,6.65022643 L169.510345,11.4659076 L174.326026,16.2815888 L176.931914,13.6757007 L174.722121,11.4659076 Z M187.230384,11.4659076 L185.020591,13.6757007 L187.626479,16.2815888 L192.44216,11.4659076 L187.626479,6.65022643 L185.020591,9.25611453 L187.230384,11.4659076 Z M180.976252,17.7200391 L178.766459,15.510246 L176.160571,18.1161341 L180.976252,22.9318153 L185.791933,18.1161341 L183.186045,15.510246 L180.976252,17.7200391 Z" id="å½¢çŠ¶" fill-rule="nonzero"></path>
                        <path d="M49.2641793,32.0852857 C43.5103784,32.0852857 38.8406269,36.7550372 38.8406269,42.5088381 C38.8406269,43.8951706 39.1116393,45.2293853 39.6119698,46.4385174 L45.0947584,40.9453053 L48.5345307,43.8430528 L51.9534558,40.4241277 L50.3065346,40.4241277 L50.3065346,38.3394172 L55.5183108,38.3394172 L55.5183108,43.5511934 L53.4336003,43.5511934 L53.4336003,41.9042721 L48.6491897,46.6782591 L45.219841,43.770088 L40.6334779,48.356451 C42.5097174,51.1186924 45.6784773,52.9323905 49.2641793,52.9323905 L57.6030212,52.9323905 C58.749612,52.9323905 59.6877317,51.9942708 59.6877317,50.8476801 L59.6877317,42.5088381 C59.6877317,36.7550372 55.0179802,32.0852857 49.2641793,32.0852857 Z M57.0818436,51.3688577 C56.5085482,51.3688577 56.0394884,50.8997978 56.0394884,50.3265024 C56.0394884,49.7532071 56.5085482,49.2841472 57.0818436,49.2841472 C57.655139,49.2841472 58.1241989,49.7532071 58.1241989,50.3265024 C58.1241989,50.8997978 57.655139,51.3688577 57.0818436,51.3688577 Z" id="å½¢çŠ¶" fill-rule="nonzero" transform="translate(49.264179, 42.508838) rotate(10.000000) translate(-49.264179, -42.508838) "></path>
                        <path d="M243.08453,24.1794806 L240.999819,24.1794806 L240.999819,33.5606778 L227.449201,33.5606778 L227.449201,35.6453882 C227.449201,36.2186836 227.918261,36.6877435 228.491556,36.6877435 L239.957464,36.6877435 L244.126885,40.8571644 L244.126885,25.2218359 C244.126885,24.6485405 243.657825,24.1794806 243.08453,24.1794806 Z M238.915109,30.433612 L238.915109,21.0524149 C238.915109,20.4791195 238.446049,20.0100597 237.872754,20.0100597 L224.322136,20.0100597 C223.74884,20.0100597 223.27978,20.4791195 223.27978,21.0524149 L223.27978,35.6453882 L227.449201,31.4759673 L237.872754,31.4759673 C238.446049,31.4759673 238.915109,31.0069074 238.915109,30.433612 Z" id="å½¢çŠ¶" fill-rule="nonzero" transform="translate(233.703333, 30.433612) rotate(-10.000000) translate(-233.703333, -30.433612) "></path>
                        <path d="M0,100.24541 L4.16942096,100.24541 L4.16942096,87.7371467 L0,87.7371467 L0,100.24541 Z M22.9318153,88.779502 C22.9318153,87.6329112 21.9936955,86.6947915 20.8471048,86.6947915 L14.2698432,86.6947915 L15.2600807,81.931228 L15.2913514,81.5976744 C15.2913514,81.1703087 15.114151,80.7742137 14.8327151,80.4927778 L13.7278185,79.3983048 L6.86912103,86.2674258 C6.48344959,86.6426737 6.25413144,87.1638513 6.25413144,87.7371467 L6.25413144,98.1606991 C6.25413144,99.3072899 7.19225115,100.24541 8.33884191,100.24541 L17.7200391,100.24541 C18.5851939,100.24541 19.3252661,99.724232 19.6379727,98.9737362 L22.7858855,91.6251318 C22.8796975,91.3853901 22.9318153,91.1352248 22.9318153,90.8642124 L22.9318153,88.779502 Z" id="å½¢çŠ¶" fill-rule="nonzero"></path>
                        <path d="M221.628107,89.8218572 L280,89.8218572 C279.652548,85.999888 278.089015,84.0889034 275.309401,84.0889034 C271.13998,84.0889034 269.05527,86.1736139 268.012915,86.1736139 C266.97056,86.1736139 263.843494,78.8771272 258.631718,77.8347719 C253.419941,76.7924167 251.335231,80.9618377 249.25052,80.9618377 C247.16581,80.9618377 247.16581,80.9618377 237.784613,77.8347719 C230.781245,80.0811354 225.395742,84.0768304 221.628107,89.8218572 Z" id="ç›´çº¿-9"></path>
                        <path d="M41.8507435,10.6474422 L94.3589377,10.6474422 C92.3055679,8.24129592 90.0286879,7.03822277 87.5282977,7.03822277 C83.7777124,7.03822277 80.1271021,9.12293325 79.1894558,9.12293325 C78.2518095,9.12293325 77.623556,4.95351229 72.9353243,3.91115705 C68.2470927,2.86880181 66.4717751,5.99586753 64.5964824,5.99586753 C62.7211898,5.99586753 59.4532853,-2.58545379 50.0035091,0.784091332 C43.7036582,3.03045474 40.9860697,6.31823838 41.8507435,10.6474422 Z" id="ç›´çº¿-9"></path>
                    </g>
                    <g id="17" transform="translate(71.369236, 0.000000)">
                        <path d="M76.475112,138.676486 C41.7786659,138.676486 13.651636,110.471545 13.651636,75.6789958 C13.651636,40.886447 41.7786659,12.6815152 76.475112,12.6815152 C111.171558,12.6815152 139.298578,40.886447 139.298578,75.6789958 C139.298578,110.471545 111.171558,138.676486 76.475112,138.676486 Z" id="Vector" fill="#DFE9FF"></path>
                        <g id="Group" transform="translate(22.499906, 15.089994)">
                            <g id="Compose-email-1">
                                <g id="Group" transform="translate(0.000000, 0.252765)" fill="#C0D6FF" fill-rule="nonzero">
                                    <path d="M111.995172,98.2355086 C111.995172,98.4890196 111.995172,98.6157751 111.995172,98.8692861 C111.868766,102.038173 110.351902,104.826798 108.20301,106.854886 C106.180524,108.629463 103.652413,109.643503 100.871495,109.643503 L11.2500805,109.643503 C9.35399982,109.643503 7.45791766,109.136483 5.81464782,108.249195 C5.05621553,107.868928 4.42418819,107.361908 3.79216131,106.854886 C2.52810754,105.714087 1.51686549,104.31978 0.884838603,102.798714 C0.379217088,101.657915 0.126405379,100.390358 0,99.1228029 L0,42.4630908 C3.11799914,39.843479 6.91016045,36.6745924 11.3764839,32.9564311 C18.3287797,27.1256785 27.4299696,19.5203458 35.5199138,12.8023043 C40.1969128,8.87288405 39.6912885,9.37990615 46.7699895,3.42239812 C52.2054209,-1.14079958 60.0425528,-1.14079958 65.4779843,3.42239812 C66.8684435,4.56319755 68.3853099,5.83075401 69.775769,6.97155344 C72.6830927,9.37990781 75.9696305,12.1685277 79.3825758,14.9571487 C86.587682,21.0414127 94.4248242,27.6326976 100.618688,32.8296727 C106.938957,38.0266479 111.48955,41.9560688 111.995172,42.4630908 L111.995172,98.2355086 Z" id="Vector"></path>
                                </g>
                                <g id="Group" transform="translate(15.421820, 10.393867)" fill="#FFFFFF" fill-rule="nonzero">
                                    <path d="M81.1522508,41.8293144 L63.329094,52.4767734 L58.0200719,55.6456609 L46.769991,62.4904597 L41.460964,65.6593472 L39.1856681,67.0536557 L37.163184,65.6593472 L32.1069687,62.4904597 L21.4889148,55.7724144 L16.4326995,52.6035318 L0,42.20958 L0,6.71804044 C0,3.04213087 3.03372806,0 6.69948424,0 L74.5791749,0 C78.244931,0 81.1522508,3.04213087 81.1522508,6.71804044 L81.1522508,41.8293144 Z" id="Vector"></path>
                                </g>
                                <g id="Group" transform="translate(15.295189, 10.393867)" fill-rule="nonzero" stroke="#182052" stroke-dasharray="0,0" stroke-linecap="round" stroke-linejoin="round">
                                    <g id="Vector">
                                        <path d="M0,34.223983 L0,6.71804014 C0,3.04213074 3.03373049,0 6.69948667,0 L74.7055786,0 C78.3713348,0 81.4050677,3.04213074 81.4050677,6.71804014 L81.4050677,33.4634472"></path>
                                    </g>
                                </g>
                                <g id="Group" transform="translate(31.096240, 25.351097)" fill-rule="nonzero">
                                    <path d="M1.39045725,13.9431054 C0.632024939,13.9431054 0,13.3093269 0,12.4220385 C0,11.53475 0.632024939,10.9009715 1.39045725,10.9009715 L49.2980981,10.9009715 C50.0565304,10.9009715 50.6885553,11.53475 50.6885553,12.4220385 C50.6885553,13.1825715 50.0565304,13.9431054 49.2980981,13.9431054 L1.39045725,13.9431054 Z" id="Vector" fill="#DFE9FF"></path>
                                    <path d="M1.39045725,23.3229283 C0.632024939,23.3229283 0,22.6891498 0,21.8018613 C0,20.9145729 0.632024939,20.2807944 1.39045725,20.2807944 L49.2980981,20.2807944 C50.0565304,20.2807944 50.6885553,20.9145729 50.6885553,21.8018613 C50.6885553,22.6891498 50.0565304,23.3229283 49.2980981,23.3229283 L1.39045725,23.3229283 Z" id="Vector" fill="#DFE9FF"></path>
                                    <path d="M1.39045725,32.8296309 C0.632024939,32.8296309 0,32.1958525 0,31.308564 C0,30.4212755 0.632024939,29.7874971 1.39045725,29.7874971 L49.2980981,29.7874971 C50.0565304,29.7874971 50.6885553,30.4212755 50.6885553,31.308564 C50.6885553,32.1958525 50.0565304,32.8296309 49.2980981,32.8296309 L1.39045725,32.8296309 Z" id="Vector" fill="#DFE9FF"></path>
                                    <path d="M41.0815839,42.3363336 L6.19369462,42.3363336 L1.39029093,39.2941997 C1.39029093,39.2941997 1.43242542,39.2941997 1.51669439,39.2941997 L46.1377993,39.2941997 L41.0815839,42.3363336 Z" id="Vector" fill="#DFE9FF"></path>
                                    <path d="M25.2810344,51.7161565 L21.1096531,51.7161565 L16.3062497,48.6740226 L30.3372495,48.6740226 L25.2810344,51.7161565 Z" id="Vector" fill="#E7EBF2"></path>
                                    <path d="M11.7556544,3.04213386 C10.9972221,3.04213386 10.3651924,2.40835539 10.3651924,1.52106693 C10.3651924,0.633778467 10.9972221,0 11.7556544,0 L38.9328054,0 C39.6912377,0 40.3232723,0.633778467 40.3232723,1.52106693 C40.3232723,2.40835539 39.6912377,3.04213386 38.9328054,3.04213386 L11.7556544,3.04213386 Z" id="Vector" fill="#DFE9FF"></path>
                                </g>
                                <path d="M111.995172,98.9959947 C111.868766,102.164882 110.351902,104.953507 108.20301,106.981595 C106.180524,108.756172 103.652413,109.770212 100.871495,109.770212 L11.2500805,109.770212 C9.35399982,109.770212 7.45791766,109.263192 5.81464782,108.375904 C5.05621553,107.995637 4.42418819,107.488617 3.79216131,106.981595 C2.52810754,105.840796 1.51686549,104.446479 0.884838603,102.925413 C0.379217088,101.784614 0.126405379,100.517066 0,99.2495115 L0,99.1227483 L0,42.7165564 L50.0565322,74.151919 L54.3543121,76.8137825 L55.8711776,75.9264979 L57.2616348,75.0392036 L111.995172,42.7165564 L111.995172,98.9959947 Z" id="Vector" fill="#738DFF" fill-rule="nonzero"></path>
                                <path d="M100.745082,109.643457 L11.2500805,109.643457 C9.35399987,109.643457 7.4579177,109.136437 5.81464785,108.249148 C5.05621556,107.868882 4.42418822,107.361862 3.79216133,106.85484 C2.52810755,105.71404 1.5168655,104.319724 0.884838607,102.798658 C0.37921709,101.657859 0.126405379,100.390302 0,99.1227467 L0,98.9959931 L0,42.7165564 L5.81464785,46.2657092 L55.8711779,76.0532505 L57.2616351,76.9405351 L57.3880433,77.0672983 L102.261943,103.685952 L108.076598,106.85484 C106.054112,108.629416 103.526,109.643457 100.745082,109.643457 Z" id="Vector" fill="#DFE9FF" fill-rule="nonzero"></path>
                                <line x1="11.2502846" y1="49.3078415" x2="51.7000068" y2="73.3913858" id="Vector" stroke="#182052" stroke-linecap="round" stroke-linejoin="round" stroke-dasharray="0,0"></line>
                                <path d="M111.995317,98.9959947 C111.868911,102.164882 110.352047,104.953507 108.203155,106.981595 C106.180669,108.756172 103.652558,109.770212 100.87164,109.770212 L11.2502245,109.770212 C9.35414384,109.770212 7.45806166,109.263192 5.8147918,108.375904 C5.0563595,107.995637 4.42433216,107.488617 3.79230527,106.981595 L9.48054729,103.559191 L54.3544565,76.9405361 L55.8713221,76.0532514 L57.2617793,75.1659668 L105.927855,46.2657093 L111.995317,42.7165564 L111.995317,98.9959947 Z" id="Vector" fill="#FFFFFF" fill-rule="nonzero"></path>
                                <line x1="50.8215315" y1="79.2774123" x2="19.5920302" y2="97.6077717" id="Vector-2" stroke="#182052" stroke-linecap="round" stroke-linejoin="round" stroke-dasharray="0,0"></line>
                                <line x1="95.6290768" y1="52.8002264" x2="64.3995755" y2="71.1305859" id="Vector-3" stroke="#182052" stroke-linecap="round" stroke-linejoin="round" stroke-dasharray="0,0"></line>
                                <path d="M68.7644356,82.0107564 C68.0060033,82.0107564 67.5003818,81.3769789 67.5003818,80.7432014 C67.5003818,80.1094239 68.1324087,79.4756464 68.7644356,79.4756464 L98.4697003,79.4756464 C99.2281327,79.4756464 99.7337541,80.1094239 99.7337541,80.7432014 C99.7337541,81.3769789 99.2281327,82.0107564 98.4697003,82.0107564 L68.7644356,82.0107564 Z" id="Vector" fill="#C0D6FF" fill-rule="nonzero"></path>
                                <path d="M68.7644356,90.6301293 C68.0060033,90.6301293 67.5003818,89.9963518 67.5003818,89.3625743 C67.5003818,88.7287968 68.1324087,88.0950193 68.7644356,88.0950193 L98.4697003,88.0950193 C99.2281327,88.0950193 99.7337541,88.7287968 99.7337541,89.3625743 C99.7337541,89.9963518 99.2281327,90.6301293 98.4697003,90.6301293 L68.7644356,90.6301293 Z" id="Vector" fill="#C0D6FF" fill-rule="nonzero"></path>
                                <g id="Group" transform="translate(38.806819, 0.000000)" fill-rule="nonzero" stroke="#182052" stroke-dasharray="0,0" stroke-linecap="round" stroke-linejoin="round">
                                    <path d="M0,10.1404401 C1.76967527,8.61937401 3.16013355,7.47857438 7.96353787,3.42239829 C13.3989694,-1.14079963 21.2361014,-1.14079963 26.6715329,3.42239829 C28.0619921,4.56319777 29.5788585,5.83075308 30.9693177,6.97155256 C32.2333715,7.98559658 33.4974233,9.12639659 34.8878825,10.2671961" id="Vector"></path>
                                </g>
                                <g id="Group" transform="translate(0.000000, 29.787497)" fill-rule="nonzero" stroke="#182052" stroke-dasharray="0,0" stroke-linecap="round" stroke-linejoin="round">
                                    <path d="M96.5736998,0 C97.964159,1.14079945 99.2282204,2.281597 100.492274,3.295641 C106.812543,8.61937165 111.489542,12.5487952 111.868758,12.9290617 L111.868758,68.7014757 C111.868758,68.9549867 111.868758,69.0817422 111.868758,69.3352532 C111.742353,72.5041406 110.225488,75.2927654 108.076597,77.3208534 C106.054111,79.0954303 103.525999,80.1094705 100.745081,80.1094705 L11.2500804,80.1094705 C9.35399978,80.1094705 7.45791763,79.6024504 5.81464779,78.7151619 C5.05621551,78.3348954 4.42418817,77.8278754 3.79216129,77.3208534 C2.52810753,76.1800539 1.51686548,74.7857474 0.884838599,73.2646813 C0.379217086,72.1238819 0.126405378,70.856325 0,69.58877 L0,12.9290617 C2.78091844,10.6474621 6.15172848,7.816589 10.1124301,4.43644241" id="Vector"></path>
                                </g>
                            </g>
                            <path d="M108.329405,106.60132 C108.203,106.728075 108.203004,106.728073 108.076598,106.728073 C108.076593,106.728073 108.034456,106.728073 107.950185,106.728073 L104.663647,108.502652 L108.329405,106.60132 Z" id="Vector" fill="#526DFF" fill-rule="nonzero"></path>
                        </g>
                        <g id="ç¼–ç»„" transform="translate(104.667189, 92.536458)">
                            <path d="M47.2012286,30.005906 C46.8032412,31.7262474 46.2730457,33.3143807 45.610642,34.9023776 C45.4770709,35.2992746 45.3448628,35.5639635 45.0790835,35.9609968 C42.8260933,40.3280906 39.245706,43.9011178 34.8701618,46.0186288 C34.33983,46.2830451 33.8093618,46.5474613 33.411647,46.6796695 C29.1687198,48.4011012 24.3953245,49.0621419 19.6220655,48.0031138 C7.02590093,45.3562251 -1.06223867,33.0496918 1.58955675,20.4779164 C4.24148848,7.90615699 16.572419,-0.166308452 29.1687198,2.48044398 C33.6768811,3.40671874 37.6545742,5.65643787 40.9693185,8.83243175 C46.5388249,14.2581448 48.9253863,22.3306102 47.2012286,30.005906 Z" id="è·¯å¾„" fill="#5365EA" fill-rule="nonzero"></path>
                            <path d="M20.9482358,0.230861155 C23.6001675,-0.166172155 26.517197,-0.0338277181 29.3016095,0.495413731 C33.9422515,1.42182479 38.1851787,3.80388835 41.5000592,7.11222667 C47.3334367,12.934973 49.8535692,21.1396466 48.1294115,29.212112 C47.7314241,31.0647978 47.2012286,32.7851392 46.4066168,34.3731361 C46.2730457,34.7701695 46.1408375,35.034722 45.8750583,35.4317553 C43.4884969,40.063538 39.7763104,43.6365652 35.2682855,46.0186288 C34.7378174,46.2830451 34.2074855,46.5474613 33.6771537,46.8118776 C29.3016095,48.6655175 24.3957334,49.1943501 19.3572403,48.135322 C6.23060764,45.3562251 -2.25524676,32.5204503 0.529165698,19.4193052 C1.72244638,13.5965589 4.90470993,8.83256805 9.14763713,5.39188529" id="è·¯å¾„" stroke="#0F1358" stroke-width="1.5" stroke-linecap="round" stroke-linejoin="round"></path>
                            <g id="ic/update" transform="translate(13.866217, 16.549584)">
                                <g id="ðŸŽ¨-Color" transform="translate(0.000000, 0.000000)">
                                    <mask id="mask-2" fill="white">
                                        <use xlink:href="#path-1"></use>
                                    </mask>
                                    <use id="è’™ç‰ˆ" fill="#000000" fill-rule="nonzero" xlink:href="#path-1"></use>
                                    <g mask="url(#mask-2)" fill="#FFFFFF" id="å½¢çŠ¶">
                                        <g transform="translate(-4.137396, -6.814535)">
                                            <rect x="0" y="0" width="29.205148" height="29.205148"></rect>
                                        </g>
                                    </g>
                                </g>
                            </g>
                        </g>
                        <g id="Sent-Email-1" transform="translate(64.182115, 0.000000)" fill-rule="nonzero">
                            <path d="M14.5681029,89.1151647 C3.95005128,80.6225468 -1.61178734,66.1724195 0.410698813,52.7363364 C2.68599564,37.398921 13.3040521,34.4835431 19.1186996,37.018653 C23.0372664,38.7932299 25.4389695,44.1169598 23.4164833,48.1731357 C19.7507271,55.3981987 5.21410631,52.2293125 2.43318783,40.1875404 C1.42194475,35.7510981 2.43318632,30.8076339 5.08769924,27.2584801 C9.51188763,21.174216 17.6018316,19.1461276 24.9333441,17.8785727 C26.576614,17.6250617 28.2198841,17.3715514 29.9895594,17.1180404 C33.9081261,16.6110184 38.7115291,15.9772407 44.0205549,15.4702187" id="Vector" stroke="#84A1FF" stroke-width="2" stroke-linecap="round" stroke-linejoin="round" stroke-dasharray="0,0"></path>
                            <g id="Vector" transform="translate(44.451519, 0.000000)" fill="#84A2FF">
                                <path d="M10.187037,17.8785319 L5.38362852,20.1601317 C4.49879084,20.5403982 3.61396084,19.9066201 3.61396084,18.8925761 L4.49879468,9.25915861"></path>
                                <path d="M51.1429507,5.32975251 L18.0247362,24.0895672 C16.5078716,24.9768556 14.6117909,24.4698322 13.6005478,23.0755217 L6.01622437,11.7942828 L4.49936365,9.51268361 L0.327982292,3.17490867 C-0.556855361,1.78059816 0.454389738,-0.120734111 2.09765963,0.00602138948 L48.3620265,3.30166435 L54.3030755,3.55517541 L51.1429507,5.32975251 Z"></path>
                                <path d="M51.1426399,5.32973924 L6.14232685,11.6675141 L4.49905307,9.3859149 L48.4881289,3.17489543 L54.3027648,3.55516216 L51.1426399,5.32973924 Z"></path>
                            </g>
                        </g>
                        <path d="M142.712048,48.9336682 C140.059201,48.9336682 137.90864,46.7771552 137.90864,44.1169601 C137.90864,41.456765 140.059201,39.3002495 142.712048,39.3002495 C145.364895,39.3002495 147.515447,41.456765 147.515447,44.1169601 C147.515447,46.7771552 145.364895,48.9336682 142.712048,48.9336682 Z" id="Vector" fill="#DFE9FF"></path>
                        <path d="M16.4325399,31.4414102 C14.6872458,31.4414102 13.2724054,30.0226511 13.2724054,28.2725228 C13.2724054,26.5223946 14.6872458,25.1036354 16.4325399,25.1036354 C18.1778341,25.1036354 19.5926744,26.5223946 19.5926744,28.2725228 C19.5926744,30.0226511 18.1778341,31.4414102 16.4325399,31.4414102 Z" id="Vector" fill="#DFE9FF"></path>
                        <path d="M2.14889151,39.4269662 C0.962091529,39.4269662 0,38.4622089 0,37.2721217 C0,36.0820344 0.962091529,35.1172772 2.14889151,35.1172772 C3.3356915,35.1172772 4.29778303,36.0820344 4.29778303,37.2721217 C4.29778303,38.4622089 3.3356915,39.4269662 2.14889151,39.4269662 Z" id="Vector" fill="#DFE9FF"></path>
                        <path d="M137.149879,28.5259937 C136.032891,28.5259937 135.127395,27.6179872 135.127395,26.4979051 C135.127395,25.377823 136.032891,24.4698166 137.149879,24.4698166 C138.266867,24.4698166 139.172363,25.377823 139.172363,26.4979051 C139.172363,27.6179872 138.266867,28.5259937 137.149879,28.5259937 Z" id="Vector" fill="#DFE9FF"></path>
                        <path d="M145.239688,94.5656369 C144.1227,94.5656369 143.217204,93.6576329 143.217204,92.5375508 C143.217204,91.4174687 144.1227,90.5094647 145.239688,90.5094647 C146.356676,90.5094647 147.262172,91.4174687 147.262172,92.5375508 C147.262172,93.6576329 146.356676,94.5656369 145.239688,94.5656369 Z" id="Vector" fill="#DFE9FF"></path>
                        <path d="M31.2221703,24.216313 C31.0957649,24.0895575 30.9693595,23.7092901 31.2221703,23.3290236 C31.3485757,23.2022681 32.3598188,21.8079571 33.6238726,20.0333803 C34.6351157,18.6390698 35.89917,16.8644932 36.910413,15.3434272 C37.9216561,13.9491167 37.9216561,12.0477849 36.910413,10.6534745 C36.0255754,9.51267505 34.6351143,8.87889763 33.244655,9.13240862 C32.7390335,9.25916412 32.1070075,9.3859196 31.7277913,9.76618609 C31.3485752,10.0196971 31.0957635,10.3999639 30.8429527,10.7802304 C29.958115,12.0477854 28.9468724,13.56885 27.809224,14.9631605 C26.797981,16.357471 25.9131427,17.6250259 25.028305,18.7658253 C24.3962781,19.6531138 24.269874,20.5404022 24.7754955,21.3009352 C25.2811171,22.0614682 26.2923598,22.5684897 27.1771974,22.4417342 C27.8092243,22.3149787 28.3148465,22.0614687 28.6940627,21.4276912 C29.3260896,20.5404027 33.6238731,14.4561385 33.7502785,14.329383 C34.0030893,13.9491165 33.8766829,13.442095 33.4974668,13.188584 C33.3710614,13.188584 33.3710604,13.0618281 33.244655,13.0618281 C33.1182497,13.0618281 33.1182511,13.0618281 32.9918457,13.0618281 C32.739035,13.0618281 32.6126295,13.3153393 32.4862241,13.4420948 L32.3598182,13.6956055 L29.1996837,18.1320478 C29.0732783,18.2588033 28.9468734,18.3855598 28.6940627,18.3855598 C28.4412519,18.3855598 28.1884412,18.3855593 28.0620358,18.2588038 C27.6828196,18.0052928 27.5564133,17.4982714 27.809224,17.1180049 L27.9356299,16.9912489 C28.946873,15.5969384 30.3373307,13.5688506 31.3485737,12.1745402 C31.6013845,11.7942737 32.1070066,11.5407634 32.6126281,11.4140079 C33.3710605,11.2872524 34.2558986,11.5407634 34.6351147,12.0477854 C35.393547,12.9350738 35.6463578,13.8223617 35.2671416,14.8364057 C35.2671416,14.9631612 35.1407377,15.0899169 35.0143323,15.2166724 C34.6351161,15.7236944 34.2559,16.3574714 33.7502785,16.9912489 C32.4862247,18.8925813 30.9693586,21.0474242 29.7053048,22.5684901 C29.0732779,23.4557786 28.3148464,23.9628015 27.3036033,24.089557 C26.7979818,24.2163125 26.1659534,24.2163121 25.6603319,23.9628011 C24.6490889,23.7092901 23.7642511,23.2022691 23.1322242,22.3149806 C22.5001973,21.4276922 22.3737919,20.4136468 22.5001973,19.3996028 C22.6266027,18.8925808 22.8794134,18.2588036 23.1322242,17.8785371 C23.7642511,16.9912487 24.3962781,16.1039609 25.028305,15.2166724 L25.7867378,14.2026282 L25.9131436,14.0758723 L26.7979823,12.8083173 C27.5564146,11.6675179 28.4412509,10.3999632 29.0732779,9.51267474 C30.3373317,8.2451198 31.6013865,7.6113426 32.9918457,7.35783161 C34.1294941,7.23107611 35.1407372,7.35783124 36.1519802,7.73809774 C38.9328987,9.13240821 40.1969529,12.5548069 38.8064937,15.4701832 C38.6800883,15.7236942 38.553681,15.9772044 38.3008703,16.2307154 C37.0368165,18.0052923 35.393547,20.2868927 34.0030878,22.3149806 L32.739034,24.089557 C32.6126286,24.343068 32.3598173,24.469823 32.1070065,24.5965785 C31.8541957,24.5965785 31.474981,24.469824 31.2221703,24.216313 Z" id="Vector" fill="#EA67A4" fill-rule="nonzero"></path>
                        <path d="M161.546234,55.7784159 C161.419829,55.7784159 161.040605,55.9051747 160.787794,55.5249082 C160.661389,55.3981527 159.776557,54.2573524 158.512503,52.7362864 C157.50126,51.4687315 156.363614,49.9476646 155.225966,48.6801097 C154.214722,47.4125547 152.571447,47.0322865 151.180987,47.5393084 C149.916934,47.9195749 149.032102,49.060378 148.905696,50.4546885 C148.905696,50.9617105 148.905694,51.4687286 149.0321,51.9757505 C149.158505,52.356017 149.411316,52.7362873 149.664127,52.9897983 C150.548964,54.1305977 151.560202,55.3981504 152.571445,56.6657053 C153.456282,57.8065047 154.467533,58.9473071 155.225966,59.961351 C155.857992,60.721884 156.616421,60.975393 157.374853,60.721882 C158.133286,60.4683711 158.765308,59.7078381 158.891713,58.8205497 C158.891713,58.3135277 158.765316,57.6797493 158.3861,57.2994828 C157.754073,56.5389498 153.582694,51.3419769 153.456288,51.0884659 C153.203477,50.834955 152.697852,50.7081966 152.445041,50.9617076 C152.318636,50.9617076 152.318638,51.088464 152.318638,51.2152195 C152.318639,51.2997238 152.276505,51.3842278 152.192234,51.4687315 C152.192234,51.7222424 152.318636,51.848995 152.445041,51.9757505 L152.571445,52.1025089 C155.225958,55.3981516 155.605174,55.9051743 155.731579,55.9051743 C155.857985,56.0319298 155.857992,56.2854379 155.857992,56.4121934 C155.857992,56.6657044 155.731581,56.7924618 155.605176,56.9192173 C155.22596,57.1727283 154.846749,57.1727302 154.593939,56.7924637 L154.467526,56.6657053 C153.456282,55.5249059 152.065825,53.7503294 151.180987,52.4827744 C150.928177,52.1025079 150.801777,51.595486 150.801777,51.2152195 C150.928182,50.4546865 151.307391,49.8209101 151.939418,49.5673991 C152.950661,49.0603771 153.709093,49.1871307 154.467526,49.6941526 C154.593931,49.8209081 154.720342,49.8209091 154.720342,49.9476646 C155.099558,50.4546866 155.478776,50.9617095 155.857992,51.4687315 C157.122046,53.1165528 158.638908,54.8911294 159.776557,56.2854398 C160.408584,57.0459728 160.661393,57.9332631 160.534987,58.6937961 C160.534987,59.2008181 160.282175,59.7078362 160.029364,60.2148581 C159.650148,61.1021466 158.891717,61.735926 158.00688,61.989437 C157.122042,62.242948 156.110801,62.242947 155.352369,61.735925 C154.846747,61.482414 154.467529,61.1021485 154.214719,60.721882 C153.582692,59.9613491 152.950665,59.2008171 152.318638,58.4402841 L151.686611,57.5529947 L151.560207,57.4262412 L150.675364,56.2854398 C149.916932,55.2713959 149.0321,54.2573504 148.400073,53.4968174 C147.64164,52.4827734 147.26242,51.2152195 147.388826,49.9476646 C147.515231,48.9336206 147.894449,48.0463343 148.526476,47.2858013 C150.422557,45.1309579 153.709101,45.0041986 155.857992,46.905531 C156.110803,47.0322865 156.237209,47.2857975 156.490019,47.5393084 C157.754073,49.0603744 159.270931,50.9617095 160.661391,52.7362864 L161.925454,54.2573533 C162.05186,54.6376198 162.178253,54.8911268 162.051848,55.1446378 C162.051848,55.3981488 161.799045,55.6516604 161.546234,55.7784159 Z" id="Vector" fill="#84A2FF" fill-rule="nonzero"></path>
                    </g>
                </g>
            </g>
        </g>
    </g>
</svg>