<?xml version="1.0" encoding="UTF-8"?>
<svg width="280px" height="143px" viewBox="0 0 280 143" version="1.1" xmlns="http://www.w3.org/2000/svg" xmlns:xlink="http://www.w3.org/1999/xlink">
    <title>æ¤­åœ†å½¢ 2</title>
    <defs>
        <linearGradient x1="0.331578965%" y1="50.4631591%" x2="101.336844%" y2="50.4631591%" id="linearGradient-1">
            <stop stop-color="#FF66A9" offset="0%"></stop>
            <stop stop-color="#F53689" offset="100%"></stop>
        </linearGradient>
        <linearGradient x1="100.489475%" y1="50.1421064%" x2="0.515790291%" y2="50.1421064%" id="linearGradient-2">
            <stop stop-color="#84A2FF" offset="0%"></stop>
            <stop stop-color="#84A2FF" offset="100%"></stop>
        </linearGradient>
        <linearGradient x1="99.8578949%" y1="48.626317%" x2="1.14737061%" y2="48.626317%" id="linearGradient-3">
            <stop stop-color="#FF66A9" offset="0%"></stop>
            <stop stop-color="#F53689" offset="100%"></stop>
        </linearGradient>
        <polygon id="path-4" points="5.99079959 11.3397278 1.4976999 6.8466281 0 8.34432799 5.99079959 14.3351276 18.8282273 1.4976999 17.3305274 0"></polygon>
    </defs>
    <g id="é¡µé¢-1" stroke="none" stroke-width="1" fill="none" fill-rule="evenodd">
        <g id="åœºæ™¯1ï¼šå¡«å†™åŸºæœ¬ä¿¡æ¯-æäº¤æˆåŠŸï¼ˆè´¦å·æœªè¿‡æœŸï¼‰" transform="translate(-935.000000, -353.000000)">
            <g id="ç¼–ç»„-3" transform="translate(830.000000, 148.000000)">
                <g id="æ¤­åœ†å½¢-2" transform="translate(105.000000, 206.000000)">
                    <line x1="27.4256342" y1="141.211705" x2="196.287183" y2="141.211705" id="ç›´çº¿" stroke="#0F1358" stroke-width="1.5" stroke-linecap="square"></line>
                    <line x1="209.316623" y1="141.211705" x2="249.4473" y2="141.211705" id="ç›´çº¿" stroke="#0F1358" stroke-width="1.5" stroke-linecap="square"></line>
                    <g id="ç¼–ç»„-15" transform="translate(0.000000, 4.551223)" fill="#D9E6F2" fill-opacity="0.32">
                        <path d="M183.060963,11.4659076 L180.976252,13.5506181 L178.891542,11.4659076 L180.976252,9.38119715 L183.060963,11.4659076 Z M180.976252,5.2117762 L183.186045,7.4215693 L185.791933,4.81568121 L180.976252,0 L176.160571,4.81568121 L178.766459,7.4215693 L180.976252,5.2117762 Z M174.722121,11.4659076 L176.931914,9.25611453 L174.326026,6.65022643 L169.510345,11.4659076 L174.326026,16.2815888 L176.931914,13.6757007 L174.722121,11.4659076 Z M187.230384,11.4659076 L185.020591,13.6757007 L187.626479,16.2815888 L192.44216,11.4659076 L187.626479,6.65022643 L185.020591,9.25611453 L187.230384,11.4659076 Z M180.976252,17.7200391 L178.766459,15.510246 L176.160571,18.1161341 L180.976252,22.9318153 L185.791933,18.1161341 L183.186045,15.510246 L180.976252,17.7200391 Z" id="å½¢çŠ¶" fill-rule="nonzero"></path>
                        <path d="M49.2641793,32.0852857 C43.5103784,32.0852857 38.8406269,36.7550372 38.8406269,42.5088381 C38.8406269,43.8951706 39.1116393,45.2293853 39.6119698,46.4385174 L45.0947584,40.9453053 L48.5345307,43.8430528 L51.9534558,40.4241277 L50.3065346,40.4241277 L50.3065346,38.3394172 L55.5183108,38.3394172 L55.5183108,43.5511934 L53.4336003,43.5511934 L53.4336003,41.9042721 L48.6491897,46.6782591 L45.219841,43.770088 L40.6334779,48.356451 C42.5097174,51.1186924 45.6784773,52.9323905 49.2641793,52.9323905 L57.6030212,52.9323905 C58.749612,52.9323905 59.6877317,51.9942708 59.6877317,50.8476801 L59.6877317,42.5088381 C59.6877317,36.7550372 55.0179802,32.0852857 49.2641793,32.0852857 Z M57.0818436,51.3688577 C56.5085482,51.3688577 56.0394884,50.8997978 56.0394884,50.3265024 C56.0394884,49.7532071 56.5085482,49.2841472 57.0818436,49.2841472 C57.655139,49.2841472 58.1241989,49.7532071 58.1241989,50.3265024 C58.1241989,50.8997978 57.655139,51.3688577 57.0818436,51.3688577 Z" id="å½¢çŠ¶" fill-rule="nonzero" transform="translate(49.264179, 42.508838) rotate(10.000000) translate(-49.264179, -42.508838) "></path>
                        <path d="M243.08453,24.1794806 L240.999819,24.1794806 L240.999819,33.5606778 L227.449201,33.5606778 L227.449201,35.6453882 C227.449201,36.2186836 227.918261,36.6877435 228.491556,36.6877435 L239.957464,36.6877435 L244.126885,40.8571644 L244.126885,25.2218359 C244.126885,24.6485405 243.657825,24.1794806 243.08453,24.1794806 Z M238.915109,30.433612 L238.915109,21.0524149 C238.915109,20.4791195 238.446049,20.0100597 237.872754,20.0100597 L224.322136,20.0100597 C223.74884,20.0100597 223.27978,20.4791195 223.27978,21.0524149 L223.27978,35.6453882 L227.449201,31.4759673 L237.872754,31.4759673 C238.446049,31.4759673 238.915109,31.0069074 238.915109,30.433612 Z" id="å½¢çŠ¶" fill-rule="nonzero" transform="translate(233.703333, 30.433612) rotate(-10.000000) translate(-233.703333, -30.433612) "></path>
                        <path d="M0,100.24541 L4.16942096,100.24541 L4.16942096,87.7371467 L0,87.7371467 L0,100.24541 Z M22.9318153,88.779502 C22.9318153,87.6329112 21.9936955,86.6947915 20.8471048,86.6947915 L14.2698432,86.6947915 L15.2600807,81.931228 L15.2913514,81.5976744 C15.2913514,81.1703087 15.114151,80.7742137 14.8327151,80.4927778 L13.7278185,79.3983048 L6.86912103,86.2674258 C6.48344959,86.6426737 6.25413144,87.1638513 6.25413144,87.7371467 L6.25413144,98.1606991 C6.25413144,99.3072899 7.19225115,100.24541 8.33884191,100.24541 L17.7200391,100.24541 C18.5851939,100.24541 19.3252661,99.724232 19.6379727,98.9737362 L22.7858855,91.6251318 C22.8796975,91.3853901 22.9318153,91.1352248 22.9318153,90.8642124 L22.9318153,88.779502 Z" id="å½¢çŠ¶" fill-rule="nonzero"></path>
                        <path d="M221.628107,89.8218572 L280,89.8218572 C279.652548,85.999888 278.089015,84.0889034 275.309401,84.0889034 C271.13998,84.0889034 269.05527,86.1736139 268.012915,86.1736139 C266.97056,86.1736139 263.843494,78.8771272 258.631718,77.8347719 C253.419941,76.7924167 251.335231,80.9618377 249.25052,80.9618377 C247.16581,80.9618377 247.16581,80.9618377 237.784613,77.8347719 C230.781245,80.0811354 225.395742,84.0768304 221.628107,89.8218572 Z" id="ç›´çº¿-9"></path>
                        <path d="M41.8507435,10.6474422 L94.3589377,10.6474422 C92.3055679,8.24129592 90.0286879,7.03822277 87.5282977,7.03822277 C83.7777124,7.03822277 80.1271021,9.12293325 79.1894558,9.12293325 C78.2518095,9.12293325 77.623556,4.95351229 72.9353243,3.91115705 C68.2470927,2.86880181 66.4717751,5.99586753 64.5964824,5.99586753 C62.7211898,5.99586753 59.4532853,-2.58545379 50.0035091,0.784091332 C43.7036582,3.03045474 40.9860697,6.31823838 41.8507435,10.6474422 Z" id="ç›´çº¿-9"></path>
                    </g>
                    <g id="Group" transform="translate(90.086366, 0.000000)">
                        <g fill="#FFFFFF" fill-rule="nonzero" id="Vector">
                            <path d="M99.8272678,134.582047 C99.8272678,138.228359 96.852283,141.211705 93.2161902,141.211705 L6.61107759,141.211705 C2.97498484,141.211705 0,138.228359 0,134.582047 L0,6.62965773 C0,2.9833459 2.97498484,0 6.61107759,0 L93.2161902,0 C96.852283,0 99.8272678,2.9833459 99.8272678,6.62965773 L99.8272678,134.582047 Z"></path>
                        </g>
                        <g transform="translate(2.975086, 9.281519)" id="Vector">
                            <path d="M3.14026075,50.05397 L3.14026075,53.2030536 L0,53.2030536 L0,50.05397 L3.14026075,50.05397 Z" fill="#E2EBFF"></path>
                            <path d="M3.14026075,43.7557838 L3.14026075,46.9048674 L0,46.9048674 L0,43.7557838 L3.14026075,43.7557838 Z" fill="#E2EBFF"></path>
                            <path d="M3.14026075,37.4575975 L3.14026075,40.6066876 L0,40.6066876 L0,37.4575975 L3.14026075,37.4575975 Z" fill="#E2EBFF"></path>
                            <path d="M3.14026075,31.3251279 L3.14026075,34.4742115 L0,34.4742115 L0,31.3251279 L3.14026075,31.3251279 Z" fill="#EA67A4"></path>
                            <path d="M3.14026075,18.7288422 L3.14026075,21.8779322 L0,21.8779322 L0,18.7288422 L3.14026075,18.7288422 Z" fill="#E2EBFF"></path>
                            <path d="M9.58628115,56.1863528 L9.58628115,59.3354365 L6.44602041,59.3354365 L6.44602041,56.1863528 L9.58628115,56.1863528 Z" fill="#E2EBFF"></path>
                            <path d="M9.58628115,50.0538832 L9.58628115,53.2029668 L6.44602041,53.2029668 L6.44602041,50.0538832 L9.58628115,50.0538832 Z" fill="#E2EBFF"></path>
                            <path d="M9.58628115,31.3251279 L9.58628115,34.4742115 L6.44602041,34.4742115 L6.44602041,31.3251279 L9.58628115,31.3251279 Z" fill="#E2EBFF"></path>
                            <path d="M9.58628115,6.29818626 L9.58628115,9.44727633 L6.44602041,9.44727633 L6.44602041,6.29818626 L9.58628115,6.29818626 Z" fill="#EA67A4"></path>
                            <path d="M16.0316071,56.1863528 L16.0316071,59.3354365 L12.8913463,59.3354365 L12.8913463,56.1863528 L16.0316071,56.1863528 Z" fill="#E2EBFF"></path>
                            <path d="M16.0316071,43.7557838 L16.0316071,46.9048674 L12.8913463,46.9048674 L12.8913463,43.7557838 L16.0316071,43.7557838 Z" fill="#E2EBFF"></path>
                            <path d="M16.0316071,37.4575975 L16.0316071,40.6066876 L12.8913463,40.6066876 L12.8913463,37.4575975 L16.0316071,37.4575975 Z" fill="#E2EBFF"></path>
                            <path d="M16.0316071,31.3251279 L16.0316071,34.4742115 L12.8913463,34.4742115 L12.8913463,31.3251279 L16.0316071,31.3251279 Z" fill="#EA67A4"></path>
                            <path d="M16.0316071,25.0269416 L16.0316071,28.1760283 L12.8913463,28.1760283 L12.8913463,25.0269416 L16.0316071,25.0269416 Z" fill="#E2EBFF"></path>
                            <path d="M16.0316071,18.7288422 L16.0316071,21.8779322 L12.8913463,21.8779322 L12.8913463,18.7288422 L16.0316071,18.7288422 Z" fill="#E2EBFF"></path>
                            <path d="M16.0316071,6.29818626 L16.0316071,9.44727633 L12.8913463,9.44727633 L12.8913463,6.29818626 L16.0316071,6.29818626 Z" fill="#E2EBFF"></path>
                            <path d="M16.0316071,0 L16.0316071,3.14908669 L12.8913463,3.14908669 L12.8913463,0 L16.0316071,0 Z" fill="#E2EBFF"></path>
                            <path d="M22.4783254,50.0538832 L22.4783254,53.2029668 L19.3380612,53.2029668 L19.3380612,50.0538832 L22.4783254,50.0538832 Z" fill="#E2EBFF"></path>
                            <path d="M22.4783254,43.7557838 L22.4783254,46.9048674 L19.3380612,46.9048674 L19.3380612,43.7557838 L22.4783254,43.7557838 Z" fill="#E2EBFF"></path>
                            <path d="M22.4783254,25.0269416 L22.4783254,28.1760283 L19.3380612,28.1760283 L19.3380612,25.0269416 L22.4783254,25.0269416 Z" fill="#E2EBFF"></path>
                            <path d="M22.4783254,12.5963725 L22.4783254,15.7454592 L19.3380612,15.7454592 L19.3380612,12.5963725 L22.4783254,12.5963725 Z" fill="#E2EBFF"></path>
                            <path d="M29.0889339,56.1863528 L29.0889339,59.3354365 L25.9486697,59.3354365 L25.9486697,56.1863528 L29.0889339,56.1863528 Z" fill="#E2EBFF"></path>
                            <path d="M29.0889339,50.0538832 L29.0889339,53.2029668 L25.9486697,53.2029668 L25.9486697,50.0538832 L29.0889339,50.0538832 Z" fill="#E2EBFF"></path>
                            <path d="M29.0889339,31.3251279 L29.0889339,34.4742115 L25.9486697,34.4742115 L25.9486697,31.3251279 L29.0889339,31.3251279 Z" fill="#E2EBFF"></path>
                            <path d="M29.0889339,25.0269416 L29.0889339,28.1760283 L25.9486697,28.1760283 L25.9486697,25.0269416 L29.0889339,25.0269416 Z" fill="#EA67A4"></path>
                            <path d="M29.0889339,18.7288422 L29.0889339,21.8779322 L25.9486697,21.8779322 L25.9486697,18.7288422 L29.0889339,18.7288422 Z" fill="#E2EBFF"></path>
                            <path d="M35.5349478,56.1863528 L35.5349478,59.3354365 L32.3946901,59.3354365 L32.3946901,56.1863528 L35.5349478,56.1863528 Z" fill="#E2EBFF"></path>
                            <path d="M35.5349478,50.0538832 L35.5349478,53.2029668 L32.3946901,53.2029668 L32.3946901,50.0538832 L35.5349478,50.0538832 Z" fill="#E2EBFF"></path>
                            <path d="M35.5349478,43.7557838 L35.5349478,46.9048674 L32.3946901,46.9048674 L32.3946901,43.7557838 L35.5349478,43.7557838 Z" fill="#E2EBFF"></path>
                            <path d="M35.5349478,37.4575975 L35.5349478,40.6066876 L32.3946901,40.6066876 L32.3946901,37.4575975 L35.5349478,37.4575975 Z" fill="#E2EBFF"></path>
                            <path d="M35.5349478,31.3251279 L35.5349478,34.4742115 L32.3946901,34.4742115 L32.3946901,31.3251279 L35.5349478,31.3251279 Z" fill="#E2EBFF"></path>
                            <path d="M35.5349478,25.0269416 L35.5349478,28.1760283 L32.3946901,28.1760283 L32.3946901,25.0269416 L35.5349478,25.0269416 Z" fill="#E2EBFF"></path>
                            <path d="M35.5349478,6.29818626 L35.5349478,9.44727633 L32.3946901,9.44727633 L32.3946901,6.29818626 L35.5349478,6.29818626 Z" fill="#E2EBFF"></path>
                            <path d="M41.9802802,56.1863528 L41.9802802,59.3354365 L38.8400161,59.3354365 L38.8400161,56.1863528 L41.9802802,56.1863528 Z" fill="#E2EBFF"></path>
                            <path d="M41.9802802,50.0538832 L41.9802802,53.2029668 L38.8400161,53.2029668 L38.8400161,50.0538832 L41.9802802,50.0538832 Z" fill="#E2EBFF"></path>
                            <path d="M41.9802802,43.7557838 L41.9802802,46.9048674 L38.8400161,46.9048674 L38.8400161,43.7557838 L41.9802802,43.7557838 Z" fill="#E2EBFF"></path>
                            <path d="M41.9802802,31.3251279 L41.9802802,34.4742115 L38.8400161,34.4742115 L38.8400161,31.3251279 L41.9802802,31.3251279 Z" fill="#E2EBFF"></path>
                            <path d="M41.9802802,25.0269416 L41.9802802,28.1760283 L38.8400161,28.1760283 L38.8400161,25.0269416 L41.9802802,25.0269416 Z" fill="#E2EBFF"></path>
                            <path d="M48.4263006,56.1863528 L48.4263006,59.3354365 L45.2860365,59.3354365 L45.2860365,56.1863528 L48.4263006,56.1863528 Z" fill="#84A2FF"></path>
                            <path d="M48.4263006,50.0538832 L48.4263006,53.2029668 L45.2860365,53.2029668 L45.2860365,50.0538832 L48.4263006,50.0538832 Z" fill="#E2EBFF"></path>
                            <path d="M48.4263006,43.7557838 L48.4263006,46.9048674 L45.2860365,46.9048674 L45.2860365,43.7557838 L48.4263006,43.7557838 Z" fill="#E2EBFF"></path>
                            <path d="M48.4263006,37.4575975 L48.4263006,40.6066876 L45.2860365,40.6066876 L45.2860365,37.4575975 L48.4263006,37.4575975 Z" fill="#E2EBFF"></path>
                            <path d="M48.4263006,31.3251279 L48.4263006,34.4742115 L45.2860365,34.4742115 L45.2860365,31.3251279 L48.4263006,31.3251279 Z" fill="#E2EBFF"></path>
                            <path d="M48.4263006,18.7288422 L48.4263006,21.8779322 L45.2860365,21.8779322 L45.2860365,18.7288422 L48.4263006,18.7288422 Z" fill="#E2EBFF"></path>
                            <path d="M54.8709257,56.1863528 L54.8709257,59.3354365 L51.730668,59.3354365 L51.730668,56.1863528 L54.8709257,56.1863528 Z" fill="#E2EBFF"></path>
                            <path d="M54.8709257,50.0538832 L54.8709257,53.2029668 L51.730668,53.2029668 L51.730668,50.0538832 L54.8709257,50.0538832 Z" fill="#E2EBFF"></path>
                            <path d="M54.8709257,43.7557838 L54.8709257,46.9048674 L51.730668,46.9048674 L51.730668,43.7557838 L54.8709257,43.7557838 Z" fill="url(#linearGradient-1)"></path>
                            <path d="M54.8709257,37.4575975 L54.8709257,40.6066876 L51.730668,40.6066876 L51.730668,37.4575975 L54.8709257,37.4575975 Z" fill="#E2EBFF"></path>
                            <path d="M54.8709257,31.3251279 L54.8709257,34.4742115 L51.730668,34.4742115 L51.730668,31.3251279 L54.8709257,31.3251279 Z" fill="#E2EBFF"></path>
                            <path d="M54.8709257,25.0269416 L54.8709257,28.1760283 L51.730668,28.1760283 L51.730668,25.0269416 L54.8709257,25.0269416 Z" fill="#E2EBFF"></path>
                            <path d="M61.317647,56.1863528 L61.317647,59.3354365 L58.1773828,59.3354365 L58.1773828,56.1863528 L61.317647,56.1863528 Z" fill="#E2EBFF"></path>
                            <path d="M61.317647,50.0538832 L61.317647,53.2029668 L58.1773828,53.2029668 L58.1773828,50.0538832 L61.317647,50.0538832 Z" fill="#E2EBFF"></path>
                            <path d="M61.317647,43.7557838 L61.317647,46.9048674 L58.1773828,46.9048674 L58.1773828,43.7557838 L61.317647,43.7557838 Z" fill="#E2EBFF"></path>
                            <path d="M61.317647,31.3251279 L61.317647,34.4742115 L58.1773828,34.4742115 L58.1773828,31.3251279 L61.317647,31.3251279 Z" fill="#E2EBFF"></path>
                            <path d="M61.317647,18.7288422 L61.317647,21.8779322 L58.1773828,21.8779322 L58.1773828,18.7288422 L61.317647,18.7288422 Z" fill="#E2EBFF"></path>
                            <path d="M61.317647,0 L61.317647,3.14908669 L58.1773828,3.14908669 L58.1773828,0 L61.317647,0 Z" fill="#E2EBFF"></path>
                            <path d="M67.7636609,50.0538832 L67.7636609,53.2029668 L64.6234033,53.2029668 L64.6234033,50.0538832 L67.7636609,50.0538832 Z" fill="#E2EBFF"></path>
                            <path d="M67.7636609,43.7557838 L67.7636609,46.9048674 L64.6234033,46.9048674 L64.6234033,43.7557838 L67.7636609,43.7557838 Z" fill="#E2EBFF"></path>
                            <path d="M67.7636609,37.4575975 L67.7636609,40.6066876 L64.6234033,40.6066876 L64.6234033,37.4575975 L67.7636609,37.4575975 Z" fill="#E2EBFF"></path>
                            <path d="M67.7636609,12.5963725 L67.7636609,15.7454592 L64.6234033,15.7454592 L64.6234033,12.5963725 L67.7636609,12.5963725 Z" fill="#E2EBFF"></path>
                            <path d="M74.2089933,56.1863528 L74.2089933,59.3354365 L71.0687292,59.3354365 L71.0687292,56.1863528 L74.2089933,56.1863528 Z" fill="#E2EBFF"></path>
                            <path d="M74.2089933,43.7557838 L74.2089933,46.9048674 L71.0687292,46.9048674 L71.0687292,43.7557838 L74.2089933,43.7557838 Z" fill="#E2EBFF"></path>
                            <path d="M74.2089933,37.4575975 L74.2089933,40.6066876 L71.0687292,40.6066876 L71.0687292,37.4575975 L74.2089933,37.4575975 Z" fill="#EA67A4"></path>
                            <path d="M74.2089933,31.3251279 L74.2089933,34.4742115 L71.0687292,34.4742115 L71.0687292,31.3251279 L74.2089933,31.3251279 Z" fill="#E2EBFF"></path>
                            <path d="M74.2089933,25.0269416 L74.2089933,28.1760283 L71.0687292,28.1760283 L71.0687292,25.0269416 L74.2089933,25.0269416 Z" fill="#E2EBFF"></path>
                            <path d="M74.2089933,18.7288422 L74.2089933,21.8779322 L71.0687292,21.8779322 L71.0687292,18.7288422 L74.2089933,18.7288422 Z" fill="#EA67A4"></path>
                            <path d="M80.8202963,56.1863528 L80.8202963,59.3354365 L77.6800322,59.3354365 L77.6800322,56.1863528 L80.8202963,56.1863528 Z" fill="#E2EBFF"></path>
                            <path d="M80.8202963,37.4575975 L80.8202963,40.6066876 L77.6800322,40.6066876 L77.6800322,37.4575975 L80.8202963,37.4575975 Z" fill="#E2EBFF"></path>
                            <path d="M80.8202963,25.0269416 L80.8202963,28.1760283 L77.6800322,28.1760283 L77.6800322,25.0269416 L80.8202963,25.0269416 Z" fill="#E2EBFF"></path>
                            <path d="M87.2656223,56.1863528 L87.2656223,59.3354365 L84.1253581,59.3354365 L84.1253581,56.1863528 L87.2656223,56.1863528 Z" fill="#E2EBFF"></path>
                            <path d="M87.2656223,50.0538832 L87.2656223,53.2029668 L84.1253581,53.2029668 L84.1253581,50.0538832 L87.2656223,50.0538832 Z" fill="#E2EBFF"></path>
                            <path d="M87.2656223,43.7557838 L87.2656223,46.9048674 L84.1253581,46.9048674 L84.1253581,43.7557838 L87.2656223,43.7557838 Z" fill="#E2EBFF"></path>
                            <path d="M87.2656223,37.4575975 L87.2656223,40.6066876 L84.1253581,40.6066876 L84.1253581,37.4575975 L87.2656223,37.4575975 Z" fill="#E2EBFF"></path>
                            <path d="M87.2656223,31.3251279 L87.2656223,34.4742115 L84.1253581,34.4742115 L84.1253581,31.3251279 L87.2656223,31.3251279 Z" fill="#E2EBFF"></path>
                            <path d="M87.2656223,12.5963725 L87.2656223,15.7454592 L84.1253581,15.7454592 L84.1253581,12.5963725 L87.2656223,12.5963725 Z" fill="#E2EBFF"></path>
                            <path d="M93.7116427,56.1863528 L93.7116427,59.3354365 L90.5713785,59.3354365 L90.5713785,56.1863528 L93.7116427,56.1863528 Z" fill="#E2EBFF"></path>
                            <path d="M93.7116427,43.7557838 L93.7116427,46.9048674 L90.5713785,46.9048674 L90.5713785,43.7557838 L93.7116427,43.7557838 Z" fill="#E2EBFF"></path>
                            <path d="M93.7116427,37.4575975 L93.7116427,40.6066876 L90.5713785,40.6066876 L90.5713785,37.4575975 L93.7116427,37.4575975 Z" fill="#E2EBFF"></path>
                            <path d="M93.6582737,75.0419877 L93.6582737,78.1910713 L90.5180095,78.1910713 L90.5180095,75.0419877 L93.6582737,75.0419877 Z" fill="#E2EBFF" transform="translate(92.088142, 76.616529) rotate(180.000000) translate(-92.088142, -76.616529) "></path>
                            <path d="M93.6582737,68.6962242 L93.6582737,71.8453142 L90.5180095,71.8453142 L90.5180095,68.6962242 L93.6582737,68.6962242 Z" fill="#E2EBFF" transform="translate(92.088142, 70.270769) rotate(180.000000) translate(-92.088142, -70.270769) "></path>
                            <path d="M93.6582737,62.5160165 L93.6582737,65.6651002 L90.5180095,65.6651002 L90.5180095,62.5160165 L93.6582737,62.5160165 Z" fill="#E2EBFF" transform="translate(92.088142, 64.090558) rotate(180.000000) translate(-92.088142, -64.090558) "></path>
                            <path d="M87.1726688,81.2221085 L87.1726688,84.3711986 L84.0324046,84.3711986 L84.0324046,81.2221085 L87.1726688,81.2221085 Z" fill="#E2EBFF" transform="translate(85.602537, 82.796654) rotate(180.000000) translate(-85.602537, -82.796654) "></path>
                            <path d="M87.1726688,75.0419877 L87.1726688,78.1910713 L84.0324046,78.1910713 L84.0324046,75.0419877 L87.1726688,75.0419877 Z" fill="#E2EBFF" transform="translate(85.602537, 76.616529) rotate(180.000000) translate(-85.602537, -76.616529) "></path>
                            <path d="M87.1726688,62.5160165 L87.1726688,65.6651002 L84.0324046,65.6651002 L84.0324046,62.5160165 L87.1726688,62.5160165 Z" fill="#E2EBFF" transform="translate(85.602537, 64.090558) rotate(180.000000) translate(-85.602537, -64.090558) "></path>
                            <path d="M80.6870639,81.2221085 L80.6870639,84.3711986 L77.5467998,84.3711986 L77.5467998,81.2221085 L80.6870639,81.2221085 Z" fill="#E2EBFF" transform="translate(79.116932, 82.796654) rotate(180.000000) translate(-79.116932, -82.796654) "></path>
                            <path d="M80.6870639,75.0419877 L80.6870639,78.1910713 L77.5467998,78.1910713 L77.5467998,75.0419877 L80.6870639,75.0419877 Z" fill="#E2EBFF" transform="translate(79.116932, 76.616529) rotate(180.000000) translate(-79.116932, -76.616529) "></path>
                            <path d="M80.6870639,68.6962242 L80.6870639,71.8453142 L77.5467998,71.8453142 L77.5467998,68.6962242 L80.6870639,68.6962242 Z" fill="#E2EBFF" transform="translate(79.116932, 70.270769) rotate(180.000000) translate(-79.116932, -70.270769) "></path>
                            <path d="M80.6870639,62.5160165 L80.6870639,65.6651002 L77.5467998,65.6651002 L77.5467998,62.5160165 L80.6870639,62.5160165 Z" fill="#E2EBFF" transform="translate(79.116932, 64.090558) rotate(180.000000) translate(-79.116932, -64.090558) "></path>
                            <path d="M74.367436,81.2221085 L74.367436,84.3711986 L71.2271719,84.3711986 L71.2271719,81.2221085 L74.367436,81.2221085 Z" fill="#E2EBFF" transform="translate(72.797304, 82.796654) rotate(180.000000) translate(-72.797304, -82.796654) "></path>
                            <path d="M74.367436,75.0419877 L74.367436,78.1910713 L71.2271719,78.1910713 L71.2271719,75.0419877 L74.367436,75.0419877 Z" fill="#E2EBFF" transform="translate(72.797304, 76.616529) rotate(180.000000) translate(-72.797304, -76.616529) "></path>
                            <path d="M74.367436,68.6962242 L74.367436,71.8453142 L71.2271719,71.8453142 L71.2271719,68.6962242 L74.367436,68.6962242 Z" fill="#E2EBFF" transform="translate(72.797304, 70.270769) rotate(180.000000) translate(-72.797304, -70.270769) "></path>
                            <path d="M74.367436,62.5160165 L74.367436,65.6651002 L71.2271719,65.6651002 L71.2271719,62.5160165 L74.367436,62.5160165 Z" fill="#E2EBFF" transform="translate(72.797304, 64.090558) rotate(180.000000) translate(-72.797304, -64.090558) "></path>
                            <path d="M67.8811367,81.2221085 L67.8811367,84.3711986 L64.740879,84.3711986 L64.740879,81.2221085 L67.8811367,81.2221085 Z" fill="#E2EBFF" transform="translate(66.311008, 82.796654) rotate(180.000000) translate(-66.311008, -82.796654) "></path>
                            <path d="M67.8811367,75.0419877 L67.8811367,78.1910713 L64.740879,78.1910713 L64.740879,75.0419877 L67.8811367,75.0419877 Z" fill="#E2EBFF" transform="translate(66.311008, 76.616529) rotate(180.000000) translate(-66.311008, -76.616529) "></path>
                            <path d="M67.8811367,68.6962242 L67.8811367,71.8453142 L64.740879,71.8453142 L64.740879,68.6962242 L67.8811367,68.6962242 Z" fill="#E2EBFF" transform="translate(66.311008, 70.270769) rotate(180.000000) translate(-66.311008, -70.270769) "></path>
                            <path d="M61.3955318,81.2221085 L61.3955318,84.3711986 L58.2552677,84.3711986 L58.2552677,81.2221085 L61.3955318,81.2221085 Z" fill="#E2EBFF" transform="translate(59.825400, 82.796654) rotate(180.000000) translate(-59.825400, -82.796654) "></path>
                            <path d="M61.3955318,75.0419877 L61.3955318,78.1910713 L58.2552677,78.1910713 L58.2552677,75.0419877 L61.3955318,75.0419877 Z" fill="#E2EBFF" transform="translate(59.825400, 76.616529) rotate(180.000000) translate(-59.825400, -76.616529) "></path>
                            <path d="M61.3955318,68.6962242 L61.3955318,71.8453142 L58.2552677,71.8453142 L58.2552677,68.6962242 L61.3955318,68.6962242 Z" fill="#E2EBFF" transform="translate(59.825400, 70.270769) rotate(180.000000) translate(-59.825400, -70.270769) "></path>
                            <path d="M61.3955318,62.5160165 L61.3955318,65.6651002 L58.2552677,65.6651002 L58.2552677,62.5160165 L61.3955318,62.5160165 Z" fill="#E2EBFF" transform="translate(59.825400, 64.090558) rotate(180.000000) translate(-59.825400, -64.090558) "></path>
                            <path d="M54.9113158,81.2221085 L54.9113158,84.3711986 L51.7710581,84.3711986 L51.7710581,81.2221085 L54.9113158,81.2221085 Z" fill="#E2EBFF" transform="translate(53.341187, 82.796654) rotate(180.000000) translate(-53.341187, -82.796654) "></path>
                            <path d="M54.9113158,75.0419877 L54.9113158,78.1910713 L51.7710581,78.1910713 L51.7710581,75.0419877 L54.9113158,75.0419877 Z" fill="#E2EBFF" transform="translate(53.341187, 76.616529) rotate(180.000000) translate(-53.341187, -76.616529) "></path>
                            <path d="M54.9113158,68.6962242 L54.9113158,71.8453142 L51.7710581,71.8453142 L51.7710581,68.6962242 L54.9113158,68.6962242 Z" fill="#E2EBFF" transform="translate(53.341187, 70.270769) rotate(180.000000) translate(-53.341187, -70.270769) "></path>
                            <path d="M48.4263006,84.3623845 L48.4263006,81.2132944 L45.2860365,81.2132944 L45.2860365,84.3623845 L48.4263006,84.3623845 Z" fill="url(#linearGradient-2)" fill-rule="nonzero"></path>
                            <path d="M48.4250165,75.0419877 L48.4250165,78.1910713 L45.2847523,78.1910713 L45.2847523,75.0419877 L48.4250165,75.0419877 Z" fill="#E2EBFF" transform="translate(46.854884, 76.616529) rotate(180.000000) translate(-46.854884, -76.616529) "></path>
                            <path d="M48.4250165,68.6962242 L48.4250165,71.8453142 L45.2847523,71.8453142 L45.2847523,68.6962242 L48.4250165,68.6962242 Z" fill="#E2EBFF" transform="translate(46.854884, 70.270769) rotate(180.000000) translate(-46.854884, -70.270769) "></path>
                            <path d="M48.4250165,62.5160165 L48.4250165,65.6651002 L45.2847523,65.6651002 L45.2847523,62.5160165 L48.4250165,62.5160165 Z" fill="#E2EBFF" transform="translate(46.854884, 64.090558) rotate(180.000000) translate(-46.854884, -64.090558) "></path>
                            <path d="M41.9394116,81.2221085 L41.9394116,84.3711986 L38.7991475,84.3711986 L38.7991475,81.2221085 L41.9394116,81.2221085 Z" fill="#E2EBFF" transform="translate(40.369280, 82.796654) rotate(180.000000) translate(-40.369280, -82.796654) "></path>
                            <path d="M41.9394116,75.0419877 L41.9394116,78.1910713 L38.7991475,78.1910713 L38.7991475,75.0419877 L41.9394116,75.0419877 Z" fill="#E2EBFF" transform="translate(40.369280, 76.616529) rotate(180.000000) translate(-40.369280, -76.616529) "></path>
                            <path d="M41.9802802,71.9318154 L41.9802802,68.7827254 L38.8400161,68.7827254 L38.8400161,71.9318154 L41.9802802,71.9318154 Z" fill="url(#linearGradient-3)" fill-rule="nonzero"></path>
                            <path d="M41.9394116,62.5160165 L41.9394116,65.6651002 L38.7991475,65.6651002 L38.7991475,62.5160165 L41.9394116,62.5160165 Z" fill="#E2EBFF" transform="translate(40.369280, 64.090558) rotate(180.000000) translate(-40.369280, -64.090558) "></path>
                            <path d="M35.4538067,81.2221085 L35.4538067,84.3711986 L32.313549,84.3711986 L32.313549,81.2221085 L35.4538067,81.2221085 Z" fill="#E2EBFF" transform="translate(33.883678, 82.796654) rotate(180.000000) translate(-33.883678, -82.796654) "></path>
                            <path d="M35.4538067,75.0419877 L35.4538067,78.1910713 L32.313549,78.1910713 L32.313549,75.0419877 L35.4538067,75.0419877 Z" fill="#E2EBFF" transform="translate(33.883678, 76.616529) rotate(180.000000) translate(-33.883678, -76.616529) "></path>
                            <path d="M35.4538067,68.6962242 L35.4538067,71.8453142 L32.313549,71.8453142 L32.313549,68.6962242 L35.4538067,68.6962242 Z" fill="#E2EBFF" transform="translate(33.883678, 70.270769) rotate(180.000000) translate(-33.883678, -70.270769) "></path>
                            <path d="M28.9688963,75.0419877 L28.9688963,78.1910713 L25.8286321,78.1910713 L25.8286321,75.0419877 L28.9688963,75.0419877 Z" fill="#E2EBFF" transform="translate(27.398764, 76.616529) rotate(180.000000) translate(-27.398764, -76.616529) "></path>
                            <path d="M28.9688963,68.6962242 L28.9688963,71.8453142 L25.8286321,71.8453142 L25.8286321,68.6962242 L28.9688963,68.6962242 Z" fill="#E2EBFF" transform="translate(27.398764, 70.270769) rotate(180.000000) translate(-27.398764, -70.270769) "></path>
                            <path d="M28.9688963,62.5160165 L28.9688963,65.6651002 L25.8286321,65.6651002 L25.8286321,62.5160165 L28.9688963,62.5160165 Z" fill="#E2EBFF" transform="translate(27.398764, 64.090558) rotate(180.000000) translate(-27.398764, -64.090558) "></path>
                            <path d="M22.6478795,81.2221085 L22.6478795,84.3711986 L19.5076154,84.3711986 L19.5076154,81.2221085 L22.6478795,81.2221085 Z" fill="#E2EBFF" transform="translate(21.077747, 82.796654) rotate(180.000000) translate(-21.077747, -82.796654) "></path>
                            <path d="M22.6478795,68.6962242 L22.6478795,71.8453142 L19.5076154,71.8453142 L19.5076154,68.6962242 L22.6478795,68.6962242 Z" fill="#E2EBFF" transform="translate(21.077747, 70.270769) rotate(180.000000) translate(-21.077747, -70.270769) "></path>
                            <path d="M22.6478795,62.5160165 L22.6478795,65.6651002 L19.5076154,65.6651002 L19.5076154,62.5160165 L22.6478795,62.5160165 Z" fill="#EA67A4" transform="translate(21.077747, 64.090558) rotate(180.000000) translate(-21.077747, -64.090558) "></path>
                            <path d="M16.1622746,81.2221085 L16.1622746,84.3711986 L13.0220139,84.3711986 L13.0220139,81.2221085 L16.1622746,81.2221085 Z" fill="#E2EBFF" transform="translate(14.592144, 82.796654) rotate(180.000000) translate(-14.592144, -82.796654) "></path>
                            <path d="M16.1622746,62.5160165 L16.1622746,65.6651002 L13.0220139,65.6651002 L13.0220139,62.5160165 L16.1622746,62.5160165 Z" fill="#E2EBFF" transform="translate(14.592144, 64.090558) rotate(180.000000) translate(-14.592144, -64.090558) "></path>
                            <path d="M9.67805865,81.2221085 L9.67805865,84.3711986 L6.53779791,84.3711986 L6.53779791,81.2221085 L9.67805865,81.2221085 Z" fill="#E2EBFF" transform="translate(8.107928, 82.796654) rotate(180.000000) translate(-8.107928, -82.796654) "></path>
                            <path d="M9.67805865,75.0419877 L9.67805865,78.1910713 L6.53779791,78.1910713 L6.53779791,75.0419877 L9.67805865,75.0419877 Z" fill="#E2EBFF" transform="translate(8.107928, 76.616529) rotate(180.000000) translate(-8.107928, -76.616529) "></path>
                            <path d="M9.67805865,68.6962242 L9.67805865,71.8453142 L6.53779791,71.8453142 L6.53779791,68.6962242 L9.67805865,68.6962242 Z" fill="#E2EBFF" transform="translate(8.107928, 70.270769) rotate(180.000000) translate(-8.107928, -70.270769) "></path>
                            <path d="M3.1917593,81.2221085 L3.1917593,84.3711986 L0.0514985512,84.3711986 L0.0514985512,81.2221085 L3.1917593,81.2221085 Z" fill="#E2EBFF" transform="translate(1.621629, 82.796654) rotate(180.000000) translate(-1.621629, -82.796654) "></path>
                            <path d="M3.1917593,68.6962242 L3.1917593,71.8453142 L0.0514985512,71.8453142 L0.0514985512,68.6962242 L3.1917593,68.6962242 Z" fill="#E2EBFF" transform="translate(1.621629, 70.270769) rotate(180.000000) translate(-1.621629, -70.270769) "></path>
                            <path d="M3.1917593,62.5160165 L3.1917593,65.6651002 L0.0514985512,65.6651002 L0.0514985512,62.5160165 L3.1917593,62.5160165 Z" fill="#E2EBFF" transform="translate(1.621629, 64.090558) rotate(180.000000) translate(-1.621629, -64.090558) "></path>
                        </g>
                        <path d="M49.9137133,22.3751299 C46.0799558,22.3751299 42.9720805,19.2585232 42.9720805,15.4139913 C42.9720805,11.5694593 46.0799558,8.45284948 49.9137133,8.45284948 C53.7474707,8.45284948 56.8553461,11.5694593 56.8553461,15.4139913 C56.8553461,19.2585232 53.7474707,22.3751299 49.9137133,22.3751299 Z" id="Vector" fill="#C7D9FF"></path>
                        <path d="M55.3678511,11.1047372 C56.3595127,12.2649273 56.8553461,13.756601 56.8553461,15.4140155 C56.8553461,19.2260686 53.7150828,22.3751543 49.9137133,22.3751543 C46.1123437,22.3751543 42.9720805,19.2260686 42.9720805,15.4140155 C42.9720805,12.9278938 44.2942959,10.7732544 46.2776193,9.44732279" id="Vector" stroke="#182052" stroke-linecap="round" stroke-linejoin="round" stroke-dasharray="0,0" fill-rule="nonzero"></path>
                        <g transform="translate(15.033770, 32.982554)" fill-rule="nonzero" id="User-male-2">
                            <g>
                                <path d="M62.8109694,57.1807996 C55.3735072,64.1419401 45.4568894,68.2854778 34.3833348,68.2854778 C25.6236568,68.2854778 17.3598075,65.6336148 10.5834532,60.8271127 C8.60012989,59.5011811 6.78208491,57.8437679 5.12931553,56.1863534 C5.95570022,55.0261633 7.6084696,54.197456 10.9140084,52.8715244 L12.2362226,52.3743014 C14.7153767,51.3798526 18.186191,50.0539211 22.6486684,48.2307652 C23.3097762,47.8992823 23.9708839,47.5677943 24.3014378,46.9048285 C24.4667148,46.5733456 24.7972737,46.2418653 24.7972737,45.9103824 C25.1278276,45.413158 25.1278225,44.7501948 25.1278225,44.087229 L25.1278225,35.6344113 C24.9625456,35.4686699 24.9625506,35.3029297 24.7972737,35.1371882 C24.1361659,33.9769981 23.6403301,32.8168067 23.4750531,31.4908751 L22.8139492,31.159391 C20.665349,31.6566153 20.8306259,29.3362364 20.3347951,24.8612172 C20.1695181,23.0380612 20.3347951,22.7065784 21.1611798,22.3750955 L21.8222837,21.3806493 C20.1695144,17.7343374 19.5084104,14.7509876 19.5084104,12.0991244 C19.5084104,7.95558824 21.3264542,5.1379868 23.8056083,3.8120552 C23.0343159,2.0441464 22.5935778,0.773461329 22.483394,0 C28.3231775,0.994448695 32.2347309,1.27068444 34.2180541,0.82870724 C38.0194236,0 43.9693948,0.994450111 46.1179949,6.13243484 C46.6138257,6.29817629 46.9443783,6.46391647 47.4402091,6.62965792 C50.2499172,8.12133091 51.2415787,10.1102309 51.5721326,12.2648697 C52.0679634,16.2426646 49.9193645,20.5519395 49.4235337,22.3750955 C49.4235362,22.4855923 49.4786298,22.5408407 49.5888144,22.5408407 C50.2499221,22.8723236 50.4151978,23.369548 50.0846439,25.0269624 C49.5888131,29.3362399 49.75409,31.8223606 47.6054899,31.3251362 L45.6221653,34.6399652 C45.6221653,34.9714481 45.4568909,35.1371895 45.4568909,35.4686724 C45.4568909,36.1316382 45.4568909,37.2918274 45.4568909,44.2529679 C45.4568909,44.4187093 45.4568909,44.7501948 45.4568909,44.9159362 C45.4568909,45.578902 45.787441,46.0761263 46.1179949,46.5733507 C46.2832718,46.7390921 46.4485475,46.9048323 46.6138245,47.0705738 C47.1096553,47.5677981 47.6054861,47.8992823 48.2665938,48.2307652 C53.224902,50.3854039 56.8609996,51.7113305 59.5054307,52.7057792 C61.9845847,53.8659693 63.6373516,54.6946804 64.6290132,55.3576462 C63.9679055,56.020612 63.4720772,56.6835752 62.8109694,57.1807996 Z" id="Vector" fill="#E2EBFF"></path>
                                <path d="M34.3835807,68.4512788 C25.623903,68.4512788 7.27816419,75.4124218 0.501810143,70.7716615 C-0.82040533,69.7772128 0.832363987,65.9651623 1.3281948,64.8049722 C2.15457946,62.4845921 2.98096215,60.1642144 4.13790065,58.0095757 C6.61705463,53.2030738 18.0211607,50.8826887 22.6489147,48.3965672 C23.4752994,47.8993428 23.9711302,47.5678612 24.301684,47.0706369 C29.7558227,54.694743 40.9946567,54.6947406 46.4487954,47.2363758 C46.9446262,47.7336001 47.440457,48.0650843 48.1015647,48.3965672 C48.2668417,48.3965672 48.4321173,48.5623061 48.5973943,48.5623061 C63.9681492,54.8604807 64.9598174,54.0317786 66.9431406,59.832729 C67.2736945,60.8271777 69.2570177,67.1253448 68.5959099,67.7883106 C61.158448,74.7494507 45.4571348,68.4512788 34.3835807,68.4512788 Z" id="Vector" fill="#FFFFFF"></path>
                                <path d="M34.3835807,68.4512568 C25.623903,68.4512568 7.27816419,75.4124003 0.501810143,70.7716397 C-0.82040533,69.7771909 0.832363987,65.96514 1.3281948,64.8049499 C2.15457946,62.4845696 2.98096215,60.1641916 4.13790065,58.0095528 C6.61705463,53.2030505 18.0211607,50.8826652 22.6489147,48.3965434 C22.6489172,48.3965434 22.7040108,48.3965434 22.8141954,48.3965434 C29.0947188,57.1808408 42.1515965,57.1808376 48.4321198,48.5622824 L48.5973943,48.5622824 C63.9681492,54.8604575 64.9598174,54.0317554 66.9431406,59.8327063 C67.2736945,60.827155 69.2570177,67.1253226 68.5959099,67.7882885 C61.158448,74.7494292 45.4571348,68.4512568 34.3835807,68.4512568 Z" id="Vector" fill="#84A2FF"></path>
                                <g id="Group" transform="translate(19.708211, 0.000000)" fill="#182052">
                                    <path d="M29.0543204,19.0602658 C29.0543204,18.8945243 28.8890397,18.7287842 28.8890397,18.5630427 C27.2362705,15.2482139 23.4349034,13.7565409 19.9640882,13.5907995 C10.8738577,13.0935751 10.047468,14.9167323 7.07248354,12.2648692 C7.89886813,13.5908008 8.06415011,15.7454407 6.74193474,18.3973038 C5.75027319,20.2204597 3.93222626,21.0491631 2.27945707,21.5463874 C-1.8524659,12.0991256 0.130858387,6.13243579 4.26278136,3.97779713 C3.38130444,2.09939407 2.88547285,0.773461694 2.77528657,0 C8.61506914,0.994448656 12.5266219,1.27068439 14.5099449,0.828707208 C18.3113139,0 24.2612844,0.994450072 26.4098843,6.1324346 C30.0459766,7.62410754 31.5334691,9.9444865 31.8640229,12.4306081 C32.5251306,16.4084029 30.211255,20.7176802 29.7154242,22.3750946 C29.8807012,21.3806459 29.3848742,20.0547145 29.0543204,19.0602658 Z" id="Vector"></path>
                                </g>
                                <path d="M24.96253,34.8056976 C25.4583608,35.6344048 25.9541891,36.2973719 26.7805738,36.7945962 L33.3916514,41.4353555 C34.8791439,42.761287 37.1930224,42.761287 38.6805148,41.4353555 L40.9943945,39.2807179" id="Vector" stroke="#182052" stroke-linecap="round" stroke-linejoin="round" stroke-dasharray="0,0"></path>
                                <path d="M68.5957336,67.7883063 C69.2568413,67.1253405 67.4387926,60.8271706 67.1082387,59.9984633 C65.1249156,54.0317714 65.2901935,55.5234477 48.26667,48.3965652 C46.7791777,47.8993408 45.7875186,46.4076678 45.6222417,45.0817363 C45.4569648,44.4187705 45.4569623,36.4631797 45.7875161,34.8057653 L47.7708405,31.4909363 C49.9194404,32.1539021 49.7541635,29.5020401 50.2499943,25.1927626 C50.4152713,23.5353481 50.2499956,23.0381238 49.7541648,22.7066409 C49.7541665,22.5961483 49.699075,22.540902 49.5888904,22.540902 C50.2499981,19.557556 55.8694139,10.1102883 46.2833519,6.29823507 C44.134752,1.16025037 38.1847813,0.33154486 34.3834121,0.994510659 C32.4000891,1.43648786 28.4885339,1.16025211 22.6487467,0.165803423 C22.6487484,0.939263563 23.14458,2.32044229 24.1362416,4.3093396 C18.1862724,7.29268557 19.1779326,15.2482758 22.1529172,21.8779336 L21.4918133,22.8723798 C20.6654287,23.2038627 20.3348748,23.5353455 20.6654287,25.3585015 C21.1612595,29.8335207 21.1612594,32.1539059 23.1445825,31.6566816 L23.8056864,31.9881594 C23.9709634,33.8113154 24.6320711,34.805764 25.4584557,36.1316956 C25.4584557,43.9215433 25.6237314,45.2474765 25.1279006,46.4076666 C23.8056852,49.556754 12.5668561,52.2086152 7.44327157,55.0262199" id="Vector" stroke="#182052" stroke-linecap="round" stroke-linejoin="round" stroke-dasharray="0,0"></path>
                            </g>
                        </g>
                        <path d="M99.8272678,134.582036 C99.8272678,138.228348 96.852283,141.211694 93.2161902,141.211694 L6.61107759,141.211694 C2.97498484,141.211694 0,138.228348 0,134.582036 L0,93.9753836 L99.8272678,93.9753836 L99.8272678,134.582036 Z" id="Vector" fill="#FFFFFF" fill-rule="nonzero"></path>
                        <path d="M37.0218313,109.555095 C35.6996158,109.555095 34.7079517,108.560644 34.7079517,107.234712 C34.7079517,105.908781 35.6996158,104.91433 37.0218313,104.91433 L62.8050296,104.91433 C64.1272451,104.91433 65.1189092,105.908781 65.1189092,107.234712 C65.1189092,108.560644 64.1272451,109.555095 62.8050296,109.555095 L37.0218313,109.555095 Z" id="Vector" fill="#EA67A4" fill-rule="nonzero"></path>
                        <path d="M26.6097235,119.831075 C25.2875081,119.831075 24.295844,118.836637 24.295844,117.510705 C24.295844,116.184773 25.2875081,115.190322 26.6097235,115.190322 L73.3830936,115.190322 C74.705309,115.190322 75.6969668,116.184773 75.6969668,117.510705 C75.6969668,118.836637 74.5400321,119.831075 73.3830936,119.831075 L26.6097235,119.831075 Z" id="Vector" fill="#C7D9FF" fill-rule="nonzero"></path>
                        <path d="M40.8233588,130.272797 C39.9969741,130.272797 39.3358638,129.609829 39.3358638,128.781121 L39.3358638,127.123707 C39.3358638,126.295 39.9969741,125.632031 40.8233588,125.632031 L59.1690966,125.632031 C59.9954813,125.632031 60.6565916,126.295 60.6565916,127.123707 L60.6565916,128.781121 C60.6565916,129.609829 59.9954813,130.272797 59.1690966,130.272797 L40.8233588,130.272797 Z" id="Vector" fill="#C7D9FF" fill-rule="nonzero"></path>
                        <g transform="translate(0.000000, 21.380655)" id="Vector" stroke="#182052" stroke-dasharray="0,0" stroke-linecap="round" stroke-linejoin="round">
                            <line x1="0" y1="0.747998492" x2="0" y2="0"></line>
                        </g>
                        <g fill-rule="nonzero" id="Vector" stroke="#182052" stroke-dasharray="0,0" stroke-linecap="round" stroke-linejoin="round">
                            <path d="M50.4094666,0 L93.2161902,0 C96.852283,0 99.8272678,2.9833459 99.8272678,6.62965773 L99.8272678,134.582047 C99.8272678,138.228359 96.852283,141.211705 93.2161902,141.211705 L6.61107759,141.211705 C2.97498484,141.211705 0,138.228359 0,134.582047 L0,28.0103033"></path>
                        </g>
                        <g transform="translate(0.000000, 0.165717)" fill-rule="nonzero" id="Vector" stroke="#182052" stroke-dasharray="0,0" stroke-linecap="round" stroke-linejoin="round">
                            <path d="M0,12.4306084 L0,6.62965783 C0,2.98334594 2.97498468,0 6.61107724,0 L40.162293,0"></path>
                        </g>
                        <g id="ç¼–ç»„" transform="translate(78.437031, 98.420279)">
                            <path d="M41.4955856,26.3788185 C41.1457066,27.8912065 40.6796006,29.2873676 40.0972677,30.6834089 C39.9798425,31.0323293 39.8636156,31.2650228 39.6299635,31.6140631 C37.6493128,35.4532665 34.5017196,38.5943893 30.6550873,40.4559374 C30.1888615,40.6883913 29.7225159,40.9208451 29.3728765,41.0370721 C25.6428306,42.5504187 21.4464391,43.1315533 17.2501675,42.2005396 C6.17661621,39.8736045 -0.933836194,29.0546741 1.39741253,18.0025709 C3.72878108,6.95046768 14.5691595,-0.146205232 25.6428306,2.18061009 C29.6060493,2.99491758 33.1029224,4.97269263 36.0169833,7.76477517 C40.9132527,12.5346328 43.0113286,19.6313057 41.4955856,26.3788185 Z" id="è·¯å¾„" fill="#5365EA" fill-rule="nonzero"></path>
                            <path d="M18.4160315,0.202954862 C20.7474,-0.146085411 23.3118216,-0.0297386532 25.7596567,0.435528555 C29.8393419,1.24995586 33.5693878,3.34407767 36.4835686,6.25250696 C41.6118125,11.3714048 43.8273136,18.5843047 42.3115706,25.6809776 C41.9616915,27.3097124 41.4955856,28.8221004 40.7970257,30.2181417 C40.6796006,30.5671819 40.5633737,30.7997556 40.3297216,31.1487959 C38.2316456,35.2206928 34.968185,38.3618156 31.0050861,40.4559374 C30.5387405,40.6883913 30.0725148,40.9208451 29.606289,41.153299 C25.7596567,42.7828725 21.4467986,43.2477803 17.0173541,42.3167666 C5.47745727,39.8736045 -1.98263451,28.5894069 0.465200613,17.0719167 C1.51423858,11.9530188 4.3118329,7.76489499 8.04187879,4.74011894" id="è·¯å¾„" stroke="#0F1358" stroke-width="1.5" stroke-linecap="round" stroke-linejoin="round"></path>
                            <g id="ic/update" transform="translate(12.190081, 14.549085)">
                                <g id="ic_cancel_24px" transform="translate(0.000000, 0.000000)">
                                    <g id="ðŸŽ¨-Color" transform="translate(0.000000, -0.000000)">
                                        <mask id="mask-5" fill="white">
                                            <use xlink:href="#path-4"></use>
                                        </mask>
                                        <use id="è’™ç‰ˆ" fill="#000000" fill-rule="nonzero" xlink:href="#path-4"></use>
                                        <g mask="url(#mask-5)" fill="#FFFFFF" id="å½¢çŠ¶">
                                            <g transform="translate(-3.637271, -5.990800)">
                                                <rect x="0" y="0" width="25.6748554" height="25.6748554"></rect>
                                            </g>
                                        </g>
                                    </g>
                                </g>
                            </g>
                        </g>
                    </g>
                </g>
            </g>
        </g>
    </g>
</svg>