<?xml version="1.0" encoding="UTF-8"?>
<svg width="300px" height="38px" viewBox="0 0 300 38" version="1.1" xmlns="http://www.w3.org/2000/svg" xmlns:xlink="http://www.w3.org/1999/xlink">
    <title>logo</title>
    <defs>
        <path d="M3.29964829,6.11303261 L3.29964829,17.8181007 C3.29964829,18.0668194 3.20084519,18.3053512 3.02497456,18.4812218 C2.84910392,18.6570924 2.61057215,18.7558955 2.36185351,18.7558955 L0.937794776,18.7558955 C0.427473021,18.7379731 0.0179223949,18.3284225 0,17.8181007 L0,0.937794776 C0.0179223949,0.427473021 0.427473021,0.0179223949 0.937794776,0 L3.29964829,0 L12.677596,12.677596 L12.677596,0.937794776 C12.677596,0.689076137 12.7763991,0.450544367 12.9522698,0.274673731 C13.1281404,0.0988030945 13.3666722,0 13.6153908,0 L15.0394496,0 C15.5573793,0 15.9772443,0.419865023 15.9772443,0.937794776 L15.9772443,17.8181007 C15.9772443,18.0668194 15.8784412,18.3053512 15.7025706,18.4812218 C15.5267,18.6570924 15.2881682,18.7558955 15.0394496,18.7558955 L12.677596,18.7558955 L3.29964829,6.11303261 Z" id="path-1"></path>
        <path d="M14.5531856,1.96492667e-06 C14.6792072,-0.000369491519 14.7996506,0.05193996 14.8854025,0.144288145 C14.9711544,0.23663633 15.014411,0.360619237 15.0047164,0.486267909 L15.0047164,3.29965224 L15.0047164,3.29965224 L4.41110876,15.4909843 L0,15.4909843 L10.5936077,3.29965224 L0.937794776,3.29965224 C0.427473021,3.28172984 0.0179223949,2.87217922 0,2.36185746 L0,0.937798727 C0,0.419868974 0.419865023,1.96492667e-06 0.937794776,1.96492667e-06 L14.5531856,1.96492667e-06 Z M14.0669216,15.4909843 C14.5848514,15.4909843 15.0047164,15.9108493 15.0047164,16.4287791 L15.0047164,17.8181047 C15.0047164,18.3360344 14.5848514,18.7558995 14.0669216,18.7558995 L0.937794776,18.7558995 C0.689076137,18.7558995 0.450544367,18.6570964 0.274673731,18.4812257 C0.0988030945,18.3053551 0,18.0668233 0,17.8181047 L0,15.4909843 L14.0669216,15.4909843 Z" id="path-3"></path>
        <path d="M9.69054602,10.5588745 L15.6299129,18.7558955 L11.6008687,18.7558955 L8.7180181,14.7963176 L7.43289193,13.0596606 L9.69054602,10.5588745 Z M3.29964829,12.7470623 L3.29964829,17.8181007 C3.29964829,18.0668194 3.20084519,18.3053512 3.02497456,18.4812218 C2.84910392,18.6570924 2.61057215,18.7558955 2.36185351,18.7558955 L0,18.7558955 L0,0.937794776 C0,0.419865023 0.419865023,0 0.937794776,0 L2.36185351,0 C2.87978326,0 3.29964829,0.419865023 3.29964829,0.937794776 L3.29964829,7.84968961 L10.0726106,0.312598259 C10.2495108,0.114812092 10.5019216,0.00122721641 10.7672734,0 L12.677596,0 C13.1955258,0 13.6153908,0.419865023 13.6153908,0.937794776 C13.6081595,1.16785166 13.5223546,1.3884928 13.3722588,1.56299129 L7.71075705,7.84968961 L5.45310296,10.3504757 L3.29964829,12.7470623 Z" id="path-5"></path>
        <path d="M26.0274454,8.8817842e-16 L26.3400436,8.8817842e-16 C26.7961584,0.163088459 27.0627197,0.636975249 26.9652402,1.11146048 L26.9652402,1.18092675 L22.9014628,13.6848571 L21.2690052,8.61381868 L23.8739907,0.625196517 C23.9895046,0.288735313 24.2854471,0.0466005204 24.6381198,8.8817842e-16 L26.0274454,8.8817842e-16 Z M2.26997773,0 C2.67072897,0.0117483633 3.01968627,0.27695591 3.13830622,0.659929657 L7.37574929,13.7195902 L11.6479255,0.659929657 C11.7489696,0.293866475 12.0682319,0.0301280364 12.4467877,0 L14.4613098,0 C14.8620611,0.0117483633 15.2110184,0.27695591 15.3296383,0.659929657 L21.2342721,18.7558955 L18.6292866,18.7558955 C18.2249493,18.7640173 17.8609497,18.5120176 17.726225,18.130699 L13.4887819,5.03630528 L9.25133884,18.130699 C9.11797631,18.4829309 8.79322763,18.7264924 8.41774348,18.7558955 L5.74329171,18.7558955 L0.0470567781,1.21565989 C-0.113516941,0.726682915 0.14999434,0.199660353 0.637520156,0.0347331399 L2.26997773,0.0347331399 L2.26997773,0 Z" id="path-7"></path>
        <path d="M10.0734377,3.68207405 C7.29196305,3.68207405 5.03713238,5.93690473 5.03713238,8.71837933 C5.03713238,11.4998539 7.29196305,13.7546846 10.0734377,13.7546846 C12.8549123,13.7546846 15.1097429,11.4998539 15.1097429,8.71837933 C15.1097429,7.38266812 14.5791337,6.10166416 13.6346433,5.15717371 C12.6901528,4.21268326 11.4091489,3.68207405 10.0734377,3.68207405 Z M14.7624115,0.000361224141 C15.0204293,-0.00105759188 15.2734853,0.0712441353 15.4918075,0.208760063 C19.2650116,2.61653045 20.9967088,7.22538977 19.7425899,11.5220877 C18.488471,15.8187857 14.5494211,18.772469 10.0734377,18.772469 C5.59745423,18.772469 1.65840431,15.8187857 0.404285397,11.5220877 C-0.849833517,7.22538977 0.88186372,2.61653045 4.65506784,0.208760063 C4.88416187,0.066623899 5.14966216,-0.00578526936 5.41919691,0.000361224141 C5.8038289,0.00104111849 6.17003685,0.165203304 6.42645797,0.451892042 C7.38972305,1.4271996 8.70263617,1.97737272 10.0734377,1.9801502 C11.4543,1.99267784 12.7771702,1.42573349 13.7204173,0.417158902 C14.0041735,0.154021478 14.3754588,0.00550736262 14.7624115,0.000361224141 L14.7624115,0.000361224141 Z" id="path-9"></path>
        <path d="M6.21723855,1.21699922 L5.62677517,1.21699922 L5.45310947,2.36319284 L6.07830599,2.36319284 L6.21723855,1.21699922 Z M22.229216,0.557069565 L26.4666591,0.557069565 C26.5923078,0.547375003 26.7162907,0.590631628 26.8086388,0.676383514 C26.900987,0.762135399 26.9532965,0.882578823 26.952925,1.00860038 C26.9447908,1.06712504 26.9331927,1.12511554 26.9181899,1.18226608 L26.9181899,1.18226608 C26.8273154,1.3692024 26.6397184,1.48980044 26.4319259,1.49486434 L21.8471515,1.49486434 L21.221955,3.12732191 C21.1430386,3.30882806 20.9680925,3.42994459 20.7704241,3.43992017 L19.8326294,3.43992017 C19.5832558,3.43992017 19.3810986,3.23776294 19.3810986,2.98838935 C19.3756927,2.92836291 19.3877546,2.8680535 19.4158317,2.81472366 L20.3536265,0.348670726 C20.4161894,0.154397538 20.6012954,0.0262471793 20.8051573,0.0360724675 L21.8818846,0.0360724675 C22.0737105,0.0360724675 22.229216,0.191578031 22.229216,0.383403866 L22.229216,0.557069565 Z M32.0934277,0.487577364 L31.3987649,1.32119864 C31.1119759,1.62797653 30.8451417,1.9528182 30.5999027,2.29372656 L29.5579085,3.50938645 L28.2727824,5.03764461 L28.8285126,0.904400964 C28.8633034,0.66327246 29.0711639,0.485106344 29.3147766,0.487577364 L32.0934277,0.487577364 Z M48.4527366,1.4601312 L50.9187895,3.50938645 C51.0288016,3.61828579 51.0803921,3.77305744 51.0577221,3.92618413 L50.9882558,4.65558007 C50.9361741,4.91575601 50.6968774,5.09522855 50.4325256,5.07237775 C50.3630593,5.03764461 50.293593,5.03764461 50.2588599,4.96817833 L48.0359389,3.54411959 C47.8182896,3.39499519 47.6883056,3.14802555 47.6886075,2.88418994 L47.6886075,2.88418994 L47.6886075,1.84219574 C47.678913,1.71654707 47.7221696,1.59256416 47.8079215,1.50021598 C47.8936734,1.40786779 48.0141168,1.35555834 48.1401383,1.35593178 C48.2542269,1.34625367 48.3672727,1.3839356 48.4527366,1.4601312 L48.4527366,1.4601312 Z M3.92485132,3.09258877 L3.2996548,3.09258877 L2.81339085,6.91323416 L3.43858736,6.91323416 L3.92485132,3.09258877 Z M5.83517401,3.09258877 L5.27944377,3.09258877 L4.6889804,6.91323416 L5.27944377,6.91323416 L5.83517401,3.09258877 Z M8.12756124,3.09258877 L7.46763158,3.09258877 L6.98136763,6.91323416 L7.64129728,6.91323416 L8.12756124,3.09258877 Z M10.0726171,1.1127998 L10.0378839,1.1127998 C9.9633183,1.29333629 9.78112127,1.40545753 9.58635312,1.39066492 L7.43289845,1.39066492 L7.29396589,2.36319284 L9.34322114,2.36319284 C9.47843613,2.36284743 9.60768918,2.41881848 9.69994913,2.51766844 C9.79220909,2.61651839 9.83914378,2.74931992 9.82948509,2.88418994 L9.82948509,2.95365621 L9.20428858,7.64263009 C9.16949774,7.8837586 8.96163727,8.06192471 8.71802462,8.05945369 L1.00726757,8.05945369 C0.738711405,8.05945369 0.521003615,7.84171998 0.521003615,7.57316381 L0.521003615,7.50369754 L1.14620013,2.8494568 C1.17908589,2.60183809 1.38309114,2.41240464 1.63246409,2.39792598 L3.78591876,2.39792598 L3.92485132,1.42539806 L1.70193037,1.42539806 C1.45255678,1.42539806 1.25039955,1.22324083 1.25039955,0.973867243 C1.24243664,0.891213373 1.25434521,0.807853364 1.28513269,0.730735264 L1.31986583,0.730735264 C1.38997482,0.562473687 1.55438013,0.452870146 1.73666351,0.452870146 L9.6558194,0.452870146 C9.90519298,0.452870146 10.1073502,0.655027379 10.1073502,0.904400964 C10.1073502,0.973867243 10.1073502,1.07806666 10.0726171,1.1127998 L10.0726171,1.1127998 Z M48.4527366,5.59337484 L50.5019919,7.22583242 C50.6424283,7.33001798 50.710084,7.50592272 50.6756576,7.67736323 L50.5714581,8.47622545 C50.5632455,8.602915 50.5020777,8.72029403 50.4029421,8.79960248 C50.3038066,8.87891093 50.1758634,8.91282066 50.050461,8.89302313 L49.8420622,8.82355685 L48.0706721,7.71209637 C47.8293144,7.581507 47.6816792,7.32650062 47.6886075,7.05216672 L47.6886075,7.05216672 L47.6886075,6.01017252 C47.6886075,5.76079894 47.8907648,5.5586417 48.1401383,5.5586417 L48.4527366,5.59337484 Z M34.0037504,3.47465331 L30.0441725,8.40675917 L29.418976,13.3735982 L32.7533574,13.3735982 L34.0037504,3.47465331 Z M24.9731341,8.05942777 C25.2014514,8.06641408 25.3985918,8.22131006 25.459398,8.44149231 L26.6403248,13.581997 C26.6855082,13.8291546 26.534957,14.0700366 26.2929934,14.1377272 L25.1467998,14.1377272 C24.9093392,14.1347722 24.6999965,13.9812542 24.6258027,13.7556627 L23.4796091,8.61515801 C23.4485363,8.49518953 23.4681375,8.36772298 23.5338188,8.26263291 C23.5995001,8.15754284 23.7054874,8.08406763 23.8269405,8.05942777 L24.9731341,8.05942777 L24.9731341,8.05942777 Z M24.8689346,3.37045389 L23.5838085,6.46170334 L26.4319259,6.46170334 C26.5575746,6.45200878 26.6815575,6.4952654 26.7739057,6.58101729 C26.8662539,6.66676917 26.9185633,6.7872126 26.9181919,6.91323416 C26.9157994,6.97741096 26.8912524,7.03877838 26.8487236,7.08689986 L26.8487236,7.15636614 C26.774158,7.33690262 26.591961,7.44902387 26.3971928,7.43423126 L23.1670108,7.43423126 L20.5272922,13.825129 C20.4556594,14.0124821 20.2763386,14.1366272 20.0757614,14.1377272 L19.1032334,14.1377272 C18.9775848,14.1474218 18.8536019,14.1041652 18.7612537,14.0184133 C18.6689055,13.9326614 18.616596,13.812218 18.6169675,13.6861964 C18.6169675,13.6167301 18.6517026,13.5472639 18.6517026,13.4777976 L21.1872218,7.43423126 L19.8673625,7.43423126 C19.7417138,7.44392582 19.6177309,7.40066919 19.5253827,7.31491731 C19.4330346,7.22916542 19.3807251,7.108722 19.3810986,6.98270044 C19.3760329,6.91146489 19.3879364,6.84004365 19.4158317,6.7743016 L19.4505648,6.7743016 C19.5251305,6.59376511 19.7073275,6.48164387 19.9020957,6.49643648 L21.6040195,6.49643648 L23.0280782,3.05785563 C23.1026439,2.87731915 23.2848409,2.7651979 23.4796091,2.77999052 L24.452137,2.77999052 C24.7015106,2.77999052 24.9036678,2.98214775 24.9036678,3.23152133 C24.9063008,3.28026899 24.894198,3.32868034 24.8689346,3.37045389 L24.8689346,3.37045389 Z M54.4615718,0.591802705 L53.1069773,10.108683 L53.8016401,10.108683 C53.9276617,10.1083096 54.0481051,10.160619 54.133857,10.2529672 C54.2196089,10.3453154 54.2628655,10.4692983 54.253171,10.594947 C54.2638388,10.6551435 54.2514375,10.7171496 54.2184378,10.7686127 L54.2184378,10.838079 C54.1246577,11.0011533 53.9547455,11.1057147 53.766907,11.1159441 L52.9680448,11.1159441 L52.5859803,13.7209296 C52.5511894,13.9620581 52.3433289,14.1402242 52.0997163,14.1377532 L51.0577221,14.1377532 C50.9379687,14.1377532 50.82312,14.0901554 50.7384416,14.0054769 C50.6537631,13.9207985 50.6061913,13.8059498 50.6061913,13.6861964 L50.6061913,13.6167301 L50.9535227,11.1159441 L46.5076808,11.1159441 C46.2583072,11.1159441 46.05615,10.9137868 46.05615,10.6644133 C46.0510843,10.5931777 46.0629878,10.5217565 46.0908831,10.4560144 L46.1256162,10.4560144 C46.197249,10.2686613 46.3765698,10.1445162 46.5771471,10.1434162 L51.0924552,10.1434162 L52.4817808,0.522336425 C52.5165717,0.281207922 52.7244321,0.103041805 52.9680448,0.105538747 L53.9753058,0.105538747 C54.1009545,0.0958441851 54.2249374,0.13910081 54.3172856,0.224852696 C54.4096338,0.310604581 54.4619432,0.431048005 54.4615718,0.557069565 L54.4615718,0.591802705 Z M69.9872833,0.973867243 L69.917817,1.4601312 L73.147999,1.4601312 C73.3973726,1.4601312 73.5995299,1.66228843 73.5995299,1.91166202 C73.6045955,1.98289757 73.592692,2.0543188 73.5647967,2.12006086 L73.5647967,2.18952714 C73.47871,2.3386495 73.3201793,2.43112572 73.147999,2.43265912 L69.8483508,2.43265912 L69.6052188,4.16931611 L72.7659345,4.16931611 C73.040027,4.187629 73.2528095,4.4156103 73.2521985,4.69031321 L73.2521985,5.17657717 L69.1884211,9.62241907 L72.5922688,13.338865 C72.7691605,13.536636 72.7691605,13.8357569 72.5922688,14.0335278 C72.4902871,14.1038327 72.368778,14.1402854 72.2449374,14.1378532 L71.3418758,14.1378532 C71.2159896,14.1223982 71.0962751,14.0745124 70.9945444,13.9987947 L68.0769606,10.838079 L65.2288432,13.9987947 C65.1299594,14.0794697 65.0087552,14.1279514 64.8815118,14.1378532 L63.943717,14.1378532 C63.6943434,14.1378532 63.4921862,13.93557 63.4921862,13.6861964 C63.4825081,13.5721079 63.52019,13.4590621 63.5963856,13.3735982 L67.0002333,9.62241907 L64.5341804,6.9479673 C64.4470873,6.85785253 64.4013644,6.73559465 64.4079513,6.6104448 C64.4145381,6.48529495 64.4728421,6.36851218 64.5689135,6.28803764 C64.6543774,6.21184204 64.7674232,6.17416011 64.8815118,6.18383822 L65.7845734,6.18383822 C65.9149918,6.17775566 66.0416588,6.22842245 66.1319048,6.32277078 L68.0769606,8.44149231 L71.0292775,5.17657717 L64.4994472,5.17657717 C64.2500736,5.17657717 64.0479164,4.97441993 64.0479164,4.72504635 C64.0399535,4.64239248 64.0518621,4.55903247 64.0826495,4.48191437 L64.1173827,4.48191437 C64.1874917,4.31365279 64.351897,4.20404925 64.5341804,4.20404925 L67.6601629,4.20404925 L67.8685618,2.46739226 L64.5341804,2.46739226 C64.4085317,2.47708682 64.2845488,2.43383019 64.1922006,2.34807831 C64.0998524,2.26232642 64.047543,2.141883 64.0479164,2.01586144 C64.0492262,1.93010964 64.073192,1.84622957 64.1173827,1.77272946 L64.1521158,1.77272946 C64.2252418,1.6113274 64.3924238,1.51380462 64.5689135,1.52959748 L67.9727612,1.52959748 L68.0422275,0.939134104 C68.0770183,0.6980056 68.2848788,0.519839483 68.5284914,0.522310504 L69.5357525,0.522310504 C69.7851261,0.522310504 69.9872833,0.724493659 69.9872833,0.973867243 L69.9872833,0.973867243 Z M60.8524675,0.973867243 L60.713535,1.94639516 L62.2417931,1.94639516 C62.3674418,1.9367006 62.4914247,1.97995722 62.5837729,2.06570911 C62.6761211,2.15146099 62.7284305,2.27190442 62.7280571,2.39792598 C62.733463,2.45795242 62.7214011,2.51826183 62.6933239,2.57159168 L62.6933239,2.57159168 C62.6203387,2.77805646 62.4260354,2.91684455 62.20706,2.91892308 L60.5746024,2.91892308 L59.8799396,8.47622545 L61.3734646,8.19836033 C61.6312758,8.15570313 61.8767037,8.32443479 61.9291949,8.58042487 L61.9291949,8.78882371 L61.9291949,8.78882371 C61.8897625,9.00054859 61.7241221,9.16618898 61.5123972,9.20562139 L59.7410071,9.51821965 L59.22001,13.6861964 C59.1852191,13.9273249 58.9773587,14.105491 58.733746,14.10302 L56.0245611,14.10302 C55.9416549,14.10302 55.8621443,14.0700597 55.8035207,14.0114362 C55.7448972,13.9528127 55.7119628,13.8733021 55.7119628,13.7903958 L55.7119628,13.7903958 C55.7623729,13.4223724 56.0701425,13.1439143 56.4413588,13.1304662 L57.3096873,13.1304662 L57.6917518,9.90028418 L56.6844908,10.0739499 C56.5645257,10.0938622 56.4416003,10.0645437 56.3435363,9.99263015 C56.2454724,9.92071657 56.180561,9.81228805 56.1634937,9.69188535 C56.1281153,9.65233116 56.1281153,9.59250698 56.1634937,9.55295279 L56.1634937,9.55295279 C56.1886873,9.34664611 56.3422166,9.1791595 56.5455582,9.13615511 L57.8306844,8.89302313 L58.5948134,2.98838935 L57.3096873,2.98838935 C57.0547824,2.97013607 56.8575037,2.75768217 56.8581565,2.5021254 L56.8581565,2.36319284 L56.8928896,2.36319284 C56.9527289,2.16214371 57.1347487,2.02212847 57.3444204,2.01586144 L58.733746,2.01586144 L58.8726786,0.939134104 C58.8722721,0.822302807 58.9209196,0.710664611 59.0067681,0.631419788 C59.0926167,0.552174965 59.2077838,0.512599718 59.3242094,0.522336425 L60.3662036,0.522336425 C60.4918522,0.512641863 60.6158352,0.555898488 60.7081833,0.641650374 C60.8005315,0.72740226 60.852841,0.847845683 60.8524675,0.973867243 L60.8524675,0.973867243 Z M45.2920209,6.14910508 C45.5605771,6.14910508 45.7782848,6.36681287 45.7782848,6.63536904 L45.7782848,6.70483532 L45.0141558,13.7209296 C44.9793649,13.9620581 44.7715045,14.1402242 44.5278918,14.1377532 L43.590097,14.1377532 C43.3215409,14.1377532 43.1038331,13.9200195 43.1038331,13.6514633 L43.1038331,13.581997 L43.8679621,6.56590276 C43.8675557,6.44907146 43.9162032,6.33743327 44.0020517,6.25818844 C44.0879003,6.17894362 44.2030674,6.13936837 44.319493,6.14910508 L45.2920209,6.14910508 Z M40.3946482,6.67010218 L39.5610528,13.6861964 C39.5260407,13.9465215 39.3027142,14.1400711 39.0400557,14.1377483 L37.9285952,14.1377483 C37.6792216,14.1377483 37.4770644,13.93557 37.4770644,13.6861964 L37.4770644,13.6167301 L38.3106598,6.6006359 C38.358696,6.34757219 38.5743348,6.16068523 38.8316569,6.1491031 L39.9431173,6.1491031 C40.0691389,6.14873164 40.1895823,6.20104109 40.2753342,6.29338928 C40.3610861,6.38573746 40.4043427,6.50972037 40.3946482,6.63536904 L40.3946482,6.67010218 Z M46.6466133,0.730735264 L46.6466133,0.730735264 C46.5501027,0.912578692 46.3658485,1.03102784 46.1603494,1.04333352 L43.9374284,1.04333352 L43.6248302,3.54411959 L45.9519505,3.54411959 C46.0779721,3.54374615 46.1984155,3.5960556 46.2841674,3.68840379 C46.3699193,3.78075197 46.4131759,3.90473488 46.4034814,4.03038355 C46.4088872,4.09041 46.3968253,4.1507194 46.3687482,4.20404925 L46.3687482,4.27351553 C46.2749681,4.43658986 46.1050559,4.54115124 45.9172174,4.55138065 L43.5206307,4.55138065 L42.4786366,13.6514633 C42.4603833,13.9063682 42.2479294,14.1036468 41.9923726,14.1029957 L40.9503784,14.1029957 C40.6948216,14.1036468 40.4823677,13.9063682 40.4641144,13.6514633 L40.4641144,13.581997 L41.4713755,4.55138065 L38.86639,4.55138065 C38.7407413,4.56107521 38.6167584,4.51781859 38.5244102,4.4320667 C38.4320621,4.34631481 38.3797526,4.22587139 38.3801241,4.09984983 C38.3870821,4.0259942 38.4108438,3.95470912 38.4495923,3.89145099 L38.4495923,3.89145099 C38.5285087,3.70994484 38.7034548,3.58882832 38.9011231,3.57885273 L41.6103081,3.57885273 L41.8881732,1.07806666 L39.5957859,1.07806666 C39.3272298,1.07806666 39.109522,0.860358873 39.109522,0.591802705 C39.1245248,0.534652162 39.1361229,0.476661665 39.1442551,0.418137006 L39.1789883,0.418137006 C39.2506211,0.230783903 39.4299418,0.106638748 39.6305191,0.105538747 L46.1950825,0.105538747 C46.4444561,0.105538747 46.6466133,0.30769598 46.6466133,0.557069565 C46.6578506,0.614412788 46.6578506,0.673392042 46.6466133,0.730735264 L46.6466133,0.730735264 Z M16.011984,2.74525738 C16.1409492,2.74525738 16.2646323,2.79648861 16.3558245,2.88768079 C16.4470167,2.97887297 16.4982479,3.10255611 16.4982479,3.23152133 L16.4982479,3.30098761 L15.3867875,13.1304662 L15.7341189,13.1304662 C15.9834925,13.1304662 16.1856497,13.3326234 16.1856497,13.581997 L16.1856497,13.6514633 L16.1856497,13.6514633 C16.1673964,13.9063682 15.9549425,14.1036468 15.6993857,14.1029957 L13.3027991,14.1029957 L14.4837258,3.75251843 L13.8237962,3.75251843 C13.694831,3.75251843 13.5711478,3.7012872 13.4799556,3.61009502 C13.3887635,3.51890283 13.3375322,3.39521969 13.3375322,3.26625447 C13.3444883,3.19239885 13.36825,3.12111377 13.4069985,3.05785563 L13.4069985,3.05785563 C13.5007786,2.89478131 13.6706908,2.79021992 13.8585293,2.77999052 L16.011984,2.74525738 Z M17.4013096,0.696002125 L17.3665764,0.696002125 C17.3067371,0.897051256 17.1247173,1.03706649 16.9150456,1.04333352 L13.0944002,1.04333352 L12.3650043,7.57316381 L12.781802,7.33003184 C12.8872801,7.26812747 13.0133581,7.25165851 13.1311982,7.28439188 C13.2490384,7.31712525 13.3485596,7.39626069 13.4069985,7.50369754 C13.4764648,7.57316381 13.4764648,7.67736323 13.4764648,7.81629579 L13.4069985,8.19836033 C13.392297,8.38610241 13.2705162,8.54847674 13.0944002,8.61515801 L12.1913386,9.03195569 L11.7050746,13.1304662 L12.0871392,13.1304662 C12.2131607,13.1300927 12.3336042,13.1824022 12.4193561,13.2747504 C12.5051079,13.3670986 12.5483646,13.4910815 12.53867,13.6167301 L12.53867,13.6167301 C12.5204167,13.871635 12.3079628,14.0689137 12.052406,14.0682626 L10.1420834,14.0682626 C10.0131181,14.0682626 9.88943499,14.0170297 9.79824281,13.9258376 C9.70705063,13.8346454 9.6558194,13.7109622 9.6558194,13.581997 L9.6558194,13.5125307 L11.0798781,1.00860038 C10.8951556,0.992448186 10.7486989,0.845991479 10.7325467,0.661268985 C10.7273493,0.612309212 10.739654,0.563090386 10.7672799,0.522336425 L10.8367462,0.313937586 C10.9276207,0.12700127 11.1152176,0.00640322955 11.3230101,0.00133932764 L16.9497788,0.00133932764 C17.0754274,-0.00835523443 17.1994103,0.0349013901 17.2917585,0.120653276 C17.3841067,0.206405162 17.4364162,0.326848585 17.4360427,0.452870146 C17.4692577,0.534235266 17.4559782,0.627191795 17.4013096,0.696002125 Z M6.18250541,8.96248941 L6.00883971,10.4212813 L8.64855834,10.4212813 C8.85956676,10.4212813 9.03062288,10.5923374 9.03062288,10.8033458 C9.04129067,10.8635424 9.02888945,10.9255485 8.99588974,10.9770115 C8.88536217,11.2454321 8.62618849,11.4227615 8.33596008,11.4285423 L5.86990715,11.4285423 L5.62677517,13.1651993 L8.6138252,13.1651993 C8.83110721,13.1644437 9.01251725,13.3307362 9.03062288,13.5472639 C9.02823238,13.6114407 9.00368542,13.6728081 8.9611566,13.7209296 C8.84740558,13.9819952 8.5858406,14.1471941 8.30122694,14.1377272 L0.416804195,14.1377272 C0.309604008,14.1475142 0.203249065,14.1116246 0.123897361,14.0388855 C0.0445456566,13.9661465 -0.000439308181,13.8633078 3.23463098e-06,13.7556627 C3.23463098e-06,13.6861964 0.034739657,13.6167301 0.034739657,13.5472639 C0.17694939,13.3003538 0.444725013,13.1530772 0.729402454,13.1651993 L3.6469862,13.1651993 L3.85538504,11.4285423 L1.11146699,11.4285423 C0.894939331,11.4104367 0.728646794,11.2290267 0.729402454,11.0117447 C0.727218121,10.9519347 0.73911545,10.892448 0.764135594,10.838079 C0.902849891,10.5833356 1.1687475,10.423797 1.45879839,10.4212813 L3.9943176,10.4212813 L4.20271644,8.85828999 C4.23750728,8.61716149 4.44536775,8.43899537 4.6889804,8.44146639 L5.73097459,8.44146639 C5.98034818,8.44146639 6.18250541,8.64364954 6.18250541,8.89302313 L6.18250541,8.96248941 Z M36.1919382,0.973867243 L36.1919382,1.4601312 L34.6289469,13.6861964 C34.6106937,13.9411013 34.3982398,14.13838 34.142683,14.1377289 L27.9949172,14.1377289 C27.7208247,14.1194144 27.5080422,13.8914331 27.508652,13.6167301 C27.508652,13.5975476 27.5242038,13.581997 27.5433864,13.581997 L28.2727824,7.81629579 L34.1774161,0.452870146 L35.7404074,0.452870146 C35.8660561,0.443175584 35.990039,0.486432208 36.0823872,0.572184094 C36.1747354,0.65793598 36.2270448,0.778379403 36.2266734,0.904400964 C36.2266734,0.939134104 36.2266734,0.939134104 36.1919382,0.973867243 Z" id="path-11"></path>
    </defs>
    <g id="页面-1" stroke="none" stroke-width="1" fill="none" fill-rule="evenodd">
        <g id="场景1：填写基本信息" transform="translate(-40.000000, -32.000000)">
            <g id="logo" transform="translate(40.000000, 32.000000)">
                <g id="logo-01" transform="translate(144.490041, 0.000000)" fill-rule="nonzero">
                    <path d="M36.5153947,32.3270744 C38.2318624,32.7190011 42.8892113,29.4348264 43.3812654,29.8696648 C43.7073942,30.1557427 42.0538637,32.3213528 42.0538638,32.3213528 L40.5004605,33.6888053 C40.5004605,33.6888053 36.0004545,32.2097824 36.5153947,32.3270744 Z" id="路径" fill="#FFFFFF"></path>
                    <path d="M40.5633977,33.9748833 L40.4174979,33.9262501 L38.4120916,33.2711315 C37.3021091,32.9049518 36.7385356,32.7161404 36.4581792,32.5902661 C36.1721012,32.4586703 36.1892659,32.3900115 36.226456,32.2498333 C36.2493935,32.1765906 36.3007992,32.1156364 36.369121,32.0806686 C36.4374427,32.0457008 36.5169498,32.0396524 36.589775,32.0638827 C37.4909205,32.266998 39.4934661,31.2514213 40.9553244,30.5133402 C42.568804,29.6922965 43.243948,29.3690284 43.5672161,29.6551064 C43.7073943,29.7809806 44.0792956,30.1156919 42.2741438,32.4729741 L42.2398144,32.513025 L40.5633977,33.9748833 Z M37.7598338,32.4815565 C38.560852,32.7504697 39.6193404,33.096624 40.4375233,33.3626765 L41.8478877,32.1296806 C42.3491609,31.5070866 42.7763759,30.8283427 43.1209345,30.1071095 C42.4544442,30.3525017 41.8070839,30.6470172 41.1841868,30.9882296 C40.0370143,31.5775502 38.7897144,32.2097824 37.7598338,32.487278 L37.7598338,32.4815565 Z" id="形状" fill="#000000"></path>
                    <path d="M43.9391174,15.3798169 C45.52685,16.1636705 46.7827322,20.4605612 47.4321291,20.4262318 C47.8698283,20.4033456 47.9442086,17.6856052 47.9442086,17.6856052 L47.5951935,15.6658948 C47.5951935,15.6658948 43.464228,15.1480937 43.9391174,15.3798169 L43.9391174,15.3798169 Z" id="路径" fill="#FFFFFF"></path>
                    <path d="M47.420686,20.7008667 C46.9972906,20.7008667 46.6911872,20.1287107 46.0475118,18.8327777 C45.4553305,17.6512758 44.6485907,16.0349355 43.8189647,15.625844 C43.6741695,15.57442 43.5958584,15.4177979 43.6415963,15.2711073 C43.7188373,15.0079156 43.7474452,14.9106491 47.6266621,15.3969816 L47.8269166,15.4227286 L48.2159827,17.6684405 L48.2159827,17.6941875 C48.1330201,20.6636765 47.6438268,20.6894236 47.446433,20.7008667 L47.420686,20.7008667 Z M44.7058063,15.625844 C45.4152796,16.3496212 46.0246256,17.5654524 46.5367051,18.5924722 C46.7788821,19.118768 47.0660253,19.6231829 47.3949389,20.100103 C47.5408387,19.7482271 47.6609914,18.6525486 47.6810169,17.7084914 L47.3720527,15.9090611 C46.3879446,15.7889084 45.3666464,15.6801988 44.7058063,15.625844 L44.7058063,15.625844 Z M44.3137203,15.1395115 L43.944839,15.5083928 L44.3137203,15.1395115 Z" id="形状" fill="#000000"></path>
                    <path d="M29.9842353,2.22023149 L22.5147401,0.457991345 C22.5147401,0.457991345 12.5105945,4.10548512 6.60880644,9.94433596 C10.7025818,10.7796836 11.8955269,10.5594035 11.8955269,10.5594036 L29.9842353,2.22023149 Z" id="路径" fill="#FF5F2E"></path>
                    <path d="M11.3891689,11.0228499 C10.6653917,11.0228499 9.20067266,10.9198618 6.52584388,10.3734529 C6.3628101,10.3395814 6.23160257,10.2188153 6.18435864,10.0591428 C6.13711471,9.89947038 6.18148653,9.72675381 6.29984225,9.60962478 C12.2016302,3.78221705 21.9540274,0.16905265 22.3659797,0.0288744303 C22.4491468,-0.00247961407 22.5397468,-0.00845323271 22.6263106,0.0117097768 L30.0986664,1.77394992 C30.2920406,1.81405157 30.4369926,1.97505195 30.4566434,2.1715603 C30.4762942,2.36806865 30.3660938,2.55458427 30.1844899,2.63218375 L12.0929207,10.9541911 C12.059843,10.9715615 12.0240481,10.9831707 11.9870718,10.9885205 C11.7891142,11.0169895 11.5890842,11.0284745 11.3891689,11.0228499 L11.3891689,11.0228499 Z M7.55286369,9.65825804 C10.3936177,10.1875022 11.5350686,10.1302867 11.7725134,10.1074005 L28.6053396,2.35468816 L22.543348,0.924298415 C21.4190616,1.36199766 13.0055093,4.64903328 7.55286369,9.65825804 Z" id="形状" fill="#000000"></path>
                    <path d="M0.452409087,20.2860537 C0.452409087,20.2860537 16.7617127,2.50630941 29.9842353,2.22023149 C43.2067579,1.93415357 47.1746589,14.7103945 48.2045396,17.3537548 C43.2239226,18.712625 38.2862173,19.2218437 32.5360506,17.5997818 C31.7750833,26.2536396 36.1864051,31.8550457 43.2296441,32.1153767 C36.7042062,37.078829 32.7734953,37.8369356 27.9301957,37.4821989 C20.0086974,36.910043 7.65299098,30.4303776 2.07161023,13.8292745 C0.566840255,16.8330929 0.452409087,20.2860537 0.452409087,20.2860537 L0.452409087,20.2860537 Z" id="路径" fill="#5CC2F2"></path>
                    <path d="M25.1838474,31.2857506 C15.4571972,30.2158191 9.32654693,24.7059579 3.40187268,17.3137038 C9.43811732,31.3315231 20.5865748,36.9586762 27.9244741,37.4764773 C32.7677737,37.8169101 36.6984847,37.0731074 43.2239225,32.1096551 C41.2499847,32.1096551 38.3176857,31.3486878 36.2579246,29.4291048 C34.4928237,30.4074914 31.803691,32.0123886 25.1838474,31.2857506 Z" id="路径" fill="#B2E7FB" opacity="0.9"></path>
                    <path d="M29.8469178,38 C29.208964,38 28.5624279,37.974253 27.8958663,37.9256197 C21.5334928,37.4764773 9.78427167,32.7190011 3.25311221,18.0975574 C1.72545595,19.5737196 0.821449715,20.5521062 0.784259488,20.592157 C0.656299476,20.7307132 0.455758224,20.775253 0.281175821,20.7038908 C0.106593418,20.6325287 -0.00532819927,20.4602668 0.000195566326,20.2717497 C0.000195566326,20.12585 0.137723412,16.6843323 1.66824037,13.6204376 C1.74981104,13.4572195 1.9215179,13.3590531 2.10355463,13.3715642 C2.28559136,13.3840753 2.44225346,13.5048101 2.50072715,13.6776531 C2.83257755,14.66939 3.18826779,15.6229832 3.56779788,16.5384326 C5.25279694,14.9421177 7.4641795,12.9681799 9.9816654,10.9999636 C17.665719,4.99232678 24.3914114,1.88265953 29.975653,1.75964604 C35.7572882,1.63663255 40.5233468,3.8194072 44.1536759,8.2593369 C46.2854792,10.8940153 47.8181126,13.9612346 48.6450996,17.2479059 C48.6953669,17.4802549 48.5582392,17.7121253 48.3304139,17.7800109 C44.1422328,19.0072853 39.3818958,19.8969877 32.945142,18.1719377 C32.6762287,22.3915873 33.6631976,25.8960421 35.8059215,28.3334262 C37.6253772,30.3931874 40.1972179,31.5432208 43.243948,31.6576519 C43.4338461,31.665431 43.5985932,31.7911711 43.6561929,31.9722901 C43.7137925,32.1534091 43.6519393,32.3512129 43.5014182,32.4672525 C37.7512515,36.8356627 34.0036305,38 29.8469178,38 L29.8469178,38 Z M3.94542077,17.4338565 C10.2763257,31.9008182 21.7680767,36.6010788 27.9616642,37.0244742 C32.4988604,37.3477423 36.1606581,36.6954846 41.999509,32.4643917 C39.3526523,32.1765183 36.9064533,30.9177451 35.1336383,28.9313291 C32.724862,26.2050063 31.6720951,22.2685738 32.0869081,17.5540093 C32.0979282,17.4197742 32.1686073,17.2975701 32.2794653,17.2210781 C32.3903232,17.1445861 32.5296569,17.1218814 32.6590641,17.1592217 C38.9298926,18.9557912 43.5843807,18.1948239 47.6581307,17.0333475 C46.8336748,14.0407882 45.4022044,11.2499077 43.4527849,8.83435359 C40.0198496,4.62042545 35.4883749,2.54063879 30.0071215,2.66651306 C20.5436631,2.87248919 9.31224298,12.3445299 3.94542077,17.4338565 L3.94542077,17.4338565 Z M2.02297705,15.0508273 C1.53640992,16.3348749 1.20134004,17.6713141 1.024565,19.0330323 C1.48515052,18.5638644 2.10593961,17.9402145 2.86690693,17.207855 C2.57320025,16.5098248 2.29189029,15.7908155 2.02297705,15.0508273 L2.02297705,15.0508273 Z" id="形状" fill="#000000"></path>
                    <path d="M28.3993634,19.8712407 L19.6453784,15.703085 C17.2950133,18.3856679 15.7657022,21.6875896 15.2397781,25.2151767 C21.4076185,24.1452452 28.3993634,19.8712407 28.3993634,19.8712407 L28.3993634,19.8712407 Z" id="路径" fill="#FF5F2E"></path>
                    <path d="M15.2397781,25.6786273 C15.1088272,25.6792018 14.984145,25.6226011 14.8983805,25.523642 C14.8126159,25.4246829 14.7743111,25.2932217 14.7934964,25.1636826 C15.3192527,21.5318872 16.8919455,18.1320075 19.3192495,15.3798169 C19.4549402,15.2425221 19.6625105,15.2058246 19.8370506,15.288272 L28.5938965,19.4535668 C28.7430124,19.5256812 28.8411401,19.6731532 28.8500644,19.8385509 C28.8589888,20.0039485 28.7772988,20.1611229 28.6368082,20.2488635 C28.3507303,20.4233711 21.4848595,24.5800836 15.3112975,25.6528759 C15.2884574,25.6640156 15.2644777,25.6726483 15.2397781,25.6786273 L15.2397781,25.6786273 Z M19.7598096,16.2695194 C17.7465287,18.6854388 16.3810597,21.5738931 15.7919085,24.6630463 C20.4978907,23.6903813 25.5814957,20.9755015 27.4381415,19.9227347 L19.7598096,16.2695194 Z" id="形状" fill="#000000"></path>
                    <path d="M34.2296319,12.7021274 C34.2296319,14.2315334 35.4694605,15.4713619 36.9988665,15.4713619 C38.5282725,15.4713619 39.768101,14.2315334 39.768101,12.7021274 C39.768101,11.1727214 38.5282725,9.93289285 36.9988665,9.93289285 C35.4694605,9.93289285 34.2296319,11.1727214 34.2296319,12.7021274 Z" id="路径" fill="#FFFFFF"></path>
                    <path d="M36.9988665,15.9233663 C35.6943204,15.924522 34.5176386,15.1394201 34.0178759,13.9343977 C33.5181131,12.7293754 33.7937714,11.3419397 34.7162251,10.419486 C35.6386788,9.49703231 37.0261145,9.22137399 38.2311368,9.72113677 C39.4361591,10.2208995 40.2212611,11.3975813 40.2201054,12.7021274 C40.2185268,14.4805141 38.7772531,15.9217877 36.9988665,15.9233663 L36.9988665,15.9233663 Z M36.9988665,10.3820353 C35.717515,10.3820353 34.6787744,11.4207759 34.6787744,12.7021274 C34.6787744,13.9834789 35.717515,15.0222195 36.9988665,15.0222195 C38.280218,15.0222195 39.3189586,13.9834789 39.3189586,12.7021274 C39.3173823,11.4214294 38.2795645,10.3836115 36.9988665,10.3820353 L36.9988665,10.3820353 Z" id="形状" fill="#000000"></path>
                    <path d="M35.9203526,12.7021274 C35.9202383,13.1887 36.1912082,13.6383585 36.6311639,13.8816764 C37.0711196,14.1249944 37.6132004,14.1249944 38.0531561,13.8816764 C38.4931118,13.6383585 38.7640817,13.1887 38.7639674,12.7021274 C38.7640817,12.2155548 38.4931118,11.7658962 38.0531561,11.5225783 C37.6132004,11.2792604 37.0711196,11.2792604 36.6311639,11.5225783 C36.1912082,11.7658962 35.9202383,12.2155548 35.9203526,12.7021274 Z" id="路径" fill="#000000"></path>
                    <path d="M22.6120066,19.6709861 L22.5462087,19.6709861 C20.5436632,19.3849082 18.5640038,17.8343657 18.4810411,17.7685678 C18.2851255,17.6105713 18.2543859,17.3236688 18.4123824,17.1277532 C18.5703789,16.9318375 18.8572814,16.9010979 19.0531971,17.0590944 C19.0732225,17.0590944 20.9441722,18.5266743 22.6892477,18.7755622 C22.9307165,18.8017685 23.1083058,19.0141219 23.0913835,19.2564184 C23.0744612,19.4987149 22.8690779,19.684321 22.6263106,19.6767076 L22.6120066,19.6709861 Z M21.1186798,21.0784896 L21.0700465,21.0784896 C19.6309559,20.9093117 18.2081839,20.6222696 16.8160675,20.2202557 C16.6082103,20.1273243 16.5019227,19.894295 16.5680138,19.6764123 C16.6341049,19.4585296 16.8519406,19.3238177 17.0763985,19.3620219 C18.4145772,19.7479611 19.7816892,20.0254016 21.1644522,20.191648 C21.4125067,20.2042877 21.6033481,20.4156221 21.5907084,20.6636766 C21.5780686,20.9117311 21.3667342,21.1025724 21.1186798,21.0899327 L21.1186798,21.0784896 Z M16.0980119,23.0324019 L15.8805927,23.0324019 C15.6309582,23.0324019 15.4285895,22.8300332 15.4285895,22.5803988 C15.4285895,22.3307643 15.6309582,22.1283956 15.8805927,22.1283956 C15.9034789,22.1283956 18.4552942,22.1741681 20.377738,21.6449239 C20.5406092,21.5676188 20.7338437,21.5944935 20.869439,21.7133085 C21.0050343,21.8321236 21.0570562,22.0201544 21.0018129,22.1917681 C20.9465695,22.3633819 20.7946269,22.4857555 20.6151826,22.5031577 C19.1357996,22.8582222 17.6194036,23.0358873 16.0980119,23.0324019 L16.0980119,23.0324019 Z" id="形状" fill="#000000"></path>
                    <path d="M44.7058063,21.9796351 C46.9077827,21.5943966 49.1725235,22.1019044 50.9995211,23.3899994 C51.0293802,23.2200375 51.0427925,23.0475938 51.039572,22.8750591 C50.9651918,19.8111643 46.8571125,19.1188557 44.2881325,19.4106551 C41.7191525,19.7024546 38.8783986,21.3531244 38.5894599,24.6516031 C38.5516302,25.1450058 38.620918,25.640755 38.7925752,26.104879 C40.0462824,23.9135257 42.2163448,22.3996264 44.7058063,21.9796351 L44.7058063,21.9796351 Z" id="路径" fill="#FFC7C7"></path>
                    <path d="M38.795436,26.3852355 L38.7725497,26.3852355 C38.6680231,26.3723904 38.5790061,26.3031549 38.5408266,26.2050063 C38.3566898,25.7040634 38.2815903,25.1695891 38.3205466,24.6372992 C38.5179404,22.3973089 40.1914963,19.6137705 44.2595247,19.1503243 C46.1848293,18.9300443 48.7681131,19.2647554 50.1927813,20.5063337 C50.8958565,21.0944912 51.3057398,21.9613107 51.3142068,22.8779198 C51.3179965,23.0696855 51.3026632,23.2613515 51.2684344,23.4500757 C51.2492474,23.5406393 51.1874235,23.6163203 51.1025092,23.6531911 C51.0169645,23.6875218 50.919797,23.6756457 50.845039,23.6217225 C49.0741434,22.3668169 46.8748783,21.8723685 44.7372749,22.2485483 C42.3262097,22.6585715 40.2262366,24.1285527 39.015716,26.2536396 C38.9696913,26.3323543 38.8865618,26.3820161 38.795436,26.3852355 L38.795436,26.3852355 Z M45.4181403,19.6280744 C45.0520136,19.6281693 44.6861913,19.6491826 44.3224619,19.6910116 C40.5777016,20.1172677 39.041463,22.6461967 38.8612339,24.6830717 C38.8414836,24.9352726 38.8530143,25.1889483 38.8955633,25.4383174 C41.5231978,21.5279483 46.7823874,20.4130153 50.7706587,22.9208315 L50.7706587,22.8893629 C50.7626066,22.1254067 50.4208323,21.4031863 49.8351838,20.9125643 C48.7852778,19.9999757 47.0144553,19.6280744 45.4181403,19.6280744 L45.4181403,19.6280744 Z" id="形状" fill="#231815"></path>
                    <path d="M45.2178858,25.0235044 C46.6077098,24.7814049 48.0369046,25.0980898 49.1943692,25.9046245 C49.923868,25.0463907 50.8021273,24.445627 51.0023819,23.3985817 C49.0563057,22.0277192 46.6224447,21.5408773 44.2987834,22.05767 C41.9751221,22.5744628 39.9770337,24.0469902 38.795436,26.1134614 C39.1616158,27.1490636 39.962634,28.1446148 40.9410206,28.9742408 C41.464377,26.9300867 43.1387203,25.3834191 45.2178858,25.0235044 Z" id="路径" fill="#FFE2E2"></path>
                    <path d="M40.9410206,29.2517732 C40.8762469,29.2528067 40.813264,29.2304579 40.7636522,29.1887993 C39.6679737,28.2476028 38.898424,27.2148615 38.5408266,26.2050063 C38.516066,26.1301325 38.5233118,26.0483583 38.560852,25.9790048 C39.7791359,23.8480754 41.8391497,22.3293263 44.2350448,21.7956951 C46.6309398,21.262064 49.1407881,21.7629802 51.1482816,23.1754409 C51.2378342,23.2410707 51.2813262,23.3525886 51.259852,23.4615189 C51.0967876,24.3197527 50.547518,24.8919086 49.9667797,25.4640644 C49.7751074,25.6614582 49.5777137,25.8645735 49.3946238,26.0819928 C49.3045084,26.1883935 49.1480144,26.2082657 49.0341656,26.1277653 C47.9356903,25.360225 46.5779911,25.0588569 45.2579367,25.2895569 C43.2830718,25.6347903 41.6942287,27.1060658 41.1984907,29.0486211 C41.1725271,29.138637 41.1041338,29.2102362 41.0154008,29.2402933 C40.9913017,29.2477301 40.9662406,29.2515856 40.9410206,29.2517732 L40.9410206,29.2517732 Z M39.0958178,26.1392084 C39.4838692,27.0437976 40.0705179,27.8494618 40.8122854,28.4964907 C41.3663195,26.8617286 42.6399837,25.5716765 44.2675295,24.9967889 C45.8950752,24.4219014 47.6964322,24.6257834 49.1543183,25.5498878 C49.3030789,25.3868234 49.4403962,25.2352021 49.5977392,25.0864415 C50.0955148,24.5715012 50.533214,24.1223589 50.7048608,23.5158737 C48.8368856,22.260701 46.534256,21.8306849 44.3391752,22.3270817 C42.1440943,22.8234786 40.2505437,24.2024213 39.1044001,26.1392084 L39.0958178,26.1392084 Z" id="形状" fill="#231815"></path>
                    <path d="M40.9410206,28.9828232 C43.2296441,30.9367356 46.4566033,32.0381356 47.3634704,30.8251652 C48.4620097,29.3490029 47.8498029,28.0616522 48.665125,26.6427056 C48.818997,26.3812714 48.9961289,26.1342442 49.1943692,25.9046245 C47.7516649,24.9008191 45.9084067,24.6683576 44.2616511,25.2825375 C42.6148954,25.8967174 41.3740421,27.2794402 40.9410206,28.9828232 L40.9410206,28.9828232 Z" id="路径" fill="#F6F6F6"></path>
                    <path d="M46.084702,31.6032971 C44.6142614,31.6032971 42.4457905,30.6306321 40.7636522,29.1887993 C40.6835851,29.1171274 40.6504362,29.0066312 40.6778288,28.9027214 C41.135503,27.1150531 42.4401737,25.6651512 44.1698042,25.0220322 C45.8994347,24.3789133 47.8344287,24.6242285 49.3488513,25.6786229 C49.4100787,25.7230405 49.4512225,25.7898992 49.4632825,25.8645736 C49.4714861,25.9407192 49.4488156,26.0169746 49.4003454,26.0762713 C49.2119543,26.2927401 49.0443376,26.5264457 48.899709,26.7743015 C48.6115644,27.3267663 48.4447774,27.9344169 48.4105156,28.556567 C48.3189707,29.3261167 48.2217042,30.1185526 47.5808896,30.982508 C47.290891,31.3387929 46.8638466,31.5559518 46.4051093,31.5804109 C46.2988139,31.5939752 46.1918462,31.6016157 46.084702,31.6032971 L46.084702,31.6032971 Z M41.247124,28.8855566 C42.9092368,30.2644524 45.0777077,31.1741802 46.3450329,31.0483059 C46.6542788,31.0371724 46.9447517,30.897123 47.1460512,30.6621007 C47.7010424,29.9182981 47.784005,29.231711 47.8726891,28.4964907 C47.9005973,27.5765405 48.2235452,26.6899383 48.7938602,25.9675617 C47.4412328,25.1370229 45.7784313,24.9855294 44.2979837,25.5579542 C42.8175361,26.1303789 41.6891745,27.3610939 41.247124,28.8855566 L41.247124,28.8855566 Z" id="形状" fill="#231815"></path>
                    <path d="M46.0904235,31.8550523 C44.5770712,31.8550523 42.3714103,30.8652161 40.6549426,29.3976362 C39.6414921,28.5911141 38.8532229,27.536804 38.3663191,26.3366022 C38.1729695,25.811068 38.0958644,25.2498602 38.1403174,24.691654 C38.4406993,21.2358324 41.4216314,19.3648827 44.2366384,19.0444754 C46.0589549,18.8356385 48.742366,19.0788048 50.3072125,20.4405358 C51.048225,21.0622301 51.4808108,21.9765117 51.4915751,22.9437177 C51.4971734,23.1479871 51.4808693,23.3522683 51.4429419,23.5530638 C51.2712951,24.4627917 50.676253,25.0721377 50.1012363,25.6614582 C49.9124248,25.8559913 49.7150311,26.0591065 49.5290804,26.2708043 C49.3489518,26.4789434 49.1880881,26.7030035 49.0484695,26.9402267 C48.7729232,27.4727835 48.6139613,28.0579194 48.5821625,28.6566943 C48.4906175,29.4119401 48.3876294,30.2673131 47.7239286,31.1655979 C47.4063957,31.5643101 46.9340104,31.8088267 46.4251347,31.8378811 C46.3139484,31.8495441 46.2022196,31.8552738 46.0904235,31.8550523 L46.0904235,31.8550523 Z M44.3424873,19.9398993 C42.0710284,20.2002303 39.3189586,21.6220376 39.041463,24.7717559 C39.0108223,25.2012688 39.0722692,25.6323726 39.2216921,26.0362203 C39.5363779,26.9287835 40.2344081,27.8528153 41.2242377,28.7110491 C42.8691859,30.1214134 45.0576822,31.0797745 46.3135643,30.9395963 C46.5742759,30.9360453 46.821435,30.8228506 46.9944299,30.6277714 C47.5236741,29.9211589 47.6037758,29.2517364 47.6895993,28.5479847 C47.7288538,27.8289649 47.9240885,27.1270965 48.2617552,26.4910843 C48.4269862,26.2049732 48.6185339,25.934891 48.833911,25.6843445 C49.0341656,25.4497606 49.2401417,25.2380629 49.4403963,25.0320867 C49.9667797,24.4913994 50.4187828,24.0279531 50.5389356,23.3871386 C50.5649058,23.2485268 50.5764106,23.1075927 50.5732649,22.966604 C50.5734122,22.2550436 50.2593163,21.5797373 49.7150311,21.1214012 C48.4562881,20.0257228 46.1075883,19.7396448 44.3396265,19.9398993 L44.3424873,19.9398993 Z" id="形状" fill="#000000"></path>
                    <path d="M37.2334504,12.1957694 C37.2334504,12.4754232 37.4601546,12.7021274 37.7398084,12.7021274 C38.0194621,12.7021274 38.2461663,12.4754232 38.2461663,12.1957694 C38.2461663,11.9161157 38.0194621,11.6894115 37.7398084,11.6894115 C37.4601546,11.6894115 37.2334504,11.9161157 37.2334504,12.1957694 Z" id="路径" fill="#FFFFFF"></path>
                    <path d="M67.6206496,3.34737858 C66.8569409,4.26584411 66.039218,5.13801822 65.1718225,5.95927023 C65.5704231,7.02796306 65.836552,8.14147724 65.9642583,9.2749136 C66.1260605,10.8362574 66.1986515,12.4055608 66.1816775,13.9751742 C66.20611,14.777729 66.1301883,15.5801926 65.955676,16.363925 C65.8659457,16.8217055 65.608936,17.2296575 65.2347596,17.5082368 C64.8020982,17.7424688 64.3127036,17.8514433 63.8215345,17.8229226 C63.1956864,17.8286605 62.5700323,17.7980942 61.947724,17.7313776 L61.584405,16.1207588 C62.1535278,16.1970149 62.726714,16.2390486 63.3008727,16.2466331 C63.5791636,16.2653531 63.8563169,16.196315 64.0933085,16.0492394 C64.3113674,15.8455317 64.4493688,15.5705437 64.4823746,15.2739681 C64.5750052,14.6903852 64.6142648,14.0995755 64.5996665,13.5088672 C64.5996665,12.3798129 64.5691516,11.4729458 64.5081216,10.7882659 C63.6992332,11.9147482 62.7482661,12.9320618 61.6788107,13.8149706 L60.8863749,12.2844536 C61.5187242,11.7863592 62.1125911,11.241264 62.6629189,10.6538093 C63.2374869,10.0427093 63.7644548,9.38854226 64.2392083,8.69703614 C64.1423399,8.16042813 64.0094907,7.63094268 63.84156,7.11216438 C63.0596136,7.7377215 62.3749337,8.26029054 61.7875203,8.67987149 L60.9292865,7.20370927 C61.8409216,6.57624496 62.5980745,6.01171783 63.2007454,5.51012788 C62.7389204,4.53462238 62.2152863,3.58959669 61.6330382,2.68081701 L62.9118066,1.85119093 C63.4743205,2.65993593 63.9864185,3.50260477 64.4451844,4.37439839 C65.140727,3.7174562 65.7969813,3.02012627 66.4105399,2.2860294 L67.6206496,3.34737858 Z M77.42168,8.37376807 L73.4938298,8.37376807 C72.8743246,8.94888534 72.2188341,9.48397968 71.5313351,9.97580456 L75.9998726,9.97580456 L75.9998726,17.985987 L74.4579125,17.985987 L74.4579125,17.1277532 L70.0809199,17.1277532 L70.0809199,17.985987 L68.4960482,17.985987 L68.4960482,11.8868052 L66.9998605,12.7450391 L66.3504636,11.2688769 C68.0054819,10.4579052 69.580185,9.4923938 71.053585,8.38521117 L66.8482392,8.38521117 L66.8482392,6.9548215 L70.378441,6.9548215 L70.378441,5.00376988 L67.8209042,5.00376988 L67.8209042,3.54477239 L70.378441,3.54477239 L70.378441,1.56511301 L71.9289835,1.56511301 L71.9289835,3.54477239 L74.4150008,3.54477239 L74.4150008,4.86073089 C74.9627314,4.07598692 75.461457,3.25815341 75.9083277,2.41190374 L77.3387174,3.13282013 C76.626871,4.47581522 75.7886899,5.74793461 74.8355354,6.93193522 L77.4102369,6.93193522 L77.42168,8.37376807 Z M70.0723376,12.8423056 L74.4579125,12.8423056 L74.4579125,11.3747257 L70.0809199,11.3747257 L70.0723376,12.8423056 Z M70.0723376,14.1925935 L70.0723376,15.7774652 L74.4579125,15.7774652 L74.4579125,14.1925935 L70.0723376,14.1925935 Z M71.9289835,5.00376988 L71.9289835,6.93193522 L72.6842292,6.93193522 C73.2707312,6.32919254 73.812835,5.68478699 74.3062912,5.00376988 L71.9289835,5.00376988 Z" id="形状" fill="#282828"></path>
                    <path d="M70.2439843,18.1662161 L68.315819,18.1662161 L68.315819,12.1814655 L66.9111763,12.9767622 L66.3104127,11.6064489 C66.3390205,12.3245045 66.3533244,13.1169404 66.3533244,13.9751742 C66.3770134,14.7931407 66.2991784,15.610888 66.1216012,16.4096975 C66.0196539,16.9055395 65.7359784,17.3453387 65.3263045,17.6426934 C64.8668232,17.8959491 64.3453905,18.0149071 63.8215345,17.985987 C63.189027,17.9915949 62.5567162,17.9610301 61.9276985,17.8944421 L61.8075458,17.8801382 L61.3669857,15.9205042 L61.6072912,15.9491121 C62.167809,16.0251439 62.7324149,16.0671789 63.2980119,16.0749863 C63.540445,16.0933148 63.7825342,16.0352934 63.9903206,15.9090611 C64.1729516,15.7308502 64.28648,15.493657 64.3107278,15.2396387 C64.4006294,14.6673063 64.4389271,14.0880538 64.425159,13.5088672 C64.425159,12.6277471 64.4051336,11.8782229 64.3679434,11.2660161 C63.6112721,12.2518199 62.7477775,13.1508137 61.7932419,13.9465664 L61.6301774,14.0838839 L60.6660948,12.2329595 L60.7776652,12.1442754 C61.4039583,11.652615 61.9912215,11.1131746 62.5341838,10.5307957 C63.0878612,9.94506973 63.5957139,9.31766594 64.0532577,8.65412444 C63.9771,8.23055069 63.8748711,7.81208132 63.7471543,7.40110307 C63.0491241,7.97325898 62.4226134,8.43384443 61.8847868,8.83149281 L61.7303047,8.94020243 L60.7261712,7.14935446 L60.8549063,7.06067034 C61.7131401,6.48851443 62.4340565,5.9392448 63.0119339,5.46149463 C62.5645388,4.53640159 62.0630336,3.63846855 61.5100247,2.7723619 L61.4184798,2.62932297 L62.9833262,1.61660704 L63.0777318,1.75678519 C63.5936732,2.51024366 64.0710826,3.28937576 64.5081216,4.09118124 C65.1377599,3.4862766 65.7327927,2.84635372 66.2903872,2.17445901 L66.4048184,2.04000241 L67.8695374,3.33021393 L67.8323473,3.37312563 L70.2153766,3.37312563 L70.2153766,1.39346626 L72.1063518,1.39346626 L72.1063518,3.36454331 L74.5952299,3.36454331 L74.5952299,4.2942966 C75.0166862,3.65644806 75.4071587,2.99865943 75.7652887,2.32321955 L75.8453905,2.17445901 L77.5961876,3.04985756 L77.5103641,3.20433966 C76.8466855,4.44792332 76.0811969,5.63443065 75.2217406,6.75170615 L77.6047699,6.75170615 L77.6047699,8.53683249 L73.5624885,8.53683249 C73.0808016,8.98191506 72.5766447,9.4020459 72.051997,9.79557548 L76.1743801,9.79557548 L76.1743801,18.1490514 L74.2805442,18.1490514 L74.2805442,17.2908176 L70.2468451,17.2908176 L70.2439843,18.1662161 Z M68.6591126,17.8229226 L69.9006908,17.8229226 L69.9006908,16.9646888 L74.6209769,16.9646888 L74.6209769,17.8229226 L75.8282259,17.8229226 L75.8282259,10.1474513 L71.002091,10.1474513 L71.4312079,9.83848712 C72.1117024,9.34874447 72.7613765,8.81754037 73.3765379,8.2478938 L73.4280319,8.20212132 L77.2500332,8.20212132 L77.2500332,7.10358198 L74.4779379,7.10358198 L74.7153826,6.81750406 C75.624151,5.68754915 76.4266671,4.47611369 77.1127158,3.19861804 L75.982708,2.6264622 C75.550788,3.42661094 75.0732027,4.20125424 74.5523182,4.9465543 L74.2404933,5.39569664 L74.2404933,5.36994966 C73.7972238,5.95470013 73.3195847,6.51258255 72.8101035,7.04064484 L72.7586095,7.09213887 L71.7601975,7.09213887 L71.7601975,4.83212313 L74.2462148,4.83212313 L74.2462148,3.71641914 L71.7601975,3.71641914 L71.7601975,1.73675976 L70.5529485,1.73675976 L70.5529485,3.71641914 L67.9925509,3.71641914 L67.9925509,4.83212313 L70.5500878,4.83212313 L70.5500878,7.10358198 L67.0198859,7.10358198 L67.0198859,8.20212132 L71.545639,8.20212132 L71.1508514,8.51394629 C69.7158711,9.59573395 68.183545,10.5419453 66.5736044,11.3403964 L67.0799623,12.4847081 L68.6676949,11.5864234 L68.6591126,17.8229226 Z M62.0793199,17.5654524 C62.6554451,17.6215525 63.2341206,17.6474704 63.8129522,17.6426934 C64.2714714,17.6711405 64.7289177,17.5721262 65.1346323,17.3566155 C65.4697738,17.1023117 65.6998506,16.7337817 65.7811684,16.3210134 C65.9520302,15.5522651 66.0260317,14.7651585 66.0014485,13.978035 C66.0184453,12.4150841 65.9458532,10.8524436 65.7840292,9.29779981 C65.6636849,8.17863915 65.4061901,7.07852133 65.0173404,6.02220736 L64.9772894,5.91349775 L65.0602521,5.83625673 C65.8798972,5.0561572 66.655418,4.23097255 67.3832049,3.36454331 L66.44773,2.52919568 C65.8582778,3.22330251 65.2308046,3.8842027 64.5681979,4.50885506 L64.4022727,4.66619793 L64.2964239,4.4602218 C63.8673192,3.64465347 63.3896643,2.85556757 62.8660342,2.09721799 L61.870483,2.73231104 C62.4210219,3.60227462 62.9178185,4.50510678 63.3580883,5.43574757 L63.4124431,5.55590029 L63.3123158,5.6417237 C62.7401599,6.12233465 62.0163827,6.66588273 61.1610097,7.2552033 L61.8332928,8.43098365 C62.3825624,8.03333534 63.0176555,7.54414199 63.7242681,6.97770771 L63.9216618,6.82322561 L63.9960421,7.06067034 C64.1669314,7.58775643 64.3017003,8.12587617 64.399412,8.67128916 L64.399412,8.73708707 L64.359361,8.79430266 C63.8797512,9.49316966 63.3470242,10.1540572 62.7659069,10.7711013 C62.2433733,11.3305408 61.6812046,11.8515985 61.0837686,12.330226 L61.7131401,13.5431965 C62.7063287,12.7022355 63.5913473,11.7413033 64.3479179,10.6824171 L64.6168312,10.2990726 L64.6597429,10.7682405 C64.7198193,11.4548276 64.7484271,12.3759985 64.7484271,13.5031456 C64.7632311,14.1053626 64.7230132,14.7076734 64.6282743,15.3025759 C64.5922937,15.6414201 64.4311011,15.9546235 64.1762712,16.1808352 C63.9104917,16.3523809 63.5964769,16.4336435 63.2808472,16.4125583 C62.7826496,16.4066469 62.2851215,16.3741786 61.7903811,16.3152918 L62.0793199,17.5654524 Z M65.3634946,6.00504271 C65.7440787,7.05479759 66.0004336,8.14550605 66.1273227,9.25488817 C66.1902599,9.78985393 66.2417539,10.3991999 66.2760833,11.0943693 C67.7583308,10.360197 69.1790134,9.50778742 70.5243408,8.54541482 L66.6765924,8.54541482 L66.6765924,6.76028847 L70.2067943,6.76028847 L70.2067943,5.17541663 L67.6492574,5.17541663 L67.6492574,3.58196254 C66.93466,4.43031798 66.1744785,5.23920452 65.372077,6.00504271 L65.3634946,6.00504271 Z M72.0891871,6.76028847 L72.6012666,6.76028847 C73.0845113,6.25954887 73.5373255,5.73031036 73.9572761,5.17541663 L72.0891871,5.17541663 L72.0891871,6.76028847 Z M74.6209769,15.9519728 L69.9006908,15.9519728 L69.9006908,14.0209467 L74.6209769,14.0209467 L74.6209769,15.9519728 Z M70.2439843,15.6086793 L74.2776834,15.6086793 L74.2776834,14.3642402 L70.2439843,14.3642402 L70.2439843,15.6086793 Z M74.6209769,13.0168131 L69.9006908,13.0168131 L69.9006908,11.1916358 L74.6209769,11.1916358 L74.6209769,13.0168131 Z M70.2439843,12.6735195 L74.2776834,12.6735195 L74.2776834,11.5292078 L70.2439843,11.5292078 L70.2439843,12.6735195 Z M135.209425,7.20370927 L134.093721,7.95895503 L133.192575,6.52856536 C134.288143,5.83190729 135.31671,5.03510281 136.265052,4.14839683 C137.13175,3.32329245 137.912893,2.41275793 138.596588,1.43065634 L140.361689,1.86263403 C140.148084,2.20783477 139.896335,2.57401455 139.606443,2.96117337 L145.94593,2.96117337 L145.94593,4.33720831 C145.362536,4.88337939 144.809574,5.461173 144.289539,6.06797984 L147.676702,6.06797984 L147.676702,14.0781623 L135.209425,14.0781623 L135.209425,7.20370927 Z M133.696072,17.3280077 L133.696072,15.7231104 L149.298764,15.7231104 L149.298764,17.3280077 L133.696072,17.3280077 Z M138.327674,4.48310801 C137.799739,5.04312515 137.240008,5.57229087 136.651258,6.06797984 L142.086739,6.06797984 L142.86201,5.27554392 L143.654446,4.48310801 L138.327674,4.48310801 Z M136.822904,7.5641675 L136.822904,9.30924298 L140.604855,9.30924298 L140.604855,7.5641675 L136.822904,7.5641675 Z M140.604855,10.696721 L136.822904,10.696721 L136.822904,12.5533668 L140.604855,12.5533668 L140.604855,10.696721 Z M142.281271,9.30924298 L146.000285,9.30924298 L146.000285,7.5641675 L142.281271,7.5641675 L142.281271,9.30924298 Z M142.281271,10.696721 L142.281271,12.5533668 L146.000285,12.5533668 L146.000285,10.696721 L142.281271,10.696721 Z" id="形状" fill="#282828"></path>
                    <path d="M149.47041,17.4996545 L133.524426,17.4996545 L133.524426,15.5514637 L149.47041,15.5514637 L149.47041,17.4996545 Z M133.867719,17.1563609 L149.124256,17.1563609 L149.124256,15.8947573 L133.867719,15.8947573 L133.867719,17.1563609 Z M147.848348,14.2355052 L135.037778,14.2355052 L135.037778,7.52697734 L134.042227,8.20212132 L132.955131,6.48565366 L133.09817,6.39124792 C134.185039,5.70222324 135.205061,4.91302347 136.1449,4.03396566 C137.00413,3.21575935 137.77856,2.31289661 138.456409,1.33911145 L138.522207,1.24184494 L140.633463,1.75964604 L140.507588,1.95990055 C140.341663,2.22595304 140.152852,2.50917018 139.935432,2.79810895 L146.108994,2.79810895 L146.108994,4.42303165 L146.046057,4.47452568 C145.559407,4.92451698 145.099016,5.40210074 144.667162,5.90491542 L147.839766,5.90491542 L147.848348,14.2355052 Z M135.392515,13.8950724 L147.516498,13.8950724 L147.516498,6.2396266 L143.903333,6.2396266 L144.163664,5.95354868 C144.978987,5.04668159 145.511092,4.48882963 145.774283,4.25710645 L145.774283,3.14140245 L139.263149,3.14140245 L139.469125,2.85532453 C139.697988,2.54922111 139.906825,2.25170009 140.089914,1.96848287 L138.659525,1.6223286 C137.983586,2.57687629 137.217163,3.46401014 136.370901,4.27141032 C135.455663,5.12553126 134.466757,5.89712669 133.415716,6.57719862 L134.130911,7.70720649 L135.392515,6.88044119 L135.392515,13.8950724 Z M146.183375,12.7250136 L142.118207,12.7250136 L142.118207,10.5164919 L146.171932,10.5164919 L146.183375,12.7250136 Z M142.464361,12.3817201 L145.831499,12.3817201 L145.831499,10.8683678 L142.461501,10.8683678 L142.464361,12.3817201 Z M140.787945,12.7250136 L136.65984,12.7250136 L136.65984,10.5164919 L140.785084,10.5164919 L140.787945,12.7250136 Z M137.005994,12.3817201 L140.43893,12.3817201 L140.43893,10.8683678 L137.005994,10.8683678 L137.005994,12.3817201 Z M146.160488,9.48088973 L142.118207,9.48088973 L142.118207,7.39252074 L146.171932,7.39252074 L146.160488,9.48088973 Z M142.441475,9.13759616 L145.808613,9.13759616 L145.808613,7.73581425 L142.461501,7.73581425 L142.441475,9.13759616 Z M140.765058,9.48088973 L136.65984,9.48088973 L136.65984,7.39252074 L140.785084,7.39252074 L140.765058,9.48088973 Z M136.983108,9.13759616 L140.416043,9.13759616 L140.416043,7.73581425 L136.983108,7.73581425 L136.983108,9.13759616 Z M142.132511,6.2396266 L136.18209,6.2396266 L136.536826,5.9392448 C137.121443,5.44906099 137.676456,4.92461653 138.198939,4.36867684 L138.250433,4.31432203 L144.069259,4.31432203 L142.132511,6.2396266 Z M137.108982,5.89633309 L142.01808,5.89633309 L143.242493,4.65475483 L138.402055,4.65475483 C138.012989,5.08101097 137.581011,5.4843809 137.108982,5.89633309 Z M106.478617,4.79493298 L106.478617,6.66874351 L113.450336,6.66874351 L113.450336,8.2278683 L97.1639189,8.2278683 L97.1639189,6.68018661 L99.8673555,6.68018661 L99.8673555,2.50630941 L101.506582,2.50630941 L101.506582,6.68018661 L104.83939,6.68018661 L104.83939,1.53078363 L106.478617,1.53078363 L106.478617,3.2787199 L112.134378,3.2787199 L112.134378,4.79493298 L106.478617,4.79493298 Z M100.513892,15.5514637 L110.334948,15.5514637 L110.334948,9.05749437 L111.974174,9.05749437 L111.974174,18.0832535 L110.334948,18.0832535 L110.334948,17.2250197 L98.874665,17.2250197 L98.874665,9.08610213 L100.513892,9.08610213 L100.513892,15.5514637 Z M106.298388,8.9316201 C106.269534,9.30224354 106.20924,9.66974514 106.118159,10.0301594 L107.053633,10.7510758 C108.640412,11.9640463 109.697947,12.7631573 110.226238,13.1484089 L109.144863,14.4986969 C108.712886,14.1153525 108.149312,13.6404631 107.459864,13.0683072 C106.770416,12.4961512 106.129602,11.9869325 105.540281,11.5292078 C105.137212,12.1660751 104.624903,12.7268058 104.026929,13.1855991 C103.234526,13.7908833 102.376634,14.3052345 101.469392,14.7189769 L100.611158,13.2399539 C101.427443,12.9074519 102.203772,12.4842613 102.925529,11.9783501 C103.42375,11.6265823 103.833971,11.1644715 104.124195,10.6280623 C104.398088,10.0571148 104.563022,9.44006638 104.610528,8.80860653 L106.298388,8.9316201 Z" id="形状" fill="#282828"></path>
                    <path d="M112.145821,18.2549003 L110.163301,18.2549003 L110.163301,17.3966665 L98.7030183,17.3966665 L98.7030183,8.9230377 L100.685538,8.9230377 L100.685538,13.0139523 C101.437153,12.7018244 102.151928,12.3074989 102.816819,11.838172 C103.291502,11.5008219 103.682887,11.0595358 103.961131,10.5479605 C104.224555,9.99927426 104.384572,9.40672685 104.433159,8.80002421 L104.450324,8.63409901 L106.484338,8.78572033 L106.470034,8.95736708 C106.442145,9.30018807 106.38956,9.64055055 106.312692,9.97580456 L107.170925,10.6280623 C108.601315,11.7180192 109.602588,12.4818474 110.174744,12.8995212 L110.174744,8.89442995 L112.157264,8.89442995 L112.145821,18.2549003 Z M110.503733,17.9116067 L111.802527,17.9116067 L111.802527,9.22914112 L110.503733,9.22914112 L110.503733,15.7345536 L100.345106,15.7345536 L100.345106,9.26633128 L99.0606157,9.26633128 L99.0606157,17.0648161 L110.503733,17.0648161 L110.503733,17.9116067 Z M100.685538,15.3798169 L110.163301,15.3798169 L110.163301,13.4917025 L109.164889,14.7361416 L109.030432,14.6159888 C108.604176,14.2355052 108.054906,13.757755 107.351155,13.1855991 C106.718922,12.6649372 106.126741,12.187187 105.586054,11.7552094 C105.18497,12.3400704 104.695696,12.8592611 104.135638,13.2943087 C103.331987,13.9066605 102.462681,14.4276685 101.543772,14.8477119 L101.400733,14.9163706 L100.685538,13.6948179 L100.685538,15.3798169 Z M100.851464,13.3057518 L101.538051,14.4815322 C102.382431,14.0907006 103.182328,13.6101871 103.923941,13.0482817 C104.505104,12.60132 105.003702,12.0562509 105.397242,11.4376628 L105.497369,11.2745984 L105.648991,11.3918904 C106.221147,11.8438935 106.879126,12.3616946 107.571435,12.9338505 C108.206528,13.4573731 108.715746,13.8922116 109.124838,14.2498091 L109.983072,13.1798775 C109.410916,12.7622037 108.3982,11.9926541 106.953506,10.891254 L105.926486,10.0988181 L105.955094,9.98724766 C106.030769,9.69332345 106.083376,9.39393885 106.112437,9.09182375 L104.759288,8.98883568 C104.700222,9.58529946 104.535547,10.166505 104.272956,10.7053033 C103.970033,11.2642865 103.543413,11.7466796 103.025656,12.1156676 C102.345915,12.5926741 101.617025,12.9954819 100.851464,13.317195 L100.851464,13.3057518 Z M113.621983,8.4023759 L96.9922721,8.4023759 L96.9922721,6.51140064 L99.6957088,6.51140064 L99.6957088,2.3289411 L101.678229,2.3289411 L101.678229,6.51140064 L104.667743,6.51140064 L104.667743,1.36199766 L106.650264,1.36199766 L106.650264,3.10993392 L112.306024,3.10993392 L112.306024,4.96657973 L106.650264,4.96657973 L106.650264,6.51140064 L113.621983,6.51140064 L113.621983,8.4023759 Z M97.344148,8.05908232 L113.27869,8.05908232 L113.27869,6.85183344 L106.30697,6.85183344 L106.30697,4.63472933 L111.962731,4.63472933 L111.962731,3.46467053 L106.30697,3.46467053 L106.30697,1.71673433 L105.011037,1.71673433 L105.011037,6.85183344 L101.349239,6.85183344 L101.349239,2.67223468 L100.053306,2.67223468 L100.053306,6.85183344 L97.344148,6.85183344 L97.344148,8.05908232 Z M88.8304684,27.4294199 C90.8844227,27.4294199 92.5494816,29.0944789 92.5494816,31.1484332 C92.5494816,33.2023875 90.8844227,34.8674464 88.8304684,34.8674464 C86.7765141,34.8674464 85.1114551,33.2023875 85.1114551,31.1484332 C85.1114551,30.1620896 85.5032786,29.216144 86.2007289,28.5186937 C86.8981792,27.8212434 87.8441248,27.4294199 88.8304684,27.4294199 M88.8304684,26.3137151 C86.8721735,26.3125589 85.1061152,27.4914697 84.3561736,29.3004771 C83.606232,31.1094845 84.0201775,33.1921371 85.4049014,34.5768609 C86.7896252,35.9615848 88.8722778,36.3755304 90.6812852,35.6255888 C92.4902927,34.8756472 93.6692035,33.1095889 93.6680473,31.151294 C93.6680473,29.8682885 93.1583745,28.6378316 92.2511527,27.7306098 C91.3439308,26.8233879 90.1134739,26.3137151 88.8304684,26.3137151 L88.8304684,26.3137151 Z" id="形状" fill="#282828"></path>
                    <path d="M88.8304684,36.4494583 C86.6873014,36.4506148 84.7545209,35.1604926 83.9335644,33.1807965 C83.1126079,31.2011003 83.5651898,28.9217967 85.0802287,27.4059393 C86.5952676,25.8900819 88.8743265,25.4362689 90.8544658,26.2561561 C92.834605,27.0760432 94.1257712,29.0081266 94.1257712,31.151294 C94.1241947,34.0756189 91.7547921,36.4463017 88.8304684,36.4494583 Z M88.8304684,26.7714397 C87.0573059,26.7702836 85.4581507,27.8376734 84.7790561,29.4756408 C84.0999616,31.1136082 84.4747462,32.9993852 85.7285617,34.2532007 C86.9823772,35.5070162 88.8681542,35.8818008 90.5061217,35.2027063 C92.1440891,34.5236118 93.2114788,32.9244565 93.2103227,31.151294 C93.2071697,28.7336746 91.2480878,26.7745927 88.8304684,26.7714397 L88.8304684,26.7714397 Z M88.8304684,35.3337535 C87.1388215,35.3337535 85.6137449,34.31473 84.9663797,32.751852 C84.3190144,31.188974 84.6768479,29.3900236 85.8730229,28.1938485 C87.069198,26.9976735 88.8681484,26.63984 90.4310264,27.2872053 C91.9939044,27.9345705 93.012928,29.459647 93.012928,31.151294 C93.0097763,33.4598959 91.1390703,35.3306019 88.8304684,35.3337535 L88.8304684,35.3337535 Z M88.8304684,27.895727 C87.508826,27.8957275 86.3173749,28.6920189 85.8118719,29.9131681 C85.3063689,31.1343174 85.5864052,32.5397409 86.5213568,33.4738738 C87.4563084,34.4080067 88.8619767,34.6868116 90.0826826,34.180239 C91.3033886,33.6736665 92.0986359,32.4815183 92.0974798,31.1598763 C92.0982376,30.2926526 91.7544621,29.4606465 91.1417788,28.8468902 C90.5290955,28.2331339 89.6976922,27.8879031 88.8304684,27.8871447 L88.8304684,27.895727 Z M138.876944,27.4294199 C140.930898,27.4294199 142.595957,29.0944789 142.595957,31.1484332 C142.595957,33.2023875 140.930898,34.8674464 138.876944,34.8674464 C136.82299,34.8674464 135.157931,33.2023875 135.157931,31.1484332 C135.157931,30.1620896 135.549754,29.216144 136.247204,28.5186937 C136.944655,27.8212434 137.8906,27.4294199 138.876944,27.4294199 M138.876944,26.3137151 C136.918909,26.3137151 135.153729,27.4933611 134.404689,29.3024603 C133.655649,31.1115596 134.070301,33.1937429 135.45525,34.5778734 C136.840199,35.9620039 138.922627,36.3754249 140.731283,35.6253155 C142.539939,34.8752061 143.71854,33.1093287 143.717384,31.151294 C143.717384,29.8677927 143.207318,28.6369021 142.299478,27.7295979 C141.391637,26.8222938 140.160445,26.3129569 138.876944,26.3137151 L138.876944,26.3137151 Z" id="形状" fill="#282828"></path>
                    <path d="M138.876944,36.4494575 C135.950849,36.4494575 133.57878,34.0773889 133.57878,31.151294 C133.57878,28.2251991 135.950849,25.8531305 138.876944,25.8531305 C141.803039,25.8531305 144.175108,28.2251991 144.175108,31.151294 C144.171954,34.0760818 141.801732,36.4463041 138.876944,36.4494575 Z M138.876944,26.7714407 C137.104041,26.7714407 135.505764,27.8395649 134.827571,29.4776241 C134.149378,31.1156834 134.524869,33.0009911 135.77891,34.2542133 C137.032951,35.5074354 138.918503,35.8816953 140.556119,35.202433 C142.193735,34.5231707 143.260815,32.9241963 143.259659,31.151294 C143.256503,28.7325591 141.29568,26.7730164 138.876944,26.7714407 L138.876944,26.7714407 Z M138.876944,35.3337535 C137.185297,35.3337535 135.66022,34.31473 135.012855,32.751852 C134.36549,31.188974 134.723323,29.3900236 135.919498,28.1938485 C137.115674,26.9976735 138.914624,26.63984 140.477502,27.2872053 C142.04038,27.9345705 143.059404,29.459647 143.059404,31.151294 C143.057826,33.4605487 141.186199,35.3321756 138.876944,35.3337535 Z M138.876944,27.895727 C137.555302,27.8957275 136.36385,28.6920189 135.858347,29.9131681 C135.352844,31.1343174 135.632881,32.5397409 136.567832,33.4738738 C137.502784,34.4080067 138.908452,34.6868116 140.129158,34.180239 C141.349864,33.6736665 142.145111,32.4815183 142.143959,31.1598763 C142.145473,30.2924205 141.801942,29.459973 141.189094,28.8460518 C140.576246,28.2321305 139.744401,27.8871447 138.876944,27.8871447 L138.876944,27.895727 Z M116.139469,27.4294199 C118.193423,27.4294199 119.858482,29.0944789 119.858482,31.1484331 C119.858482,33.2023874 118.193423,34.8674464 116.139469,34.8674464 C114.085515,34.8674464 112.420456,33.2023875 112.420456,31.1484332 C112.420456,30.1620896 112.812279,29.216144 113.509729,28.5186937 C114.20718,27.8212434 115.153125,27.4294199 116.139469,27.4294199 M116.139469,26.3137151 C114.181434,26.3137151 112.416254,27.4933611 111.667214,29.3024603 C110.918174,31.1115596 111.332826,33.1937429 112.717775,34.5778734 C114.102724,35.9620039 116.185152,36.3754249 117.993808,35.6253155 C119.802464,34.8752061 120.981065,33.1093287 120.979909,31.151294 C120.979909,29.8677927 120.469843,28.6369021 119.562003,27.7295979 C118.654162,26.8222938 117.42297,26.3129569 116.139469,26.3137151 L116.139469,26.3137151 Z" id="形状" fill="#282828"></path>
                    <path d="M116.14233,36.4494583 C113.999163,36.4506148 112.066382,35.1604926 111.245426,33.1807965 C110.424469,31.2011003 110.877051,28.9217967 112.39209,27.4059393 C113.907129,25.8900819 116.186188,25.4362689 118.166327,26.2561561 C120.146466,27.0760432 121.437632,29.0081266 121.437632,31.151294 C121.434482,34.0749666 119.066,36.4447284 116.14233,36.4494583 L116.14233,36.4494583 Z M116.14233,26.7714322 C114.36865,26.7679678 112.76774,27.8338868 112.086842,29.4716684 C111.405944,31.1094501 111.779313,32.9961644 113.032677,34.2511671 C114.28604,35.5061698 116.172265,35.8820054 117.810935,35.2032486 C119.449605,34.5244918 120.517616,32.9249766 120.516462,31.151294 C120.513319,28.7359032 118.557714,26.777741 116.14233,26.7714322 L116.14233,26.7714322 Z M116.14233,35.3337545 C114.450423,35.3349108 112.924469,34.3166213 112.276202,32.7538352 C111.627935,31.1910492 111.985062,29.3916297 113.181012,28.1948614 C114.376962,26.9980932 116.176136,26.639735 117.739365,27.2869323 C119.302595,27.9341296 120.321929,29.4593868 120.321929,31.151294 C120.318781,33.4587813 118.449814,35.3290272 116.14233,35.3337545 L116.14233,35.3337545 Z M116.14233,27.895727 C114.820428,27.89457 113.628099,28.6901271 113.121694,29.9111844 C112.615289,31.1322418 112.894619,32.5381345 113.829345,33.4728609 C114.764072,34.4075872 116.169964,34.6869169 117.391022,34.1805122 C118.612079,33.6741075 119.407636,32.4817785 119.40648,31.1598763 C119.408061,29.3550919 117.947112,27.890302 116.14233,27.8871447 L116.14233,27.895727 Z M74.8469785,22.3801442 L75.9598217,22.3801442 L75.9598217,35.9917328 L74.8469785,35.9917328 L74.8469785,22.3801442 Z" id="形状" fill="#282828"></path>
                    <path d="M76.4175464,36.4494575 L74.3892538,36.4494575 L74.3892538,21.9224195 L76.4175464,21.9224195 L76.4175464,36.4494575 Z M75.3047032,35.5340081 L75.6735845,35.5340081 L75.6735845,22.8378689 L75.3260876,22.8378689 L75.3047032,35.5340081 Z M127.508206,27.4294199 C129.562161,27.4294199 131.22722,29.0944789 131.22722,31.1484331 C131.22722,33.2023874 129.562161,34.8674464 127.508206,34.8674464 C125.454252,34.8674464 123.789193,33.2023875 123.789193,31.1484332 C123.789193,30.1620896 124.181017,29.216144 124.878467,28.5186937 C125.575917,27.8212434 126.521863,27.4294199 127.508206,27.4294199 M127.508206,26.3137151 C125.550171,26.3137151 123.784991,27.4933611 123.035951,29.3024604 C122.286911,31.1115596 122.701563,33.1937429 124.086512,34.5778734 C125.471461,35.9620039 127.553889,36.3754248 129.362545,35.6253155 C131.171201,34.8752061 132.349802,33.1093287 132.348646,31.151294 C132.348646,29.8677927 131.838581,28.6369021 130.93074,27.7295979 C130.0229,26.8222937 128.791708,26.3129569 127.508206,26.3137151 L127.508206,26.3137151 Z" id="形状" fill="#282828"></path>
                    <path d="M127.508206,36.4494606 C124.583609,36.4431409 122.217283,34.0682825 122.221486,31.1436817 C122.2257,28.2190809 124.598853,25.8510432 127.523456,25.8531428 C130.448059,25.8552452 132.817813,28.2266902 132.817813,31.151294 C132.816297,32.5579721 132.256041,33.9064337 131.260296,34.9000322 C130.264552,35.8936308 128.914884,36.4509758 127.508206,36.4494606 L127.508206,36.4494606 Z M127.508206,26.7714407 C125.735304,26.7714407 124.137027,27.8395649 123.458834,29.4776241 C122.780641,31.1156834 123.156132,33.0009911 124.410172,34.2542133 C125.664213,35.5074354 127.549766,35.8816953 129.187382,35.202433 C130.824998,34.5231707 131.892078,32.9241963 131.890921,31.151294 C131.887766,28.7325591 129.926943,26.7730164 127.508206,26.7714407 Z M127.508206,35.3337535 C125.198298,35.3337535 123.325747,33.4612026 123.325747,31.151294 C123.325747,28.8413854 125.198298,26.9688345 127.508207,26.9688345 C129.818115,26.9688345 131.690666,28.8413854 131.690666,31.151294 C131.689088,33.4605488 129.817461,35.3321757 127.508206,35.3337535 L127.508206,35.3337535 Z M127.508206,27.895727 C126.186564,27.8957275 124.995113,28.6920189 124.48961,29.9131681 C123.984107,31.1343174 124.264143,32.5397409 125.199095,33.4738738 C126.134046,34.4080067 127.539715,34.6868116 128.760421,34.180239 C129.981127,33.6736665 130.776374,32.4815183 130.775222,31.1598763 C130.776736,30.2924205 130.433205,29.459973 129.820357,28.8460518 C129.207509,28.2321305 128.375664,27.8871447 127.508206,27.8871447 L127.508206,27.895727 Z" id="形状" fill="#282828"></path>
                    <polygon id="路径" fill="#282828" points="131.232941 22.3801442 132.345785 22.3801442 132.345785 35.9917328 131.232941 35.9917328"></polygon>
                    <path d="M132.817813,36.4494575 L130.78666,36.4494575 L130.78666,21.9224195 L132.817813,21.9224195 L132.817813,36.4494575 Z M131.702109,35.5340081 L132.07099,35.5340081 L132.07099,22.8350081 L131.702109,22.8350081 L131.702109,35.5340081 Z M81.1864658,30.0413116 L82.299309,30.0413116 L82.299309,35.9917328 L81.1864658,35.9917328 L81.1864658,30.0413116 Z" id="形状" fill="#282828"></path>
                    <path d="M82.7541729,36.4494575 L80.7258802,36.4494575 L80.7258802,29.5835868 L82.7541729,29.5835868 L82.7541729,36.4494575 Z M81.6413296,35.5340081 L82.010211,35.5340081 L82.010211,30.4990363 L81.6413296,30.4990363 L81.6413296,35.5340081 Z" id="形状" fill="#282828"></path>
                    <path d="M78.5745741,26.3136884 C77.5882305,26.3136884 76.6422849,26.7055394 75.9448346,27.4029897 C75.2473843,28.10044 74.8555609,29.0463856 74.8555609,30.0327292 L75.968404,30.0327292 C76.0150503,28.6230757 77.1713009,27.5044533 78.581726,27.5044533 C79.9921512,27.5044533 81.1484018,28.6230757 81.1950481,30.0327292 L82.3078913,30.0327292 C82.3078913,29.0439023 81.9141122,28.0957825 81.2135652,27.3979196 C80.5130182,26.7000566 79.5633938,26.3099127 78.5745741,26.3136884 L78.5745741,26.3136884 Z" id="路径" fill="#282828"></path>
                    <path d="M82.7541729,30.4990363 L80.7258802,30.4990363 L80.7258802,30.0413116 C80.683616,28.8813524 79.7310118,27.9628251 78.5702829,27.9628251 C77.4095541,27.9628251 76.4569499,28.8813524 76.4146857,30.0413116 L76.4146857,30.4990363 L74.386393,30.4990363 L74.386393,30.0413116 C74.3466214,28.5204673 75.1352535,27.0978153 76.4461142,26.3256798 C77.756975,25.5535443 79.3835909,25.5535443 80.6944517,26.3256798 C82.0053124,27.0978153 82.7939445,28.5204673 82.7541729,30.0413116 L82.7541729,30.4990363 Z M81.6098611,29.5835868 L81.8101157,29.5835868 C81.5798785,27.9727998 80.200302,26.7763911 78.5731438,26.7763911 C76.9459855,26.7763911 75.566409,27.9727998 75.3361718,29.5835868 L75.5364263,29.5835868 C75.7671094,28.0848298 77.0567376,26.9785099 78.5731437,26.9785099 C80.0895498,26.9785099 81.379178,28.0848298 81.6098611,29.5835868 Z M96.0596581,30.0384508 L104.516122,30.0384508 L104.516122,31.151294 L96.0596581,31.151294 L96.0596581,30.0384508 Z" id="形状" fill="#282828"></path>
                    <path d="M104.973847,31.6090187 L95.6019333,31.6090187 L95.6019333,29.5807261 L104.973847,29.5807261 L104.973847,31.6090187 Z M96.5173827,30.8650569 L104.058397,30.8650569 L104.058397,30.4961755 L96.5173827,30.4961755 L96.5173827,30.8650569 Z" id="形状" fill="#282828"></path>
                    <path d="M100.204927,26.3137159 C98.921922,26.3137159 97.6914651,26.8233879 96.7842432,27.7306098 C95.8770214,28.6378316 95.3673494,29.8682885 95.3673494,31.151294 L96.4859142,31.151294 C96.4859142,29.0973397 98.1509732,27.4322807 100.204927,27.4322807 C102.258882,27.4322807 103.923941,29.0973397 103.923941,31.151294 L105.036784,31.151294 C105.036784,28.4818062 102.874413,26.3168732 100.204927,26.3137159 L100.204927,26.3137159 Z" id="路径" fill="#282828"></path>
                    <path d="M105.494509,31.6090187 L103.466216,31.6090187 L103.466216,31.151294 C103.466216,29.3469741 102.003526,27.8842839 100.199206,27.8842839 C98.394886,27.8842839 96.9321958,29.3469741 96.9321958,31.151294 L96.9321958,31.6090187 L94.9039032,31.6090187 L94.9039032,31.151294 C94.9977949,28.2960716 97.3395793,26.0300291 100.196345,26.0300291 C103.053111,26.0300291 105.394895,28.2960716 105.488787,31.151294 L105.494509,31.6090187 Z M104.350197,30.6935693 L104.550451,30.6935693 C104.321167,28.4595144 102.439274,26.7608773 100.193484,26.7608773 C97.9476944,26.7608773 96.0658013,28.4595144 95.8365173,30.6935693 L96.0367718,30.6935693 C96.2728163,28.5760892 98.0628885,26.9744762 100.193484,26.9744762 C102.32408,26.9744762 104.114152,28.5760892 104.350197,30.6935693 L104.350197,30.6935693 Z" id="形状" fill="#282828"></path>
                    <path d="M100.204927,34.8760288 C98.1509732,34.8760288 96.4859142,33.2109699 96.4859142,31.1570156 L95.3730692,31.1570156 C95.3711842,33.3478915 96.8419378,35.2665317 98.9581032,35.8337928 C101.074269,36.4010538 103.307492,35.4753047 104.401691,33.577235 L103.434747,33.005079 C102.771714,34.1629596 101.539206,34.8769185 100.204927,34.8760288 L100.204927,34.8760288 Z" id="路径" fill="#282828"></path>
                    <path d="M100.204927,36.4494575 C97.2806038,36.4463017 94.9112012,34.0756189 94.9096247,31.151294 L94.9096247,30.6935693 L96.9379173,30.6935693 L96.9379173,31.151294 C96.9353191,32.6306531 97.9279589,33.9267989 99.3568672,34.3098537 C100.785776,34.6929085 102.293647,34.0670874 103.031378,32.784799 L103.263101,32.3900115 L105.019619,33.4027274 L104.790757,33.8003757 C103.842203,35.4362762 102.095934,36.445038 100.204927,36.4494575 L100.204927,36.4494575 Z M95.8479604,31.6090187 C96.036369,33.4136712 97.3180095,34.9152969 99.0706562,35.3848692 C100.823303,35.8544415 102.684015,35.1947206 103.749433,33.7259955 L103.574926,33.6258682 C102.555877,35.0170019 100.787072,35.6394723 99.12139,35.1931377 C97.4557075,34.7468032 96.2351387,33.3233034 96.048215,31.6090187 L95.8479604,31.6090187 Z M106.730365,26.3137159 L107.843209,26.3137159 L107.843209,35.988872 L106.730365,35.988872 L106.730365,26.3137159 Z" id="形状" fill="#282828"></path>
                    <path d="M108.300933,36.4494575 L106.272641,36.4494575 L106.272641,25.8645736 L108.300933,25.8645736 L108.300933,36.4494575 Z M107.18809,35.5340081 L107.556971,35.5340081 L107.556971,26.7714407 L107.18809,26.7714407 L107.18809,35.5340081 Z" id="形状" fill="#282828"></path>
                    <path d="M110.457961,27.4294199 L110.457961,26.3137159 C109.471617,26.3137159 108.525672,26.7055394 107.828221,27.4029897 C107.130771,28.10044 106.738948,29.0463856 106.738948,30.0327292 L107.851791,30.0327292 C107.859622,28.5971025 109.022327,27.4356746 110.457961,27.4294199 L110.457961,27.4294199 Z" id="路径" fill="#282828"></path>
                    <path d="M108.300933,30.4961755 L106.272641,30.4961755 L106.272641,30.0384508 C106.277367,27.7293862 108.148894,25.8591387 110.457961,25.8559913 L110.912825,25.8559913 L110.912825,27.8871447 L110.457961,27.8871447 C109.269548,27.8887093 108.305654,28.8500457 108.300933,30.0384508 L108.300933,30.4961755 Z M107.219559,29.5807261 L107.419813,29.5807261 C107.624878,28.2529194 108.666708,27.211089 109.994515,27.0060246 L109.994515,26.8029093 C108.556473,27.0122216 107.427389,28.1424693 107.219559,29.5807261 L107.219559,29.5807261 Z M145.408103,26.3823747 L146.520947,26.3823747 L146.520947,35.9917328 L145.408103,35.9917328 L145.408103,26.3823747 Z" id="形状" fill="#282828"></path>
                    <path d="M146.978671,36.4494575 L144.950379,36.4494575 L144.950379,25.9246499 L146.978671,25.9246499 L146.978671,36.4494575 Z M145.865828,35.5340081 L146.234709,35.5340081 L146.234709,26.8400994 L145.865828,26.8400994 L145.865828,35.5340081 Z M151.747591,30.0413116 L152.860434,30.0413116 L152.860434,35.9917328 L151.747591,35.9917328 L151.747591,30.0413116 Z" id="形状" fill="#282828"></path>
                    <path d="M153.321019,36.4494575 L151.289866,36.4494575 L151.289866,29.5835868 L153.321019,29.5835868 L153.321019,36.4494575 Z M152.205315,35.5340081 L152.574197,35.5340081 L152.574197,30.4990363 L152.205315,30.4990363 L152.205315,35.5340081 Z" id="形状" fill="#282828"></path>
                    <path d="M151.747591,30.0384508 L152.863295,30.0384508 C152.863295,29.0521071 152.471471,28.1061616 151.774021,27.4087113 C151.076571,26.711261 150.130625,26.3194375 149.144281,26.3194375 L149.144281,27.4351415 C150.579445,27.4414087 151.741323,28.6032868 151.747591,30.0384508 L151.747591,30.0384508 Z" id="路径" fill="#282828"></path>
                    <path d="M153.321019,30.4961755 L151.289866,30.4961755 L151.289866,30.0384508 C151.288288,28.8498546 150.324296,27.8871436 149.135699,27.8871447 L148.677974,27.8871447 L148.677974,25.8559913 L149.124256,25.8559913 C151.433323,25.8591387 153.30485,27.7293862 153.309576,30.0384508 L153.321019,30.4961755 Z M152.176708,29.5807261 L152.376962,29.5807261 C152.169704,28.1411241 151.038747,27.0101675 149.599145,26.8029093 L149.599145,27.0060246 C150.926275,27.2113681 151.967118,28.2533685 152.170986,29.5807261 L152.176708,29.5807261 Z" id="形状" fill="#282828"></path>
                    <path d="M149.124256,27.4294199 L149.124256,26.3137159 C148.137912,26.3137159 147.191967,26.7055394 146.494516,27.4029897 C145.797066,28.10044 145.405243,29.0463856 145.405243,30.0327292 L146.520947,30.0327292 C146.527214,28.5975652 147.689092,27.4356871 149.124256,27.4294199 L149.124256,27.4294199 Z" id="路径" fill="#282828"></path>
                    <path d="M146.978671,30.4961755 L144.950379,30.4961755 L144.950379,30.0384508 C144.955079,27.7338384 146.819658,25.8654252 149.124256,25.8559913 L149.581981,25.8559913 L149.581981,27.8871447 L149.124256,27.8871447 C147.935842,27.8887093 146.971949,28.8500457 146.967228,30.0384508 L146.978671,30.4961755 Z M145.897297,29.5807261 L146.100412,29.5807261 C146.303757,28.252048 147.346436,27.2093692 148.675114,27.0060246 L148.675114,26.8029093 C147.235959,27.0110612 146.105449,28.1415718 145.897297,29.5807261 L145.897297,29.5807261 Z M61.2382507,29.1859385 C61.2371447,28.2123258 61.4863822,27.2547808 61.9620279,26.4052609 L60.9893628,25.833105 C59.7939101,27.9653156 59.8288205,30.5737748 61.0809078,32.6732286 L62.0535728,32.1010728 C61.5231813,31.220971 61.241406,30.2135008 61.2382507,29.1859385 L61.2382507,29.1859385 Z" id="形状" fill="#282828"></path>
                    <path d="M60.9207042,33.3054609 L60.6889811,32.9192557 C59.3565728,30.6785563 59.3184207,27.8978179 60.5888538,25.6214073 L60.8177161,25.2180374 L62.5799562,26.2364749 L62.3596762,26.6284017 C61.4450317,28.2701149 61.4777642,30.2755254 62.4454996,31.8865143 L62.6858051,32.2870234 L60.9207042,33.3054609 Z M61.1753136,26.482502 C60.7806662,27.3291761 60.5756372,28.2518067 60.5745499,29.1859385 C60.5755605,30.1798841 60.8097436,31.15973 61.2582761,32.0467179 L61.4356445,31.9437299 C60.5911455,30.2607985 60.5616454,28.2842927 61.3555426,26.5769076 L61.1753136,26.482502 Z" id="形状" fill="#282828"></path>
                    <path d="M66.9569488,23.4643796 C69.033054,23.4653323 70.9457434,24.5908301 71.9547305,26.4052609 L72.9273955,25.833105 C71.7179869,23.6719793 69.4348956,22.3333609 66.9583792,22.3333609 C64.4818628,22.3333609 62.1987715,23.6719793 60.9893628,25.833105 L61.9620279,26.4052609 C62.9705167,24.5917244 64.8818681,23.4663698 66.9569488,23.4643796 Z" id="路径" fill="#282828"></path>
                    <path d="M71.7830837,27.0346324 L71.5542214,26.6284017 C70.6271036,24.958272 68.8671532,23.9223144 66.9569488,23.9223144 C65.0467444,23.9223144 63.286794,24.958272 62.3596762,26.6284017 L62.1336747,27.0346324 L60.3685738,26.0161949 L60.5888538,25.6214073 C61.8792953,23.3160184 64.314969,21.8881004 66.9569488,21.8881004 C69.5989286,21.8881004 72.0346023,23.3160184 73.3250438,25.6214073 L73.5453238,26.0161949 L71.7830837,27.0346324 Z M66.9569488,23.006655 C69.0310854,23.0114871 70.9647157,24.0556475 72.1063518,25.7873326 L72.2865809,25.6814837 C71.10644,23.8854859 69.1016901,22.8039783 66.9526576,22.8039783 C64.8036251,22.8039783 62.7988752,23.8854859 61.6187343,25.6814837 L61.7961027,25.7873326 C62.9406944,24.0530535 64.8790148,23.0086814 66.9569488,23.006655 L66.9569488,23.006655 Z M66.9569488,34.9046366 C64.9476106,34.9030485 63.0863723,33.8475505 62.0535728,32.123959 L61.0809078,32.6961149 C62.3142642,34.7678865 64.5472787,36.0372928 66.9583792,36.0372928 C69.3694797,36.0372928 71.6024942,34.7678865 72.8358506,32.6961149 L71.8631856,32.123959 C70.8298615,33.8484247 68.967307,34.9040532 66.9569488,34.9046366 Z" id="形状" fill="#282828"></path>
                    <path d="M66.9569488,36.4809261 C64.3880916,36.4731923 62.0104741,35.12215 60.6889811,32.9192557 L60.4515363,32.5187465 L62.2137765,31.5031698 L62.4454996,31.8865143 C63.3948216,33.4741538 65.1085653,34.4461706 66.9583792,34.4461706 C68.8081931,34.4461706 70.5219367,33.4741538 71.4712587,31.8865143 L71.7029819,31.5031698 L73.4652221,32.5187465 L73.2277773,32.9192557 C71.9057579,35.123021 69.5268266,36.4741933 66.9569488,36.4809261 L66.9569488,36.4809261 Z M61.727444,32.8305715 C62.9199082,34.5410193 64.8732886,35.5604241 66.9583792,35.5604241 C69.0434698,35.5604241 70.9968501,34.5410193 72.1893144,32.8305715 L72.0090853,32.7275835 C70.8538631,34.3734168 68.9691765,35.3531582 66.9583792,35.3531582 C64.9475819,35.3531582 63.0628952,34.3734168 61.9076731,32.7275835 L61.727444,32.8305715 Z" id="形状" fill="#282828"></path>
                </g>
                <g id="资源-2">
                    <g id="Clipped" transform="translate(36.261398, 0.000361)">
                        <mask id="mask-2" fill="white">
                            <use xlink:href="#path-1"></use>
                        </mask>
                        <g id="路径"></g>
                        <rect id="矩形" fill="#29303F" fill-rule="nonzero" mask="url(#mask-2)" x="-9.87175208e-15" y="0" width="16.880306" height="19.7110569"></rect>
                    </g>
                    <g id="Clipped" transform="translate(0.000000, 0.000357)">
                        <mask id="mask-4" fill="white">
                            <use xlink:href="#path-3"></use>
                        </mask>
                        <g id="形状"></g>
                        <rect id="矩形" fill="#29303F" fill-rule="nonzero" mask="url(#mask-4)" x="0" y="3.95084789e-06" width="15.9425112" height="19.7041102"></rect>
                    </g>
                    <g id="Clipped" transform="translate(17.818101, 0.000361)">
                        <mask id="mask-6" fill="white">
                            <use xlink:href="#path-5"></use>
                        </mask>
                        <g id="形状"></g>
                        <rect id="矩形" fill="#29303F" fill-rule="nonzero" mask="url(#mask-6)" x="0" y="0" width="16.5677077" height="19.7041102"></rect>
                    </g>
                    <g id="Clipped" transform="translate(76.504783, 0.000361)">
                        <mask id="mask-8" fill="white">
                            <use xlink:href="#path-7"></use>
                        </mask>
                        <g id="形状"></g>
                        <rect id="矩形" fill="#29303F" fill-rule="nonzero" mask="url(#mask-8)" x="-0.126608921" y="0" width="28.0991101" height="19.7041102"></rect>
                    </g>
                    <g id="Clipped" transform="translate(54.426003, -0.000000)">
                        <mask id="mask-10" fill="white">
                            <use xlink:href="#path-9"></use>
                        </mask>
                        <g id="形状"></g>
                        <rect id="矩形" fill="#4AA6C9" fill-rule="nonzero" mask="url(#mask-10)" x="0.000827098341" y="0.000361224141" width="21.117749" height="19.7041102"></rect>
                    </g>
                    <g id="Clipped" transform="translate(15.039443, 23.860689)">
                        <mask id="mask-12" fill="white">
                            <use xlink:href="#path-11"></use>
                        </mask>
                        <g id="形状"></g>
                        <rect id="矩形" fill="#28303F" fill-rule="nonzero" mask="url(#mask-12)" x="6.51719841e-06" y="0.0708056073" width="74.5373181" height="15.011663"></rect>
                    </g>
                </g>
                <rect id="矩形" fill="#ABBCCF" x="123.490041" y="2" width="1" height="34"></rect>
            </g>
        </g>
    </g>
</svg>