<?xml version="1.0" encoding="UTF-8"?>
<svg width="249px" height="201px" viewBox="0 0 249 201" version="1.1" xmlns="http://www.w3.org/2000/svg" xmlns:xlink="http://www.w3.org/1999/xlink">
    <title>快速链接</title>
    <defs>
        <path d="M4.18139457,28.8445354 C1.88162755,28.8445354 0,27.6645317 0,26.2223049 L0,2.62223049 C0,1.18000372 1.88162755,-1.43884904e-13 4.18139457,-1.43884904e-13 L69.0107281,-2.38031816e-13 C71.3104951,-2.38031816e-13 73.1921227,1.18000372 73.1921227,2.62223049 L73.1921227,2.62223049 L73.1921227,26.2223049 C73.1921227,27.6645317 71.3104951,28.8445354 69.0107281,28.8445354 L69.0107281,28.8445354 L4.18139457,28.8445354 Z" id="path-1"></path>
        <linearGradient x1="50%" y1="68.5255198%" x2="40.5944508%" y2="26.961013%" id="linearGradient-3">
            <stop stop-color="#A1B7FE" stop-opacity="0" offset="0%"></stop>
            <stop stop-color="#A1B7FE" stop-opacity="0.4" offset="100%"></stop>
        </linearGradient>
        <linearGradient x1="44.9388407%" y1="89.7953557%" x2="44.9388407%" y2="-14.8085695%" id="linearGradient-4">
            <stop stop-color="#A1B7FE" stop-opacity="0" offset="0%"></stop>
            <stop stop-color="#A1B7FE" stop-opacity="0.4" offset="100%"></stop>
        </linearGradient>
    </defs>
    <g id="打开项目" stroke="none" stroke-width="1" fill="none" fill-rule="evenodd" opacity="0.8">
        <g id="个人工作台-空" transform="translate(-120.000000, -977.000000)">
            <g id="编组-4" transform="translate(26.000000, 787.000000)">
                <g id="编组-11" transform="translate(94.000000, 78.000000)">
                    <g id="快速链接" transform="translate(0.000000, 112.000000)">
                        <g id="阴影" transform="translate(85.863874, 179.057592)" fill="#0E1D80" fill-opacity="0.1">
                            <ellipse cx="41.3612565" cy="10.9133559" rx="41.3612565" ry="9.94764398"></ellipse>
                        </g>
                        <g id="植物" transform="translate(151.832461, 170.680628) scale(-1, 1) translate(-151.832461, -170.680628) translate(141.361257, 151.832461)">
                            <g id="编组-4" transform="translate(0.000000, 0.808046)">
                                <path d="M12.5126062,35.8239782 C12.6487733,35.8059061 12.7820184,35.7814213 12.9111726,35.7499408 C14.5405028,35.3558518 16.0500292,33.7060413 17.1837812,32.5558377 C18.217015,31.5076542 19.080186,30.2163715 19.181873,28.710555 C19.2858977,27.1697603 18.5699976,25.744394 17.6553987,24.5504675 C16.9915109,23.6841713 16.1937937,22.9204781 15.3627652,22.2139161 C13.9794709,21.0386448 12.1707274,20.7792223 12.81007,18.5744225 C13.4774642,16.2716835 13.7988887,13.5188902 12.654033,11.3047629 C12.1637145,10.3574335 11.4139187,9.5919914 10.5963316,8.91924182 C9.65251226,8.14330622 7.04546711,7.39185543 7.47442276,5.94142133 C8.68181018,1.86353285 6.17762087,-0.354675244 2.29072168,0.0464094266 C1.4409921,0.594403017 0.419446499,1.30679469 0.277435297,2.38879054 C0.175163855,3.16997289 0.590093704,3.9313342 1.10846381,4.52538257 C2.30474748,5.89594952 4.29115108,7.25544 2.57708172,9.13377548 C1.96754392,9.80127831 1.1499568,10.2699877 0.612301217,10.9969537 C-0.299375635,12.2287733 -0.111196182,13.7445003 0.640352813,14.9920602 C1.56605546,16.52994 2.79915685,17.8451247 4.07784207,19.0990972 C5.41789016,20.4136989 6.63404371,23.9336832 5.16075054,25.5012947 C3.98901202,26.7494375 3.16207436,28.0926048 3.32337104,29.8910731 C3.54369294,32.34247 5.56399222,34.1100408 7.74091291,34.9629287 C9.0739481,35.4858545 10.9954824,36.0303503 12.5126062,35.8239782 Z" id="Stroke-19" fill="#A1B7FE"></path>
                                <path d="M3.75098254,2.94109812 C5.60074858,7.63834956 7.20325067,12.6206731 8.60014116,17.840141 L8.55610396,17.6765875 C9.97913803,15.5201744 11.0129562,13.3159576 11.4974306,11.0429502 C11.4161979,13.5718823 10.3438088,16.2436425 8.89798278,18.9690362 L8.89798278,18.9690362 L8.95223504,19.1774432 C9.80252235,22.4603993 10.5740791,25.8341639 11.2770354,29.2870808 L11.2155121,28.9853097 C12.8547772,27.4550084 14.0931383,25.6763612 15.011828,23.7030013 C14.3981994,25.9532728 13.16802,28.0554695 11.4282367,30.0358251 L11.4282367,30.0358251 L11.3532033,29.6628544 C11.7623807,31.6903673 12.1481096,33.7449357 12.5124309,35.8242114 L11.5709492,35.8632705 C10.1814982,28.2433311 8.60549087,20.854627 6.78939347,13.7631647 C5.15061737,13.5281403 3.51285395,12.4770893 1.87509054,10.6084612 C3.53480994,11.795975 5.10979014,12.6202973 6.46678607,12.5153623 C5.61485473,9.25722507 4.7114728,6.06382534 3.75098254,2.94109812 Z" id="形状结合" fill="#5266D4"></path>
                            </g>
                        </g>
                        <g id="消息(暗)" transform="translate(34.097855, 134.105828)">
                            <mask id="mask-2" fill="white">
                                <use xlink:href="#path-1"></use>
                            </mask>
                            <use id="形状结合" fill="#5266D4" fill-rule="nonzero" xlink:href="#path-1"></use>
                            <rect id="矩形" fill="#A1B7FE" mask="url(#mask-2)" x="10" y="7" width="53" height="4" rx="2"></rect>
                            <rect id="矩形" fill="#A1B7FE" mask="url(#mask-2)" x="10" y="18" width="53" height="4" rx="2"></rect>
                            <path d="M67.9550477,3.37804987 L67.9550477,-39.31032 C67.9550477,-41.9190537 65.2719862,-44.0534722 61.9926888,-44.0534722 L-15.5179771,-44.0534722 C-18.7972745,-44.0534722 -21.480336,-41.9190537 -21.480336,-39.31032 C-21.7678889,-11.1936725 -20.864545,3.91177174 -18.7703041,6.00601258 C-16.6760633,8.10025342 -9.62959537,8.80531658 2.36909964,8.12120208 L61.9926888,8.12120208 C65.2719862,8.12120208 67.9550477,5.98678358 67.9550477,3.37804987 Z" id="路径" fill-opacity="0.1" fill="#0E1D80" fill-rule="nonzero" mask="url(#mask-2)" transform="translate(23.211319, -17.839798) scale(1, -1) translate(-23.211319, 17.839798) "></path>
                        </g>
                        <g id="消息(亮)" transform="translate(81.712600, 48.406729)">
                            <path d="M13.6666537,7.13981856 L100.03208,7.12874556 C105.554927,7.12547226 110.032653,11.6020507 110.033361,17.1248982 C110.033361,17.1257533 110.033361,17.1266085 110.030796,17.1274634 L110.025346,59.5966703 C110.022071,65.1185156 105.545907,69.5946785 100.024062,69.5979524 L13.6586362,69.6090254 C8.13578908,69.6122987 3.65806259,65.1357202 3.6573545,59.6128728 C3.6573544,59.6120176 3.6573544,59.6111624 3.65991972,59.6103076 L3.66537034,17.1411006 C3.6686449,11.6192553 8.14480845,7.14309239 13.6666537,7.13981856 Z" id="矩形" fill="#A1B7FE" fill-rule="nonzero" transform="translate(56.845358, 38.368885) rotate(7.000000) translate(-56.845358, -38.368885) "></path>
                            <ellipse id="椭圆形" fill="#6E82EE" cx="28.5398569" cy="23.550071" rx="11.1042577" ry="11.0924881"></ellipse>
                        </g>
                        <g id="消息(黄白)" transform="translate(5.235602, 81.345842)">
                            <path d="M5.95317192,53.2941638 C2.67892737,53.2941638 -6.52062465e-13,51.1474043 -6.52062465e-13,48.5235872 L-6.52062465e-13,5.58839734 C-6.52062465e-13,2.96458019 2.67892737,0.817820695 5.95317192,0.817820695 L84.7848364,0.817820695 C88.059081,0.817820695 90.7380084,2.96458019 90.7380084,5.58839734 L90.7380084,5.58839734 L90.7380084,48.5235872 C90.7380084,51.1474043 88.059081,53.2941638 84.7848364,53.2941638 L84.7848364,53.2941638 L5.95317192,53.2941638 Z" id="形状结合" fill="#FDF4EA" fill-rule="nonzero"></path>
                            <path d="M20.0172338,10 C13.9357207,10 9,14.9520913 9,21.0537752 C9,27.1554591 13.9357207,32.1075503 20.0172338,32.1075503 C26.0987468,32.1075503 31.0344675,27.1554591 31.0344675,21.0537752 C31.0344675,14.9520913 26.0987468,10 20.0172338,10 Z" id="路径" stroke="#F6921C" stroke-width="2" fill="#FFFFFF" fill-rule="nonzero"></path>
                            <path d="M20.2624276,22.272878 C22.3394661,22.272878 26.4935431,23.4143258 26.5248552,25.4982533 C25.1784333,27.5298208 22.8717724,28.8702365 20.2624276,28.8702365 C17.6530828,28.8702365 15.3464219,27.5298208 14,25.4982533 C14.0313121,23.4143258 18.1749517,22.272878 20.2624276,22.272878 Z M20.2624276,14 C21.9950326,14 23.3936414,15.4032477 23.3936414,17.1415993 C23.3936414,18.8799508 21.9950326,20.2831985 20.2624276,20.2831985 C18.5298226,20.2831985 17.1312138,18.8799508 17.1312138,17.1415993 C17.1312138,15.4032477 18.5298226,14 20.2624276,14 Z" id="形状结合" fill="#F49130" fill-rule="nonzero"></path>
                            <rect id="矩形" fill="#F49130" x="35.7257965" y="11.8715959" width="46.3883527" height="4.65422112" rx="2.32711056"></rect>
                            <rect id="矩形" fill="#F49130" x="35.7257965" y="24.6707039" width="46.3883527" height="4.65422112" rx="2.32711056"></rect>
                            <rect id="矩形" fill="#F49130" x="10.792057" y="37.469812" width="71.3220922" height="4.65422112" rx="2.32711056"></rect>
                        </g>
                        <g id="人" transform="translate(112.041885, 89.005236)">
                            <g id="左胳膊" transform="translate(4.188482, 15.829059)">
                                <path d="M3.70740029,20.0366223 C3.34151371,23.0907316 2.40885266,26.945245 1.70368681,29.5988297 C1.80969006,31.4506275 2.74956041,32.4217935 3.02502808,33.2931874 C3.34213422,34.2972609 3.87125369,35.3196429 3.86120133,35.3138613 C2.8011347,34.6933015 2.83951642,33.8935116 2.51235792,33.473381 C2.19068253,33.0522869 2.36157258,33.1650283 2.21627035,34.0409428 C2.1321961,34.5400887 2.98024941,35.4767101 3.43534698,36.1415956 C3.83195812,36.7168662 3.83744122,37.0627994 3.83744122,37.0627994 C3.83744122,37.0627994 2.95740314,36.3670786 2.27749833,35.5027273 C1.45686054,34.4630005 0.8016297,33.1987544 0.707503094,32.9038921 C0.537526892,32.3633113 0.624342694,30.7059154 0.890273203,29.5380295 L0.899068504,29.4985016 L1.09196002,20.6465826 C1.09196002,20.6465826 1.42460162,16.032855 3.21392099,14.7185016 C3.3003347,14.7371492 4.30396192,15.0579594 3.70740029,20.0366223 Z" id="左手" fill="#FFE4A8"></path>
                                <path d="M6.36953832,7.36255483 L4.77669681,21.8464601 L4.77669681,22.6905756 L3.63448866e-14,22.4487115 C3.63448866e-14,22.4487115 1.38356973,11.2689983 1.59192765,10.7284174 C1.79937173,10.1878366 2.28462637,5.4979845 2.21517373,4.65772335 C2.14572109,3.81457139 2.35316516,-0.391552378 5.53884817,0.0295418005 C8.72178962,0.450635978 6.36953832,7.36255483 6.36953832,7.36255483" fill="#5266D4"></path>
                            </g>
                            <g id="左腿" transform="translate(0.000000, 40.959949)">
                                <polygon id="左脚" fill="#FFE4A8" points="8.2301533 51.6721315 7.87499775 58.4420056 2.83833122 58.7791545 0.602720475 58.5476648 5.04496876 57.3633211 5.54031729 51.7307244"></polygon>
                                <path d="M7.48628934,59.3123494 L6.38998022,59.4324167 L6.20025239,59.1711502 L2.03278235,59.2191771 L0.0186765136,58.7725268 C0.0186765136,58.7725268 -0.0654392755,58.4718783 0.12335394,58.3825483 C0.690668206,58.1078343 2.84964012,57.9618325 2.84964012,57.9618325 C2.84964012,57.9618325 2.56271182,58.3009025 2.79262831,58.451707 C3.0178717,58.6025115 5.79275812,58.5170236 6.47783449,58.4228909 C7.66199788,58.2547967 8.03958431,57.9579903 8.07603448,58.0396361 C8.16762723,58.2547967 7.48628934,59.3123494 7.48628934,59.3123494" id="左鞋" fill="#F49130"></path>
                                <path d="M6.69765709,2.53742668 L6.01631919,28.1597864 L3.95548236,53.303798 L8.49586573,53.6044465 C8.49586573,53.6044465 12.7353015,28.2731299 13.2399962,26.0802209 C13.7418871,23.8882725 19.116886,6.31138174 16.6111701,1.82470725 C14.1063889,-2.66196725 6.69765709,2.53742668 6.69765709,2.53742668" fill="#0E1D80"></path>
                            </g>
                            <g id="右胳膊" transform="translate(20.942408, 15.829059)">
                                <path d="M3.56063802,13.3474819 C5.59093221,15.4541699 6.79757135,22.9309396 7.16852426,25.5741299 L7.18268466,25.5948229 C7.20749922,25.6649512 7.22407676,25.8378002 7.23765973,26.0741673 C7.27358411,26.3532916 7.2918898,26.508205 7.2918898,26.508205 C7.2918898,26.508205 7.28289264,26.5528858 7.26151095,26.6171275 C7.30034426,27.5861394 7.34334256,28.9407681 7.56284649,29.396364 C7.89548809,30.0886818 7.99601165,31.9574625 7.99601165,31.9574625 L7.99601165,31.9574625 L7.8397432,33.7030583 L7.27863897,34.6694385 L6.24416015,35.6491876 L6.48907209,34.8776113 C6.48907209,34.8776113 6.83724915,34.5242905 7.02093311,34.0707029 C7.20461707,33.6142506 7.07028104,31.9011221 7.07028104,31.9011221 C7.07028104,31.9011221 6.63163278,31.7578839 6.660876,32.0835121 C6.68920536,32.4100951 6.63528818,33.6514926 6.63528818,33.6514926 C6.63528818,33.6514926 6.28711112,33.0384332 6.1582582,32.253488 C6.08515015,31.7941709 6.4077394,30.0323414 6.1673967,28.8711573 C5.9642122,27.8924124 5.30146545,25.7046608 5.09735283,25.0385482 C4.32417274,23.5554019 3.2906405,21.0616702 1.91753473,16.966633 C0.548586611,12.8853001 2.95018585,12.7134143 3.56063802,13.3474819 Z" id="右手" fill="#FFE4A8"></path>
                                <path d="M0.659345298,7.42401058 L2.25127295,21.7774302 L2.25127295,22.6139411 L7.02979746,22.3742559 C4.87585172,13.9757245 4.39242478,12.3084322 4.32662754,10.7595501 C4.30560898,10.1951917 4.19046381,5.57623819 4.25808875,4.74354695 C4.32662754,3.90799096 4.39242478,1.64578279 1.48912159,0.157060735 C-1.27801786,-1.26386192 0.659345298,7.42401058 0.659345298,7.42401058" fill="#5266D4"></path>
                            </g>
                            <g id="右腿" transform="translate(16.753927, 41.007069)">
                                <path d="M0.0963350785,51.031025 L0.16868158,59.7200546 L4.49519277,58.4598283 C4.49519277,58.4598283 6.32479772,57.3590514 4.74745359,57.5012111 C2.43902903,57.7106084 2.90832937,56.9018352 2.83598287,55.343842 C2.76458829,53.7858489 3.12441694,50.7908904 3.12441694,50.7908904 L0.0963350785,51.031025 Z" id="右脚" fill="#FFE4A8"></path>
                                <path d="M5.07253689,57.5014992 C5.07253689,57.5014992 4.58039029,57.8837935 4.06158972,58.159468 C3.55611614,58.4293793 2.10347454,59.0258736 1.53898144,59.1190458 C0.816468348,59.2391131 0.132984293,59.1805202 0.132984293,59.1805202 C0.132984293,59.1805202 -0.192574964,60.0767025 0.528986197,60.0190702 C1.2486435,59.9575957 4.85644931,58.6397371 5.36001904,58.3410097 C5.86358877,58.0413218 5.93879105,57.5610526 5.07253689,57.5014992" id="右鞋" fill="#F49130"></path>
                                <path d="M0.507377439,26.6546756 L0,51.568158 L3.65349833,51.4096692 C3.65349833,51.4096692 7.33936221,26.3300136 7.64969062,24.1130912 C7.96097097,21.8971293 12.3807711,7.1461423 9.4250357,2.83620686 C6.46739648,-1.47372858 0.204188482,2.98769501 0.204188482,2.98769501 L0.507377439,26.6546756 Z" fill="#0E1D80"></path>
                            </g>
                            <path d="M16.4706018,14.7819385 C16.4706018,14.7819385 10.8000974,15.0981559 9.45477981,15.5748704 C8.10851074,16.0515848 8.39869594,21.535234 9.26068872,25.5887398 C10.1264872,29.6393797 9.74306216,34.1695999 8.49288721,36.7117586 C7.24366368,39.2548725 6.28272251,44.1013102 6.28272251,44.1013102 L26.1780105,43.8634307 C26.1780105,43.8634307 21.6606355,33.7721787 21.6606355,29.8791699 C21.6606355,25.9861611 22.9089076,17.0862176 22.8128135,16.2111265 C22.7176708,15.3369908 17.7207767,14.7819385 16.4706018,14.7819385" id="身子" fill="#7589F2"></path>
                            <path d="M7.75489272,13.5080082 C7.75012224,13.5002235 7.74248948,13.4924389 7.73771899,13.4856273 C8.98090615,12.2313209 9.68979952,10.8213209 9.68979952,8.75740784 C9.68979952,7.88260454 9.60297678,7.56635195 9.56195065,6.26436439 L9.56481294,6.26241822 C9.55527198,6.13786335 9.53523596,6.01720083 9.53523596,5.89167288 L9.53523596,4.31819463 C9.53523596,2.00127954 11.7716371,0.122252638 14.5308829,0.122252638 L15.7807487,0.122252638 C18.5409486,0.122252638 20.7763957,2.00127954 20.7763957,4.31819463 L20.7763957,7.41649688 C20.7830743,7.41941614 20.789753,7.41941614 20.7964317,7.42136231 C20.7907071,7.51964388 20.7821202,7.61597928 20.7763957,7.71328777 L20.7763957,7.88357762 C20.8164677,10.3571594 22.2876838,12.5397888 24.5393505,13.9137846 C26.1260122,14.5531014 27.2251309,15.9125009 27.2251309,17.4888985 C27.2251309,19.4808032 25.4753187,21.1243436 23.1969374,21.4094574 C22.2571527,23.6456065 19.6820475,25.2531427 16.6413434,25.2531427 C14.015671,25.2531427 11.7315651,24.053329 10.5542105,22.2842607 C8.04684612,21.4259999 6.28272251,19.3912794 6.28272251,17.0179254 C6.28272251,15.6935569 6.83514413,14.4772008 7.75489272,13.5080082" id="头发" fill="#0E1D80"></path>
                        </g>
                        <g id="云">
                            <path d="M80.1170764,29.4086137 C80.1170764,29.3787759 80.1181575,29.3492095 80.1181575,29.3193717 C80.1181575,13.1267044 67.0394896,0 50.9060787,0 C38.9441232,0 28.6631817,7.21747674 24.1457942,17.5491992 C22.9998939,17.3511851 21.8223733,17.2467531 20.6202591,17.2467531 C9.2320644,17.2467531 0,26.5127259 0,37.9427483 C0,49.3727706 9.2320644,58.6387435 20.6202591,58.6387435 L81.7291743,58.6387435 C89.7958798,58.6387435 96.3350785,52.0752556 96.3350785,43.978922 C96.3350785,35.8825883 89.7958798,29.3193717 81.7291743,29.3193717 C81.1843312,29.3193717 80.6465148,29.3502945 80.1170764,29.4086137 Z" id="Fill-5" fill="url(#linearGradient-3)"></path>
                            <path d="M231.949537,52.4452629 C231.949537,52.4154252 231.950618,52.3858587 231.950618,52.3560209 C231.950618,36.1633537 218.87195,23.0366492 202.738539,23.0366492 C190.776584,23.0366492 180.495642,30.254126 175.978255,40.5858484 C174.832355,40.3878344 173.654834,40.2834023 172.45272,40.2834023 C161.064525,40.2834023 151.832461,49.5493751 151.832461,60.9793975 C151.832461,72.4094198 161.064525,81.6753927 172.45272,81.6753927 L233.561635,81.6753927 C241.62834,81.6753927 248.167539,75.1119048 248.167539,67.0155712 C248.167539,58.9192375 241.62834,52.3560209 233.561635,52.3560209 C233.016792,52.3560209 232.478976,52.3869437 231.949537,52.4452629 Z" id="Fill-5备份" fill="url(#linearGradient-4)" transform="translate(200.000000, 52.356021) scale(-1, 1) translate(-200.000000, -52.356021) "></path>
                        </g>
                    </g>
                </g>
            </g>
        </g>
    </g>
</svg>