<?xml version="1.0" encoding="UTF-8"?>
<svg width="259px" height="199px" viewBox="0 0 259 199" version="1.1" xmlns="http://www.w3.org/2000/svg" xmlns:xlink="http://www.w3.org/1999/xlink">
    <title>代办</title>
    <defs>
        <linearGradient x1="50%" y1="68.5255198%" x2="40.5944508%" y2="26.961013%" id="linearGradient-1">
            <stop stop-color="#A1B7FE" stop-opacity="0" offset="0%"></stop>
            <stop stop-color="#A1B7FE" stop-opacity="0.4" offset="100%"></stop>
        </linearGradient>
        <path d="M9.72514312,52.3369707 C14.8107459,55.4088373 20.99079,55.0735279 25.964629,51.9692121 C28.3004213,50.512374 30.3515324,48.432239 31.6800451,46.0708768 C32.7063036,44.24628 33.1097778,42.1573567 34.1515004,40.3435764 C35.3324006,38.2871024 36.5210328,38.7015069 38.748576,38.6136234 C41.9419268,38.4872063 45.706749,38.1093073 47.7648893,35.4356206 C50.0634271,32.4489335 49.7906954,26.745294 49.8841833,23.1704634 C49.9326845,21.3330221 50.604673,20.3122214 52.2045115,19.3042652 C57.9332831,15.6936052 67.0423813,7.6576727 59.0326449,1.5274602 C54.4686064,-1.96624715 46.7421454,1.62007589 43.0855724,4.52158362 C38.2741072,8.33910788 34.19719,13.3714526 30.8035079,18.3733761 C29.2381123,20.6799801 27.6502233,20.4602713 25.0142855,19.9025491 C19.2749702,18.6904327 13.9848187,20.0222059 9.76239771,24.0283417 C5.65384926,27.9269892 0.67579279,32.9451373 0.315899411,38.8157555 C-0.0425881353,44.6681209 4.95796167,49.4570959 9.72514312,52.3369707 Z" id="path-2"></path>
    </defs>
    <g id="打开项目" stroke="none" stroke-width="1" fill="none" fill-rule="evenodd" opacity="0.8">
        <g id="个人工作台-空" transform="translate(-218.000000, -491.000000)">
            <g id="编组-4" transform="translate(26.000000, 319.000000)">
                <g id="编组-2" transform="translate(192.000000, 77.000000)">
                    <g id="代办" transform="translate(0.000000, 95.000000)">
                        <g id="云" transform="translate(213.000000, 28.000000) scale(-1, 1) translate(-213.000000, -28.000000) translate(167.000000, 0.000000)" fill="url(#linearGradient-1)">
                            <path d="M76.511808,28.0852261 C76.511808,28.056731 76.5128404,28.028495 76.5128404,28 C76.5128404,12.5360027 64.0227126,0 48.6153052,0 C37.1916376,0 27.3733385,6.89269028 23.0592334,16.7594852 C21.9648987,16.5703818 20.8403665,16.4706492 19.6923474,16.4706492 C8.8166215,16.4706492 0,25.3196532 0,36.2353246 C0,47.1509959 8.8166215,56 19.6923474,56 L78.0513615,56 C85.7550652,56 92,49.7318691 92,41.9998705 C92,34.2678718 85.7550652,28 78.0513615,28 C77.5310363,28 77.0174216,28.0295312 76.511808,28.0852261 Z" id="Fill-5"></path>
                        </g>
                        <g id="Group" transform="translate(9.756098, 0.000000)">
                            <path d="M20.2743902,10.5182927 C20.2743902,4.70920004 15.5651902,-1.06711301e-15 9.75609756,0 L9.75609756,0 L127.636997,0 C136.88956,-1.69966819e-15 144.390244,7.50068406 144.390244,16.7532468 L144.390244,110.243902 L20.2743902,110.243902 Z" id="Combined-Shape" fill="#F2F4FD"></path>
                            <path d="M10.7317073,0 C16.6586656,-1.08876457e-15 21.4634146,4.80474903 21.4634146,10.7317073 L21.4634146,31.2195122 L21.4634146,31.2195122 L0,31.2195122 L0,10.7317073 C-7.2584305e-16,4.80474903 4.80474903,1.08876457e-15 10.7317073,0 Z" id="Rectangle-5" fill="#DEE0ED"></path>
                            <rect id="Rectangle-14" fill="#CFD5F1" x="37.0731707" y="15.6097561" width="31.2195122" height="31.2195122" rx="15.6097561"></rect>
                            <rect id="Rectangle-14-Copy-4" fill="#DEE0ED" opacity="0.605915179" x="79.0243902" y="15.6097561" width="49.7560976" height="31.2195122" rx="2.23376623"></rect>
                            <rect id="Rectangle-14-Copy-7" fill="#DEE0ED" opacity="0.605915179" x="79.0243902" y="55.6097561" width="49.7560976" height="24.3902439" rx="2.23376623"></rect>
                            <rect id="Rectangle-14-Copy-8" fill="#DEE0ED" opacity="0.605915179" x="79.0243902" y="87.804878" width="49.7560976" height="24.3902439" rx="2.23376623"></rect>
                            <path d="M21.4634146,110.243902 L52.6829268,110.243902 L52.6829268,125.853659 C52.6829268,134.474689 45.694201,141.463415 37.0731707,141.463415 C28.4521405,141.463415 21.4634146,134.474689 21.4634146,125.853659 L21.4634146,110.243902 L21.4634146,110.243902 Z" id="Rectangle-5-Copy" fill="#F2F4FD"></path>
                            <rect id="Rectangle-14-Copy" fill="#DEE0ED" x="37.0731707" y="55.6097561" width="31.2195122" height="7.80487805" rx="3.90243902"></rect>
                            <rect id="Rectangle-14-Copy-2" fill="#DEE0ED" x="37.0731707" y="72.195122" width="31.2195122" height="7.80487805" rx="3.90243902"></rect>
                            <rect id="Rectangle-14-Copy-5" fill="#E8EAF4" x="37.0731707" y="104.390244" width="31.2195122" height="7.80487805" rx="3.90243902"></rect>
                            <rect id="Rectangle-14-Copy-3" fill="#E8EAF4" x="37.0731707" y="87.804878" width="31.2195122" height="7.80487805" rx="3.90243902"></rect>
                            <rect id="Rectangle-14-Copy-6" fill="#E8EAF4" x="37.0731707" y="120.97561" width="31.2195122" height="7.80487805" rx="3.90243902"></rect>
                            <path d="M165.853659,110.243902 L165.853659,124.710168 C165.853659,133.962731 158.352974,141.463415 149.100412,141.463415 L37.0731707,141.463415 L37.389755,141.460287 C45.9172186,141.291674 52.7781083,134.326299 52.7781083,125.758477 L52.7781083,125.758477 L52.7781083,110.243902 L165.853659,110.243902 Z" id="Combined-Shape" fill="#DEE0ED"></path>
                        </g>
                        <g id="编组-14" transform="translate(57.926829, 20.000000)">
                            <ellipse id="阴影" fill-opacity="0.1" fill="#0E1D80" cx="85.5731707" cy="158.5" rx="85.5" ry="20.5"></ellipse>
                            <g id="植物" transform="translate(93.073171, 110.000000)">
                                <g id="编组-2" transform="translate(28.000000, 24.000000)">
                                    <path d="M0.233945894,27.2598907 C0.291736044,27.8793791 4.5445341,29.1818222 5.19345483,29.399126 C6.68903607,29.8999596 8.233356,30.2821383 9.80552659,30.448393 C12.4227938,30.7243344 15.0860146,30.3711294 17.424775,29.1321528 C22.5346776,26.4251682 25.2535997,20.9318658 26.3523088,15.5144473 C27.255367,11.0593742 31.2094665,13.2758731 34.4081165,13.3048469 C37.0232949,13.3289918 39.6920858,13.1275546 42.2076981,12.3756144 C44.5012011,11.6899002 46.695138,10.505422 48.1489433,8.57107311 C48.9057854,7.56388719 49.4217191,6.40562339 49.7225064,5.18734234 C51.2417607,-0.960630889 38.677625,-0.0955547642 35.6140508,0.244542947 C33.1826868,0.514275614 30.7798699,0.988894732 28.393067,1.51594271 C26.4539638,1.94365179 23.657756,3.20263419 21.685232,3.04189836 C4.20057827,1.6166613 -1.25676148,11.2456346 0.233945894,27.2598907 Z" id="Stroke-11" fill="#5266D4"></path>
                                    <path d="M1.87212259,28.2386547 C6.50508236,8.23221714 21.151056,-1.52368921 49.3979068,2.64578455 C30.626579,1.10068355 17.8020345,5.22373787 10.3602064,14.4773872 C15.4832348,14.8953729 19.123318,17.7286006 21.7586881,22.1974708 C17.9452345,18.7688995 13.9110642,16.1833291 9.26487537,15.9329123 L10.3385619,14.5043347 C7.20285423,18.4131562 5.02541908,23.2353656 3.76387969,28.9305776 L3.76387969,28.9305776 Z M32.1198355,3.04148445 C36.7193744,4.71851799 38.8422921,8.10983715 39.6785086,12.391757 C37.6530683,8.41889146 34.6904528,5.23590801 30.1452226,3.38848069 L30.1452226,3.38848069 Z" id="形状结合" fill="#0E1D80"></path>
                                </g>
                                <g id="编组-3">
                                    <g id="形状结合" transform="translate(0.405218, 0.591430)">
                                        <mask id="mask-3" fill="white">
                                            <use xlink:href="#path-2"></use>
                                        </mask>
                                        <use id="蒙版" fill="#A1B7FE" xlink:href="#path-2"></use>
                                        <path d="M7.33032686,-11.2588037 L17.5691274,51.2352945 C17.6639657,51.8141543 17.2715887,52.3602944 16.692729,52.4551326 C16.6890747,52.4557313 16.6854173,52.4563109 16.681757,52.4568713 C16.094054,52.5468569 15.5434635,52.1469002 15.4473359,51.5601706 L14.2986564,44.5515847 L-7.69434363,44.5515847 L-6.59857227,51.2352945 C-6.50373406,51.8141543 -6.89611102,52.3602944 -7.47497075,52.4551326 C-7.47862502,52.4557313 -7.48228239,52.4563109 -7.48594272,52.4568713 C-8.07364569,52.5468569 -8.62423626,52.1469002 -8.72036385,51.5601705 L-18.9592076,-10.9341977 C-19.0540458,-11.5130574 -18.6616689,-12.0591975 -18.0828091,-12.1540357 C-18.0791549,-12.1546344 -18.0754975,-12.155214 -18.0718372,-12.1557744 C-17.4841342,-12.24576 -16.9335436,-11.8458033 -16.837416,-11.2590737 L-16.5403436,-9.44341527 L5.45165637,-9.44341527 L5.20853528,-10.9339277 C5.11369706,-11.5127874 5.50607401,-12.0589275 6.08493374,-12.1537657 C6.08858801,-12.1543644 6.09224538,-12.154944 6.09590571,-12.1555045 C6.68360868,-12.24549 7.23419926,-11.8455334 7.33032686,-11.2588037 Z M13.9586564,42.4755847 L12.5976564,34.1685847 L-9.39534363,34.1685847 L-8.03434363,42.4755847 L13.9586564,42.4755847 Z M12.2566564,32.0915847 L10.8956564,23.7845847 L-11.0973436,23.7845847 L-9.73634363,32.0915847 L12.2566564,32.0915847 Z M10.5556564,21.7075847 L9.19465637,13.4005847 L-12.7983436,13.4005847 L-11.4373436,21.7075847 L10.5556564,21.7075847 Z M8.85465637,11.3235847 L7.49365637,3.01658473 L-14.4993436,3.01658473 L-13.1383436,11.3235847 L8.85465637,11.3235847 Z M7.15365637,0.940584726 L5.79265637,-7.36641527 L-16.2003436,-7.36641527 L-14.8393436,0.940584726 L7.15365637,0.940584726 Z" fill-opacity="0.1" fill="#0E1D80" mask="url(#mask-3)"></path>
                                    </g>
                                    <path d="M53.7259611,0.727627034 C49.4646543,4.31172491 45.3483401,8.1713458 41.3631743,12.2801557 C47.5368865,11.2528511 53.0762569,12.7333367 58.3049717,15.4467621 C52.011758,13.8959563 45.9244989,13.1361019 40.1430086,13.5511825 L40.1430086,13.5511825 L41.3234754,12.321099 C29.9676217,24.036556 19.6767617,37.7755591 10.1303609,52.9284011 L10.1303609,52.9284011 L8.54528361,51.9008401 C12.2523053,45.277549 16.373483,39.0011192 20.8983619,33.0627348 L21.2178184,32.6456317 C20.3616658,28.717239 18.6493605,24.8179155 16.0991785,20.9463091 C19.2637098,23.878238 21.5524067,27.1644051 22.5062648,30.9880136 L22.5062648,30.9880136 L22.4199282,31.0978961 C31.3672229,19.728607 41.8279732,9.62660719 53.7259611,0.727627034 Z M48.2588854,29.8161208 C42.4464668,26.8280817 35.8847388,25.8316179 28.5744046,26.8280817 L30.217121,24.8033809 C37.9913804,23.8657315 44.0055361,25.5368702 48.2588854,29.8161208 Z" id="形状结合" fill="#5266D4"></path>
                                </g>
                            </g>
                            <g id="铅笔人" transform="translate(36.073171, 0.000000)">
                                <g id="梯子" transform="translate(15.024242, 84.810908)">
                                    <path d="M14.6068126,0.0147718442 C14.6104352,0.0153298592 14.6140555,0.0159034647 14.6176732,0.0164926446 C15.3217516,0.13115761 15.8017814,0.791941069 15.6931817,1.49698046 L13.3490057,16.7127026 L39.7110057,16.7127026 L42.1187222,1.08278213 C42.2261213,0.385537238 42.8784141,-0.0926272561 43.575659,0.0147718442 C43.5792817,0.0153298592 43.5829019,0.0159034647 43.5865197,0.0164926446 C44.2905981,0.13115761 44.7706278,0.791941069 44.6620281,1.49698046 L42.3180057,16.7127026 L45.6108812,16.7134044 L45.6108812,19.3611478 L41.9100057,19.3607026 L40.2790057,29.9517026 L43.6796247,29.9521214 L43.6796247,32.5998648 L39.8710057,32.5997026 L38.2400057,43.1907026 L41.7483683,43.1908384 L41.7483683,45.8385818 L37.8320057,45.8377026 L36.2000057,56.4287026 L39.1733597,56.4295554 L39.1733597,59.0772988 L35.7930057,59.0767026 L34.1610057,69.6677026 L37.8858554,69.6682724 L37.8858554,72.3160158 L33.7530057,72.3157026 L32.3654844,81.3272796 C32.2580853,82.0245245 31.6057925,82.502689 30.9085476,82.3952899 C30.9049249,82.3947319 30.9013046,82.3941583 30.8976869,82.3935691 C30.1936085,82.2789041 29.7135788,81.6181207 29.8221785,80.9130813 L31.1460057,72.3157026 L4.78400569,72.3157026 L3.396638,81.3272796 C3.2892389,82.0245245 2.63694606,82.502689 1.93970116,82.3952899 C1.93607848,82.3947319 1.93245821,82.3941583 1.92884046,82.3935691 C1.22476207,82.2789041 0.744732341,81.6181207 0.853332054,80.9130813 L13.1498757,1.08278213 C13.2572748,0.385537238 13.9095677,-0.0926272561 14.6068126,0.0147718442 Z M33.1860057,59.0767026 L6.82400569,59.0767026 L5.19200569,69.6677026 L31.5540057,69.6677026 L33.1860057,59.0767026 Z M35.2250057,45.8377026 L8.86300569,45.8377026 L7.23100569,56.4287026 L33.5940057,56.4287026 L35.2250057,45.8377026 Z M37.2640057,32.5997026 L10.9020057,32.5997026 L9.27100569,43.1907026 L35.6330057,43.1907026 L37.2640057,32.5997026 Z M39.3030057,19.3607026 L12.9410057,19.3607026 L11.3100057,29.9517026 L37.6720057,29.9517026 L39.3030057,19.3607026 Z" id="形状结合" fill="#303F9F"></path>
                                    <path d="M45.2388065,1.07192143 C45.2393957,1.07553918 45.2399693,1.07915945 45.2405273,1.08278213 L57.537071,80.9130813 C57.6456707,81.6181207 57.1656409,82.2789041 56.4615625,82.3935691 C55.765268,82.5069664 55.1088831,82.0344348 54.9954858,81.3381403 C54.9948966,81.3345225 54.994323,81.3309023 54.993765,81.3272796 L53.6050486,72.3156891 L27.2440486,72.3156891 L28.5682245,80.9130813 C28.6768242,81.6181207 28.1967945,82.2789041 27.4927161,82.3935691 C26.7964216,82.5069664 26.1400367,82.0344348 26.0266394,81.3381403 C26.0260502,81.3345225 26.0254766,81.3309023 26.0249186,81.3272796 L13.7283749,1.49698046 C13.6197752,0.791941069 14.0998049,0.13115761 14.8038833,0.0164926446 C15.5001778,-0.096904654 16.1565628,0.375626911 16.2699601,1.07192143 C16.2705492,1.07553918 16.2711228,1.07915945 16.2716809,1.08278213 L16.6390486,3.47368912 L43.0020486,3.47368912 L42.6972214,1.49698046 C42.5886216,0.791941069 43.0686514,0.13115761 43.7727298,0.0164926446 C44.4690243,-0.096904654 45.1254092,0.375626911 45.2388065,1.07192143 Z M53.1970486,69.6676891 L51.5660486,59.0766891 L25.2040486,59.0766891 L26.8360486,69.6676891 L53.1970486,69.6676891 Z M51.1580486,56.4286891 L49.5270486,45.8376891 L23.1640486,45.8376891 L24.7960486,56.4286891 L51.1580486,56.4286891 Z M49.1190486,43.1906891 L47.4880486,32.5996891 L21.1250486,32.5996891 L22.7570486,43.1906891 L49.1190486,43.1906891 Z M47.0800486,29.9516891 L45.4490486,19.3606891 L19.0860486,19.3606891 L20.7180486,29.9516891 L47.0800486,29.9516891 Z M45.0410486,16.7126891 L43.4090486,6.12168912 L17.0470486,6.12168912 L18.6780486,16.7126891 L45.0410486,16.7126891 Z" id="形状结合" fill="#5266D4"></path>
                                </g>
                                <g id="编组-22" transform="translate(0.000000, 0.252489)">
                                    <g id="铅笔" transform="translate(35.525975, 9.008724) rotate(8.000000) translate(-35.525975, -9.008724) translate(0.525975, 5.008724)">
                                        <g id="编组-21">
                                            <path d="M11.4284978,0 C10.2415967,2.20383624 10.126689,5.7118729 11.4284978,7.75468058 C10.1520838,7.75468058 7.11967134,6.69083822 5.2098583,6.06330571 C3.93664961,5.6449507 2.20003018,4.9570048 0,3.999468 C2.35774429,3.03156471 4.18543621,2.32055488 5.48307575,1.86643852 C7.42953507,1.18526398 10.126689,0.282480895 11.4284978,0 Z" id="路径-12" fill="#D8D8D8"></path>
                                            <path d="M3.71393269,5.52469146 C3.02173821,5.26165346 1.78376064,4.75324564 7.06597747e-13,3.999468 C1.77959916,3.27517879 3.01757672,2.77987115 3.71393269,2.51354508 C3.38014999,3.24845357 3.38014999,4.76729249 3.71393269,5.52469146 Z" id="路径-12" fill="#A7A5A5"></path>
                                        </g>
                                        <rect id="矩形" fill="#FDF4EA" x="8.06764615" y="2.60587276e-13" width="61.4962026" height="7.75468058" rx="3.87734029"></rect>
                                        <rect id="矩形" fill="#D8D8D8" transform="translate(63.033279, 3.877340) scale(-1, 1) translate(-63.033279, -3.877340) " x="56.5027084" y="2.60587276e-13" width="13.0611404" height="7.75468058" rx="3.87734029"></rect>
                                        <ellipse id="椭圆形" fill="#979797" cx="65.7543495" cy="3.87734029" rx="3.80949928" ry="3.87734029"></ellipse>
                                    </g>
                                    <g id="人" transform="translate(21.016271, 10.288952)">
                                        <g id="右腿" transform="translate(24.855198, 42.495366)">
                                            <path d="M8.40368235,1.39804833 C8.93625777,0.890096962 9.37908574,0.553501512 9.73216627,0.388261981 C10.0852468,0.22302245 10.6381927,0.0936017894 11.3910041,1.09935257e-13 C11.9835247,2.78465343 11.9835247,5.55103378 11.3910041,8.29914106 C10.5022231,12.421302 7.27348033,17.4846615 7.37143989,18.9782922 C7.33941526,19.4286991 7.98492016,22.0428814 8.77859347,26.8550291 C9.00078261,28.2021917 9.31864021,30.613203 9.73216627,34.0880631 L5.90330224,34.7058133 L2.29544466e-13,27.5379066 L8.40368235,1.39804833 Z" fill="#0C1973"></path>
                                            <path d="M3.28446684,34.0880631 C3.28446684,34.0880631 2.47778034,35.5067578 3.08715327,36.4990668 C3.6965262,37.4913757 10.1571719,37.7533435 10.1571719,36.6896921 C10.1571719,35.6260407 8.54487365,34.7058133 7.09893582,34.5856377 L3.28446684,34.0880631 Z" id="右鞋" fill="#F49130" transform="translate(6.508317, 35.731336) scale(-1, 1) translate(-6.508317, -35.731336) "></path>
                                        </g>
                                        <g id="左腿" transform="translate(16.076605, 43.448692)">
                                            <path d="M4.53118262,2.44997209 C3.16128143,7.70248721 2.17641741,11.6907728 1.57659056,14.4148288 C0.976763715,17.1388849 0.451233528,20.0099096 -2.35532582e-13,23.0279029 C0.284561915,27.1989621 0.665666039,30.5910537 1.14331237,33.2041777 C1.62095871,35.8173017 2.58127533,39.763901 4.02426224,45.0439754 L8.25591653,45.0439754 C8.25366387,38.6944001 8.36540433,34.0112725 8.59113791,30.9945925 C8.8168715,27.9779126 9.25427414,25.3223494 9.90334583,23.0279029 C13.6224443,16.0226019 15.9173556,11.2206883 16.7880799,8.62216233 C17.6588041,6.02363633 17.7902028,3.29782282 17.1822758,0.444721796 C13.5639606,-0.021204038 10.9148075,-0.121024222 9.23481659,0.145261243 C7.55482569,0.411546709 5.9869477,1.17978366 4.53118262,2.44997209 Z" fill="#0E1D80"></path>
                                            <path d="M1.36470853,45.0462517 C1.36470853,45.0462517 0.558022018,46.4649465 1.16739495,47.4572554 C1.77676788,48.4495644 8.67012685,48.7965482 8.67012685,47.7328968 C8.67012685,46.6692454 5.74304312,45.0462517 5.74304312,45.0462517 L1.36470853,45.0462517 Z" id="左鞋" fill="#F49130" transform="translate(4.804915, 46.714836) scale(-1, 1) translate(-4.804915, -46.714836) "></path>
                                        </g>
                                        <g id="右手" transform="translate(28.677683, 3.893362)">
                                            <path d="M7.0602864,15.3701868 C6.33123582,11.6671187 5.84417785,8.93822476 5.59911251,7.18350497 C5.32880803,5.24806755 5.17563717,3.59929396 5.13959995,2.23718422 L2.16781956,2.23718422 C1.76126977,3.06728808 1.66061049,4.06006141 1.86584171,5.21550421 C2.07107293,6.37094701 2.38710973,9.6747523 2.81395212,15.1269201 C5.69489799,15.5433492 7.11034275,15.6244381 7.0602864,15.3701868 Z" id="路径-7" fill="#7589F2"></path>
                                            <path d="M2.41598128,2.23718422 C1.5106215,1.76988656 0.907600239,1.39702252 0.60691751,1.11859211 C0.306234782,0.840161702 0.103928945,0.467297665 2.46510796e-13,1.30293638e-13 L5.50628024,1.30293638e-13 C5.58415761,0.464814134 5.58415761,0.837678171 5.50628024,1.11859211 C5.42840286,1.39950605 5.22166573,1.77237009 4.88606883,2.23718422 L2.41598128,2.23718422 Z" id="路径-9" fill="#FFE4A8"></path>
                                        </g>
                                        <g id="头" transform="translate(24.805876, 5.887605)">
                                            <path d="M1.87367382,2.58543156 C1.3125333,2.15423142 0.926718803,1.7934077 0.716230335,1.50296038 C0.505741866,1.21251307 0.266998421,0.711526273 9.18177864e-14,9.56843905e-14 C5.5710615,0.0114889493 8.88065168,0.586047231 9.92877055,1.72367484 C10.58421,2.4350885 11.8085687,3.72170248 11.1650472,6.48540513 C10.5215258,9.24910778 8.82329453,10.8110227 6.52084585,11.4442534 C5.17667438,11.8139341 5.1959533,10.9533298 3.87180693,8.49122796 C2.98904268,6.84982671 2.32299831,4.88122791 1.87367382,2.58543156 Z" id="路径-11" fill="#0E1D80"></path>
                                            <path d="M1.4312953,12.5519005 C1.86937939,12.1650591 1.99642123,11.6882587 1.8124208,11.1214994 C0.604140265,10.7834757 8.892353e-13,10.0001418 8.892353e-13,8.77149774 C8.892353e-13,7.54285364 0.604140265,5.41251563 1.8124208,2.38048372 C3.68602769,2.64135991 4.84224677,3.01072953 5.28107803,3.48859257 C5.93932492,4.20538713 5.50231167,6.28917317 5.63437675,6.54238297 C5.76644183,6.79559277 6.94367089,5.81475026 7.22704145,6.70250118 C7.41595515,7.29433512 6.88506692,8.06028258 5.63437675,9.00034354 C5.4936701,9.64277881 5.4936701,10.0994403 5.63437675,10.370328 C5.7750834,10.6412157 6.18047766,10.9650172 6.85055955,11.3417323 C6.69063424,11.4014164 6.4241846,11.4738049 6.05121063,11.5588978 C5.99939987,11.7518592 5.99939987,12.1940875 6.05121063,12.8855827 C5.08068327,14.0298423 4.35421537,14.6019722 3.87180693,14.6019722 C3.14819426,14.6019722 2.1988267,13.8490697 1.4312953,12.5519005 Z" id="路径-10" fill="#FFE4A8"></path>
                                        </g>
                                        <path d="M20.2253575,46.204456 C20.845904,47.1121026 24.0376109,45.3270613 25.8533912,45.0400336 C27.6691715,44.753006 28.1429555,44.9303933 29.6208396,44.8405775 C30.8920511,44.7557566 32.1413111,44.5515854 33.444807,44.1279028 C34.7483028,43.7042203 36.8360862,43.4036341 36.8360862,42.4953657 C36.8360862,41.5870973 35.745385,41.5870973 35.5289228,36.5731443 C35.3124605,31.5591913 36.3522271,18.3746658 35.5289228,17.8943091 C34.9800532,17.5740713 33.4227745,17.8670307 30.8570868,18.7731873 C30.0135886,19.124533 29.2518566,19.2794694 28.5718909,19.2379964 C27.8919252,19.1965234 27.1136854,18.9303596 26.2371715,18.4395052 L24.8551985,18.940292 L22.1690447,23.7918584 C21.8865176,26.5528663 21.7319036,28.5661455 21.7052027,29.8316958 C21.6347591,33.1705315 21.9329955,36.1605656 21.7052027,38.7882701 C21.2708975,43.7981992 19.6048111,45.2968093 20.2253575,46.204456 Z" id="路径-5" fill="#5266D4"></path>
                                        <g id="左手">
                                            <path d="M24.8551985,18.940292 C25.6401579,20.2684211 25.7321867,21.441113 25.1312849,22.4583677 C24.530383,23.4756224 23.5429696,23.9201193 22.1690447,23.7918584 C16.5360651,20.0237775 13.2851086,17.6400511 12.4161753,16.6406793 C11.5472419,15.6413074 9.00422106,11.394115 4.78711268,3.89910199 L7.40322926,1.82933095 C11.9297414,8.59122995 14.5761938,12.4004521 15.3425866,13.2569974 C16.1089793,14.1135426 19.2798499,16.0079742 24.8551985,18.940292 Z" id="路径-6" fill="#7589F2"></path>
                                            <path d="M5.22567429,3.74645374 L3.9204455,1.82933095 C2.74348115,1.87836184 1.91123047,1.8014465 1.42369344,1.59858494 C0.936156416,1.39572338 0.461591936,0.862861734 1.84633592e-13,-1.30293638e-13 L6.11131581,-1.30293638e-13 C6.25730973,0.168327417 6.34670474,0.318629748 6.37950086,0.450906993 C6.41229697,0.583184239 6.41229697,0.793440674 6.37950086,1.0816763 L7.23144614,2.25312735 L5.22567429,3.74645374 Z" id="路径-8" fill="#FFE4A8"></path>
                                        </g>
                                    </g>
                                </g>
                            </g>
                        </g>
                        <g id="2.通用组件/彩色版/时钟" transform="translate(0.000000, 82.000000)" fill-rule="nonzero">
                            <g id="资源-5">
                                <circle id="椭圆形" fill="#F49130" cx="39.4094268" cy="39.4094268" r="39.4094268"></circle>
                                <circle id="椭圆形" fill="#FFD29F" cx="39.4094268" cy="39.4094268" r="36.5944677"></circle>
                                <circle id="椭圆形" fill="#FDF4EA" cx="39.4094268" cy="39.4094268" r="35.2749556"></circle>
                                <path d="M39.4094268,16.9706844 C40.1867562,16.9706844 40.8169063,17.6008344 40.8169063,18.3781639 L40.8169063,38.3775683 L38.0019472,38.3775683 L38.0019472,18.3781639 C38.0019472,17.6008344 38.6320973,16.9706844 39.4094268,16.9706844 Z" id="路径" fill="#F49130"></path>
                                <path d="M46.5752569,32.2435966 C47.3525864,32.2435966 47.9827364,32.8737467 47.9827364,33.6510761 L47.9827364,46.5752569 L45.1677774,46.5752569 L45.1677774,33.6510761 C45.1677774,32.8737467 45.7979274,32.2435966 46.5752569,32.2435966 Z" id="路径" fill="#F49130" transform="translate(46.575257, 39.409427) rotate(90.000000) translate(-46.575257, -39.409427) "></path>
                                <circle id="椭圆形" fill="#FFCB92" cx="39.4094268" cy="39.4094268" r="3.25479641"></circle>
                                <g id="编组" transform="translate(8.444877, 8.444877)" fill="#FFCB92">
                                    <path d="M30.9680683,56.2991811 C31.7453978,56.2991811 32.3755478,56.9293311 32.3755478,57.7066606 L32.3755478,60.5216197 C32.3755478,61.2989491 31.7453978,61.9290992 30.9680683,61.9290992 C30.1907388,61.9290992 29.5605888,61.2989491 29.5605888,60.5216197 L29.5605888,57.7066606 C29.5605888,56.9293311 30.1907388,56.2991811 30.9680683,56.2991811 Z M13.0524893,48.8817245 C13.6021442,49.4313795 13.6021442,50.3225462 13.0524893,50.8722012 L11.0620127,52.8626778 C10.5123577,53.4123327 9.62119097,53.4123327 9.07153603,52.8626778 C8.52188108,52.3130229 8.52188108,51.4218561 9.07153603,50.8722012 L11.0620127,48.8817245 C11.6116676,48.3320696 12.5028344,48.3320696 13.0524893,48.8817245 Z M50.8716893,48.8763046 L52.862166,50.8667812 C53.4118209,51.4164361 53.4118209,52.3076029 52.862166,52.8572578 C52.312511,53.4069128 51.4213443,53.4069128 50.8716893,52.8572578 L48.8812127,50.8667812 C48.3315578,50.3171263 48.3315578,49.4259595 48.8812127,48.8763046 C49.4308676,48.3266496 50.3220344,48.3266496 50.8716893,48.8763046 Z M4.22243858,29.5605888 C4.99976806,29.5605888 5.62991811,30.1907388 5.62991811,30.9680683 C5.62991811,31.7453978 4.99976806,32.3755478 4.22243858,32.3755478 L1.40747953,32.3755478 C0.630150048,32.3755478 7.16855688e-12,31.7453978 7.16846168e-12,30.9680683 C7.16836648e-12,30.1907388 0.630150048,29.5605888 1.40747953,29.5605888 L4.22243858,29.5605888 Z M60.5216197,29.5535514 C61.2989491,29.5535514 61.9290992,30.1837014 61.9290992,30.9610309 C61.9290992,31.7383604 61.2989491,32.3685104 60.5216197,32.3685104 L57.7066606,32.3685104 C56.9293311,32.3685104 56.2991811,31.7383604 56.2991811,30.9610309 C56.2991811,30.1837014 56.9293311,29.5535514 57.7066606,29.5535514 L60.5216197,29.5535514 Z M11.0572033,9.07102419 L13.04768,11.0615008 C13.5973349,11.6111558 13.5973349,12.5023225 13.04768,13.0519775 C12.498025,13.6016324 11.6068583,13.6016324 11.0572033,13.0519775 L9.0667267,11.0615008 C8.51707175,10.5118459 8.51707175,9.62067914 9.0667267,9.07102419 C9.61638164,8.52136925 10.5075484,8.52136925 11.0572033,9.07102419 Z M52.8577697,9.06723853 C53.4074246,9.61689348 53.4074246,10.5080602 52.8577697,11.0577152 L50.867293,13.0481918 C50.3176381,13.5978468 49.4264713,13.5978468 48.8768164,13.0481918 C48.3271615,12.4985369 48.3271615,11.6073701 48.8768164,11.0577152 L50.867293,9.06723853 C51.416948,8.51758359 52.3081147,8.51758359 52.8577697,9.06723853 Z M30.9610309,-3.90798505e-14 C31.7383604,-3.92226436e-14 32.3685104,0.630150048 32.3685104,1.40747953 L32.3685104,4.22243858 C32.3685104,4.99976806 31.7383604,5.62991811 30.9610309,5.62991811 C30.1837014,5.62991811 29.5535514,4.99976806 29.5535514,4.22243858 L29.5535514,1.40747953 C29.5535514,0.630150048 30.1837014,-3.89370574e-14 30.9610309,-3.90798505e-14 Z" id="形状结合"></path>
                                </g>
                            </g>
                        </g>
                    </g>
                </g>
            </g>
        </g>
    </g>
</svg>