<?xml version="1.0" encoding="UTF-8"?>
<svg width="40px" height="40px" viewBox="0 0 40 40" version="1.1" xmlns="http://www.w3.org/2000/svg" xmlns:xlink="http://www.w3.org/1999/xlink">
    <title>编组 15</title>
    <g id="页面-1" stroke="none" stroke-width="1" fill="none" fill-rule="evenodd">
        <g id="创建项目" transform="translate(-1331.000000, -421.000000)" fill-rule="nonzero">
            <g id="编组-14" transform="translate(1061.000000, 0.000000)">
                <g id="编组-11" transform="translate(25.000000, 386.000000)">
                    <g id="编组-10" transform="translate(220.000000, 25.000000)">
                        <g id="编组-15" transform="translate(25.000000, 10.000000)">
                            <g id="devops" transform="translate(2.000000, 11.931034)">
                                <path d="M13.0947479,1.94092829 L13.1310621,1.9732603 M17.9997517,5.71949478 L22.8681931,1.9732603 L22.9049338,1.94120583 C24.2657155,0.754421662 25.9839238,0.0639152942 27.8083132,0.00422234851 L27.938804,0.00103319451 L28.0666584,0 C32.457442,0 36,3.62169393 36,8.06896552 C36,12.5162371 32.457442,16.137931 28.0666584,16.137931 C26.1985465,16.137931 24.4274259,15.476819 23.0070248,14.2838389 L22.9084992,14.1997464 L22.8719172,14.1673293 L17.9997517,10.4183637 M13.1293241,14.1660879 L13.0950662,14.1967252 M8.19168676,16.1337087 L8.06119604,16.1368978 L7.93334158,16.137931 M10.7510666,4.8406066 L10.6977609,4.7926289 M28.0666584,3.72413793 C27.0698282,3.72413793 26.129705,4.08105134 25.3790409,4.72513293 L25.3020673,4.79278359 L25.2487245,4.84079987 L21.0532966,8.06892926 L25.2418976,11.2918781 L25.3614046,11.3975754 C26.1157223,12.0517405 27.0624107,12.4137931 28.0666584,12.4137931 C30.3820174,12.4137931 32.2758621,10.4776425 32.2758621,8.06896552 C32.2758621,5.66028849 30.3820174,3.72413793 28.0666584,3.72413793 Z" id="形状" fill="#3FD1F5"></path>
                                <path d="M10.0664101,5.71949478 L14.9348515,1.9732603 L14.9715922,1.94120583 C16.3323739,0.754421662 18.0505822,0.0639152942 19.8749717,0.00422234851 L20.0054624,0.00103319451 L20.1333168,0 C24.5241004,0 28.0666584,3.62169393 28.0666584,8.06896552 C28.0666584,12.5162371 24.5241004,16.137931 20.1333168,16.137931 C18.2652049,16.137931 16.4940843,15.476819 15.0736832,14.2838389 L14.9751576,14.1997464 L14.9385757,14.1673293 L10.0664101,10.4183637 M5.19598256,14.1660879 L5.16172463,14.1967252 M0.258345173,16.1337087 L0.127854453,16.1368978 L-5.29231831e-15,16.137931 M20.1333168,3.72413793 C19.1364866,3.72413793 18.1963634,4.08105134 17.4456993,4.72513293 L17.3687257,4.79278359 L17.3153829,4.84079987 L13.119955,8.06892926 L17.3085561,11.2918781 L17.428063,11.3975754 C18.1823807,12.0517405 19.1290691,12.4137931 20.1333168,12.4137931 C22.4486758,12.4137931 24.3425205,10.4776425 24.3425205,8.06896552 C24.3425205,5.66028849 22.4486758,3.72413793 20.1333168,3.72413793 Z" id="形状" fill="#686FFF" transform="translate(14.033329, 8.068966) scale(-1, 1) translate(-14.033329, -8.068966) "></path>
                                <polygon id="路径" fill="#4C36B5" points="21.2275862 7.94777064 17.9997517 10.4183637 14.7724138 7.94777064 17.9997517 5.71949478"></polygon>
                            </g>
                        </g>
                    </g>
                </g>
            </g>
        </g>
    </g>
</svg>