<?xml version="1.0" encoding="UTF-8"?>
<svg width="40px" height="40px" viewBox="0 0 40 40" version="1.1" xmlns="http://www.w3.org/2000/svg" xmlns:xlink="http://www.w3.org/1999/xlink">
    <title>编组 16</title>
    <g id="页面-1" stroke="none" stroke-width="1" fill="none" fill-rule="evenodd">
        <g id="创建项目" transform="translate(-1111.000000, -529.000000)">
            <g id="编组-14" transform="translate(1061.000000, 0.000000)">
                <g id="编组-11" transform="translate(25.000000, 386.000000)">
                    <g id="编组-10" transform="translate(0.000000, 133.000000)">
                        <g id="编组-16" transform="translate(25.000000, 10.000000)">
                            <g id="运维管理" transform="translate(5.113043, 4.000000)">
                                <polygon id="路径" fill="#686FFF" fill-rule="nonzero" points="10.6887589 24.1434309 1.50513832 24.1434309 1.50513832 27.6849328 10.6887589 27.6849328 18.8678577 27.6849328 28.0514783 27.6849328 28.0514783 24.1434309 18.8678577 24.1434309"></polygon>
                                <polygon id="路径" fill="#3FD1F5" fill-rule="nonzero" points="13.0074308 20.6712411 13.0074308 22.8558419 13.0074308 28.9725217 13.0074308 31.744253 16.5489328 31.744253 16.5489328 28.9725217 16.5489328 22.8558419 16.5489328 20.6714941"></polygon>
                                <polygon id="路径" fill="#686FFF" points="13.0074308 22.8557534 10.6887589 22.8557534 10.6887589 24.1433424 10.6887589 27.6848443 10.6887589 28.9724332 13.0074308 28.9724332 16.5489328 28.9724332 18.8678577 28.9724332 18.8678577 27.6848443 18.8678577 24.1433424 18.8678577 22.8557534 16.5489328 22.8557534"></polygon>
                                <path d="M16.5483296,22.8557534 L16.5483296,28.9717534 L13.0073296,28.9717534 L13.0073296,22.8557534 L16.5483296,22.8557534 Z" id="形状结合" fill="#4C36B5" fill-rule="nonzero"></path>
                                <path d="M14.7781818,3.54175495 C17.9953834,3.54175495 21.1182292,4.02795255 23.345834,4.87563636 C25.3427352,5.63604745 26.0146087,6.46222924 26.0146087,6.72227668 C26.0146087,6.77024099 25.9917517,6.83744784 25.9419394,6.91993694 L26.0148616,13.995257 C26.0148616,14.2555573 25.3427352,15.0814862 23.345834,15.8418972 C21.1182292,16.689834 17.9953834,17.1760316 14.7779288,17.1760316 C11.5612332,17.1760316 8.43838728,16.689834 6.21078261,15.8418972 C4.21388141,15.0817391 3.54175495,14.2555573 3.54175489,13.995257 L3.46586554,6.6785138 L3.542,6.716 L3.54502285,6.68814224 C3.59764424,6.39600682 4.29374729,5.605631 6.21052962,4.87563636 C8.43838734,4.02795261 11.5609802,3.54175495 14.7781818,3.54175495 Z M4.50793026e-13,6.72252967 L4.50793026e-13,13.9955099 C4.50793026e-13,18.0533123 6.28616603,20.331004 13.0074308,20.6712411 L16.5489328,20.6714941 C23.2701976,20.331004 29.5563636,18.0533123 29.5563636,13.9957629 L29.5563636,6.72227668 C29.5563636,2.30905929 22.1217391,-1.18629744e-14 14.7781818,-1.18629744e-14 C7.43462446,0.000505923913 4.50793026e-13,2.30956522 4.50793026e-13,6.72252967 Z" id="形状" fill="#3FD1F5" fill-rule="nonzero"></path>
                                <path d="M14.7781818,-1.18629744e-14 C22.1217391,-1.18629744e-14 29.5563636,2.30905929 29.5563636,6.72227668 L29.5563636,6.71443478 C29.5563636,7.00894249 29.5232549,7.29407974 29.4592741,7.56978563 C29.2053156,8.66414246 28.4649578,9.60990573 27.3780659,10.4032674 C24.6354942,12.4051695 19.6864965,13.4367115 14.7781818,13.4367115 C9.94208578,13.4363783 5.06649511,12.4348545 2.30078227,10.4905886 C1.13430908,9.67057069 0.343148072,8.68285463 0.088554807,7.5318255 C0.0301666453,7.26784964 3.8684418e-13,6.99528411 3.8684418e-13,6.71418179 L0.00541657335,6.51721369 C0.232309781,2.23797073 7.54936754,0.000498018852 14.7781818,-1.18629744e-14 Z M3.54175489,6.72202375 C3.54175489,6.98232413 4.21388141,7.808 6.21052962,8.56841109 C8.43838728,9.41634788 11.5612332,9.90254549 14.7779288,9.90254549 C17.9953834,9.90254549 21.1182292,9.41609484 23.345834,8.5681581 C25.3427352,7.808 26.0146087,6.98232413 26.0146087,6.72227668 L26.0146087,6.72227668 L26.0146087,6.71443478 C26.0146087,6.45438734 25.3427352,5.62871147 23.345834,4.86855337 C21.1182292,4.02061663 17.9953834,3.53416598 14.7779288,3.53416598 C11.5612332,3.53416598 8.43838728,4.02036359 6.21052962,4.86830038 C4.21388141,5.62871147 3.54175489,6.45438734 3.54175489,6.71468772 Z" id="形状结合" fill="#686FFF" fill-rule="nonzero"></path>
                                <path d="M14.7781818,-3.61604466e-14 C22.006996,-3.52722682e-14 29.3240538,2.23746493 29.550947,6.51694903 L29.5563636,6.71443478 C29.5563636,7.00894249 29.5232549,7.29407974 29.4592741,7.56978563 C29.2053156,8.66414246 28.4649578,9.60990573 27.3780659,10.4032674 C26.9624914,10.7066103 26.4962561,10.9876732 25.9871781,11.2462432 L25.9419394,6.91993694 L25.9419394,6.91993694 L25.9603335,6.88795455 C25.9881399,6.8369676 26.0047665,6.79267155 26.0113419,6.756157 L26.0146087,6.72227668 L26.0146087,6.71443478 C26.0146087,6.45438734 25.3427352,5.62871147 23.345834,4.86855337 C21.1182292,4.02061663 17.9953834,3.53416598 14.7779288,3.53416598 C11.5612332,3.53416598 8.43838728,4.02036359 6.21052962,4.86830038 C4.21388141,5.62871147 3.54175489,6.45438734 3.54175489,6.71468772 L3.542,6.716 L3.46586554,6.6785138 L3.51159934,11.2163851 C3.074024,10.9912307 2.66873124,10.7492527 2.30078227,10.4905886 C1.13430908,9.67057069 0.343148072,8.68285463 0.088554807,7.5318255 C0.0301666453,7.26784964 -7.94726603e-14,6.99528411 -7.94726603e-14,6.71418179 L0.00541657335,6.51721369 C0.228708302,2.30589522 7.31886638,0.0720433278 14.4339146,0.0017137695 L14.7781818,-3.61604466e-14 L14.7781818,-3.61604466e-14 Z" id="形状结合" fill="#4C36B5" fill-rule="nonzero"></path>
                            </g>
                        </g>
                    </g>
                </g>
            </g>
        </g>
    </g>
</svg>