<?xml version="1.0" encoding="UTF-8"?>
<svg xmlns="http://www.w3.org/2000/svg" xmlns:xlink="http://www.w3.org/1999/xlink" width="31px" height="32px" viewBox="0 0 31 32" version="1.1">
  <title>瀑布类型</title>
  <g id="项目列表" stroke="none" stroke-width="1" fill="none" fill-rule="evenodd">
    <g id="创建项目-瀑布项目" transform="translate(-1113.000000, -640.000000)" fill-rule="nonzero">
      <g id="反馈/Drawer抽屉/默认" transform="translate(702.000000, -1.000000)">
        <g id="编组-2备份-6" transform="translate(388.000000, 626.000000)">
          <g id="瀑布类型" transform="translate(23.000000, 15.000000)">
            <polygon id="路径" fill="#3FD1F5" points="9.21882353 5.50588235 14.2188235 5.50588235 14.2188235 18.3058824 9.21882353 18.3058824"></polygon>
            <polygon id="路径" fill="#686FFF" points="16.0541176 0 21.0541176 0 21.0541176 15.4 16.0541176 15.4"></polygon>
            <polygon id="路径" fill="#4C36B5" points="16.0541176 0 21.0541176 0 21.0541176 3 16.0541176 3"></polygon>
            <polygon id="路径" fill="#3FD1F5" points="22.8894118 0 27.8894118 0 27.8894118 25.2 22.8894118 25.2"></polygon>
            <polygon id="路径" fill="#686FFF" points="2.38352941 5.50588235 7.38352941 5.50588235 7.38352941 25.5058824 2.38352941 25.5058824"></polygon>
            <polygon id="路径" fill="#4C36B5" points="2.38352941 22.5058824 7.38352941 22.5058824 7.38352941 25.5058824 2.38352941 25.5058824"></polygon>
            <polygon id="路径" fill="#4C36B5" points="0 30.1393464 31 30.1393464 31 31.8615686 5.06131085e-16 31.8615686"></polygon>
          </g>
        </g>
      </g>
    </g>
  </g>
</svg>
