<?xml version="1.0" encoding="UTF-8"?>
<svg width="265px" height="212px" viewBox="0 0 265 212" version="1.1" xmlns="http://www.w3.org/2000/svg" xmlns:xlink="http://www.w3.org/1999/xlink">
    <!-- Generator: Sketch 56.2 (81672) - https://sketch.com -->
    <title>default-空</title>
    <desc>Created with Sketch.</desc>
    <defs>
        <linearGradient x1="50%" y1="0%" x2="50%" y2="100%" id="linearGradient-1">
            <stop stop-color="#838698" offset="0%"></stop>
            <stop stop-color="#FFFFFF" stop-opacity="0.2" offset="100%"></stop>
        </linearGradient>
    </defs>
    <g id="空界面" stroke="none" stroke-width="1" fill="none" fill-rule="evenodd">
        <g id="代码管理-暂无" transform="translate(-560.000000, -257.000000)">
            <g id="Group-11" transform="translate(514.000000, 257.000000)">
                <g id="default-空" transform="translate(46.000000, 0.000000)">
                    <g id="management" transform="translate(0.000000, 25.000000)">
                        <path d="M12.8235294,0 L205.176471,0 C213.72549,0 218,4.28571437 218,12.8571431 L218,149.142857 C218,157.714286 213.72549,162 205.176471,162 L12.8235294,162 C4.27450979,162 0,157.714286 0,149.142857 L0,12.8571431 C0,4.28571456 4.27450979,0 12.8235294,0 Z" id="路径" fill="#DEE0ED"></path>
                        <path d="M85.116279,10 L184.883721,10 C188.294574,10 190,11.6666667 190,15 L190,15 C190,18.3333334 188.294574,20 184.883721,20 L85.116279,20 C81.7054263,20 80,18.3333334 80,15 L80,15 C80,11.6666669 81.7054263,10 85.116279,10 Z" id="路径" fill="#CFD5F1"></path>
                        <path d="M18,10 L18,10 C21.3333331,10 23,11.6666667 23,15 L23,15 C23,18.3333334 21.3333333,20 18,20 L18,20 C14.6666666,20 13,18.3333334 13,15 L13,15 C13,11.6666669 14.6666666,10 18,10 Z" id="路径" fill="#F9FAFF"></path>
                        <path d="M36,10 L36,10 C39.3333334,10 41,11.6666667 41,15 L41,15 C41,18.3333334 39.3333334,20 36,20 L36,20 C32.6666669,20 31,18.3333334 31,15 L31,15 C31,11.6666669 32.6666667,10 36,10 Z" id="路径" fill="#F9FAFF"></path>
                        <path d="M54,10 L54,10 C57.3333331,10 59,11.6666667 59,15 L59,15 C59,18.3333334 57.3333333,20 54,20 L54,20 C50.6666666,20 49,18.3333334 49,15 L49,15 C49,11.6666669 50.6666666,10 54,10 Z" id="路径" fill="#F9FAFF"></path>
                        <path d="M0,31 L218,31 L218,149.156863 C218,156.250128 212.258906,162 205.176471,162 L12.8235294,162 C5.74109399,162 0,156.250128 0,149.156863 L0,31 Z" id="路径" fill="#F2F4FD"></path>
                        <path d="M18,57.5 C18,61.6085542 20.1918875,65.4050149 23.7499999,67.4592921 C27.3081123,69.5135693 31.6918877,69.5135693 35.2500001,67.4592921 C38.8081125,65.4050149 41,61.6085542 41,57.5 C41,51.1487253 35.8512746,46 29.5,46 C23.1487254,46 18,51.1487253 18,57.5 L18,57.5 Z" id="路径" fill="#DEE0ED"></path>
                        <path d="M18,96.5 C18,100.608554 20.1918875,104.405015 23.7499999,106.459292 C27.3081123,108.513569 31.6918877,108.513569 35.2500001,106.459292 C38.8081125,104.405015 41,100.608554 41,96.5 C41,90.1487253 35.8512746,85 29.5,85 C23.1487254,85 18,90.1487253 18,96.5 L18,96.5 Z" id="路径" fill="#DEE0ED"></path>
                        <path d="M18,134.5 C18,138.608554 20.1918875,142.405015 23.7499999,144.459292 C27.3081123,146.513569 31.6918877,146.513569 35.2500001,144.459292 C38.8081125,142.405015 41,138.608554 41,134.5 C41,128.148725 35.8512746,123 29.5,123 C23.1487254,123 18,128.148725 18,134.5 L18,134.5 Z" id="路径" fill="#DEE0ED"></path>
                        <path d="M56.5757578,50 L136.424242,50 C138.141414,50 139,50.8333333 139,52.5 L139,52.5 C139,54.1666667 138.141414,55 136.424242,55 L56.5757578,55 C54.8585861,55 54,54.1666667 54,52.5 L54,52.5 C54,50.8333333 54.8585859,50 56.5757578,50 Z" id="路径" fill="#E8EAF4"></path>
                        <path d="M56.5757578,89 L136.424242,89 C138.141414,89 139,89.8333333 139,91.5 L139,91.5 C139,93.1666664 138.141414,94 136.424242,94 L56.5757578,94 C54.8585861,94 54,93.1666666 54,91.5 L54,91.5 C54,89.8333333 54.8585859,89 56.5757578,89 Z" id="路径" fill="#E8EAF4"></path>
                        <path d="M56.5757578,127 L136.424242,127 C138.141414,127 139,127.833333 139,129.5 L139,129.5 C139,131.166667 138.141414,132 136.424242,132 L56.5757578,132 C54.8585861,132 54,131.166667 54,129.5 L54,129.5 C54,127.833334 54.8585859,127 56.5757578,127 Z" id="路径" fill="#E8EAF4"></path>
                        <path d="M56.5405407,60 L98.4594593,60 C100.153153,60 101,60.8333333 101,62.5 L101,62.5 C101,64.1666667 100.153153,65 98.4594593,65 L56.5405407,65 C54.8468471,65 54,64.1666667 54,62.5 L54,62.5 C54,60.8333333 54.8468469,60 56.5405407,60 Z" id="路径" fill="#E8EAF4"></path>
                        <path d="M56.5405407,99 L98.4594593,99 C100.153153,99 101,99.8333333 101,101.5 L101,101.5 C101,103.166667 100.153153,104 98.4594593,104 L56.5405407,104 C54.8468471,104 54,103.166667 54,101.5 L54,101.5 C54,99.8333333 54.8468469,99 56.5405407,99 Z" id="路径" fill="#E8EAF4"></path>
                        <path d="M56.5405407,137 L98.4594593,137 C100.153153,137 101,137.833333 101,139.5 L101,139.5 C101,141.166667 100.153153,142 98.4594593,142 L56.5405407,142 C54.8468471,142 54,141.166667 54,139.5 L54,139.5 C54,137.833334 54.8468469,137 56.5405407,137 Z" id="路径" fill="#E8EAF4"></path>
                        <path d="M114.538462,58 L142.461539,58 C144.153846,58 145,58.8571429 145,60.5714288 L145,73.4285715 C145,75.1428572 144.153846,76 142.461539,76 L114.538462,76 C112.846154,76 112,75.1428572 112,73.4285715 L112,60.5714288 C112,58.8571431 112.846154,58 114.538462,58 L114.538462,58 Z" id="路径" fill="#F2F4FD"></path>
                        <path d="M157.5,59 L172.5,59 C174.166667,59 175,59.8333333 175,61.5 L175,61.5 C175,63.1666667 174.166667,64 172.5,64 L157.5,64 C155.833333,64 155,63.1666667 155,61.5 L155,61.5 C155,59.8333333 155.833333,59 157.5,59 Z" id="路径" fill="#F2F4FD"></path>
                        <path d="M186.5,59 L201.5,59 C203.166667,59 204,59.8333333 204,61.5 L204,61.5 C204,63.1666667 203.166667,64 201.5,64 L186.5,64 C184.833333,64 184,63.1666667 184,61.5 L184,61.5 C184,59.8333333 184.833333,59 186.5,59 Z" id="路径" fill="#F2F4FD"></path>
                        <path d="M157.5,69 L172.5,69 C174.166667,69 175,69.8333334 175,71.5 L175,71.5 C175,73.1666667 174.166667,74 172.5,74 L157.5,74 C155.833333,74 155,73.1666667 155,71.5 L155,71.5 C155,69.8333336 155.833333,69 157.5,69 Z" id="路径" fill="#F2F4FD"></path>
                        <path d="M186.5,69 L201.5,69 C203.166667,69 204,69.8333334 204,71.5 L204,71.5 C204,73.1666667 203.166667,74 201.5,74 L186.5,74 C184.833333,74 184,73.1666667 184,71.5 L184,71.5 C184,69.8333336 184.833333,69 186.5,69 Z" id="路径" fill="#F2F4FD"></path>
                    </g>
                    <g id="Group-9" transform="translate(96.000000, 0.000000)">
                        <g id="Group-3" transform="translate(0.000000, 97.000000)">
                            <path d="M26.4574969,17.4348272 L85.2787897,2.56790709 L85.2787897,114.393002 L27.6193805,87.7809672 C26.9110797,87.4540591 26.4574969,86.7451503 26.4574969,85.9650484 L26.4574969,17.4348272 Z" id="Rectangle-3" fill="#6776C4"></path>
                            <path d="M86.1867228,17.0531999 L143.498099,2.56790709 L143.498099,114.393002 L85.8386897,87.7809672 C85.1303889,87.4540591 84.6768061,86.7451503 84.6768061,85.9650484 L84.6768061,18.9922251 C84.6768061,18.076416 85.2988345,17.2776113 86.1867228,17.0531999 Z" id="Combined-Shape" fill="#8694DF" transform="translate(114.087452, 58.480455) scale(-1, 1) translate(-114.087452, -58.480455) "></path>
                            <path d="M27.5054131,17.8148408 L82.1396148,37.6272436 C83.1780147,38.0038062 83.7145398,39.15086 83.3379772,40.1892599 C83.225703,40.4988645 83.0387112,40.7759526 82.7936073,40.9959176 L60.9569432,60.5929238 C60.4102996,61.0835014 59.6387371,61.2349733 58.9471954,60.9874742 L2.05813267,40.6271781 C1.01816118,40.2549777 0.476825695,39.1101863 0.849026018,38.0702148 C0.975210547,37.7176404 1.19784606,37.4075744 1.49158981,37.1753119 L25.583115,18.126199 C26.1266745,17.6964077 26.853976,17.5786054 27.5054131,17.8148408 Z" id="Rectangle-7" fill="#94A2EB"></path>
                            <path d="M113.519399,17.8148408 L168.153601,37.6272436 C169.192001,38.0038062 169.728526,39.15086 169.351963,40.1892599 C169.239689,40.4988645 169.052697,40.7759526 168.807593,40.9959176 L146.970929,60.5929238 C146.424286,61.0835014 145.652723,61.2349733 144.961181,60.9874742 L88.0721187,40.6271781 C87.0321472,40.2549777 86.4908117,39.1101863 86.863012,38.0702148 C86.9891965,37.7176404 87.2118321,37.4075744 87.5055758,37.1753119 L111.597101,18.126199 C112.140661,17.6964077 112.867962,17.5786054 113.519399,17.8148408 Z" id="Rectangle-7" fill="#94A2EB" transform="translate(127.867567, 39.400424) scale(-1, 1) translate(-127.867567, -39.400424) "></path>
                            <path d="M143.211375,0.0212383983 L166.768061,2.56790709 L108.943652,17.3452561 C108.711868,17.4044896 108.471338,17.4216577 108.233492,17.3959446 L95.6698063,16.0377084 C94.5716355,15.9189872 93.7776347,14.9325014 93.8963559,13.8343306 C93.9860316,13.0048305 94.5812189,12.3181482 95.3895734,12.1115687 L142.501215,0.0719269216 C142.732998,0.0126934105 142.973529,-0.00447473368 143.211375,0.0212383983 Z" id="Rectangle-4" fill="#94A2EB" transform="translate(121.374308, 8.708592) scale(-1, 1) translate(-121.374308, -8.708592) "></path>
                            <path d="M61.7221042,0.0212383983 L85.2787897,2.56790709 L27.4543806,17.3452561 C27.2225973,17.4044896 26.9820668,17.4216577 26.7442203,17.3959446 L14.1805351,16.0377084 C13.0823643,15.9189872 12.2883635,14.9325014 12.4070847,13.8343306 C12.4967604,13.0048305 13.0919477,12.3181482 13.9003023,12.1115687 L61.011944,0.0719269216 C61.2437273,0.0126934105 61.4842578,-0.00447473368 61.7221042,0.0212383983 Z" id="Rectangle-4" fill="#94A2EB"></path>
                            <path d="M90.0161686,16.5279076 L143.200042,3.23193916 L143.200042,40.0760456 L89.8079395,20.3441816 C88.7718594,19.9612824 88.2423516,18.8109724 88.6252508,17.7748923 C88.8543644,17.154938 89.3749665,16.6882081 90.0161686,16.5279076 Z" id="Rectangle-3" fill="#5665B2" transform="translate(113.466202, 21.653992) scale(-1, 1) translate(-113.466202, -21.653992) "></path>
                            <path d="M31.4929324,16.5279076 L84.6768061,3.23193916 L84.6768061,40.0760456 L31.2847034,20.3441816 C30.2486233,19.9612824 29.7191155,18.8109724 30.1020147,17.7748923 C30.3311282,17.154938 30.8517303,16.6882081 31.4929324,16.5279076 Z" id="Rectangle-3" fill="#7181D7"></path>
                            <path d="M83.3958942,39.0593602 C84.0617478,39.5663061 84.3617015,40.4600751 84.0769893,41.295843 C84.0183429,41.4679987 83.9364884,41.6313506 83.8336893,41.7813817 L62.332975,73.1608025 C61.7943868,73.9468502 60.7760431,74.2437785 59.8993861,73.8703876 L27.718177,60.1635763 C26.9806102,59.8494275 26.5019011,59.1252105 26.5019011,58.3235283 L26.5019011,49.5550786 L58.9915997,61.1829707 C59.6831413,61.4304698 60.4547038,61.278998 61.0013475,60.7884203 L82.8380116,41.1914141 C83.0831154,40.9714491 83.2701073,40.694361 83.3823815,40.3847564 C83.5437194,39.9398549 83.537443,39.475008 83.3958942,39.0593602 Z" id="Combined-Shape" fill="#5665B2"></path>
                            <path d="M142.063237,39.0593602 C142.72909,39.5663061 143.029044,40.4600751 142.744332,41.295843 C142.685685,41.4679987 142.603831,41.6313506 142.501032,41.7813817 L121.000317,73.1608025 C120.461729,73.9468502 119.443385,74.2437785 118.566728,73.8703876 L86.3855194,60.1635763 C85.6479526,59.8494275 85.1692435,59.1252105 85.1692435,58.3235283 L85.1692435,49.5550786 L117.658942,61.1829707 C118.350484,61.4304698 119.122046,61.278998 119.66869,60.7884203 L141.505354,41.1914141 C141.750458,40.9714491 141.93745,40.694361 142.049724,40.3847564 C142.211062,39.9398549 142.204785,39.475008 142.063237,39.0593602 Z" id="Combined-Shape" fill="#5665B2" transform="translate(114.010477, 56.544948) scale(-1, 1) translate(-114.010477, -56.544948) "></path>
                        </g>
                        <g id="Group-6" transform="translate(46.000000, 0.000000)">
                            <path d="M43.463992,136.5 C32.7973253,129.166667 25.6426613,119.666667 22,108 C16.536008,90.5 34.768004,63.5 28.231996,46 C21.695988,28.5 9.06624495,28.7906092 5.46399197,30.5 C1.86173899,32.2093908 -4.78149274,40.8635933 5.46399197,55.5 C15.7094767,70.1364067 29.1071408,72.0733074 33.463992,70.5 C42.463992,67.25 43.4583266,64.1039816 47.963992,59.5 C54.8955495,52.417192 56.463992,39.4079118 56.463992,33.5 C56.463992,20.8333333 53.6306586,13.3333333 47.963992,11" id="Line" stroke="url(#linearGradient-1)" stroke-linecap="square"></path>
                            <g id="Group-4" transform="translate(37.000000, 0.000000)">
                                <circle id="Oval" fill="#D7DDFF" cx="3" cy="11" r="3"></circle>
                                <ellipse id="Oval" fill="#838698" transform="translate(8.000000, 7.500000) rotate(45.000000) translate(-8.000000, -7.500000) " cx="8" cy="7.5" rx="5" ry="3.5"></ellipse>
                                <circle id="Oval" fill="#838698" transform="translate(4.000000, 4.000000) rotate(45.000000) translate(-4.000000, -4.000000) " cx="4" cy="4" r="2"></circle>
                                <circle id="Oval" fill="#D7DDFF" cx="11" cy="3" r="3"></circle>
                            </g>
                        </g>
                    </g>
                    <path d="M142,170 C142.947726,172.72071 143.614392,174.207889 144,174.461538 C144.385608,174.715188 145.052274,174.343393 146,173.346154 C146.338834,175.320021 146.672168,176.306707 147,176.306213 C147.531157,176.305413 148.289464,173.325381 148.5,173.346154 C148.663312,173.362268 149.21113,176.089641 150,176.306213 C150.394588,176.414541 150.980475,174.462846 152,174.461538 C152.40484,174.461019 152.096344,176.061185 153,176.306213 C153.384864,176.410569 154.051531,176.081674 155,175.319527 L155,199 L142,193.423077 L142,170 Z" id="Rectangle-5" fill="#FFBA1C"></path>
                    <path d="M221,170 L221,192.307692 L208,199 L208,175.319527 C208.948469,176.081674 209.615136,176.410569 210,176.306213 C210.903656,176.061185 210.59516,174.461019 211,174.461538 C212.019525,174.462846 212.605412,176.414541 213,176.306213 C213.78887,176.089641 214.336688,173.362268 214.5,173.346154 C214.710536,173.325381 215.468843,176.305413 216,176.306213 C216.327832,176.306707 216.661166,175.320021 217,173.346154 C217.947726,174.343393 218.614392,174.715188 219,174.461538 C219.385608,174.207889 220.052274,172.72071 221,170 Z" id="Rectangle-5" fill="#FFBA1C"></path>
                </g>
            </g>
        </g>
    </g>
</svg>