<?xml version="1.0" encoding="UTF-8"?>
<svg width="16px" height="16px" viewBox="0 0 16 16" version="1.1" xmlns="http://www.w3.org/2000/svg" xmlns:xlink="http://www.w3.org/1999/xlink">
    <title>编组 2</title>
    <g id="设置" stroke="none" stroke-width="1" fill="none" fill-rule="evenodd">
        <g id="项目模板" transform="translate(-504.000000, -140.000000)">
            <g id="编组-2" transform="translate(504.000000, 140.000000)">
                <rect id="矩形" x="0" y="0" width="16" height="16"></rect>
                <path d="M5.91717147,7.60914968 L3.66077389,7.60914968 C2.74323155,7.60914968 2,6.86101442 2,5.93908503 L2,3.67006464 C2,2.74738936 2.7439733,2 3.66077389,2 L5.91717147,2 C6.83471381,2 7.57794536,2.74813526 7.57794536,3.67006464 L7.57794536,5.93908503 C7.57794536,6.86176032 6.83471381,7.60914968 5.91717147,7.60914968 Z M5.91717147,14 L3.66077389,14 C2.74323155,14 2,13.2518647 2,12.3299354 L2,10.060915 C2,9.13823968 2.7439733,8.39085032 3.66077389,8.39085032 L5.91717147,8.39085032 C6.83471381,8.39085032 7.57794536,9.13898558 7.57794536,10.060915 L7.57794536,12.3299354 C7.57794536,13.2518647 6.83471381,14 5.91717147,14 Z" id="形状" fill="#CCDAFF" fill-rule="nonzero"></path>
                <path d="M12.3392261,14 L10.0828285,14 C9.16528619,14 8.42205464,13.2518647 8.42205464,12.3299354 L8.42205464,10.060915 C8.42205464,9.13823968 9.16602794,8.39085032 10.0828285,8.39085032 L12.3392261,8.39085032 C13.2567685,8.39085032 14,9.13898558 14,10.060915 L14,12.3299354 C14,13.2518647 13.2560267,14 12.3392261,14 Z" id="路径" fill="#7A7AF9" fill-rule="nonzero"></path>
                <path d="M12.3392261,7.60914968 L10.0828285,7.60914968 C9.16528619,7.60914968 8.42205464,6.86101442 8.42205464,5.93908503 L8.42205464,3.67006464 C8.42205464,2.74738936 9.16602794,2 10.0828285,2 L12.3392261,2 C13.2567685,2 14,2.74813526 14,3.67006464 L14,5.93908503 C14,6.86176032 13.2560267,7.60914968 12.3392261,7.60914968 Z" id="路径" fill="#CCDAFF" fill-rule="nonzero"></path>
            </g>
        </g>
    </g>
</svg>