<?xml version="1.0" encoding="UTF-8"?>
<svg width="282px" height="200px" viewBox="0 0 282 200" version="1.1" xmlns="http://www.w3.org/2000/svg" xmlns:xlink="http://www.w3.org/1999/xlink">
    <title>文档</title>
    <defs>
        <linearGradient x1="50%" y1="68.5255198%" x2="40.5944508%" y2="26.961013%" id="linearGradient-1">
            <stop stop-color="#A1B7FE" stop-opacity="0" offset="0%"></stop>
            <stop stop-color="#A1B7FE" stop-opacity="0.4" offset="100%"></stop>
        </linearGradient>
        <linearGradient x1="44.9388407%" y1="89.7953557%" x2="44.9388407%" y2="-14.8085695%" id="linearGradient-2">
            <stop stop-color="#A1B7FE" stop-opacity="0" offset="0%"></stop>
            <stop stop-color="#A1B7FE" stop-opacity="0.4" offset="100%"></stop>
        </linearGradient>
    </defs>
    <g id="打开项目" stroke="none" stroke-width="1" fill="none" fill-rule="evenodd" opacity="0.8">
        <g id="个人工作台-空" transform="translate(-655.000000, -977.000000)">
            <g id="编组-4" transform="translate(482.000000, 787.000000)">
                <g id="编组-2" transform="translate(173.000000, 61.000000)">
                    <g id="文档" transform="translate(0.000000, 129.000000)">
                        <ellipse id="阴影" fill-opacity="0.1" fill="#0E1D80" cx="140.701283" cy="166.257158" rx="140.701283" ry="33.7428416"></ellipse>
                        <g id="云" transform="translate(136.231884, 40.579710) scale(-1, 1) translate(-136.231884, -40.579710) translate(0.966184, 0.000000)">
                            <path d="M73.9244521,27.1354841 C73.9244521,27.1079527 73.9254496,27.0806715 73.9254496,27.0531401 C73.9254496,12.1120799 61.8576933,0 46.9713094,0 C35.9339494,0 26.44767,6.65960414 22.2794526,16.1927394 C21.2221243,16.0100307 20.1356198,15.9136707 19.0264226,15.9136707 C8.51847488,15.9136707 0,24.4634331 0,35.0099755 C0,45.5565178 8.51847488,54.1062802 19.0264226,54.1062802 L75.4119434,54.1062802 C82.8551354,54.1062802 88.8888889,48.0501151 88.8888889,40.579585 C88.8888889,33.1090549 82.8551354,27.0531401 75.4119434,27.0531401 C74.9092138,27.0531401 74.4129677,27.0816727 73.9244521,27.1354841 Z" id="Fill-5" fill="url(#linearGradient-1)"></path>
                            <path d="M255.566964,54.1886242 C255.566964,54.1610928 255.567962,54.1338116 255.567962,54.1062802 C255.567962,39.16522 243.500205,27.0531401 228.613821,27.0531401 C217.576461,27.0531401 208.090182,33.7127442 203.921965,43.2458795 C202.864636,43.0631708 201.778132,42.9668108 200.668935,42.9668108 C190.160987,42.9668108 181.642512,51.5165732 181.642512,62.0631155 C181.642512,72.6096579 190.160987,81.1594203 200.668935,81.1594203 L257.054456,81.1594203 C264.497648,81.1594203 270.531401,75.1032552 270.531401,67.6327251 C270.531401,60.162195 264.497648,54.1062802 257.054456,54.1062802 C256.551726,54.1062802 256.05548,54.1348128 255.566964,54.1886242 Z" id="Fill-5备份" fill="url(#linearGradient-2)" transform="translate(226.086957, 54.106280) scale(-1, 1) translate(-226.086957, -54.106280) "></path>
                        </g>
                        <g id="文稿-贴" transform="translate(132.424737, 7.729469)">
                            <path d="M1.33025181e-13,0 L1.33025181e-13,92.9519788 L67.4856832,92.9519788 L67.4856832,31.2605767 C67.4998951,17.215199 60.7464207,0 42.0988991,0 L1.33025181e-13,0 Z" id="Stroke-1" fill="#EAE2DA"></path>
                            <path d="M1.33025181e-13,0 L1.33025181e-13,92.9519788 L67.4856832,92.9519788 L67.4856832,31.2605767 C64.8253268,26.8747483 60.9668283,24.0330416 55.7344668,22.9630635 C55.0183303,13.90656 51.3492963,5.93175291 42.0989131,0 L1.33025181e-13,0 Z" id="Stroke-3" fill="#FDF4EA"></path>
                            <path d="M56.2314761,47.829659 C57.4774946,47.829659 58.4875921,48.8397565 58.4875921,50.085775 C58.4875921,51.3317934 57.4774946,52.341891 56.2314761,52.341891 L11.2542071,52.341891 C10.0081886,52.341891 8.99809109,51.3317934 8.99809109,50.085775 C8.99809109,48.8397565 10.0081886,47.829659 11.2542071,47.829659 L56.2314761,47.829659 Z M56.2314761,37.9027486 C57.4774946,37.9027486 58.4875921,38.9128462 58.4875921,40.1588646 C58.4875921,41.4048831 57.4774946,42.4149806 56.2314761,42.4149806 L11.2542071,42.4149806 C10.0081886,42.4149806 8.99809109,41.4048831 8.99809109,40.1588646 C8.99809109,38.9128462 10.0081886,37.9027486 11.2542071,37.9027486 L56.2314761,37.9027486 Z M42.7343395,27.9758383 C43.9803579,27.9758383 44.9904555,28.9859358 44.9904555,30.2319543 C44.9904555,31.4779727 43.9803579,32.4880702 42.7343395,32.4880702 L11.2542071,32.4880702 C10.0081886,32.4880702 8.99809109,31.4779727 8.99809109,30.2319543 C8.99809109,28.9859358 10.0081886,27.9758383 11.2542071,27.9758383 L42.7343395,27.9758383 Z M42.7343395,18.0489279 C43.9803579,18.0489279 44.9904555,19.0590254 44.9904555,20.3050439 C44.9904555,21.5510624 43.9803579,22.5611599 42.7343395,22.5611599 L11.2542071,22.5611599 C10.0081886,22.5611599 8.99809109,21.5510624 8.99809109,20.3050439 C8.99809109,19.0590254 10.0081886,18.0489279 11.2542071,18.0489279 L42.7343395,18.0489279 Z" id="形状结合" fill="#F49130"></path>
                        </g>
                        <g id="箱子-空" transform="translate(36.926129, 70.121893)">
                            <polygon id="路径-9" fill="#7181D7" points="39.3719587 1.86402782 141.313609 1.86402782 117.115636 17.7082643 15.7015122 17.7082643"></polygon>
                            <path d="M116.779997,90.4053492 L139.37202,76.5927733 C140.560157,75.8663561 141.284967,74.5742743 141.285522,73.1816683 L141.313609,2.79604173 L141.313609,2.79604173 L116.779997,17.9000881 L116.779997,90.4053492 Z" id="路径-7" fill="#6776C4"></path>
                            <path d="M15.7015122,17.9043868 L39.2537804,1.86402782 L39.2537804,77.1022273 L21.6687291,87.0348622 C19.745219,88.1213261 17.3051529,87.4427661 16.218689,85.5192559 C15.8796645,84.9190363 15.7015122,84.2413874 15.7015122,83.552039 L15.7015122,17.9043868 L15.7015122,17.9043868 Z" id="路径-8" fill="#5665B2"></path>
                            <path d="M19.7015122,90.4053492 L116.779997,90.4053492 L116.779997,90.4053492 L116.779997,17.7082643 L15.7015122,17.7082643 L15.7015122,86.4053492 C15.7015122,88.6144882 17.4923732,90.4053492 19.7015122,90.4053492 Z" id="路径-3" fill="#8694DF"></path>
                            <path d="M39.2537804,1.86402782 L45.4976103,0.14369651 C45.8437262,0.0483329249 46.2011052,8.05955542e-15 46.5601184,0 L140.436569,0 C140.957314,-2.69630564e-14 141.379461,0.422146949 141.379461,0.942891601 C141.379461,1.38603782 141.070868,1.76938343 140.637946,1.86402782 L140.637946,1.86402782 L140.637946,1.86402782 L39.2537804,1.86402782 Z" id="路径-10" fill="#94A2EB"></path>
                            <path d="M116.779997,17.723587 L127.137488,45.1889044 C127.916994,47.2559472 130.224578,48.299702 132.291621,47.520196 C132.681683,47.373099 133.046353,47.1659305 133.372424,46.9061931 L141.313609,40.5805133 L141.313609,40.5805133 L141.313609,2.79604173 L116.779997,17.723587 Z" id="路径-13" fill="#5665B2"></path>
                            <path d="M116.779997,17.8895763 L128.757233,37.2193315 C129.92081,39.0971984 132.386387,39.6762449 134.264254,38.512668 C134.386846,38.4367071 134.505239,38.3541719 134.618916,38.2654239 L151.21407,25.3095443 C152.835431,24.0437436 153.232461,21.7546151 152.132062,20.0167477 L140.637946,1.86402782 L140.637946,1.86402782 L116.779997,17.8895763 Z" id="路径-11" fill="#94A2EB"></path>
                            <path d="M0,19.5722921 L16.3412031,16.5943813 C16.8714473,16.4977532 17.3766944,16.2949617 17.8266046,15.9981844 L32.5194486,6.30624176 C33.4414866,5.69803146 33.6958942,4.45752014 33.0876839,3.53548217 C32.6794173,2.91655591 31.9622474,2.57428243 31.2242879,2.64616569 L23.2123846,3.42659023 L23.2123846,3.42659023 L0,19.5722921 Z" id="路径-11" fill="#94A2EB" transform="translate(19.626890, 10.718160) scale(-1, -1) translate(-19.626890, -10.718160) "></path>
                            <path d="M116.779997,17.7082643 L109.862116,52.6966912 C109.491639,54.5704413 107.848105,55.9208346 105.938081,55.9208346 L15.7015122,55.9208346 L15.7015122,55.9208346 L15.7015122,17.7082643 L116.779997,17.7082643 Z" id="路径-12" fill-opacity="0.246284965" fill="#05135C"></path>
                            <path d="M16.4209736,17.7082643 L4.12631552,40.7154596 C3.08512852,42.6638499 3.82056211,45.0873812 5.76895241,46.1285682 C6.34899572,46.4385336 6.99651903,46.6006955 7.65418823,46.6006955 L101.550159,46.6006955 C103.096215,46.6006955 104.503841,45.7097233 105.165428,44.3123713 L117.761341,17.7082643 L117.761341,17.7082643 L16.4209736,17.7082643 Z" id="路径-10" fill="#94A2EB"></path>
                        </g>
                        <g id="人-坐" transform="translate(68.758998, 121.054484)">
                            <g id="右脚" transform="translate(26.763936, 46.281776) rotate(-6.000000) translate(-26.763936, -46.281776) translate(4.480928, 31.001999)">
                                <g id="左脚" transform="translate(0.000000, 22.652153)">
                                    <polygon id="Stroke-25" fill="#F1D698" points="7.98812802 0 6.78353276 2.66095887 10.7060727 3.80828723 12.0082888 1.23206655"></polygon>
                                    <path d="M0.0255853416,3.54241551 C0.372025668,4.33465045 6.01904839,6.37419584 9.75769799,6.97767531 L9.75769799,6.97767531 C10.5141457,6.82613292 10.7557004,4.79420948 10.6535391,3.77286755 L10.6535391,3.77286755 L6.8345226,2.63764466 C6.3309809,2.61702055 5.70302943,2.60267334 5.03285129,2.60267334 L5.03285129,2.60267334 C2.63319582,2.60267334 -0.304963226,2.78739365 0.0255853416,3.54241551 L0.0255853416,3.54241551 Z" id="Clip-32" fill="#E58628"></path>
                                </g>
                                <path d="M42.9650703,26.3813964 C39.4123819,26.0541007 35.0916628,22.1950271 32.1767804,19.3666089 C29.391579,16.664025 26.3154795,11.8852774 24.7799045,11.2746823 C22.5946468,10.405752 15.465064,21.4459566 13.4436324,24.323917 C13.4436324,24.323917 8.77218543,23.0876359 7.66961352,22.6521533 C9.85631943,17.5848985 12.0611089,13.0547019 14.6429426,8.17729472 C17.1188551,3.49998604 21.1487771,0.273798551 23.7310295,0.136899275 C26.313282,2.14828155e-14 30.0871015,2.75198668 33.1980989,4.93138698 C35.2869303,6.39471182 39.7173795,10.4426272 40.1936782,10.6789078 C41.696824,11.4176202 46.0557295,26.6661271 42.9650703,26.3813964 Z" id="Stroke-1" fill="#0C1973"></path>
                            </g>
                            <g id="左脚" transform="translate(0.332660, 31.247620)">
                                <g transform="translate(0.000000, 22.652153)">
                                    <polygon id="Stroke-25" fill="#FFE4A8" points="7.98812802 0 6.78353276 2.66095887 10.7060727 3.80828723 12.0082888 1.23206655"></polygon>
                                    <path d="M0.0255853416,3.54241551 C0.372025668,4.33465045 6.01904839,6.37419584 9.75769799,6.97767531 L9.75769799,6.97767531 C10.5141457,6.82613292 10.7557004,4.79420948 10.6535391,3.77286755 L10.6535391,3.77286755 L6.8345226,2.63764466 C6.3309809,2.61702055 5.70302943,2.60267334 5.03285129,2.60267334 L5.03285129,2.60267334 C2.63319582,2.60267334 -0.304963226,2.78739365 0.0255853416,3.54241551 L0.0255853416,3.54241551 Z" id="Clip-32" fill="#F49130"></path>
                                </g>
                                <path d="M56.7187058,16.3634579 C57.1804749,16.5925649 55.1535947,20.5488077 54.8970563,20.9541163 C54.081128,22.242675 53.0213748,23.3765529 51.7681961,24.2602513 C49.2264229,26.0541007 46.0557295,26.6661271 42.9650703,26.3813964 C39.4123819,26.0541007 35.0916628,22.1950271 32.1767804,19.3666089 C29.391579,16.664025 26.3154795,11.8852774 24.7799045,11.2746823 C22.5946468,10.405752 15.465064,21.4459566 13.4436324,24.323917 C13.4436324,24.323917 8.77218543,23.0876359 7.66961352,22.6521533 C9.85631943,17.5848985 12.0611089,13.0547019 14.6429426,8.17729472 C17.1188551,3.49998604 21.1487771,0.273798551 23.7310295,0.136899275 C26.313282,2.14828155e-14 30.0871015,2.75198668 33.1980989,4.93138698 C35.2869303,6.39471182 39.7173795,10.4426272 40.1936782,10.6789078 C41.696824,11.4176202 56.711895,16.3598711 56.7187058,16.3634579 Z" id="Stroke-1" fill="#0E1D80"></path>
                            </g>
                            <path d="M50.0047335,13.3748715 C50.5527722,13.0161913 53.0264378,16.0631798 53.3043166,16.450106 C54.3513564,17.9108312 55.1032636,19.5643471 55.6912586,21.2501441 C57.6722798,26.9325355 58.1177031,33.0014048 58.1994321,38.9689469 C58.2198644,40.4655401 58.2157779,41.961685 58.2057888,43.4582782 C58.1994321,44.4280598 58.5177213,45.9551409 58.1853565,46.8688787 C57.6863553,48.2430723 55.2567325,47.9014294 54.1443095,47.7969638 C53.678908,47.7534738 53.2157768,47.6817378 52.7499212,47.6427313 C50.7180464,47.4728065 48.7415658,46.8939863 46.8953976,46.0492944 C44.5711144,44.9853592 42.4561484,43.5241857 40.5046406,41.8957775 C42.8137163,33.5870682 38.69626,26.7021937 44.5229851,14.8409769 C45.3256545,13.651325 46.9666947,13.0349207 46.9780459,13.0658569 C47.4779552,14.4629163 48.499557,14.358552 50.0047335,13.3748715 Z" id="身体" fill="#5266D4"></path>
                            <g id="头" transform="translate(40.680867, 0.195636)">
                                <path d="M6.36209698,2.00755742 C7.91676497,2.15371961 11.5087563,8.13829906 9.66395026,9.50307729 L9.66395026,9.5032118 C9.50503268,11.0661609 9.32386664,13.1792357 9.32386664,13.1792357 C9.31160728,13.945018 7.52900607,14.2418258 5.90895485,14.5821237 C6.23410353,13.3570693 6.6665856,12.0011415 6.40123605,11.4970379 C6.34522173,11.5267282 6.31578386,11.5412776 6.31578386,11.5412776 C5.75366967,11.8923359 4.92003345,11.8313603 4.00421413,11.6475367 C1.58730475,10.9884618 1.73123868,5.00029549 3.19055612,3.00289502 L3.19055612,3.00289502 Z" fill="#FFE4A8"></path>
                                <path d="M2.2882675,5.49379464 C1.000127,5.69331051 -0.257592143,4.20702935 0.0457134109,3.02248793 C0.250036015,2.22352774 0.954267923,1.6648833 1.68438069,1.35866007 C2.71144232,0.928692153 3.75212544,0.517106602 4.8391217,0.259753544 C6.48005923,-0.129414493 8.30034661,-0.17335282 9.75330734,0.778494811 C11.3038889,1.79445653 12.1720329,3.43003833 12.4812411,5.20864387 C12.8099735,7.09575017 12.5134787,9.69887186 10.3621887,10.3942631 C9.21752807,10.7641521 8.07740794,9.69663011 7.65741148,8.71922651 C8.42475637,7.25805297 8.26810904,6.06275114 7.17975064,6.99890651 C6.63897681,7.01370207 6.15223496,6.50841131 5.93065845,3.95909165 C4.94536945,4.78360781 3.71489333,5.27275796 2.2882675,5.49379464 Z" id="头发" fill="#0E1D80"></path>
                            </g>
                            <g id="编组-12" transform="translate(21.715088, 5.402217)">
                                <path d="M0.131629162,3.10912971 C6.2000105,1.40898547 5.93893161,10.4916653 8.2718417,24.034982 L16.4383891,19.0538105 L11.0742397,1.4565106 C8.91432277,-1.61603383 4.51185174,0.773673131 0.131629162,3.10912971 Z" id="Stroke-21" fill="#FDF4EA"></path>
                                <path d="M5.25699357,6.6836471 L-1.50503206e-13,8.5635798 L0.131674567,3.10895037 C2.62486438,2.34899665 4.30666644,3.60661917 5.25699357,6.6836471 Z" id="Stroke-23" fill="#EAE2DA"></path>
                            </g>
                            <g id="手" transform="translate(24.943923, 14.873251)">
                                <path d="M7.06570977,5.51408734 C7.06389357,5.51588074 4.3686514,7.61864352 4.3686514,7.61864352 C4.12618858,7.82040114 9.33187447,13.5839439 9.83269188,14.09865 C11.668417,15.9884464 13.783837,18.410883 16.1153849,19.7079603 C17.8380515,20.6665332 20.3929921,17.2196163 21.3024548,16.0942571 C23.4051614,13.4924805 24.7768471,10.4082789 25.2417946,7.11111101 C25.2417946,3.67719626 22.3753755,2.97687314 20.0969514,4.66042841 C19.1107543,5.38854926 18.1894864,6.94701481 17.4116983,7.94683592 C16.9494752,8.54000333 15.7058316,10.9382289 14.8149851,10.9288136 C13.133183,10.9104312 11.7810214,9.33313497 10.7053764,8.2454372 C10.2690341,7.80381218 7.64053736,5.06573706 7.06570977,5.51408734 Z" id="胳膊" fill="#7589F2"></path>
                                <path d="M5.22626148,6.94934623 C4.08160084,5.86075177 2.89198924,4.80937038 1.83178195,3.63827946 C1.40542878,3.16796002 0.98225397,2.65101216 0.653067553,2.09550617 C0.382907665,1.63908559 -0.116547589,0.776908013 0.0246620332,0.224540476 C0.148163696,-0.26012617 1.07306402,0.16580659 1.30871609,0.332592892 C1.82996575,0.702033518 2.20274099,1.27323177 2.54736512,1.79600819 C2.8202493,2.0582931 2.30853469,0.941452564 2.7099151,1.02036221 C2.99460459,1.07685435 4.85303219,3.84138213 5.1713214,4.26417644 C5.29800141,4.43275615 6.53438019,5.92890101 6.63109289,5.85357816 L5.22626148,6.94934623 Z" fill="#FFE4A8"></path>
                            </g>
                        </g>
                        <g id="箱子-文稿" transform="translate(115.871645, 59.935374)">
                            <polygon id="路径-9" fill="#7181D7" points="25.566207 61.0914079 91.7620841 61.0914079 76.0491145 71.3498998 10.1957871 71.3498998"></polygon>
                            <path d="M25.4894678,61.0914079 L29.3623844,60.0274313 C29.7076076,59.9325908 30.0640009,59.8845266 30.4220146,59.8845266 L91.1933296,59.8845266 C91.5304682,59.8845266 91.8037731,60.1578314 91.8037731,60.4949701 C91.8037731,60.7820093 91.6037953,61.0302744 91.3233417,61.0914079 L91.3233417,61.0914079 L91.3233417,61.0914079 L25.4894678,61.0914079 Z" id="路径-10" fill="#94A2EB"></path>
                            <path d="M10.1957871,71.4768811 L25.4894678,61.0914079 L25.4894678,109.80505 L16.1586546,115.060056 C14.2337896,116.144118 11.7945725,115.462512 10.7105108,113.537647 C10.3730663,112.938479 10.1957871,112.262436 10.1957871,111.57478 L10.1957871,71.4768811 L10.1957871,71.4768811 Z" id="路径-8" fill="#5665B2"></path>
                            <g id="编组" transform="translate(10.914127, 0.000000)">
                                <g id="编组-9" transform="translate(50.999713, 1.949270)" fill="#E6E8F2">
                                    <path d="M45.5223676,3.02263176 C41.9298009,4.07713974 38.9065878,3.41345709 36.4936563,0.911364507 L-2.67976724e-13,95.6455337 L17.3557352,94.4019167 C27.38127,64.6109406 36.7337671,34.1265648 45.5223676,3.02263176 Z" id="Stroke-13"></path>
                                    <path d="M45.5332817,2.89466798 C45.3340989,3.74430785 43.1512735,3.96718635 40.6583051,3.39310536 C38.1653367,2.81947463 36.3058423,1.66590954 36.5050252,0.816719939 C36.7046627,-0.0324696628 38.8874881,-0.255348164 41.3804565,0.318282564 C43.8734249,0.892363552 45.7324645,2.04547838 45.5332817,2.89466798 Z" id="Stroke-15"></path>
                                </g>
                                <g id="编组-10" transform="translate(62.286293, 48.326840) rotate(4.000000) translate(-62.286293, -48.326840) translate(36.183340, 1.850851)">
                                    <path d="M52.1563376,3.51557642 C48.4960123,4.31028461 45.5291889,3.43227839 43.3054356,0.764490273 L2.23313936e-13,92.6426628 L17.4012107,92.6426628 C29.572281,63.646395 41.123065,33.9099003 52.1563376,3.51557642 Z" id="Stroke-9" fill="#5266D4"></path>
                                    <path d="M52.1763013,3.38891839 C51.9157265,4.22144839 49.7224418,4.28808681 47.2776775,3.53750406 C44.8333678,2.78692131 43.0625508,1.50368146 43.3235803,0.670701199 C43.5841551,-0.161828798 45.7774398,-0.228467218 48.2222042,0.522115532 C50.6669685,1.27269828 52.4368761,2.55593814 52.1763013,3.38891839 Z" id="Stroke-11" fill="#0E1D80"></path>
                                </g>
                                <g id="编组-8" transform="translate(52.715168, 54.868801) rotate(4.000000) translate(-52.715168, -54.868801) translate(27.248872, 9.666126)">
                                    <path d="M50.6588284,3.82983144 C45.8757124,4.19904431 41.9971046,3.35345678 39.4959506,0.660003867 C22.0529024,34.1196951 6.72355678,65.4591139 3.30504626e-13,88.166606 L14.2752229,89.306213 L50.6588284,3.82983144 Z" id="Stroke-1" fill="#A1B7FE"></path>
                                    <path d="M48.7114754,3.81839484 C48.4104274,4.66488289 46.1093657,4.63426524 43.5727407,3.74995539 C41.035661,2.86519527 39.2230065,1.46218637 39.5240545,0.615698322 C39.8251025,-0.231239982 42.1257094,-0.200622329 44.6627891,0.684137781 C47.1998688,1.56889789 49.0125234,2.9719068 48.7114754,3.81839484 Z" id="Stroke-3" fill="#5266D4"></path>
                                </g>
                                <g id="编组-7" transform="translate(0.089178, 50.839965)">
                                    <path d="M50.9571479,7.3328994 C46.6447036,6.58952081 44.0521437,4.3395736 43.6201262,0.198986332 C33.1157341,6.73810648 16.8000242,18.6015464 2.67976724e-14,30.9093925 L13.9646251,43.6571422 C27.122969,30.7369431 39.6214631,18.4637669 50.9571479,7.3328994 Z" id="Stroke-5" fill="#FDF4EA"></path>
                                    <path d="M48.4513554,6.62716251 C47.7191994,7.15576728 46.0552498,6.13187695 44.73555,4.34074427 C43.4158502,2.54916133 42.9397214,0.667976729 43.6718774,0.139371961 C44.4044881,-0.389683067 46.0679829,0.633757 47.3876828,2.42533994 C48.7073826,4.21692288 49.1835114,6.09810748 48.4513554,6.62716251 Z" id="Stroke-7" fill="#EAE2DA"></path>
                                </g>
                            </g>
                            <path d="M75.8311667,118.418274 L89.826231,109.886735 C91.0168864,109.160899 91.7436053,107.867383 91.7441634,106.472931 L91.7620841,61.6948486 L91.7620841,61.6948486 L75.8311667,71.4740979 L75.8311667,118.418274 Z" id="路径-7" fill="#6776C4"></path>
                            <path d="M14.1957871,118.418274 L75.8311667,118.418274 L75.8311667,118.418274 L75.8311667,71.3498998 L10.1957871,71.3498998 L10.1957871,114.418274 C10.1957871,116.627413 11.9866481,118.418274 14.1957871,118.418274 Z" id="路径-3" fill="#8694DF"></path>
                            <path d="M75.8311667,71.3598206 L81.8770561,87.3452075 C82.658555,89.4114976 84.967144,90.4530267 87.0334341,89.6715279 C87.420361,89.5251869 87.7822454,89.3197103 88.1061796,89.0624269 L91.7620841,86.158741 L91.7620841,86.158741 L91.7620841,61.6948486 L75.8311667,71.3598206 Z" id="路径-13" fill="#5665B2"></path>
                            <path d="M75.8311667,71.4672919 L82.7867703,82.6600592 C83.9528008,84.5364036 86.4191328,85.1122267 88.2954772,83.9461963 C88.4148846,83.8719921 88.5302969,83.7915444 88.6412337,83.705188 L97.1781226,77.0598332 C98.8045782,75.7937544 99.202688,73.4990503 98.0977505,71.7591002 L91.3233417,61.0914079 L91.3233417,61.0914079 L75.8311667,71.4672919 Z" id="路径-11" fill="#94A2EB"></path>
                            <path d="M0,72.5567812 L10.3310171,70.679611 C10.8602158,70.5834544 11.3645863,70.3815574 11.8139639,70.0859949 L18.7338727,65.5346656 C19.656725,64.9276916 19.912795,63.6875224 19.305821,62.7646701 C18.8979662,62.1445616 18.1802469,61.8013113 17.4415101,61.8730606 L15.072977,62.1031029 L15.072977,62.1031029 L0,72.5567812 Z" id="路径-11" fill="#94A2EB" transform="translate(12.744734, 66.824095) scale(-1, -1) translate(-12.744734, -66.824095) "></path>
                            <path d="M75.8311667,71.3498998 L71.5639963,92.8690064 C71.1926412,94.74173 69.5495817,96.0909685 67.6403938,96.0909685 L10.1957871,96.0909685 L10.1957871,96.0909685 L10.1957871,71.3498998 L75.8311667,71.3498998 Z" id="路径-12" fill-opacity="0.246284965" fill="#05135C"></path>
                            <path d="M10.6629699,71.3498998 L3.79369085,84.1670451 C2.75013977,86.1141702 3.48263126,88.5385923 5.42975638,89.5821434 C6.01087118,89.8935887 6.65996057,90.0565615 7.31927277,90.0565615 L65.0570351,90.0565615 C66.6014589,90.0565615 68.0079036,89.1674488 68.670368,87.7723195 L76.4684034,71.3498998 L76.4684034,71.3498998 L10.6629699,71.3498998 Z" id="路径-10" fill="#94A2EB"></path>
                        </g>
                        <g id="人-推" transform="translate(212.643568, 85.401670)">
                            <g id="右腿" transform="translate(9.930645, 50.226090)">
                                <path d="M6.0831877,1.17065608 C6.0831877,1.17065608 1.45983267,16.1215553 1.74862047,18.2145464 C2.03786665,20.3075376 3.77151019,38.2481676 3.77151019,38.2481676 L1.74862047,40.3411588 C2.80934261,41.0623224 4.79739444,40.7870589 6.95046786,40.3411588 L6.0831877,37.351428 C6.0831877,37.351428 8.6841114,14.9253037 8.39486521,17.6164207 C8.10607742,20.3075376 12.5887057,0 12.5887057,0 L6.0831877,1.17065608 Z" fill="#FFE4A8"></path>
                                <path d="M2.28668254,39.9037007 C0.679097171,40.0316781 -0.229438389,40.9957742 0.0501815363,41.541811 C0.329801461,42.0878477 2.72307298,41.905087 3.9639437,41.8152784 C5.36158493,41.541811 6.20044471,41.541811 6.75968456,40.9957742 C7.03930448,40.1762701 7.03930448,39.4340014 6.48006463,39.0841966 C6.48006463,39.0841966 4.80280348,40.4497375 3.9639437,40.4497375 C3.36665721,40.4088745 2.78954002,40.2211744 2.28668254,39.9037007 Z" id="右鞋" fill="#F49130"></path>
                            </g>
                            <g id="左腿" transform="translate(6.459167, 48.500295)">
                                <path d="M3.07605591,21.7115031 C4.3462638,23.5391097 14.0431161,35.8357135 16.4996459,38.9435427 C16.8484832,39.3862994 16.9429122,39.9862214 16.7471783,40.5196849 L16.3506681,41.6023285 C16.2502799,41.8780411 16.077924,42.1200755 15.8528529,42.3023871 C15.6053205,42.5031095 15.3137824,42.7747808 15.3137824,42.9485605 C15.3137824,43.1218913 16.3103294,43.0886621 17.0620945,43.0293883 C17.5993315,42.9876273 18.0774357,42.663867 18.3263433,42.1735117 C18.8420358,41.162715 19.6726444,39.4814966 19.6726444,39.0602939 C19.6726444,38.7459636 19.0286018,38.1837613 18.4198555,37.7198995 C17.6928437,37.1698213 17.1290199,36.4235112 16.7907256,35.5635932 L10.6720916,20.0096287 C10.6482552,19.9490079 10.6276275,19.8874889 10.6106669,19.8241738 L5.7393211,1.20459025 C5.54450394,0.436277035 4.8330775,-0.0720400661 4.06389351,0.00833869817 L1.40337868,0.307401586 C0.545724783,0.398557392 -0.0786069183,1.18528139 0.00802941913,2.06630449 C0.479716145,6.7053716 1.8755238,19.9885237 3.07605591,21.7115031 Z" fill="#FFE4A8"></path>
                                <path d="M19.6650351,38.55988 C20.2297757,38.3717308 20.8298125,39.7951983 20.8298125,40.1041402 C20.8298125,40.413082 19.1818886,43.30088 18.7917958,43.5016024 C18.4017031,43.7023247 15.8044466,43.6807707 15.297922,43.5016024 C14.6804662,43.2851635 15.2337469,41.9573422 16.462241,41.9573422 L18.2091779,41.9573422 C18.2091779,41.9573422 19.1383412,40.0111882 19.6650351,38.55988 Z" id="左鞋" fill="#F49130"></path>
                            </g>
                            <g id="身体" transform="translate(4.259822, 19.231814)">
                                <path d="M0.758328416,23.6604783 C0.660779352,23.9040628 0.144327428,26.3290596 0.244995489,28.6781137 C0.758328416,40.6565588 2.19934504,47.2537368 4.22439674,50.214949 C5.10863746,50.4619229 8.85325249,48.1259993 10.8784342,47.8273854 C12.9031575,47.5292206 13.7631033,48.9895097 14.9283392,48.7227779 C16.149499,48.4430239 18.5973193,30.3057129 18.3190745,29.1763688 L15.2033751,25.5777352 L0.758328416,23.6604783 Z" id="裙子" fill="#0E1D80"></path>
                                <path d="M10.1341868,0 C9.66754238,1.65261093 11.5020324,1.68808519 12.206583,1.3239644 C19.0302259,7.22614629 19.2145001,16.2145883 18.3192579,26.4935592 C18.3279674,26.3944759 17.4175982,26.0360636 17.298416,25.9842794 C16.952329,25.8334118 16.5950368,25.7048475 16.2321931,25.5863153 C12.206583,24.271247 6.93404927,28.1440906 0.630776472,24.5098552 C0.348729194,24.3472371 0.504718309,23.6070966 0.530388335,23.4199393 C0.782963054,21.5875106 2.01833305,20.0890292 2.58811595,18.3479365 C3.35225761,16.012752 3.37884442,13.5523882 3.39076265,11.1397312 C3.39305462,10.6353444 3.39351301,10.1309576 3.40909838,9.62616306 C3.42009982,9.27182827 3.35454958,8.75357796 3.49894347,8.41799968 C5.07581649,4.74294852 6.21354871,0.941902604 10.1341868,0 Z" fill="#7589F2"></path>
                            </g>
                            <g id="右手" transform="translate(3.415397, 0.000000)">
                                <path d="M1.26755758,7.47535722 C1.12728922,6.99353368 1.55370744,5.25934124 0.756715692,3.64996396 C0.664578635,3.48426695 0.343703311,3.3284489 0.358830291,3.11919469 C0.367998157,2.99166637 0.83785131,2.85425909 0.915319781,2.72358747 C1.04917063,2.49682057 1.092718,2.1658756 1.14864198,1.91081896 C1.28891034,1.26868693 1.23115278,0.637331948 1.30449571,0.000139398137 C1.97925068,-0.0101885995 2.08513953,1.12229879 2.13097887,1.56999504 C2.19286196,2.17171316 2.20065465,2.77747268 2.20157144,3.38143602 C2.20248822,3.75863245 2.16856712,4.13852315 2.2180736,4.51392341 C2.26207936,4.85115499 2.39822217,5.17087387 2.5059446,5.49193988 C2.65125528,5.92571578 2.79656597,6.35949168 2.94187665,6.79326758 L1.26755758,7.47535722 Z" fill="#FFE4A8"></path>
                                <path d="M3.56217449,6.5366842 C5.33523985,11.7446893 7.39846818,16.5642718 9.98839044,20.6797544 L8.41197581,21.9348306 C5.64144659,20.593089 3.115241,15.8574775 0.648168154,10.2987696 C0.355713216,9.7055833 0.161354449,8.89506001 2.89254076e-13,8.01179169 L3.56217449,6.5366842 Z" id="右胳膊" fill="#465AC7"></path>
                            </g>
                            <g id="左手" transform="translate(0.000000, 1.526567)">
                                <path d="M1.58615578,9.91124287 C1.1138442,6.66313843 2.4318753,7.25372881 1.44064287e-13,2.60513091 C0.12559977,2.47176503 0.34929571,2.59345578 0.479479413,2.72188219 C0.78293579,3.02049603 1.04559516,3.35862569 1.25920645,3.72459604 C1.20236568,3.62715363 1.26058163,3.27555267 1.25828966,3.14173774 C1.25462252,2.9041938 1.24637144,2.66754794 1.2349116,2.43090208 C1.21886784,2.09322146 1.1803628,1.77619684 1.12077167,1.44525187 C1.05980536,1.10667316 0.824649582,0.367996811 1.18998906,0.123268171 C1.90874978,-0.358106327 2.37906133,0.689511868 2.52345523,1.21893401 C2.81499338,2.28945342 2.78886496,3.3918549 2.72560668,4.48886787 C2.70039505,4.93207368 2.67380823,5.37617758 2.69306075,5.82028148 C2.74165045,6.94199183 3.07994472,8.03092202 3.21792111,9.14589672 C2.82737,9.31922746 1.97716529,9.73791213 1.58615578,9.91124287 Z" fill="#FFE4A8"></path>
                                <path d="M4.6950019,8.49325699 C6.01334109,11.5081343 7.47882453,14.4906804 9.32477443,17.2343354 C10.75542,19.3601068 12.4455162,21.3700249 14.6746829,22.7710402 C15.5667163,23.3318954 16.4422475,23.9237346 16.9561064,24.8626843 C17.6345285,26.1033911 18.1506794,27.7419504 17.8105516,29.1532937 C17.189887,31.7263123 13.898623,31.3648324 12.0613826,30.5305098 C9.40132612,29.3234812 7.11440184,27.4186392 5.38534224,25.1065148 C4.27190487,23.617487 3.38674737,21.9672526 2.74362154,20.2330471 C1.5522573,17.022387 1.04848304,13.5970841 0.83028782,10.2014181 C0.83028782,10.2014181 4.6950019,8.49280803 4.6950019,8.49325699 Z" id="左胳膊" fill="#5266D4"></path>
                            </g>
                            <path d="M15.3230698,3.49369348 L21.1458553,4.43591225 L24.9851044,12.0764877 L17.3790695,16.6596935 L16.310001,21.3869079 C14.6966246,21.8010157 13.9767719,21.2202374 14.3512644,19.4222938 L14.393917,19.2319487 C14.6085699,18.7042662 14.8038693,18.071291 14.8853353,16.819005 C13.79988,16.744569 12.6240816,16.5619597 12.1636533,16.1264294 L12.1636533,16.1264294 L12.1078383,16.0667488 C12.0731005,16.0251859 12.0428018,15.980405 12.0139121,15.9344074 L12.0139121,15.9344074 L11.9222752,15.7669533 C11.6198278,15.1303368 11.6746514,14.2584689 11.6963565,13.5984661 L11.6963565,13.5984661 L11.7261242,13.0139925 C11.7791281,12.2351633 11.8836339,11.4587231 12.0186124,10.6908314 C12.481899,8.04883978 14.0148903,5.79762497 15.3230698,3.49369348 L15.3230698,3.49369348 Z" id="头" fill="#FFE4A8"></path>
                            <path d="M17.0230318,11.4467939 C18.8883786,10.6547423 18.6374931,13.4102122 16.0388614,14.2357574 C16.2510975,14.1329265 16.914851,16.9008747 16.8442585,17.2484343 C16.4161191,19.3629796 15.3645648,21.282191 16.0388614,23.4811564 C16.4092432,24.689083 17.1633002,25.7425388 17.8692259,26.7977907 C18.5746932,27.8530427 19.2572409,28.9698135 19.4525164,30.217256 C20.0236745,33.8634883 16.7104076,36.4733283 15.7124853,39.7006031 C15.2884715,41.0719816 15.3352276,42.6701269 16.2235939,43.8080028 C16.9024744,44.6777999 17.9769483,45.165461 18.6374931,46.0446879 C19.2897868,46.9122397 19.7064663,48.0052113 20.3055864,48.9248521 C21.639511,50.9742861 23.369029,52.9532202 25.8411441,53.6478903 C27.2250336,54.0372109 28.664847,53.8971094 30.0015219,53.4040598 C30.750995,53.1274491 31.4569207,52.743966 32.1234246,52.3115373 C32.5511056,52.0344775 33.89649,50.5984368 34.3127111,50.5984368 C34.0413422,50.8449616 32.2824871,48.1282492 32.1568873,47.8193073 C31.7292063,46.7694439 31.6641145,45.6028292 31.9629869,44.5107557 C32.2760696,43.3656951 33.0489207,42.4159684 33.3785055,41.2547422 C33.7488873,39.9475769 33.8171879,38.5559915 33.5531534,37.2227817 C33.2872852,35.8801421 32.6858732,34.6053079 31.8332616,33.5235624 C30.9545216,32.4094858 29.7131925,31.7332265 28.7675271,30.6986305 C28.2257062,30.1063423 27.8736601,29.3735035 27.5573687,28.6406647 C25.9873716,25.0034134 24.9151896,20.9359785 25.1911424,16.9641899 C25.4849725,12.7382426 25.9589512,6.48531364 21.0688113,4.48886679 C19.5822418,3.88176015 18.8144329,3.55844892 17.2811073,2.97289635 C15.7386138,2.3833024 14.51287,1.05009262 12.7746426,1.82603957 C11.795056,2.26340782 10.5608961,4.98332542 14.0511218,8.51531642 C15.4779452,10.0956964 16.8442585,10.0198238 17.0230318,11.4467939 Z" id="头发" fill="#0E1D80"></path>
                        </g>
                    </g>
                </g>
            </g>
        </g>
    </g>
</svg>