<svg xmlns="http://www.w3.org/2000/svg" xmlns:xlink="http://www.w3.org/1999/xlink" width="40" height="48" viewBox="0 0 40 48">
  <defs>
    <linearGradient id="green-c" x1="50%" x2="50%" y1="0%" y2="100%">
      <stop offset="0%" stop-color="#00BFA5" stop-opacity=".2"/>
      <stop offset="100%" stop-color="#00BFA5" stop-opacity=".7"/>
    </linearGradient>
    <path id="green-b" d="M4.95,0 C2.2275,0 0.02475,1.98 0.02475,4.4 L-3.39728246e-14,39.6 C-3.39728246e-14,42.02 2.20275,44 4.92525,44 L31.05,44 C33.7725,44 36,42.02 36,39.6 L36,13.2 L21.15,0 L4.95,0 Z"/>
    <filter id="green-a" width="119.4%" height="115.9%" x="-9.7%" y="-5.7%" filterUnits="objectBoundingBox">
      <feOffset dy="1" in="SourceAlpha" result="shadowOffsetOuter1"/>
      <feGaussianBlur in="shadowOffsetOuter1" result="shadowBlurOuter1" stdDeviation="1"/>
      <feColorMatrix in="shadowBlurOuter1" values="0 0 0 0 0   0 0 0 0 0.749019608   0 0 0 0 0.647058824  0 0 0 0.8 0"/>
    </filter>
    <linearGradient id="green-d" x1="50%" x2="0%" y1="50%" y2="92.014%">
      <stop offset="0%" stop-color="#00BFA5" stop-opacity=".1"/>
      <stop offset="100%" stop-color="#00BFA5"/>
    </linearGradient>
  </defs>
  <g fill="none" fill-rule="evenodd" transform="translate(2 1)">
    <use fill="#000" filter="url(#green-a)" xlink:href="#green-b"/>
    <use fill="url(#green-c)" xlink:href="#green-b"/>
    <path fill="url(#green-d)" d="M21.6,0 L36,13.2 L23.6022583,13.2 C22.4964416,13.2 21.6,12.3134141 21.6,11.1952041 L21.6,0 Z"/>
  </g>
</svg>
