<?xml version="1.0" encoding="UTF-8"?>
<svg width="36px" height="42px" viewBox="0 0 36 42" version="1.1" xmlns="http://www.w3.org/2000/svg" xmlns:xlink="http://www.w3.org/1999/xlink">
    <!-- Generator: Sketch 63.1 (92452) - https://sketch.com -->
    <title>green</title>
    <desc>Created with Sketch.</desc>
    <defs>
        <linearGradient x1="50%" y1="0%" x2="50%" y2="100%" id="linearGradient-1">
            <stop stop-color="#00BFA5" stop-opacity="0.2" offset="0%"></stop>
            <stop stop-color="#00BFA5" stop-opacity="0.7" offset="100%"></stop>
        </linearGradient>
        <path d="M4.95,0 C2.2275,0 0.02475,1.98 0.02475,4.4 L-3.39728246e-14,39.6 C-3.39728246e-14,42.02 2.20275,44 4.92525,44 L31.05,44 C33.7725,44 36,42.02 36,39.6 L36,13.2 L21.15,0 L4.95,0 Z" id="path-2"></path>
        <filter x="-9.7%" y="-5.7%" width="119.4%" height="115.9%" filterUnits="objectBoundingBox" id="filter-3">
            <feOffset dx="0" dy="1" in="SourceAlpha" result="shadowOffsetOuter1"></feOffset>
            <feGaussianBlur stdDeviation="1" in="shadowOffsetOuter1" result="shadowBlurOuter1"></feGaussianBlur>
            <feColorMatrix values="0 0 0 0 0   0 0 0 0 0.749019608   0 0 0 0 0.647058824  0 0 0 0.8 0" type="matrix" in="shadowBlurOuter1"></feColorMatrix>
        </filter>
        <linearGradient x1="50%" y1="50%" x2="0%" y2="92.0138889%" id="linearGradient-4">
            <stop stop-color="#00BFA5" stop-opacity="0.1" offset="0%"></stop>
            <stop stop-color="#00BFA5" offset="100%"></stop>
        </linearGradient>
    </defs>
    <g id="页面-1" stroke="none" stroke-width="1" fill="none" fill-rule="evenodd">
        <g id="个人工作台-normal" transform="translate(-824.000000, -818.000000)">
            <g id="编组-4" transform="translate(482.000000, 741.000000)">
                <g id="编组-10" transform="translate(324.000000, 62.000000)">
                    <g id="green" transform="translate(20.000000, 16.000000)">
                        <g id="Path">
                            <use fill="black" fill-opacity="1" filter="url(#filter-3)" xlink:href="#path-2"></use>
                            <use fill="url(#linearGradient-1)" fill-rule="evenodd" xlink:href="#path-2"></use>
                        </g>
                        
                        <path d="M21.6,0 L36,13.2 L23.6022583,13.2 C22.4964416,13.2 21.6,12.3134141 21.6,11.1952041 L21.6,0 Z" id="Path" fill="url(#linearGradient-4)"></path>
                    </g>
                </g>
            </g>
        </g>
    </g>
</svg>